<svg width="438" height="675" viewBox="0 0 438 675" fill="none" xmlns="http://www.w3.org/2000/svg">
<path d="M0 480.759V288.04L183.248 105.7L346.231 266.242L248.025 362.775L184.114 300.496L0 480.759Z" fill="url(#paint0_linear_1_68)" fill-opacity="0.16"/>
<path d="M277.624 90.3047L373.116 188.394L466.241 90.3047L371.933 0L277.624 90.3047Z" fill="url(#paint1_linear_1_68)" fill-opacity="0.16"/>
<path d="M179.433 674.17V480.759L559.784 105.7L740.606 293.23V480.759L561.343 300.496L179.433 674.17Z" fill="url(#paint2_linear_1_68)" fill-opacity="0.16"/>
<path d="M394.53 507.582L489.617 415.72L561.323 480.768V674.179L394.53 507.582Z" fill="url(#paint3_linear_1_68)" fill-opacity="0.16"/>
<defs>
<linearGradient id="paint0_linear_1_68" x1="173.115" y1="105.7" x2="173.115" y2="480.759" gradientUnits="userSpaceOnUse">
<stop stop-color="#00BBAB" stop-opacity="0.38"/>
<stop offset="1" stop-color="#00BBAB" stop-opacity="0"/>
</linearGradient>
<linearGradient id="paint1_linear_1_68" x1="371.933" y1="0" x2="371.933" y2="188.394" gradientUnits="userSpaceOnUse">
<stop stop-color="#00BBAB" stop-opacity="0.38"/>
<stop offset="1" stop-color="#00BBAB" stop-opacity="0"/>
</linearGradient>
<linearGradient id="paint2_linear_1_68" x1="460.02" y1="105.7" x2="460.02" y2="674.17" gradientUnits="userSpaceOnUse">
<stop stop-color="#00BBAB" stop-opacity="0.38"/>
<stop offset="1" stop-color="#00BBAB" stop-opacity="0"/>
</linearGradient>
<linearGradient id="paint3_linear_1_68" x1="477.926" y1="415.72" x2="477.926" y2="674.179" gradientUnits="userSpaceOnUse">
<stop stop-color="#00BBAB" stop-opacity="0.38"/>
<stop offset="1" stop-color="#00BBAB" stop-opacity="0"/>
</linearGradient>
</defs>
</svg>
