<svg width="24" height="24" viewBox="0 0 24 24" fill="none" xmlns="http://www.w3.org/2000/svg">
<circle cx="12" cy="12" r="12" fill="#E7E7E7"/>
<g clip-path="url(#clip0_240_524)">
<path d="M13.5 13C12.165 13 9.5 13.665 9.5 15V16H17.5V15C17.5 13.665 14.835 13 13.5 13ZM9 11V9.5H8V11H6.5V12H8V13.5H9V12H10.5V11M13.5 12C14.0304 12 14.5391 11.7893 14.9142 11.4142C15.2893 11.0391 15.5 10.5304 15.5 10C15.5 9.46957 15.2893 8.96086 14.9142 8.58579C14.5391 8.21071 14.0304 8 13.5 8C12.9696 8 12.4609 8.21071 12.0858 8.58579C11.7107 8.96086 11.5 9.46957 11.5 10C11.5 10.5304 11.7107 11.0391 12.0858 11.4142C12.4609 11.7893 12.9696 12 13.5 12Z" fill="#464646"/>
</g>
<defs>
<clipPath id="clip0_240_524">
<rect width="12" height="12" fill="white" transform="translate(6 6)"/>
</clipPath>
</defs>
</svg>
