<svg width="24" height="24" viewBox="0 0 24 24" fill="none" xmlns="http://www.w3.org/2000/svg">
<circle cx="12" cy="12" r="12" fill="#E7E7E7"/>
<path d="M18 13L11.5 13H5.67182C5.59448 13 5.5312 13.4696 5.5312 13.5469V14.6016C5.5312 14.6789 5.59448 14.7422 5.67182 14.7422H16.3101L13.7736 17.959C13.7015 18.0504 13.7666 18.1875 13.8843 18.1875H15.1587C15.2449 18.1875 15.4455 18.2561 15.5 18.1875L17 16.5L18.5 14.5C18.79 14.1309 18.4711 13 18 13ZM18.3281 9.25783H7.68979L10.2263 6.04104C10.2984 5.94963 10.2333 5.81252 10.1156 5.81252H8.84116C8.75503 5.81252 8.55449 5.74395 8.5 5.81251L6.99954 7.50002L5.5312 9.25783C5.24116 9.62697 5.53042 11 5.99976 11H11.9998H18.3281C18.4054 11 18.4687 10.5305 18.4687 10.4531V9.39846C18.4687 9.32111 18.4054 9.25783 18.3281 9.25783Z" fill="#464646"/>
</svg>
