<svg width="24" height="24" viewBox="0 0 24 24" fill="none" xmlns="http://www.w3.org/2000/svg">
<circle cx="12" cy="12" r="12" fill="#E7E7E7"/>
<path d="M6 9.19998C6 8.59498 6.495 8.09998 7.1 8.09998H15.35C15.4959 8.09998 15.6358 8.15792 15.7389 8.26107C15.8421 8.36421 15.9 8.50411 15.9 8.64998V9.19998H7.1V9.74998H16.45C16.5959 9.74998 16.7358 9.80792 16.8389 9.91107C16.9421 10.0142 17 10.1541 17 10.3V15.8C17 16.0917 16.8841 16.3715 16.6778 16.5778C16.4715 16.7841 16.1917 16.9 15.9 16.9H7.1C6.80826 16.9 6.52847 16.7841 6.32218 16.5778C6.11589 16.3715 6 16.0917 6 15.8V9.19998ZM15.075 14.15C15.2938 14.15 15.5036 14.0631 15.6584 13.9083C15.8131 13.7536 15.9 13.5438 15.9 13.325C15.9 13.1062 15.8131 12.8963 15.6584 12.7416C15.5036 12.5869 15.2938 12.5 15.075 12.5C14.8562 12.5 14.6464 12.5869 14.4916 12.7416C14.3369 12.8963 14.25 13.1062 14.25 13.325C14.25 13.5438 14.3369 13.7536 14.4916 13.9083C14.6464 14.0631 14.8562 14.15 15.075 14.15Z" fill="#464646"/>
</svg>
