<svg width="132" height="27" viewBox="0 0 132 27" fill="none" xmlns="http://www.w3.org/2000/svg">
<path d="M51 10.1719C50.8906 9.79167 50.737 9.45573 50.5391 9.16406C50.3411 8.86719 50.099 8.61719 49.8125 8.41406C49.5313 8.20573 49.2083 8.04687 48.8438 7.9375C48.4844 7.82813 48.0859 7.77344 47.6484 7.77344C46.8307 7.77344 46.112 7.97656 45.4922 8.38281C44.8776 8.78906 44.3984 9.38021 44.0547 10.1562C43.7109 10.9271 43.5391 11.8698 43.5391 12.9844C43.5391 14.099 43.7083 15.0469 44.0469 15.8281C44.3854 16.6094 44.8646 17.2057 45.4844 17.6172C46.1042 18.0234 46.8359 18.2266 47.6797 18.2266C48.4453 18.2266 49.099 18.0911 49.6406 17.8203C50.1875 17.5443 50.6042 17.1562 50.8906 16.6562C51.1823 16.1562 51.3281 15.5651 51.3281 14.8828L52.0156 14.9844H47.8906V12.4375H54.5859V14.4531C54.5859 15.8594 54.2891 17.0677 53.6953 18.0781C53.1016 19.0833 52.2839 19.8594 51.2422 20.4062C50.2005 20.9479 49.0078 21.2187 47.6641 21.2187C46.1641 21.2187 44.8464 20.888 43.7109 20.2266C42.5755 19.5599 41.6901 18.6146 41.0547 17.3906C40.4245 16.1615 40.1094 14.7031 40.1094 13.0156C40.1094 11.7187 40.2969 10.5625 40.6719 9.54687C41.0521 8.52604 41.5833 7.66146 42.2656 6.95313C42.9479 6.24479 43.7422 5.70573 44.6484 5.33594C45.5547 4.96615 46.5365 4.78125 47.5938 4.78125C48.5 4.78125 49.3438 4.91406 50.125 5.17969C50.9063 5.4401 51.599 5.8099 52.2031 6.28906C52.8125 6.76823 53.3099 7.33854 53.6953 8C54.0807 8.65625 54.3281 9.38021 54.4375 10.1719H51ZM57.2845 21V9H60.511V11.0937H60.636C60.8548 10.349 61.222 9.78646 61.7376 9.40625C62.2532 9.02083 62.847 8.82812 63.5188 8.82812C63.6855 8.82812 63.8652 8.83854 64.0579 8.85937C64.2506 8.88021 64.4199 8.90885 64.5657 8.94531V11.8984C64.4095 11.8516 64.1933 11.8099 63.9173 11.7734C63.6412 11.737 63.3886 11.7188 63.1595 11.7188C62.6699 11.7188 62.2324 11.8255 61.847 12.0391C61.4667 12.2474 61.1647 12.5391 60.9407 12.9141C60.722 13.2891 60.6126 13.7214 60.6126 14.2109V21H57.2845ZM69.5845 21.2266C68.8189 21.2266 68.1366 21.0938 67.5377 20.8281C66.9387 20.5573 66.4647 20.1589 66.1158 19.6328C65.772 19.1016 65.6002 18.4401 65.6002 17.6484C65.6002 16.9818 65.7226 16.4219 65.9673 15.9687C66.2121 15.5156 66.5455 15.151 66.9673 14.875C67.3892 14.599 67.8684 14.3906 68.4048 14.25C68.9465 14.1094 69.5142 14.0104 70.108 13.9531C70.8059 13.8802 71.3684 13.8125 71.7955 13.75C72.2226 13.6823 72.5324 13.5833 72.7252 13.4531C72.9179 13.3229 73.0142 13.1302 73.0142 12.875V12.8281C73.0142 12.3333 72.858 11.9505 72.5455 11.6797C72.2382 11.4089 71.8007 11.2734 71.233 11.2734C70.634 11.2734 70.1574 11.4062 69.8033 11.6719C69.4491 11.9323 69.2147 12.2604 69.1002 12.6562L66.022 12.4062C66.1783 11.6771 66.4856 11.0469 66.9439 10.5156C67.4022 9.97917 67.9934 9.56771 68.7173 9.28125C69.4465 8.98958 70.2903 8.84375 71.2486 8.84375C71.9153 8.84375 72.5533 8.92187 73.1627 9.07812C73.7772 9.23437 74.3215 9.47656 74.7955 9.80469C75.2746 10.1328 75.6522 10.5547 75.9283 11.0703C76.2043 11.5807 76.3423 12.1927 76.3423 12.9062V21H73.1861V19.3359H73.0923C72.8996 19.7109 72.6418 20.0417 72.3189 20.3281C71.996 20.6094 71.608 20.8307 71.1548 20.9922C70.7017 21.1484 70.1783 21.2266 69.5845 21.2266ZM70.5377 18.9297C71.0272 18.9297 71.4595 18.8333 71.8345 18.6406C72.2095 18.4427 72.5038 18.1771 72.7173 17.8438C72.9309 17.5104 73.0377 17.1328 73.0377 16.7109V15.4375C72.9335 15.5052 72.7903 15.5677 72.608 15.625C72.4309 15.6771 72.2304 15.7266 72.0064 15.7734C71.7824 15.8151 71.5585 15.8542 71.3345 15.8906C71.1106 15.9219 70.9074 15.9505 70.7252 15.9766C70.3345 16.0339 69.9934 16.125 69.7017 16.25C69.4101 16.375 69.1835 16.5443 69.022 16.7578C68.8606 16.9661 68.7798 17.2266 68.7798 17.5391C68.7798 17.9922 68.9439 18.3385 69.272 18.5781C69.6054 18.8125 70.0272 18.9297 70.5377 18.9297ZM89.9022 9L85.7069 21H81.9569L77.7616 9H81.2772L83.7694 17.5859H83.8944L86.3788 9H89.9022ZM91.8253 21V9H95.1534V21H91.8253ZM93.4972 7.45312C93.0024 7.45312 92.5779 7.28906 92.2238 6.96094C91.8748 6.6276 91.7003 6.22917 91.7003 5.76562C91.7003 5.30729 91.8748 4.91406 92.2238 4.58594C92.5779 4.2526 93.0024 4.08594 93.4972 4.08594C93.992 4.08594 94.4139 4.2526 94.7628 4.58594C95.117 4.91406 95.2941 5.30729 95.2941 5.76562C95.2941 6.22917 95.117 6.6276 94.7628 6.96094C94.4139 7.28906 93.992 7.45312 93.4972 7.45312ZM104.422 9V11.5H97.1957V9H104.422ZM98.8363 6.125H102.164V17.3125C102.164 17.6198 102.211 17.8594 102.305 18.0312C102.399 18.1979 102.529 18.3151 102.696 18.3828C102.868 18.4505 103.065 18.4844 103.289 18.4844C103.446 18.4844 103.602 18.4714 103.758 18.4453C103.914 18.4141 104.034 18.3906 104.118 18.375L104.641 20.8516C104.474 20.9036 104.24 20.9635 103.938 21.0313C103.636 21.1042 103.269 21.1484 102.836 21.1641C102.034 21.1953 101.331 21.0885 100.727 20.8437C100.128 20.599 99.6618 20.2187 99.3285 19.7031C98.9952 19.1875 98.8311 18.5365 98.8363 17.75V6.125ZM114.506 15.8906V9H117.834V21H114.638V18.8203H114.513C114.243 19.5234 113.792 20.0885 113.162 20.5156C112.537 20.9427 111.774 21.1563 110.873 21.1563C110.071 21.1563 109.365 20.974 108.756 20.6094C108.146 20.2448 107.67 19.7266 107.326 19.0547C106.987 18.3828 106.815 17.5781 106.81 16.6406V9H110.138V16.0469C110.144 16.7552 110.334 17.3151 110.709 17.7266C111.084 18.138 111.586 18.3437 112.216 18.3437C112.618 18.3437 112.993 18.2526 113.341 18.0703C113.69 17.8828 113.972 17.6068 114.185 17.2422C114.404 16.8776 114.511 16.4271 114.506 15.8906ZM130.7 12.4219L127.653 12.6094C127.601 12.349 127.489 12.1146 127.317 11.9062C127.145 11.6927 126.919 11.5234 126.638 11.3984C126.362 11.2682 126.031 11.2031 125.645 11.2031C125.13 11.2031 124.695 11.3125 124.341 11.5312C123.987 11.7448 123.81 12.0312 123.81 12.3906C123.81 12.6771 123.924 12.9193 124.153 13.1172C124.382 13.3151 124.776 13.474 125.333 13.5937L127.505 14.0312C128.672 14.2708 129.541 14.6562 130.114 15.1875C130.687 15.7187 130.974 16.4167 130.974 17.2812C130.974 18.0677 130.742 18.7578 130.278 19.3516C129.82 19.9453 129.19 20.4089 128.388 20.7422C127.591 21.0703 126.672 21.2344 125.63 21.2344C124.041 21.2344 122.776 20.9036 121.833 20.2422C120.895 19.5755 120.346 18.6693 120.185 17.5234L123.458 17.3516C123.557 17.8359 123.797 18.2057 124.177 18.4609C124.557 18.7109 125.044 18.8359 125.638 18.8359C126.221 18.8359 126.69 18.724 127.044 18.5C127.403 18.2708 127.586 17.9766 127.591 17.6172C127.586 17.3151 127.458 17.0677 127.208 16.875C126.958 16.6771 126.573 16.526 126.052 16.4219L123.974 16.0078C122.802 15.7734 121.929 15.3672 121.356 14.7891C120.789 14.2109 120.505 13.474 120.505 12.5781C120.505 11.8073 120.713 11.1432 121.13 10.5859C121.552 10.0286 122.143 9.59896 122.903 9.29687C123.669 8.99479 124.565 8.84375 125.591 8.84375C127.106 8.84375 128.299 9.16406 129.169 9.80469C130.044 10.4453 130.554 11.3177 130.7 12.4219Z" fill="#00BBAB"/>
<path d="M0 18.6113V11.1507L7.33295 4.0918L13.855 10.3068L9.92513 14.0438L7.36761 11.6329L0 18.6113Z" fill="#00BBAB"/>
<path d="M11.1055 3.49594L14.9267 7.29325L18.6533 3.49594L14.8794 0L11.1055 3.49594Z" fill="#00BBAB"/>
<path d="M7.17969 26.0988V18.6113L22.4001 4.0918L29.636 11.3516V18.6113L22.4624 11.6328L7.17969 26.0988Z" fill="#00BBAB"/>
<path d="M15.7891 19.6509L19.5941 16.0947L22.4635 18.6129V26.1004L15.7891 19.6509Z" fill="#00BBAB"/>
</svg>
