<svg width="163" height="37" viewBox="0 0 163 37" fill="none" xmlns="http://www.w3.org/2000/svg">
<path d="M60.946 27.312C59.5073 27.312 58.1813 27.0867 56.968 26.636C55.772 26.168 54.7233 25.5093 53.822 24.66C52.938 23.8107 52.2447 22.814 51.742 21.67C51.2567 20.526 51.014 19.2693 51.014 17.9C51.014 16.5307 51.2567 15.274 51.742 14.13C52.2447 12.986 52.9467 11.9893 53.848 11.14C54.7493 10.2907 55.8067 9.64067 57.02 9.19C58.2333 8.722 59.568 8.488 61.024 8.488C62.636 8.488 64.0833 8.75667 65.366 9.294C66.666 9.83133 67.758 10.6113 68.642 11.634L65.938 14.13C65.2793 13.4367 64.56 12.9253 63.78 12.596C63 12.2493 62.1507 12.076 61.232 12.076C60.348 12.076 59.542 12.2147 58.814 12.492C58.086 12.7693 57.4533 13.168 56.916 13.688C56.396 14.208 55.9887 14.8233 55.694 15.534C55.4167 16.2447 55.278 17.0333 55.278 17.9C55.278 18.7493 55.4167 19.5293 55.694 20.24C55.9887 20.9507 56.396 21.5747 56.916 22.112C57.4533 22.632 58.0773 23.0307 58.788 23.308C59.516 23.5853 60.3133 23.724 61.18 23.724C62.012 23.724 62.818 23.594 63.598 23.334C64.3953 23.0567 65.1667 22.5973 65.912 21.956L68.304 24.998C67.316 25.7433 66.1633 26.3153 64.846 26.714C63.546 27.1127 62.246 27.312 60.946 27.312ZM64.456 24.452V17.614H68.304V24.998L64.456 24.452ZM71.9306 27V13.012H75.8046V16.964L75.2586 15.82C75.6746 14.832 76.3419 14.0867 77.2606 13.584C78.1793 13.064 79.2973 12.804 80.6146 12.804V16.548C80.4413 16.5307 80.2853 16.522 80.1466 16.522C80.0079 16.5047 79.8606 16.496 79.7046 16.496C78.5953 16.496 77.6939 16.8167 77.0006 17.458C76.3246 18.082 75.9866 19.0613 75.9866 20.396V27H71.9306ZM90.6922 27V24.27L90.4322 23.672V18.784C90.4322 17.9173 90.1636 17.2413 89.6262 16.756C89.1062 16.2707 88.3002 16.028 87.2082 16.028C86.4629 16.028 85.7262 16.1493 84.9982 16.392C84.2876 16.6173 83.6809 16.9293 83.1782 17.328L81.7222 14.494C82.4849 13.9567 83.4036 13.5407 84.4782 13.246C85.5529 12.9513 86.6449 12.804 87.7542 12.804C89.8862 12.804 91.5416 13.3067 92.7202 14.312C93.8989 15.3173 94.4882 16.886 94.4882 19.018V27H90.6922ZM86.4282 27.208C85.3362 27.208 84.4002 27.026 83.6202 26.662C82.8402 26.2807 82.2422 25.7693 81.8262 25.128C81.4102 24.4867 81.2022 23.7673 81.2022 22.97C81.2022 22.138 81.4016 21.41 81.8002 20.786C82.2162 20.162 82.8662 19.6767 83.7502 19.33C84.6342 18.966 85.7869 18.784 87.2082 18.784H90.9262V21.15H87.6502C86.6969 21.15 86.0382 21.306 85.6742 21.618C85.3276 21.93 85.1542 22.32 85.1542 22.788C85.1542 23.308 85.3536 23.724 85.7522 24.036C86.1682 24.3307 86.7316 24.478 87.4422 24.478C88.1182 24.478 88.7249 24.322 89.2622 24.01C89.7996 23.6807 90.1896 23.204 90.4322 22.58L91.0562 24.452C90.7616 25.3533 90.2242 26.038 89.4442 26.506C88.6642 26.974 87.6589 27.208 86.4282 27.208ZM101.701 27L95.8252 13.012H100.011L104.899 25.05H102.819L107.889 13.012H111.789L105.887 27H101.701ZM113.444 27V13.012H117.5V27H113.444ZM115.472 11.062C114.727 11.062 114.12 10.8453 113.652 10.412C113.184 9.97867 112.95 9.44133 112.95 8.8C112.95 8.15867 113.184 7.62133 113.652 7.188C114.12 6.75467 114.727 6.538 115.472 6.538C116.218 6.538 116.824 6.746 117.292 7.162C117.76 7.56067 117.994 8.08067 117.994 8.722C117.994 9.398 117.76 9.96133 117.292 10.412C116.842 10.8453 116.235 11.062 115.472 11.062ZM126.985 27.208C125.338 27.208 124.055 26.792 123.137 25.96C122.218 25.1107 121.759 23.854 121.759 22.19V9.918H125.815V22.138C125.815 22.7273 125.971 23.1867 126.283 23.516C126.595 23.828 127.019 23.984 127.557 23.984C128.198 23.984 128.744 23.8107 129.195 23.464L130.287 26.324C129.871 26.6187 129.368 26.844 128.779 27C128.207 27.1387 127.609 27.208 126.985 27.208ZM119.601 16.444V13.324H129.299V16.444H119.601ZM138.465 27.208C137.304 27.208 136.264 26.9827 135.345 26.532C134.444 26.0813 133.742 25.3967 133.239 24.478C132.737 23.542 132.485 22.3547 132.485 20.916V13.012H136.541V20.318C136.541 21.4793 136.784 22.3373 137.269 22.892C137.772 23.4293 138.474 23.698 139.375 23.698C139.999 23.698 140.554 23.568 141.039 23.308C141.525 23.0307 141.906 22.6147 142.183 22.06C142.461 21.488 142.599 20.7773 142.599 19.928V13.012H146.655V27H142.807V23.152L143.509 24.27C143.041 25.2407 142.348 25.9773 141.429 26.48C140.528 26.9653 139.54 27.208 138.465 27.208ZM155.119 27.208C153.923 27.208 152.77 27.0693 151.661 26.792C150.569 26.4973 149.702 26.1333 149.061 25.7L150.413 22.788C151.054 23.1867 151.808 23.516 152.675 23.776C153.559 24.0187 154.426 24.14 155.275 24.14C156.211 24.14 156.87 24.0273 157.251 23.802C157.65 23.5767 157.849 23.2647 157.849 22.866C157.849 22.5367 157.693 22.294 157.381 22.138C157.086 21.9647 156.688 21.8347 156.185 21.748C155.682 21.6613 155.128 21.5747 154.521 21.488C153.932 21.4013 153.334 21.2887 152.727 21.15C152.12 20.994 151.566 20.7687 151.063 20.474C150.56 20.1793 150.153 19.7807 149.841 19.278C149.546 18.7753 149.399 18.1253 149.399 17.328C149.399 16.444 149.65 15.664 150.153 14.988C150.673 14.312 151.418 13.7833 152.389 13.402C153.36 13.0033 154.521 12.804 155.873 12.804C156.826 12.804 157.797 12.908 158.785 13.116C159.773 13.324 160.596 13.6273 161.255 14.026L159.903 16.912C159.227 16.5133 158.542 16.2447 157.849 16.106C157.173 15.95 156.514 15.872 155.873 15.872C154.972 15.872 154.313 15.9933 153.897 16.236C153.481 16.4787 153.273 16.7907 153.273 17.172C153.273 17.5187 153.42 17.7787 153.715 17.952C154.027 18.1253 154.434 18.264 154.937 18.368C155.44 18.472 155.986 18.5673 156.575 18.654C157.182 18.7233 157.788 18.836 158.395 18.992C159.002 19.148 159.548 19.3733 160.033 19.668C160.536 19.9453 160.943 20.3353 161.255 20.838C161.567 21.3233 161.723 21.9647 161.723 22.762C161.723 23.6287 161.463 24.4 160.943 25.076C160.423 25.7347 159.669 26.2547 158.681 26.636C157.71 27.0173 156.523 27.208 155.119 27.208Z" fill="#00BBAB"/>
<path d="M0 26.3848V15.808L10.3755 5.8009L19.6035 14.6117L14.0432 19.9096L10.4245 16.4916L0 26.3848Z" fill="#00BBAB"/>
<path d="M15.7188 4.95609L21.1255 10.3394L26.3982 4.95609L21.0585 0L15.7188 4.95609Z" fill="#00BBAB"/>
<path d="M10.1602 36.9994V26.3846L31.6956 5.80072L41.9337 16.0927V26.3846L31.7838 16.4914L10.1602 36.9994Z" fill="#00BBAB"/>
<path d="M22.3398 27.8568L27.7237 22.8152L31.7836 26.3852V36.9999L22.3398 27.8568Z" fill="#00BBAB"/>
</svg>
