<svg width="617" height="338" viewBox="0 0 617 338" fill="none" xmlns="http://www.w3.org/2000/svg">
<path d="M90.5461 295.799C90.5461 295.799 91.2345 293.29 91.256 293.125C91.5213 291.225 90.9118 287.388 88.9758 286.456C87.5776 285.782 86.0215 286.592 85.5124 287.991C84.9962 289.418 85.6487 291.167 86.4303 292.372C87.3481 293.784 90.539 295.799 90.5461 295.799Z" fill="#263238"/>
<path d="M52.0173 294.251C53.559 294.925 57.3379 294.839 57.3379 294.839C57.3737 294.839 56.5276 292.365 56.4559 292.214C55.6241 290.479 53.0069 287.618 50.8772 287.905C49.3427 288.113 48.4894 289.647 48.8336 291.096C49.185 292.573 50.7051 293.67 52.0173 294.244V294.251Z" fill="#263238"/>
<path d="M53.0029 303.027C54.6019 303.263 57.9721 302.281 58.2446 302.202C58.7752 304.088 59.4779 305.981 60.2882 307.86C60.7543 308.935 61.249 309.996 61.7653 311.065C61.457 310.613 61.1773 310.212 61.1343 310.161C59.8794 308.706 56.5953 306.641 54.6163 307.48C53.1893 308.082 52.7735 309.796 53.4905 311.094C54.2219 312.427 55.9715 313.08 57.3913 313.288C58.8325 313.496 61.7223 312.721 62.4823 312.506C62.6831 312.915 62.8839 313.316 63.0847 313.725C64.0599 315.668 65.0422 317.604 65.9457 319.533C66.2684 320.214 66.5552 320.896 66.8492 321.57C66.5767 321.168 66.3401 320.838 66.3042 320.788C65.0494 319.332 61.7653 317.267 59.7862 318.106C58.3593 318.709 57.9434 320.422 58.6605 321.72C59.3919 323.054 61.1415 323.706 62.5612 323.914C63.938 324.115 66.6126 323.42 67.5161 323.169C67.7957 323.871 68.0754 324.581 68.312 325.277C68.4626 325.757 68.6418 326.209 68.7709 326.697C68.9071 327.177 69.0362 327.657 69.1724 328.131C69.3947 329.049 69.6242 329.995 69.8178 330.899C69.954 331.522 70.0759 332.125 70.1978 332.727C69.8895 332.046 69.2513 330.726 69.1868 330.626C68.1614 328.998 65.2358 326.46 63.1492 326.991C61.6506 327.371 60.9765 328.998 61.4856 330.397C62.0091 331.824 63.6368 332.741 65.0135 333.157C66.5265 333.616 69.868 333.2 70.2839 333.143C70.4846 334.14 70.6711 335.115 70.8288 336.04C70.9149 336.527 70.9866 336.986 71.0655 337.445H72.3992C72.2988 336.915 72.1984 336.37 72.0837 335.803C71.8829 334.785 71.6534 333.709 71.4025 332.598C71.6534 332.498 73.0804 331.924 74.3424 331.214C75.4467 332.404 78.2647 333.803 78.6304 333.982C78.2432 334.928 77.8631 335.839 77.4903 336.699C77.3755 336.958 77.268 337.201 77.1604 337.445H78.5587C78.5945 337.359 78.6304 337.28 78.6662 337.194C79.0606 336.241 79.4621 335.208 79.8637 334.147C80.2652 334.233 83.578 334.907 85.1197 334.555C86.5179 334.24 88.2174 333.444 88.8412 332.06C89.4579 330.705 88.9057 329.034 87.4358 328.539C85.3993 327.851 82.2802 330.167 81.14 331.716C81.0755 331.809 80.4517 332.878 80.0716 333.559C80.2366 333.121 80.3943 332.705 80.5592 332.254C80.8819 331.365 81.1831 330.468 81.5057 329.507C81.6492 329.034 81.7854 328.561 81.9288 328.08C82.0794 327.607 82.1798 327.091 82.3088 326.589C82.5885 325.427 82.8108 324.23 83.0116 323.025C83.786 323.305 86.5681 324.273 88.0022 324.173C89.4363 324.072 91.229 323.549 92.0608 322.272C92.871 321.025 92.5842 319.289 91.2075 318.58C89.2929 317.59 85.8654 319.411 84.503 320.767C84.417 320.853 83.5493 321.935 83.0833 322.538C83.198 321.813 83.3127 321.089 83.4059 320.351C83.6712 318.221 83.872 316.048 84.08 313.89C84.1445 313.23 84.2162 312.571 84.2879 311.911C84.5604 312.011 87.8373 313.23 89.4507 313.123C90.8848 313.022 92.6774 312.499 93.5092 311.223C94.3195 309.975 94.0326 308.24 92.6559 307.53C90.7414 306.54 87.3139 308.362 85.9515 309.717C85.8511 309.817 84.6034 311.38 84.3022 311.789C84.4528 310.333 84.6249 308.892 84.8472 307.472C85.1484 305.515 85.5571 303.607 86.0877 301.793C86.2168 301.844 89.6299 303.127 91.2792 303.012C92.7133 302.912 94.5059 302.389 95.3377 301.112C96.148 299.864 95.8611 298.129 94.4844 297.419C92.5699 296.43 89.1423 298.251 87.7799 299.606C87.6724 299.714 86.3315 301.392 86.1092 301.714C86.1379 301.607 86.1594 301.492 86.1953 301.385C86.7832 299.449 87.6007 297.656 88.4468 296.007C88.9344 295.046 89.4579 294.164 89.9813 293.311C90.5908 293.619 93.4016 294.981 94.8931 295.039C96.3272 295.096 98.17 294.773 99.1309 293.597C100.077 292.45 99.977 290.693 98.6863 289.833C96.8937 288.643 93.2869 290.077 91.7883 291.267C91.7094 291.332 90.9493 292.084 90.4044 292.644C90.6482 292.264 90.892 291.862 91.1358 291.504C92.0392 290.148 92.9427 288.965 93.753 287.918C94.2191 287.33 94.6565 286.807 95.0652 286.319C95.8181 286.305 98.8656 286.212 100.199 285.588C101.497 284.978 102.981 283.838 103.297 282.354C103.605 280.898 102.709 279.385 101.167 279.221C99.0305 278.991 96.485 281.924 95.7034 283.673C95.6388 283.824 94.8501 286.319 94.8931 286.319C94.8931 286.319 94.929 286.319 94.9361 286.319C94.5274 286.778 94.1044 287.273 93.6454 287.832C92.8065 288.858 91.8743 290.027 90.9422 291.367C90.0028 292.708 89.0276 294.185 88.1385 295.835C87.2422 297.491 86.3889 299.277 85.7435 301.227C85.7364 301.248 85.7292 301.27 85.722 301.299C85.7364 300.668 85.7077 298.904 85.6862 298.767C85.4424 296.86 83.8433 293.325 81.728 292.938C80.2007 292.658 78.91 293.848 78.7881 295.333C78.6662 296.846 79.7633 298.359 80.8317 299.32C82.0364 300.395 85.3922 301.442 85.6575 301.521C85.0623 303.385 84.5962 305.35 84.2449 307.365C84.0369 308.519 83.872 309.681 83.7143 310.85C83.7071 310.305 83.6928 309.817 83.6856 309.745C83.4418 307.838 81.8428 304.303 79.7275 303.916C78.2001 303.636 76.9094 304.826 76.7947 306.311C76.6728 307.824 77.7699 309.337 78.8383 310.298C79.9211 311.266 82.7606 312.212 83.5135 312.456C83.4561 312.908 83.3988 313.352 83.3414 313.804C83.0833 315.962 82.8323 318.121 82.524 320.229C82.4164 320.975 82.2802 321.699 82.1511 322.423C82.1439 321.943 82.1296 321.534 82.1224 321.469C81.8786 319.562 80.2796 316.027 78.1643 315.64C76.637 315.36 75.3463 316.55 75.2244 318.035C75.1025 319.548 76.1996 321.061 77.268 322.021C78.3005 322.946 80.9178 323.843 81.8141 324.137C81.6563 324.875 81.4986 325.621 81.3121 326.331C81.1759 326.811 81.0755 327.292 80.9106 327.765C80.76 328.238 80.6023 328.711 80.4517 329.178C80.129 330.067 79.7992 330.985 79.4621 331.845C79.2327 332.447 79.0032 333.014 78.7738 333.58C78.8885 332.842 79.0893 331.393 79.0893 331.271C79.118 329.995 78.6662 327.923 77.7627 326.46C77.7627 326.274 77.7627 326.087 77.7269 325.893C77.4903 324.424 76.1135 323.334 74.6149 323.735C72.5354 324.287 71.216 327.937 71.1157 329.859C71.1157 329.974 71.1874 331.207 71.2447 331.988C71.1372 331.537 71.044 331.099 70.9292 330.633C70.7141 329.715 70.4631 328.805 70.205 327.822C70.0616 327.356 69.9182 326.876 69.7748 326.403C69.6385 325.922 69.4378 325.435 69.2728 324.947C68.8641 323.821 68.3909 322.703 67.8889 321.584C68.692 321.39 71.5387 320.666 72.686 319.784C73.8261 318.909 75.0308 317.482 75.0236 315.962C75.0164 314.478 73.8118 313.187 72.2773 313.352C70.1405 313.582 68.2833 316.995 67.8961 318.874C67.8746 318.988 67.7455 320.372 67.6881 321.132C67.3798 320.465 67.0787 319.791 66.7488 319.125C65.7951 317.196 64.7626 315.281 63.7515 313.359C63.4432 312.771 63.1349 312.183 62.8337 311.595C63.1205 311.531 66.5265 310.742 67.8029 309.76C68.943 308.885 70.1476 307.458 70.1405 305.938C70.1333 304.454 68.9286 303.163 67.3942 303.328C65.2573 303.557 63.4002 306.97 63.013 308.849C62.9843 308.993 62.805 310.979 62.7835 311.488C62.1095 310.19 61.4498 308.892 60.8546 307.587C60.03 305.787 59.313 303.973 58.7537 302.166C58.8899 302.138 62.4465 301.327 63.7587 300.323C64.8988 299.449 66.1035 298.022 66.0963 296.502C66.0891 295.017 64.8845 293.727 63.3428 293.891C61.206 294.121 59.3488 297.534 58.9616 299.413C58.9329 299.563 58.7393 301.7 58.7322 302.087C58.6963 301.98 58.6533 301.872 58.6174 301.765C58.0438 299.829 57.7283 297.878 57.5275 296.035C57.4056 294.967 57.3554 293.942 57.3196 292.938C58.0008 292.852 61.0913 292.443 62.3676 291.669C63.5938 290.923 64.949 289.639 65.1068 288.126C65.2573 286.649 64.2104 285.237 62.6616 285.237C60.5105 285.237 58.2876 288.413 57.6996 290.242C57.6638 290.342 57.4486 291.389 57.3052 292.149C57.3052 291.697 57.2837 291.231 57.2837 290.794C57.2837 289.166 57.3913 287.675 57.4917 286.355C57.5562 285.602 57.6279 284.928 57.7068 284.297C58.3306 283.867 60.8188 282.11 61.586 280.855C62.3318 279.629 62.9413 277.865 62.3891 276.453C61.8442 275.069 60.2595 274.302 58.8827 275.011C56.9682 276.001 56.4663 279.844 56.7818 281.745C56.8105 281.909 57.5347 284.419 57.5634 284.398C57.5634 284.398 57.592 284.376 57.5992 284.369C57.5132 284.978 57.4343 285.624 57.3554 286.341C57.2264 287.66 57.0901 289.152 57.0471 290.787C57.0041 292.421 57.0041 294.193 57.1762 296.064C57.3411 297.936 57.6136 299.9 58.1514 301.887C58.1514 301.908 58.1657 301.93 58.1729 301.951C57.8358 301.42 56.8391 299.965 56.7459 299.864C55.4911 298.409 52.207 296.344 50.2279 297.183C48.801 297.792 48.3851 299.499 49.1022 300.797C49.8335 302.13 51.5832 302.783 53.0029 302.991V303.027Z" fill="#263238"/>
<path d="M524.407 304.004C525.539 304.496 528.317 304.438 528.329 304.438C528.363 304.438 527.734 302.62 527.677 302.506C527.071 301.225 525.139 299.122 523.572 299.339C522.44 299.487 521.811 300.619 522.063 301.683C522.326 302.769 523.435 303.581 524.407 304.004Z" fill="#263238"/>
<path d="M525.084 312.061C526.261 312.233 528.742 311.513 528.937 311.455C529.326 312.839 529.84 314.234 530.446 315.617C530.789 316.406 531.155 317.195 531.532 317.973C531.304 317.641 531.098 317.344 531.064 317.31C530.137 316.235 527.725 314.714 526.261 315.332C525.209 315.777 524.901 317.035 525.427 317.996C525.964 318.979 527.256 319.459 528.297 319.608C529.36 319.768 531.487 319.196 532.047 319.036C532.196 319.333 532.344 319.631 532.493 319.928C533.213 321.357 533.933 322.787 534.597 324.204C534.837 324.707 535.043 325.211 535.26 325.702C535.054 325.405 534.882 325.165 534.86 325.13C533.933 324.056 531.521 322.535 530.057 323.152C529.005 323.598 528.697 324.856 529.223 325.817C529.76 326.8 531.052 327.28 532.093 327.429C533.11 327.577 535.077 327.063 535.74 326.88C535.946 327.394 536.152 327.92 536.323 328.435C536.438 328.789 536.563 329.121 536.655 329.475C536.758 329.83 536.849 330.184 536.952 330.527C537.112 331.202 537.284 331.899 537.432 332.563C537.535 333.02 537.627 333.466 537.718 333.912C537.489 333.409 537.021 332.437 536.975 332.368C536.22 331.168 534.059 329.304 532.527 329.693C531.418 329.979 530.926 331.168 531.304 332.197C531.692 333.249 532.893 333.923 533.899 334.232C535.008 334.575 537.478 334.266 537.775 334.221C537.924 334.952 538.061 335.673 538.176 336.347C538.244 336.702 538.29 337.045 538.347 337.388H539.33C539.262 336.999 539.182 336.599 539.102 336.176C538.953 335.433 538.782 334.632 538.599 333.82C538.782 333.752 539.833 333.317 540.76 332.803C541.571 333.683 543.652 334.712 543.915 334.838C543.63 335.535 543.355 336.21 543.081 336.839C543.001 337.033 542.921 337.205 542.841 337.388H543.87C543.893 337.331 543.915 337.262 543.95 337.205C544.236 336.496 544.533 335.741 544.83 334.964C545.127 335.021 547.563 335.524 548.706 335.261C549.735 335.032 550.982 334.449 551.45 333.432C551.896 332.437 551.496 331.202 550.421 330.848C548.923 330.344 546.625 332.048 545.791 333.192C545.745 333.26 545.287 334.049 545.002 334.552C545.116 334.232 545.242 333.923 545.356 333.592C545.596 332.94 545.813 332.277 546.054 331.568C546.156 331.225 546.259 330.87 546.362 330.516C546.477 330.173 546.545 329.784 546.648 329.418C546.854 328.561 547.014 327.68 547.163 326.788C547.734 326.994 549.781 327.703 550.833 327.635C551.885 327.566 553.211 327.177 553.817 326.24C554.412 325.325 554.206 324.044 553.188 323.518C551.782 322.798 549.255 324.136 548.26 325.13C548.203 325.188 547.563 325.988 547.22 326.434C547.3 325.897 547.391 325.371 547.46 324.822C547.654 323.255 547.803 321.655 547.963 320.065C548.009 319.574 548.066 319.093 548.112 318.602C548.317 318.682 550.73 319.574 551.908 319.494C552.96 319.425 554.286 319.036 554.892 318.099C555.487 317.184 555.281 315.903 554.263 315.377C552.857 314.645 550.33 315.995 549.335 316.989C549.255 317.07 548.34 318.213 548.123 318.51C548.237 317.435 548.363 316.372 548.523 315.332C548.752 313.891 549.049 312.484 549.438 311.147C549.529 311.181 552.045 312.13 553.257 312.05C554.309 311.981 555.635 311.593 556.241 310.655C556.836 309.74 556.63 308.46 555.612 307.934C554.206 307.213 551.679 308.551 550.684 309.546C550.604 309.626 549.621 310.861 549.461 311.101C549.484 311.021 549.495 310.941 549.529 310.861C549.964 309.443 550.559 308.117 551.187 306.905C551.542 306.196 551.931 305.544 552.319 304.915C552.765 305.144 554.835 306.139 555.933 306.184C556.984 306.23 558.345 305.99 559.054 305.121C559.752 304.275 559.671 302.983 558.722 302.354C557.408 301.474 554.743 302.525 553.646 303.417C553.589 303.463 553.028 304.023 552.628 304.435C552.811 304.149 552.983 303.863 553.166 303.6C553.829 302.605 554.492 301.725 555.098 300.959C555.441 300.524 555.761 300.136 556.058 299.781C556.619 299.781 558.86 299.701 559.832 299.244C560.792 298.798 561.878 297.963 562.107 296.866C562.336 295.791 561.672 294.682 560.54 294.556C558.963 294.384 557.099 296.545 556.516 297.837C556.47 297.952 555.887 299.781 555.921 299.781C555.921 299.781 555.944 299.781 555.955 299.781C555.658 300.124 555.338 300.49 555.006 300.89C554.389 301.645 553.703 302.503 553.017 303.497C552.331 304.481 551.61 305.567 550.947 306.79C550.284 308.014 549.655 309.317 549.186 310.758C549.186 310.769 549.186 310.792 549.175 310.804C549.175 310.335 549.164 309.043 549.152 308.94C548.969 307.534 547.792 304.938 546.236 304.652C545.116 304.446 544.167 305.327 544.075 306.413C543.984 307.522 544.796 308.643 545.585 309.352C546.477 310.141 548.935 310.918 549.141 310.975C548.706 312.347 548.363 313.799 548.1 315.274C547.952 316.12 547.826 316.978 547.711 317.847C547.711 317.447 547.7 317.092 547.689 317.035C547.506 315.629 546.328 313.033 544.773 312.747C543.652 312.542 542.703 313.422 542.612 314.508C542.52 315.617 543.332 316.738 544.121 317.447C544.922 318.156 547.014 318.853 547.563 319.036C547.517 319.368 547.483 319.699 547.437 320.031C547.243 321.62 547.06 323.21 546.842 324.753C546.762 325.302 546.66 325.839 546.568 326.365C546.568 326.011 546.557 325.714 546.545 325.668C546.362 324.262 545.185 321.666 543.63 321.38C542.509 321.174 541.56 322.055 541.468 323.141C541.377 324.25 542.189 325.371 542.978 326.068C543.744 326.754 545.665 327.406 546.317 327.623C546.202 328.172 546.088 328.721 545.951 329.235C545.848 329.59 545.779 329.944 545.653 330.287C545.539 330.642 545.425 330.985 545.322 331.328C545.082 331.979 544.842 332.654 544.59 333.294C544.418 333.74 544.247 334.152 544.087 334.575C544.167 334.038 544.316 332.963 544.316 332.871C544.338 331.934 544.007 330.402 543.344 329.327C543.344 329.19 543.344 329.052 543.321 328.915C543.149 327.829 542.132 327.029 541.034 327.326C539.502 327.737 538.53 330.424 538.461 331.831C538.461 331.911 538.507 332.826 538.553 333.397C538.473 333.066 538.404 332.746 538.324 332.403C538.164 331.728 537.981 331.053 537.798 330.333C537.695 329.99 537.592 329.636 537.478 329.281C537.375 328.927 537.226 328.572 537.112 328.206C536.815 327.383 536.46 326.56 536.095 325.737C536.689 325.599 538.781 325.062 539.628 324.41C540.462 323.77 541.354 322.718 541.343 321.597C541.343 320.5 540.451 319.551 539.319 319.676C537.741 319.848 536.38 322.352 536.095 323.736C536.072 323.827 535.98 324.833 535.946 325.393C535.717 324.902 535.5 324.41 535.26 323.918C534.551 322.501 533.796 321.094 533.053 319.676C532.824 319.242 532.596 318.808 532.378 318.373C532.584 318.327 535.1 317.744 536.037 317.024C536.872 316.383 537.764 315.332 537.752 314.211C537.752 313.113 536.861 312.164 535.729 312.29C534.151 312.462 532.79 314.966 532.504 316.349C532.481 316.452 532.356 317.916 532.333 318.293C531.841 317.344 531.349 316.383 530.915 315.423C530.309 314.097 529.783 312.759 529.371 311.433C529.474 311.41 532.093 310.815 533.053 310.072C533.888 309.432 534.78 308.38 534.768 307.259C534.768 306.161 533.876 305.212 532.744 305.338C531.166 305.51 529.806 308.014 529.52 309.397C529.497 309.512 529.36 311.078 529.348 311.364C529.326 311.284 529.291 311.204 529.268 311.124C528.845 309.695 528.617 308.265 528.468 306.905C528.377 306.116 528.342 305.361 528.319 304.629C528.822 304.572 531.098 304.263 532.035 303.692C532.939 303.143 533.933 302.194 534.048 301.085C534.162 299.999 533.385 298.958 532.253 298.958C530.675 298.958 529.04 301.302 528.605 302.64C528.582 302.708 528.422 303.486 528.319 304.046C528.319 303.715 528.308 303.372 528.308 303.051C528.308 301.851 528.388 300.753 528.457 299.781C528.502 299.232 528.559 298.729 528.617 298.272C529.074 297.952 530.903 296.66 531.475 295.745C532.024 294.842 532.47 293.538 532.07 292.498C531.67 291.48 530.503 290.908 529.486 291.434C528.079 292.166 527.713 294.99 527.942 296.385C527.965 296.511 528.491 298.352 528.514 298.341C528.514 298.341 528.537 298.329 528.537 298.318C528.479 298.764 528.411 299.244 528.354 299.77C528.262 300.742 528.159 301.839 528.125 303.04C528.091 304.241 528.091 305.544 528.216 306.928C528.342 308.311 528.537 309.752 528.937 311.215C528.937 311.227 528.937 311.25 528.948 311.261C528.697 310.872 527.965 309.797 527.896 309.717C526.97 308.643 524.558 307.122 523.094 307.739C522.042 308.185 521.733 309.443 522.259 310.404C522.797 311.387 524.089 311.867 525.129 312.016L525.084 312.061Z" fill="#263238"/>
<path d="M552.518 304.611C552.518 304.611 553.022 302.758 553.044 302.644C553.239 301.249 552.793 298.425 551.364 297.739C550.335 297.247 549.191 297.842 548.814 298.871C548.437 299.923 548.917 301.215 549.488 302.095C550.163 303.136 552.518 304.622 552.518 304.622V304.611Z" fill="#263238"/>
<path d="M597.027 320.601C597.596 320.848 598.993 320.819 598.999 320.819C599.016 320.819 598.7 319.905 598.671 319.847C598.366 319.204 597.395 318.146 596.607 318.255C596.038 318.33 595.722 318.899 595.848 319.434C595.98 319.98 596.538 320.388 597.027 320.601Z" fill="#263238"/>
<path d="M597.367 324.652C597.959 324.738 599.207 324.376 599.304 324.347C599.5 325.043 599.759 325.744 600.063 326.44C600.236 326.836 600.42 327.233 600.61 327.624C600.495 327.457 600.391 327.308 600.374 327.291C599.908 326.75 598.695 325.985 597.959 326.296C597.43 326.52 597.275 327.153 597.539 327.636C597.81 328.13 598.459 328.371 598.982 328.446C599.517 328.527 600.587 328.239 600.868 328.159C600.943 328.308 601.018 328.458 601.092 328.607C601.455 329.326 601.817 330.045 602.15 330.757C602.271 331.01 602.375 331.263 602.484 331.511C602.38 331.361 602.294 331.24 602.283 331.223C601.817 330.683 600.604 329.918 599.868 330.229C599.339 330.453 599.184 331.085 599.448 331.568C599.718 332.063 600.368 332.304 600.891 332.379C601.403 332.454 602.392 332.195 602.725 332.103C602.829 332.362 602.932 332.626 603.018 332.885C603.076 333.063 603.139 333.23 603.185 333.408C603.237 333.586 603.283 333.764 603.335 333.937C603.415 334.276 603.501 334.627 603.576 334.96C603.628 335.19 603.674 335.414 603.72 335.639C603.605 335.386 603.369 334.897 603.346 334.862C602.967 334.259 601.88 333.322 601.11 333.517C600.552 333.661 600.305 334.259 600.495 334.776C600.69 335.305 601.294 335.644 601.8 335.8C602.357 335.972 603.599 335.817 603.749 335.794C603.823 336.162 603.892 336.524 603.95 336.863C603.984 337.041 604.007 337.214 604.036 337.386H604.531C604.496 337.191 604.456 336.99 604.416 336.777C604.341 336.403 604.255 336.001 604.163 335.593C604.255 335.558 604.784 335.34 605.249 335.081C605.657 335.524 606.704 336.041 606.836 336.104C606.692 336.455 606.554 336.794 606.416 337.11C606.376 337.208 606.336 337.294 606.296 337.386H606.813C606.825 337.358 606.836 337.323 606.853 337.294C606.997 336.938 607.147 336.559 607.296 336.168C607.445 336.196 608.67 336.449 609.245 336.317C609.762 336.202 610.389 335.909 610.625 335.397C610.849 334.897 610.648 334.276 610.107 334.098C609.354 333.845 608.199 334.702 607.779 335.276C607.756 335.311 607.526 335.708 607.382 335.961C607.44 335.8 607.503 335.644 607.56 335.478C607.681 335.15 607.79 334.816 607.911 334.46C607.963 334.288 608.015 334.109 608.066 333.931C608.124 333.759 608.158 333.563 608.21 333.379C608.314 332.948 608.394 332.505 608.469 332.057C608.756 332.16 609.785 332.517 610.314 332.482C610.843 332.448 611.51 332.252 611.815 331.781C612.114 331.321 612.01 330.677 611.499 330.412C610.792 330.05 609.521 330.723 609.021 331.223C608.992 331.252 608.67 331.654 608.498 331.879C608.538 331.608 608.584 331.344 608.618 331.068C608.716 330.28 608.791 329.475 608.871 328.676C608.894 328.429 608.923 328.187 608.946 327.94C609.05 327.981 610.263 328.429 610.855 328.389C611.384 328.354 612.051 328.159 612.355 327.687C612.654 327.227 612.551 326.583 612.039 326.319C611.332 325.951 610.061 326.629 609.561 327.13C609.521 327.17 609.061 327.745 608.952 327.894C609.009 327.354 609.073 326.819 609.153 326.296C609.268 325.572 609.418 324.864 609.613 324.192C609.659 324.209 610.924 324.686 611.533 324.646C612.062 324.611 612.729 324.416 613.034 323.944C613.333 323.485 613.229 322.841 612.718 322.576C612.01 322.214 610.74 322.887 610.24 323.387C610.199 323.427 609.705 324.048 609.624 324.169C609.636 324.128 609.642 324.088 609.659 324.048C609.877 323.335 610.176 322.668 610.493 322.059C610.671 321.702 610.866 321.374 611.062 321.058C611.286 321.173 612.327 321.673 612.879 321.696C613.408 321.719 614.092 321.599 614.448 321.162C614.799 320.736 614.759 320.087 614.281 319.77C613.62 319.328 612.281 319.857 611.729 320.305C611.7 320.328 611.418 320.61 611.217 320.817C611.309 320.673 611.395 320.529 611.487 320.397C611.821 319.897 612.154 319.454 612.459 319.069C612.631 318.851 612.792 318.655 612.942 318.477C613.224 318.477 614.35 318.437 614.839 318.207C615.322 317.982 615.868 317.563 615.983 317.011C616.098 316.47 615.765 315.913 615.196 315.849C614.402 315.763 613.465 316.85 613.172 317.499C613.149 317.557 612.856 318.477 612.873 318.477C612.873 318.477 612.884 318.477 612.89 318.477C612.741 318.649 612.58 318.833 612.413 319.035C612.102 319.414 611.758 319.845 611.413 320.345C611.068 320.84 610.705 321.386 610.372 322.001C610.038 322.616 609.722 323.272 609.487 323.996C609.487 324.002 609.487 324.013 609.481 324.019C609.481 323.783 609.475 323.134 609.469 323.082C609.377 322.375 608.785 321.07 608.003 320.926C607.44 320.823 606.963 321.265 606.917 321.811C606.871 322.369 607.279 322.933 607.675 323.289C608.124 323.686 609.36 324.077 609.464 324.105C609.245 324.795 609.073 325.526 608.94 326.267C608.866 326.693 608.802 327.124 608.745 327.561C608.745 327.36 608.739 327.181 608.733 327.153C608.641 326.445 608.049 325.14 607.267 324.997C606.704 324.893 606.227 325.336 606.181 325.882C606.135 326.44 606.543 327.003 606.94 327.36C607.342 327.716 608.394 328.067 608.67 328.159C608.647 328.325 608.63 328.492 608.607 328.659C608.509 329.458 608.417 330.257 608.308 331.033C608.268 331.309 608.216 331.58 608.17 331.844C608.17 331.666 608.164 331.516 608.158 331.493C608.066 330.786 607.474 329.481 606.692 329.337C606.129 329.234 605.652 329.677 605.606 330.223C605.56 330.78 605.968 331.344 606.365 331.695C606.75 332.04 607.716 332.367 608.043 332.477C607.986 332.752 607.928 333.028 607.859 333.287C607.808 333.465 607.773 333.644 607.71 333.816C607.652 333.994 607.595 334.167 607.543 334.339C607.422 334.667 607.302 335.006 607.175 335.328C607.089 335.552 607.003 335.759 606.922 335.972C606.963 335.702 607.037 335.161 607.037 335.115C607.049 334.644 606.882 333.874 606.549 333.333C606.549 333.264 606.549 333.195 606.537 333.126C606.451 332.58 605.939 332.178 605.387 332.327C604.617 332.534 604.128 333.885 604.094 334.592C604.094 334.633 604.117 335.092 604.14 335.38C604.099 335.213 604.065 335.052 604.025 334.88C603.944 334.541 603.852 334.201 603.76 333.839C603.708 333.667 603.657 333.488 603.599 333.31C603.547 333.132 603.473 332.954 603.415 332.77C603.266 332.356 603.087 331.942 602.904 331.528C603.202 331.459 604.255 331.189 604.68 330.861C605.1 330.539 605.548 330.01 605.542 329.447C605.542 328.895 605.094 328.417 604.525 328.481C603.731 328.567 603.047 329.826 602.904 330.522C602.892 330.568 602.846 331.074 602.829 331.355C602.714 331.108 602.605 330.861 602.484 330.614C602.127 329.901 601.748 329.194 601.374 328.481C601.259 328.262 601.144 328.044 601.035 327.825C601.138 327.802 602.403 327.509 602.875 327.147C603.294 326.825 603.743 326.296 603.737 325.733C603.737 325.181 603.289 324.703 602.72 324.767C601.926 324.853 601.242 326.112 601.098 326.808C601.087 326.859 601.023 327.595 601.012 327.785C600.765 327.308 600.518 326.825 600.299 326.342C599.994 325.675 599.73 325.002 599.523 324.335C599.575 324.324 600.891 324.025 601.374 323.651C601.794 323.329 602.242 322.8 602.237 322.237C602.237 321.685 601.788 321.208 601.219 321.271C600.426 321.357 599.741 322.616 599.598 323.312C599.586 323.37 599.517 324.157 599.511 324.301C599.5 324.261 599.483 324.22 599.471 324.18C599.258 323.462 599.143 322.743 599.069 322.059C599.023 321.662 599.005 321.283 598.994 320.915C599.247 320.886 600.391 320.731 600.862 320.443C601.317 320.167 601.817 319.69 601.874 319.132C601.932 318.586 601.541 318.063 600.972 318.063C600.178 318.063 599.356 319.241 599.138 319.914C599.126 319.949 599.046 320.34 598.994 320.621C598.994 320.455 598.988 320.282 598.988 320.121C598.988 319.517 599.028 318.966 599.063 318.477C599.086 318.201 599.115 317.948 599.143 317.718C599.373 317.557 600.293 316.907 600.581 316.447C600.857 315.993 601.081 315.338 600.88 314.814C600.678 314.303 600.092 314.015 599.58 314.28C598.873 314.648 598.689 316.068 598.804 316.769C598.816 316.833 599.08 317.758 599.092 317.752C599.092 317.752 599.103 317.747 599.103 317.741C599.074 317.965 599.04 318.207 599.011 318.471C598.965 318.96 598.913 319.512 598.896 320.115C598.879 320.719 598.879 321.374 598.942 322.07C599.005 322.766 599.103 323.49 599.304 324.226C599.304 324.232 599.304 324.243 599.31 324.249C599.184 324.054 598.816 323.513 598.781 323.473C598.316 322.933 597.102 322.168 596.366 322.478C595.838 322.703 595.682 323.335 595.947 323.818C596.217 324.312 596.867 324.554 597.39 324.629L597.367 324.652Z" fill="#263238"/>
<path d="M611.165 320.905C611.165 320.905 611.418 319.973 611.429 319.916C611.527 319.215 611.303 317.794 610.584 317.45C610.067 317.202 609.492 317.501 609.302 318.019C609.112 318.548 609.354 319.197 609.641 319.64C609.98 320.163 611.165 320.911 611.165 320.911V320.905Z" fill="#263238"/>
<path d="M1.2063 320.601C1.77549 320.848 3.17259 320.819 3.17834 320.819C3.19558 320.819 2.87937 319.905 2.85062 319.847C2.5459 319.204 1.57426 318.146 0.786603 318.255C0.217417 318.33 -0.0988017 318.899 0.0276841 319.434C0.159919 319.98 0.717608 320.388 1.2063 320.601Z" fill="#263238"/>
<path d="M1.54656 324.652C2.13874 324.738 3.38636 324.376 3.4841 324.347C3.67957 325.043 3.93829 325.744 4.24301 326.44C4.41549 326.836 4.59946 327.233 4.78919 327.624C4.67421 327.457 4.57072 327.308 4.55348 327.291C4.08778 326.75 2.87466 325.985 2.13874 326.296C1.6098 326.52 1.45457 327.153 1.71904 327.636C1.98926 328.13 2.63894 328.371 3.16213 328.446C3.69682 328.527 4.7662 328.239 5.04792 328.159C5.12266 328.308 5.1974 328.458 5.27214 328.607C5.63435 329.326 5.99656 330.045 6.33002 330.757C6.45076 331.01 6.55425 331.263 6.66349 331.511C6.56 331.361 6.47376 331.24 6.46226 331.223C5.99656 330.683 4.78345 329.918 4.04753 330.229C3.51859 330.453 3.36336 331.085 3.62783 331.568C3.89805 332.063 4.54772 332.304 5.07091 332.379C5.58261 332.454 6.5715 332.195 6.90496 332.103C7.00845 332.362 7.11193 332.626 7.19817 332.885C7.25567 333.063 7.31891 333.23 7.36491 333.408C7.41665 333.586 7.46265 333.764 7.51439 333.937C7.59488 334.276 7.68112 334.627 7.75586 334.96C7.80761 335.19 7.8536 335.414 7.8996 335.639C7.78461 335.386 7.54889 334.897 7.52589 334.862C7.14643 334.259 6.05981 333.322 5.28939 333.517C4.7317 333.661 4.48448 334.259 4.67421 334.776C4.86969 335.305 5.47337 335.644 5.97931 335.8C6.537 335.972 7.77886 335.817 7.92834 335.794C8.00309 336.162 8.07208 336.524 8.12957 336.863C8.16407 337.041 8.18706 337.214 8.21581 337.386H8.71026C8.67576 337.191 8.63552 336.99 8.59527 336.777C8.52053 336.403 8.43429 336.001 8.3423 335.593C8.43429 335.558 8.96323 335.34 9.42893 335.081C9.83713 335.524 10.8835 336.041 11.0157 336.104C10.872 336.455 10.734 336.794 10.596 337.11C10.5558 337.208 10.5155 337.294 10.4753 337.386H10.9928C11.0042 337.358 11.0157 337.323 11.033 337.294C11.1767 336.938 11.3262 336.559 11.4757 336.168C11.6252 336.196 12.8498 336.449 13.4247 336.317C13.9422 336.202 14.5689 335.909 14.8046 335.397C15.0288 334.897 14.8276 334.276 14.2871 334.098C13.534 333.845 12.3783 334.702 11.9586 335.276C11.9356 335.311 11.7057 335.708 11.5619 335.961C11.6194 335.8 11.6827 335.644 11.7402 335.478C11.8609 335.15 11.9701 334.816 12.0909 334.46C12.1426 334.288 12.1944 334.109 12.2461 333.931C12.3036 333.759 12.3381 333.563 12.3898 333.379C12.4933 332.948 12.5738 332.505 12.6486 332.057C12.936 332.16 13.9652 332.517 14.4941 332.482C15.023 332.448 15.69 332.252 15.9947 331.781C16.2937 331.321 16.1902 330.677 15.6785 330.412C14.9713 330.05 13.7007 330.723 13.2005 331.223C13.1718 331.252 12.8498 331.654 12.6773 331.879C12.7176 331.608 12.7636 331.344 12.798 331.068C12.8958 330.28 12.9705 329.475 13.051 328.676C13.074 328.429 13.1028 328.187 13.1258 327.94C13.2292 327.981 14.4424 328.429 15.0345 328.389C15.5635 328.354 16.2304 328.159 16.5351 327.687C16.8341 327.227 16.7306 326.583 16.2189 326.319C15.5117 325.951 14.2411 326.629 13.7409 327.13C13.7007 327.17 13.2407 327.745 13.1315 327.894C13.189 327.354 13.2522 326.819 13.3327 326.296C13.4477 325.572 13.5972 324.864 13.7927 324.192C13.8387 324.209 15.1035 324.686 15.713 324.646C16.2419 324.611 16.9088 324.416 17.2135 323.944C17.5125 323.485 17.409 322.841 16.8973 322.576C16.1902 322.214 14.9196 322.887 14.4194 323.387C14.3791 323.427 13.8847 324.048 13.8042 324.169C13.8157 324.128 13.8214 324.088 13.8387 324.048C14.0572 323.335 14.3561 322.668 14.6723 322.059C14.8506 321.702 15.046 321.374 15.2415 321.058C15.4657 321.173 16.5064 321.673 17.0583 321.696C17.5873 321.719 18.2714 321.599 18.6279 321.162C18.9786 320.736 18.9384 320.087 18.4612 319.77C17.8 319.328 16.4604 319.857 15.9085 320.305C15.8797 320.328 15.598 320.61 15.3968 320.817C15.4887 320.673 15.575 320.529 15.667 320.397C16.0004 319.897 16.3339 319.454 16.6386 319.069C16.8111 318.851 16.9721 318.655 17.1216 318.477C17.4033 318.477 18.5302 318.437 19.0188 318.207C19.5018 317.982 20.048 317.563 20.163 317.011C20.278 316.47 19.9445 315.913 19.3753 315.849C18.5819 315.763 17.6448 316.85 17.3515 317.499C17.3285 317.557 17.0353 318.477 17.0526 318.477C17.0526 318.477 17.0641 318.477 17.0698 318.477C16.9203 318.649 16.7594 318.833 16.5926 319.035C16.2822 319.414 15.9372 319.845 15.5922 320.345C15.2473 320.84 14.8851 321.386 14.5516 322.001C14.2181 322.616 13.9019 323.272 13.6662 323.996C13.6662 324.002 13.6662 324.013 13.6605 324.019C13.6605 323.783 13.6547 323.134 13.6489 323.082C13.557 322.375 12.9648 321.07 12.1829 320.926C11.6194 320.823 11.1422 321.265 11.0962 321.811C11.0502 322.369 11.4584 322.933 11.8552 323.289C12.3036 323.686 13.5397 324.077 13.6432 324.105C13.4247 324.795 13.2522 325.526 13.12 326.267C13.0453 326.693 12.982 327.124 12.9245 327.561C12.9245 327.36 12.9188 327.181 12.913 327.153C12.821 326.445 12.2289 325.14 11.4469 324.997C10.8835 324.893 10.4063 325.336 10.3603 325.882C10.3143 326.44 10.7225 327.003 11.1192 327.36C11.5217 327.716 12.5738 328.067 12.8498 328.159C12.8268 328.325 12.8095 328.492 12.7865 328.659C12.6888 329.458 12.5968 330.257 12.4876 331.033C12.4473 331.309 12.3956 331.58 12.3496 331.844C12.3496 331.666 12.3438 331.516 12.3381 331.493C12.2461 330.786 11.6539 329.481 10.872 329.337C10.3086 329.234 9.83138 329.677 9.78538 330.223C9.73939 330.78 10.1476 331.344 10.5443 331.695C10.9295 332.04 11.8954 332.367 12.2231 332.477C12.1656 332.752 12.1081 333.028 12.0391 333.287C11.9874 333.465 11.9529 333.644 11.8896 333.816C11.8322 333.994 11.7747 334.167 11.7229 334.339C11.6022 334.667 11.4814 335.006 11.355 335.328C11.2687 335.552 11.1825 335.759 11.102 335.972C11.1422 335.702 11.217 335.161 11.217 335.115C11.2285 334.644 11.0617 333.874 10.7283 333.333C10.7283 333.264 10.7283 333.195 10.7168 333.126C10.6305 332.58 10.1189 332.178 9.56691 332.327C8.7965 332.534 8.3078 333.885 8.27331 334.592C8.27331 334.633 8.2963 335.092 8.3193 335.38C8.27905 335.213 8.24456 335.052 8.20431 334.88C8.12382 334.541 8.03183 334.201 7.93985 333.839C7.8881 333.667 7.83636 333.488 7.77886 333.31C7.72712 333.132 7.65237 332.954 7.59488 332.77C7.4454 332.356 7.26717 331.942 7.08319 331.528C7.38215 331.459 8.43428 331.189 8.85974 330.861C9.27944 330.539 9.72789 330.01 9.72214 329.447C9.72214 328.895 9.2737 328.417 8.70451 328.481C7.9111 328.567 7.22692 329.826 7.08319 330.522C7.07169 330.568 7.02569 331.074 7.00844 331.355C6.89346 331.108 6.78422 330.861 6.66349 330.614C6.30703 329.901 5.92757 329.194 5.55386 328.481C5.43887 328.262 5.32389 328.044 5.21465 327.825C5.31814 327.802 6.58299 327.509 7.05444 327.147C7.47414 326.825 7.92259 326.296 7.91684 325.733C7.91684 325.181 7.4684 324.703 6.89921 324.767C6.1058 324.853 5.42162 326.112 5.27789 326.808C5.26639 326.859 5.20315 327.595 5.19165 327.785C4.94443 327.308 4.69721 326.825 4.47873 326.342C4.17402 325.675 3.90954 325.002 3.70256 324.335C3.75431 324.324 5.07091 324.025 5.55386 323.651C5.97356 323.329 6.42201 322.8 6.41626 322.237C6.41626 321.685 5.96782 321.208 5.39863 321.271C4.60522 321.357 3.92104 322.616 3.77731 323.312C3.76581 323.37 3.69682 324.157 3.69107 324.301C3.67957 324.261 3.66232 324.22 3.65082 324.18C3.4381 323.462 3.32311 322.743 3.24837 322.059C3.20237 321.662 3.18512 321.283 3.17363 320.915C3.4266 320.886 4.57072 320.731 5.04217 320.443C5.49636 320.167 5.99656 319.69 6.05406 319.132C6.11155 318.586 5.72059 318.063 5.1514 318.063C4.35799 318.063 3.53583 319.241 3.31736 319.914C3.30586 319.949 3.22537 320.34 3.17363 320.621C3.17363 320.455 3.16788 320.282 3.16788 320.121C3.16788 319.517 3.20813 318.966 3.24262 318.477C3.26562 318.201 3.29437 317.948 3.32311 317.718C3.55309 317.557 4.47298 316.907 4.76045 316.447C5.03642 315.993 5.26064 315.338 5.05941 314.814C4.85819 314.303 4.27175 314.015 3.76006 314.28C3.05289 314.648 2.86891 316.068 2.9839 316.769C2.99539 316.833 3.25986 317.758 3.27136 317.752C3.27136 317.752 3.28286 317.747 3.28286 317.741C3.25412 317.965 3.21962 318.207 3.19087 318.471C3.14488 318.96 3.09314 319.512 3.07589 320.115C3.05864 320.719 3.05864 321.374 3.12188 322.07C3.18513 322.766 3.28287 323.49 3.4841 324.226C3.4841 324.232 3.48409 324.243 3.48984 324.249C3.36336 324.054 2.9954 323.513 2.9609 323.473C2.4952 322.933 1.28209 322.168 0.546174 322.478C0.0172336 322.703 -0.138005 323.335 0.126465 323.818C0.396685 324.312 1.04637 324.554 1.56956 324.629L1.54656 324.652Z" fill="#263238"/>
<path d="M15.3443 320.905C15.3443 320.905 15.5973 319.973 15.6088 319.916C15.7065 319.215 15.4823 317.794 14.7636 317.45C14.2462 317.202 13.6713 317.501 13.4815 318.019C13.2918 318.548 13.5333 319.197 13.8207 319.64C14.16 320.163 15.3443 320.911 15.3443 320.911V320.905Z" fill="#263238"/>
<path d="M540.46 199.903C528.811 231.97 503.728 267.113 466.803 278.554C411.017 295.848 406.032 337.406 304.783 337.124C288.998 337.084 274.344 335.583 260.822 332.837C253.557 331.36 246.611 329.521 240.008 327.345C180.033 307.683 147.191 260.947 142.507 210.991C136.329 145.299 185.548 112.156 217.613 92.6296C249.686 73.1114 286.249 0.54657 385.784 0.113011C400.959 0.0568095 416.161 1.40566 430.964 4.49677C464.761 11.5461 499.539 28.5432 520.432 54.4363C521.997 56.3793 523.499 58.3785 524.949 60.4098C553.125 100.233 556.342 156.17 540.46 199.887V199.903Z" fill="#00413C"/>
<path d="M415.314 47.79C410.975 50.3284 409.333 55.2402 408.552 57.5993C407.469 60.8547 403.669 55.4266 396.068 58.1443C388.467 60.8619 387.384 66.8278 385.75 68.4627C384.115 70.0975 373.266 74.4357 373.266 74.4357H482.222" stroke="white" stroke-linecap="round" stroke-linejoin="round"/>
<path d="M487.655 74.4283H500.856C500.856 74.4283 503.029 62.4822 498.138 56.5091C493.255 50.5361 482.392 59.2268 479.137 50.5361C479.137 50.5361 469.363 36.4173 457.417 35.3346C445.471 34.2518 440.588 43.4803 436.787 48.3634C432.987 53.2466 430.814 46.1908 421.586 46.1908" stroke="white" stroke-linecap="round" stroke-linejoin="round"/>
<path d="M435.501 64.7334C433.286 66.7913 432.984 69.5448 432.984 69.5448" stroke="white" stroke-linecap="round" stroke-linejoin="round"/>
<path d="M476.963 55.4265C476.963 55.4265 469.362 47.8258 460.671 48.3707C451.988 48.9157 455.243 59.2269 451.443 62.4895C447.643 65.7521 443.297 61.4067 438.414 63.0345" stroke="white" stroke-linecap="round" stroke-linejoin="round"/>
<path d="M306.415 81.6982C303.583 83.3546 302.507 86.567 301.998 88.1087C301.288 90.2383 298.807 86.6889 293.838 88.46C288.869 90.2312 288.166 94.1319 287.098 95.2003C286.029 96.2687 278.938 99.1011 278.938 99.1011H350.126" stroke="white" stroke-linecap="round" stroke-linejoin="round"/>
<path d="M353.675 99.1016H362.301C362.301 99.1016 363.721 91.3 360.53 87.3993C357.339 83.4985 350.24 89.1704 348.118 83.4985C348.118 83.4985 341.736 74.2772 333.927 73.5673C326.119 72.8574 322.928 78.8879 320.447 82.0787C317.966 85.2696 316.546 80.659 310.516 80.659" stroke="white" stroke-linecap="round" stroke-linejoin="round"/>
<path d="M319.602 92.7705C318.154 94.1186 317.953 95.9112 317.953 95.9112" stroke="white" stroke-linecap="round" stroke-linejoin="round"/>
<path d="M346.691 86.6897C346.691 86.6897 341.722 81.7205 336.05 82.0791C330.378 82.4376 332.5 89.1707 330.019 91.3003C327.538 93.43 324.699 90.5905 321.508 91.6517" stroke="white" stroke-linecap="round" stroke-linejoin="round"/>
<path d="M451.356 110.274C449.377 111.429 448.631 113.666 448.272 114.742C447.778 116.226 446.049 113.752 442.586 114.993C439.123 116.233 438.628 118.951 437.889 119.689C437.151 120.428 432.203 122.407 432.203 122.407H481.845" stroke="white" stroke-linecap="round" stroke-linejoin="round"/>
<path d="M484.313 122.414H490.33C490.33 122.414 491.319 116.971 489.096 114.254C486.873 111.536 481.926 115.487 480.441 111.536C480.441 111.536 475.988 105.104 470.546 104.609C465.104 104.115 462.881 108.317 461.145 110.547C459.417 112.77 458.428 109.557 454.219 109.557" stroke="white" stroke-linecap="round" stroke-linejoin="round"/>
<path d="M460.554 117.996C459.542 118.935 459.406 120.19 459.406 120.19" stroke="white" stroke-linecap="round" stroke-linejoin="round"/>
<path d="M479.443 113.752C479.443 113.752 475.98 110.288 472.022 110.539C468.064 110.79 469.548 115.487 467.82 116.971C466.092 118.456 464.113 116.477 461.883 117.222" stroke="white" stroke-linecap="round" stroke-linejoin="round"/>
<path d="M243.424 292.757V262.849H207.055V245.116L238.763 171.03H262.956V246.321H275.433V262.849H262.956V292.757H243.424ZM224.486 246.321H243.424V193.424L224.486 246.321Z" fill="#007E73"/>
<path d="M318.114 294.556C311 294.556 305.114 293.05 300.453 290.046C295.792 287.041 292.285 282.883 289.934 277.569C287.582 272.263 286.398 266.147 286.398 259.234V205.283C286.398 198.17 287.524 191.932 289.783 186.575C292.034 181.219 295.491 177.031 300.152 174.027C304.812 171.022 310.793 169.517 318.106 169.517C325.42 169.517 331.408 171.022 336.061 174.027C340.722 177.031 344.179 181.219 346.43 186.575C348.682 191.939 349.815 198.17 349.815 205.283V259.234C349.815 266.147 348.639 272.256 346.279 277.569C343.928 282.883 340.421 287.034 335.76 290.046C331.099 293.05 325.212 294.556 318.099 294.556H318.114ZM318.114 276.673C321.218 276.673 323.52 275.719 325.026 273.819C326.532 271.919 327.529 269.61 328.03 266.907C328.532 264.203 328.783 261.55 328.783 258.94V205.592C328.783 202.788 328.561 200.006 328.109 197.252C327.658 194.499 326.682 192.168 325.177 190.261C323.671 188.361 321.319 187.407 318.114 187.407C314.908 187.407 312.557 188.361 311.051 190.261C309.545 192.168 308.57 194.492 308.118 197.252C307.666 200.006 307.444 202.788 307.444 205.592V258.94C307.444 261.55 307.716 264.203 308.269 266.907C308.821 269.61 309.846 271.919 311.352 273.819C312.858 275.726 315.109 276.673 318.114 276.673Z" fill="#007E73"/>
<path d="M399.408 292.757V262.849H363.039V245.116L394.747 171.03H418.94V246.321H431.417V262.849H418.94V292.757H399.408ZM380.471 246.321H399.408V193.424L380.471 246.321Z" fill="#007E73"/>
<path d="M252.486 292.757V262.849H216.117V245.116L247.825 171.03H272.019V246.321H284.495V262.849H272.019V292.757H252.486ZM233.549 246.321H252.486V193.424L233.549 246.321Z" fill="white"/>
<path d="M327.176 294.556C320.063 294.556 314.176 293.05 309.515 290.046C304.854 287.041 301.348 282.883 298.996 277.569C296.644 272.263 295.461 266.147 295.461 259.234V205.283C295.461 198.17 296.587 191.932 298.845 186.575C301.097 181.219 304.553 177.031 309.214 174.027C313.875 171.022 319.855 169.517 327.169 169.517C334.483 169.517 340.47 171.022 345.124 174.027C349.785 177.031 353.241 181.219 355.493 186.575C357.744 191.939 358.877 198.17 358.877 205.283V259.234C358.877 266.147 357.701 272.256 355.342 277.569C352.99 282.883 349.484 287.034 344.823 290.046C340.162 293.05 334.275 294.556 327.162 294.556H327.176ZM327.176 276.673C330.281 276.673 332.583 275.719 334.089 273.819C335.594 271.919 336.591 269.61 337.093 266.907C337.595 264.203 337.846 261.55 337.846 258.94V205.592C337.846 202.788 337.624 200.006 337.172 197.252C336.72 194.499 335.745 192.168 334.239 190.261C332.733 188.361 330.381 187.407 327.176 187.407C323.971 187.407 321.619 188.361 320.113 190.261C318.607 192.168 317.632 194.492 317.18 197.252C316.729 200.006 316.506 202.788 316.506 205.592V258.94C316.506 261.55 316.779 264.203 317.331 266.907C317.883 269.61 318.909 271.919 320.414 273.819C321.92 275.726 324.172 276.673 327.176 276.673Z" fill="white"/>
<path d="M408.478 292.757V262.849H372.109V245.116L403.817 171.03H428.011V246.321H440.487V262.849H428.011V292.757H408.478ZM389.541 246.321H408.478V193.424L389.541 246.321Z" fill="white"/>
<path d="M272.31 162.396C270.618 162.396 269.277 162.081 268.273 161.457C267.269 160.826 266.552 159.922 266.122 158.746C265.692 157.57 265.477 156.172 265.477 154.566V145.646C265.477 144.04 265.692 142.656 266.122 141.508C266.552 140.361 267.269 139.479 268.273 138.87C269.277 138.26 270.618 137.959 272.31 137.959C274.002 137.959 275.401 138.26 276.39 138.87C277.38 139.479 278.097 140.354 278.541 141.508C278.986 142.656 279.201 144.04 279.201 145.646V154.602C279.201 156.194 278.979 157.57 278.541 158.739C278.097 159.908 277.38 160.811 276.39 161.45C275.401 162.088 274.038 162.403 272.31 162.403V162.396ZM272.31 159.184C273.034 159.184 273.572 159.026 273.916 158.71C274.26 158.395 274.49 157.965 274.605 157.413C274.719 156.86 274.784 156.265 274.784 155.613V144.628C274.784 143.961 274.727 143.358 274.605 142.828C274.49 142.297 274.253 141.881 273.916 141.573C273.572 141.272 273.034 141.114 272.31 141.114C271.622 141.114 271.105 141.265 270.747 141.573C270.396 141.874 270.159 142.297 270.037 142.828C269.915 143.358 269.858 143.954 269.858 144.628V155.613C269.858 156.258 269.908 156.86 270.023 157.413C270.13 157.965 270.36 158.395 270.711 158.71C271.062 159.026 271.593 159.184 272.303 159.184H272.31Z" fill="white"/>
<path d="M288.888 162.396C287.196 162.396 285.855 162.081 284.851 161.457C283.847 160.826 283.13 159.922 282.7 158.746C282.27 157.57 282.055 156.172 282.055 154.566V145.646C282.055 144.04 282.27 142.656 282.7 141.508C283.13 140.361 283.847 139.479 284.851 138.87C285.855 138.26 287.196 137.959 288.888 137.959C290.58 137.959 291.979 138.26 292.968 138.87C293.958 139.479 294.675 140.354 295.119 141.508C295.564 142.656 295.779 144.04 295.779 145.646V154.602C295.779 156.194 295.557 157.57 295.119 158.739C294.675 159.908 293.958 160.811 292.968 161.45C291.979 162.088 290.616 162.403 288.888 162.403V162.396ZM288.888 159.184C289.612 159.184 290.15 159.026 290.494 158.71C290.839 158.395 291.068 157.965 291.183 157.413C291.297 156.86 291.362 156.265 291.362 155.613V144.628C291.362 143.961 291.305 143.358 291.183 142.828C291.068 142.297 290.831 141.881 290.494 141.573C290.15 141.272 289.612 141.114 288.888 141.114C288.2 141.114 287.684 141.265 287.325 141.573C286.974 141.874 286.737 142.297 286.615 142.828C286.493 143.358 286.436 143.954 286.436 144.628V155.613C286.436 156.258 286.486 156.86 286.601 157.413C286.708 157.965 286.938 158.395 287.296 158.71C287.648 159.026 288.178 159.184 288.888 159.184Z" fill="white"/>
<path d="M298.992 162.067V138.211H305.997C307.431 138.211 308.593 138.476 309.489 139.007C310.386 139.537 311.038 140.305 311.461 141.316C311.884 142.327 312.092 143.553 312.092 144.98C312.092 146.529 311.827 147.784 311.296 148.737C310.766 149.691 310.027 150.379 309.073 150.817C308.12 151.247 306.994 151.462 305.703 151.462H303.344V162.067H298.984H298.992ZM303.351 148.4H305C305.782 148.4 306.399 148.286 306.843 148.063C307.288 147.841 307.589 147.475 307.754 146.973C307.919 146.471 308.005 145.797 308.005 144.958C308.005 144.119 307.94 143.395 307.811 142.85C307.682 142.312 307.41 141.911 306.987 141.66C306.564 141.402 305.904 141.28 305 141.28H303.351V148.407V148.4Z" fill="white"/>
<path d="M320.402 162.396C318.967 162.396 317.77 162.117 316.809 161.558C315.848 160.998 315.124 160.181 314.629 159.098C314.142 158.015 313.862 156.696 313.805 155.126L317.548 154.387C317.584 155.312 317.698 156.122 317.885 156.832C318.071 157.542 318.358 158.087 318.738 158.467C319.118 158.847 319.627 159.041 320.251 159.041C320.961 159.041 321.456 158.833 321.75 158.41C322.044 157.987 322.194 157.456 322.194 156.803C322.194 155.764 321.958 154.91 321.484 154.244C321.011 153.577 320.387 152.91 319.598 152.243L316.594 149.59C315.748 148.866 315.074 148.055 314.579 147.159C314.077 146.263 313.826 145.159 313.826 143.846C313.826 141.96 314.378 140.512 315.475 139.487C316.573 138.468 318.078 137.952 319.979 137.952C321.097 137.952 322.029 138.124 322.775 138.468C323.521 138.813 324.116 139.286 324.553 139.895C324.998 140.505 325.321 141.193 325.543 141.975C325.758 142.749 325.894 143.567 325.959 144.434L322.252 145.08C322.209 144.334 322.13 143.667 322.001 143.079C321.872 142.491 321.649 142.032 321.327 141.695C321.004 141.365 320.523 141.193 319.9 141.193C319.276 141.193 318.752 141.401 318.415 141.824C318.071 142.247 317.899 142.771 317.899 143.402C317.899 144.205 318.064 144.872 318.401 145.388C318.738 145.911 319.218 146.442 319.842 146.994L322.818 149.619C323.8 150.443 324.639 151.411 325.335 152.523C326.03 153.634 326.382 154.975 326.382 156.545C326.382 157.685 326.131 158.696 325.629 159.578C325.127 160.46 324.431 161.156 323.535 161.658C322.639 162.16 321.599 162.411 320.402 162.411V162.396Z" fill="white"/>
<path d="M328.328 162.067V158.18H332.215V162.067H328.328ZM329.561 156.474L328.357 138.246H332.365L330.953 156.474H329.569H329.561Z" fill="white"/>
</svg>
