<svg width="24" height="24" viewBox="0 0 24 24" fill="none" xmlns="http://www.w3.org/2000/svg">
<path d="M20.4861 3.51458C15.7997 -1.17126 8.20146 -1.17179 3.51458 3.51458C-1.17179 8.20094 -1.17126 15.7992 3.51458 20.4861C8.20094 25.1714 15.7992 25.1719 20.4861 20.4861C25.1719 15.7992 25.1714 8.20146 20.4861 3.51458ZM13.5651 17.2178C13.5651 17.633 13.4001 18.0311 13.1066 18.3246C12.8131 18.6182 12.4149 18.7831 11.9998 18.7831C11.5847 18.7831 11.1865 18.6182 10.893 18.3246C10.5995 18.0311 10.4346 17.633 10.4346 17.2178V10.9568C10.4346 10.5417 10.5995 10.1436 10.893 9.85003C11.1865 9.55648 11.5847 9.39157 11.9998 9.39157C12.4149 9.39157 12.8131 9.55648 13.1066 9.85003C13.4001 10.1436 13.5651 10.5417 13.5651 10.9568V17.2178ZM11.9722 8.28129C11.0706 8.28129 10.4695 7.64267 10.4883 6.8543C10.4695 6.02785 11.0706 5.40853 11.9904 5.40853C12.9108 5.40853 13.4931 6.02837 13.5124 6.8543C13.5118 7.64267 12.9113 8.28129 11.9722 8.28129Z" fill="#9F9F9F"/>
</svg>
