<svg width="512" height="512" viewBox="0 0 512 512" fill="none" xmlns="http://www.w3.org/2000/svg">
<circle cx="256" cy="256" r="240" fill="url(#paint0_linear_3053_1221)"/>
<path fill-rule="evenodd" clip-rule="evenodd" d="M349.073 129.193C351.476 125.003 352.125 120.121 350.894 115.444C349.632 110.767 346.67 106.86 342.5 104.437C333.925 99.4407 322.909 102.419 317.945 111.072C315.573 115.261 314.923 120.144 316.155 124.82C317.386 129.497 320.378 133.405 324.549 135.819C328.681 138.241 333.524 138.889 338.186 137.632C342.81 136.383 346.693 133.382 349.073 129.193ZM316.155 386.181C314.923 390.858 315.566 395.74 317.945 399.929C322.909 408.582 333.925 411.56 342.5 406.564C346.663 404.142 349.625 400.234 350.894 395.565C352.125 390.888 351.483 386.006 349.073 381.816C346.701 377.619 342.81 374.626 338.186 373.369C336.614 372.95 335.043 372.744 333.494 372.744C330.381 372.744 327.291 373.567 324.549 375.182C320.378 377.596 317.386 381.504 316.155 386.181ZM195.845 386.181C194.614 381.512 191.622 377.604 187.451 375.182C184.709 373.567 181.619 372.744 178.506 372.744C176.934 372.744 175.393 372.95 173.814 373.369C169.19 374.626 165.299 377.619 162.897 381.816C160.524 386.006 159.875 390.888 161.106 395.565C162.368 400.234 165.33 404.142 169.5 406.564C173.633 408.986 178.476 409.626 183.137 408.377C187.761 407.12 191.652 404.126 194.024 399.929C196.427 395.732 197.077 390.85 195.845 386.181ZM256 354.456C272.259 354.456 287.588 350.45 301.105 343.381L316.283 369.888C311.962 373.46 308.879 378.282 307.398 383.819C306.137 388.588 306.167 393.501 307.459 398.139C290.988 404.18 273.709 407.242 256 407.242C238.29 407.242 221.019 404.18 204.541 398.139C205.833 393.501 205.871 388.588 204.602 383.819C203.121 378.282 200.038 373.46 195.717 369.888L210.895 343.381C224.412 350.45 239.741 354.456 256 354.456ZM232.337 286.993C212.376 288.135 193.994 295.151 182.299 305.929C198.369 329.686 225.394 345.316 256 345.316C286.599 345.316 313.624 329.678 329.671 305.929C317.976 295.151 299.624 288.135 279.663 286.993C273.989 286.665 269.547 281.928 269.547 276.207V273.808C269.547 270.487 270.967 267.501 273.528 265.406C281.212 259.145 286.206 248.025 287.256 234.901C288.246 222.279 285.254 210.039 279.633 203.709C273.43 196.755 266.154 193.655 256.03 193.655C245.725 193.655 238.661 196.663 232.367 203.709C226.754 210.039 223.762 222.279 224.744 234.901C225.794 248.025 230.788 259.145 238.472 265.406C241.033 267.493 242.453 270.479 242.453 273.808V276.207C242.453 281.928 238.011 286.665 232.337 286.993ZM166.909 255.497C166.909 205.971 206.891 165.685 256 165.685C305.109 165.685 345.091 205.979 345.091 255.497C345.091 270.86 341.238 285.325 334.476 297.984C321.179 286.361 301.747 279.102 280.154 277.868C279.736 277.839 279.345 277.652 279.059 277.344C278.773 277.036 278.613 276.629 278.613 276.207V273.808C278.613 273.244 278.802 272.871 279.232 272.513C288.828 264.683 295.061 251.247 296.292 235.632C297.493 220.405 293.701 205.842 286.387 197.608C278.432 188.673 268.776 184.514 256.03 184.514C243.224 184.514 233.568 188.673 225.643 197.608C218.299 205.834 214.507 220.405 215.708 235.624C216.939 251.231 223.172 264.675 232.768 272.505C233.198 272.863 233.387 273.237 233.387 273.8V276.2C233.387 277.083 232.707 277.807 231.846 277.86C210.253 279.102 190.813 286.353 177.524 297.976C170.762 285.332 166.909 270.86 166.909 255.497ZM127.606 260.075C125.816 270.677 117.951 279.208 107.774 281.889C113.878 317.049 131.988 348.652 159.232 371.724C162.564 368.296 166.757 365.821 171.479 364.541C176.972 363.063 182.676 363.353 187.889 365.318L203.068 338.803C177.093 321.962 159.444 293.109 157.963 260.082H127.606V260.075ZM118.933 255.497C118.933 265.49 110.849 273.617 100.951 273.617C91.0463 273.617 83 265.49 83 255.497C83 245.511 91.0539 237.384 100.951 237.384C110.849 237.384 118.933 245.511 118.933 255.497ZM187.451 135.819C191.614 133.397 194.606 129.49 195.845 124.82C197.077 120.144 196.434 115.261 194.024 111.072C191.652 106.882 187.761 103.881 183.137 102.625C181.596 102.206 180.024 102 178.445 102C175.333 102 172.273 102.823 169.5 104.437C165.337 106.86 162.375 110.759 161.106 115.444C159.875 120.121 160.517 125.003 162.897 129.193C165.299 133.382 169.19 136.383 173.814 137.632C178.476 138.889 183.319 138.241 187.451 135.819ZM203.06 172.205C177.085 189.046 159.436 217.907 157.956 250.934H127.606C125.816 240.331 117.951 231.793 107.774 229.119C113.878 193.959 131.988 162.349 159.232 139.285C162.564 142.705 166.757 145.188 171.479 146.46C173.822 147.092 176.171 147.397 178.513 147.397C181.724 147.397 184.867 146.811 187.889 145.683L203.06 172.205ZM301.097 167.62C287.588 160.544 272.251 156.545 255.992 156.545C239.734 156.545 224.404 160.551 210.888 167.62L195.709 141.113C200.031 137.533 203.113 132.719 204.594 127.182C205.856 122.413 205.826 117.493 204.534 112.862C220.974 106.822 238.283 103.76 255.992 103.76C273.702 103.76 290.973 106.822 307.451 112.862C306.159 117.5 306.121 122.413 307.391 127.182C308.872 132.719 311.954 137.533 316.276 141.113L301.097 167.62ZM384.394 250.934H354.037C352.556 217.907 334.907 189.054 308.932 172.205L324.111 145.683C327.133 146.818 330.283 147.397 333.487 147.397C335.829 147.397 338.178 147.085 340.52 146.46C345.243 145.188 349.405 142.705 352.768 139.285C380.004 162.349 398.114 193.959 404.226 229.119C394.049 231.793 386.184 240.331 384.394 250.934ZM404.226 281.882C394.049 279.208 386.177 270.67 384.394 260.067H354.037C352.556 293.094 334.907 321.947 308.932 338.788L324.111 365.303C329.354 363.338 335.028 363.048 340.52 364.526C345.243 365.798 349.405 368.281 352.768 371.701C380.012 348.644 398.122 317.042 404.226 281.882ZM411.049 237.384C401.144 237.384 393.067 245.511 393.067 255.497C393.067 265.49 401.151 273.617 411.049 273.617C420.954 273.617 429 265.49 429 255.497C429 245.511 420.946 237.384 411.049 237.384Z" fill="white"/>
<defs>
<linearGradient id="paint0_linear_3053_1221" x1="256" y1="16" x2="256" y2="496" gradientUnits="userSpaceOnUse">
<stop stop-color="#02B4AA"/>
<stop offset="1" stop-color="#1E4590"/>
<stop offset="1" stop-color="#1E458F"/>
</linearGradient>
</defs>
</svg>
