<svg width="1640" height="865" viewBox="0 0 1640 865" fill="none" xmlns="http://www.w3.org/2000/svg">
<g clip-path="url(#clip0_2576_2209)">
<rect width="1640" height="865" fill="#BBEAE6"/>
<mask id="mask0_2576_2209" style="mask-type:luminance" maskUnits="userSpaceOnUse" x="43" y="297" width="1597" height="568">
<path d="M1640 297.555H43.9062V865H1640V297.555Z" fill="white"/>
</mask>
<g mask="url(#mask0_2576_2209)">
<g style="mix-blend-mode:overlay" opacity="0.17">
<path d="M1160.13 830.391C1378.15 830.391 1554.89 773.455 1554.89 703.221C1554.89 632.987 1378.15 576.051 1160.13 576.051C942.115 576.051 765.375 632.987 765.375 703.221C765.375 773.455 942.115 830.391 1160.13 830.391Z" stroke="white" stroke-width="0.25" stroke-miterlimit="10"/>
<path d="M1919.74 700.488C1919.74 701.411 1919.96 702.334 1919.96 703.258C1919.96 818.978 1669.43 916.119 1334.05 941.531L1383.56 1001.55C1801.29 969.085 2112.64 847.714 2112.64 703.295C2112.64 699.823 2112.19 696.351 2111.82 692.879L1919.74 700.525V700.488Z" fill="white"/>
<path d="M1160.13 396.358C1072.58 396.358 987.843 400.274 907.273 407.439L958.414 467.275C1022.7 461.55 1090.27 458.448 1160.13 458.448C1328.14 458.448 1483.48 476.14 1609.43 506.021L1723.38 456.01C1565.49 418.594 1370.75 396.395 1160.17 396.395L1160.13 396.358Z" fill="white"/>
<path d="M400.336 703.221C400.336 602.017 591.974 514.923 864.513 477.691L789.557 420.515C447.932 467.165 207.664 576.31 207.664 703.221C207.664 704.994 207.996 706.73 208.07 708.503L400.853 710.091C400.668 707.801 400.299 705.511 400.299 703.221H400.336Z" fill="white"/>
<path d="M978.28 1004.43L1015.06 943.489C748.093 926.794 530.718 864.927 442.69 783.668L261.133 804.426C371.758 906.11 644.003 983.491 978.243 1004.4L978.28 1004.43Z" fill="white"/>
<path d="M805.583 811.997C721.801 783.667 670.181 745.364 670.181 703.221C670.181 616.163 889.992 545.357 1160.13 545.357V505.983C822.568 505.983 547.961 594.482 547.961 703.221C547.961 755.854 612.431 803.723 717.149 839.145L805.583 811.997Z" fill="white"/>
<path d="M1455.82 530.583L1396.78 565.044C1547.69 591.97 1650.12 643.791 1650.12 703.221C1650.12 790.279 1430.31 861.085 1160.17 861.085C1065.01 861.085 976.172 852.257 900.92 837.076L836.266 870.466C930.312 889.451 1041.31 900.458 1160.2 900.458C1497.77 900.458 1772.37 811.96 1772.37 703.221C1772.37 628.98 1644.39 564.232 1455.86 530.583H1455.82Z" fill="white"/>
<path d="M1160.13 1031.06C1722.08 1031.06 2177.62 884.284 2177.62 703.221C2177.62 522.159 1722.08 375.379 1160.13 375.379C598.187 375.379 142.641 522.159 142.641 703.221C142.641 884.284 598.187 1031.06 1160.13 1031.06Z" stroke="white" stroke-miterlimit="10"/>
<g style="mix-blend-mode:overlay" opacity="0.53">
<path d="M1160.13 931.521C1551.49 931.521 1868.75 829.308 1868.75 703.221C1868.75 577.134 1551.49 474.921 1160.13 474.921C768.774 474.921 451.516 577.134 451.516 703.221C451.516 829.308 768.774 931.521 1160.13 931.521Z" stroke="white" stroke-width="0.5" stroke-miterlimit="10"/>
<path d="M451.516 394.733L1014.28 639.729" stroke="white" stroke-width="0.5" stroke-miterlimit="10"/>
<path d="M227.867 464.32L968.24 654.06" stroke="white" stroke-width="0.5" stroke-miterlimit="10"/>
<path d="M67.7266 550.196L935.304 671.715" stroke="white" stroke-width="0.5" stroke-miterlimit="10"/>
<path d="M-17.9766 646.524L917.652 691.549" stroke="white" stroke-width="0.5" stroke-miterlimit="10"/>
<path d="M-23.4062 746.694L916.543 712.159" stroke="white" stroke-width="0.5" stroke-miterlimit="10"/>
<path d="M51.8438 843.91L932.012 732.179" stroke="white" stroke-width="0.5" stroke-miterlimit="10"/>
<path d="M202.648 931.521L963.071 750.203" stroke="white" stroke-width="0.5" stroke-miterlimit="10"/>
<path d="M418.656 1003.62L1007.53 765.052" stroke="white" stroke-width="0.5" stroke-miterlimit="10"/>
<path d="M685.211 1055.22L1062.39 775.689" stroke="white" stroke-width="0.5" stroke-miterlimit="10"/>
<path d="M984.148 1082.81L1123.91 781.34" stroke="white" stroke-width="0.5" stroke-miterlimit="10"/>
<path d="M1295.06 1084.55L1187.94 781.71" stroke="white" stroke-width="0.5" stroke-miterlimit="10"/>
<path d="M1596.8 1060.32L1250.01 776.724" stroke="white" stroke-width="0.5" stroke-miterlimit="10"/>
<path d="M1868.75 1011.75L1306.02 766.714" stroke="white" stroke-width="0.5" stroke-miterlimit="10"/>
<path d="M2092.44 942.122L1352.03 752.383" stroke="white" stroke-width="0.5" stroke-miterlimit="10"/>
<path d="M2252.58 856.246L1385 734.728" stroke="white" stroke-width="0.5" stroke-miterlimit="10"/>
<path d="M2338.29 759.917L1402.66 714.893" stroke="white" stroke-width="0.5" stroke-miterlimit="10"/>
<path d="M2343.71 659.747L1403.76 694.282" stroke="white" stroke-width="0.5" stroke-miterlimit="10"/>
<path d="M2268.46 562.532L1388.25 674.263" stroke="white" stroke-width="0.5" stroke-miterlimit="10"/>
<path d="M2117.66 474.921L1357.23 656.239" stroke="white" stroke-width="0.5" stroke-miterlimit="10"/>
<path d="M1901.65 402.858L1312.78 641.39" stroke="white" stroke-width="0.5" stroke-miterlimit="10"/>
<path d="M1635.09 351.26L1257.91 630.79" stroke="white" stroke-width="0.5" stroke-miterlimit="10"/>
<path d="M1336.15 323.632L1196.39 625.102" stroke="white" stroke-width="0.5" stroke-miterlimit="10"/>
<path d="M1025.25 321.896L1132.37 624.732" stroke="white" stroke-width="0.5" stroke-miterlimit="10"/>
<path d="M723.5 346.125L1070.26 629.718" stroke="white" stroke-width="0.5" stroke-miterlimit="10"/>
</g>
<path d="M1160.13 1054.07C1761.56 1054.07 2249.11 896.991 2249.11 703.221C2249.11 509.45 1761.56 352.367 1160.13 352.367C558.708 352.367 71.1562 509.45 71.1562 703.221C71.1562 896.991 558.708 1054.07 1160.13 1054.07Z" stroke="white" stroke-miterlimit="10"/>
</g>
</g>
<mask id="mask1_2576_2209" style="mask-type:luminance" maskUnits="userSpaceOnUse" x="0" y="0" width="1640" height="635">
<path d="M1640 0H0V634.188H1640V0Z" fill="white"/>
</mask>
<g mask="url(#mask1_2576_2209)">
<path style="mix-blend-mode:overlay" d="M1461.25 81.2217L1353.46 189H844.275L787.116 246.177H542.085L382.978 405.37H115.312" stroke="url(#paint0_linear_2576_2209)" stroke-width="0.5" stroke-miterlimit="10"/>
<path d="M806.203 121.001H1135.38L1287.92 273.583H1698.74" stroke="url(#paint1_linear_2576_2209)" stroke-width="0.5" stroke-miterlimit="10"/>
<path d="M663.898 81.2217H1021.59L1185.64 245.328H1676.55" stroke="url(#paint2_linear_2576_2209)" stroke-width="0.5" stroke-miterlimit="10"/>
<path d="M322.055 509.012L490.726 340.289H1170.25L1274.67 444.744H1698.75" stroke="url(#paint3_linear_2576_2209)" stroke-width="0.5" stroke-miterlimit="10"/>
<path d="M1723.01 367.363H1308.9L1218.58 457.708H554.422" stroke="url(#paint4_linear_2576_2209)" stroke-width="0.5" stroke-miterlimit="10"/>
<path d="M506.047 163.256H1293.42L1494.51 -37.8965" stroke="url(#paint5_linear_2576_2209)" stroke-width="0.5" stroke-miterlimit="10"/>
<path d="M468.789 31.6533H1252.47L1437.02 216.259H1770.45" stroke="url(#paint6_linear_2576_2209)" stroke-width="0.5" stroke-miterlimit="10"/>
</g>
<path style="mix-blend-mode:screen" d="M1160.13 729.445C1260.99 729.445 1342.76 703.102 1342.76 670.606C1342.76 638.111 1260.99 611.768 1160.13 611.768C1059.27 611.768 977.5 638.111 977.5 670.606C977.5 703.102 1059.27 729.445 1160.13 729.445Z" fill="url(#paint7_radial_2576_2209)"/>
<path style="mix-blend-mode:screen" d="M1160.13 698.05C1215.33 698.05 1260.08 683.63 1260.08 665.842C1260.08 648.054 1215.33 633.634 1160.13 633.634C1104.92 633.634 1060.17 648.054 1060.17 665.842C1060.17 683.63 1104.92 698.05 1160.13 698.05Z" fill="url(#paint8_radial_2576_2209)"/>
<path style="mix-blend-mode:screen" d="M1160.13 716.444C1241.89 716.444 1308.16 695.096 1308.16 668.76C1308.16 642.425 1241.89 621.076 1160.13 621.076C1078.38 621.076 1012.1 642.425 1012.1 668.76C1012.1 695.096 1078.38 716.444 1160.13 716.444Z" fill="url(#paint9_radial_2576_2209)"/>
<path style="mix-blend-mode:screen" d="M1160.13 835.71C1402.25 835.71 1598.53 772.473 1598.53 694.467C1598.53 616.461 1402.25 553.225 1160.13 553.225C918.007 553.225 721.727 616.461 721.727 694.467C721.727 772.473 918.007 835.71 1160.13 835.71Z" fill="url(#paint10_radial_2576_2209)"/>
<g style="mix-blend-mode:overlay">
<path d="M1160.13 813.031C1384.63 813.031 1566.63 754.392 1566.63 682.056C1566.63 609.721 1384.63 551.082 1160.13 551.082C935.622 551.082 753.625 609.721 753.625 682.056C753.625 754.392 935.622 813.031 1160.13 813.031Z" stroke="white" stroke-miterlimit="10"/>
</g>
<g style="mix-blend-mode:overlay">
<path d="M1160.13 713.157C1233.1 713.157 1292.25 694.106 1292.25 670.607C1292.25 647.107 1233.1 628.057 1160.13 628.057C1087.17 628.057 1028.02 647.107 1028.02 670.607C1028.02 694.106 1087.17 713.157 1160.13 713.157Z" stroke="white" stroke-width="0.25" stroke-miterlimit="10"/>
<path d="M1414.35 669.682C1414.35 669.978 1414.43 670.31 1414.43 670.606C1414.43 709.315 1330.57 741.855 1218.32 750.35L1234.9 770.443C1374.7 759.584 1478.9 718.955 1478.9 670.606C1478.9 669.424 1478.75 668.279 1478.64 667.134L1414.35 669.682Z" fill="white"/>
<path d="M1414.35 669.682L1478.64 667.134C1475.65 638.435 1436.03 612.69 1374.33 594.592L1331.02 609.957C1381.6 624.768 1413.58 646.043 1414.39 669.682H1414.35Z" fill="white"/>
<path d="M1160.13 567.888C1130.81 567.888 1102.49 569.18 1075.5 571.581L1092.63 591.6C1114.16 589.68 1136.76 588.646 1160.13 588.646C1216.37 588.646 1268.36 594.555 1310.49 604.565L1348.63 587.833C1295.79 575.312 1230.62 567.888 1160.13 567.888Z" fill="white"/>
<path d="M905.869 670.606C905.869 636.736 970.006 607.594 1061.21 595.146L1036.14 576.014C921.82 591.638 841.398 628.167 841.398 670.643C841.398 671.234 841.509 671.825 841.546 672.416L906.053 672.933C905.979 672.158 905.869 671.419 905.869 670.643V670.606Z" fill="white"/>
<path d="M1099.28 771.404L1111.58 751.015C1022.22 745.438 949.48 724.717 920.014 697.532L859.273 704.476C896.309 738.494 987.401 764.423 1099.28 771.404Z" fill="white"/>
<path d="M1041.49 707.026C1013.47 697.533 996.186 684.716 996.186 670.607C996.186 641.464 1069.74 617.789 1160.17 617.789V604.603C1047.18 604.603 955.273 634.225 955.273 670.607C955.273 688.225 976.837 704.255 1011.88 716.112L1041.49 707.026Z" fill="white"/>
<path d="M1259.09 612.839L1239.33 624.363C1289.84 633.375 1324.11 650.735 1324.11 670.606C1324.11 699.749 1250.56 723.425 1160.13 723.425C1128.3 723.425 1098.54 720.47 1073.36 715.41L1051.72 726.601C1083.18 732.954 1120.32 736.648 1160.13 736.648C1273.12 736.648 1365.02 707.025 1365.02 670.643C1365.02 645.786 1322.19 624.141 1259.09 612.876V612.839Z" fill="white"/>
<path d="M1160.13 780.306C1348.19 780.306 1500.64 731.192 1500.64 670.607C1500.64 610.021 1348.19 560.907 1160.13 560.907C972.064 560.907 819.609 610.021 819.609 670.607C819.609 731.192 972.064 780.306 1160.13 780.306Z" stroke="white" stroke-miterlimit="10"/>
<g style="mix-blend-mode:overlay" opacity="0.53">
<path d="M1160.13 747.027C1291.11 747.027 1397.29 712.812 1397.29 670.607C1397.29 628.401 1291.11 594.187 1160.13 594.187C1029.14 594.187 922.961 628.401 922.961 670.607C922.961 712.812 1029.14 747.027 1160.13 747.027Z" stroke="white" stroke-width="0.5" stroke-miterlimit="10"/>
<path d="M923 567.371L1111.31 649.369" stroke="white" stroke-width="0.5" stroke-miterlimit="10"/>
<path d="M848.117 590.641L1095.92 654.133" stroke="white" stroke-width="0.5" stroke-miterlimit="10"/>
<path d="M794.539 619.377L1084.88 660.08" stroke="white" stroke-width="0.5" stroke-miterlimit="10"/>
<path d="M765.852 651.621L1079.01 666.691" stroke="white" stroke-width="0.5" stroke-miterlimit="10"/>
<path d="M764.039 685.16L1078.6 673.599" stroke="white" stroke-width="0.5" stroke-miterlimit="10"/>
<path d="M789.219 717.699L1083.8 680.283" stroke="white" stroke-width="0.5" stroke-miterlimit="10"/>
<path d="M839.695 747.026L1094.18 686.341" stroke="white" stroke-width="0.5" stroke-miterlimit="10"/>
<path d="M911.992 771.146L1109.06 691.291" stroke="white" stroke-width="0.5" stroke-miterlimit="10"/>
<path d="M1001.2 788.394L1127.41 694.836" stroke="white" stroke-width="0.5" stroke-miterlimit="10"/>
<path d="M1101.23 797.629L1148.02 696.757" stroke="white" stroke-width="0.5" stroke-miterlimit="10"/>
<path d="M1205.28 798.22L1169.43 696.868" stroke="white" stroke-width="0.5" stroke-miterlimit="10"/>
<path d="M1306.27 790.131L1190.22 695.206" stroke="white" stroke-width="0.5" stroke-miterlimit="10"/>
<path d="M1397.3 773.842L1208.95 691.845" stroke="white" stroke-width="0.5" stroke-miterlimit="10"/>
<path d="M1472.18 750.573L1224.38 687.08" stroke="white" stroke-width="0.5" stroke-miterlimit="10"/>
<path d="M1525.76 721.799L1235.38 681.133" stroke="white" stroke-width="0.5" stroke-miterlimit="10"/>
<path d="M1554.45 689.591L1241.29 674.521" stroke="white" stroke-width="0.5" stroke-miterlimit="10"/>
<path d="M1556.25 656.054L1241.66 667.615" stroke="white" stroke-width="0.5" stroke-miterlimit="10"/>
<path d="M1531.07 623.514L1236.48 660.93" stroke="white" stroke-width="0.5" stroke-miterlimit="10"/>
<path d="M1480.59 594.187L1226.11 654.872" stroke="white" stroke-width="0.5" stroke-miterlimit="10"/>
<path d="M1408.3 570.067L1211.23 649.923" stroke="white" stroke-width="0.5" stroke-miterlimit="10"/>
<path d="M1319.09 552.818L1192.84 646.377" stroke="white" stroke-width="0.5" stroke-miterlimit="10"/>
<path d="M1219.06 543.584L1172.27 644.456" stroke="white" stroke-width="0.5" stroke-miterlimit="10"/>
<path d="M1115.01 542.993L1150.86 644.345" stroke="white" stroke-width="0.5" stroke-miterlimit="10"/>
<path d="M1014.02 551.082L1130.07 646.007" stroke="white" stroke-width="0.5" stroke-miterlimit="10"/>
</g>
<path d="M1160.12 788.025C1361.4 788.025 1524.57 735.455 1524.57 670.606C1524.57 605.758 1361.4 553.188 1160.12 553.188C958.847 553.188 795.68 605.758 795.68 670.606C795.68 735.455 958.847 788.025 1160.12 788.025Z" stroke="white" stroke-miterlimit="10"/>
</g>
</g>
<defs>
<linearGradient id="paint0_linear_2576_2209" x1="115.312" y1="243.407" x2="1461.87" y2="243.407" gradientUnits="userSpaceOnUse">
<stop stop-color="white"/>
<stop offset="1" stop-color="#F1F1F1" stop-opacity="0"/>
</linearGradient>
<linearGradient id="paint1_linear_2576_2209" x1="806.203" y1="197.31" x2="1698.74" y2="197.31" gradientUnits="userSpaceOnUse">
<stop stop-color="#F1F1F1" stop-opacity="0"/>
<stop offset="1" stop-color="white"/>
</linearGradient>
<linearGradient id="paint2_linear_2576_2209" x1="663.898" y1="163.256" x2="1676.55" y2="163.256" gradientUnits="userSpaceOnUse">
<stop stop-color="#F1F1F1" stop-opacity="0"/>
<stop offset="1" stop-color="white"/>
</linearGradient>
<linearGradient id="paint3_linear_2576_2209" x1="321.39" y1="424.503" x2="3.69199" y2="424.503" gradientUnits="userSpaceOnUse">
<stop stop-color="#F1F1F1" stop-opacity="0"/>
<stop offset="1" stop-color="white"/>
</linearGradient>
<linearGradient id="paint4_linear_2576_2209" x1="554.422" y1="412.536" x2="1723.01" y2="412.536" gradientUnits="userSpaceOnUse">
<stop stop-color="#F1F1F1" stop-opacity="0"/>
<stop offset="1" stop-color="white"/>
</linearGradient>
<linearGradient id="paint5_linear_2576_2209" x1="506.047" y1="62.8275" x2="1495.18" y2="62.8275" gradientUnits="userSpaceOnUse">
<stop stop-color="#F1F1F1" stop-opacity="0"/>
<stop offset="1" stop-color="white"/>
</linearGradient>
<linearGradient id="paint6_linear_2576_2209" x1="468.789" y1="123.956" x2="1770.45" y2="123.956" gradientUnits="userSpaceOnUse">
<stop stop-color="#F1F1F1" stop-opacity="0"/>
<stop offset="1" stop-color="white"/>
</linearGradient>
<radialGradient id="paint7_radial_2576_2209" cx="0" cy="0" r="1" gradientUnits="userSpaceOnUse" gradientTransform="translate(1160.13 671.079) scale(176.13 52.8552)">
<stop stop-color="white"/>
<stop offset="1"/>
</radialGradient>
<radialGradient id="paint8_radial_2576_2209" cx="0" cy="0" r="1" gradientUnits="userSpaceOnUse" gradientTransform="translate(1.84252 666.326) scale(96.4098 28.9318)">
<stop stop-color="white"/>
<stop offset="1"/>
</radialGradient>
<radialGradient id="paint9_radial_2576_2209" cx="0" cy="0" r="1" gradientUnits="userSpaceOnUse" gradientTransform="translate(1160.13 669.233) scale(142.787 42.8493)">
<stop stop-color="white"/>
<stop offset="1"/>
</radialGradient>
<radialGradient id="paint10_radial_2576_2209" cx="0" cy="0" r="1" gradientUnits="userSpaceOnUse" gradientTransform="translate(1.84721 694.97) scale(422.859 126.897)">
<stop stop-color="white"/>
<stop offset="1"/>
</radialGradient>
<clipPath id="clip0_2576_2209">
<rect width="1640" height="865" fill="white"/>
</clipPath>
</defs>
</svg>
