<svg width="480" height="480" viewBox="0 0 480 480" fill="none" xmlns="http://www.w3.org/2000/svg">
<path d="M240 480C372.548 480 480 372.548 480 240C480 107.452 372.548 0 240 0C107.452 0 0 107.452 0 240C0 372.548 107.452 480 240 480Z" fill="url(#paint0_linear_3056_1228)"/>
<path d="M380.098 130.2V162.6H99.8984V130.2C99.8984 123.9 105.198 118.7 111.498 118.6C111.498 118.6 368.498 118.6 368.498 118.7C374.898 118.6 380.098 123.9 380.098 130.2ZM217.498 140.6C217.498 133.6 211.798 128 204.898 128C197.998 128 192.298 133.7 192.298 140.6C192.298 147.5 197.998 153.2 204.898 153.2C211.798 153.2 217.498 147.6 217.498 140.6ZM182.798 140.6C182.798 133.6 177.098 128 170.198 128C163.298 128 157.598 133.7 157.598 140.6C157.598 147.5 163.298 153.2 170.198 153.2C177.098 153.2 182.798 147.6 182.798 140.6ZM148.198 140.6C148.198 133.6 142.498 128 135.598 128C128.698 128 122.998 133.7 122.998 140.6C122.998 147.5 128.698 153.2 135.598 153.2C142.498 153.2 148.198 147.6 148.198 140.6ZM239.598 311H352.698V333.3H239.598V311ZM127.198 195.5H232.398V246.6H127.198V195.5Z" fill="#FFFFFE"/>
<path d="M204.9 146.599C208.158 146.599 210.8 143.957 210.8 140.699C210.8 137.44 208.158 134.799 204.9 134.799C201.642 134.799 199 137.44 199 140.699C199 143.957 201.642 146.599 204.9 146.599Z" fill="#FFFFFE"/>
<path d="M170.198 134.699C173.498 134.699 176.198 137.399 176.098 140.599C176.098 143.899 173.398 146.499 170.198 146.499C166.898 146.499 164.298 143.799 164.298 140.599C164.298 137.499 166.898 134.699 170.198 134.699ZM135.598 134.699C138.898 134.699 141.598 137.399 141.498 140.599C141.498 143.899 138.798 146.499 135.598 146.499C132.298 146.499 129.698 143.799 129.698 140.599C129.598 137.499 132.298 134.699 135.598 134.699ZM380.098 169.399V349.799C380.098 356.199 374.798 361.399 368.498 361.399C368.198 361.399 367.998 361.399 367.798 361.499H111.498C105.098 361.499 99.8984 356.199 99.8984 349.799V169.399H380.098ZM359.498 336.599V307.699C359.498 305.899 357.998 304.399 356.198 304.399H236.298C234.498 304.399 232.998 305.899 232.998 307.699V336.599C232.998 338.399 234.498 339.899 236.298 339.899H356.198C357.998 339.899 359.498 338.399 359.498 336.599ZM354.998 282.199C356.798 282.199 358.298 280.699 358.298 278.899C358.298 277.099 356.798 275.599 354.998 275.599H123.798C121.998 275.599 120.498 277.099 120.498 278.899C120.498 280.699 121.998 282.199 123.798 282.199H354.998ZM354.998 253.299C356.798 253.299 358.298 251.799 358.298 249.999C358.298 248.199 356.798 246.699 354.998 246.699H261.998C260.198 246.699 258.698 248.199 258.698 249.999C258.698 251.799 260.198 253.299 261.998 253.299H354.998ZM354.998 195.499C356.798 195.499 358.298 193.999 358.298 192.199C358.298 190.399 356.798 188.899 354.998 188.899H261.998C260.198 188.899 258.698 190.399 258.698 192.199C258.698 193.999 260.198 195.499 261.998 195.499H354.998ZM354.998 224.399C356.798 224.399 358.298 222.899 358.298 221.099C358.298 219.299 356.798 217.799 354.998 217.799H261.998C260.198 217.799 258.698 219.299 258.698 221.099C258.698 222.899 260.198 224.399 261.998 224.399H354.998ZM238.998 249.899V192.099C238.998 190.299 237.498 188.799 235.698 188.799H123.798C121.998 188.799 120.498 190.299 120.498 192.099V249.899C120.498 251.699 121.998 253.199 123.798 253.199H235.698C237.498 253.299 238.998 251.699 238.998 249.899ZM215.998 307.599C215.998 305.799 214.498 304.299 212.698 304.299H123.798C121.998 304.299 120.498 305.799 120.498 307.599C120.498 309.399 121.998 310.899 123.798 310.899H212.698C214.598 310.999 215.998 309.599 215.998 307.599ZM215.998 336.599C215.998 334.799 214.498 333.299 212.698 333.299H123.798C121.998 333.299 120.498 334.799 120.498 336.599C120.498 338.399 121.998 339.899 123.798 339.899H212.698C214.598 339.899 215.998 338.399 215.998 336.599Z" fill="#FFFFFE"/>
<defs>
<linearGradient id="paint0_linear_3056_1228" x1="240" y1="0" x2="240" y2="480" gradientUnits="userSpaceOnUse">
<stop stop-color="#01B7AA"/>
<stop offset="1" stop-color="#1E418E"/>
</linearGradient>
</defs>
</svg>
