<svg width="21" height="17" viewBox="0 0 21 17" fill="none" xmlns="http://www.w3.org/2000/svg">
<path d="M0 6.48529V14.329C0 15.2842 0.9513 16.0681 2.1028 16.0681H12.3704C13.5219 16.0681 14.4676 15.283 14.4676 14.329V6.48529C14.4676 5.53014 13.5212 4.74211 12.3704 4.74211H2.1028C0.9513 4.74211 0 5.53072 0 6.48529ZM8.8662 0C7.5852 0 6.5366 0.873912 6.5366 1.93584V3.58037H12.3704C14.294 3.58037 15.8676 4.89472 15.8676 6.48529V11.326H18.669C19.95 11.326 21 10.4521 21 9.3902V1.93584C21 0.873912 19.95 0 18.669 0H8.8662Z" fill="#C1C1C1"/>
</svg>
