<svg width="24" height="24" viewBox="0 0 24 24" fill="none" xmlns="http://www.w3.org/2000/svg">
<path d="M12 24C18.6274 24 24 18.6274 24 12C24 5.37258 18.6274 0 12 0C5.37258 0 0 5.37258 0 12C0 18.6274 5.37258 24 12 24Z" fill="#9F9F9F"/>
<path d="M15.4842 18.3281H8.51484C8.08718 18.3281 7.67704 18.1582 7.37463 17.8558C7.07223 17.5534 6.90234 17.1433 6.90234 16.7156V15.6281C6.90284 14.616 7.30526 13.6455 8.02113 12.93C8.73699 12.2144 9.7077 11.8125 10.7198 11.8125H13.2792C14.2916 11.8125 15.2625 12.2146 15.9784 12.9305C16.6943 13.6463 17.0966 14.6171 17.0967 15.6295V16.717C17.0963 17.1444 16.9263 17.5542 16.6239 17.8563C16.3216 18.1584 15.9116 18.3281 15.4842 18.3281Z" fill="white"/>
<path d="M12.0006 11.1028C13.5003 11.1028 14.7161 9.88705 14.7161 8.38734C14.7161 6.88763 13.5003 5.67188 12.0006 5.67188C10.5009 5.67188 9.28516 6.88763 9.28516 8.38734C9.28516 9.88705 10.5009 11.1028 12.0006 11.1028Z" fill="white"/>
</svg>
