<svg width="207" height="207" viewBox="0 0 278 271" fill="none" xmlns="http://www.w3.org/2000/svg">
<g clip-path="url(#clip0_1987_1767)">
<path d="M139 270.994C215.768 270.994 278 235.016 278 190.636C278 146.255 215.768 110.277 139 110.277C62.2324 110.277 0 146.255 0 190.636C0 235.016 62.2324 270.994 139 270.994Z" fill="#F5F5F5"/>
<path d="M40.8686 229.751L27.2748 221.892C25.9084 221.102 25.9084 219.829 27.2748 219.039L189.151 125.493C190.517 124.703 192.726 124.703 194.092 125.493L207.686 133.351C209.053 134.141 209.053 135.415 207.686 136.205L45.8101 229.751C44.4437 230.541 42.235 230.541 40.8686 229.751Z" fill="#E0E0E0"/>
<path d="M239.18 182.365C252.813 182.365 263.865 175.977 263.865 168.098C263.865 160.219 252.813 153.832 239.18 153.832C225.548 153.832 214.496 160.219 214.496 168.098C214.496 175.977 225.548 182.365 239.18 182.365Z" fill="#E0E0E0"/>
<path d="M109.338 260.353C122.05 260.353 132.355 254.399 132.355 247.053C132.355 239.708 122.05 233.754 109.338 233.754C96.6256 233.754 86.3203 239.708 86.3203 247.053C86.3203 254.399 96.6256 260.353 109.338 260.353Z" fill="#E0E0E0"/>
<path d="M42.6343 201.689C42.6343 201.689 41.6389 192.911 37.2745 186.102C32.9102 179.293 26.9202 175.037 21.3308 174.595C15.7413 174.152 11.2238 179.299 17.2079 182.836C23.192 186.373 33.8231 189.981 38.7117 203.21L42.6343 201.689Z" fill="#27DEBF"/>
<path opacity="0.1" d="M42.6343 201.689C42.6343 201.689 41.6389 192.911 37.2745 186.102C32.9102 179.293 26.9202 175.037 21.3308 174.595C15.7413 174.152 11.2238 179.299 17.2079 182.836C23.192 186.373 33.8231 189.981 38.7117 203.21L42.6343 201.689Z" fill="black"/>
<path d="M40.992 199.408C40.992 199.408 41.0332 199.396 41.0509 199.39C41.204 199.331 41.2747 199.154 41.2158 199.001C35.3142 184.457 24.0823 178.379 18.964 177.2C18.805 177.165 18.646 177.265 18.6048 177.424C18.5694 177.583 18.6695 177.748 18.8286 177.784C23.8408 178.939 34.8548 184.905 40.6622 199.225C40.7152 199.361 40.8565 199.431 40.992 199.408Z" fill="white"/>
<path d="M11.125 199.585C11.6316 200.728 12.8743 201.324 14.0346 201.79C15.189 202.255 16.4494 202.756 17.0796 203.841C18.3401 206.022 16.2669 209.094 17.6274 211.216C18.1987 212.106 19.253 212.578 20.2955 212.761C21.1613 212.92 22.0389 212.92 22.9165 212.996C23.3405 212.991 23.7528 212.955 24.1592 212.902C25.3607 212.725 26.6624 212.672 27.7638 213.285C29.4954 214.258 30.0314 216.451 31.0798 218.137C32.3402 220.159 34.5724 221.48 36.9166 221.804C37.6941 221.904 39.143 222.046 39.9381 221.604C40.0029 221.568 40.05 221.539 40.103 221.497C40.103 221.497 40.1148 221.492 40.1148 221.486C40.2208 221.362 40.3621 221.209 40.421 221.12C40.4387 221.108 40.4446 221.085 40.4505 221.067C40.7568 219.935 40.2561 218.756 40.2385 217.589C40.2385 217.512 40.2385 217.447 40.2385 217.377C40.2856 216.021 40.3268 214.665 40.3563 213.309C40.421 210.815 40.4505 208.316 40.4328 205.822C40.4152 204.201 40.6095 202.426 39.9263 200.899C39.1665 199.219 37.2818 199.184 36.5691 197.533C36.2805 196.879 36.1332 196.171 35.8564 195.505C35.0319 193.56 33.0352 192.157 30.9149 192.056C27.6224 191.891 24.6657 194.556 21.3733 194.314C20.5193 194.249 19.6888 193.99 18.8525 193.831C16.1844 193.33 13.0981 194.09 11.6021 196.348C10.9778 197.291 10.6715 198.535 11.1309 199.573L11.125 199.585Z" fill="#27DEBF"/>
<path d="M40.7214 215.873C40.7214 215.873 40.739 215.873 40.7449 215.873C40.8922 215.832 40.9864 215.679 40.9452 215.532C36.3923 198.441 18.4048 195.971 14.1936 196.272C14.0404 196.283 13.9226 196.419 13.9344 196.572C13.9462 196.726 14.0817 196.843 14.2348 196.832C18.3518 196.537 35.9506 198.948 40.4033 215.673C40.4386 215.814 40.58 215.903 40.7272 215.879L40.7214 215.873Z" fill="white"/>
<path d="M20.7295 207.207C20.7825 207.195 20.8355 207.172 20.8768 207.131C20.9239 207.083 25.5121 202.556 33.1217 203.676C33.2749 203.694 33.4162 203.593 33.4398 203.44C33.4633 203.287 33.3573 203.145 33.2042 203.122C25.3 201.96 20.5234 206.688 20.4763 206.736C20.3644 206.848 20.3703 207.024 20.4763 207.131C20.5469 207.195 20.6353 207.225 20.7236 207.207H20.7295Z" fill="white"/>
<path d="M65.4248 15.8936C65.2658 15.7992 65.0478 15.8051 64.824 15.9525L63.5872 16.7661L63.3162 17.5089C63.1513 17.9569 63.328 18.5405 63.6519 18.8825C63.8522 19.0947 64.0407 19.3246 64.2174 19.5722C64.4883 19.9554 64.983 20.091 65.3777 19.8316L68.2637 17.9333C68.4816 17.7977 68.6936 17.78 68.8527 17.8685L65.4307 15.8936H65.4248ZM60.9838 26.4992C60.5774 24.1587 59.0932 22.9856 57.1555 23.1506C57.3263 23.5397 57.4617 23.9937 57.556 24.5183C58.1921 28.2265 55.8479 33.491 52.314 36.2735C51.0124 37.2934 49.7343 37.8358 48.6152 37.9301C49.7755 40.4179 52.7027 40.6537 55.7478 38.2543C59.2758 35.4718 61.6199 30.2132 60.9838 26.4992ZM61.0486 10.6409C60.978 10.6055 60.9073 10.5701 60.8189 10.5524L58.6456 10.0631C58.1862 9.96291 57.6325 10.2164 57.4146 10.635L55.3649 14.5376C55.2707 14.7263 55.0999 14.8973 54.9114 15.0564C54.8054 15.1449 54.6876 15.2274 54.5639 15.2922L55.2 17.4204C55.3355 17.8744 55.7949 18.063 56.2249 17.8862C56.6784 17.7034 57.1319 17.556 57.5677 17.444C57.8269 17.3733 58.1037 17.2259 58.3452 17.0372C58.5396 16.884 58.7104 16.7012 58.8046 16.5126L60.8484 12.6099C61.0722 12.1913 61.6258 11.9378 62.0794 12.038L64.2586 12.5274C64.341 12.545 64.4117 12.5745 64.4765 12.6099L61.0545 10.635L61.0486 10.6409ZM54.9232 48.4178C54.8349 48.3412 54.7583 48.235 54.7171 48.0877L53.9808 45.647C53.8513 45.1931 53.3919 44.9985 52.956 45.1813C52.5084 45.364 52.0549 45.5114 51.6131 45.6234C51.4777 45.6588 51.3363 45.7178 51.1891 45.8003L51.2833 46.1127C51.3422 46.2955 51.4364 46.4193 51.5601 46.49L54.9114 48.4237L54.9232 48.4178ZM50.7532 12.6158C50.6766 12.5745 50.6001 12.5509 50.5117 12.5509C50.3822 12.5509 50.2408 12.5981 50.1112 12.7042L46.8483 15.2687C46.8011 15.304 46.7599 15.3453 46.7246 15.3866C46.6892 15.416 46.6657 15.4514 46.6362 15.4809C46.5243 15.6283 46.4242 15.8051 46.3535 15.9938C46.3417 16.035 46.3241 16.0822 46.3123 16.1176C46.2534 16.3003 46.218 16.4831 46.2239 16.6423L46.4183 19.7491C46.4477 20.2207 46.2121 20.8927 45.9118 21.2524C45.3758 21.8891 44.8752 22.567 44.3981 23.2568C44.2391 23.4926 43.9681 23.693 43.6795 23.8109C43.5853 23.8522 43.491 23.8817 43.3968 23.8993C43.3497 23.9111 43.3085 23.9229 43.2613 23.9229C43.1966 23.9347 43.1377 23.9406 43.0729 23.9347L40.982 23.8345H40.929C40.8701 23.8345 40.8171 23.8345 40.7582 23.8522C40.7052 23.8522 40.658 23.8699 40.605 23.8876C40.605 23.8876 40.5933 23.8876 40.5874 23.8876C40.5285 23.9052 40.4755 23.9288 40.4166 23.9583C40.3105 24.0114 40.2045 24.0703 40.1162 24.1469C39.9748 24.2648 39.8511 24.4181 39.7805 24.5773L37.8133 28.9929C37.6366 29.3878 37.7838 29.83 38.1431 30.054L40.4696 31.3981C40.5461 31.5927 40.5638 31.8049 40.5226 32.0053C40.3636 32.7128 40.2399 33.4202 40.1574 34.11C40.1044 34.5757 39.804 35.2242 39.4565 35.5425L39.4212 35.572L36.5646 38.1954C36.5116 38.2426 36.4704 38.2897 36.4291 38.3487C36.4291 38.3605 36.4174 38.3664 36.4115 38.3781C36.3644 38.4371 36.3231 38.496 36.2996 38.5668C36.117 38.8851 36.0286 39.2978 36.0816 39.622L36.6294 42.776C36.6647 42.9765 36.7531 43.1179 36.8827 43.2064L40.2988 45.1754C40.181 45.0929 40.0926 44.9514 40.0573 44.7568L39.5154 41.6029C39.4801 41.4201 39.4977 41.202 39.5508 40.9956C39.6332 40.6773 39.7922 40.3649 40.0043 40.1762L42.8549 37.5528L42.8903 37.5233C43.2378 37.205 43.5382 36.5565 43.5971 36.0908C43.6795 35.401 43.7973 34.6936 43.9622 33.9862C44.0624 33.5263 43.815 33.0016 43.3791 32.813L41.6829 32.0938C41.247 31.9051 41.0527 31.404 41.2411 30.9737L43.2083 26.5581C43.2849 26.3989 43.3968 26.2516 43.5441 26.1278C43.7914 25.9273 44.1154 25.7976 44.4099 25.8153L46.5066 25.9155C46.701 25.9273 46.913 25.8802 47.1133 25.7976C47.4019 25.6797 47.6728 25.4793 47.8319 25.2435C48.303 24.5537 48.8155 23.8817 49.3455 23.2391C49.6518 22.8795 49.8815 22.2133 49.8521 21.7358L49.6577 18.6349C49.6459 18.4698 49.6754 18.2811 49.7402 18.0984C49.8403 17.7624 50.0405 17.4381 50.282 17.2495L53.5391 14.685C53.7629 14.5082 53.9985 14.4846 54.1811 14.5966L50.7473 12.6158H50.7532ZM45.8647 45.5527C46.0237 45.1047 45.847 44.521 45.523 44.1791C45.3228 43.9669 45.1343 43.7369 44.9635 43.4893C44.6926 43.1003 44.1978 42.9706 43.8032 43.2241L42.1541 44.3088L40.9584 47.5512C40.8288 47.9049 40.9584 48.2586 41.247 48.4355L44.6867 50.4281C44.3922 50.2453 44.2626 49.8916 44.3981 49.5379L45.8705 45.5527H45.8647Z" fill="#E0E0E0"/>
<path d="M42.8473 37.5528L39.9966 40.1762C39.7846 40.3708 39.6255 40.6773 39.5431 40.9957L36.1211 39.0208C36.1623 38.8616 36.2153 38.7083 36.2919 38.5668C36.3213 38.4961 36.3626 38.4371 36.4038 38.3782C36.4038 38.3664 36.4156 38.3605 36.4215 38.3487C36.4627 38.2897 36.5098 38.2426 36.5569 38.1954L39.4135 35.572L42.8414 37.5528H42.8473Z" fill="#FAFAFA"/>
<path d="M47.1182 25.7975C46.918 25.8859 46.7059 25.9272 46.5116 25.9154L44.4148 25.8152C44.1203 25.7975 43.7905 25.9272 43.549 26.1276L40.1211 24.1468C40.2153 24.0702 40.3155 24.0112 40.4215 23.9582C40.4804 23.9287 40.5334 23.9051 40.5923 23.8874C40.5923 23.8874 40.6041 23.8874 40.6099 23.8874C40.663 23.8697 40.7101 23.858 40.7631 23.8521C40.822 23.8403 40.875 23.8344 40.9339 23.8344H40.9869L43.0778 23.9346C43.1426 23.9346 43.2015 23.9346 43.2663 23.9228C43.3134 23.9228 43.3546 23.911 43.4017 23.8992C43.4901 23.8756 43.5843 23.8403 43.6727 23.8108H43.6844L47.1123 25.7975H47.1182Z" fill="#FAFAFA"/>
<path d="M68.8453 17.8625C68.6863 17.7682 68.4742 17.7859 68.2563 17.9332L65.3703 19.8315C64.9757 20.0909 64.4868 19.9553 64.21 19.5662C64.0333 19.3127 63.8507 19.0887 63.6446 18.8765C63.3206 18.5346 63.144 17.945 63.3089 17.5029L63.5798 16.766L64.8167 15.9524C65.0405 15.8109 65.2584 15.7991 65.4174 15.8935L68.8394 17.8625H68.8453Z" fill="#FAFAFA"/>
<path d="M64.4654 12.6158C64.4007 12.5804 64.33 12.5509 64.2475 12.5332L62.0683 12.0439C61.6148 11.9437 61.0611 12.1972 60.8373 12.6158L58.7935 16.5185C58.6993 16.7071 58.5226 16.8899 58.3341 17.0431L54.9062 15.0564C55.1006 14.8973 55.2655 14.7263 55.3598 14.5376L57.4094 10.635C57.6274 10.2164 58.181 9.96291 58.6404 10.0631L60.8137 10.5524C60.9021 10.5701 60.9728 10.6055 61.0435 10.6409L64.4654 12.6099V12.6158Z" fill="#FAFAFA"/>
<path d="M54.1813 14.5967C53.9987 14.4905 53.7572 14.5082 53.5393 14.6851L50.2822 17.2495C50.0408 17.4382 49.8405 17.7624 49.7404 18.0984L46.3125 16.1235C46.3243 16.0823 46.3419 16.0351 46.3537 15.9997C46.4303 15.8111 46.5245 15.6342 46.6364 15.4868C46.6659 15.4515 46.6895 15.4161 46.7248 15.3925C46.766 15.3454 46.8072 15.3041 46.8485 15.2746L50.1114 12.7102C50.241 12.604 50.3824 12.5569 50.512 12.5569C50.6003 12.5569 50.6769 12.5805 50.7534 12.6217L54.1872 14.6025L54.1813 14.5967Z" fill="#FAFAFA"/>
<path d="M69.6596 21.4588L69.1177 18.3048C69.0353 17.8391 68.6525 17.674 68.2578 17.9334L65.3718 19.8317C64.9772 20.0911 64.4825 19.9555 64.2115 19.5723C64.0348 19.3247 63.8522 19.0948 63.652 18.8826C63.328 18.5406 63.1514 17.9511 63.3163 17.509L64.7887 13.5238C64.9536 13.0816 64.7122 12.6395 64.2527 12.5334L62.0794 12.044C61.62 11.9379 61.0664 12.1973 60.8484 12.6159L58.8047 16.5127C58.5867 16.9312 58.0272 17.3262 57.5678 17.4441C57.1319 17.5561 56.6843 17.7035 56.2308 17.8863C55.795 18.0631 55.3414 17.8686 55.2001 17.4146L54.4639 14.974C54.3284 14.5201 53.9161 14.3904 53.545 14.6851L50.288 17.2496C49.9169 17.5443 49.6401 18.1633 49.6695 18.635L49.8639 21.7359C49.8933 22.2075 49.6578 22.8737 49.3574 23.2392C48.8214 23.8759 48.3208 24.5479 47.8437 25.2436C47.5786 25.6327 46.9897 25.9392 46.5185 25.9156L44.4217 25.8095C43.9505 25.7859 43.4086 26.1161 43.2202 26.5464L41.253 30.9679C41.0586 31.3982 41.253 31.8993 41.6888 32.088L43.3792 32.8131C43.815 32.9959 44.0624 33.5205 43.9623 33.9804C43.8033 34.6937 43.6796 35.3952 43.5971 36.0909C43.5441 36.5625 43.2378 37.2051 42.8903 37.5234L40.0043 40.1822C39.6568 40.5005 39.4389 41.1372 39.5214 41.603L40.0632 44.7569C40.1457 45.2227 40.5285 45.3877 40.9231 45.1283L43.8091 43.2301C44.2038 42.9707 44.6985 43.1063 44.9694 43.4895C45.1461 43.7371 45.3287 43.967 45.529 44.1792C45.8529 44.5211 46.0296 45.1107 45.8647 45.5528L44.3922 49.538C44.2273 49.9802 44.4688 50.4223 44.9282 50.5284L47.1016 51.0177C47.561 51.1179 48.1146 50.8644 48.3325 50.4459L50.3763 46.5491C50.5942 46.1305 51.1538 45.7355 51.6132 45.6176C52.049 45.5056 52.4966 45.3583 52.9502 45.1755C53.386 44.9986 53.8395 45.1932 53.9809 45.6471L54.7171 48.0878C54.8526 48.5417 55.2649 48.6714 55.6359 48.3766L58.893 45.8122C59.2641 45.5174 59.5409 44.8984 59.5114 44.4268L59.3171 41.3259C59.2876 40.8543 59.5232 40.1881 59.8236 39.8226C60.3596 39.1859 60.8661 38.5138 61.3373 37.8182C61.6023 37.4291 62.1913 37.1226 62.6625 37.1461L64.7593 37.2522C65.2305 37.2758 65.7723 36.9457 65.9608 36.5153L67.928 32.0939C68.1224 31.6635 67.928 31.1624 67.4922 30.9738L65.8018 30.2487C65.3659 30.0659 65.1186 29.5412 65.2187 29.0814C65.3777 28.3681 65.5014 27.6665 65.5839 26.9709C65.6369 26.4993 65.9431 25.8567 66.2906 25.5383L69.1766 22.8796C69.5241 22.5612 69.7421 21.9245 69.6596 21.4588ZM55.7419 38.2544C52.208 41.0311 48.8273 40.2765 48.1912 36.5625C47.5551 32.8485 49.8992 27.584 53.4272 24.8073C56.9611 22.0306 60.3419 22.7852 60.978 26.4993C61.6141 30.2133 59.27 35.4778 55.7419 38.2544Z" fill="#F0F0F0"/>
<path d="M99.0657 35.696C98.8714 35.584 98.6122 35.5899 98.3413 35.7667L96.8453 36.7512L96.5154 37.6473C96.3152 38.1838 96.5272 38.8971 96.9218 39.3098C97.1633 39.5633 97.393 39.8404 97.6051 40.1469C97.9349 40.6067 98.5298 40.7718 99.001 40.4594L102.488 38.1602C102.747 37.9951 103.006 37.9716 103.195 38.0836L99.0599 35.696H99.0657ZM93.7001 48.5123C93.2113 45.6826 91.4149 44.2736 89.0766 44.4623C89.2827 44.9339 89.4477 45.4821 89.5596 46.1188C90.3311 50.5992 87.4922 56.9602 83.228 60.3206C81.6554 61.5527 80.1123 62.2129 78.7576 62.3191C80.1535 65.3256 83.6992 65.6086 87.3744 62.714C91.6387 59.3537 94.4717 52.9986 93.7001 48.5123ZM93.7767 29.3527C93.6942 29.3114 93.6059 29.2701 93.4999 29.2466L90.873 28.6511C90.3135 28.5273 89.6479 28.8398 89.3829 29.3409L86.9091 34.0571C86.7913 34.287 86.5911 34.4933 86.3555 34.682H86.3496C86.22 34.794 86.0787 34.8883 85.9314 34.965L86.703 37.5353C86.8679 38.0777 87.4216 38.3135 87.9458 38.1013C88.4994 37.8831 89.0413 37.7004 89.5655 37.5707C89.8776 37.4881 90.2133 37.3113 90.5019 37.0814C90.7375 36.8927 90.9437 36.6746 91.0615 36.4447L93.5293 31.7285C93.8002 31.2274 94.4658 30.9149 95.0194 31.0387L97.6522 31.6341C97.7464 31.6518 97.8407 31.6872 97.9113 31.7285L93.7767 29.3409V29.3527ZM86.3791 74.988C86.2671 74.8996 86.1788 74.7699 86.1317 74.5871L85.2423 71.6336C85.0833 71.0912 84.5355 70.8495 83.9996 71.0676C83.4577 71.2858 82.9099 71.4685 82.3799 71.5982C82.2149 71.6395 82.0441 71.7161 81.8674 71.8105L81.9852 72.1877C82.0559 72.4059 82.1737 72.5592 82.321 72.6417L86.3732 74.9821L86.3791 74.988ZM81.3433 31.7403C81.2549 31.6931 81.1548 31.6636 81.0546 31.6636C80.8956 31.6636 80.7307 31.7167 80.5717 31.8523L76.6314 34.9473C76.5784 34.9886 76.5254 35.0357 76.4783 35.0947C76.437 35.13 76.4076 35.1713 76.3722 35.2126C76.2368 35.3894 76.119 35.6076 76.0306 35.8316C76.0188 35.8787 75.9953 35.9377 75.9835 35.9849H75.9894C75.9187 36.203 75.8716 36.427 75.8834 36.6215L76.119 40.3709C76.1543 40.9428 75.8716 41.7504 75.5064 42.1867C74.8585 42.959 74.2519 43.7725 73.6806 44.6096C73.4862 44.8926 73.1623 45.1343 72.8148 45.2758C72.697 45.323 72.5851 45.3583 72.4673 45.3819C72.4143 45.3937 72.3554 45.4114 72.3024 45.4114C72.2258 45.4232 72.1492 45.435 72.0727 45.4232L69.5459 45.2994H69.4811C69.4105 45.2994 69.3457 45.3053 69.275 45.323C69.2102 45.3289 69.1513 45.3466 69.0865 45.3642C69.0806 45.3642 69.0747 45.3642 69.063 45.3701C68.9923 45.3937 68.9275 45.4173 68.8568 45.4527C68.7272 45.5175 68.6035 45.5883 68.4916 45.6826C68.3208 45.83 68.1736 46.0068 68.0852 46.2014L65.7057 51.5366C65.4937 52.0141 65.6704 52.5506 66.1063 52.8218L68.9157 54.443C69.0041 54.6788 69.0335 54.9323 68.9805 55.174C68.7861 56.0288 68.633 56.8836 68.5388 57.7207C68.474 58.2867 68.1088 59.0649 67.6906 59.454L67.6494 59.4893L64.198 62.661C64.1332 62.714 64.0802 62.7789 64.033 62.8496C64.0271 62.8614 64.0213 62.8732 64.0095 62.885C63.9565 62.9557 63.9035 63.0324 63.874 63.1149C63.6561 63.504 63.5442 63.9992 63.6149 64.3883L64.2745 68.1966C64.3157 68.4384 64.4277 68.6093 64.5749 68.7154L68.7037 71.0971C68.5564 71.0028 68.4563 70.8259 68.4151 70.596L67.7613 66.7877C67.7201 66.5696 67.7436 66.3043 67.8025 66.0567C67.8968 65.6676 68.0911 65.2962 68.3444 65.0663L71.7899 61.8946L71.8312 61.8592C72.2494 61.4701 72.6145 60.692 72.6852 60.126C72.7794 59.2889 72.9267 58.4341 73.1269 57.5793C73.2506 57.0192 72.9502 56.3943 72.426 56.1644L70.3823 55.2978C69.8581 55.0679 69.6166 54.4607 69.8522 53.9478L72.2317 48.6125C72.32 48.418 72.4614 48.2411 72.6381 48.0938C72.9326 47.852 73.3272 47.6929 73.6865 47.7165L76.2191 47.8403C76.4547 47.852 76.7079 47.799 76.9494 47.6929C77.3028 47.5455 77.6268 47.3038 77.8152 47.0267C78.3866 46.1896 78.9991 45.376 79.6411 44.6038C80.0121 44.1675 80.289 43.3598 80.2536 42.788L80.018 39.0445C80.0063 38.8441 80.0357 38.6141 80.1123 38.396C80.236 37.9892 80.4774 37.5943 80.766 37.3702L84.7004 34.2752C84.9714 34.063 85.26 34.0335 85.4779 34.1632L81.3315 31.7697L81.3433 31.7403ZM75.4358 71.5334C75.6301 70.9969 75.4122 70.2836 75.0235 69.8709C74.782 69.6174 74.5523 69.3403 74.3461 69.0338C74.0163 68.5622 73.4214 68.4089 72.9502 68.7154L70.9595 70.0242L69.5106 73.9386C69.3516 74.369 69.5106 74.7935 69.864 75.0057H69.8581L74.0104 77.411C73.6511 77.1928 73.498 76.7625 73.657 76.338L75.4358 71.5216V71.5334Z" fill="#E0E0E0"/>
<path d="M71.794 61.8591L68.3484 65.0308C68.0951 65.2666 67.9008 65.638 67.8065 66.0212L63.6719 63.6336C63.719 63.4391 63.7897 63.2563 63.878 63.0795C63.9134 62.9969 63.9605 62.9203 64.0135 62.8495C64.0194 62.8377 64.0253 62.826 64.037 62.8142C64.0842 62.7434 64.1431 62.6845 64.202 62.6255L67.6534 59.4539L71.794 61.8473V61.8591Z" fill="#FAFAFA"/>
<path d="M76.948 47.6575C76.7065 47.7636 76.4533 47.8166 76.2177 47.8048L73.685 47.681C73.3258 47.6634 72.9311 47.8166 72.6366 48.0583L68.4961 45.6649C68.608 45.5764 68.7317 45.4998 68.8613 45.4349C68.9319 45.3996 68.9967 45.3701 69.0674 45.3524C69.0733 45.3465 69.0792 45.3465 69.091 45.3465C69.1558 45.3229 69.2146 45.3111 69.2794 45.3053C69.3501 45.2935 69.4149 45.2817 69.4856 45.2817H69.5504L72.0771 45.4055C72.1537 45.4114 72.2302 45.4055 72.3068 45.3937C72.3598 45.3878 72.4187 45.3819 72.4717 45.3642C72.5836 45.3347 72.6897 45.2935 72.8016 45.2522H72.8133L76.9539 47.6516L76.948 47.6575Z" fill="#FAFAFA"/>
<path d="M103.201 38.0778C103.007 37.9658 102.753 37.9894 102.494 38.1603L99.0074 40.4595C98.5304 40.7719 97.9414 40.6128 97.6116 40.1411C97.3995 39.8405 97.1757 39.5634 96.9283 39.304C96.5337 38.8913 96.3217 38.178 96.5219 37.6415L96.8518 36.7514L98.3478 35.7668C98.6187 35.5959 98.8779 35.5782 99.0722 35.6961L103.207 38.0778H103.201Z" fill="#FAFAFA"/>
<path d="M97.9132 31.7343C97.8367 31.6931 97.7483 31.6577 97.6541 31.64L95.0213 31.0446C94.4677 30.9208 93.8021 31.2332 93.5312 31.7343L91.0634 36.4505C90.9456 36.6805 90.7394 36.8986 90.5038 37.0872L86.3633 34.6879C86.5989 34.4933 86.7991 34.287 86.9169 34.063L89.3907 29.3467C89.6498 28.8456 90.3212 28.5332 90.8808 28.657L93.5076 29.2524C93.6137 29.276 93.702 29.3173 93.7845 29.3644L97.9191 31.7461L97.9132 31.7343Z" fill="#FAFAFA"/>
<path d="M85.4906 34.1279C85.2726 33.9982 84.9782 34.0218 84.7131 34.2399L80.7787 37.3349C80.4901 37.5648 80.2486 37.9539 80.1249 38.3607L75.9844 35.9731C75.9962 35.9259 76.0197 35.867 76.0315 35.8198C76.1198 35.5899 76.2376 35.3777 76.3731 35.2008C76.4084 35.1595 76.4379 35.1183 76.4791 35.0829C76.5262 35.0298 76.5734 34.9768 76.6323 34.9355L80.5726 31.8405C80.7316 31.7108 80.8965 31.6519 81.0555 31.6519C81.1615 31.6519 81.2558 31.6813 81.3441 31.7285L85.4906 34.122V34.1279Z" fill="#FAFAFA"/>
<path d="M104.182 42.4165L103.528 38.6082C103.434 38.0422 102.969 37.8418 102.492 38.1601L99.0049 40.4534C98.5279 40.7658 97.933 40.6067 97.6032 40.135C97.3911 39.8344 97.1673 39.5573 96.9258 39.3038C96.5312 38.8911 96.3192 38.1778 96.5194 37.6413L98.2982 32.8308C98.4984 32.2943 98.2039 31.7579 97.6503 31.6341L95.0234 31.0445C94.4639 30.9207 93.7983 31.2273 93.5333 31.7343L91.0654 36.4446C90.8004 36.9516 90.129 37.4291 89.5753 37.5706C89.0452 37.7062 88.5093 37.883 87.9556 38.1071C87.4255 38.3193 86.8778 38.0835 86.7129 37.5411L85.8235 34.5876C85.6586 34.0393 85.1638 33.8861 84.7103 34.2339L80.7759 37.3289C80.3283 37.6826 79.9926 38.4313 80.0279 39.0032L80.2635 42.7525C80.2988 43.3244 80.0161 44.1261 79.651 44.5683C79.0031 45.3406 78.3964 46.1482 77.8251 46.9913C77.5012 47.4629 76.7944 47.8343 76.2231 47.8048L73.6905 47.681C73.1191 47.6515 72.4713 48.0524 72.2357 48.5771L69.8562 53.9182C69.6265 54.437 69.8562 55.0442 70.3863 55.2682L72.43 56.1407C72.9542 56.3647 73.2605 56.9955 73.1309 57.5497C72.9366 58.4104 72.7893 59.2593 72.6951 60.0965C72.6303 60.6624 72.2651 61.4406 71.841 61.8238L68.3543 65.0308C67.9361 65.4199 67.671 66.1863 67.7712 66.7522L68.4249 70.5606C68.5192 71.1265 68.9845 71.327 69.4616 71.0086L72.9483 68.7153C73.4254 68.4029 74.0203 68.5621 74.3501 69.0337C74.5621 69.3344 74.786 69.6114 75.0274 69.8649C75.4221 70.2776 75.6341 70.9909 75.4338 71.5274L73.6551 76.3379C73.4549 76.8744 73.7494 77.4109 74.303 77.5347L76.9299 78.1242C77.4894 78.248 78.1549 77.9415 78.42 77.4345L80.8878 72.7241C81.1529 72.2171 81.8243 71.7396 82.3779 71.5981C82.908 71.4625 83.444 71.2857 83.9977 71.0617C84.5277 70.8494 85.0755 71.0853 85.2404 71.6276L86.1298 74.5812C86.2947 75.1294 86.7894 75.2827 87.243 74.9349L91.1774 71.8398C91.625 71.4861 91.9607 70.7374 91.9254 70.1656L91.6898 66.4162C91.6544 65.8443 91.9371 65.0426 92.3023 64.6004C92.9502 63.8282 93.5569 63.0205 94.1282 62.1775C94.4521 61.7059 95.1589 61.3345 95.7302 61.3639L98.2628 61.4877C98.8341 61.5172 99.482 61.1163 99.7176 60.5917L102.097 55.2505C102.327 54.7259 102.097 54.1245 101.567 53.9005L99.5232 53.028C98.9991 52.804 98.6928 52.1732 98.8224 51.619C99.0167 50.7583 99.164 49.9094 99.2582 49.0723C99.323 48.5063 99.6882 47.7282 100.112 47.345L103.599 44.132C104.017 43.743 104.282 42.9766 104.182 42.4106V42.4165ZM87.3725 62.7081C83.1083 66.0684 79.0208 65.1487 78.2492 60.6683C77.4776 56.1879 80.3106 49.8269 84.5749 46.4666C88.8391 43.1063 92.9266 44.02 93.6982 48.5063C94.4698 52.9926 91.6368 59.3478 87.3725 62.7081Z" fill="#F0F0F0"/>
<path d="M17.3685 114.162C17.5805 113.737 17.5216 113.089 17.2801 112.682C16.7324 111.786 16.2789 110.778 15.9196 109.652C15.7841 109.198 15.3365 108.992 14.9065 109.186L13.4282 109.852C13.5754 110.159 13.7345 110.46 13.9112 110.737C14.1585 111.144 14.2115 111.792 13.9995 112.217L9.93552 120.423C9.72349 120.847 9.8884 121.384 10.2948 121.619L13.6343 123.547C13.2515 123.294 13.0984 122.775 13.3045 122.368L17.3685 114.162ZM35.4385 57.019C35.3737 56.9836 35.303 56.966 35.2206 56.966C35.1145 56.966 34.9967 56.9954 34.8848 57.0603L28.0291 61.0219C27.9937 61.0455 27.9584 61.0691 27.929 61.0927C27.8936 61.1221 27.8583 61.1457 27.8288 61.1811C27.7935 61.2106 27.764 61.24 27.7346 61.2695C27.6698 61.3403 27.6168 61.4051 27.5579 61.4876C27.3694 61.7411 27.2457 62.0418 27.2222 62.3071L26.5331 69.9415C26.4918 70.4131 26.1679 71.0498 25.8204 71.3681C24.4834 72.6002 23.2112 73.9562 22.0097 75.4064C21.7152 75.7719 21.1144 75.9429 20.6609 75.7896L16.2612 74.2509C16.1493 74.2096 16.0315 74.192 15.9137 74.2038H15.8901C15.8901 74.2038 15.8548 74.2038 15.8371 74.2038C15.8136 74.2038 15.79 74.2038 15.7723 74.2038C15.7252 74.2038 15.684 74.2214 15.6428 74.2332C15.5073 74.2745 15.3777 74.3335 15.2599 74.4337C15.2305 74.4514 15.2069 74.469 15.1834 74.4985C15.1127 74.5575 15.0656 74.6223 15.0184 74.7049L9.97675 83.4416C9.87073 83.6362 9.84128 83.8661 9.87073 84.0783C9.89429 84.3318 10.0062 84.5735 10.2006 84.7386L13.7286 87.7865C14.0879 88.093 14.2351 88.7002 14.0702 89.1424C13.4164 90.9051 12.8863 92.6854 12.4858 94.4599C12.4269 94.7134 12.2856 95.0082 12.0971 95.2735C12.0618 95.3265 12.0205 95.3796 11.9793 95.4267C11.9381 95.4739 11.9027 95.5152 11.8674 95.5623C11.779 95.6508 11.6966 95.7274 11.6082 95.7923L5.34734 100.208C5.30611 100.237 5.26489 100.267 5.23544 100.296C5.19421 100.332 5.15887 100.373 5.12942 100.408C4.8526 100.709 4.65234 101.175 4.65234 101.552V109.475C4.65234 109.723 4.74658 109.9 4.89972 109.982L8.27459 111.934C8.12734 111.845 8.02722 111.662 8.02722 111.421V103.497C8.02722 103.22 8.13323 102.89 8.29815 102.619C8.41595 102.424 8.56319 102.259 8.72222 102.147L14.9831 97.7377C15.1539 97.6198 15.3247 97.4311 15.472 97.2248C15.6545 96.9595 15.8018 96.6589 15.8607 96.4054C16.2612 94.6368 16.7972 92.8564 17.4451 91.0878C17.61 90.6398 17.4627 90.0385 17.1034 89.7319L13.5754 86.6841C13.3811 86.519 13.2692 86.2714 13.2456 86.0238C13.2044 85.7998 13.2456 85.5757 13.3516 85.3871L18.3933 76.6503C18.5641 76.3555 18.894 76.1669 19.2297 76.1433C19.3651 76.1315 19.5006 76.1433 19.6302 76.1905L24.0299 77.7291C24.4775 77.8824 25.0783 77.7114 25.3845 77.3459C26.5802 75.8957 27.8524 74.5398 29.1894 73.3077C29.5369 72.9893 29.8608 72.3526 29.902 71.881L30.5912 64.2466C30.6029 64.0992 30.6501 63.946 30.7148 63.7927C30.8621 63.4508 31.1212 63.1324 31.404 62.9674L38.2597 59.0057C38.4541 58.8996 38.6367 58.8819 38.778 58.935L35.4444 57.0131L35.4385 57.019ZM30.8032 124.968C30.6795 124.88 30.597 124.726 30.5735 124.514L29.9079 117.852C29.8608 117.381 29.4544 117.104 28.9891 117.21C28.1999 117.381 27.4401 117.487 26.698 117.522L27.2045 122.575C27.2281 122.799 27.3282 122.964 27.4695 123.034L30.8032 124.962V124.968ZM41.5404 77.1927C42.524 78.5486 43.0423 80.6296 43.0423 83.3414C43.0423 90.7341 37.8592 99.7185 31.457 103.421C28.9656 104.865 26.8393 105.343 25.1725 104.954C27.2457 107.371 30.7973 107.701 34.8259 105.372C41.2223 101.676 46.4112 92.6854 46.4112 85.2869C46.4112 80.7829 44.4912 77.9178 41.5404 77.1986V77.1927ZM48.2076 55.893C47.7953 55.6513 47.2535 55.7869 46.9943 56.176L41.9232 63.8045C41.8996 63.8399 41.8761 63.8693 41.8466 63.8988C41.8113 63.9401 41.7701 63.9872 41.7288 64.0167C41.7112 64.0403 41.6876 64.058 41.6581 64.0757C41.6346 64.0992 41.611 64.1169 41.5875 64.1346C41.2989 64.3469 40.916 64.4706 40.5921 64.4648C40.2623 64.453 39.9324 64.4648 39.5908 64.4824L39.7498 66.0977C39.8028 66.5694 40.2034 66.8464 40.6687 66.7403C41.8172 66.4868 42.9186 66.3807 43.9729 66.4102C44.2909 66.4102 44.6737 66.2923 44.9682 66.0801C45.1037 65.9857 45.2215 65.8737 45.2981 65.7499L50.3692 58.1155C50.6284 57.7265 51.1584 57.6027 51.5648 57.8326L48.2135 55.893H48.2076ZM58.0201 70.0594C57.9848 70.0417 57.9435 70.024 57.9141 70.0181C57.7904 69.9886 57.649 70.0004 57.49 70.0712L52.8724 72.1522C52.9843 72.3703 53.0903 72.5884 53.1845 72.8125C53.2729 73.007 53.3554 73.2075 53.4319 73.4138C53.4555 73.4551 53.4732 73.4963 53.479 73.5317C53.5674 73.7439 53.6381 73.9562 53.7087 74.1743C53.7264 74.2155 53.7382 74.2568 53.75 74.2922C53.7912 74.416 53.8501 74.5221 53.9326 74.6046C53.962 74.6341 53.9915 74.6636 54.0209 74.6813C54.0386 74.699 54.0621 74.7107 54.0798 74.7225C54.1387 74.7638 54.1917 74.7933 54.2565 74.8051C54.2801 74.8169 54.3036 74.8228 54.3213 74.8228C54.4155 74.8463 54.5156 74.8463 54.6099 74.8228C54.6099 74.8228 54.6334 74.811 54.6393 74.811C54.6865 74.7992 54.7277 74.7874 54.7689 74.7638L60.8708 72.0107C61.0357 71.9282 61.1947 71.9164 61.3184 71.9694C61.3537 71.9694 61.3832 71.9871 61.4068 72.0048L58.0319 70.0535L58.0201 70.0594Z" fill="#E0E0E0"/>
<path d="M51.5672 57.8327C51.1549 57.6027 50.6248 57.7324 50.3715 58.1156L45.3004 65.75C45.2179 65.8738 45.106 65.9858 44.9705 66.0802L41.6016 64.1347C41.6546 64.0934 41.7017 64.0581 41.7429 64.0227C41.79 63.9873 41.8313 63.9402 41.8607 63.9048C41.8902 63.8694 41.9137 63.84 41.9373 63.8105L47.0084 56.182C47.2735 55.787 47.8153 55.6573 48.2217 55.899L51.573 57.8386L51.5672 57.8327Z" fill="#FAFAFA"/>
<path d="M15.4724 97.2309C15.3252 97.4372 15.1544 97.6259 14.9836 97.7438L8.72268 102.153C8.56365 102.265 8.4223 102.431 8.29861 102.625L4.94141 100.686C5.0003 100.591 5.0592 100.497 5.12988 100.414C5.16522 100.373 5.20056 100.332 5.2359 100.302C5.27124 100.267 5.31247 100.237 5.3478 100.214L11.6087 95.7983C11.697 95.7335 11.7795 95.6568 11.8678 95.5684C11.9091 95.5213 11.9444 95.48 11.9798 95.4328C12.021 95.3798 12.0563 95.3326 12.0917 95.2795L15.4606 97.2309H15.4724Z" fill="#FAFAFA"/>
<path d="M19.231 76.1435C18.8953 76.1671 18.5655 76.3557 18.3947 76.6505L13.353 85.3873C13.247 85.576 13.2057 85.8059 13.247 86.024L9.87797 84.0786C9.84852 83.8604 9.87797 83.6305 9.98399 83.4419L15.0257 74.7051C15.0728 74.6225 15.1199 74.5577 15.1906 74.4987C15.2142 74.4693 15.2377 74.4516 15.2672 74.4339C15.3791 74.3396 15.5145 74.2747 15.65 74.2334C15.6912 74.2217 15.7384 74.2099 15.7796 74.204C15.7972 74.204 15.8208 74.1922 15.8444 74.204C15.862 74.204 15.8797 74.1922 15.8974 74.204C15.8974 74.204 15.9092 74.204 15.915 74.204L19.2369 76.1553L19.231 76.1435Z" fill="#FAFAFA"/>
<path d="M38.7778 58.941C38.6365 58.882 38.4539 58.8997 38.2595 59.0117L31.4038 62.9734C31.1211 63.1384 30.8619 63.4568 30.7147 63.7987L27.3516 61.8532C27.4105 61.7294 27.4753 61.5998 27.5577 61.4877C27.6166 61.4052 27.6696 61.3404 27.7344 61.2696C27.7697 61.2342 27.7992 61.2048 27.8286 61.1812C27.864 61.1458 27.8993 61.1222 27.9288 61.0928C27.9641 61.0692 27.9994 61.0456 28.0289 61.022L34.8847 57.0604C34.9966 56.9896 35.1144 56.9661 35.2204 56.9661C35.3028 56.9661 35.3735 56.9838 35.4383 57.0191L38.7719 58.941H38.7778Z" fill="#FAFAFA"/>
<path d="M58.0208 70.0594L61.3957 72.0108C61.3957 72.0108 61.3427 71.9813 61.3073 71.9754C61.1836 71.9223 61.0246 71.9341 60.8597 72.0167L54.7578 74.7698C54.4516 74.9112 54.1276 74.8405 53.9274 74.6165C53.8449 74.5281 53.786 74.4278 53.7448 74.304C53.733 74.2628 53.7212 74.2215 53.7035 74.1861C53.6329 73.9621 53.5622 73.7499 53.4738 73.5435C53.4738 73.5023 53.4503 73.461 53.4267 73.4256C53.3502 73.2193 53.2736 73.0189 53.1793 72.8243C53.0851 72.5944 52.9791 72.3763 52.8672 72.1641L57.4848 70.083C57.6379 70.0123 57.7793 70.0005 57.9089 70.03C57.9442 70.0417 57.9854 70.0594 58.0149 70.0771L58.0208 70.0594Z" fill="#FAFAFA"/>
<path d="M61.6386 80.4471V72.5238C61.6386 72.0522 61.2911 71.8223 60.8611 72.0168L54.7592 74.7699C54.3293 74.9645 53.8875 74.7522 53.7403 74.2983C53.3869 73.1782 52.9275 72.1642 52.3797 71.2681C52.1324 70.8672 52.0794 70.2129 52.2855 69.7884L56.3554 61.5822C56.5674 61.1577 56.4025 60.6213 55.9961 60.3854L51.5846 57.8328C51.1782 57.597 50.6305 57.7267 50.3713 58.1158L45.3002 65.7442C45.041 66.1392 44.4461 66.4163 43.975 66.4045C42.9266 66.375 41.8252 66.4871 40.6767 66.7405C40.2172 66.8408 39.8109 66.5637 39.7637 66.098L39.0923 59.4304C39.0452 58.9588 38.6741 58.7701 38.2677 59.0059L31.412 62.9676C31.0056 63.2034 30.6345 63.7752 30.5933 64.2468L29.9042 71.8812C29.8629 72.3529 29.539 72.9895 29.1915 73.3079C27.8545 74.54 26.5823 75.89 25.3808 77.3403C25.0804 77.7058 24.4796 77.8767 24.032 77.7234L19.6323 76.1848C19.1847 76.0315 18.631 76.2319 18.3954 76.6446L13.3537 85.3814C13.1181 85.7882 13.2183 86.3718 13.5717 86.6843L17.1056 89.7321C17.4648 90.0387 17.6121 90.6459 17.4472 91.0939C16.7934 92.8566 16.2574 94.6429 15.8628 96.4115C15.7568 96.8713 15.3739 97.4667 14.9852 97.7438L8.72433 102.159C8.3356 102.431 8.02344 103.038 8.02344 103.509V111.433C8.02344 111.904 8.37094 112.134 8.80089 111.94L14.9028 109.187C15.3327 108.992 15.7745 109.204 15.9217 109.658C16.2751 110.778 16.7345 111.792 17.2823 112.688C17.5296 113.089 17.5826 113.744 17.3765 114.168L13.3066 122.374C13.0946 122.799 13.2595 123.335 13.6659 123.571L18.0774 126.124C18.4838 126.359 19.0315 126.23 19.2907 125.841L24.3618 118.212C24.621 117.817 25.2159 117.54 25.687 117.552C26.7354 117.581 27.8368 117.469 28.9853 117.216C29.4447 117.116 29.8511 117.393 29.8983 117.864L30.5697 124.532C30.6168 125.004 30.9879 125.192 31.3943 124.956L38.25 120.995C38.6564 120.759 39.0275 120.187 39.0687 119.716L39.7578 112.081C39.7991 111.61 40.123 110.973 40.4705 110.654C41.8075 109.422 43.0797 108.072 44.2753 106.622C44.5757 106.257 45.1765 106.086 45.6241 106.239L50.0238 107.778C50.4714 107.931 51.0251 107.73 51.2607 107.318L56.3024 98.5809C56.538 98.1742 56.4378 97.5905 56.0844 97.2781L52.5506 94.2302C52.1913 93.9237 52.044 93.3165 52.2089 92.8684C52.8627 91.1057 53.3987 89.3195 53.7933 87.5509C53.8993 87.091 54.2822 86.4956 54.6709 86.2185L60.9318 81.803C61.3205 81.5318 61.6327 80.9246 61.6327 80.453L61.6386 80.4471ZM34.8281 105.366C28.4317 109.063 23.2428 106.068 23.2428 98.6753C23.2428 91.2826 28.4317 82.2923 34.8281 78.596C41.2244 74.8996 46.4075 77.8944 46.4075 85.2871C46.4075 92.6798 41.2244 101.67 34.8281 105.366Z" fill="#F0F0F0"/>
<path d="M45.6928 225.435C45.2393 225.435 44.7858 225.253 44.4559 224.934C44.1084 224.598 43.9141 224.144 43.9141 223.655V104.753L204.742 11.9143V130.592C204.742 132.42 203.458 134.648 201.873 135.562L46.5704 225.194C46.2936 225.353 45.9991 225.435 45.6928 225.435Z" fill="#FAFAFA"/>
<path d="M204.459 12.4096V130.592C204.459 132.296 203.21 134.46 201.737 135.314L49.3028 223.284L46.4286 224.946C46.1989 225.082 45.9515 225.147 45.6923 225.147C45.3095 225.147 44.9325 224.993 44.6498 224.722C44.3553 224.439 44.1963 224.062 44.1963 223.649V104.912L204.459 12.4096ZM205.03 11.4192L43.625 104.582V223.649C43.625 224.852 44.6145 225.718 45.6923 225.718C46.0339 225.718 46.3814 225.63 46.7113 225.441L49.5855 223.779L202.014 135.81C203.669 134.855 205.024 132.52 205.024 130.592V11.4251L205.03 11.4192Z" fill="#E0E0E0"/>
<path opacity="0.8" d="M201.202 9.2085L39.7852 102.366L43.6253 104.582L205.03 11.4251L201.202 9.2085Z" fill="#455A64"/>
<path d="M44.7091 225.471C44.7091 225.471 43.6253 224.94 43.6253 223.655V108.019C43.6253 107.07 43.6253 104.588 43.6253 104.588L39.7852 102.372V220.778C39.7852 220.926 39.7852 221.073 39.8087 221.22C39.9442 222.199 40.5214 223.066 41.3813 223.555L44.55 225.388L44.7032 225.477L44.7091 225.471Z" fill="#EBEBEB"/>
<path d="M39.7852 102.419V94.3834C39.7852 93.4225 40.4566 92.2552 41.2812 91.7718L199.706 0.365521C200.53 -0.117892 201.873 -0.123787 202.704 0.359625L203.528 0.837143C204.359 1.31466 205.03 2.48193 205.03 3.44286V11.4899L43.6253 104.635L39.7852 102.419Z" fill="#27DEBF"/>
<path opacity="0.3" d="M39.7852 102.419V94.3834C39.7852 93.4225 40.4566 92.2552 41.2812 91.7718L199.706 0.365521C200.53 -0.117892 201.873 -0.123787 202.704 0.359625L203.528 0.837143C204.359 1.31466 205.03 2.48193 205.03 3.44286V11.4899L43.6253 104.635L39.7852 102.419Z" fill="white"/>
<path d="M43.625 96.6059C43.625 95.6449 44.2964 94.4777 45.121 93.9943L203.528 2.57618C204.353 2.09277 205.024 2.47596 205.024 3.43689V11.4839L43.625 104.635V96.6059Z" fill="#27DEBF"/>
<path d="M44.0631 95.1202C43.7922 95.5918 43.6272 96.1283 43.6272 96.6058V104.635L39.793 102.419V94.3774C39.793 93.8999 39.9579 93.3693 40.2288 92.8977L44.0631 95.1143V95.1202Z" fill="#27DEBF"/>
<path opacity="0.15" d="M44.0631 95.1202C43.7922 95.5918 43.6272 96.1283 43.6272 96.6058V104.635L39.793 102.419V94.3774C39.793 93.8999 39.9579 93.3693 40.2288 92.8977L44.0631 95.1143V95.1202Z" fill="black"/>
<path d="M197.984 11.1184C197.984 12.0204 198.615 12.38 199.392 11.932C200.17 11.4839 200.8 10.3874 200.8 9.49132C200.8 8.59523 200.17 8.22973 199.392 8.67777C198.615 9.12581 197.984 10.2223 197.984 11.1184Z" fill="#FAFAFA"/>
<path d="M192.348 14.3784C192.348 15.2804 192.978 15.64 193.755 15.192C194.533 14.7439 195.163 13.6474 195.163 12.7513C195.163 11.8552 194.533 11.4897 193.755 11.9378C192.978 12.3858 192.348 13.4823 192.348 14.3784Z" fill="#FAFAFA"/>
<path d="M186.711 17.6326C186.711 18.5345 187.341 18.8942 188.119 18.4461C188.896 17.9981 189.526 16.9016 189.526 16.0055C189.526 15.1094 188.896 14.7439 188.119 15.1919C187.341 15.64 186.711 16.7365 186.711 17.6326Z" fill="#FAFAFA"/>
<path d="M101.02 79.7101V123.813C101.02 124.626 100.455 125.611 99.7482 126.017L56.4226 151.114C56.3519 151.155 56.2871 151.19 56.2046 151.214C55.6039 151.45 55.1562 151.108 55.1562 150.383V106.28C55.1562 105.879 55.3035 105.431 55.5273 105.03C55.7629 104.635 56.0751 104.282 56.4285 104.081L99.7599 78.9791C100.343 78.643 100.838 78.8199 100.985 79.3505C101.003 79.4094 101.009 79.4566 101.014 79.5096C101.014 79.5804 101.026 79.6452 101.026 79.716L101.02 79.7101Z" fill="#E0E0E0"/>
<path d="M197.84 23.811V86.3009C197.84 87.1144 197.274 88.0931 196.574 88.4998L116.024 135.049C115.954 135.09 115.883 135.126 115.806 135.149C115.794 135.149 115.789 135.149 115.777 135.161C115.188 135.367 114.746 135.031 114.746 134.318V71.8221C114.746 71.4212 114.893 70.9732 115.123 70.5723C115.353 70.1773 115.665 69.8236 116.018 69.6232L196.574 23.0682C197.157 22.7321 197.651 22.909 197.799 23.4455C197.816 23.5044 197.822 23.5516 197.828 23.6046C197.828 23.6754 197.84 23.7402 197.84 23.811Z" fill="#E0E0E0"/>
<path d="M59.7999 206.27C59.311 206.27 58.8516 206.152 58.4511 205.922C57.4852 205.362 56.9492 204.207 56.9492 202.674C56.9492 199.632 59.0931 195.918 61.7259 194.397C63.057 193.631 64.3233 193.513 65.2892 194.073C66.2551 194.633 66.7911 195.782 66.7911 197.321C66.7911 200.363 64.6472 204.077 62.0145 205.598C61.237 206.046 60.489 206.27 59.7999 206.27ZM63.9404 194.291C63.3574 194.291 62.6977 194.491 62.0145 194.886C59.5349 196.319 57.5205 199.809 57.5205 202.674C57.5205 204 57.9505 204.979 58.7338 205.427C59.5172 205.881 60.5774 205.763 61.7259 205.103C64.2055 203.67 66.2198 200.18 66.2198 197.315C66.2198 195.989 65.7899 195.01 65.0065 194.562C64.6943 194.379 64.3351 194.291 63.9404 194.291Z" fill="#27DEBF"/>
<path d="M60.402 199.885C60.3785 199.85 60.3667 199.803 60.3726 199.744C60.3726 199.685 60.3962 199.626 60.4256 199.573L61.5388 197.575C61.5682 197.527 61.5918 197.48 61.6212 197.433C61.6507 197.386 61.6801 197.356 61.7155 197.333L62.116 197.103C62.1513 197.079 62.1867 197.085 62.2161 197.109C62.2456 197.132 62.2573 197.18 62.2573 197.233V202.344C62.2573 202.403 62.2456 202.462 62.2161 202.521C62.1867 202.58 62.1572 202.621 62.116 202.639L61.6978 202.88C61.6625 202.904 61.6271 202.898 61.5977 202.874C61.5682 202.851 61.5565 202.804 61.5565 202.751V198.842L60.8261 200.139C60.7967 200.192 60.7613 200.227 60.726 200.239C60.6906 200.251 60.6612 200.239 60.6317 200.21L60.3903 199.88L60.402 199.885Z" fill="#27DEBF"/>
<path d="M73.7042 198.235C73.2154 198.235 72.7559 198.117 72.3554 197.887C71.3895 197.327 70.8535 196.171 70.8594 194.639C70.8594 191.597 73.0033 187.883 75.6361 186.362C76.9672 185.595 78.2335 185.477 79.1994 186.037C80.1654 186.597 80.7013 187.753 80.7013 189.286C80.7013 192.328 78.5574 196.042 75.9247 197.563C75.1472 198.011 74.3992 198.235 73.7101 198.235H73.7042ZM77.8448 186.255C77.2617 186.255 76.602 186.456 75.9188 186.851C73.4392 188.283 71.4248 191.773 71.4248 194.639C71.4248 195.965 71.8548 196.944 72.6382 197.392C73.4215 197.846 74.4876 197.728 75.6302 197.067C78.1098 195.635 80.1241 192.145 80.1241 189.28C80.1241 187.953 79.6942 186.975 78.9108 186.527C78.5987 186.344 78.2394 186.255 77.8448 186.255Z" fill="#E0E0E0"/>
<path d="M76.0672 191.479C76.1674 191.29 76.238 191.125 76.2616 190.978C76.2911 190.83 76.3028 190.701 76.3028 190.588C76.3028 190.37 76.2616 190.211 76.1733 190.111C76.0849 190.011 75.9436 190.017 75.7492 190.129C75.5607 190.235 75.4253 190.388 75.3369 190.583C75.2486 190.777 75.1897 190.995 75.1484 191.237C75.1366 191.314 75.119 191.373 75.0895 191.426C75.0601 191.479 75.0306 191.514 74.9953 191.532L74.5889 191.768C74.5536 191.791 74.5182 191.791 74.4888 191.768C74.4593 191.744 74.4475 191.703 74.4475 191.638C74.4593 191.396 74.4947 191.149 74.5653 190.895C74.636 190.647 74.7244 190.406 74.8422 190.182C74.96 189.958 75.0895 189.757 75.2427 189.575C75.3958 189.392 75.5607 189.25 75.7433 189.15C75.9612 189.026 76.1438 188.973 76.3028 188.991C76.4619 189.009 76.5914 189.073 76.6916 189.185C76.7976 189.297 76.8683 189.445 76.9213 189.622C76.9684 189.804 76.9978 189.993 76.9978 190.199C76.9978 190.329 76.9978 190.459 76.9802 190.583C76.9684 190.706 76.9448 190.842 76.9095 190.978C76.8683 191.119 76.8153 191.272 76.7446 191.443C76.6739 191.614 76.5797 191.809 76.456 192.027L75.5077 193.913L76.933 193.088C76.9684 193.065 77.0037 193.07 77.0332 193.094C77.0626 193.123 77.0744 193.165 77.0744 193.218V193.778C77.0744 193.837 77.0626 193.896 77.0332 193.955C77.0037 194.014 76.9743 194.055 76.933 194.073L74.5359 195.458C74.5006 195.482 74.4652 195.476 74.4358 195.452C74.4063 195.429 74.3945 195.381 74.3945 195.328V194.845C74.3945 194.756 74.4122 194.668 74.4475 194.585C74.4829 194.497 74.5123 194.438 74.5359 194.397L76.0614 191.485L76.0672 191.479Z" fill="#E0E0E0"/>
<path d="M87.6046 190.205C87.1157 190.205 86.6622 190.087 86.2558 189.858C85.2899 189.297 84.7539 188.142 84.7539 186.609C84.7539 183.567 86.8978 179.853 89.5306 178.332C90.8617 177.566 92.128 177.448 93.0939 178.008C94.0598 178.568 94.5958 179.724 94.5958 181.256C94.5958 184.298 92.4519 188.012 89.8192 189.533C89.0417 189.981 88.2937 190.205 87.6046 190.205ZM91.7451 178.226C91.162 178.226 90.5024 178.427 89.8192 178.822C87.3395 180.254 85.3252 183.744 85.3252 186.609C85.3252 187.936 85.7552 188.914 86.5385 189.362C87.3219 189.816 88.382 189.698 89.5306 189.038C92.0102 187.606 94.0245 184.116 94.0245 181.25C94.0245 179.924 93.5945 178.945 92.8112 178.497C92.499 178.315 92.1398 178.226 91.7451 178.226Z" fill="#E0E0E0"/>
<path d="M90.8081 180.525C90.8434 180.502 90.8788 180.508 90.9023 180.531C90.9318 180.561 90.9436 180.602 90.9436 180.661V181.221C90.9436 181.28 90.9318 181.339 90.9082 181.404C90.8788 181.469 90.8552 181.527 90.8317 181.575L90.0837 183.225C90.2368 183.166 90.3781 183.143 90.5018 183.155C90.6255 183.166 90.7315 183.214 90.8199 183.296C90.9082 183.379 90.9789 183.502 91.026 183.656C91.0731 183.815 91.0967 184.003 91.0967 184.233C91.0967 184.505 91.0614 184.77 90.9907 185.023C90.92 185.277 90.8258 185.513 90.6962 185.737C90.5725 185.955 90.4253 186.155 90.2545 186.332C90.0837 186.509 89.9011 186.656 89.7008 186.768C89.4593 186.91 89.2532 186.986 89.0765 186.998C88.8998 187.016 88.7526 186.986 88.6348 186.916C88.517 186.845 88.4286 186.745 88.3638 186.603C88.299 186.462 88.2637 186.314 88.2578 186.149C88.2578 186.09 88.2696 186.031 88.2932 185.972C88.3167 185.914 88.3579 185.878 88.3933 185.855L88.7997 185.619C88.835 185.601 88.8645 185.601 88.8821 185.619C88.9057 185.642 88.9292 185.678 88.9528 185.725C88.9705 185.778 88.9999 185.819 89.0353 185.855C89.0706 185.89 89.1177 185.914 89.1707 185.925C89.2296 185.937 89.3003 185.931 89.3828 185.908C89.4652 185.884 89.5712 185.837 89.6949 185.766C89.9011 185.648 90.0719 185.483 90.2014 185.283C90.331 185.076 90.3958 184.858 90.3958 184.622C90.3958 184.387 90.331 184.251 90.2014 184.222C90.0719 184.192 89.9011 184.239 89.6949 184.357L89.2709 184.605C89.2355 184.628 89.2002 184.622 89.1766 184.599C89.1472 184.575 89.1354 184.528 89.1354 184.475V183.915C89.1354 183.856 89.1472 183.797 89.1707 183.732C89.1943 183.667 89.2237 183.608 89.2473 183.561L89.9659 181.981L88.5464 182.801C88.5111 182.824 88.4757 182.819 88.4522 182.795C88.4227 182.765 88.4109 182.724 88.4109 182.665V182.105C88.4109 182.046 88.4227 181.987 88.4522 181.928C88.4816 181.869 88.5111 181.834 88.5464 181.81L90.7963 180.513L90.8081 180.525Z" fill="#E0E0E0"/>
<path d="M235.373 59.0176L221.473 59.4185C220.96 58.9764 218.239 56.2586 218.239 56.2586C218.239 56.2586 210.241 55.2329 210.188 55.5217C210.141 55.8106 217.261 64.4649 218.045 65.3256C218.481 65.7972 219.712 66.6049 220.754 66.6697C222.827 66.7935 234.189 66.9055 234.189 66.9055L235.373 59.0235V59.0176Z" fill="#B16668"/>
<path d="M236.062 59.0176C234.949 58.711 221.726 59.2298 221.726 59.2298L218.334 56.0228C218.334 56.0228 216.408 55.6691 213.51 55.4038C210.612 55.1385 209.664 55.4038 209.664 55.4038C209.664 55.4038 216.102 63.4508 217.097 64.7773C218.092 66.1037 218.717 66.9055 220.931 66.9939C223.735 67.1059 234.731 67.1708 234.731 67.1708L236.062 59.0176Z" fill="#455A64"/>
<path d="M138.105 156.225L137.663 155.971C136.962 155.564 136.391 154.58 136.391 153.766V91.2824C136.391 90.4688 136.962 89.4843 137.663 89.0775L218.212 42.5343C218.913 42.1276 220.05 42.1276 220.751 42.5343L221.187 42.7878C221.887 43.1946 222.459 44.1791 222.459 44.9927V107.483C222.459 108.296 221.887 109.281 221.187 109.687L140.637 156.231C139.936 156.637 138.8 156.637 138.099 156.231L138.105 156.225Z" fill="#27DEBF"/>
<path opacity="0.4" d="M222.453 44.7863C222.365 44.1261 221.834 43.8843 221.192 44.2557L140.637 90.8049C140.284 91.0053 139.972 91.359 139.736 91.7481L136.762 90.0326C136.986 89.6317 137.309 89.2839 137.663 89.0775L218.206 42.5343C218.913 42.1276 220.05 42.1276 220.751 42.5343L221.192 42.7878C221.829 43.1592 222.37 44.0199 222.453 44.7863Z" fill="white"/>
<path opacity="0.1" d="M140.433 156.325C139.732 156.626 138.743 156.59 138.112 156.225L137.665 155.971C136.964 155.564 136.398 154.58 136.398 153.766V91.2823C136.398 90.8755 136.54 90.4216 136.769 90.0325L139.744 91.748C139.52 92.1489 139.373 92.6028 139.373 92.9978V155.488C139.373 156.213 139.832 156.555 140.433 156.319V156.325Z" fill="black"/>
<path d="M147.594 142.424L214.779 103.598" stroke="#37474F" stroke-width="0.97" stroke-linecap="round" stroke-linejoin="round"/>
<path d="M144.488 137.519L147.221 135.939C147.427 135.821 147.592 135.915 147.592 136.151V136.635C147.592 136.87 147.427 137.159 147.221 137.277L144.488 138.857C144.282 138.975 144.117 138.881 144.117 138.645V138.161C144.117 137.926 144.282 137.637 144.488 137.519Z" fill="#455A64"/>
<path d="M144.488 130.828L147.221 129.248C147.427 129.13 147.592 129.224 147.592 129.46V129.943C147.592 130.179 147.427 130.468 147.221 130.586L144.488 132.166C144.282 132.284 144.117 132.19 144.117 131.954V131.47C144.117 131.234 144.282 130.946 144.488 130.828Z" fill="#455A64"/>
<path d="M144.488 124.137L147.221 122.557C147.427 122.439 147.592 122.533 147.592 122.769V123.253C147.592 123.488 147.427 123.777 147.221 123.895L144.488 125.475C144.282 125.593 144.117 125.499 144.117 125.263V124.779C144.117 124.544 144.282 124.255 144.488 124.137Z" fill="#455A64"/>
<path d="M144.488 117.446L147.221 115.866C147.427 115.748 147.592 115.842 147.592 116.078V116.561C147.592 116.797 147.427 117.086 147.221 117.204L144.488 118.784C144.282 118.902 144.117 118.807 144.117 118.572V118.088C144.117 117.852 144.282 117.564 144.488 117.446Z" fill="#455A64"/>
<path d="M144.488 110.749L147.221 109.169C147.427 109.051 147.592 109.145 147.592 109.381V109.864C147.592 110.1 147.427 110.389 147.221 110.507L144.488 112.087C144.282 112.205 144.117 112.11 144.117 111.875V111.391C144.117 111.155 144.282 110.867 144.488 110.749Z" fill="#455A64"/>
<path d="M144.488 104.052L147.221 102.472C147.427 102.354 147.592 102.448 147.592 102.684V103.167C147.592 103.403 147.427 103.692 147.221 103.81L144.488 105.39C144.282 105.508 144.117 105.413 144.117 105.178V104.694C144.117 104.458 144.282 104.169 144.488 104.052Z" fill="#455A64"/>
<path d="M144.488 97.3604L147.221 95.7805C147.427 95.6626 147.592 95.7569 147.592 95.9927V96.4761C147.592 96.7119 147.427 97.0008 147.221 97.1187L144.488 98.6987C144.282 98.8166 144.117 98.7222 144.117 98.4864V98.003C144.117 97.7672 144.282 97.4783 144.488 97.3604Z" fill="#455A64"/>
<path d="M166.604 82.3628L195.759 65.5435C196.024 65.3903 196.242 65.5141 196.242 65.8206V66.4455C196.242 66.7521 196.024 67.1294 195.759 67.2826L166.604 84.1019C166.339 84.2551 166.121 84.1313 166.121 83.8248V83.1999C166.121 82.8933 166.339 82.516 166.604 82.3628Z" fill="#455A64"/>
<path d="M152.594 142.212L155.327 140.632C155.533 140.514 155.698 140.608 155.698 140.844V141.327C155.698 141.563 155.533 141.852 155.327 141.97L152.594 143.55C152.388 143.668 152.223 143.574 152.223 143.338V142.854C152.223 142.619 152.388 142.33 152.594 142.212Z" fill="#455A64"/>
<path d="M160.711 137.525L163.444 135.945C163.65 135.827 163.815 135.921 163.815 136.157V136.641C163.815 136.876 163.65 137.165 163.444 137.283L160.711 138.863C160.505 138.981 160.34 138.887 160.34 138.651V138.168C160.34 137.932 160.505 137.643 160.711 137.525Z" fill="#455A64"/>
<path d="M168.82 132.832L171.553 131.252C171.759 131.135 171.924 131.229 171.924 131.465V131.948C171.924 132.184 171.759 132.473 171.553 132.591L168.82 134.171C168.614 134.288 168.449 134.194 168.449 133.958V133.475C168.449 133.239 168.614 132.95 168.82 132.832Z" fill="#455A64"/>
<path d="M176.93 128.146L179.663 126.566C179.869 126.448 180.034 126.542 180.034 126.778V127.261C180.034 127.497 179.869 127.786 179.663 127.904L176.93 129.484C176.724 129.602 176.559 129.507 176.559 129.272V128.788C176.559 128.552 176.724 128.263 176.93 128.146Z" fill="#455A64"/>
<path d="M185.039 123.459L187.772 121.879C187.978 121.761 188.143 121.855 188.143 122.091V122.575C188.143 122.81 187.978 123.099 187.772 123.217L185.039 124.797C184.833 124.915 184.668 124.821 184.668 124.585V124.101C184.668 123.866 184.833 123.577 185.039 123.459Z" fill="#455A64"/>
<path d="M193.152 118.772L195.885 117.192C196.091 117.074 196.256 117.169 196.256 117.404V117.888C196.256 118.124 196.091 118.412 195.885 118.53L193.152 120.11C192.946 120.228 192.781 120.134 192.781 119.898V119.415C192.781 119.179 192.946 118.89 193.152 118.772Z" fill="#455A64"/>
<path d="M201.266 114.085L203.998 112.505C204.205 112.387 204.37 112.482 204.37 112.718V113.201C204.37 113.437 204.205 113.726 203.998 113.844L201.266 115.424C201.059 115.541 200.895 115.447 200.895 115.211V114.728C200.895 114.492 201.059 114.203 201.266 114.085Z" fill="#455A64"/>
<path d="M209.379 109.393L212.112 107.813C212.318 107.695 212.483 107.789 212.483 108.025V108.508C212.483 108.744 212.318 109.033 212.112 109.151L209.379 110.731C209.173 110.849 209.008 110.754 209.008 110.519V110.035C209.008 109.799 209.173 109.511 209.379 109.393Z" fill="#455A64"/>
<path d="M153.961 136.063V135.208" stroke="#FAFAFA" stroke-width="0.73" stroke-linecap="round" stroke-linejoin="round"/>
<path d="M153.961 133.422V116.438" stroke="#FAFAFA" stroke-width="0.73" stroke-linecap="round" stroke-linejoin="round"/>
<path d="M153.961 115.541V114.687" stroke="#FAFAFA" stroke-width="0.73" stroke-linecap="round" stroke-linejoin="round"/>
<path d="M162.07 131.4V130.545" stroke="#FAFAFA" stroke-width="0.73" stroke-linecap="round" stroke-linejoin="round"/>
<path d="M162.07 128.871V96.252" stroke="#FAFAFA" stroke-width="0.73" stroke-linecap="round" stroke-linejoin="round"/>
<path d="M162.07 95.4149V94.5601" stroke="#FAFAFA" stroke-width="0.73" stroke-linecap="round" stroke-linejoin="round"/>
<path d="M170.188 126.737V125.882" stroke="#FAFAFA" stroke-width="0.73" stroke-linecap="round" stroke-linejoin="round"/>
<path d="M170.188 124.278V112.281" stroke="#FAFAFA" stroke-width="0.73" stroke-linecap="round" stroke-linejoin="round"/>
<path d="M170.188 111.48V110.625" stroke="#FAFAFA" stroke-width="0.73" stroke-linecap="round" stroke-linejoin="round"/>
<path d="M178.297 122.073V121.219" stroke="#FAFAFA" stroke-width="0.73" stroke-linecap="round" stroke-linejoin="round"/>
<path d="M178.297 119.468V113.36" stroke="#FAFAFA" stroke-width="0.73" stroke-linecap="round" stroke-linejoin="round"/>
<path d="M178.297 112.488V111.633" stroke="#FAFAFA" stroke-width="0.73" stroke-linecap="round" stroke-linejoin="round"/>
<path d="M186.406 117.41V116.55" stroke="#FAFAFA" stroke-width="0.73" stroke-linecap="round" stroke-linejoin="round"/>
<path d="M186.406 114.875V88.8948" stroke="#FAFAFA" stroke-width="0.73" stroke-linecap="round" stroke-linejoin="round"/>
<path d="M186.406 88.0577V87.2029" stroke="#FAFAFA" stroke-width="0.73" stroke-linecap="round" stroke-linejoin="round"/>
<path d="M194.52 112.747V111.886" stroke="#FAFAFA" stroke-width="0.73" stroke-linecap="round" stroke-linejoin="round"/>
<path d="M194.52 110.1V93.116" stroke="#FAFAFA" stroke-width="0.73" stroke-linecap="round" stroke-linejoin="round"/>
<path d="M194.52 92.2257V91.365" stroke="#FAFAFA" stroke-width="0.73" stroke-linecap="round" stroke-linejoin="round"/>
<path d="M202.629 108.078V107.223" stroke="#FAFAFA" stroke-width="0.73" stroke-linecap="round" stroke-linejoin="round"/>
<path d="M202.629 105.396V98.9993" stroke="#FAFAFA" stroke-width="0.73" stroke-linecap="round" stroke-linejoin="round"/>
<path d="M202.629 98.0855V97.2307" stroke="#FAFAFA" stroke-width="0.73" stroke-linecap="round" stroke-linejoin="round"/>
<path d="M210.746 103.415V102.56" stroke="#FAFAFA" stroke-width="0.73" stroke-linecap="round" stroke-linejoin="round"/>
<path d="M210.746 100.774V83.7896" stroke="#FAFAFA" stroke-width="0.73" stroke-linecap="round" stroke-linejoin="round"/>
<path d="M210.746 82.8934V82.0386" stroke="#FAFAFA" stroke-width="0.73" stroke-linecap="round" stroke-linejoin="round"/>
<path opacity="0.6" d="M155.858 113.572C156.906 112.953 157.754 110.536 157.754 108.172V100.667C157.754 98.3153 159.421 95.4207 161.459 94.2475L162.425 93.6875C164.463 92.5084 166.129 93.4752 166.129 95.8275V108.685C166.129 111.037 167.796 112.004 169.834 110.825L171.619 109.793C172.655 109.192 173.951 109.941 173.951 111.143C173.951 112.334 175.229 113.083 176.266 112.505L178.109 111.474C180.135 110.259 181.779 107.359 181.779 104.995V91.9778C181.779 89.6256 183.457 86.7546 185.513 85.6109L186.426 85.0981C188.481 83.9485 190.16 84.9389 190.16 87.2911V89.437C190.16 91.7892 191.827 92.756 193.865 91.577L194.848 91.011C196.886 89.832 198.553 90.7988 198.553 93.151V95.2969C198.553 97.6491 200.22 98.6159 202.258 97.4369L202.711 97.1716C204.749 95.9925 206.416 93.1038 206.416 90.7516V88.6057C206.416 86.2417 207.382 83.7657 208.572 83.076L210.727 81.8262V103.25L153.949 136.063V114.686C153.949 114.686 154.797 114.185 155.846 113.572H155.858Z" fill="#FAFAFA"/>
<path d="M153.961 114.686C153.961 114.686 154.809 114.185 155.857 113.572C156.906 112.959 157.754 110.536 157.754 108.172V100.667C157.754 98.3153 159.421 95.4207 161.459 94.2475L162.425 93.6875C164.463 92.5084 166.129 93.4752 166.129 95.8275V108.685C166.129 111.037 167.796 112.004 169.834 110.825L171.619 109.793C172.655 109.192 173.951 109.941 173.951 111.143C173.951 112.334 175.229 113.083 176.266 112.505L178.109 111.474C180.135 110.259 181.779 107.359 181.779 104.995V91.9778C181.779 89.6256 183.457 86.7546 185.513 85.6109L186.426 85.0981C188.481 83.9485 190.16 84.9389 190.16 87.2911V89.437C190.16 91.7892 191.827 92.756 193.865 91.577L194.848 91.011C196.886 89.832 198.553 90.7988 198.553 93.151V95.2969C198.553 97.6491 200.22 98.6159 202.258 97.4369L202.711 97.1716C204.749 95.9925 206.416 93.1038 206.416 90.7516V88.6057C206.416 86.2417 207.382 83.7657 208.571 83.076L210.727 81.8262" stroke="#FAFAFA" stroke-width="0.97" stroke-linecap="round" stroke-linejoin="round"/>
<path d="M162.07 92.2197C162.712 91.8483 163.231 92.149 163.231 92.8918C163.231 93.6346 162.712 94.5307 162.07 94.9021C161.428 95.2735 160.91 94.9728 160.91 94.23C160.91 93.4872 161.428 92.5911 162.07 92.2197Z" fill="#FAFAFA"/>
<path d="M194.516 89.5786C195.158 89.2072 195.676 89.5079 195.676 90.2507C195.676 90.9935 195.158 91.8896 194.516 92.261C193.874 92.6324 193.355 92.3317 193.355 91.5889C193.355 90.8461 193.874 89.95 194.516 89.5786Z" fill="#37474F"/>
<path d="M170.422 108.856C171.064 108.485 171.582 108.785 171.582 109.528C171.582 110.271 171.064 111.167 170.422 111.539C169.78 111.91 169.262 111.609 169.262 110.866C169.262 110.124 169.78 109.228 170.422 108.856Z" fill="#37474F"/>
<path d="M207.551 48.3118C208.093 48.3884 209.63 48.8188 210.137 49.0016C211.438 49.4673 211.892 50.1806 212.269 51.4068C212.451 51.9905 212.446 52.7038 212.363 53.3051C212.34 53.4761 212.257 53.7001 212.104 53.877C211.892 54.1246 211.645 54.325 211.356 54.4842C210.172 55.1268 209.253 55.5394 208.181 54.7023C207.516 54.1835 206.897 53.594 206.191 53.1224C205.666 52.7745 205.054 52.5918 204.412 52.3972C203.687 52.1791 202.951 52.132 202.197 52.0966C201.703 52.073 200.99 52.468 200.572 52.7097C200.307 52.0258 200.366 51.4009 200.896 50.9116C201.891 50.0038 203.452 48.6714 204.63 48.3059C205.655 47.9876 206.467 48.1585 207.539 48.3059L207.551 48.3118Z" fill="#B16668"/>
<path d="M254.682 165.032C253.198 165.887 251.531 165.87 249.711 165.18L248.504 155.423L254.411 156.024L254.676 165.032H254.682Z" fill="#B16668"/>
<path d="M236.471 159.721C235.282 162.515 232.961 161.819 230.316 160.133L230.481 150.288L236.73 150.1L236.477 159.721H236.471Z" fill="#B16668"/>
<path d="M243.949 174.618C243.79 174.777 243.867 175.844 244.061 176.127C244.267 176.428 245.421 177.359 247.465 177.442C249.415 177.525 251.146 177.206 252.271 176.446C253.39 175.685 253.92 174.866 253.997 173.752C254.074 172.637 253.915 171.57 254.421 170.698C254.886 169.896 255.64 168.982 255.793 168.546C256.135 167.603 255.74 166.282 255.74 166.282L243.955 174.606L243.949 174.618Z" fill="#263238"/>
<path d="M249.004 164.767C248.98 165.18 248.927 165.592 248.803 166.011C248.544 166.878 248.144 167.703 247.684 168.487C247.449 168.894 247.195 169.289 246.907 169.66C246.341 170.379 245.623 170.975 245.022 171.67C244.421 172.36 243.915 173.191 243.891 174.099C243.856 175.632 245.529 176.098 246.807 176.292C248.179 176.493 249.628 176.381 250.947 175.962C252.414 175.496 253.45 174.317 253.651 172.832C253.71 172.407 253.668 171.971 253.71 171.541C253.798 170.562 254.275 169.66 254.817 168.829C255.135 168.351 255.476 167.88 255.683 167.349C256.054 166.388 255.7 165.339 255.418 164.402C255.176 163.594 254.899 162.68 254.611 162.769C254.611 162.934 254.634 163.11 254.558 163.258C254.469 163.441 254.399 163.541 254.346 163.747C254.293 163.965 254.228 164.178 254.134 164.384C253.992 164.696 253.774 164.985 253.48 165.15C253.444 164.573 253.409 163.995 253.374 163.423C253.362 163.246 253.344 163.052 253.227 162.916C253.103 162.78 252.909 162.745 252.732 162.716C251.648 162.545 250.541 162.379 249.457 162.545C249.292 162.568 249.115 162.609 249.021 162.751C248.945 162.863 248.951 163.01 248.962 163.146C248.998 163.7 249.033 164.242 249.004 164.779V164.767Z" fill="#455A64"/>
<path d="M247.483 168.817C248.037 168.375 249.315 168.328 250.01 168.387C250.888 168.452 251.6 168.741 252.013 169.024C252.195 169.147 252.442 169.118 252.596 168.959C252.778 168.77 252.755 168.464 252.531 168.31C252.095 168.01 251.312 167.591 250.275 167.55C248.555 167.479 248.06 167.791 248.06 167.791C248.06 167.791 247.295 168.316 247.477 168.823L247.483 168.817Z" fill="#F5F5F5"/>
<path d="M246.223 170.421C246.924 169.978 248.331 169.996 249.026 170.049C249.904 170.114 250.563 170.438 250.976 170.727C251.158 170.851 251.406 170.822 251.559 170.662C251.741 170.474 251.718 170.167 251.494 170.014C251.058 169.713 250.228 169.23 249.191 169.189C247.471 169.118 247.035 169.483 247.035 169.483C247.035 169.483 246.323 169.784 246.223 170.421Z" fill="#F5F5F5"/>
<path d="M250.918 165.887C249.728 165.799 249.233 165.946 248.768 166.135C248.474 166.312 248.285 166.795 248.485 166.913C248.862 166.689 249.546 166.583 250.388 166.595C250.953 166.6 251.672 166.813 252.255 167.049C252.402 167.107 252.579 167.196 252.732 167.273C252.938 167.379 253.197 167.29 253.291 167.078C253.368 166.901 253.303 166.689 253.127 166.595C252.702 166.359 251.872 165.958 250.912 165.887H250.918Z" fill="#F5F5F5"/>
<path d="M220.26 166.5C220.113 166.842 220.177 167.467 220.378 167.856C220.578 168.251 222.692 169.359 225.49 169.088C228.288 168.817 230.178 167.626 231.227 166.889C232.275 166.152 233.382 165.981 234.767 165.864C236.151 165.746 237.953 164.997 238.236 164.337C238.518 163.676 238.136 162.568 238.136 162.568L220.26 166.5Z" fill="#263238"/>
<path d="M231.27 157.539C231.022 157.457 230.781 157.374 230.534 157.292C230.398 157.245 230.251 157.203 230.115 157.256C229.939 157.327 229.874 157.545 229.833 157.728C229.744 158.111 229.721 158.601 229.562 158.954C229.42 159.273 229.055 159.573 228.802 159.803C228.136 160.399 227.371 160.87 226.605 161.318C225.704 161.837 224.82 162.244 223.884 162.698C222.936 163.164 221.663 163.464 220.921 163.995C219.843 164.767 219.755 166.636 221.033 167.337C222.135 167.939 224.997 168.546 227.954 167.609C229.568 167.102 231.317 165.309 233.443 165.08C234.798 164.932 237.348 164.472 238.19 163.417C238.497 162.951 238.025 161.513 237.637 160.275C237.213 158.919 237.001 156.791 236.553 156.92C236.535 157.374 236.152 157.651 235.923 158.041C235.722 158.382 235.616 158.772 235.469 159.137C235.322 159.508 235.122 159.874 234.792 160.092C234.462 160.31 233.979 160.34 233.69 160.063C233.278 159.662 233.496 158.931 233.19 158.441C232.984 158.111 232.583 157.964 232.212 157.84C231.9 157.734 231.582 157.634 231.27 157.528V157.539Z" fill="#455A64"/>
<path d="M227.848 160.546C227.848 160.546 228.024 160.021 228.831 159.845C229.444 159.709 230.551 160.133 231.24 160.67C231.523 160.888 231.499 161.324 231.193 161.507C231.01 161.619 230.781 161.595 230.616 161.46C230.162 161.088 229.143 160.411 227.854 160.54L227.848 160.546Z" fill="#F5F5F5"/>
<path d="M225.969 161.678C225.969 161.678 226.352 161.041 227.135 161.03C227.135 161.03 228.749 161.03 229.774 161.932C230.033 162.161 230.027 162.568 229.732 162.745C229.556 162.851 229.332 162.828 229.173 162.698C228.713 162.309 227.789 161.495 225.969 161.684V161.678Z" fill="#F5F5F5"/>
<path d="M223.883 162.704C223.883 162.704 224.313 162.126 225.096 162.114C225.096 162.114 226.598 162.126 227.623 163.028C227.882 163.258 227.876 163.665 227.582 163.842C227.405 163.948 227.181 163.924 227.022 163.794C226.563 163.405 225.697 162.521 223.883 162.71V162.704Z" fill="#F5F5F5"/>
<path d="M252.385 91.9309C253.057 102.625 254.14 127.933 254.14 127.933C254.293 129.26 254.782 132.455 255.024 137.248C255.377 144.198 254.823 159.55 254.823 159.55C254.823 159.55 251.973 161.194 248.892 160.021C248.892 160.021 244.94 138.132 243.674 131.305C242.561 125.304 240.399 112.293 240.399 112.293L239.386 128.623C239.386 128.623 239.734 132.803 239.151 137.454C238.756 140.626 236.848 154.391 236.848 154.391C236.848 154.391 233.485 155.464 230.145 154.444C230.145 154.444 229.533 131.977 229.391 129.053C229.226 125.723 228.531 89.7732 228.531 89.7732L252.379 91.9191L252.385 91.9309Z" fill="#37474F"/>
<path d="M240.407 112.299L238.563 103.574C238.563 103.574 234.169 103.321 231.672 100.945C231.672 100.945 232.173 103.332 237.733 104.606L239.576 113.437L239.759 121.649L240.407 112.305V112.299Z" fill="#263238"/>
<path d="M250.366 60.1022C252.469 60.4736 252.604 61.5171 253.064 63.604C253.293 64.6416 253.8 66.8641 253.6 68.727L252.039 81.054L252.575 95.2499C249.194 98.9285 235.677 100.113 228.297 94.7134C228.297 94.7134 228.379 71.3917 228.715 67.6482C229.31 61.1103 232.273 58.7876 236.619 58.7994L244.058 59.4302L250.366 60.0963V60.1022Z" fill="#27DEBF"/>
<path d="M242.506 43.5719C242.494 47.2211 239.526 50.1687 235.88 50.1569C232.234 50.1452 229.289 47.1739 229.301 43.5248C229.313 39.8756 232.281 36.9279 235.927 36.9397C239.573 36.9515 242.518 39.9227 242.506 43.5719Z" fill="#263238"/>
<path d="M244.577 44.8631L245.984 41.0783C245.984 41.0783 247.139 40.8838 248.034 41.8093C248.912 42.7113 248.411 45.5351 247.304 48.2941C247.304 48.2941 246.214 53.3228 245.784 54.1481C245.354 54.9735 244.465 55.2034 244.465 55.2034L244.577 44.8749V44.8631Z" fill="#263238"/>
<path d="M244.682 48.5122C245.082 48.7539 245.665 47.9816 246.166 47.4629C246.667 46.9441 248.292 46.2366 249.099 47.9522C249.918 49.6972 248.369 51.9963 247.085 52.3972C244.876 53.081 244.552 51.6662 244.552 51.6662L244.358 59.6307C244.358 59.6307 242.903 63.162 238.986 63.6808C235.07 64.1995 235.888 60.9748 237.178 59.3949L237.19 56.9719C237.19 56.9719 235.187 57.2667 234.216 57.1134C232.596 56.854 231.577 55.5689 231.088 53.8121C230.305 50.9823 230.016 48.7068 230.705 43.1534C231.459 37.0695 238.539 37.0282 242.349 39.4512C246.16 41.8682 244.682 48.524 244.682 48.524V48.5122Z" fill="#B16668"/>
<path d="M244.64 49.0487C245.276 48.8659 245.741 47.8402 246.165 47.4629C246.866 46.8321 245.983 41.0783 245.983 41.0783C245.983 41.0783 246.66 39.6516 245.323 38.1719C244.375 37.1166 242.779 36.9928 240.057 36.5566C238.715 36.3385 237.13 36.2324 235.799 35.9848C234.174 35.6841 233.137 35.3658 231.841 34.7173C231.606 34.5994 231.346 34.4697 231.087 34.5227C230.875 34.564 230.704 34.7291 230.61 34.9236C230.516 35.1182 230.492 35.3363 230.498 35.5485C230.504 35.7725 230.545 35.9965 230.61 36.2147C230.651 36.3444 230.911 36.7276 230.858 36.8396C230.722 37.1167 229.674 36.6509 229.462 36.5861C229.409 36.5684 229.356 36.5566 229.309 36.5802C229.267 36.5979 229.244 36.6391 229.226 36.6804C228.89 37.3348 229.014 38.2544 229.344 38.8911C230.115 40.3532 231.588 41.4556 233.096 42.0805C234.698 42.7466 236.476 42.9942 238.202 42.7938C238.944 42.7054 239.675 42.5403 240.381 42.2868C240.346 42.2986 240.811 42.9825 240.858 43.0355C241.065 43.2713 241.3 43.4836 241.565 43.6545C241.824 43.8255 242.113 43.9729 242.413 44.0495C242.726 44.132 243.02 44.0908 243.197 44.4268C243.309 44.639 243.315 44.8925 243.326 45.1283C243.35 45.8299 243.368 46.5373 243.391 47.2388C243.403 47.5985 243.415 47.9581 243.532 48.3C243.65 48.636 243.904 48.9485 244.245 49.0487C244.386 49.09 244.522 49.09 244.652 49.0487H244.64Z" fill="#263238"/>
<path d="M237.189 56.966C237.189 56.966 240.818 56.2468 242.084 55.5806C242.932 55.1325 243.633 54.3544 243.839 53.8533C243.839 53.8533 243.598 54.9262 242.838 55.893C241.907 57.078 237.184 57.9328 237.184 57.9328V56.966H237.189Z" fill="#9A4A4D"/>
<path d="M237.723 47.4157C237.723 47.8343 238.047 48.1703 238.447 48.1703C238.848 48.1703 239.172 47.8343 239.177 47.4157C239.177 46.9972 238.853 46.6611 238.453 46.6611C238.052 46.6611 237.729 46.9972 237.723 47.4157Z" fill="#263238"/>
<path d="M238.598 45.1753L240.206 46.2188C240.488 45.7531 240.353 45.1459 239.911 44.857C239.469 44.5681 238.88 44.7096 238.598 45.1753Z" fill="#263238"/>
<path d="M238.939 51.837L236.383 52.9276C236.713 53.6409 237.467 53.9946 238.256 53.6704C238.968 53.3815 239.263 52.5444 238.933 51.8311L238.939 51.837Z" fill="#9A4A4D"/>
<path d="M231.069 45.9654L232.6 45.0398C232.359 44.6036 231.817 44.4562 231.399 44.7156C230.975 44.9691 230.833 45.535 231.075 45.9654H231.069Z" fill="#263238"/>
<path d="M231.668 47.1857C231.668 47.6043 231.992 47.9403 232.392 47.9403C232.793 47.9403 233.117 47.6043 233.123 47.1857C233.123 46.7672 232.799 46.4312 232.398 46.4312C231.998 46.4312 231.674 46.7672 231.668 47.1857Z" fill="#263238"/>
<path d="M235.717 46.7966L235.098 51.4362L232.73 50.4163L235.717 46.7966Z" fill="#9A4A4D"/>
<path d="M250.625 60.1553L241.85 79.1322C241.85 79.1322 229.546 78.7431 225.505 78.0062C224.127 77.7527 224.369 76.9922 223.815 75.5125C223.261 74.0328 222.46 74.3157 222.46 74.3157L222.472 76.326C222.519 77.6525 220.411 78.3304 219.474 78.6959C217.931 79.2972 216.246 79.6804 214.656 80.1756C214.12 80.3407 213.531 80.547 213.243 81.0304C212.984 81.4667 213.042 82.0444 213.29 82.4925C214.008 83.7953 214.986 84.8918 216.429 85.0628C218.208 85.275 220.181 84.7857 221.907 84.4792C223.95 84.1137 225.382 83.6362 227.408 83.9073C229.351 84.1667 232.184 84.4851 234.11 84.8388C236.331 85.2397 241.102 86.0061 243.033 86.0886C244.429 86.1475 245.389 86.7194 246.956 84.1726C248.046 82.3982 250.514 77.7645 252.61 73.6731C254.766 69.458 255.485 66.811 255.373 64.1464C255.314 62.7905 254.171 60.4441 250.637 60.1612L250.625 60.1553Z" fill="#B16668"/>
<path d="M249.994 60.0669C251.802 60.1671 253.38 60.4324 254.452 61.3344C255.524 62.2364 256.466 63.7573 254.947 69.0926C253.421 74.4278 247.302 84.3319 246.395 85.5581C245.494 86.7843 244.163 86.4601 241.565 86.183C238.974 85.9059 233.496 84.7386 233.496 84.7386C233.496 84.7386 234.338 80.6355 233.973 78.7844L241.642 78.9495L246.471 66.9703C246.471 66.9703 248.056 62.2423 249.999 60.0669H249.994Z" fill="#455A64"/>
<path d="M107.282 243.251L107.023 236.401L112.53 233.094C112.53 233.094 111.953 240.298 112.082 241.288C112.206 242.278 113.478 242.891 113.708 243.558C113.943 244.224 110.551 251.263 108.56 252.86C106.569 254.452 103.2 252.601 102.853 251.876C102.505 251.151 104.484 251.139 105.468 250.52C105.816 250.296 106.216 249.995 106.216 249.995C106.77 248.009 107.282 243.245 107.282 243.245V243.251Z" fill="#FFA8A7"/>
<path d="M112.805 242.32C112.163 242.891 111.704 244.295 110.862 246.216C110.019 248.138 109.477 250.213 107.233 251.392C105.714 252.188 103.493 251.605 104.601 251.115C105.461 250.738 106.214 249.995 106.214 249.995C106.214 249.995 105.201 250.732 103.605 250.95C102.357 251.121 99.7769 251.888 101.45 253.78C102.092 254.511 103.464 254.924 106.161 254.941C108.724 254.959 109.907 254.157 110.814 252.294C111.916 250.031 114.325 247.655 115.12 246.381C116.08 244.837 114.384 242.667 112.805 242.314V242.32Z" fill="#37474F"/>
<path d="M146.24 225.04L142.094 220.643L145.268 216.669L148.902 220.336C149.88 221.079 150.775 220.808 151.382 221.173C151.989 221.539 153.873 229.12 153.355 231.62C152.843 234.119 149.067 234.85 148.337 234.514C147.607 234.178 149.12 232.905 149.48 231.802C149.609 231.407 149.721 230.924 149.721 230.924C148.885 229.043 146.234 225.046 146.234 225.046L146.24 225.04Z" fill="#FFA8A7"/>
<path d="M149.898 220.79C149.769 221.639 150.311 223.012 150.894 225.029C151.477 227.045 152.378 228.99 151.406 231.331C150.746 232.916 148.661 233.883 149.203 232.799C149.621 231.956 149.733 230.906 149.733 230.906C149.733 230.906 149.421 232.121 148.332 233.306C147.478 234.231 145.917 236.619 148.444 236.666C149.633 236.689 151.494 236.442 153.061 235.163C154.498 233.984 155.234 231.743 154.74 229.733C154.145 227.287 154.481 223.92 154.28 222.435C154.033 220.631 151.341 220.047 149.904 220.784L149.898 220.79Z" fill="#37474F"/>
<path d="M106.168 172.637C106.168 172.637 117.441 199.52 118.66 202.521C119.879 205.527 120.887 206.73 122.683 207.974C124.485 209.218 143.68 222.37 143.68 222.37C147.261 220.884 147.332 218.55 147.332 218.55C147.332 218.55 137.867 206.523 135.352 204.307C132.831 202.084 128.803 200.793 128.803 200.793L126.111 181.286C125.322 177.448 125.811 173.215 120.109 166.683L106.168 172.637Z" fill="#37474F"/>
<path d="M120.108 166.683L100.789 168.912C100.789 168.912 100.966 184.357 101.908 196.82C102.951 210.597 106.914 238.346 106.914 238.346C109.612 238.883 112.357 237.757 112.357 237.757C112.357 237.757 114.854 217.642 114.854 214.765C114.854 210.332 113.44 206.317 113.44 206.317C113.823 200.28 116.05 192.109 116.385 185.118C121.468 183.019 123.329 180.189 124.048 176.393C124.743 172.726 121.48 168.917 120.114 166.683H120.108Z" fill="#37474F"/>
<path d="M115.238 194.297L116.899 183.944C116.899 183.944 122.129 182.076 124.138 179.358C124.138 179.358 123.502 183.308 118.566 185.188C118.248 185.589 115.757 195.54 115.757 195.54L115.238 194.297Z" fill="#263238"/>
<path d="M112.719 114.769C110.534 113.03 109.385 111.957 107.636 110.36C106.647 109.458 105.775 110.525 105.875 110.495L109.362 119.81C109.88 120.24 110.275 120.281 110.94 121.16C111.606 122.038 113.891 135.344 113.891 135.344L120.282 133.64C120.282 133.64 115.723 117.157 112.719 114.769Z" fill="#FFA8A7"/>
<path d="M62.2452 158.518L61.8035 158.265C61.1026 157.858 60.5312 156.873 60.5312 156.06V111.957C60.5312 111.144 61.1026 110.159 61.8035 109.752L105.129 84.6562C105.83 84.2494 106.967 84.2494 107.668 84.6562L108.103 84.9096C108.804 85.3164 109.376 86.3009 109.376 87.1145V131.217C109.376 132.031 108.804 133.015 108.103 133.422L64.7778 158.518C64.0769 158.925 62.9402 158.925 62.2393 158.518H62.2452Z" fill="#27DEBF"/>
<path opacity="0.4" d="M109.372 86.9199C109.283 86.2596 108.753 86.0179 108.111 86.3893L64.7857 111.491C64.4323 111.692 64.1201 112.046 63.8845 112.435L60.9102 110.719C61.134 110.318 61.4579 109.97 61.8113 109.764L105.131 84.6679C105.838 84.2611 106.975 84.2611 107.675 84.6679L108.117 84.9214C108.753 85.2928 109.295 86.1535 109.378 86.9199H109.372Z" fill="white"/>
<path opacity="0.1" d="M64.5736 158.618C63.8727 158.919 62.8832 158.884 62.253 158.518L61.8054 158.265C61.1045 157.858 60.5391 156.873 60.5391 156.06V111.963C60.5391 111.556 60.6804 111.102 60.9101 110.713L63.8845 112.429C63.6607 112.83 63.5134 113.284 63.5134 113.679V157.781C63.5134 158.506 63.9728 158.848 64.5736 158.612V158.618Z" fill="black"/>
<path d="M79.5836 116.42C75.3665 121.508 72.4805 128.605 72.4805 134.854C72.4805 137.69 73.0812 140.025 74.1178 141.734L85.4499 127.35L79.5836 116.426V116.42Z" fill="#37474F"/>
<path d="M91.3028 109.611C89.5417 109.528 87.551 110.059 85.4483 111.279C83.3339 112.5 81.3431 114.28 79.582 116.414L85.4483 127.338L91.3028 109.605V109.611Z" fill="#27DEBF"/>
<path opacity="0.45" d="M91.3028 109.611C89.5417 109.528 87.551 110.059 85.4483 111.279C83.3339 112.5 81.3431 114.28 79.582 116.414L85.4483 127.338L91.3028 109.605V109.611Z" fill="black"/>
<path d="M97.2171 113.761C95.9861 111.197 93.8952 109.735 91.3037 109.611L85.4492 127.344L97.2171 113.761Z" fill="#27DEBF"/>
<path d="M97.2171 113.761L85.4492 127.344L74.1172 141.728C76.3435 145.348 80.5783 146.227 85.4492 143.409C92.6171 139.27 98.4304 128.718 98.4304 119.839C98.4304 117.416 97.9946 115.371 97.223 113.767L97.2171 113.761Z" fill="#27DEBF"/>
<path d="M97.2171 113.761C95.9861 111.197 93.8952 109.735 91.3037 109.611L85.4492 127.344L97.2171 113.761Z" fill="#455A64"/>
<path d="M97.2171 113.761L85.4492 127.344L74.1172 141.728C76.3435 145.348 80.5783 146.227 85.4492 143.409C92.6171 139.27 98.4304 128.718 98.4304 119.839C98.4304 117.416 97.9946 115.371 97.223 113.767L97.2171 113.761Z" fill="#27DEBF"/>
<path opacity="0.25" d="M97.2171 113.761L85.4492 127.344L74.1172 141.728C76.3435 145.348 80.5783 146.227 85.4492 143.409C92.6171 139.27 98.4304 128.718 98.4304 119.839C98.4304 117.416 97.9946 115.371 97.223 113.767L97.2171 113.761Z" fill="black"/>
<path d="M79.5836 116.42C75.3665 121.508 72.4805 128.605 72.4805 134.854C72.4805 137.69 73.0812 140.025 74.1178 141.734L85.4499 127.35L79.5836 116.426V116.42Z" stroke="white" stroke-width="1.02" stroke-linecap="round" stroke-linejoin="round"/>
<path d="M91.3028 109.611C89.5417 109.528 87.551 110.059 85.4483 111.279C83.3339 112.5 81.3431 114.28 79.582 116.414L85.4483 127.338L91.3028 109.605V109.611Z" stroke="white" stroke-width="1.02" stroke-linecap="round" stroke-linejoin="round"/>
<path d="M97.2171 113.761C95.9861 111.197 93.8952 109.735 91.3037 109.611L85.4492 127.344L97.2171 113.761Z" stroke="white" stroke-width="1.02" stroke-linecap="round" stroke-linejoin="round"/>
<path d="M97.2171 113.761L85.4492 127.344L74.1172 141.728C76.3435 145.348 80.5783 146.227 85.4492 143.409C92.6171 139.27 98.4304 128.718 98.4304 119.839C98.4304 117.416 97.9946 115.371 97.223 113.767L97.2171 113.761Z" stroke="white" stroke-width="1.02" stroke-linecap="round" stroke-linejoin="round"/>
<path d="M77.5181 108.691L93.3853 99.524C93.6504 99.3707 93.8683 99.4945 93.8683 99.8011V100.426C93.8683 100.733 93.6504 101.11 93.3853 101.263L77.5181 110.43C77.2531 110.584 77.0352 110.46 77.0352 110.153V109.528C77.0352 109.222 77.2531 108.844 77.5181 108.691Z" fill="#455A64"/>
<path d="M83.1943 158.878C79.0832 160.063 78.0289 159.42 76.6036 157.852C75.9086 157.086 66.7381 145.495 65.619 144.228C64.5 142.96 64.3763 142.624 62.7036 141.834C61.0367 141.039 60.5126 140.921 59.7056 139.936C58.887 138.916 59.2462 138.498 59.205 137.867C59.1461 136.994 58.6514 136.564 58.5925 135.91C58.5218 135.09 58.8928 134.725 58.8752 134.353C58.8457 133.77 58.5277 133.563 58.4923 132.496C58.4747 132.125 60.006 130.563 60.542 129.973V132.856C62.2265 135.244 64.9535 135.02 65.248 134.683C65.5425 134.347 65.4895 132.626 66.0372 131.647C66.5673 130.692 67.7335 130.309 67.6392 131.276C67.5921 131.83 67.7394 133.776 67.7688 134.648C67.7983 135.521 67.8748 136.823 68.5404 137.985C69.4239 139.535 82.5464 151.939 82.5464 151.939" fill="#FFA8A7"/>
<path d="M109.362 116.597C109.362 116.597 108.773 115.707 107.748 115.147C106.717 114.586 106.24 113.708 106.499 113.124C106.688 112.694 107.406 113.119 108.042 113.366C108.672 113.614 110.434 114.156 111.305 114.94C112.177 115.724 112.43 116.326 113.331 116.243C113.331 116.243 112.713 117.021 111.458 117.11C110.21 117.198 109.356 116.603 109.356 116.603L109.362 116.597Z" fill="#FFA8A7"/>
<path d="M73.5391 153.855C79.7941 151.161 86.1669 149.027 92.4984 146.515C95.4669 145.336 97.3045 144.611 99.578 143.945C101.734 143.314 103.907 143.391 106.063 143.008C106.322 142.954 106.599 142.907 106.887 142.86C110.539 142.182 116.058 141.168 117.56 140.897C117.701 140.868 117.831 140.85 117.948 140.82C118.29 140.785 118.649 140.803 119.003 140.856C120.092 141.127 120.946 142.076 121.258 142.784C121.859 144.116 122.065 145.289 121.63 147.559C121.512 148.16 120.64 149.964 120.086 151.962C119.067 155.635 118.125 160.293 117.471 162.043C117.436 162.12 117.418 162.185 117.389 162.238L120.116 166.683C120.116 166.683 118.284 168.953 112.848 170.533C107.4 172.113 100.797 168.906 100.797 168.906C100.797 168.906 99.4013 161.578 99.1422 159.52C99.1245 159.402 99.095 159.214 99.0656 159.001C99.0126 158.565 98.5473 155.541 98.5473 155.541C98.347 154.945 96.8687 155.14 92.3158 156.478C87.763 157.816 81.6965 159.225 81.6965 159.225L73.5391 153.849V153.855Z" fill="#FFA8A7"/>
<path d="M121.137 136.988C119.399 130.209 117.756 123.406 117.756 123.406L110.953 125.67L115.965 147.052L121.631 147.565C122.856 143.291 122.085 140.685 121.143 136.988H121.137Z" fill="#FFA8A7"/>
<path d="M113.92 141.416C114.315 141.357 114.327 140.944 114.085 139.659C113.844 138.38 113.461 136.759 113.461 136.759C113.461 136.759 118.031 134.819 121.053 135.485C121.053 135.485 121.554 137.325 122.26 141.062C122.973 144.8 122.184 146.704 119.969 152.387L113.92 141.416Z" fill="#455A64"/>
<path d="M104.836 138.704L105.631 145.719L112.546 146.521L111.544 137.207L104.836 138.704Z" fill="#FFA8A7"/>
<path d="M100.685 127.727C99.9484 127.32 99.4242 126.536 99.3477 125.699C99.3477 124.744 99.648 124.101 100.325 123.447C99.648 122.751 99.2829 121.743 99.4124 120.782C99.542 119.821 100.178 118.925 101.067 118.53C101.957 118.135 103.07 118.271 103.806 118.902C103.677 118.029 104.201 117.145 104.955 116.697C105.709 116.249 106.651 116.19 107.511 116.379C108.371 116.567 109.166 116.974 109.926 117.41C110.603 117.799 111.381 118.289 112.099 118.601C112.806 118.908 113.725 119.12 114.443 119.373C117.076 120.287 120.851 122.769 120.068 129.519C119.609 133.487 108.748 135.662 108.807 138.403C108.789 138.386 108.777 138.368 108.76 138.35C107.776 137.165 106.787 135.98 105.803 134.795C105.055 133.893 104.301 132.992 103.553 132.09C102.852 131.247 102.039 130.327 101.986 129.177C101.975 128.894 101.992 128.594 101.839 128.358C101.651 128.075 101.28 127.992 100.961 127.869C100.861 127.827 100.761 127.78 100.667 127.733L100.685 127.727Z" fill="#263238"/>
<path d="M100.043 129.767C100.043 129.767 98.3643 132.072 98.5586 132.337C98.753 132.597 99.7366 132.909 99.7366 132.909L100.037 129.767H100.043Z" fill="#F28F8F"/>
<path d="M105.175 122.445C103.614 123.164 100.91 124.508 99.9798 130.109C99.0256 135.857 99.9562 137.755 100.71 138.545C101.217 139.081 104.079 139.211 105.534 138.828C107.348 138.35 111.453 136.953 113.403 134.047C115.694 130.633 116.342 125.976 113.956 124.031C110.599 121.295 106.5 121.832 105.181 122.439L105.175 122.445Z" fill="#FFA8A7"/>
<path d="M104.472 122.103C104.16 122.233 103.471 122.174 103.218 122.398C102.582 122.958 102.258 123.978 102.369 124.827C102.481 125.67 103.041 126.554 103.983 126.872C103.748 127.78 103.836 128.965 103.871 129.165C103.995 129.932 104.136 130.91 104.602 131.288C104.602 131.288 105.627 129.272 107.37 129.938C109.125 130.61 108.854 132.98 107.399 134.129C105.945 135.279 105.149 134.342 105.149 134.342C105.149 134.342 104.996 137.213 107.17 138.409C107.17 138.409 109.013 139.983 111.811 139.577C113.342 137.454 115.398 136.647 117.124 134.955C121.594 130.574 121.288 124.084 115.086 121.708C113.283 121.018 111.34 120.706 109.42 120.924C108.707 121.006 108 121.154 107.317 121.378C107.034 121.472 106.752 121.572 106.481 121.69C106.121 121.844 105.868 121.808 105.485 121.849C105.144 121.885 104.802 121.973 104.484 122.109L104.472 122.103Z" fill="#263238"/>
<path d="M100.709 138.545C101.151 139.005 103.342 139.164 104.868 138.957L104.762 137.932C104.762 137.932 103.831 138.303 102.447 138.527C101.098 138.745 100.645 138.462 100.621 138.45C100.651 138.486 100.68 138.521 100.709 138.551V138.545Z" fill="#F28F8F"/>
<path d="M119.875 154.191C118.891 157.828 118.09 160.387 117.466 162.049C117.43 162.126 117.413 162.191 117.383 162.244L120.11 166.689C120.11 166.689 118.278 168.959 112.842 170.539C107.394 172.119 100.803 169.908 100.803 169.908C100.803 169.908 98.4769 155.812 98.418 155.559C105.38 152.446 103.884 143.226 103.884 143.226C104.373 143.143 106.74 142.825 107.029 142.772C110.221 142.206 111.811 141.687 114.721 141.298C117.13 140.974 121.477 148.266 119.875 154.191Z" fill="#27DEBF"/>
<path opacity="0.2" d="M118.024 160.363C117.954 160.522 112.647 163.553 111.039 164.001C113.572 163.877 115.68 163.281 117.382 162.244L118.024 160.369V160.363Z" fill="black"/>
<path d="M103.879 143.226C102.082 143.308 101.57 143.279 99.2905 143.904C97.0111 144.534 90.4322 147.317 90.4322 147.317C90.4322 147.317 89.5192 153.607 92.3051 156.478C92.3051 156.478 95.1558 155.818 96.6224 155.541C97.871 155.305 98.1419 155.128 98.4129 155.547C98.4129 155.547 101.269 155.057 102.978 151.821C104.686 148.579 104.474 144.428 103.879 143.22V143.226Z" fill="#455A64"/>
</g>
<defs>
<clipPath id="clip0_1987_1767">
<rect width="278" height="271" fill="white"/>
</clipPath>
</defs>
</svg>
