<svg width="167" height="108" viewBox="0 0 167 108" fill="none" xmlns="http://www.w3.org/2000/svg">
<g clip-path="url(#clip0_3377_1598)">
<path d="M83.1081 108C121.931 108 153.404 106.497 153.404 104.643C153.404 102.79 121.931 101.287 83.1081 101.287C44.2849 101.287 12.8125 102.79 12.8125 104.643C12.8125 106.497 44.2849 108 83.1081 108Z" fill="#1F2637"/>
<path d="M36.7161 93.3052C24.5177 89.5152 8.00451 70.5568 14.7139 52.076C18.5321 41.5609 30.5192 40.7777 39.9402 39.0315C53.0339 36.604 58.9258 28.884 67.5991 19.3819C77.2893 8.76491 99.2975 -3.63623 118.762 12.8886C124.003 17.338 124.839 25.9451 131.602 31.9848C138.405 38.0605 147.276 38.0885 151.268 50.116C154.378 59.4883 140.987 78.9861 131.913 84.7961C115.131 95.5429 64.2235 101.85 36.7141 93.3052H36.7161Z" fill="#1F2637"/>
<path d="M158.838 54.5696C158.838 54.6395 158.834 54.7074 158.832 54.7774C158.636 63.2746 157.422 69.8437 155.683 74.9205L151.177 77.4099L154.796 77.0423L154.9 77.0323C152.657 82.5945 149.773 86.1129 147.108 88.3326C145.449 89.7171 143.874 90.5982 142.59 91.1556C142.506 91.1936 142.422 91.2296 142.338 91.2635C142.131 91.3494 141.932 91.4274 141.742 91.4953H139.336C139.308 91.3814 139.284 91.2695 139.26 91.1556C139.244 91.0837 139.228 91.0138 139.214 90.9419C139.192 90.848 139.174 90.754 139.154 90.6601C136.889 79.5577 140.921 71.0105 145.915 65.0267C145.929 65.0068 145.945 64.9868 145.965 64.9668C147.704 62.891 149.558 61.1248 151.301 59.6703L152.22 62.4334L152.571 58.6493C155.598 56.2958 158.082 54.9592 158.692 54.6455C158.788 54.5956 158.836 54.5716 158.836 54.5716L158.838 54.5696Z" fill="#00BBAB"/>
<path d="M158.919 54.6136L158.831 54.7754L153.362 64.859L153.264 65.0368L151.773 67.7859L151.723 67.8778L146.968 76.6427L146.962 76.6547L139.214 90.9379L139.098 91.1517L138.912 91.4913H138.703L138.885 91.1517L139.154 90.6562L146.8 76.5608L146.942 76.2991L158.692 54.6416L158.757 54.5237L158.919 54.6136Z" fill="white"/>
<path d="M158.034 63.9473L151.703 67.8381L151.788 67.9761L158.119 64.0853L158.034 63.9473Z" fill="white"/>
<path d="M158.174 61.9046L153.211 64.9546L153.295 65.0925L158.258 62.0426L158.174 61.9046Z" fill="white"/>
<path d="M146.075 64.9603L145.914 64.9727L146.81 76.6721L146.971 76.6597L146.075 64.9603Z" fill="white"/>
<path d="M138.275 93.3194C138.275 93.3194 143.824 96.3123 152.171 91.8988L149.611 90.5123L153.885 90.9099C157.159 88.86 160.804 85.6673 164.668 80.7764L163.691 80.2489L164.987 80.3688C165.639 79.5317 166.297 78.6466 166.961 77.7096C166.961 77.7096 164.594 77.3739 161.177 77.5897L159.309 79.8653L159.919 77.6936C152.916 78.3849 142.61 81.5036 138.273 93.3194H138.275Z" fill="#00BBAB"/>
<path d="M166.92 77.6287L137.828 92.6812L137.911 92.8427L167.003 77.7902L166.92 77.6287Z" fill="white"/>
<path d="M159.401 81.6113L159.375 81.7791L163.394 82.4082L163.42 82.2404L159.401 81.6113Z" fill="white"/>
<path d="M157.413 82.6105L157.375 82.7759L162.044 83.8645L162.082 83.6991L157.413 82.6105Z" fill="white"/>
<path d="M145.47 83.2718L145.336 83.104C147.816 81.1181 150.785 79.6236 154.165 78.6626L154.223 78.8684C150.871 79.8214 147.926 81.3039 145.47 83.2718Z" fill="#2E4882"/>
<path d="M143.94 29.4097V102.584C143.94 103.605 143.114 104.434 142.093 104.434H106.198C105.179 104.434 104.352 103.605 104.352 102.584V29.4097C104.352 28.3867 105.179 27.5596 106.198 27.5596H142.093C143.114 27.5596 143.94 28.3867 143.94 29.4097Z" fill="#00766C"/>
<path d="M142.229 29.4097V102.584C142.229 103.605 141.403 104.434 140.382 104.434H104.487C103.468 104.434 102.641 103.605 102.641 102.584V29.4097C102.641 28.3867 103.468 27.5596 104.487 27.5596H140.382C141.403 27.5596 142.229 28.3867 142.229 29.4097Z" fill="#00BBAB"/>
<path d="M139.51 36.9976V94.9975C139.51 96.1783 138.615 97.1353 137.512 97.1353H107.357C106.255 97.1353 105.359 96.1783 105.359 94.9975V36.9976C105.359 35.8169 106.255 34.8599 107.357 34.8599H137.512C138.615 34.8599 139.51 35.8169 139.51 36.9976Z" fill="#20315A"/>
<path d="M127.418 31.0859H117.443C117.345 31.0859 117.266 31.0059 117.266 30.908C117.266 30.8101 117.345 30.7302 117.443 30.7302H127.418C127.516 30.7302 127.596 30.8101 127.596 30.908C127.596 31.0059 127.516 31.0859 127.418 31.0859Z" fill="#2E4882"/>
<path d="M131.275 73.1262H113.597C112.499 73.1262 111.609 74.018 111.609 75.1182V75.8814C111.609 76.9815 112.499 77.8733 113.597 77.8733H131.275C132.373 77.8733 133.263 76.9815 133.263 75.8814V75.1182C133.263 74.018 132.373 73.1262 131.275 73.1262Z" fill="#00BBAB"/>
<path d="M137.895 97.5629H106.969C105.603 97.5629 104.492 96.4121 104.492 94.9956V36.9978C104.492 35.5832 105.603 34.4304 106.969 34.4304H137.895C139.261 34.4304 140.372 35.5812 140.372 36.9978V94.9976C140.372 96.4121 139.261 97.5649 137.895 97.5649V97.5629ZM106.969 35.2875C106.075 35.2875 105.348 36.0547 105.348 36.9978V94.9976C105.348 95.9406 106.075 96.7078 106.969 96.7078H137.895C138.789 96.7078 139.516 95.9406 139.516 94.9976V36.9978C139.516 36.0547 138.789 35.2875 137.895 35.2875H106.969Z" fill="#004C46"/>
<path d="M108.154 65.6101H136.734C137.325 65.6101 137.805 65.1298 137.805 64.5372V46.1063C137.805 45.5138 137.325 45.0334 136.734 45.0334H108.154C107.563 45.0334 107.083 45.5138 107.083 46.1063V64.5372C107.083 65.1298 107.563 65.6101 108.154 65.6101Z" fill="#00766C"/>
<path d="M114.818 57.6104H109.672C109.512 57.6104 109.383 57.7401 109.383 57.9V58.893C109.383 59.053 109.512 59.1827 109.672 59.1827H114.818C114.978 59.1827 115.107 59.053 115.107 58.893V57.9C115.107 57.7401 114.978 57.6104 114.818 57.6104Z" fill="#004C46"/>
<path d="M121.623 57.6104H116.477C116.317 57.6104 116.188 57.7401 116.188 57.9V58.893C116.188 59.053 116.317 59.1827 116.477 59.1827H121.623C121.782 59.1827 121.912 59.053 121.912 58.893V57.9C121.912 57.7401 121.782 57.6104 121.623 57.6104Z" fill="#004C46"/>
<path d="M128.42 57.6104H123.273C123.114 57.6104 122.984 57.7401 122.984 57.9V58.893C122.984 59.053 123.114 59.1827 123.273 59.1827H128.42C128.579 59.1827 128.709 59.053 128.709 58.893V57.9C128.709 57.7401 128.579 57.6104 128.42 57.6104Z" fill="#004C46"/>
<path d="M135.224 57.6104H130.078C129.919 57.6104 129.789 57.7401 129.789 57.9V58.893C129.789 59.053 129.919 59.1827 130.078 59.1827H135.224C135.384 59.1827 135.513 59.053 135.513 58.893V57.9C135.513 57.7401 135.384 57.6104 135.224 57.6104Z" fill="#004C46"/>
<path d="M135.161 60.6853H128.392C128.197 60.6853 128.039 60.8436 128.039 61.0389V61.904C128.039 62.0993 128.197 62.2577 128.392 62.2577H135.161C135.356 62.2577 135.514 62.0993 135.514 61.904V61.0389C135.514 60.8436 135.356 60.6853 135.161 60.6853Z" fill="#004C46"/>
<path d="M110.688 51.1051V49.0413C110.688 48.5897 111.054 48.2241 111.503 48.2241H115.505C115.955 48.2241 116.32 48.5917 116.32 49.0413V51.1051C116.32 51.5567 115.953 51.9223 115.505 51.9223H111.503C111.052 51.9223 110.688 51.5547 110.688 51.1051ZM111.503 48.4419C111.174 48.4419 110.905 48.7096 110.905 49.0413V51.1051C110.905 51.4348 111.172 51.7045 111.503 51.7045H115.505C115.834 51.7045 116.103 51.4368 116.103 51.1051V49.0413C116.103 48.7116 115.836 48.4419 115.505 48.4419H111.503Z" fill="white"/>
<path d="M134.562 49.7864C134.562 49.7605 134.572 49.7365 134.592 49.7165C135.492 48.8155 135.492 47.347 134.592 46.4459C134.555 46.408 134.555 46.344 134.592 46.3061C134.63 46.2681 134.694 46.2681 134.732 46.3061C135.709 47.285 135.709 48.8794 134.732 49.8584C134.694 49.8963 134.63 49.8963 134.592 49.8584C134.572 49.8384 134.562 49.8144 134.562 49.7884V49.7864Z" fill="white"/>
<path d="M134.062 46.9453C134.062 46.9193 134.072 46.8954 134.092 46.8754C134.13 46.8374 134.194 46.8374 134.232 46.8754C134.896 47.5407 134.896 48.6236 134.232 49.2889C134.194 49.3269 134.13 49.3269 134.092 49.2889C134.055 49.2509 134.055 49.187 134.092 49.149C134.679 48.5616 134.679 47.6046 134.092 47.0153C134.072 46.9953 134.062 46.9713 134.062 46.9453Z" fill="white"/>
<path d="M133.586 48.6916C133.586 48.6656 133.596 48.6417 133.616 48.6217C133.913 48.324 133.913 47.8405 133.616 47.5448C133.578 47.5068 133.578 47.4429 133.616 47.4049C133.654 47.367 133.718 47.367 133.755 47.4049C134.13 47.7805 134.13 48.3899 133.755 48.7635C133.718 48.8015 133.654 48.8015 133.616 48.7635C133.596 48.7435 133.586 48.7196 133.586 48.6936V48.6916Z" fill="white"/>
<path d="M142.388 88.1067H142.067V29.4096C142.067 28.4786 141.311 27.7194 140.38 27.7194H104.484C103.555 27.7194 102.798 28.4766 102.798 29.4096V79.6835H102.477V29.4096C102.477 28.3008 103.378 27.3977 104.484 27.3977H140.38C141.486 27.3977 142.388 28.3008 142.388 29.4096V88.1047V88.1067Z" fill="#2E4882"/>
<path d="M108.612 104.596H104.484C103.378 104.596 102.477 103.693 102.477 102.584V94.1206H102.798V102.584C102.798 103.515 103.553 104.274 104.484 104.274H108.612V104.596Z" fill="#2E4882"/>
<path d="M124.992 104.274H121.172V104.596H124.992V104.274Z" fill="#2E4882"/>
<path d="M144.756 104.112C144.756 104.666 140.705 105.115 135.71 105.115C130.716 105.115 126.664 104.666 126.664 104.112C126.664 104.102 126.666 104.092 126.668 104.082V101.373H144.75V104.076C144.754 104.088 144.756 104.1 144.756 104.112Z" fill="#F49B51"/>
<path d="M135.71 102.4C140.706 102.4 144.756 101.951 144.756 101.397C144.756 100.843 140.706 100.394 135.71 100.394C130.714 100.394 126.664 100.843 126.664 101.397C126.664 101.951 130.714 102.4 135.71 102.4Z" fill="#AC5D00"/>
<path d="M146.889 100.844C146.889 101.397 142.838 101.847 137.843 101.847C132.848 101.847 128.797 101.397 128.797 100.844C128.797 100.834 128.799 100.824 128.801 100.814V98.1045H146.883V100.808C146.887 100.82 146.889 100.832 146.889 100.844Z" fill="#F49B51"/>
<path d="M137.843 99.1314C142.839 99.1314 146.889 98.6824 146.889 98.1284C146.889 97.5745 142.839 97.1255 137.843 97.1255C132.847 97.1255 128.797 97.5745 128.797 98.1284C128.797 98.6824 132.847 99.1314 137.843 99.1314Z" fill="#AC5D00"/>
<path d="M144.756 97.5729C144.756 98.1263 140.705 98.5759 135.71 98.5759C130.716 98.5759 126.664 98.1263 126.664 97.5729C126.664 97.5629 126.666 97.5529 126.668 97.5429V94.8337H144.75V97.5369C144.754 97.5489 144.756 97.5609 144.756 97.5729Z" fill="#F49B51"/>
<path d="M135.71 95.8626C140.706 95.8626 144.756 95.4136 144.756 94.8597C144.756 94.3057 140.706 93.8567 135.71 93.8567C130.714 93.8567 126.664 94.3057 126.664 94.8597C126.664 95.4136 130.714 95.8626 135.71 95.8626Z" fill="#AC5D00"/>
<path d="M135.709 105.221C132.03 105.221 126.555 104.925 126.555 104.112H126.768C126.768 104.424 129.839 105.007 135.709 105.007C135.922 105.007 136.133 105.007 136.343 105.005V105.219C136.135 105.219 135.922 105.221 135.709 105.221Z" fill="#2E4882"/>
<path d="M139.299 105.139L139.289 104.925C140.204 104.881 141.046 104.821 141.785 104.745L141.807 104.959C141.064 105.035 140.22 105.095 139.299 105.139Z" fill="#2E4882"/>
<path d="M132.134 101.711C128.734 101.401 128.734 100.971 128.734 100.83H128.948C128.948 100.933 129.524 101.257 132.152 101.497L132.132 101.711H132.134Z" fill="#2E4882"/>
<path d="M137.891 101.94C136.874 101.94 135.875 101.922 134.922 101.884L134.93 101.671C136.631 101.737 138.513 101.745 140.265 101.691L140.271 101.904C139.496 101.928 138.694 101.94 137.889 101.94H137.891Z" fill="#2E4882"/>
<path d="M142.514 101.799L142.5 101.585C143.465 101.521 144.306 101.439 145 101.341L145.03 101.553C144.33 101.653 143.483 101.735 142.514 101.799Z" fill="#2E4882"/>
<path d="M129.624 95.7128C126.609 95.4051 126.609 95.0155 126.609 94.8696H126.823C126.823 94.8696 126.9 95.2193 129.646 95.501L129.624 95.7148V95.7128Z" fill="#2E4882"/>
<path d="M135.765 95.9786C134.724 95.9786 133.707 95.9586 132.742 95.9206L132.75 95.7068C133.713 95.7448 134.728 95.7648 135.765 95.7648C137.621 95.7648 139.404 95.7028 140.921 95.585L140.937 95.7987C139.416 95.9166 137.627 95.9786 135.765 95.9786Z" fill="#2E4882"/>
<path d="M147.96 94.3043C147.96 94.8578 143.908 95.3073 138.913 95.3073C133.919 95.3073 129.867 94.8578 129.867 94.3043C129.867 94.2944 129.869 94.2844 129.871 94.2744V91.5652H147.954V94.2684C147.958 94.2804 147.96 94.2924 147.96 94.3043Z" fill="#F49B51"/>
<path d="M138.913 92.5921C143.909 92.5921 147.96 92.1431 147.96 91.5891C147.96 91.0352 143.909 90.5862 138.913 90.5862C133.917 90.5862 129.867 91.0352 129.867 91.5891C129.867 92.1431 133.917 92.5921 138.913 92.5921Z" fill="#AC5D00"/>
<path d="M146.282 91.5891C146.282 91.9607 142.982 92.2624 138.914 92.2624C134.847 92.2624 131.547 91.9607 131.547 91.5891C131.547 91.2175 134.847 90.9158 138.914 90.9158C142.982 90.9158 146.282 91.2175 146.282 91.5891Z" fill="#F49B51"/>
<path d="M115.441 86.7623C110.397 86.6244 106.198 90.6103 106.058 95.667C105.921 100.722 109.898 104.931 114.945 105.069C119.989 105.207 124.19 101.221 124.328 96.1645C124.465 91.1098 120.488 86.9021 115.441 86.7623ZM122.545 96.1166C122.492 98.0845 121.676 99.9126 120.248 101.267C118.823 102.622 116.957 103.339 114.993 103.285C110.939 103.173 107.731 99.7808 107.841 95.717C107.894 93.749 108.708 91.9209 110.136 90.5663C111.511 89.2597 113.298 88.5464 115.188 88.5464C115.258 88.5464 115.324 88.5464 115.393 88.5504C119.381 88.6583 122.547 91.9449 122.547 95.9148C122.547 95.9827 122.547 96.0486 122.547 96.1166H122.545Z" fill="#AC5D00"/>
<path d="M122.551 95.9147C122.551 95.9827 122.551 96.0486 122.551 96.1165C122.497 98.0845 121.682 99.9126 120.254 101.267C118.829 102.622 116.962 103.339 114.998 103.285C110.945 103.173 107.737 99.7807 107.846 95.7169C107.9 93.749 108.714 91.9209 110.141 90.5663C111.517 89.2596 113.304 88.5464 115.194 88.5464C115.264 88.5464 115.329 88.5464 115.399 88.5504C119.387 88.6583 122.555 91.9449 122.555 95.9147H122.551Z" fill="#F49B51"/>
<path d="M114.728 101.553V100.166C113.933 100.152 113.111 99.9047 112.633 99.5631L112.962 98.644C113.454 98.9737 114.168 99.2334 114.936 99.2334C115.909 99.2334 116.567 98.67 116.567 97.8888C116.567 97.1076 116.032 96.6661 115.017 96.2545C113.62 95.7051 112.756 95.0737 112.756 93.879C112.756 92.6842 113.564 91.8751 114.826 91.6693V90.2827H115.675V91.6153C116.497 91.6433 117.059 91.8631 117.456 92.0968L117.113 93.0039C116.826 92.8401 116.264 92.5364 115.386 92.5364C114.332 92.5364 113.935 93.1677 113.935 93.7172C113.935 94.4304 114.441 94.788 115.634 95.2815C117.045 95.8589 117.757 96.5722 117.757 97.7949C117.757 98.8798 117.003 99.8947 115.592 100.129V101.557H114.728V101.553Z" fill="#AC5D00"/>
<path d="M122.243 94.0707C122.227 94.0107 122.211 93.9508 122.193 93.8909C121.609 91.871 120.189 90.2067 118.289 89.3156L118.373 89.1338C120.323 90.0488 121.784 91.7571 122.38 93.8209C122.402 93.8949 122.418 93.9548 122.434 94.0167L122.241 94.0667L122.243 94.0707Z" fill="#2E4882"/>
<path d="M118.296 89.3176C116.769 88.6003 115.032 88.4405 113.401 88.866L113.352 88.6722C115.026 88.2347 116.813 88.4005 118.382 89.1358L118.298 89.3176H118.296Z" fill="#2E4882"/>
<path d="M121.656 99.683L121.484 99.5811C121.973 98.7479 122.288 97.8469 122.419 96.9019L122.617 96.9298C122.481 97.9008 122.158 98.8259 121.656 99.683Z" fill="#2E4882"/>
<path d="M121.138 89.1058C120.432 88.4865 119.639 87.983 118.781 87.6094L118.867 87.4136C119.746 87.7952 120.558 88.3106 121.28 88.946L121.138 89.1078V89.1058Z" fill="#2E4882"/>
<path d="M120.354 103.605L120.234 103.427C122.653 101.795 124.144 99.0796 124.224 96.1626C124.274 94.3505 123.787 92.5863 122.82 91.0639L123 90.948C123.991 92.5084 124.487 94.3125 124.437 96.1686C124.356 99.1555 122.83 101.935 120.354 103.607V103.605Z" fill="#2E4882"/>
<path d="M137.912 50.07H137.698V45.9923C137.698 45.4608 137.266 45.0273 136.735 45.0273H118.531V44.8135H136.735C137.383 44.8135 137.912 45.3429 137.912 45.9923V50.07Z" fill="#2E4882"/>
<path d="M137.909 52.2119H137.695V54.5715H137.909V52.2119Z" fill="#2E4882"/>
<path d="M116.179 44.8115H112.469V45.0253H116.179V44.8115Z" fill="#2E4882"/>
<path d="M49.8338 22.7425C51.3132 21.5398 52.673 20.0913 53.3151 18.2951C53.9551 16.499 53.7358 14.2993 52.3859 12.9527C51.2853 11.8558 49.6145 11.4842 48.0732 11.658C46.53 11.8319 45.0844 12.4892 43.7086 13.2064C41.0747 14.581 25.7499 24.1011 31.0775 27.2379C36.2057 30.2567 45.874 25.9632 49.8378 22.7425H49.8338Z" fill="#1F2637"/>
<path d="M14.5975 48.1361L14.4141 48.0263C16.5754 44.414 20.0567 41.9625 25.3723 40.3123L25.4361 40.516C20.1743 42.1483 16.7309 44.5698 14.5995 48.1361H14.5975Z" fill="#2E4882"/>
<path d="M11.8264 49.5426L11.625 49.4687C14.4144 41.7846 21.5764 39.3192 28.2139 37.9207L28.2578 38.1304C21.6781 39.517 14.5799 41.9565 11.8264 49.5426Z" fill="#2E4882"/>
<path d="M108.45 4.7851C103.545 2.2737 99.3936 1.59641 95.382 2.65531L95.3281 2.44752C99.3936 1.37464 103.593 2.05593 108.547 4.5933L108.45 4.7831V4.7851Z" fill="#2E4882"/>
<path d="M112.133 5.0548C106.459 1.44255 99.6775 -1.77811 92.4198 1.72426L92.3281 1.53046C99.6815 -2.01786 106.524 1.22877 112.251 4.87299L112.135 5.0528L112.133 5.0548Z" fill="#2E4882"/>
<path d="M85.3944 14.8047C80.3499 14.6669 76.1508 18.6528 76.0113 23.7095C75.8737 28.7643 79.8515 32.9739 84.8979 33.1118C89.9424 33.2496 94.1435 29.2637 94.281 24.207C94.4186 19.1522 90.4409 14.9446 85.3944 14.8047ZM92.4985 24.159C92.4447 26.127 91.6292 27.9551 90.2016 29.3097C88.776 30.6643 86.9097 31.3816 84.9458 31.3276C80.8923 31.2157 77.6841 27.8232 77.7938 23.7595C77.8476 21.7915 78.6611 19.9634 80.0887 18.6088C81.4645 17.3022 83.251 16.5889 85.1412 16.5889C85.211 16.5889 85.2768 16.5889 85.3465 16.5929C89.3343 16.7008 92.5005 19.9874 92.5005 23.9573C92.5005 24.0252 92.5005 24.0911 92.5005 24.159H92.4985Z" fill="#AC5D00"/>
<path d="M92.5043 23.9572C92.5043 24.0252 92.5043 24.0911 92.5043 24.159C92.4505 26.127 91.635 27.9551 90.2074 29.3097C88.7818 30.6643 86.9155 31.3815 84.9516 31.3276C80.8981 31.2157 77.6899 27.8232 77.7996 23.7594C77.8534 21.7915 78.6669 19.9634 80.0945 18.6088C81.4703 17.3021 83.2568 16.5889 85.147 16.5889C85.2168 16.5889 85.2826 16.5889 85.3524 16.5929C89.3401 16.7008 92.5083 19.9873 92.5083 23.9572H92.5043Z" fill="#F49B51"/>
<path d="M84.6815 29.5955V28.2089C83.8859 28.195 83.0645 27.9472 82.5859 27.6056L82.9149 26.6865C83.4074 27.0162 84.1212 27.2759 84.8889 27.2759C85.8619 27.2759 86.5198 26.7125 86.5198 25.9313C86.5198 25.1501 85.9855 24.7086 84.9706 24.297C83.5729 23.7476 82.7096 23.1162 82.7096 21.9215C82.7096 20.7267 83.5171 19.9175 84.7792 19.7118V18.3252H85.6286V19.6578C86.45 19.6858 87.0123 19.9056 87.4091 20.1373L87.0661 21.0444C86.779 20.8805 86.2168 20.5769 85.3395 20.5769C84.2847 20.5769 83.8879 21.2082 83.8879 21.7576C83.8879 22.4709 84.3944 22.8285 85.5867 23.322C86.9984 23.8994 87.7102 24.6127 87.7102 25.8354C87.7102 26.9203 86.9565 27.9352 85.5448 28.169V29.5975H84.6815V29.5955Z" fill="#AC5D00"/>
<path d="M92.2096 22.1292C92.1937 22.0653 92.1758 22.0033 92.1578 21.9414C91.5776 19.9295 90.156 18.2672 88.2578 17.3761L88.3416 17.1943C90.2915 18.1094 91.7531 19.8176 92.3492 21.8815C92.3692 21.9494 92.3871 22.0133 92.403 22.0773L92.2096 22.1272V22.1292Z" fill="#2E4882"/>
<path d="M88.2651 17.3762C86.7378 16.6589 84.9991 16.4991 83.3702 16.9246L83.3203 16.7308C84.9952 16.2933 86.7817 16.4591 88.3508 17.1943L88.2671 17.3762H88.2651Z" fill="#2E4882"/>
<path d="M77.9771 25.8374C77.4766 23.9054 77.7557 21.8935 78.7626 20.1753L78.9341 20.2772C77.9531 21.9495 77.68 23.9074 78.1685 25.7875L77.9751 25.8374H77.9771Z" fill="#2E4882"/>
<path d="M91.0989 17.316C90.3931 16.6967 89.5995 16.1932 88.7422 15.8196L88.8279 15.6238C89.7072 16.0054 90.5187 16.5209 91.2405 17.1562L91.0989 17.318V17.316Z" fill="#2E4882"/>
<path d="M90.3071 31.8151L90.1875 31.6373C92.6061 30.005 94.0975 27.2898 94.1772 24.3728C94.2271 22.5607 93.7406 20.7965 92.7735 19.2741L92.953 19.1582C93.9439 20.7186 94.4404 22.5227 94.3906 24.3788C94.3088 27.3657 92.7835 30.1448 90.3071 31.8151Z" fill="#2E4882"/>
<path d="M83.8804 43.6828L84.6899 40.2065L87.9957 38.8279L88.5839 43.6828C88.5839 43.6828 88.0934 46.8376 85.0528 47.9664C82.0122 49.0972 83.8804 43.6828 83.8804 43.6828Z" fill="#FCB47E"/>
<path d="M82.5768 34.5424C82.5768 34.5424 81.4004 41.0776 83.3125 41.1275C85.2246 41.1775 86.7938 40.4403 87.1866 39.9967C87.5794 39.5552 87.8725 37.3934 87.8725 37.3934C87.8725 37.3934 88.1177 34.5923 86.9413 34.0529C85.7649 33.5114 83.2148 32.5784 82.5768 34.5444V34.5424Z" fill="#FCB47E"/>
<path d="M88.8705 38.6999C88.4956 39.3952 88.1228 40.0765 88.1228 40.0765C87.5645 39.9886 86.9464 39.2893 86.8367 38.686C86.8367 38.686 85.0781 38.5221 85.0163 36.3404C85.0163 36.3404 81.9637 36.3604 81.8919 33.7051C81.8182 31.0519 84.8708 31.7352 85.8817 32.5463C86.8925 33.3555 87.5047 33.7691 89.0798 34.2785C90.7347 34.814 89.351 37.8089 88.8705 38.6999Z" fill="#374263"/>
<path d="M87.4425 101.824L87.0656 97.9624H82.9922L83.8775 101.713C83.8775 101.713 84.35 102.969 85.7198 102.923C87.0357 102.879 87.4425 101.824 87.4425 101.824Z" fill="#FCB47E"/>
<path d="M107.502 89.7429L104.374 87.4553L101.664 90.5042L105.674 92.54C105.674 92.54 106.17 92.6379 107.175 91.7609C108.168 90.8938 107.502 89.741 107.502 89.741V89.7429Z" fill="#FCB47E"/>
<path d="M90.8727 99.1654C88.514 100.058 85.5013 99.8147 82.2533 99.1654C82.1596 98.9376 82.0658 98.7118 81.9761 98.4821C75.7872 82.8083 80.1697 60.0439 80.1697 60.0439H89.9017L89.6824 67.5681C89.2557 69.5561 88.9626 71.57 88.7732 73.5659C87.537 86.6923 90.8727 99.1654 90.8727 99.1654Z" fill="#00BBAB"/>
<path d="M90.8738 99.1595C90.7222 98.8538 85.1793 87.5675 86.8302 74.8347L88.5868 76.2532C87.9926 88.1729 90.794 98.8598 90.8738 99.1595Z" fill="#385087"/>
<path d="M106.602 85.6613C105.709 88.1747 104.758 90.1247 103.723 91.2655C103.243 91.7949 102.744 92.1506 102.224 92.3044C100.732 91.5372 99.3665 90.7061 98.1163 89.825C97.9449 89.7071 97.7794 89.5872 97.6119 89.4653C97.3906 89.3035 97.1712 89.1377 96.9599 88.9719C96.8622 88.8959 96.7645 88.822 96.6708 88.7441C96.4794 88.5942 96.29 88.4404 96.1065 88.2886C95.941 88.1507 95.7795 88.0129 95.622 87.875C94.7826 87.1458 94.009 86.3965 93.2932 85.6273C93.2254 85.5554 93.1556 85.4795 93.0898 85.4076C93.04 85.3536 92.9921 85.2977 92.9423 85.2457H92.9403C83.1245 74.3111 84.9269 60.0479 84.9269 60.0479H93.4646C94.1964 73.7237 106.6 85.6633 106.6 85.6633L106.602 85.6613Z" fill="#00BBAB"/>
<path d="M95.3784 30.4346C94.6506 29.9012 94.1422 29.6075 94.0186 29.5196C93.8631 29.4077 93.8272 29.132 93.6457 28.8523C93.229 28.2109 92.3617 27.0781 91.4664 26.7644C91.3508 26.7225 91.2631 26.8463 91.3867 26.9782C91.606 27.2199 92.0207 27.5676 91.9569 27.6255C91.8194 27.7414 90.8483 26.5706 90.5752 26.8423C90.3698 27.0481 91.7755 28.091 91.7197 28.157C91.61 28.2888 90.5513 27.0921 90.294 27.3638C90.0488 27.6195 91.3189 28.2908 91.2651 28.4027C91.2072 28.5186 90.3279 27.7894 90.1545 27.9552C89.8913 28.2069 91.4784 29.1919 91.4345 29.3377C91.3787 29.5735 90.5572 29.08 90.4356 29.3597C90.316 29.6215 91.4644 30.1149 91.6818 30.2248C92.1842 30.4766 92.5491 30.3667 92.9499 30.994C93.1712 31.3377 93.3885 31.6813 93.6039 32.027L95.3784 30.4346Z" fill="#FCB47E"/>
<path d="M75.2656 31.2156C75.9336 30.6083 76.4061 30.2606 76.5198 30.1607C76.6613 30.0329 76.6693 29.7551 76.8188 29.4575C77.1658 28.7762 77.9055 27.5574 78.7629 27.1479C78.8725 27.0939 78.9742 27.2058 78.8645 27.3516C78.6731 27.6154 78.2983 28.005 78.3681 28.0569C78.5176 28.1568 79.357 26.8901 79.6581 27.1299C79.8854 27.3117 78.5994 28.5005 78.6612 28.5584C78.7848 28.6783 79.708 27.3756 79.9931 27.6174C80.2642 27.8471 79.0719 28.6483 79.1397 28.7542C79.2095 28.8641 80.007 28.0429 80.1964 28.1908C80.4836 28.4125 79.0121 29.5633 79.0699 29.7032C79.1517 29.933 79.9133 29.3536 80.0648 29.6173C80.2124 29.865 79.1218 30.4784 78.9184 30.6103C78.4458 30.9139 78.071 30.846 77.74 31.5113C77.5566 31.8769 77.3771 32.2406 77.1997 32.6082L75.2656 31.2136V31.2156Z" fill="#FCB47E"/>
<path d="M93.5541 61.1607C92.7925 61.6462 91.4586 62.4334 89.8156 63.1147C88.3422 63.7221 86.6195 64.2495 84.835 64.4053C83.1023 64.5572 81.3078 64.3574 79.625 63.5462C79.7327 62.7471 79.8344 62.0678 79.9201 61.5263C81.4633 62.3455 83.1382 62.6891 84.7991 62.7371C86.5517 62.789 88.2903 62.5073 89.8455 62.1017C91.2672 61.7321 92.5373 61.2566 93.5222 60.8311C93.5302 60.9409 93.5422 61.0508 93.5541 61.1607Z" fill="#385087"/>
<path d="M78.0186 60.1236V49.3608C78.0186 49.3608 68.3663 47.7185 70.2624 38.3542C71.4667 32.4044 75.7057 30.2786 75.7057 30.2786L78.0564 32.1706C78.0564 32.1706 73.0578 39.8247 79.6376 42.4839C79.6376 42.4839 83.3382 42.368 84.3012 43.411C84.3012 43.411 86.4207 45.1112 88.6578 42.2901C88.6578 42.2901 90.9328 41.401 92.8708 41.9245C94.4659 42.354 96.5216 38.3902 92.7054 31.6691L95.096 29.5054C95.096 29.5054 109.089 42.9854 95.3652 49.6685L94.5995 60.4213C94.5995 60.4213 83.9782 66.4571 78.0186 60.1216V60.1236Z" fill="#009386"/>
<path d="M86.4179 39.0777C86.8386 39.0777 87.1796 38.736 87.1796 38.3145C87.1796 37.893 86.8386 37.5513 86.4179 37.5513C85.9973 37.5513 85.6562 37.893 85.6562 38.3145C85.6562 38.736 85.9973 39.0777 86.4179 39.0777Z" fill="#FCB47E"/>
<path d="M88.4893 78.9183C86.6948 75.4299 85.5224 71.548 85 67.3843L85.1695 67.3623C85.6899 71.506 86.8563 75.368 88.6408 78.8384L88.4893 78.9163V78.9183Z" fill="white"/>
<path d="M93.075 66.599C90.3733 66.599 89.51 64.2474 89.5 64.2235L89.6595 64.1655C89.6675 64.1895 90.5129 66.4971 93.2006 66.4272L93.2046 66.597C93.1607 66.597 93.1169 66.597 93.073 66.597L93.075 66.599Z" fill="white"/>
<path d="M85.6523 44.8157C85.6024 44.8157 85.5506 44.8137 85.5007 44.8097C84.2865 44.6978 83.6724 43.2773 83.6484 43.2153L83.804 43.1494C83.8099 43.1634 84.4041 44.538 85.5167 44.6399C86.4518 44.7258 87.4846 43.9206 88.5892 42.2463L88.7308 42.3402C87.6461 43.9845 86.6113 44.8157 85.6523 44.8157Z" fill="#2E4882"/>
<path d="M78.0205 49.363C78.0205 49.363 68.3662 47.7207 70.2624 38.3544C70.3641 37.8429 70.4917 37.3554 70.6372 36.8999C70.6612 36.8739 70.6871 36.8479 70.709 36.824C70.5495 38.9378 70.4737 40.7899 71.4089 42.7918C73.3628 46.9794 78.1541 49.351 78.0205 49.361V49.363Z" fill="#00BBAB"/>
<path d="M95.3674 49.6707L94.6018 60.4235C94.6018 60.4235 92.3966 61.6782 89.4297 62.4434C89.9421 62.0538 92.1015 58.7452 92.4624 57.073C93.1104 54.0741 93.1921 52.3479 93.2759 49.1532C96.47 48.3221 100.109 45.503 101.361 40.7979C101.646 44.0065 100.286 47.2731 95.3674 49.6707Z" fill="#00BBAB"/>
<path d="M85.1592 61.8898C85.1293 61.8898 85.1134 61.8898 85.1094 61.8898L85.1134 61.72C85.1592 61.72 89.6454 61.7839 93.5295 59.4104L93.6172 59.5563C89.9106 61.8199 85.6617 61.8918 85.1592 61.8918V61.8898Z" fill="#2E4882"/>
<path d="M103.718 91.2634C103.238 91.7929 102.739 92.1485 102.219 92.3023C100.728 91.5351 99.3617 90.704 98.1116 89.8229C97.9401 89.705 97.7746 89.5851 97.6071 89.4633C97.3858 89.3014 97.1665 89.1356 96.9551 88.9698C96.8574 88.8939 96.7597 88.8199 96.666 88.742C96.4746 88.5922 96.2852 88.4383 96.1018 88.2865C95.9363 88.1486 95.7748 88.0108 95.6173 87.8729C94.7778 87.1437 94.0042 86.3945 93.2884 85.6253C93.2206 85.5533 93.1508 85.4774 93.085 85.4055C93.0352 85.3515 92.9873 85.2956 92.9375 85.2437C98.7755 90.0786 102.51 91.0656 103.716 91.2654L103.718 91.2634Z" fill="#385087"/>
<path d="M105.333 85.3176C101.224 82.6444 98.6119 77.8114 98.5859 77.7634L98.7275 77.6875C98.7534 77.7355 101.345 82.5305 105.421 85.1817L105.333 85.3156V85.3176Z" fill="white"/>
<path d="M87.9615 104.899H78.7199C78.3989 104.899 78.1417 104.626 78.1656 104.304C78.1656 104.3 78.1656 104.296 78.1656 104.292C78.1716 104.222 78.1816 104.148 78.1915 104.076C78.2234 103.83 78.2892 103.583 78.4049 103.429C78.8435 102.845 79.6929 102.58 81.2102 101.978C82.1613 101.599 82.9688 101.095 83.3237 100.86C83.4394 100.782 83.5889 100.802 83.6886 100.897C85.517 102.688 86.6375 102.306 86.9745 101.569C87.2317 101.005 87.5946 101.123 87.6943 101.289C88.0013 101.805 88.1708 103.317 88.2386 104.076C88.2466 104.158 88.2546 104.232 88.2585 104.292C88.2685 104.434 88.2765 104.52 88.2765 104.52C88.3104 104.718 88.1588 104.899 87.9595 104.899H87.9615Z" fill="#374263"/>
<path d="M81.7353 102.951C81.0793 102.632 81.177 101.952 81.177 101.946L81.3345 101.97C81.3305 101.994 81.2568 102.54 81.8031 102.805L81.7333 102.949L81.7353 102.951Z" fill="white"/>
<path d="M80.9222 103.225C80.318 102.883 80.3838 102.294 80.3858 102.27L80.5453 102.29C80.5433 102.31 80.4935 102.799 81.0019 103.087L80.9222 103.227V103.225Z" fill="white"/>
<path d="M86.1395 102.821C85.5214 102.821 84.9611 102.54 84.9531 102.534L85.0269 102.39C85.0409 102.398 86.4425 103.103 87.1643 102.204L87.2899 102.304C86.9729 102.7 86.5442 102.819 86.1415 102.819L86.1395 102.821Z" fill="white"/>
<path d="M87.1354 104.178H81.75V104.338H87.1354V104.178Z" fill="white"/>
<path d="M81.0553 104.178H79.7812V104.338H81.0553V104.178Z" fill="white"/>
<path d="M110.262 90.3004L105.748 98.38C105.59 98.6617 105.227 98.7536 104.958 98.5738C104.956 98.5738 104.952 98.5698 104.95 98.5678C104.89 98.5279 104.833 98.4839 104.773 98.44C104.575 98.2901 104.392 98.1123 104.316 97.9365C104.023 97.2692 104.206 96.3961 104.424 94.7758C104.559 93.7588 104.513 92.8098 104.484 92.3802C104.474 92.2424 104.563 92.1205 104.695 92.0805C107.147 91.3573 107.363 90.1905 106.884 89.5352C106.519 89.0357 106.798 88.774 106.992 88.768C107.592 88.75 108.99 89.3394 109.684 89.6531C109.761 89.685 109.829 89.715 109.885 89.741C110.013 89.8009 110.09 89.8369 110.09 89.8369C110.28 89.9028 110.361 90.1246 110.266 90.3004H110.262Z" fill="#374263"/>
<path d="M104.676 94.8777C104.522 94.8777 104.41 94.8557 104.398 94.8537L104.43 94.6958C104.43 94.6958 105.096 94.8277 105.423 94.4001L105.551 94.498C105.308 94.8157 104.931 94.8777 104.674 94.8777H104.676Z" fill="white"/>
<path d="M104.605 95.7529C104.452 95.7529 104.34 95.7309 104.328 95.7289L104.36 95.5711C104.36 95.5711 105.026 95.7029 105.353 95.2754L105.481 95.3733C105.237 95.691 104.86 95.7529 104.603 95.7529H104.605Z" fill="white"/>
<path d="M106.893 91.7829L106.789 91.661C106.801 91.6511 107.985 90.6181 107.427 89.6092L107.567 89.5312C108.187 90.6561 106.905 91.7709 106.891 91.7829H106.893Z" fill="white"/>
<path d="M109.112 90.842L106.531 95.5786L106.671 95.6552L109.252 90.9186L109.112 90.842Z" fill="white"/>
<path d="M106.196 96.1863L105.586 97.3069L105.726 97.3835L106.336 96.2629L106.196 96.1863Z" fill="white"/>
<path d="M79.6066 42.59C79.5229 42.566 77.551 41.9866 76.5261 40.0985C75.8203 38.7959 75.7485 37.1996 76.3148 35.3555L76.5181 35.4194C75.9698 37.2055 76.0356 38.744 76.7115 39.9947C77.6905 41.8028 79.6445 42.3782 79.6625 42.3842L79.6046 42.59H79.6066Z" fill="#2E4882"/>
<path d="M84.6151 36.4662C83.8714 36.4662 82.701 36.1485 82.0889 35.3833C81.71 34.9098 81.401 34.0727 82.0829 32.78L82.2245 32.854C81.71 33.8309 81.7061 34.6481 82.2145 35.2834C82.9243 36.1705 84.4217 36.4242 84.9999 36.2664L85.0418 36.4223C84.9281 36.4522 84.7826 36.4702 84.6151 36.4702V36.4662Z" fill="#374263"/>
<path d="M83.9255 36.6221C83.411 36.6221 82.7949 36.4802 82.125 36.0367L82.2127 35.9028C83.9653 37.0616 85.3092 36.0627 85.3212 36.0527L85.4189 36.1805C85.4189 36.1805 84.8247 36.6221 83.9235 36.6221H83.9255Z" fill="#374263"/>
<path d="M7.00981 63.1526C7.00981 63.2125 7.0118 63.2725 7.01379 63.3324C7.18327 70.7048 8.23603 76.4028 9.74539 80.8063L13.6534 82.966L10.515 82.6464L10.4253 82.6384C12.3713 87.4634 14.8716 90.5162 17.1845 92.4422C18.6221 93.643 19.9899 94.4082 21.1024 94.8917C21.1762 94.9236 21.248 94.9556 21.3198 94.9836C21.4992 95.0595 21.6727 95.1254 21.8362 95.1854H23.9237C23.9477 95.0875 23.9696 94.9896 23.9895 94.8917C24.0035 94.8297 24.0175 94.7678 24.0294 94.7059C24.0494 94.6239 24.0653 94.542 24.0813 94.4621C26.0452 84.8321 22.548 77.4158 18.2153 72.2252C18.2034 72.2072 18.1894 72.1912 18.1734 72.1732C16.6661 70.3731 15.057 68.8407 13.5457 67.578L12.7481 69.9755L12.4431 66.6929C9.81717 64.651 7.6618 63.4922 7.13343 63.2205C7.05168 63.1786 7.00781 63.1566 7.00781 63.1566L7.00981 63.1526Z" fill="#00BBAB"/>
<path d="M6.9375 63.1905L7.01526 63.3303L11.7587 72.0792L11.8444 72.2331L13.1384 74.6186L13.1823 74.6985L17.3056 82.3006L17.3116 82.3106L24.0329 94.7038L24.1346 94.8876L24.2941 95.1833H24.4775L24.318 94.8876L24.0847 94.458L17.4511 82.2307L17.3275 82.003L7.13489 63.2144L7.07906 63.1125L6.9375 63.1905Z" fill="white"/>
<path d="M7.71359 71.2812L7.64062 71.4004L13.134 74.7762L13.207 74.657L7.71359 71.2812Z" fill="white"/>
<path d="M7.58078 69.5085L7.50781 69.6277L11.8131 72.2734L11.8861 72.1542L7.58078 69.5085Z" fill="white"/>
<path d="M17.9582 82.938L18.7518 72.8445L18.5962 72.8325L17.8047 82.9281L17.9582 82.938Z" fill="white"/>
<path d="M24.9265 97.1952C24.9265 97.1952 20.1133 99.7905 12.8716 95.9645L15.0927 94.7617L11.3841 95.1054C8.54289 93.3272 5.38262 90.5581 2.02894 86.3145L2.87633 85.857L1.75179 85.9609C1.18553 85.2356 0.615289 84.4664 0.0390625 83.6533C0.0390625 83.6533 2.09075 83.3616 5.05762 83.5494L6.67863 85.5233L6.15025 83.6393C12.2256 84.2406 21.166 86.9438 24.9285 97.1952H24.9265Z" fill="#00BBAB"/>
<path d="M0.0722688 83.5868L0 83.7271L25.2385 96.7858L25.3108 96.6455L0.0722688 83.5868Z" fill="white"/>
<path d="M6.59621 87.0413L3.10938 87.5872L3.13215 87.7332L6.61899 87.1873L6.59621 87.0413Z" fill="white"/>
<path d="M8.3244 87.9043L4.27344 88.8489L4.30688 88.9929L8.35784 88.0483L8.3244 87.9043Z" fill="white"/>
<path d="M66.7389 67.6897H22.6805C21.6014 67.6897 20.7266 68.5663 20.7266 69.6477V99.7025C20.7266 100.784 21.6014 101.66 22.6805 101.66H66.7389C67.8181 101.66 68.6929 100.784 68.6929 99.7025V69.6477C68.6929 68.5663 67.8181 67.6897 66.7389 67.6897Z" fill="#009386"/>
<path d="M67.2421 71.2161V98.1362C67.2421 99.275 66.321 100.2 65.1825 100.2H62.074V70.8984H23.3771C22.8966 70.8984 22.5078 70.5088 22.5078 70.0273C22.5078 69.5458 22.8966 69.1562 23.3771 69.1562H65.1825C66.319 69.1562 67.2421 70.0793 67.2421 71.2201V71.2161Z" fill="#2E4882"/>
<path d="M55.486 68.1313C55.5279 68.1833 55.5718 68.2352 55.6116 68.2892C56.8119 69.8455 57.3363 71.7795 57.0871 73.7335C56.8379 75.6855 55.8469 77.4237 54.2917 78.6284C51.0836 81.1139 46.4558 80.5205 43.9754 77.3038C42.7751 75.7474 42.2488 73.8154 42.498 71.8615C42.7393 69.9774 43.6724 68.2912 45.1339 67.0944C45.1877 67.0504 45.2396 67.0105 45.2954 66.9665C48.4517 64.5211 52.9777 65.0565 55.488 68.1313H55.486Z" fill="#F49B51"/>
<path d="M49.3299 78.5306V77.144C48.5344 77.13 47.7129 76.8823 47.2344 76.5406L47.5634 75.6216C48.0558 75.9512 48.7697 76.211 49.5373 76.211C50.5103 76.211 51.1683 75.6476 51.1683 74.8664C51.1683 74.0852 50.6339 73.6436 49.619 73.2321C48.2213 72.6826 47.358 72.0513 47.358 70.8565C47.358 69.6618 48.1655 68.8526 49.4276 68.6468V67.2603H50.277V68.5929C51.0985 68.6208 51.6607 68.8406 52.0575 69.0744L51.7146 69.9814C51.4275 69.8176 50.8652 69.5139 49.9879 69.5139C48.9331 69.5139 48.5364 70.1453 48.5364 70.6947C48.5364 71.408 49.0428 71.7656 50.2351 72.2591C51.6468 72.8365 52.3586 73.5497 52.3586 74.7725C52.3586 75.8573 51.6049 76.8723 50.1933 77.106V78.5346H49.3299V78.5306Z" fill="#AC5D00"/>
<path d="M52.1023 63.9377C47.2213 62.6571 42.2267 65.584 40.9486 70.477C39.6705 75.3679 42.5915 80.3727 47.4745 81.6534C52.3555 82.934 57.3501 80.0071 58.6282 75.1141C59.9062 70.2232 56.9852 65.2184 52.1023 63.9377ZM56.9055 74.6626C56.407 76.5666 55.2007 78.163 53.504 79.156C51.8092 80.1509 49.8293 80.4246 47.9271 79.9252C44.0052 78.8962 41.6484 74.8604 42.6753 70.9285C43.1737 69.0245 44.378 67.4281 46.0748 66.4332C47.7098 65.4741 49.6119 65.1864 51.4523 65.614C51.5201 65.63 51.5839 65.646 51.6517 65.6639C55.5118 66.6749 57.8526 70.5948 56.9533 74.4628C56.9374 74.5288 56.9234 74.5927 56.9055 74.6586V74.6626Z" fill="#AC5D00"/>
<path d="M36.4022 56.803C31.3577 56.6652 27.1587 60.651 27.0191 65.7078C26.8815 70.7626 30.8593 74.9722 35.9057 75.11C40.9502 75.2479 45.1513 71.262 45.2889 66.2053C45.4264 61.1505 41.4487 56.9429 36.4022 56.803ZM43.5063 66.1573C43.4525 68.1253 42.637 69.9534 41.2094 71.308C39.7838 72.6626 37.9175 73.3798 35.9536 73.3259C31.9001 73.214 28.6919 69.8215 28.8016 65.7577C28.8554 63.7898 29.6689 61.9617 31.0965 60.6071C32.4723 59.3004 34.2588 58.5872 36.149 58.5872C36.2188 58.5872 36.2846 58.5872 36.3544 58.5912C40.3421 58.6991 43.5083 61.9857 43.5083 65.9555C43.5083 66.0235 43.5083 66.0894 43.5083 66.1573H43.5063Z" fill="#AC5D00"/>
<path d="M41.8454 61.2886C41.8873 61.3405 41.9311 61.3924 41.971 61.4464C43.1713 63.0028 43.6957 64.9368 43.4465 66.8907C43.1972 68.8427 42.2063 70.5809 40.6511 71.7857C37.4429 74.2711 32.8152 73.6777 30.3348 70.461C29.1345 68.9047 28.6081 66.9727 28.8574 65.0187C29.0986 63.1346 30.0318 61.4484 31.4933 60.2516C31.5471 60.2077 31.5989 60.1677 31.6548 60.1238C34.811 57.6783 39.3371 58.2137 41.8474 61.2886H41.8454Z" fill="#F49B51"/>
<path d="M35.6893 71.5918V70.2053C34.8937 70.1913 34.0723 69.9436 33.5938 69.6019L33.9227 68.6829C34.4152 69.0125 35.129 69.2722 35.8967 69.2722C36.8697 69.2722 37.5276 68.7088 37.5276 67.9276C37.5276 67.1465 36.9933 66.7049 35.9784 66.2933C34.5807 65.7439 33.7174 65.1126 33.7174 63.9178C33.7174 62.723 34.5249 61.9139 35.787 61.7081V60.3215H36.6364V61.6541C37.4579 61.6821 38.0201 61.9019 38.4169 62.1356L38.074 63.0427C37.7868 62.8789 37.2246 62.5752 36.3473 62.5752C35.2925 62.5752 34.8957 63.2065 34.8957 63.756C34.8957 64.4692 35.4022 64.8269 36.5945 65.3203C38.0062 65.8977 38.718 66.611 38.718 67.8337C38.718 68.9186 37.9643 69.9336 36.5526 70.1673V71.5958H35.6893V71.5918Z" fill="#AC5D00"/>
<path d="M42.0989 59.2066C41.3931 58.5873 40.5995 58.0838 39.7422 57.7102L39.8279 57.5144C40.7072 57.896 41.5187 58.4115 42.2405 59.0468L42.0989 59.2086V59.2066Z" fill="#2E4882"/>
<path d="M41.3071 73.7055L41.1875 73.5276C43.6061 71.8953 45.0975 69.1802 45.1772 66.2632C45.2271 64.4511 44.7406 62.6869 43.7735 61.1645L43.953 61.0486C44.9439 62.609 45.4404 64.4131 45.3906 66.2692C45.3088 69.2561 43.7835 72.0352 41.3071 73.7075V73.7055Z" fill="#2E4882"/>
<path d="M43.1335 64.0775C43.1176 64.0155 43.0996 63.9536 43.0817 63.8917C42.4995 61.8777 41.0798 60.2155 39.1797 59.3244L39.2634 59.1426C41.2134 60.0576 42.6749 61.7659 43.2711 63.8297C43.291 63.8996 43.309 63.9616 43.3249 64.0255L43.1315 64.0755L43.1335 64.0775Z" fill="#2E4882"/>
<path d="M39.1792 59.3224C37.6519 58.6052 35.9152 58.4454 34.2842 58.8709L34.2344 58.6771C35.9092 58.2396 37.6957 58.4054 39.2649 59.1406L39.1811 59.3224H39.1792Z" fill="#2E4882"/>
<path d="M42.5387 69.6898L42.3672 69.5879C42.8557 68.7548 43.1707 67.8537 43.3023 66.9087L43.4997 66.9367C43.3641 67.9077 43.0411 68.8327 42.5387 69.6898Z" fill="#2E4882"/>
<path d="M63.6724 70.9304H22.6207C21.5746 70.9304 20.7266 71.7802 20.7266 72.8285V102.574C20.7266 103.622 21.5746 104.472 22.6207 104.472H63.6724C64.7185 104.472 65.5666 103.622 65.5666 102.574V72.8285C65.5666 71.7802 64.7185 70.9304 63.6724 70.9304Z" fill="#009386"/>
<path d="M37.8503 103.153H24.3638C23.3489 103.153 22.5234 102.326 22.5234 101.309V98.7075H22.7368V101.309C22.7368 102.208 23.4665 102.939 24.3638 102.939H37.8503V103.153Z" fill="#2E4882"/>
<path d="M45.2822 102.937H41.125V103.151H45.2822V102.937Z" fill="#2E4882"/>
<path d="M63.7783 77.6794H63.5649V74.0931C63.5649 73.194 62.8352 72.4628 61.9379 72.4628H44.3281V72.249H61.9379C62.9528 72.249 63.7783 73.0762 63.7783 74.0931V77.6794Z" fill="#2E4882"/>
<path d="M41.1593 72.249H37.1875V72.4628H41.1593V72.249Z" fill="#2E4882"/>
<path d="M22.7368 90.7998H22.5234V95.8626H22.7368V90.7998Z" fill="#2E4882"/>
<path d="M68.6419 80.8123V90.2904C68.6419 91.4812 67.6809 92.4462 66.4905 92.4462H58.3077C55.6918 92.4462 53.5703 90.3204 53.5703 87.6991C53.5703 86.3885 54.1007 85.2017 54.958 84.3426C55.8154 83.4835 56.9998 82.952 58.3077 82.952H66.4905C66.5504 82.952 66.6102 82.954 66.67 82.96C67.7746 82.8681 68.6399 81.9411 68.6399 80.8123H68.6419Z" fill="#00BBAB"/>
<path d="M59.4406 89.2686C60.3042 88.4034 60.3042 87.0005 59.4406 86.1352C58.5771 85.2699 57.1771 85.2699 56.3135 86.1352C55.45 87.0005 55.45 88.4034 56.3135 89.2686C57.1771 90.1339 58.5771 90.1339 59.4406 89.2686Z" fill="white"/>
<path d="M57.8828 90.0226V89.8088C59.0432 89.8088 59.9863 88.8638 59.9863 87.701C59.9863 86.5382 59.0432 85.5932 57.8828 85.5932V85.3794C59.1609 85.3794 60.1997 86.4203 60.1997 87.701C60.1997 88.9817 59.1609 90.0226 57.8828 90.0226Z" fill="#2E4882"/>
<path d="M55.7758 87.7009H55.5625C55.5625 87.0815 55.8038 86.4981 56.2404 86.0586L56.3919 86.2104C55.9952 86.608 55.7758 87.1375 55.7758 87.7009Z" fill="#2E4882"/>
<path d="M19.8526 89.5193C18.7062 88.4324 17.4022 87.4774 15.9766 86.6802L16.0802 86.4924C17.5198 87.2976 18.8397 88.2626 19.9982 89.3615L19.8506 89.5173L19.8526 89.5193Z" fill="#2E4882"/>
<path d="M13.6396 85.5553C12.862 85.2357 12.0425 84.952 11.2031 84.7082L11.2629 84.5024C12.1103 84.7482 12.9378 85.0359 13.7214 85.3576L13.6396 85.5553Z" fill="#2E4882"/>
<path d="M66.8169 26.1188C63.3516 25.1698 59.6549 25.008 56.1318 25.7472C54.3692 26.1068 52.6465 26.6663 51.0215 27.4355C49.3965 28.2027 47.8433 29.1377 46.4416 30.2665C45.0359 31.3894 43.7499 32.668 42.6413 34.0866C41.5347 35.5091 40.5936 37.0575 39.8419 38.6958C39.6545 39.1054 39.489 39.5249 39.3155 39.9405C39.168 40.3661 39.0005 40.7836 38.8689 41.2152C38.5978 42.0743 38.3605 42.9434 38.189 43.8285C38.1053 44.27 38.0255 44.7135 37.9657 45.1611C37.9497 45.273 37.9338 45.3848 37.9218 45.4967L37.9079 45.6166L37.8999 45.6905C37.8899 45.7904 37.876 45.8883 37.868 45.9882L36.2031 45.8204C36.903 47.5986 37.7962 49.2129 38.827 50.6274C39.5369 49.0251 40.4201 47.5906 41.4231 46.3498L39.7582 46.182C39.7662 46.0901 39.7781 46.0002 39.7881 45.9103L39.7961 45.8424L39.808 45.7325C39.818 45.6306 39.8339 45.5267 39.8479 45.4248C39.9017 45.0152 39.9735 44.6077 40.0513 44.2021C40.2068 43.3889 40.4261 42.5917 40.6754 41.8026C40.797 41.407 40.9505 41.0234 41.0861 40.6318C41.2456 40.2502 41.3971 39.8666 41.5686 39.491C42.2585 37.9885 43.1218 36.57 44.1347 35.2653C45.1516 33.9647 46.3319 32.7919 47.62 31.761C48.906 30.7241 50.3316 29.8669 51.8231 29.1637C53.3145 28.4564 54.8956 27.9449 56.5126 27.6153C59.7447 26.936 63.1283 27.0878 66.3125 27.9569L66.8189 26.1248L66.8169 26.1188Z" fill="#00BBAB"/>
<path d="M49.2834 28.3686L49.1797 28.1967C49.734 27.8611 50.3102 27.5474 50.8924 27.2657C52.3459 26.5624 53.9231 26.021 55.584 25.6534C57.1232 25.3077 58.7861 25.1479 60.5228 25.1779C62.1418 25.2018 63.7947 25.4336 65.4357 25.8632L65.3858 26.057C63.7608 25.6314 62.1238 25.4036 60.5188 25.3797C58.7961 25.3497 57.1511 25.5095 55.6258 25.8512C53.9789 26.2148 52.4157 26.7522 50.9781 27.4475C50.4019 27.7272 49.8317 28.0389 49.2814 28.3706L49.2834 28.3686Z" fill="#2E4882"/>
<path d="M45.0284 31.7611L44.8828 31.6253C45.0643 31.4315 45.2577 31.2457 45.4471 31.0658C45.5547 30.962 45.6624 30.8581 45.7701 30.7542C45.8638 30.6722 45.9535 30.5923 46.0432 30.5144C46.2606 30.3226 46.4859 30.1248 46.7132 29.937L46.8388 30.0909C46.6135 30.2747 46.3902 30.4725 46.1748 30.6643C46.0851 30.7442 45.9954 30.8221 45.9057 30.9C45.804 31.0019 45.6943 31.1058 45.5866 31.2097C45.4012 31.3875 45.2078 31.5713 45.0304 31.7611H45.0284Z" fill="#2E4882"/>
<path d="M38.8467 50.8212L38.7431 50.6813C37.8378 49.4566 37.0523 48.104 36.4062 46.6615L36.5877 46.5796C37.2018 47.9542 37.9455 49.2468 38.8009 50.4236C39.2674 49.3727 39.8197 48.3717 40.4438 47.4447L40.6093 47.5566C39.9593 48.5196 39.3891 49.5665 38.9145 50.6634L38.8447 50.8212H38.8467Z" fill="#2E4882"/>
<path d="M37.965 45.9923L37.7656 45.9783C37.7656 45.9583 37.9092 43.9224 38.4834 42.1462L38.6728 42.2082C38.1066 43.9604 37.967 45.9723 37.965 45.9923Z" fill="#2E4882"/>
<path d="M24.0901 86.3425C19.2072 87.6152 16.2762 92.614 17.5463 97.5089C18.8164 102.402 23.805 105.341 28.69 104.066C33.5729 102.793 36.5059 97.7947 35.2338 92.8997C33.9637 88.0068 28.9751 85.0698 24.0901 86.3425ZM33.5091 93.3493C34.0036 95.2533 33.7265 97.2392 32.7315 98.9355C31.7366 100.634 30.1435 101.84 28.2413 102.336C24.3174 103.357 20.2938 100.991 19.273 97.0574C18.7785 95.1534 19.0536 93.1694 20.0486 91.4712C21.0076 89.8329 22.5269 88.6501 24.3414 88.1247C24.4072 88.1047 24.4729 88.0887 24.5387 88.0707C28.3989 87.0638 32.3527 89.3394 33.4533 93.1535C33.4713 93.2174 33.4912 93.2833 33.5071 93.3473L33.5091 93.3493Z" fill="#AC5D00"/>
<path d="M33.4536 93.1554C33.4715 93.2193 33.4914 93.2853 33.5074 93.3492C34.0019 95.2532 33.7247 97.2391 32.7298 98.9354C31.7348 100.634 30.1417 101.84 28.2396 102.336C24.3157 103.357 20.2921 100.991 19.2712 97.0573C18.7767 95.1533 19.0519 93.1694 20.0468 91.4711C21.0059 89.8328 22.5252 88.6501 24.3396 88.1246C24.4054 88.1046 24.4712 88.0886 24.537 88.0707C28.3971 87.0637 32.3509 89.3393 33.4516 93.1534L33.4536 93.1554Z" fill="#F49B51"/>
<path d="M32.7894 101.883L32.6518 101.739C35.0066 99.469 35.9596 96.0925 35.1362 92.9258C34.8491 91.817 34.3646 90.788 33.6966 89.871L33.8581 89.7531C34.54 90.6921 35.0365 91.743 35.3296 92.8759C36.169 96.1105 35.196 99.5629 32.7894 101.883ZM31.5871 87.7971C30.7238 87.1898 29.7727 86.7422 28.7578 86.4645L28.8097 86.2727C29.8465 86.5564 30.8195 87.0139 31.7027 87.6353L31.5891 87.7991L31.5871 87.7971Z" fill="#2E4882"/>
<path d="M27.5032 100.75L27.1184 99.4171C26.3508 99.6248 25.4934 99.6169 24.9371 99.4211L24.9989 98.4461C25.5632 98.6259 26.3209 98.6778 27.0586 98.464C27.9937 98.1923 28.4682 97.4691 28.2509 96.7179C28.0416 95.9926 27.3995 95.6929 26.3109 95.579C24.8155 95.4412 23.8126 95.0736 23.4796 93.9268C23.1646 92.8319 23.7009 91.777 24.8534 91.2275L24.4686 89.8949L25.284 89.6592L25.6529 90.9379C26.4505 90.7361 27.0506 90.79 27.4972 90.9039L27.4195 91.8689C27.0965 91.791 26.4744 91.6571 25.631 91.9009C24.6181 92.1946 24.4107 92.9118 24.5623 93.4393C24.7597 94.1245 25.3459 94.3263 26.6279 94.4702C28.1432 94.632 29.0265 95.1195 29.3655 96.2923C29.6666 97.3352 29.2239 98.52 27.9339 99.1374L28.3307 100.51L27.5012 100.75H27.5032Z" fill="#AC5D00"/>
<path d="M19.875 90.0867C20.5509 90.4303 21.0155 90.9578 21.3325 91.6191C21.6495 90.9578 22.1161 90.4283 22.792 90.0847C22.1161 89.741 21.6495 89.2136 21.3325 88.5522C21.0155 89.2136 20.5509 89.743 19.875 90.0867Z" fill="#FFE6A6"/>
<path d="M22.8594 92.4663C23.2522 92.6661 23.5213 92.9717 23.7068 93.3573C23.8922 92.9737 24.1614 92.6661 24.5542 92.4663C24.1614 92.2665 23.8902 91.9608 23.7068 91.5752C23.5213 91.9588 23.2522 92.2665 22.8594 92.4663Z" fill="#FFE6A6"/>
<path d="M33.407 93.3754C33.391 93.3114 33.3711 93.2475 33.3531 93.1836C32.7729 91.1756 31.3513 89.5114 29.4531 88.6203L29.5369 88.4385C31.4869 89.3535 32.9484 91.0638 33.5445 93.1276C33.5625 93.1935 33.5824 93.2575 33.5984 93.3234L33.405 93.3734L33.407 93.3754Z" fill="#2E4882"/>
<path d="M29.4604 88.6223C27.9331 87.905 26.1965 87.7452 24.5655 88.1707L24.5156 87.9769C26.1905 87.5394 27.977 87.7052 29.5461 88.4404L29.4624 88.6223H29.4604Z" fill="#2E4882"/>
<path d="M19.1724 97.0835C18.6719 95.1515 18.9511 93.1396 19.958 91.4214L20.1294 91.5233C19.1485 93.1955 18.8753 95.1535 19.3638 97.0336L19.1704 97.0835H19.1724Z" fill="#2E4882"/>
<path d="M32.8121 98.9874L32.6406 98.8855C33.1291 98.0524 33.4441 97.1513 33.5757 96.2063L33.7731 96.2343C33.6376 97.2053 33.3146 98.1303 32.8121 98.9874Z" fill="#2E4882"/>
<path d="M29.5469 60.8369C30.2228 61.1805 30.6874 61.708 31.0044 62.3693C31.3214 61.708 31.788 61.1785 32.4639 60.8349C31.788 60.4913 31.3214 59.9638 31.0044 59.3025C30.6874 59.9638 30.2228 60.4933 29.5469 60.8369Z" fill="#FFE6A6"/>
<path d="M39.3906 69.2341C39.7834 69.4339 40.0526 69.7396 40.238 70.1252C40.4234 69.7416 40.6926 69.4339 41.0854 69.2341C40.6926 69.0343 40.4215 68.7286 40.238 68.343C40.0526 68.7266 39.7834 69.0343 39.3906 69.2341Z" fill="#FFE6A6"/>
<path d="M79.8516 18.0713C80.5275 18.4149 80.9921 18.9424 81.3091 19.6037C81.6261 18.9424 82.0927 18.4129 82.7686 18.0693C82.0927 17.7256 81.6261 17.1982 81.3091 16.5369C80.9921 17.1982 80.5275 17.7276 79.8516 18.0713Z" fill="#FFE6A6"/>
<path d="M118.609 98.2002C119.285 98.5438 119.75 99.0713 120.067 99.7326C120.384 99.0713 120.85 98.5418 121.526 98.1982C120.85 97.8545 120.384 97.3271 120.067 96.6658C119.75 97.3271 119.285 97.8565 118.609 98.2002Z" fill="#FFE6A6"/>
<path d="M117.625 102.787C118.018 102.987 118.287 103.293 118.472 103.678C118.658 103.295 118.927 102.987 119.32 102.787C118.927 102.588 118.656 102.282 118.472 101.896C118.287 102.28 118.018 102.588 117.625 102.787Z" fill="#FFE6A6"/>
</g>
<defs>
<clipPath id="clip0_3377_1598">
<rect width="167" height="108" fill="white"/>
</clipPath>
</defs>
</svg>
