<svg width="167" height="108" viewBox="0 0 167 108" fill="none" xmlns="http://www.w3.org/2000/svg">
<g clip-path="url(#clip0_288_907)">
<path d="M83.1101 108C121.933 108 153.406 106.497 153.406 104.644C153.406 102.79 121.933 101.287 83.1101 101.287C44.2869 101.287 12.8145 102.79 12.8145 104.644C12.8145 106.497 44.2869 108 83.1101 108Z" fill="#E9ECF2"/>
<path d="M36.7161 93.3052C24.5177 89.5152 8.00451 70.5568 14.7139 52.076C18.5321 41.5609 30.5192 40.7777 39.9402 39.0315C53.0339 36.604 58.9258 28.884 67.5991 19.3819C77.2893 8.76491 99.2975 -3.63623 118.762 12.8886C124.003 17.338 124.839 25.9451 131.602 31.9848C138.405 38.0605 147.276 38.0885 151.268 50.116C154.378 59.4883 140.987 78.9861 131.913 84.7961C115.131 95.5429 64.2235 101.85 36.7141 93.3052H36.7161Z" fill="#F3FAFF"/>
<path d="M158.836 54.5694C158.836 54.6393 158.832 54.7073 158.83 54.7772C158.634 63.2744 157.42 69.8436 155.681 74.9203L151.175 77.4097L154.794 77.0421L154.898 77.0321C152.655 82.5943 149.771 86.1127 147.106 88.3324C145.447 89.7169 143.872 90.598 142.588 91.1555C142.504 91.1934 142.42 91.2294 142.336 91.2633C142.129 91.3493 141.93 91.4272 141.74 91.4951H139.334C139.306 91.3812 139.282 91.2693 139.258 91.1555C139.242 91.0835 139.226 91.0136 139.212 90.9417C139.19 90.8478 139.172 90.7539 139.152 90.66C136.887 79.5575 140.919 71.0103 145.913 65.0266C145.927 65.0066 145.943 64.9866 145.963 64.9666C147.702 62.8908 149.556 61.1246 151.299 59.6701L152.218 62.4332L152.569 58.6492C155.596 56.2956 158.08 54.959 158.69 54.6453C158.786 54.5954 158.834 54.5714 158.834 54.5714L158.836 54.5694Z" fill="#00BBAB"/>
<path d="M158.917 54.6133L158.829 54.7752L153.36 64.8587L153.262 65.0365L151.771 67.7857L151.721 67.8776L146.966 76.6425L146.96 76.6545L139.212 90.9377L139.096 91.1515L138.911 91.4911H138.701L138.883 91.1515L139.152 90.656L146.798 76.5606L146.94 76.2989L158.69 54.6413L158.755 54.5234L158.917 54.6133Z" fill="white"/>
<path d="M158.027 63.9472L151.695 67.838L151.78 67.9759L158.111 64.0851L158.027 63.9472Z" fill="white"/>
<path d="M158.174 61.9045L153.211 64.9545L153.295 65.0924L158.258 62.0425L158.174 61.9045Z" fill="white"/>
<path d="M146.071 64.9601L145.91 64.9725L146.806 76.6719L146.968 76.6595L146.071 64.9601Z" fill="white"/>
<path d="M138.272 93.3192C138.272 93.3192 143.82 96.3121 152.167 91.8987L149.607 90.5121L153.881 90.9097C157.155 88.8598 160.8 85.6671 164.664 80.7762L163.687 80.2487L164.983 80.3686C165.635 79.5315 166.293 78.6464 166.957 77.7094C166.957 77.7094 164.591 77.3737 161.173 77.5895L159.305 79.8651L159.915 77.6934C152.912 78.3847 142.606 81.5034 138.27 93.3192H138.272Z" fill="#00BBAB"/>
<path d="M166.916 77.6285L137.824 92.681L137.907 92.8425L166.999 77.7901L166.916 77.6285Z" fill="white"/>
<path d="M159.393 81.611L159.367 81.7788L163.386 82.408L163.412 82.2402L159.393 81.611Z" fill="white"/>
<path d="M157.411 82.6101L157.373 82.7755L162.042 83.8641L162.08 83.6987L157.411 82.6101Z" fill="white"/>
<path d="M145.466 83.2716L145.332 83.1038C147.812 81.1179 150.781 79.6234 154.161 78.6624L154.219 78.8682C150.867 79.8212 147.922 81.3037 145.466 83.2716Z" fill="#2E4882"/>
<path d="M143.938 29.4095V102.584C143.938 103.605 143.112 104.434 142.091 104.434H106.196C105.177 104.434 104.35 103.605 104.35 102.584V29.4095C104.35 28.3865 105.177 27.5594 106.196 27.5594H142.091C143.112 27.5594 143.938 28.3865 143.938 29.4095Z" fill="#00766C"/>
<path d="M142.227 29.4095V102.584C142.227 103.605 141.401 104.434 140.381 104.434H104.485C103.466 104.434 102.639 103.605 102.639 102.584V29.4095C102.639 28.3865 103.466 27.5594 104.485 27.5594H140.381C141.401 27.5594 142.227 28.3865 142.227 29.4095Z" fill="#00BBAB"/>
<path d="M139.506 36.9976V94.9975C139.506 96.1783 138.611 97.1353 137.508 97.1353H107.353C106.251 97.1353 105.355 96.1783 105.355 94.9975V36.9976C105.355 35.8169 106.251 34.8599 107.353 34.8599H137.508C138.611 34.8599 139.506 35.8169 139.506 36.9976Z" fill="#E1EAFF"/>
<path d="M127.42 31.0857H117.445C117.347 31.0857 117.268 31.0058 117.268 30.9079C117.268 30.81 117.347 30.7301 117.445 30.7301H127.42C127.518 30.7301 127.598 30.81 127.598 30.9079C127.598 31.0058 127.518 31.0857 127.42 31.0857Z" fill="#2E4882"/>
<path d="M131.271 73.1262H113.593C112.495 73.1262 111.605 74.018 111.605 75.1181V75.8813C111.605 76.9814 112.495 77.8732 113.593 77.8732H131.271C132.369 77.8732 133.259 76.9814 133.259 75.8813V75.1181C133.259 74.018 132.369 73.1262 131.271 73.1262Z" fill="#00BBAB"/>
<path d="M137.895 97.5628H106.969C105.603 97.5628 104.492 96.412 104.492 94.9955V36.9976C104.492 35.5831 105.603 34.4303 106.969 34.4303H137.895C139.261 34.4303 140.372 35.5811 140.372 36.9976V94.9975C140.372 96.412 139.261 97.5648 137.895 97.5648V97.5628ZM106.969 35.2874C106.075 35.2874 105.348 36.0546 105.348 36.9976V94.9975C105.348 95.9405 106.075 96.7077 106.969 96.7077H137.895C138.789 96.7077 139.516 95.9405 139.516 94.9975V36.9976C139.516 36.0546 138.789 35.2874 137.895 35.2874H106.969Z" fill="white"/>
<path d="M108.154 65.6099H136.734C137.325 65.6099 137.805 65.1296 137.805 64.537V46.1062C137.805 45.5136 137.325 45.0333 136.734 45.0333H108.154C107.563 45.0333 107.083 45.5136 107.083 46.1062V64.537C107.083 65.1296 107.563 65.6099 108.154 65.6099Z" fill="#00766C"/>
<path d="M114.816 57.6102H109.67C109.51 57.6102 109.381 57.7399 109.381 57.8999V58.8929C109.381 59.0529 109.51 59.1826 109.67 59.1826H114.816C114.976 59.1826 115.105 59.0529 115.105 58.8929V57.8999C115.105 57.7399 114.976 57.6102 114.816 57.6102Z" fill="white"/>
<path d="M121.617 57.6102H116.471C116.311 57.6102 116.182 57.7399 116.182 57.8999V58.8929C116.182 59.0529 116.311 59.1826 116.471 59.1826H121.617C121.777 59.1826 121.906 59.0529 121.906 58.8929V57.8999C121.906 57.7399 121.777 57.6102 121.617 57.6102Z" fill="white"/>
<path d="M128.418 57.6102H123.272C123.112 57.6102 122.982 57.7399 122.982 57.8999V58.8929C122.982 59.0529 123.112 59.1826 123.272 59.1826H128.418C128.577 59.1826 128.707 59.0529 128.707 58.8929V57.8999C128.707 57.7399 128.577 57.6102 128.418 57.6102Z" fill="white"/>
<path d="M135.218 57.6102H130.072C129.913 57.6102 129.783 57.7399 129.783 57.8999V58.8929C129.783 59.0529 129.913 59.1826 130.072 59.1826H135.218C135.378 59.1826 135.508 59.0529 135.508 58.8929V57.8999C135.508 57.7399 135.378 57.6102 135.218 57.6102Z" fill="white"/>
<path d="M135.155 60.6851H128.386C128.191 60.6851 128.033 60.8434 128.033 61.0387V61.9038C128.033 62.0991 128.191 62.2574 128.386 62.2574H135.155C135.35 62.2574 135.508 62.0991 135.508 61.9038V61.0387C135.508 60.8434 135.35 60.6851 135.155 60.6851Z" fill="white"/>
<path d="M110.688 51.1049V49.0411C110.688 48.5896 111.054 48.2239 111.503 48.2239H115.505C115.955 48.2239 116.32 48.5916 116.32 49.0411V51.1049C116.32 51.5565 115.953 51.9221 115.505 51.9221H111.503C111.052 51.9221 110.688 51.5545 110.688 51.1049ZM111.503 48.4417C111.174 48.4417 110.905 48.7094 110.905 49.0411V51.1049C110.905 51.4346 111.172 51.7043 111.503 51.7043H115.505C115.834 51.7043 116.103 51.4366 116.103 51.1049V49.0411C116.103 48.7114 115.836 48.4417 115.505 48.4417H111.503Z" fill="white"/>
<path d="M134.559 49.7863C134.559 49.7604 134.569 49.7364 134.589 49.7164C135.488 48.8153 135.488 47.3469 134.589 46.4458C134.551 46.4078 134.551 46.3439 134.589 46.3059C134.626 46.268 134.69 46.268 134.728 46.3059C135.705 47.2849 135.705 48.8793 134.728 49.8583C134.69 49.8962 134.626 49.8962 134.589 49.8583C134.569 49.8383 134.559 49.8143 134.559 49.7883V49.7863Z" fill="white"/>
<path d="M134.062 46.9453C134.062 46.9193 134.072 46.8953 134.092 46.8753C134.13 46.8374 134.194 46.8374 134.232 46.8753C134.896 47.5406 134.896 48.6235 134.232 49.2888C134.194 49.3268 134.13 49.3268 134.092 49.2888C134.055 49.2509 134.055 49.1869 134.092 49.149C134.679 48.5616 134.679 47.6046 134.092 47.0152C134.072 46.9952 134.062 46.9712 134.062 46.9453Z" fill="white"/>
<path d="M133.586 48.6915C133.586 48.6655 133.596 48.6415 133.616 48.6216C133.913 48.3239 133.913 47.8404 133.616 47.5447C133.578 47.5067 133.578 47.4428 133.616 47.4048C133.654 47.3669 133.718 47.3669 133.755 47.4048C134.13 47.7804 134.13 48.3898 133.755 48.7634C133.718 48.8014 133.654 48.8014 133.616 48.7634C133.596 48.7434 133.586 48.7194 133.586 48.6935V48.6915Z" fill="white"/>
<path d="M142.386 88.1066H142.065V29.4095C142.065 28.4785 141.309 27.7192 140.378 27.7192H104.482C103.553 27.7192 102.796 28.4765 102.796 29.4095V79.6834H102.475V29.4095C102.475 28.3006 103.376 27.3976 104.482 27.3976H140.378C141.485 27.3976 142.386 28.3006 142.386 29.4095V88.1046V88.1066Z" fill="#2E4882"/>
<path d="M108.612 104.596H104.484C103.378 104.596 102.477 103.692 102.477 102.584V94.1204H102.798V102.584C102.798 103.515 103.553 104.274 104.484 104.274H108.612V104.596Z" fill="#2E4882"/>
<path d="M124.99 104.274H121.17V104.596H124.99V104.274Z" fill="#2E4882"/>
<path d="M144.752 104.112C144.752 104.665 140.701 105.115 135.706 105.115C130.712 105.115 126.66 104.665 126.66 104.112C126.66 104.102 126.662 104.092 126.664 104.082V101.373H144.746V104.076C144.75 104.088 144.752 104.1 144.752 104.112Z" fill="#F49B51"/>
<path d="M135.704 102.4C140.7 102.4 144.751 101.951 144.751 101.397C144.751 100.843 140.7 100.394 135.704 100.394C130.708 100.394 126.658 100.843 126.658 101.397C126.658 101.951 130.708 102.4 135.704 102.4Z" fill="#AC5D00"/>
<path d="M146.889 100.843C146.889 101.397 142.838 101.846 137.843 101.846C132.848 101.846 128.797 101.397 128.797 100.843C128.797 100.833 128.799 100.823 128.801 100.813V98.1043H146.883V100.808C146.887 100.819 146.889 100.831 146.889 100.843Z" fill="#F49B51"/>
<path d="M137.841 99.1312C142.837 99.1312 146.887 98.6822 146.887 98.1283C146.887 97.5743 142.837 97.1253 137.841 97.1253C132.845 97.1253 128.795 97.5743 128.795 98.1283C128.795 98.6822 132.845 99.1312 137.841 99.1312Z" fill="#AC5D00"/>
<path d="M144.752 97.5728C144.752 98.1263 140.701 98.5758 135.706 98.5758C130.712 98.5758 126.66 98.1263 126.66 97.5728C126.66 97.5628 126.662 97.5529 126.664 97.5429V94.8337H144.746V97.5369C144.75 97.5489 144.752 97.5608 144.752 97.5728Z" fill="#F49B51"/>
<path d="M135.704 95.8626C140.7 95.8626 144.751 95.4136 144.751 94.8597C144.751 94.3057 140.7 93.8567 135.704 93.8567C130.708 93.8567 126.658 94.3057 126.658 94.8597C126.658 95.4136 130.708 95.8626 135.704 95.8626Z" fill="#AC5D00"/>
<path d="M135.707 105.221C132.028 105.221 126.553 104.925 126.553 104.112H126.766C126.766 104.424 129.837 105.007 135.707 105.007C135.92 105.007 136.131 105.007 136.341 105.005V105.219C136.133 105.219 135.92 105.221 135.707 105.221Z" fill="#2E4882"/>
<path d="M139.293 105.139L139.283 104.925C140.198 104.881 141.04 104.821 141.78 104.745L141.801 104.959C141.058 105.035 140.214 105.095 139.293 105.139Z" fill="#2E4882"/>
<path d="M132.136 101.711C128.736 101.401 128.736 100.971 128.736 100.829H128.95C128.95 100.933 129.526 101.257 132.154 101.497L132.134 101.711H132.136Z" fill="#2E4882"/>
<path d="M137.891 101.94C136.874 101.94 135.875 101.922 134.922 101.884L134.93 101.671C136.631 101.737 138.513 101.745 140.265 101.691L140.271 101.904C139.496 101.928 138.694 101.94 137.889 101.94H137.891Z" fill="#2E4882"/>
<path d="M142.518 101.798L142.504 101.585C143.469 101.521 144.31 101.439 145.004 101.341L145.034 101.553C144.334 101.653 143.487 101.735 142.518 101.798Z" fill="#2E4882"/>
<path d="M129.624 95.7128C126.609 95.4051 126.609 95.0155 126.609 94.8696H126.823C126.823 94.8696 126.9 95.2193 129.646 95.501L129.624 95.7148V95.7128Z" fill="#2E4882"/>
<path d="M135.761 95.9785C134.72 95.9785 133.703 95.9585 132.738 95.9206L132.746 95.7068C133.709 95.7447 134.724 95.7647 135.761 95.7647C137.617 95.7647 139.4 95.7028 140.917 95.5849L140.933 95.7987C139.412 95.9166 137.623 95.9785 135.761 95.9785Z" fill="#2E4882"/>
<path d="M147.96 94.3042C147.96 94.8577 143.908 95.3072 138.913 95.3072C133.919 95.3072 129.867 94.8577 129.867 94.3042C129.867 94.2942 129.869 94.2842 129.871 94.2743V91.5651H147.954V94.2683C147.958 94.2802 147.96 94.2922 147.96 94.3042Z" fill="#F49B51"/>
<path d="M138.913 92.592C143.909 92.592 147.96 92.1429 147.96 91.589C147.96 91.0351 143.909 90.5861 138.913 90.5861C133.917 90.5861 129.867 91.0351 129.867 91.589C129.867 92.1429 133.917 92.592 138.913 92.592Z" fill="#AC5D00"/>
<path d="M146.282 91.589C146.282 91.9606 142.982 92.2623 138.914 92.2623C134.847 92.2623 131.547 91.9606 131.547 91.589C131.547 91.2174 134.847 90.9157 138.914 90.9157C142.982 90.9157 146.282 91.2174 146.282 91.589Z" fill="#F49B51"/>
<path d="M115.439 86.762C110.395 86.6242 106.196 90.61 106.056 95.6668C105.919 100.722 109.896 104.931 114.943 105.069C119.987 105.207 124.188 101.221 124.326 96.1643C124.464 91.1095 120.486 86.9019 115.439 86.762ZM122.543 96.1163C122.49 98.0843 121.674 99.9124 120.247 101.267C118.821 102.622 116.955 103.339 114.991 103.285C110.937 103.173 107.729 99.7805 107.839 95.7167C107.893 93.7488 108.706 91.9207 110.134 90.5661C111.509 89.2594 113.296 88.5462 115.186 88.5462C115.256 88.5462 115.322 88.5462 115.391 88.5502C119.379 88.658 122.545 91.9446 122.545 95.9145C122.545 95.9825 122.545 96.0484 122.545 96.1163H122.543Z" fill="#AC5D00"/>
<path d="M122.547 95.9145C122.547 95.9824 122.547 96.0484 122.547 96.1163C122.493 98.0842 121.678 99.9124 120.25 101.267C118.825 102.622 116.959 103.339 114.995 103.285C110.941 103.173 107.733 99.7805 107.843 95.7167C107.896 93.7487 108.71 91.9206 110.138 90.566C111.513 89.2594 113.3 88.5461 115.19 88.5461C115.26 88.5461 115.326 88.5461 115.395 88.5501C119.383 88.658 122.551 91.9446 122.551 95.9145H122.547Z" fill="#F49B51"/>
<path d="M114.728 101.553V100.166C113.933 100.152 113.111 99.9044 112.633 99.5627L112.962 98.6437C113.454 98.9733 114.168 99.2331 114.936 99.2331C115.909 99.2331 116.567 98.6697 116.567 97.8885C116.567 97.1073 116.032 96.6657 115.017 96.2542C113.62 95.7047 112.756 95.0734 112.756 93.8786C112.756 92.6839 113.564 91.8747 114.826 91.6689V90.2823H115.675V91.615C116.497 91.6429 117.059 91.8627 117.456 92.0965L117.113 93.0035C116.826 92.8397 116.264 92.536 115.386 92.536C114.332 92.536 113.935 93.1674 113.935 93.7168C113.935 94.43 114.441 94.7877 115.634 95.2812C117.045 95.8586 117.757 96.5718 117.757 97.7946C117.757 98.8794 117.003 99.8944 115.592 100.128V101.557H114.728V101.553Z" fill="#AC5D00"/>
<path d="M122.245 94.0704C122.229 94.0105 122.213 93.9505 122.195 93.8906C121.611 91.8707 120.191 90.2064 118.291 89.3154L118.375 89.1335C120.325 90.0486 121.786 91.7568 122.382 93.8207C122.404 93.8946 122.42 93.9545 122.436 94.0165L122.243 94.0664L122.245 94.0704Z" fill="#2E4882"/>
<path d="M118.292 89.3174C116.765 88.6001 115.028 88.4403 113.398 88.8658L113.348 88.672C115.023 88.2345 116.809 88.4003 118.378 89.1356L118.294 89.3174H118.292Z" fill="#2E4882"/>
<path d="M121.65 99.6826L121.479 99.5807C121.967 98.7476 122.282 97.8465 122.414 96.9015L122.611 96.9295C122.475 97.9005 122.152 98.8255 121.65 99.6826Z" fill="#2E4882"/>
<path d="M121.14 89.1056C120.434 88.4862 119.641 87.9827 118.783 87.6091L118.869 87.4133C119.748 87.7949 120.56 88.3104 121.282 88.9457L121.14 89.1076V89.1056Z" fill="#2E4882"/>
<path d="M120.35 103.605L120.23 103.427C122.649 101.794 124.14 99.0793 124.22 96.1623C124.27 94.3502 123.784 92.586 122.817 91.0636L122.996 90.9477C123.987 92.5081 124.483 94.3122 124.434 96.1683C124.352 99.1552 122.826 101.934 120.35 103.607V103.605Z" fill="#2E4882"/>
<path d="M137.912 50.0701H137.698V45.9923C137.698 45.4609 137.266 45.0273 136.735 45.0273H118.531V44.8135H136.735C137.383 44.8135 137.912 45.343 137.912 45.9923V50.0701Z" fill="#2E4882"/>
<path d="M137.913 52.2119H137.699V54.5714H137.913V52.2119Z" fill="#2E4882"/>
<path d="M116.181 44.8115H112.471V45.0253H116.181V44.8115Z" fill="#2E4882"/>
<path d="M49.8299 22.7424C51.3093 21.5397 52.6691 20.0912 53.3112 18.295C53.9512 16.4989 53.7319 14.2992 52.382 12.9526C51.2814 11.8557 49.6106 11.4841 48.0693 11.6579C46.5261 11.8317 45.0805 12.489 43.7047 13.2063C41.0708 14.5809 25.746 24.101 31.0736 27.2378C36.2018 30.2566 45.8701 25.9631 49.8339 22.7424H49.8299Z" fill="#F3FAFF"/>
<path d="M14.5916 48.1361L14.4082 48.0263C16.5696 44.414 20.0508 41.9625 25.3665 40.3123L25.4303 40.516C20.1685 42.1483 16.7251 44.5698 14.5936 48.1361H14.5916Z" fill="#2E4882"/>
<path d="M11.8225 49.5427L11.6211 49.4687C14.4105 41.7847 21.5725 39.3193 28.21 37.9207L28.2539 38.1305C21.6742 39.5171 14.576 41.9565 11.8225 49.5427Z" fill="#2E4882"/>
<path d="M108.446 4.7851C103.541 2.2737 99.3897 1.59641 95.3781 2.65531L95.3242 2.44752C99.3897 1.37464 103.589 2.05593 108.544 4.5933L108.446 4.7831V4.7851Z" fill="#2E4882"/>
<path d="M112.129 5.0548C106.455 1.44255 99.6736 -1.77811 92.4159 1.72426L92.3242 1.53046C99.6776 -2.01786 106.521 1.22877 112.247 4.87299L112.131 5.0528L112.129 5.0548Z" fill="#2E4882"/>
<path d="M85.3905 14.8047C80.346 14.6668 76.1469 18.6527 76.0074 23.7094C75.8698 28.7642 79.8476 32.9738 84.894 33.1117C89.9385 33.2496 94.1396 29.2637 94.2771 24.2069C94.4147 19.1522 90.437 14.9445 85.3905 14.8047ZM92.4946 24.159C92.4408 26.1269 91.6253 27.955 90.1977 29.3096C88.7721 30.6642 86.9058 31.3815 84.9419 31.3275C80.8883 31.2157 77.6802 27.8232 77.7899 23.7594C77.8437 21.7914 78.6572 19.9633 80.0848 18.6087C81.4606 17.3021 83.2471 16.5888 85.1373 16.5888C85.2071 16.5888 85.2729 16.5888 85.3426 16.5928C89.3304 16.7007 92.4966 19.9873 92.4966 23.9572C92.4966 24.0251 92.4966 24.091 92.4966 24.159H92.4946Z" fill="#AC5D00"/>
<path d="M92.4985 23.9572C92.4985 24.0251 92.4985 24.091 92.4985 24.159C92.4446 26.1269 91.6292 27.955 90.2016 29.3096C88.7759 30.6642 86.9097 31.3815 84.9457 31.3275C80.8922 31.2156 77.6841 27.8232 77.7937 23.7594C77.8476 21.7914 78.6611 19.9633 80.0887 18.6087C81.4644 17.3021 83.2509 16.5888 85.1411 16.5888C85.2109 16.5888 85.2767 16.5888 85.3465 16.5928C89.3342 16.7007 92.5025 19.9873 92.5025 23.9572H92.4985Z" fill="#F49B51"/>
<path d="M84.6756 29.5953V28.2088C83.8801 28.1948 83.0586 27.947 82.5801 27.6054L82.9091 26.6863C83.4015 27.016 84.1154 27.2757 84.883 27.2757C85.856 27.2757 86.514 26.7123 86.514 25.9311C86.514 25.1499 85.9796 24.7084 84.9647 24.2968C83.567 23.7474 82.7037 23.116 82.7037 21.9213C82.7037 20.7265 83.5112 19.9174 84.7733 19.7116V18.325H85.6227V19.6576C86.4442 19.6856 87.0065 19.9054 87.4032 20.1371L87.0603 21.0442C86.7732 20.8804 86.2109 20.5767 85.3336 20.5767C84.2788 20.5767 83.8821 21.208 83.8821 21.7575C83.8821 22.4707 84.3885 22.8283 85.5808 23.3218C86.9925 23.8992 87.7043 24.6125 87.7043 25.8352C87.7043 26.9201 86.9506 27.935 85.539 28.1688V29.5973H84.6756V29.5953Z" fill="#AC5D00"/>
<path d="M92.2077 22.1291C92.1917 22.0652 92.1738 22.0032 92.1559 21.9413C91.5756 19.9294 90.154 18.2671 88.2559 17.376L88.3396 17.1942C90.2896 18.1093 91.7511 19.8175 92.3473 21.8814C92.3672 21.9493 92.3851 22.0132 92.4011 22.0772L92.2077 22.1271V22.1291Z" fill="#2E4882"/>
<path d="M88.2553 17.376C86.728 16.6588 84.9894 16.4989 83.3604 16.9245L83.3105 16.7307C84.9854 16.2932 86.7719 16.459 88.3411 17.1942L88.2573 17.376H88.2553Z" fill="#2E4882"/>
<path d="M77.9712 25.8372C77.4707 23.9052 77.7499 21.8933 78.7568 20.1751L78.9283 20.277C77.9473 21.9493 77.6741 23.9072 78.1626 25.7873L77.9692 25.8372H77.9712Z" fill="#2E4882"/>
<path d="M91.0911 17.3161C90.3853 16.6967 89.5917 16.1933 88.7344 15.8196L88.8201 15.6238C89.6994 16.0054 90.5109 16.5209 91.2327 17.1563L91.0911 17.3181V17.3161Z" fill="#2E4882"/>
<path d="M90.2993 31.8151L90.1797 31.6373C92.5982 30.005 94.0896 27.2898 94.1694 24.3728C94.2192 22.5607 93.7328 20.7965 92.7657 19.2741L92.9452 19.1582C93.9361 20.7186 94.4326 22.5227 94.3827 24.3788C94.301 27.3657 92.7757 30.1448 90.2993 31.8151Z" fill="#2E4882"/>
<path d="M83.8726 43.6827L84.6821 40.2063L87.9879 38.8278L88.5761 43.6827C88.5761 43.6827 88.0856 46.8375 85.045 47.9663C82.0043 49.0971 83.8726 43.6827 83.8726 43.6827Z" fill="#FCB47E"/>
<path d="M82.5729 34.5422C82.5729 34.5422 81.3965 41.0774 83.3086 41.1274C85.2207 41.1773 86.7899 40.4401 87.1827 39.9965C87.5755 39.555 87.8686 37.3932 87.8686 37.3932C87.8686 37.3932 88.1138 34.5921 86.9374 34.0527C85.761 33.5113 83.2109 32.5782 82.5729 34.5442V34.5422Z" fill="#FCB47E"/>
<path d="M88.8646 38.6999C88.4898 39.3952 88.1169 40.0765 88.1169 40.0765C87.5586 39.9885 86.9405 39.2893 86.8309 38.6859C86.8309 38.6859 85.0723 38.5221 85.0105 36.3403C85.0105 36.3403 81.9579 36.3603 81.8861 33.7051C81.8123 31.0518 84.8649 31.7351 85.8758 32.5463C86.8867 33.3554 87.4988 33.769 89.074 34.2785C90.7289 34.8139 89.3451 37.8088 88.8646 38.6999Z" fill="#374263"/>
<path d="M87.4386 101.824L87.0617 97.9625H82.9883L83.8736 101.713C83.8736 101.713 84.3461 102.969 85.7159 102.923C87.0318 102.879 87.4386 101.824 87.4386 101.824Z" fill="#FCB47E"/>
<path d="M107.498 89.7429L104.37 87.4553L101.66 90.5042L105.67 92.54C105.67 92.54 106.166 92.6379 107.171 91.7609C108.164 90.8938 107.498 89.741 107.498 89.741V89.7429Z" fill="#FCB47E"/>
<path d="M90.8669 99.1652C88.5081 100.058 85.4954 99.8145 82.2474 99.1652C82.1537 98.9374 82.06 98.7117 81.9703 98.4819C75.7813 82.8082 80.1638 60.0438 80.1638 60.0438H89.8959L89.6765 67.568C89.2499 69.5559 88.9568 71.5698 88.7673 73.5657C87.5311 86.6921 90.8669 99.1652 90.8669 99.1652Z" fill="#00BBAB"/>
<path d="M90.864 99.1592C90.7125 98.8535 85.1695 87.5672 86.8205 74.8344L88.5771 76.2529C87.9829 88.1726 90.7843 98.8595 90.864 99.1592Z" fill="#385087"/>
<path d="M106.592 85.6612C105.699 88.1746 104.748 90.1245 103.713 91.2654C103.233 91.7948 102.734 92.1504 102.214 92.3043C100.723 91.5371 99.3567 90.7059 98.1066 89.8249C97.9351 89.707 97.7696 89.5871 97.6021 89.4652C97.3808 89.3034 97.1615 89.1376 96.9501 88.9717C96.8524 88.8958 96.7547 88.8219 96.661 88.744C96.4696 88.5941 96.2802 88.4403 96.0968 88.2884C95.9313 88.1506 95.7698 88.0127 95.6122 87.8749C94.7728 87.1456 93.9992 86.3964 93.2834 85.6272C93.2156 85.5553 93.1458 85.4794 93.08 85.4074C93.0302 85.3535 92.9823 85.2976 92.9325 85.2456H92.9305C83.1147 74.3109 84.9172 60.0477 84.9172 60.0477H93.4549C94.1866 73.7235 106.59 85.6632 106.59 85.6632L106.592 85.6612Z" fill="#00BBAB"/>
<path d="M95.3706 30.4345C94.6428 29.901 94.1344 29.6073 94.0108 29.5194C93.8552 29.4076 93.8194 29.1318 93.6379 28.8521C93.2212 28.2108 92.3539 27.078 91.4586 26.7643C91.343 26.7223 91.2552 26.8462 91.3789 26.9781C91.5982 27.2198 92.0129 27.5675 91.9491 27.6254C91.8115 27.7413 90.8405 26.5705 90.5674 26.8422C90.362 27.048 91.7677 28.0909 91.7118 28.1568C91.6022 28.2887 90.5434 27.092 90.2862 27.3637C90.041 27.6194 91.3111 28.2907 91.2572 28.4026C91.1994 28.5185 90.3201 27.7892 90.1467 27.9551C89.8835 28.2068 91.4706 29.1918 91.4267 29.3376C91.3709 29.5734 90.5494 29.0799 90.4278 29.3596C90.3082 29.6213 91.4566 30.1148 91.674 30.2247C92.1764 30.4764 92.5413 30.3666 92.9421 30.9939C93.1634 31.3376 93.3807 31.6812 93.596 32.0268L95.3706 30.4345Z" fill="#FCB47E"/>
<path d="M75.2637 31.2156C75.9316 30.6083 76.4042 30.2606 76.5178 30.1607C76.6594 30.0329 76.6673 29.7551 76.8169 29.4575C77.1638 28.7762 77.9035 27.5574 78.7609 27.1479C78.8706 27.0939 78.9723 27.2058 78.8626 27.3516C78.6712 27.6154 78.2963 28.005 78.3661 28.0569C78.5157 28.1568 79.3551 26.8901 79.6562 27.1299C79.8835 27.3117 78.5974 28.5005 78.6592 28.5584C78.7828 28.6783 79.706 27.3756 79.9911 27.6174C80.2623 27.8471 79.07 28.6483 79.1377 28.7542C79.2075 28.8641 80.0051 28.0429 80.1945 28.1908C80.4816 28.4125 79.0101 29.5633 79.068 29.7032C79.1497 29.933 79.9114 29.3536 80.0629 29.6173C80.2104 29.865 79.1198 30.4784 78.9164 30.6103C78.4439 30.9139 78.069 30.846 77.7381 31.5113C77.5546 31.8769 77.3752 32.2406 77.1977 32.6082L75.2637 31.2136V31.2156Z" fill="#FCB47E"/>
<path d="M93.5444 61.1606C92.7827 61.6461 91.4488 62.4333 89.8059 63.1146C88.3324 63.7219 86.6097 64.2494 84.8252 64.4052C83.0925 64.5571 81.2981 64.3573 79.6152 63.5461C79.7229 62.7469 79.8246 62.0677 79.9103 61.5262C81.4536 62.3454 83.1284 62.689 84.7893 62.737C86.5419 62.7889 88.2806 62.5072 89.8358 62.1016C91.2574 61.732 92.5275 61.2565 93.5125 60.8309C93.5204 60.9408 93.5324 61.0507 93.5444 61.1606Z" fill="#385087"/>
<path d="M78.0146 60.1237V49.3608C78.0146 49.3608 68.3624 47.7185 70.2585 38.3543C71.4628 32.4044 75.7018 30.2786 75.7018 30.2786L78.0525 32.1707C78.0525 32.1707 73.0539 39.8247 79.6337 42.484C79.6337 42.484 83.3343 42.3681 84.2973 43.411C84.2973 43.411 86.4168 45.1112 88.6539 42.2902C88.6539 42.2902 90.9289 41.4011 92.8669 41.9246C94.462 42.3541 96.5177 38.3902 92.7014 31.6692L95.0921 29.5054C95.0921 29.5054 109.085 42.9855 95.3613 49.6685L94.5956 60.4214C94.5956 60.4214 83.9743 66.4571 78.0146 60.1217V60.1237Z" fill="#009386"/>
<path d="M86.4081 39.0775C86.8288 39.0775 87.1698 38.7358 87.1698 38.3143C87.1698 37.8928 86.8288 37.5511 86.4081 37.5511C85.9875 37.5511 85.6465 37.8928 85.6465 38.3143C85.6465 38.7358 85.9875 39.0775 86.4081 39.0775Z" fill="#FCB47E"/>
<path d="M88.4873 78.9182C86.6928 75.4298 85.5204 71.5478 84.998 67.3842L85.1675 67.3622C85.6879 71.5059 86.8543 75.3679 88.6388 78.8383L88.4873 78.9162V78.9182Z" fill="white"/>
<path d="M93.073 66.5989C90.3714 66.5989 89.508 64.2474 89.498 64.2234L89.6576 64.1655C89.6655 64.1894 90.5109 66.4971 93.1987 66.4271L93.2026 66.5969C93.1588 66.5969 93.1149 66.5969 93.0711 66.5969L93.073 66.5989Z" fill="white"/>
<path d="M85.6445 44.8156C85.5946 44.8156 85.5428 44.8136 85.4929 44.8096C84.2787 44.6977 83.6646 43.2771 83.6406 43.2152L83.7961 43.1493C83.8021 43.1633 84.3963 44.5378 85.5089 44.6397C86.444 44.7256 87.4768 43.9205 88.5814 42.2462L88.723 42.3401C87.6383 43.9844 86.6035 44.8156 85.6445 44.8156Z" fill="#2E4882"/>
<path d="M78.0146 49.3629C78.0146 49.3629 68.3604 47.7206 70.2565 38.3543C70.3582 37.8428 70.4858 37.3553 70.6314 36.8998C70.6553 36.8738 70.6812 36.8478 70.7031 36.8239C70.5436 38.9377 70.4679 40.7897 71.403 42.7917C73.357 46.9793 78.1482 49.3509 78.0146 49.3609V49.3629Z" fill="#00BBAB"/>
<path d="M95.3596 49.6705L94.594 60.4234C94.594 60.4234 92.3887 61.6781 89.4219 62.4433C89.9343 62.0537 92.0937 58.7451 92.4545 57.0729C93.1026 54.074 93.1843 52.3478 93.268 49.1531C96.4622 48.3219 100.101 45.5029 101.353 40.7977C101.638 44.0064 100.278 47.273 95.3596 49.6705Z" fill="#00BBAB"/>
<path d="M85.1553 61.8898C85.1254 61.8898 85.1095 61.8898 85.1055 61.8898L85.1095 61.72C85.1553 61.72 89.6415 61.7839 93.5256 59.4104L93.6133 59.5563C89.9067 61.8199 85.6578 61.8918 85.1553 61.8918V61.8898Z" fill="#2E4882"/>
<path d="M103.714 91.2634C103.234 91.7929 102.735 92.1485 102.215 92.3023C100.724 91.5351 99.3578 90.704 98.1077 89.8229C97.9362 89.705 97.7707 89.5851 97.6032 89.4633C97.3819 89.3014 97.1626 89.1356 96.9512 88.9698C96.8535 88.8939 96.7558 88.8199 96.6621 88.742C96.4707 88.5922 96.2813 88.4383 96.0979 88.2865C95.9324 88.1486 95.7709 88.0108 95.6133 87.8729C94.7739 87.1437 94.0003 86.3945 93.2845 85.6253C93.2167 85.5533 93.1469 85.4774 93.0811 85.4055C93.0313 85.3515 92.9834 85.2956 92.9336 85.2437C98.7716 90.0786 102.506 91.0656 103.712 91.2654L103.714 91.2634Z" fill="#385087"/>
<path d="M105.329 85.3175C101.22 82.6443 98.608 77.8113 98.582 77.7634L98.7236 77.6874C98.7495 77.7354 101.342 82.5304 105.417 85.1817L105.329 85.3155V85.3175Z" fill="white"/>
<path d="M87.9517 104.899H78.7101C78.3891 104.899 78.1319 104.625 78.1558 104.304C78.1558 104.3 78.1558 104.296 78.1558 104.292C78.1618 104.222 78.1718 104.148 78.1818 104.076C78.2137 103.83 78.2795 103.583 78.3951 103.429C78.8338 102.845 79.6831 102.58 81.2005 101.978C82.1515 101.599 82.9591 101.095 83.314 100.859C83.4296 100.781 83.5792 100.801 83.6788 100.897C85.5072 102.688 86.6278 102.306 86.9647 101.569C87.2219 101.005 87.5848 101.123 87.6845 101.289C87.9916 101.804 88.161 103.317 88.2288 104.076C88.2368 104.158 88.2448 104.232 88.2488 104.292C88.2587 104.434 88.2667 104.52 88.2667 104.52C88.3006 104.717 88.1491 104.899 87.9497 104.899H87.9517Z" fill="#374263"/>
<path d="M81.7236 102.951C81.0676 102.632 81.1653 101.952 81.1653 101.946L81.3228 101.97C81.3188 101.994 81.2451 102.54 81.7914 102.805L81.7216 102.949L81.7236 102.951Z" fill="white"/>
<path d="M80.9124 103.225C80.3083 102.883 80.3741 102.294 80.3761 102.27L80.5356 102.29C80.5336 102.31 80.4837 102.799 80.9922 103.087L80.9124 103.227V103.225Z" fill="white"/>
<path d="M86.1278 102.821C85.5097 102.821 84.9494 102.54 84.9414 102.534L85.0152 102.39C85.0291 102.398 86.4308 103.103 87.1526 102.204L87.2782 102.304C86.9612 102.7 86.5325 102.819 86.1297 102.819L86.1278 102.821Z" fill="white"/>
<path d="M87.1276 104.178H81.7422V104.338H87.1276V104.178Z" fill="white"/>
<path d="M81.0495 104.178H79.7754V104.338H81.0495V104.178Z" fill="white"/>
<path d="M110.254 90.3004L105.74 98.38C105.582 98.6617 105.219 98.7536 104.95 98.5738C104.948 98.5738 104.944 98.5698 104.942 98.5678C104.883 98.5279 104.825 98.4839 104.765 98.44C104.567 98.2901 104.384 98.1123 104.308 97.9365C104.015 97.2692 104.199 96.3961 104.416 94.7758C104.552 93.7588 104.506 92.8098 104.476 92.3802C104.466 92.2424 104.556 92.1205 104.687 92.0805C107.14 91.3573 107.355 90.1905 106.876 89.5352C106.512 89.0357 106.791 88.774 106.984 88.768C107.584 88.75 108.982 89.3394 109.676 89.6531C109.754 89.685 109.821 89.715 109.877 89.741C110.005 89.8009 110.083 89.8369 110.083 89.8369C110.272 89.9028 110.354 90.1246 110.258 90.3004H110.254Z" fill="#374263"/>
<path d="M104.674 94.8777C104.52 94.8777 104.408 94.8557 104.396 94.8537L104.428 94.6958C104.428 94.6958 105.094 94.8277 105.421 94.4001L105.549 94.498C105.306 94.8157 104.929 94.8777 104.672 94.8777H104.674Z" fill="white"/>
<path d="M104.599 95.7527C104.446 95.7527 104.334 95.7307 104.322 95.7287L104.354 95.5709C104.354 95.5709 105.02 95.7028 105.347 95.2752L105.475 95.3731C105.231 95.6908 104.855 95.7527 104.597 95.7527H104.599Z" fill="white"/>
<path d="M106.885 91.7829L106.781 91.661C106.793 91.651 107.978 90.6181 107.419 89.6091L107.559 89.5312C108.179 90.656 106.897 91.7709 106.883 91.7829H106.885Z" fill="white"/>
<path d="M109.102 90.8421L106.521 95.5787L106.661 95.6553L109.242 90.9187L109.102 90.8421Z" fill="white"/>
<path d="M106.191 96.1865L105.58 97.3071L105.72 97.3837L106.331 96.2631L106.191 96.1865Z" fill="white"/>
<path d="M79.6047 42.5898C79.5209 42.5659 77.549 41.9865 76.5242 40.0984C75.8183 38.7958 75.7466 37.1994 76.3128 35.3553L76.5162 35.4193C75.9679 37.2054 76.0337 38.7438 76.7096 39.9945C77.6886 41.8027 79.6426 42.3781 79.6605 42.3841L79.6027 42.5898H79.6047Z" fill="#2E4882"/>
<path d="M84.6073 36.4662C83.8636 36.4662 82.6932 36.1485 82.0811 35.3833C81.7022 34.9098 81.3932 34.0727 82.0751 32.78L82.2166 32.854C81.7022 33.8309 81.6982 34.6481 82.2067 35.2834C82.9165 36.1705 84.4139 36.4242 84.9921 36.2664L85.034 36.4223C84.9203 36.4522 84.7748 36.4702 84.6073 36.4702V36.4662Z" fill="#374263"/>
<path d="M83.9177 36.6221C83.4032 36.6221 82.7871 36.4802 82.1172 36.0367L82.2049 35.9028C83.9575 37.0616 85.3014 36.0627 85.3134 36.0527L85.4111 36.1805C85.4111 36.1805 84.8169 36.6221 83.9157 36.6221H83.9177Z" fill="#374263"/>
<path d="M7.0059 63.1525C7.0059 63.2125 7.00789 63.2724 7.00989 63.3323C7.17937 70.7047 8.23213 76.4028 9.74148 80.8062L13.6495 82.966L10.5111 82.6463L10.4214 82.6383C12.3674 87.4633 14.8677 90.5161 17.1806 92.4422C18.6182 93.6429 19.9859 94.4081 21.0985 94.8916C21.1723 94.9236 21.2441 94.9555 21.3159 94.9835C21.4953 95.0594 21.6688 95.1254 21.8323 95.1853H23.9198C23.9438 95.0874 23.9657 94.9895 23.9856 94.8916C23.9996 94.8297 24.0136 94.7677 24.0255 94.7058C24.0455 94.6239 24.0614 94.542 24.0774 94.4621C26.0413 84.832 22.5441 77.4157 18.2114 72.2251C18.1994 72.2071 18.1855 72.1912 18.1695 72.1732C16.6622 70.373 15.0531 68.8406 13.5418 67.5779L12.7442 69.9755L12.4392 66.6929C9.81326 64.651 7.65789 63.4922 7.12952 63.2205C7.04777 63.1785 7.00391 63.1565 7.00391 63.1565L7.0059 63.1525Z" fill="#00BBAB"/>
<path d="M6.93359 63.1905L7.01135 63.3303L11.7548 72.0792L11.8405 72.2331L13.1345 74.6186L13.1784 74.6985L17.3017 82.3006L17.3077 82.3106L24.029 94.7038L24.1307 94.8876L24.2902 95.1833H24.4736L24.3141 94.8876L24.0808 94.458L17.4472 82.2307L17.3236 82.003L7.13099 63.2144L7.07516 63.1125L6.93359 63.1905Z" fill="white"/>
<path d="M7.70969 71.2811L7.63672 71.4003L13.1301 74.7762L13.2031 74.657L7.70969 71.2811Z" fill="white"/>
<path d="M7.58078 69.5086L7.50781 69.6278L11.8131 72.2735L11.8861 72.1543L7.58078 69.5086Z" fill="white"/>
<path d="M17.9582 82.938L18.7518 72.8444L18.5962 72.8325L17.8047 82.928L17.9582 82.938Z" fill="white"/>
<path d="M24.9226 97.1952C24.9226 97.1952 20.1094 99.7905 12.8677 95.9645L15.0888 94.7617L11.3802 95.1054C8.53898 93.3272 5.37871 90.5581 2.02503 86.3145L2.87242 85.857L1.74788 85.9609C1.18163 85.2356 0.611383 84.4664 0.0351562 83.6533C0.0351562 83.6533 2.08684 83.3616 5.05371 83.5494L6.67472 85.5233L6.14635 83.6393C12.2216 84.2406 21.1621 86.9438 24.9245 97.1952H24.9226Z" fill="#00BBAB"/>
<path d="M0.0703157 83.5867L-0.00195312 83.727L25.2366 96.7857L25.3088 96.6455L0.0703157 83.5867Z" fill="white"/>
<path d="M6.59621 87.0413L3.10938 87.5872L3.13215 87.7332L6.61899 87.1873L6.59621 87.0413Z" fill="white"/>
<path d="M8.3244 87.9042L4.27344 88.8488L4.30688 88.9928L8.35784 88.0482L8.3244 87.9042Z" fill="white"/>
<path d="M66.7409 67.6898H22.6825C21.6033 67.6898 20.7285 68.5664 20.7285 69.6478V99.7026C20.7285 100.784 21.6033 101.661 22.6825 101.661H66.7409C67.8201 101.661 68.6949 100.784 68.6949 99.7026V69.6478C68.6949 68.5664 67.8201 67.6898 66.7409 67.6898Z" fill="#009386"/>
<path d="M67.2382 71.2162V98.1363C67.2382 99.2751 66.3171 100.2 65.1786 100.2H62.0701V70.8985H23.3732C22.8927 70.8985 22.5039 70.5089 22.5039 70.0274C22.5039 69.5459 22.8927 69.1563 23.3732 69.1563H65.1786C66.3151 69.1563 67.2382 70.0794 67.2382 71.2202V71.2162Z" fill="#2E4882"/>
<path d="M55.4821 68.1313C55.524 68.1833 55.5678 68.2352 55.6077 68.2892C56.808 69.8455 57.3324 71.7795 57.0832 73.7335C56.834 75.6855 55.843 77.4237 54.2878 78.6284C51.0797 81.1139 46.4519 80.5205 43.9715 77.3038C42.7712 75.7474 42.2449 73.8154 42.4941 71.8615C42.7353 69.9774 43.6685 68.2912 45.13 67.0944C45.1838 67.0504 45.2357 67.0105 45.2915 66.9665C48.4478 64.5211 52.9738 65.0565 55.4841 68.1313H55.4821Z" fill="#F49B51"/>
<path d="M49.328 78.5306V77.144C48.5324 77.13 47.7109 76.8823 47.2324 76.5406L47.5614 75.6216C48.0539 75.9512 48.7677 76.211 49.5353 76.211C50.5083 76.211 51.1663 75.6476 51.1663 74.8664C51.1663 74.0852 50.632 73.6436 49.6171 73.2321C48.2194 72.6826 47.356 72.0513 47.356 70.8565C47.356 69.6618 48.1636 68.8526 49.4257 68.6468V67.2603H50.2751V68.5929C51.0965 68.6208 51.6588 68.8406 52.0556 69.0744L51.7126 69.9814C51.4255 69.8176 50.8632 69.5139 49.9859 69.5139C48.9312 69.5139 48.5344 70.1453 48.5344 70.6947C48.5344 71.408 49.0409 71.7656 50.2332 72.2591C51.6448 72.8365 52.3566 73.5497 52.3566 74.7725C52.3566 75.8573 51.603 76.8723 50.1913 77.106V78.5346H49.328V78.5306Z" fill="#AC5D00"/>
<path d="M52.1023 63.9377C47.2213 62.6571 42.2267 65.584 40.9486 70.477C39.6705 75.3679 42.5915 80.3727 47.4745 81.6534C52.3555 82.934 57.3501 80.0071 58.6282 75.1141C59.9062 70.2232 56.9852 65.2184 52.1023 63.9377ZM56.9055 74.6626C56.407 76.5666 55.2007 78.163 53.504 79.156C51.8092 80.1509 49.8293 80.4246 47.9271 79.9252C44.0052 78.8962 41.6484 74.8604 42.6753 70.9285C43.1737 69.0245 44.378 67.4281 46.0748 66.4332C47.7098 65.4741 49.6119 65.1864 51.4523 65.614C51.5201 65.63 51.5839 65.646 51.6517 65.6639C55.5118 66.6749 57.8526 70.5948 56.9533 74.4628C56.9374 74.5288 56.9234 74.5927 56.9055 74.6586V74.6626Z" fill="#AC5D00"/>
<path d="M36.3983 56.8031C31.3538 56.6652 27.1548 60.6511 27.0152 65.7079C26.8776 70.7626 30.8554 74.9722 35.9018 75.1101C40.9463 75.248 45.1474 71.2621 45.2849 66.2053C45.4225 61.1506 41.4448 56.9429 36.3983 56.8031ZM43.5024 66.1574C43.4486 68.1254 42.6331 69.9535 41.2055 71.3081C39.7799 72.6626 37.9136 73.3799 35.9497 73.326C31.8962 73.2141 28.688 69.8216 28.7977 65.7578C28.8515 63.7898 29.665 61.9617 31.0926 60.6071C32.4684 59.3005 34.2549 58.5872 36.1451 58.5872C36.2149 58.5872 36.2807 58.5872 36.3504 58.5912C40.3382 58.6991 43.5044 61.9857 43.5044 65.9556C43.5044 66.0235 43.5044 66.0895 43.5044 66.1574H43.5024Z" fill="#AC5D00"/>
<path d="M41.8434 61.2884C41.8853 61.3404 41.9292 61.3923 41.9691 61.4463C43.1694 63.0026 43.6937 64.9366 43.4445 66.8906C43.1953 68.8426 42.2043 70.5808 40.6491 71.7855C37.441 74.271 32.8132 73.6776 30.3329 70.4609C29.1326 68.9045 28.6062 66.9725 28.8554 65.0186C29.0967 63.1345 30.0298 61.4483 31.4913 60.2515C31.5451 60.2076 31.597 60.1676 31.6528 60.1236C34.8091 57.6782 39.3352 58.2136 41.8454 61.2884H41.8434Z" fill="#F49B51"/>
<path d="M35.6854 71.5918V70.2052C34.8898 70.1912 34.0684 69.9435 33.5898 69.6018L33.9188 68.6828C34.4113 69.0125 35.1251 69.2722 35.8928 69.2722C36.8658 69.2722 37.5237 68.7088 37.5237 67.9276C37.5237 67.1464 36.9894 66.7048 35.9745 66.2933C34.5768 65.7438 33.7135 65.1125 33.7135 63.9177C33.7135 62.723 34.521 61.9138 35.7831 61.708V60.3215H36.6325V61.6541C37.4539 61.6821 38.0162 61.9018 38.413 62.1356L38.0701 63.0426C37.7829 62.8788 37.2207 62.5751 36.3434 62.5751C35.2886 62.5751 34.8918 63.2065 34.8918 63.7559C34.8918 64.4692 35.3983 64.8268 36.5906 65.3203C38.0023 65.8977 38.7141 66.6109 38.7141 67.8337C38.7141 68.9186 37.9604 69.9335 36.5487 70.1673V71.5958H35.6854V71.5918Z" fill="#AC5D00"/>
<path d="M42.097 59.2066C41.3912 58.5872 40.5976 58.0838 39.7402 57.7101L39.826 57.5143C40.7053 57.8959 41.5168 58.4114 42.2385 59.0468L42.097 59.2086V59.2066Z" fill="#2E4882"/>
<path d="M41.3091 73.7056L41.1895 73.5278C43.608 71.8955 45.0994 69.1803 45.1792 66.2633C45.229 64.4512 44.7425 62.687 43.7755 61.1646L43.9549 61.0487C44.9459 62.6091 45.4424 64.4132 45.3925 66.2693C45.3108 69.2562 43.7855 72.0353 41.3091 73.7076V73.7056Z" fill="#2E4882"/>
<path d="M43.1355 64.0776C43.1195 64.0156 43.1016 63.9537 43.0836 63.8918C42.5014 61.8779 41.0818 60.2156 39.1816 59.3245L39.2654 59.1427C41.2154 60.0578 42.6769 61.766 43.273 63.8298C43.293 63.8998 43.3109 63.9617 43.3269 64.0256L43.1335 64.0756L43.1355 64.0776Z" fill="#2E4882"/>
<path d="M39.1811 59.3225C37.6538 58.6053 35.9172 58.4454 34.2862 58.871L34.2363 58.6772C35.9112 58.2396 37.6977 58.4055 39.2668 59.1407L39.1831 59.3225H39.1811Z" fill="#2E4882"/>
<path d="M42.5387 69.6897L42.3672 69.5878C42.8557 68.7547 43.1707 67.8537 43.3023 66.9086L43.4997 66.9366C43.3641 67.9076 43.0411 68.8326 42.5387 69.6897Z" fill="#2E4882"/>
<path d="M63.6743 70.9304H22.6227C21.5766 70.9304 20.7285 71.7802 20.7285 72.8285V102.574C20.7285 103.622 21.5766 104.472 22.6227 104.472H63.6743C64.7205 104.472 65.5685 103.622 65.5685 102.574V72.8285C65.5685 71.7802 64.7205 70.9304 63.6743 70.9304Z" fill="#009386"/>
<path d="M37.8464 103.153H24.3599C23.345 103.153 22.5195 102.326 22.5195 101.309V98.7076H22.7329V101.309C22.7329 102.208 23.4626 102.939 24.3599 102.939H37.8464V103.153Z" fill="#2E4882"/>
<path d="M45.2803 102.937H41.123V103.151H45.2803V102.937Z" fill="#2E4882"/>
<path d="M63.7744 77.6795H63.561V74.0932C63.561 73.1941 62.8313 72.4629 61.934 72.4629H44.3242V72.2491H61.934C62.9489 72.2491 63.7744 73.0762 63.7744 74.0932V77.6795Z" fill="#2E4882"/>
<path d="M41.1554 72.2491H37.1836V72.4629H41.1554V72.2491Z" fill="#2E4882"/>
<path d="M22.7329 90.7999H22.5195V95.8626H22.7329V90.7999Z" fill="#2E4882"/>
<path d="M68.638 80.8122V90.2904C68.638 91.4811 67.677 92.4461 66.4866 92.4461H58.3038C55.6879 92.4461 53.5664 90.3203 53.5664 87.6991C53.5664 86.3884 54.0968 85.2016 54.9541 84.3425C55.8115 83.4834 56.9959 82.952 58.3038 82.952H66.4866C66.5465 82.952 66.6063 82.954 66.6661 82.96C67.7707 82.8681 68.636 81.941 68.636 80.8122H68.638Z" fill="#00BBAB"/>
<path d="M59.4348 89.2686C60.2983 88.4033 60.2983 87.0004 59.4348 86.1351C58.5713 85.2698 57.1712 85.2698 56.3077 86.1351C55.4442 87.0004 55.4442 88.4033 56.3077 89.2686C57.1712 90.1339 58.5713 90.1339 59.4348 89.2686Z" fill="white"/>
<path d="M57.8711 90.0226V89.8089C59.0315 89.8089 59.9746 88.8638 59.9746 87.701C59.9746 86.5383 59.0315 85.5932 57.8711 85.5932V85.3795C59.1492 85.3795 60.188 86.4204 60.188 87.701C60.188 88.9817 59.1492 90.0226 57.8711 90.0226Z" fill="#2E4882"/>
<path d="M55.768 87.7011H55.5547C55.5547 87.0817 55.7959 86.4983 56.2326 86.0588L56.3841 86.2106C55.9874 86.6082 55.768 87.1377 55.768 87.7011Z" fill="#2E4882"/>
<path d="M19.8546 89.5192C18.7081 88.4323 17.4041 87.4773 15.9785 86.6801L16.0822 86.4923C17.5218 87.2975 18.8417 88.2625 20.0001 89.3613L19.8526 89.5172L19.8546 89.5192Z" fill="#2E4882"/>
<path d="M13.6416 85.5553C12.864 85.2356 12.0445 84.9519 11.2051 84.7082L11.2649 84.5024C12.1123 84.7481 12.9397 85.0358 13.7233 85.3575L13.6416 85.5553Z" fill="#2E4882"/>
<path d="M66.8169 26.1189C63.3516 25.1699 59.6549 25.0081 56.1318 25.7473C54.3692 26.107 52.6465 26.6664 51.0215 27.4356C49.3965 28.2028 47.8433 29.1378 46.4416 30.2667C45.0359 31.3895 43.7499 32.6682 42.6413 34.0867C41.5347 35.5092 40.5936 37.0576 39.8419 38.6959C39.6545 39.1055 39.489 39.525 39.3155 39.9406C39.168 40.3662 39.0005 40.7837 38.8689 41.2153C38.5978 42.0744 38.3605 42.9435 38.189 43.8286C38.1053 44.2701 38.0255 44.7137 37.9657 45.1612C37.9497 45.2731 37.9338 45.385 37.9218 45.4969L37.9079 45.6167L37.8999 45.6907C37.8899 45.7906 37.876 45.8884 37.868 45.9883L36.2031 45.8205C36.903 47.5987 37.7962 49.213 38.827 50.6275C39.5369 49.0252 40.4201 47.5907 41.4231 46.35L39.7582 46.1821C39.7662 46.0902 39.7781 46.0003 39.7881 45.9104L39.7961 45.8425L39.808 45.7326C39.818 45.6307 39.8339 45.5268 39.8479 45.4249C39.9017 45.0154 39.9735 44.6078 40.0513 44.2022C40.2068 43.389 40.4261 42.5919 40.6754 41.8027C40.797 41.4071 40.9505 41.0235 41.0861 40.6319C41.2456 40.2503 41.3971 39.8667 41.5686 39.4911C42.2585 37.9886 43.1218 36.5701 44.1347 35.2655C45.1516 33.9648 46.3319 32.792 47.62 31.7611C48.906 30.7242 50.3316 29.8671 51.8231 29.1638C53.3145 28.4565 54.8956 27.9451 56.5126 27.6154C59.7447 26.9361 63.1283 27.0879 66.3125 27.957L66.8189 26.1249L66.8169 26.1189Z" fill="#00BBAB"/>
<path d="M49.2775 28.3686L49.1738 28.1968C49.7281 27.8611 50.3043 27.5475 50.8866 27.2658C52.3401 26.5625 53.9172 26.0211 55.5781 25.6534C57.1174 25.3078 58.7803 25.148 60.5169 25.1779C62.1359 25.2019 63.7888 25.4337 65.4298 25.8632L65.3799 26.057C63.7549 25.6315 62.118 25.4037 60.5129 25.3797C58.7902 25.3498 57.1453 25.5096 55.62 25.8512C53.9731 26.2149 52.4099 26.7523 50.9723 27.4476C50.3961 27.7273 49.8258 28.039 49.2755 28.3706L49.2775 28.3686Z" fill="#2E4882"/>
<path d="M45.0225 31.7611L44.877 31.6253C45.0584 31.4315 45.2518 31.2457 45.4412 31.0658C45.5489 30.962 45.6566 30.8581 45.7642 30.7542C45.8579 30.6722 45.9477 30.5923 46.0374 30.5144C46.2547 30.3226 46.48 30.1248 46.7073 29.937L46.8329 30.0909C46.6076 30.2747 46.3843 30.4725 46.169 30.6643C46.0793 30.7442 45.9895 30.8221 45.8998 30.9C45.7981 31.0019 45.6885 31.1058 45.5808 31.2097C45.3954 31.3875 45.202 31.5713 45.0245 31.7611H45.0225Z" fill="#2E4882"/>
<path d="M38.8467 50.8213L38.7431 50.6815C37.8378 49.4567 37.0523 48.1041 36.4062 46.6616L36.5877 46.5797C37.2018 47.9543 37.9455 49.2469 38.8009 50.4237C39.2674 49.3728 39.8197 48.3719 40.4438 47.4448L40.6093 47.5567C39.9593 48.5197 39.3891 49.5666 38.9145 50.6635L38.8447 50.8213H38.8467Z" fill="#2E4882"/>
<path d="M37.967 45.9923L37.7676 45.9783C37.7676 45.9583 37.9111 43.9225 38.4854 42.1463L38.6748 42.2082C38.1085 43.9604 37.969 45.9723 37.967 45.9923Z" fill="#2E4882"/>
<path d="M24.0862 86.3425C19.2033 87.6151 16.2723 92.614 17.5424 97.5089C18.8125 102.402 23.8011 105.341 28.6861 104.066C33.569 102.793 36.502 97.7946 35.2299 92.8997C33.9598 88.0067 28.9712 85.0698 24.0862 86.3425ZM33.5052 93.3492C33.9997 95.2532 33.7226 97.2392 32.7276 98.9354C31.7327 100.634 30.1396 101.84 28.2374 102.336C24.3135 103.357 20.2899 100.991 19.269 97.0574C18.7746 95.1533 19.0497 93.1694 20.0447 91.4711C21.0037 89.8328 22.523 88.6501 24.3374 88.1246C24.4032 88.1046 24.469 88.0887 24.5348 88.0707C28.395 87.0637 32.3488 89.3394 33.4494 93.1534C33.4673 93.2173 33.4873 93.2833 33.5032 93.3472L33.5052 93.3492Z" fill="#AC5D00"/>
<path d="M33.4516 93.1554C33.4695 93.2193 33.4895 93.2853 33.5054 93.3492C33.9999 95.2532 33.7228 97.2391 32.7278 98.9354C31.7329 100.634 30.1398 101.84 28.2376 102.336C24.3137 103.357 20.2901 100.991 19.2692 97.0573C18.7748 95.1533 19.0499 93.1694 20.0449 91.4711C21.0039 89.8328 22.5232 88.6501 24.3376 88.1246C24.4034 88.1046 24.4692 88.0886 24.535 88.0707C28.3952 87.0637 32.349 89.3393 33.4496 93.1534L33.4516 93.1554Z" fill="#F49B51"/>
<path d="M32.7855 101.882L32.6479 101.738C35.0027 99.4688 35.9557 96.0923 35.1323 92.9256C34.8452 91.8168 34.3606 90.7878 33.6927 89.8708L33.8542 89.7529C34.5361 90.6919 35.0326 91.7428 35.3257 92.8757C36.1651 96.1103 35.1921 99.5627 32.7855 101.882ZM31.5832 87.7969C30.7199 87.1896 29.7688 86.742 28.7539 86.4643L28.8057 86.2725C29.8426 86.5562 30.8156 87.0138 31.6988 87.6351L31.5852 87.7989L31.5832 87.7969Z" fill="#2E4882"/>
<path d="M27.5013 100.75L27.1164 99.4169C26.3488 99.6247 25.4914 99.6167 24.9352 99.4209L24.997 98.4459C25.5612 98.6258 26.3189 98.6777 27.0566 98.4639C27.9918 98.1922 28.4663 97.469 28.249 96.7177C28.0396 95.9925 27.3976 95.6928 26.3089 95.5789C24.8135 95.4411 23.8106 95.0734 23.4776 93.9266C23.1626 92.8318 23.699 91.7769 24.8514 91.2274L24.4666 89.8948L25.2821 89.6591L25.651 90.9377C26.4485 90.7359 27.0487 90.7899 27.4953 90.9038L27.4175 91.8688C27.0945 91.7908 26.4724 91.657 25.629 91.9007C24.6161 92.1944 24.4088 92.9117 24.5603 93.4391C24.7577 94.1244 25.3439 94.3262 26.626 94.4701C28.1413 94.6319 29.0246 95.1194 29.3635 96.2922C29.6646 97.3351 29.222 98.5199 27.9319 99.1372L28.3287 100.51L27.4993 100.75H27.5013Z" fill="#AC5D00"/>
<path d="M19.873 90.0866C20.549 90.4302 21.0135 90.9577 21.3306 91.619C21.6476 90.9577 22.1142 90.4282 22.7901 90.0846C22.1142 89.741 21.6476 89.2135 21.3306 88.5522C21.0135 89.2135 20.549 89.7429 19.873 90.0866Z" fill="#FFE6A6"/>
<path d="M22.8594 92.4661C23.2522 92.6659 23.5213 92.9716 23.7068 93.3572C23.8922 92.9736 24.1614 92.6659 24.5542 92.4661C24.1614 92.2664 23.8902 91.9607 23.7068 91.5751C23.5213 91.9587 23.2522 92.2664 22.8594 92.4661Z" fill="#FFE6A6"/>
<path d="M33.4089 93.3752C33.393 93.3112 33.373 93.2473 33.3551 93.1834C32.7749 91.1755 31.3532 89.5112 29.4551 88.6201L29.5388 88.4383C31.4888 89.3533 32.9503 91.0636 33.5465 93.1274C33.5644 93.1934 33.5844 93.2573 33.6003 93.3232L33.4069 93.3732L33.4089 93.3752Z" fill="#2E4882"/>
<path d="M29.4545 88.6221C27.9272 87.9049 26.1906 87.745 24.5596 88.1706L24.5098 87.9768C26.1846 87.5393 27.9711 87.7051 29.5403 88.4403L29.4565 88.6221H29.4545Z" fill="#2E4882"/>
<path d="M19.1704 97.0833C18.67 95.1513 18.9491 93.1394 19.956 91.4212L20.1275 91.5231C19.1465 93.1954 18.8733 95.1533 19.3618 97.0334L19.1684 97.0833H19.1704Z" fill="#2E4882"/>
<path d="M32.8121 98.9874L32.6406 98.8855C33.1291 98.0523 33.4441 97.1513 33.5757 96.2062L33.7731 96.2342C33.6376 97.2052 33.3146 98.1302 32.8121 98.9874Z" fill="#2E4882"/>
<path d="M29.5488 60.8369C30.2247 61.1805 30.6893 61.708 31.0063 62.3693C31.3234 61.708 31.7899 61.1785 32.4659 60.8349C31.7899 60.4913 31.3234 59.9638 31.0063 59.3025C30.6893 59.9638 30.2247 60.4933 29.5488 60.8369Z" fill="#FFE6A6"/>
<path d="M39.3906 69.2342C39.7834 69.434 40.0526 69.7397 40.238 70.1253C40.4234 69.7417 40.6926 69.434 41.0854 69.2342C40.6926 69.0344 40.4215 68.7287 40.238 68.3431C40.0526 68.7267 39.7834 69.0344 39.3906 69.2342Z" fill="#FFE6A6"/>
<path d="M79.8516 18.0713C80.5275 18.4149 80.9921 18.9424 81.3091 19.6037C81.6261 18.9424 82.0927 18.4129 82.7686 18.0693C82.0927 17.7256 81.6261 17.1982 81.3091 16.5369C80.9921 17.1982 80.5275 17.7276 79.8516 18.0713Z" fill="#FFE6A6"/>
<path d="M118.609 98.2002C119.285 98.5438 119.75 99.0713 120.067 99.7326C120.384 99.0713 120.85 98.5418 121.526 98.1982C120.85 97.8545 120.384 97.3271 120.067 96.6658C119.75 97.3271 119.285 97.8565 118.609 98.2002Z" fill="#FFE6A6"/>
<path d="M117.625 102.787C118.018 102.987 118.287 103.293 118.472 103.679C118.658 103.295 118.927 102.987 119.32 102.787C118.927 102.588 118.656 102.282 118.472 101.896C118.287 102.28 118.018 102.588 117.625 102.787Z" fill="#FFE6A6"/>
</g>
<defs>
<clipPath id="clip0_288_907">
<rect width="167" height="108" fill="white"/>
</clipPath>
</defs>
</svg>
