<svg width="24" height="24" viewBox="0 0 24 24" fill="none" xmlns="http://www.w3.org/2000/svg">
<path d="M12 0.000244141C9.62663 0.000244141 7.30655 0.704032 5.33316 2.02261C3.35977 3.34119 1.8217 5.21533 0.913451 7.40804C0.00519943 9.60076 -0.232441 12.0136 0.230582 14.3413C0.693605 16.6691 1.83649 18.8073 3.51472 20.4855C5.19295 22.1638 7.33115 23.3066 9.65892 23.7697C11.9867 24.2327 14.3995 23.9951 16.5922 23.0868C18.7849 22.1785 20.6591 20.6405 21.9776 18.6671C23.2962 16.6937 24 14.3736 24 12.0002C23.9966 8.8187 22.7312 5.76846 20.4815 3.51876C18.2318 1.26907 15.1815 0.00368522 12 0.000244141ZM12 19.0002C11.8022 19.0002 11.6089 18.9416 11.4444 18.8317C11.28 18.7218 11.1518 18.5657 11.0761 18.3829C11.0004 18.2002 10.9806 17.9991 11.0192 17.8052C11.0578 17.6112 11.153 17.433 11.2929 17.2931C11.4328 17.1533 11.6109 17.058 11.8049 17.0195C11.9989 16.9809 12.2 17.0007 12.3827 17.0764C12.5654 17.1521 12.7216 17.2802 12.8315 17.4447C12.9414 17.6091 13 17.8025 13 18.0002C13 18.2655 12.8946 18.5198 12.7071 18.7074C12.5196 18.8949 12.2652 19.0002 12 19.0002ZM13.527 12.7002C13.3632 12.7799 13.2261 12.9056 13.1326 13.0618C13.039 13.2181 12.9929 13.3982 13 13.5802V14.0002C13 14.2655 12.8946 14.5198 12.7071 14.7074C12.5196 14.8949 12.2652 15.0002 12 15.0002C11.7348 15.0002 11.4804 14.8949 11.2929 14.7074C11.1054 14.5198 11 14.2655 11 14.0002V13.5802C10.9897 13.0013 11.1519 12.4325 11.4661 11.9461C11.7802 11.4597 12.2321 11.0779 12.764 10.8492C13.1887 10.6734 13.5398 10.3567 13.7583 9.9524C13.9769 9.54808 14.0495 9.08083 13.964 8.62924C13.887 8.23353 13.6935 7.86984 13.4085 7.58477C13.1234 7.29971 12.7597 7.10627 12.364 7.02924C12.0751 6.97576 11.7779 6.98661 11.4936 7.06101C11.2093 7.13541 10.9449 7.27154 10.7192 7.45972C10.4936 7.64789 10.3121 7.88349 10.1878 8.14975C10.0635 8.41601 9.99936 8.70639 10 9.00025C10 9.26546 9.89465 9.51982 9.70711 9.70735C9.51958 9.89489 9.26522 10.0002 9.00001 10.0002C8.73479 10.0002 8.48044 9.89489 8.2929 9.70735C8.10536 9.51982 8.00001 9.26546 8.00001 9.00025C8.00054 8.27585 8.19778 7.56519 8.57067 6.94413C8.94357 6.32308 9.47811 5.81495 10.1173 5.47398C10.7564 5.13302 11.4761 4.97202 12.1996 5.00817C12.9231 5.04432 13.6232 5.27626 14.2252 5.67924C14.8272 6.08222 15.3084 6.64111 15.6175 7.29624C15.9266 7.95137 16.0521 8.67815 15.9804 9.399C15.9087 10.1198 15.6426 10.8077 15.2105 11.3891C14.7784 11.9705 14.1965 12.4237 13.527 12.7002Z" fill="white"/>
</svg>
