<svg width="202" height="54" viewBox="0 0 202 54" fill="none" xmlns="http://www.w3.org/2000/svg">
<path d="M84.63 38.36C82.97 38.36 81.44 38.1 80.04 37.58C78.66 37.04 77.45 36.28 76.41 35.3C75.39 34.32 74.59 33.17 74.01 31.85C73.45 30.53 73.17 29.08 73.17 27.5C73.17 25.92 73.45 24.47 74.01 23.15C74.59 21.83 75.4 20.68 76.44 19.7C77.48 18.72 78.7 17.97 80.1 17.45C81.5 16.91 83.04 16.64 84.72 16.64C86.58 16.64 88.25 16.95 89.73 17.57C91.23 18.19 92.49 19.09 93.51 20.27L90.39 23.15C89.63 22.35 88.8 21.76 87.9 21.38C87 20.98 86.02 20.78 84.96 20.78C83.94 20.78 83.01 20.94 82.17 21.26C81.33 21.58 80.6 22.04 79.98 22.64C79.38 23.24 78.91 23.95 78.57 24.77C78.25 25.59 78.09 26.5 78.09 27.5C78.09 28.48 78.25 29.38 78.57 30.2C78.91 31.02 79.38 31.74 79.98 32.36C80.6 32.96 81.32 33.42 82.14 33.74C82.98 34.06 83.9 34.22 84.9 34.22C85.86 34.22 86.79 34.07 87.69 33.77C88.61 33.45 89.5 32.92 90.36 32.18L93.12 35.69C91.98 36.55 90.65 37.21 89.13 37.67C87.63 38.13 86.13 38.36 84.63 38.36ZM88.68 35.06V27.17H93.12V35.69L88.68 35.06ZM97.3045 38V21.86H101.775V26.42L101.145 25.1C101.625 23.96 102.395 23.1 103.455 22.52C104.515 21.92 105.805 21.62 107.325 21.62V25.94C107.125 25.92 106.945 25.91 106.785 25.91C106.625 25.89 106.455 25.88 106.275 25.88C104.995 25.88 103.955 26.25 103.155 26.99C102.375 27.71 101.985 28.84 101.985 30.38V38H97.3045ZM118.953 38V34.85L118.653 34.16V28.52C118.653 27.52 118.343 26.74 117.723 26.18C117.123 25.62 116.193 25.34 114.933 25.34C114.073 25.34 113.223 25.48 112.383 25.76C111.563 26.02 110.863 26.38 110.283 26.84L108.603 23.57C109.483 22.95 110.543 22.47 111.783 22.13C113.023 21.79 114.283 21.62 115.563 21.62C118.023 21.62 119.933 22.2 121.293 23.36C122.653 24.52 123.333 26.33 123.333 28.79V38H118.953ZM114.033 38.24C112.773 38.24 111.693 38.03 110.793 37.61C109.893 37.17 109.203 36.58 108.723 35.84C108.243 35.1 108.003 34.27 108.003 33.35C108.003 32.39 108.233 31.55 108.693 30.83C109.173 30.11 109.923 29.55 110.943 29.15C111.963 28.73 113.293 28.52 114.933 28.52H119.223V31.25H115.443C114.343 31.25 113.583 31.43 113.163 31.79C112.763 32.15 112.563 32.6 112.563 33.14C112.563 33.74 112.793 34.22 113.253 34.58C113.733 34.92 114.383 35.09 115.203 35.09C115.983 35.09 116.683 34.91 117.303 34.55C117.923 34.17 118.373 33.62 118.653 32.9L119.373 35.06C119.033 36.1 118.413 36.89 117.513 37.43C116.613 37.97 115.453 38.24 114.033 38.24ZM131.655 38L124.875 21.86H129.705L135.345 35.75H132.945L138.795 21.86H143.295L136.485 38H131.655ZM145.205 38V21.86H149.885V38H145.205ZM147.545 19.61C146.685 19.61 145.985 19.36 145.445 18.86C144.905 18.36 144.635 17.74 144.635 17C144.635 16.26 144.905 15.64 145.445 15.14C145.985 14.64 146.685 14.39 147.545 14.39C148.405 14.39 149.105 14.63 149.645 15.11C150.185 15.57 150.455 16.17 150.455 16.91C150.455 17.69 150.185 18.34 149.645 18.86C149.125 19.36 148.425 19.61 147.545 19.61ZM160.828 38.24C158.928 38.24 157.448 37.76 156.388 36.8C155.328 35.82 154.798 34.37 154.798 32.45V18.29H159.478V32.39C159.478 33.07 159.658 33.6 160.018 33.98C160.378 34.34 160.868 34.52 161.488 34.52C162.228 34.52 162.858 34.32 163.378 33.92L164.638 37.22C164.158 37.56 163.578 37.82 162.898 38C162.238 38.16 161.548 38.24 160.828 38.24ZM152.308 25.82V22.22H163.498V25.82H152.308ZM174.075 38.24C172.735 38.24 171.535 37.98 170.475 37.46C169.435 36.94 168.625 36.15 168.045 35.09C167.465 34.01 167.175 32.64 167.175 30.98V21.86H171.855V30.29C171.855 31.63 172.135 32.62 172.695 33.26C173.275 33.88 174.085 34.19 175.125 34.19C175.845 34.19 176.485 34.04 177.045 33.74C177.605 33.42 178.045 32.94 178.365 32.3C178.685 31.64 178.845 30.82 178.845 29.84V21.86H183.525V38H179.085V33.56L179.895 34.85C179.355 35.97 178.555 36.82 177.495 37.4C176.455 37.96 175.315 38.24 174.075 38.24ZM193.291 38.24C191.911 38.24 190.581 38.08 189.301 37.76C188.041 37.42 187.041 37 186.301 36.5L187.861 33.14C188.601 33.6 189.471 33.98 190.471 34.28C191.491 34.56 192.491 34.7 193.471 34.7C194.551 34.7 195.311 34.57 195.751 34.31C196.211 34.05 196.441 33.69 196.441 33.23C196.441 32.85 196.261 32.57 195.901 32.39C195.561 32.19 195.101 32.04 194.521 31.94C193.941 31.84 193.301 31.74 192.601 31.64C191.921 31.54 191.231 31.41 190.531 31.25C189.831 31.07 189.191 30.81 188.611 30.47C188.031 30.13 187.561 29.67 187.201 29.09C186.861 28.51 186.691 27.76 186.691 26.84C186.691 25.82 186.981 24.92 187.561 24.14C188.161 23.36 189.021 22.75 190.141 22.31C191.261 21.85 192.601 21.62 194.161 21.62C195.261 21.62 196.381 21.74 197.521 21.98C198.661 22.22 199.611 22.57 200.371 23.03L198.811 26.36C198.031 25.9 197.241 25.59 196.441 25.43C195.661 25.25 194.901 25.16 194.161 25.16C193.121 25.16 192.361 25.3 191.881 25.58C191.401 25.86 191.161 26.22 191.161 26.66C191.161 27.06 191.331 27.36 191.671 27.56C192.031 27.76 192.501 27.92 193.081 28.04C193.661 28.16 194.291 28.27 194.971 28.37C195.671 28.45 196.371 28.58 197.071 28.76C197.771 28.94 198.401 29.2 198.961 29.54C199.541 29.86 200.011 30.31 200.371 30.89C200.731 31.45 200.911 32.19 200.911 33.11C200.911 34.11 200.611 35 200.011 35.78C199.411 36.54 198.541 37.14 197.401 37.58C196.281 38.02 194.911 38.24 193.291 38.24Z" fill="#00BBAB"/>
<path d="M0 38.5073V23.0708L15.1426 8.46582L28.6106 21.3249L20.4954 29.057L15.2141 24.0685L0 38.5073Z" fill="#00BBAB"/>
<path d="M22.9453 7.23322L30.8363 15.09L38.5316 7.23322L30.7385 0L22.9453 7.23322Z" fill="#00BBAB"/>
<path d="M14.8281 53.9991V38.5073L46.2582 8.46582L61.2004 23.4865V38.5073L46.3871 24.0685L14.8281 53.9991Z" fill="#00BBAB"/>
<path d="M32.6016 40.6568L40.4591 33.2988L46.3844 38.509V54.0008L32.6016 40.6568Z" fill="#00BBAB"/>
</svg>
