<svg width="89" height="102" viewBox="0 0 89 102" fill="none" xmlns="http://www.w3.org/2000/svg">
<path d="M4.72093 1L8.44186 5.60465L4.72093 10.2093L1 5.60465L4.72093 1Z" fill="#00BBAB"/>
<path d="M85.093 91.791L88.8139 96.3957L85.093 101L81.3721 96.3957L85.093 91.791Z" fill="#00BBAB"/>
<path d="M43.788 47.6829L45.5972 46.1582L45.6026 46.1537C52.5185 40.3809 61.7127 41.1933 67.9144 47.6829H79.3974C81.7059 47.6829 83.0396 49.8882 83.0396 51.8652V73.3254C83.0396 75.3029 81.7058 77.5076 79.3974 77.5076H67.0444L56.1479 82.0558C54.8371 82.6221 53.4794 82.8722 52.1764 82.8722H35.3191C35.319 82.8722 35.319 82.8722 35.319 82.8722C32.7965 82.8723 30.372 81.9256 28.3556 80.2203C28.3548 80.2197 28.354 80.219 28.3532 80.2183L9.35167 64.2918C9.34943 64.2899 9.34719 64.2881 9.34495 64.2863C7.94486 63.1341 7.23551 61.3739 7.01807 59.7305C6.8025 58.1013 7.03181 56.3077 7.83927 54.937C9.63605 51.6051 13.5995 50.8012 16.0905 53.0977L28.7326 63.5336C28.9489 63.6155 29.1607 63.6958 29.3769 63.778H53.5477C53.6219 63.778 53.7492 63.7486 53.8965 63.5641C54.0495 63.3725 54.1898 63.0406 54.1898 62.5957C54.1898 62.1503 54.0494 61.8182 53.8964 61.6266C53.7491 61.442 53.6218 61.4127 53.5478 61.4127H30.1971H28.4361L28.7162 59.6741C29.7759 53.0972 34.533 47.6829 40.694 47.6829H43.788Z" stroke="#00BBAB" stroke-width="3"/>
<circle cx="27.2388" cy="28.4629" r="11.835" fill="#00BBAB"/>
<circle cx="53.0927" cy="21.0932" r="7.44186" fill="#00BBAB"/>
</svg>
