<svg width="747" height="245" viewBox="0 0 747 245" fill="none" xmlns="http://www.w3.org/2000/svg">
<rect x="1" y="1" width="745" height="242.562" rx="30" fill="#1A1A22"/>
<rect x="0.5" y="0.5" width="746" height="243.562" rx="30.5" stroke="white" stroke-opacity="0.5"/>
<g filter="url(#filter0_d_2544_1243)">
<g filter="url(#filter1_d_2544_1243)">
<g clip-path="url(#clip0_2544_1243)">
<path d="M171.74 93.5976C152.388 81.7367 121.328 62.6909 73.1515 33.1309C69.9035 30.7802 66.1664 30.4722 62.9375 31.6698L145.595 122.248L171.74 93.5976Z" fill="#32BBFF"/>
<path d="M62.9391 31.6663C62.3339 31.8909 61.745 32.1618 61.1818 32.4891C57.6162 34.6027 54.9961 38.6697 54.9961 43.8134V200.675C54.9961 205.819 57.6159 209.886 61.1818 211.999C61.7441 212.326 62.3326 212.598 62.9372 212.824L145.597 122.244L62.9391 31.6663Z" fill="#32BBFF"/>
<path d="M145.597 122.241L62.9375 212.821C66.1673 214.028 69.9044 213.743 73.1535 211.358C119.875 182.689 150.585 163.869 170.16 151.907C170.705 151.572 171.239 151.244 171.767 150.919L145.597 122.241Z" fill="#32BBFF"/>
<path d="M54.9961 122.242V200.673C54.9961 205.816 57.6159 209.883 61.1818 211.997C61.7441 212.324 62.3326 212.596 62.9372 212.822L145.597 122.242H54.9961Z" fill="#2C9FD9"/>
<path d="M73.151 33.1251C69.2938 30.3342 64.7453 30.4137 61.1797 32.4873L144.34 123.616L171.739 93.5919C152.388 81.731 121.328 62.6852 73.151 33.1251Z" fill="#29CC5E"/>
<path d="M144.341 120.867L61.1797 211.996C64.7456 214.069 69.2938 214.189 73.151 211.358C119.872 182.689 150.582 163.869 170.158 151.907C170.703 151.572 171.237 151.244 171.764 150.919L144.341 120.867Z" fill="#D93F21"/>
<path d="M206.254 122.241C206.254 117.895 204.252 113.509 200.286 111.077C200.286 111.077 192.868 106.541 170.131 92.605L143.086 122.241L170.157 151.907C192.645 138.071 200.286 133.406 200.286 133.406C204.252 130.974 206.254 126.587 206.254 122.241Z" fill="#FFD500"/>
<path d="M200.286 133.406C204.252 130.974 206.254 126.588 206.254 122.242H143.086L170.157 151.907C192.645 138.072 200.286 133.406 200.286 133.406Z" fill="#FFAA00"/>
</g>
<path d="M256.754 166.914C252.825 166.914 249.18 166.298 245.82 165.068C242.459 163.79 239.548 161.991 237.087 159.672C234.673 157.352 232.779 154.631 231.407 151.507C230.034 148.335 229.348 144.856 229.348 141.07C229.348 137.283 230.034 133.828 231.407 130.704C232.779 127.532 234.696 124.787 237.158 122.468C239.619 120.148 242.53 118.373 245.891 117.143C249.299 115.865 253.014 115.226 257.038 115.226C261.724 115.226 265.913 116.007 269.605 117.569C273.297 119.131 276.35 121.379 278.764 124.314L269.818 132.408C268.114 130.562 266.268 129.189 264.28 128.29C262.339 127.343 260.162 126.87 257.748 126.87C255.618 126.87 253.677 127.201 251.926 127.864C250.174 128.526 248.683 129.497 247.453 130.775C246.222 132.005 245.252 133.496 244.542 135.248C243.879 136.952 243.548 138.892 243.548 141.07C243.548 143.152 243.879 145.069 244.542 146.821C245.252 148.572 246.222 150.087 247.453 151.365C248.683 152.595 250.151 153.566 251.855 154.276C253.606 154.938 255.523 155.27 257.606 155.27C259.688 155.27 261.724 154.938 263.712 154.276C265.7 153.566 267.711 152.382 269.747 150.726L277.628 160.595C274.788 162.63 271.498 164.192 267.759 165.281C264.019 166.369 260.351 166.914 256.754 166.914ZM265.203 158.749V140.005H277.628V160.595L265.203 158.749ZM305.213 166.559C301.001 166.559 297.261 165.707 293.995 164.003C290.729 162.299 288.15 159.956 286.256 156.974C284.41 153.944 283.487 150.489 283.487 146.608C283.487 142.726 284.41 139.295 286.256 136.313C288.15 133.331 290.729 131.011 293.995 129.355C297.261 127.651 301.001 126.799 305.213 126.799C309.426 126.799 313.165 127.651 316.431 129.355C319.745 131.011 322.324 133.331 324.17 136.313C326.016 139.295 326.939 142.726 326.939 146.608C326.939 150.489 326.016 153.944 324.17 156.974C322.324 159.956 319.745 162.299 316.431 164.003C313.165 165.707 309.426 166.559 305.213 166.559ZM305.213 155.838C306.775 155.838 308.148 155.483 309.331 154.773C310.562 154.063 311.532 153.021 312.242 151.649C312.952 150.229 313.307 148.548 313.307 146.608C313.307 144.667 312.952 143.034 312.242 141.709C311.532 140.336 310.562 139.295 309.331 138.585C308.148 137.875 306.775 137.52 305.213 137.52C303.699 137.52 302.326 137.875 301.095 138.585C299.912 139.295 298.942 140.336 298.184 141.709C297.474 143.034 297.119 144.667 297.119 146.608C297.119 148.548 297.474 150.229 298.184 151.649C298.942 153.021 299.912 154.063 301.095 154.773C302.326 155.483 303.699 155.838 305.213 155.838ZM352.5 166.559C348.288 166.559 344.548 165.707 341.282 164.003C338.016 162.299 335.437 159.956 333.543 156.974C331.697 153.944 330.774 150.489 330.774 146.608C330.774 142.726 331.697 139.295 333.543 136.313C335.437 133.331 338.016 131.011 341.282 129.355C344.548 127.651 348.288 126.799 352.5 126.799C356.713 126.799 360.452 127.651 363.718 129.355C367.032 131.011 369.611 133.331 371.457 136.313C373.303 139.295 374.226 142.726 374.226 146.608C374.226 150.489 373.303 153.944 371.457 156.974C369.611 159.956 367.032 162.299 363.718 164.003C360.452 165.707 356.713 166.559 352.5 166.559ZM352.5 155.838C354.062 155.838 355.435 155.483 356.618 154.773C357.849 154.063 358.819 153.021 359.529 151.649C360.239 150.229 360.594 148.548 360.594 146.608C360.594 144.667 360.239 143.034 359.529 141.709C358.819 140.336 357.849 139.295 356.618 138.585C355.435 137.875 354.062 137.52 352.5 137.52C350.986 137.52 349.613 137.875 348.382 138.585C347.199 139.295 346.229 140.336 345.471 141.709C344.761 143.034 344.406 144.667 344.406 146.608C344.406 148.548 344.761 150.229 345.471 151.649C346.229 153.021 347.199 154.063 348.382 154.773C349.613 155.483 350.986 155.838 352.5 155.838ZM399.291 180.333C395.599 180.333 392.072 179.907 388.712 179.055C385.398 178.203 382.558 176.948 380.192 175.292L385.091 165.849C386.7 167.127 388.688 168.121 391.055 168.831C393.469 169.588 395.812 169.967 398.084 169.967C401.728 169.967 404.355 169.162 405.965 167.553C407.574 165.991 408.379 163.695 408.379 160.666V156.122L409.089 145.33L409.018 134.467V127.438H421.869V158.891C421.869 166.18 419.904 171.576 415.976 175.079C412.047 178.581 406.485 180.333 399.291 180.333ZM396.948 163.932C393.54 163.932 390.392 163.174 387.505 161.66C384.665 160.098 382.369 157.944 380.618 155.199C378.914 152.406 378.062 149.116 378.062 145.33C378.062 141.543 378.914 138.277 380.618 135.532C382.369 132.739 384.665 130.585 387.505 129.071C390.392 127.556 393.54 126.799 396.948 126.799C400.214 126.799 403.006 127.461 405.326 128.787C407.645 130.065 409.396 132.076 410.58 134.822C411.81 137.567 412.426 141.07 412.426 145.33C412.426 149.59 411.81 153.092 410.58 155.838C409.396 158.583 407.645 160.618 405.326 161.944C403.006 163.269 400.214 163.932 396.948 163.932ZM400.143 153.211C401.752 153.211 403.172 152.879 404.403 152.217C405.681 151.554 406.675 150.631 407.385 149.448C408.142 148.264 408.521 146.892 408.521 145.33C408.521 143.768 408.142 142.395 407.385 141.212C406.675 140.028 405.681 139.129 404.403 138.514C403.172 137.851 401.752 137.52 400.143 137.52C398.533 137.52 397.09 137.851 395.812 138.514C394.534 139.129 393.516 140.028 392.759 141.212C392.049 142.395 391.694 143.768 391.694 145.33C391.694 146.892 392.049 148.264 392.759 149.448C393.516 150.631 394.534 151.554 395.812 152.217C397.09 152.879 398.533 153.211 400.143 153.211ZM430.536 165.92V113.238H444.026V165.92H430.536ZM472.957 166.559C468.413 166.559 464.437 165.707 461.029 164.003C457.668 162.251 455.041 159.885 453.148 156.903C451.302 153.873 450.379 150.442 450.379 146.608C450.379 142.774 451.278 139.366 453.077 136.384C454.923 133.354 457.455 131.011 460.674 129.355C463.893 127.651 467.514 126.799 471.537 126.799C475.324 126.799 478.779 127.58 481.903 129.142C485.027 130.656 487.512 132.905 489.358 135.887C491.204 138.869 492.127 142.49 492.127 146.75C492.127 147.223 492.103 147.767 492.056 148.383C492.009 148.998 491.961 149.566 491.914 150.087H461.455V142.987H484.743L479.631 144.975C479.678 143.223 479.347 141.709 478.637 140.431C477.974 139.153 477.028 138.159 475.797 137.449C474.614 136.739 473.217 136.384 471.608 136.384C469.999 136.384 468.579 136.739 467.348 137.449C466.165 138.159 465.242 139.176 464.579 140.502C463.916 141.78 463.585 143.294 463.585 145.046V147.105C463.585 148.998 463.964 150.631 464.721 152.004C465.526 153.376 466.662 154.441 468.129 155.199C469.596 155.909 471.348 156.264 473.383 156.264C475.276 156.264 476.886 156.003 478.211 155.483C479.584 154.915 480.933 154.063 482.258 152.927L489.358 160.311C487.512 162.346 485.24 163.908 482.542 164.997C479.844 166.038 476.649 166.559 472.957 166.559ZM519.648 165.92V116.22H542.368C546.912 116.22 550.817 116.953 554.083 118.421C557.396 119.888 559.952 122.018 561.751 124.811C563.549 127.556 564.449 130.822 564.449 134.609C564.449 138.348 563.549 141.59 561.751 144.336C559.952 147.081 557.396 149.211 554.083 150.726C550.817 152.193 546.912 152.927 542.368 152.927H527.458L533.706 146.821V165.92H519.648ZM533.706 148.312L527.458 141.851H541.516C544.45 141.851 546.628 141.212 548.048 139.934C549.515 138.656 550.249 136.881 550.249 134.609C550.249 132.289 549.515 130.491 548.048 129.213C546.628 127.935 544.45 127.296 541.516 127.296H527.458L533.706 120.835V148.312ZM571.357 165.92V113.238H584.847V165.92H571.357ZM617.115 165.92V158.749L616.192 156.974V143.768C616.192 141.638 615.53 140.005 614.204 138.869C612.926 137.685 610.867 137.094 608.027 137.094C606.181 137.094 604.312 137.401 602.418 138.017C600.525 138.585 598.916 139.389 597.59 140.431L593.046 131.272C595.224 129.852 597.827 128.763 600.856 128.006C603.933 127.201 606.986 126.799 610.015 126.799C616.263 126.799 621.091 128.242 624.499 131.13C627.955 133.97 629.682 138.443 629.682 144.549V165.92H617.115ZM605.755 166.559C602.679 166.559 600.075 166.038 597.945 164.997C595.815 163.955 594.182 162.535 593.046 160.737C591.958 158.938 591.413 156.926 591.413 154.702C591.413 152.335 592.005 150.3 593.188 148.596C594.419 146.844 596.289 145.519 598.797 144.62C601.306 143.673 604.548 143.2 608.524 143.2H617.612V150.229H610.37C608.193 150.229 606.655 150.584 605.755 151.294C604.903 152.004 604.477 152.95 604.477 154.134C604.477 155.317 604.927 156.264 605.826 156.974C606.726 157.684 607.956 158.039 609.518 158.039C610.986 158.039 612.311 157.684 613.494 156.974C614.725 156.216 615.624 155.08 616.192 153.566L618.038 158.536C617.328 161.186 615.932 163.198 613.849 164.571C611.814 165.896 609.116 166.559 605.755 166.559ZM644.107 180.333C642.072 180.333 640.013 180.001 637.93 179.339C635.895 178.723 634.238 177.895 632.96 176.854L637.646 167.411C638.451 168.121 639.374 168.665 640.415 169.044C641.504 169.47 642.569 169.683 643.61 169.683C645.077 169.683 646.237 169.351 647.089 168.689C647.941 168.026 648.675 166.985 649.29 165.565L651.065 161.092L652.13 159.743L665.194 127.438H678.045L661.431 167.482C660.106 170.795 658.567 173.375 656.816 175.221C655.112 177.114 653.195 178.439 651.065 179.197C648.982 179.954 646.663 180.333 644.107 180.333ZM649.361 167.553L632.392 127.438H646.237L658.733 158.536L649.361 167.553Z" fill="white" fill-opacity="0.75"/>
<path d="M252.709 72.0367H244.063L242.677 76.1287H236.77L245.152 52.9627H251.686L260.068 76.1287H254.095L252.709 72.0367ZM251.257 67.6807L248.386 59.1997L245.548 67.6807H251.257ZM274.839 57.5167C276.995 57.5167 278.711 58.2207 279.987 59.6287C281.285 61.0147 281.934 62.9287 281.934 65.3707V76.1287H276.324V66.1297C276.324 64.8977 276.005 63.9407 275.367 63.2587C274.729 62.5767 273.871 62.2357 272.793 62.2357C271.715 62.2357 270.857 62.5767 270.219 63.2587C269.581 63.9407 269.262 64.8977 269.262 66.1297V76.1287H263.619V57.7147H269.262V60.1567C269.834 59.3427 270.604 58.7047 271.572 58.2427C272.54 57.7587 273.629 57.5167 274.839 57.5167ZM285.734 66.8887C285.734 64.9967 286.086 63.3357 286.79 61.9057C287.516 60.4757 288.495 59.3757 289.727 58.6057C290.959 57.8357 292.334 57.4507 293.852 57.4507C295.062 57.4507 296.162 57.7037 297.152 58.2097C298.164 58.7157 298.956 59.3977 299.528 60.2557V51.7087H305.171V76.1287H299.528V73.4887C299 74.3687 298.241 75.0727 297.251 75.6007C296.283 76.1287 295.15 76.3927 293.852 76.3927C292.334 76.3927 290.959 76.0077 289.727 75.2377C288.495 74.4457 287.516 73.3347 286.79 71.9047C286.086 70.4527 285.734 68.7807 285.734 66.8887ZM299.528 66.9217C299.528 65.5137 299.132 64.4027 298.34 63.5887C297.57 62.7747 296.624 62.3677 295.502 62.3677C294.38 62.3677 293.423 62.7747 292.631 63.5887C291.861 64.3807 291.476 65.4807 291.476 66.8887C291.476 68.2967 291.861 69.4187 292.631 70.2547C293.423 71.0687 294.38 71.4757 295.502 71.4757C296.624 71.4757 297.57 71.0687 298.34 70.2547C299.132 69.4407 299.528 68.3297 299.528 66.9217ZM315.896 60.7837C316.556 59.7717 317.381 58.9797 318.371 58.4077C319.361 57.8137 320.461 57.5167 321.671 57.5167V63.4897H320.12C318.712 63.4897 317.656 63.7977 316.952 64.4137C316.248 65.0077 315.896 66.0637 315.896 67.5817V76.1287H310.253V57.7147H315.896V60.7837ZM333.75 76.3927C331.946 76.3927 330.318 76.0077 328.866 75.2377C327.436 74.4677 326.303 73.3677 325.467 71.9377C324.653 70.5077 324.246 68.8357 324.246 66.9217C324.246 65.0297 324.664 63.3687 325.5 61.9387C326.336 60.4867 327.48 59.3757 328.932 58.6057C330.384 57.8357 332.012 57.4507 333.816 57.4507C335.62 57.4507 337.248 57.8357 338.7 58.6057C340.152 59.3757 341.296 60.4867 342.132 61.9387C342.968 63.3687 343.386 65.0297 343.386 66.9217C343.386 68.8137 342.957 70.4857 342.099 71.9377C341.263 73.3677 340.108 74.4677 338.634 75.2377C337.182 76.0077 335.554 76.3927 333.75 76.3927ZM333.75 71.5087C334.828 71.5087 335.741 71.1127 336.489 70.3207C337.259 69.5287 337.644 68.3957 337.644 66.9217C337.644 65.4477 337.27 64.3147 336.522 63.5227C335.796 62.7307 334.894 62.3347 333.816 62.3347C332.716 62.3347 331.803 62.7307 331.077 63.5227C330.351 64.2927 329.988 65.4257 329.988 66.9217C329.988 68.3957 330.34 69.5287 331.044 70.3207C331.77 71.1127 332.672 71.5087 333.75 71.5087ZM350.218 55.8007C349.228 55.8007 348.414 55.5147 347.776 54.9427C347.16 54.3487 346.852 53.6227 346.852 52.7647C346.852 51.8847 347.16 51.1587 347.776 50.5867C348.414 49.9927 349.228 49.6957 350.218 49.6957C351.186 49.6957 351.978 49.9927 352.594 50.5867C353.232 51.1587 353.551 51.8847 353.551 52.7647C353.551 53.6227 353.232 54.3487 352.594 54.9427C351.978 55.5147 351.186 55.8007 350.218 55.8007ZM353.023 57.7147V76.1287H347.38V57.7147H353.023ZM356.99 66.8887C356.99 64.9967 357.342 63.3357 358.046 61.9057C358.772 60.4757 359.751 59.3757 360.983 58.6057C362.215 57.8357 363.59 57.4507 365.108 57.4507C366.318 57.4507 367.418 57.7037 368.408 58.2097C369.42 58.7157 370.212 59.3977 370.784 60.2557V51.7087H376.427V76.1287H370.784V73.4887C370.256 74.3687 369.497 75.0727 368.507 75.6007C367.539 76.1287 366.406 76.3927 365.108 76.3927C363.59 76.3927 362.215 76.0077 360.983 75.2377C359.751 74.4457 358.772 73.3347 358.046 71.9047C357.342 70.4527 356.99 68.7807 356.99 66.8887ZM370.784 66.9217C370.784 65.5137 370.388 64.4027 369.596 63.5887C368.826 62.7747 367.88 62.3677 366.758 62.3677C365.636 62.3677 364.679 62.7747 363.887 63.5887C363.117 64.3807 362.732 65.4807 362.732 66.8887C362.732 68.2967 363.117 69.4187 363.887 70.2547C364.679 71.0687 365.636 71.4757 366.758 71.4757C367.88 71.4757 368.826 71.0687 369.596 70.2547C370.388 69.4407 370.784 68.3297 370.784 66.9217ZM403.924 72.0367H395.278L393.892 76.1287H387.985L396.367 52.9627H402.901L411.283 76.1287H405.31L403.924 72.0367ZM402.472 67.6807L399.601 59.1997L396.763 67.6807H402.472ZM420.477 60.3217C421.027 59.4637 421.786 58.7707 422.754 58.2427C423.722 57.7147 424.855 57.4507 426.153 57.4507C427.671 57.4507 429.046 57.8357 430.278 58.6057C431.51 59.3757 432.478 60.4757 433.182 61.9057C433.908 63.3357 434.271 64.9967 434.271 66.8887C434.271 68.7807 433.908 70.4527 433.182 71.9047C432.478 73.3347 431.51 74.4457 430.278 75.2377C429.046 76.0077 427.671 76.3927 426.153 76.3927C424.877 76.3927 423.744 76.1287 422.754 75.6007C421.786 75.0727 421.027 74.3907 420.477 73.5547V84.9067H414.834V57.7147H420.477V60.3217ZM428.529 66.8887C428.529 65.4807 428.133 64.3807 427.341 63.5887C426.571 62.7747 425.614 62.3677 424.47 62.3677C423.348 62.3677 422.391 62.7747 421.599 63.5887C420.829 64.4027 420.444 65.5137 420.444 66.9217C420.444 68.3297 420.829 69.4407 421.599 70.2547C422.391 71.0687 423.348 71.4757 424.47 71.4757C425.592 71.4757 426.549 71.0687 427.341 70.2547C428.133 69.4187 428.529 68.2967 428.529 66.8887ZM443.875 60.3217C444.425 59.4637 445.184 58.7707 446.152 58.2427C447.12 57.7147 448.253 57.4507 449.551 57.4507C451.069 57.4507 452.444 57.8357 453.676 58.6057C454.908 59.3757 455.876 60.4757 456.58 61.9057C457.306 63.3357 457.669 64.9967 457.669 66.8887C457.669 68.7807 457.306 70.4527 456.58 71.9047C455.876 73.3347 454.908 74.4457 453.676 75.2377C452.444 76.0077 451.069 76.3927 449.551 76.3927C448.275 76.3927 447.142 76.1287 446.152 75.6007C445.184 75.0727 444.425 74.3907 443.875 73.5547V84.9067H438.232V57.7147H443.875V60.3217ZM451.927 66.8887C451.927 65.4807 451.531 64.3807 450.739 63.5887C449.969 62.7747 449.012 62.3677 447.868 62.3677C446.746 62.3677 445.789 62.7747 444.997 63.5887C444.227 64.4027 443.842 65.5137 443.842 66.9217C443.842 68.3297 444.227 69.4407 444.997 70.2547C445.789 71.0687 446.746 71.4757 447.868 71.4757C448.99 71.4757 449.947 71.0687 450.739 70.2547C451.531 69.4187 451.927 68.2967 451.927 66.8887ZM478.004 76.3927C476.2 76.3927 474.572 76.0077 473.12 75.2377C471.69 74.4677 470.557 73.3677 469.721 71.9377C468.907 70.5077 468.5 68.8357 468.5 66.9217C468.5 65.0297 468.918 63.3687 469.754 61.9387C470.59 60.4867 471.734 59.3757 473.186 58.6057C474.638 57.8357 476.266 57.4507 478.07 57.4507C479.874 57.4507 481.502 57.8357 482.954 58.6057C484.406 59.3757 485.55 60.4867 486.386 61.9387C487.222 63.3687 487.64 65.0297 487.64 66.9217C487.64 68.8137 487.211 70.4857 486.353 71.9377C485.517 73.3677 484.362 74.4677 482.888 75.2377C481.436 76.0077 479.808 76.3927 478.004 76.3927ZM478.004 71.5087C479.082 71.5087 479.995 71.1127 480.743 70.3207C481.513 69.5287 481.898 68.3957 481.898 66.9217C481.898 65.4477 481.524 64.3147 480.776 63.5227C480.05 62.7307 479.148 62.3347 478.07 62.3347C476.97 62.3347 476.057 62.7307 475.331 63.5227C474.605 64.2927 474.242 65.4257 474.242 66.9217C474.242 68.3957 474.594 69.5287 475.298 70.3207C476.024 71.1127 476.926 71.5087 478.004 71.5087ZM502.854 57.5167C505.01 57.5167 506.726 58.2207 508.002 59.6287C509.3 61.0147 509.949 62.9287 509.949 65.3707V76.1287H504.339V66.1297C504.339 64.8977 504.02 63.9407 503.382 63.2587C502.744 62.5767 501.886 62.2357 500.808 62.2357C499.73 62.2357 498.872 62.5767 498.234 63.2587C497.596 63.9407 497.277 64.8977 497.277 66.1297V76.1287H491.634V57.7147H497.277V60.1567C497.849 59.3427 498.619 58.7047 499.587 58.2427C500.555 57.7587 501.644 57.5167 502.854 57.5167Z" fill="white" fill-opacity="0.75"/>
</g>
</g>
<defs>
<filter id="filter0_d_2544_1243" x="45.1736" y="30.5054" width="635.028" height="186.863" filterUnits="userSpaceOnUse" color-interpolation-filters="sRGB">
<feFlood flood-opacity="0" result="BackgroundImageFix"/>
<feColorMatrix in="SourceAlpha" type="matrix" values="0 0 0 0 0 0 0 0 0 0 0 0 0 0 0 0 0 0 127 0" result="hardAlpha"/>
<feOffset dy="1.68803"/>
<feGaussianBlur stdDeviation="1.07923"/>
<feColorMatrix type="matrix" values="0 0 0 0 0 0 0 0 0 0 0 0 0 0 0 0 0 0 0.120893 0"/>
<feBlend mode="normal" in2="BackgroundImageFix" result="effect1_dropShadow_2544_1243"/>
<feBlend mode="normal" in="SourceGraphic" in2="effect1_dropShadow_2544_1243" result="shape"/>
</filter>
<filter id="filter1_d_2544_1243" x="45.1736" y="30.5054" width="635.028" height="186.863" filterUnits="userSpaceOnUse" color-interpolation-filters="sRGB">
<feFlood flood-opacity="0" result="BackgroundImageFix"/>
<feColorMatrix in="SourceAlpha" type="matrix" values="0 0 0 0 0 0 0 0 0 0 0 0 0 0 0 0 0 0 127 0" result="hardAlpha"/>
<feOffset dy="1.68803"/>
<feGaussianBlur stdDeviation="1.07923"/>
<feColorMatrix type="matrix" values="0 0 0 0 0 0 0 0 0 0 0 0 0 0 0 0 0 0 0.120893 0"/>
<feBlend mode="normal" in2="BackgroundImageFix" result="effect1_dropShadow_2544_1243"/>
<feBlend mode="normal" in="SourceGraphic" in2="effect1_dropShadow_2544_1243" result="shape"/>
</filter>
<clipPath id="clip0_2544_1243">
<rect x="47.332" y="30.9758" width="166.584" height="182.546" rx="30" fill="white"/>
</clipPath>
</defs>
</svg>
