<svg width="115" height="114" viewBox="0 0 115 114" fill="none" xmlns="http://www.w3.org/2000/svg">
<g clip-path="url(#clip0_2063_1135)">
<path d="M115 73.3615C115 95.3591 97.1515 113.192 75.1348 113.192C57.2405 113.192 42.0944 101.415 37.0559 85.184C35.8955 81.4466 35.2695 77.4803 35.2695 73.3462C35.2695 51.3486 53.118 33.5156 75.1348 33.5156C76.967 33.5156 78.7533 33.6377 80.5244 33.8817C99.9914 36.5056 115 53.1792 115 73.3462V73.3615Z" fill="#00A899"/>
<path d="M107.133 83.0639C112.486 65.4052 102.498 46.7543 84.824 41.406C67.1499 36.0577 48.4828 46.0373 43.1299 63.696C37.7769 81.3547 47.7652 100.006 65.4393 105.354C83.1134 110.702 101.78 100.723 107.133 83.0639Z" fill="#00DACB"/>
<path d="M105.492 81.4836C109.986 64.7098 100.032 47.4806 83.2595 43.0011C66.4866 38.5216 49.2459 48.4882 44.7514 65.2621C40.2568 82.0359 50.2104 99.2651 66.9834 103.745C83.7563 108.224 100.997 98.2575 105.492 81.4836Z" fill="url(#paint0_linear_2063_1135)" stroke="white" stroke-width="0.13" stroke-miterlimit="10"/>
<path d="M72.9231 92.8723V88.3263C69.7168 88.189 66.6021 87.2737 64.7852 86.2669L66.2204 80.6684C68.2358 81.7667 71.0604 82.7735 74.1598 82.7735C76.9386 82.7735 78.8014 81.6752 78.8014 79.8141C78.8014 77.953 77.2745 76.8546 73.6865 75.6495C68.5717 73.9257 65.0752 71.5307 65.0752 66.8932C65.0752 62.637 68.0373 59.342 73.1674 58.3809V53.835H77.8547V58.0453C81.0152 58.1368 83.1681 58.8538 84.8476 59.6166L83.4123 65.0168C82.2214 64.4371 79.9617 63.3388 76.5264 63.3388C73.4117 63.3388 72.404 64.727 72.404 66.0694C72.404 67.5949 74.0835 68.6475 78.1906 70.1272C83.8857 72.1409 86.1301 74.7647 86.1301 79.1124C86.1301 83.46 83.1681 86.9991 77.6562 87.9144V92.8418H72.9231V92.8723Z" fill="white"/>
<g style="mix-blend-mode:soft-light" opacity="0.4">
<path d="M82.2952 45.7196C82.2952 67.7171 64.4467 85.5501 42.43 85.5501C40.5978 85.5501 38.8114 85.4281 37.0403 85.184C35.8799 81.4466 35.2539 77.4803 35.2539 73.3462C35.2539 51.3486 53.1024 33.5156 75.1192 33.5156C76.9513 33.5156 78.7377 33.6377 80.5088 33.8817C81.6692 37.6192 82.2952 41.5855 82.2952 45.7043V45.7196Z" fill="black"/>
</g>
<path d="M79.2633 49.6311C82.586 27.8853 67.6357 7.56549 45.8709 4.24567C24.1061 0.925856 3.76869 15.8631 0.445981 37.609C-2.87673 59.3549 12.0735 79.6746 33.8383 82.9945C55.6031 86.3143 75.9406 71.377 79.2633 49.6311Z" fill="#00BBAB"/>
<path d="M39.867 77.0226C58.334 77.0226 73.3044 62.0652 73.3044 43.6143C73.3044 25.1634 58.334 10.2061 39.867 10.2061C21.4001 10.2061 6.42969 25.1634 6.42969 43.6143C6.42969 62.0652 21.4001 77.0226 39.867 77.0226Z" fill="url(#paint1_linear_2063_1135)"/>
<path d="M70.2297 35.4627C65.7361 18.6924 48.4995 8.7523 31.7306 13.2609C14.9617 17.7696 5.01065 35.0196 9.50425 51.7899C13.9978 68.5602 31.2345 78.5003 48.0034 73.9917C64.7722 69.4831 74.7233 52.233 70.2297 35.4627Z" stroke="white" stroke-width="0.13" stroke-miterlimit="10"/>
<path d="M52.5091 42.0738C54.4329 43.8433 55.6696 46.3757 55.6696 49.1978V49.747C55.7002 55.1015 51.3487 59.4644 45.9896 59.4644H45.7453V62.3323H39.5159V59.4644H36.9356V62.3323H30.7062V59.4644H26.141L26.1104 53.2251H29.2099L29.1793 45.7197L29.1488 39.4804L29.1183 32.7225H26.0188L25.9883 26.4832H30.5382V22.9746H36.7676V26.4832H39.3479V22.9746H45.5774V26.5137C50.4937 26.8036 54.4177 30.8767 54.4482 35.8498V36.3684C54.4482 38.5194 53.7306 40.5025 52.5091 42.089V42.0738ZM49.4249 49.7317V49.1826C49.4249 47.2604 47.8371 45.7044 45.9285 45.7044H35.424L35.4546 53.2099H45.9591C47.8829 53.2099 49.4402 51.6538 49.4249 49.7317ZM35.3477 32.7072L35.3782 39.4652H45.0735C46.7988 39.4652 48.1882 38.0617 48.1882 36.3379V35.8192C48.1882 34.0954 46.7683 32.692 45.043 32.692H35.3477" fill="white"/>
<path d="M70.1286 3.31092L76.6023 17.4827L79.1826 12.5096C79.1826 12.5096 94.9394 16.7658 102.482 34.5988L109.383 28.8019C109.383 28.8019 100.802 10.618 82.6027 4.79065L84.9998 -0.0146484L70.1133 3.29567L70.1286 3.31092Z" fill="url(#paint2_linear_2063_1135)"/>
<path d="M39.131 112.78L34.688 97.8456L31.4511 102.422C31.4511 102.422 16.4425 96.0303 11.4345 77.3125L3.78516 82.1025C3.78516 82.1025 9.77029 101.293 26.9775 109.577L23.9392 114.001L39.1463 112.78H39.131Z" fill="url(#paint3_linear_2063_1135)"/>
</g>
<defs>
<linearGradient id="paint0_linear_2063_1135" x1="44.7514" y1="65.2621" x2="105.478" y2="81.5337" gradientUnits="userSpaceOnUse">
<stop stop-color="#00BBAB"/>
<stop offset="1" stop-color="#00EEDA"/>
</linearGradient>
<linearGradient id="paint1_linear_2063_1135" x1="39.867" y1="10.2061" x2="39.867" y2="77.0226" gradientUnits="userSpaceOnUse">
<stop stop-color="#00BBAB"/>
<stop offset="1" stop-color="#00EEDA"/>
</linearGradient>
<linearGradient id="paint2_linear_2063_1135" x1="89.7482" y1="-0.0146484" x2="89.7482" y2="34.5988" gradientUnits="userSpaceOnUse">
<stop stop-color="#00BBAB"/>
<stop offset="1" stop-color="#00EEDA"/>
</linearGradient>
<linearGradient id="paint3_linear_2063_1135" x1="21.4657" y1="77.3125" x2="21.4657" y2="114.001" gradientUnits="userSpaceOnUse">
<stop stop-color="#00BBAB"/>
<stop offset="1" stop-color="#00EEDA"/>
</linearGradient>
<clipPath id="clip0_2063_1135">
<rect width="115" height="114" fill="white"/>
</clipPath>
</defs>
</svg>
