<svg width="142" height="175" viewBox="0 0 142 175" fill="none" xmlns="http://www.w3.org/2000/svg">
<g clip-path="url(#clip0_2063_1271)">
<path d="M97.2852 64.1876L112.637 70.4746L141.999 67.35L127.471 61.4395L97.2852 64.1876Z" fill="url(#paint0_linear_2063_1271)"/>
<path d="M97.2852 64.1875V160.619L113.27 166.379L112.637 70.4745L97.2852 64.1875Z" fill="url(#paint1_linear_2063_1271)"/>
<path d="M113.269 166.379L141.999 162.972V67.3496L112.637 70.4743L113.269 166.379Z" fill="url(#paint2_linear_2063_1271)"/>
<path d="M60.8516 99.7638L76.1843 106.051L105.546 102.926L91.0378 97.0156L60.8516 99.7638Z" fill="url(#paint3_linear_2063_1271)"/>
<path d="M60.8516 99.7637V166.135L76.8167 170.897L76.1843 106.051L60.8516 99.7637Z" fill="url(#paint4_linear_2063_1271)"/>
<path d="M76.8161 170.897L105.546 168.205V102.926L76.1836 106.05L76.8161 170.897Z" fill="url(#paint5_linear_2063_1271)"/>
<path d="M21.9648 120.055L37.2975 126.342L66.6788 123.199L52.1511 117.288L21.9648 120.055Z" fill="url(#paint6_linear_2063_1271)"/>
<path d="M21.9648 120.055V169.183L37.93 175L37.2975 126.342L21.9648 120.055Z" fill="url(#paint7_linear_2063_1271)"/>
<path d="M37.9294 175L66.6782 171.687V123.198L37.2969 126.342L37.9294 175Z" fill="url(#paint8_linear_2063_1271)"/>
<path d="M104.569 3.14349L97.1327 0L60.1042 32.5454L71.8912 36.2348C71.8912 36.2348 49.8313 87.5471 0 104.168L9.25712 107.537C9.25712 107.537 53.262 101.476 92.1112 38.6254L104.569 3.14349Z" fill="url(#paint9_linear_2063_1271)"/>
<path d="M9.25781 107.537C9.25781 107.537 53.8376 92.7235 80.2291 38.1737L68.5762 35.4819L104.57 3.14355L107.31 53.3264L95.6576 46.9265C95.6576 46.9265 68.9212 105.185 9.25781 107.537Z" fill="url(#paint10_linear_2063_1271)"/>
<path d="M60.125 32.5454L68.5771 35.4631L104.571 3.14349L97.1535 0L60.125 32.5454Z" fill="url(#paint11_linear_2063_1271)"/>
</g>
<defs>
<linearGradient id="paint0_linear_2063_1271" x1="119.642" y1="61.4395" x2="119.642" y2="70.4746" gradientUnits="userSpaceOnUse">
<stop stop-color="#00BBAB"/>
<stop offset="1" stop-color="#00EEDA"/>
</linearGradient>
<linearGradient id="paint1_linear_2063_1271" x1="97.2852" y1="115.293" x2="113.27" y2="115.293" gradientUnits="userSpaceOnUse">
<stop stop-color="#00BBAB"/>
<stop offset="1" stop-color="#00BBAB"/>
</linearGradient>
<linearGradient id="paint2_linear_2063_1271" x1="127.318" y1="67.3496" x2="127.318" y2="166.379" gradientUnits="userSpaceOnUse">
<stop stop-color="#00BBAB"/>
<stop offset="1" stop-color="#00EEDA"/>
</linearGradient>
<linearGradient id="paint3_linear_2063_1271" x1="83.199" y1="97.0156" x2="83.199" y2="106.051" gradientUnits="userSpaceOnUse">
<stop stop-color="#00BBAB"/>
<stop offset="1" stop-color="#00EEDA"/>
</linearGradient>
<linearGradient id="paint4_linear_2063_1271" x1="68.8342" y1="99.7637" x2="68.8342" y2="170.897" gradientUnits="userSpaceOnUse">
<stop stop-color="#00BBAB"/>
<stop offset="1" stop-color="#00A193"/>
</linearGradient>
<linearGradient id="paint5_linear_2063_1271" x1="76.1836" y1="136.902" x2="105.546" y2="136.902" gradientUnits="userSpaceOnUse">
<stop stop-color="#00BBAB"/>
<stop offset="1" stop-color="#42EFE0"/>
</linearGradient>
<linearGradient id="paint6_linear_2063_1271" x1="44.3218" y1="117.288" x2="44.3218" y2="126.342" gradientUnits="userSpaceOnUse">
<stop stop-color="#00BBAB"/>
<stop offset="1" stop-color="#00EEDA"/>
</linearGradient>
<linearGradient id="paint7_linear_2063_1271" x1="21.9648" y1="147.518" x2="37.93" y2="147.518" gradientUnits="userSpaceOnUse">
<stop stop-color="#00BBAB"/>
<stop offset="1" stop-color="#009D90"/>
</linearGradient>
<linearGradient id="paint8_linear_2063_1271" x1="37.2969" y1="149.099" x2="66.6782" y2="149.099" gradientUnits="userSpaceOnUse">
<stop stop-color="#00BBAB"/>
<stop offset="1" stop-color="#2CF1E0"/>
</linearGradient>
<linearGradient id="paint9_linear_2063_1271" x1="52.2845" y1="0" x2="52.2845" y2="107.537" gradientUnits="userSpaceOnUse">
<stop stop-color="#004741"/>
<stop offset="1" stop-color="#00EEDA"/>
</linearGradient>
<linearGradient id="paint10_linear_2063_1271" x1="58.2841" y1="3.14355" x2="58.2841" y2="107.537" gradientUnits="userSpaceOnUse">
<stop stop-color="#00BBAB"/>
<stop offset="1" stop-color="#00EEDA"/>
</linearGradient>
<linearGradient id="paint11_linear_2063_1271" x1="82.3478" y1="0" x2="82.3478" y2="35.4631" gradientUnits="userSpaceOnUse">
<stop stop-color="#00BBAB"/>
<stop offset="1" stop-color="#00EEDA"/>
</linearGradient>
<clipPath id="clip0_2063_1271">
<rect width="142" height="175" fill="white"/>
</clipPath>
</defs>
</svg>
