<svg width="132" height="110" viewBox="0 0 132 110" fill="none" xmlns="http://www.w3.org/2000/svg">
<g clip-path="url(#clip0_2063_1291)">
<path d="M73.1016 48.3767L87.6922 40.6406L103.101 48.5978L87.6922 57.3948L73.1016 48.3767Z" fill="url(#paint0_linear_2063_1291)"/>
<path opacity="0.7" d="M87.6922 17.7266L73.1016 48.3763L87.6922 57.3943V17.7266Z" fill="url(#paint1_linear_2063_1291)"/>
<path opacity="0.7" d="M87.6914 17.7266V57.3943L103.1 48.5973L87.6914 17.7266Z" fill="url(#paint2_linear_2063_1291)"/>
<path d="M73.1016 48.376L87.6922 69.5213V57.3941L73.1016 48.376Z" fill="url(#paint3_linear_2063_1291)"/>
<path d="M87.6914 69.522L103.1 48.5977L87.6914 57.3947V69.522Z" fill="url(#paint4_linear_2063_1291)"/>
<path opacity="0.5" d="M103.041 48.4946L87.6922 57.2474L73.1611 48.2588L73.1016 48.3767L87.6922 57.3948V69.522L87.8409 69.3305V57.3948L103.101 48.5977L103.041 48.4946Z" fill="white"/>
<path opacity="0.3" d="M126.241 45.9083C127.424 24.8794 111.176 6.88195 89.9506 5.70994C68.725 4.53792 50.5593 20.6351 49.3763 41.664C48.1934 62.6929 64.4411 80.6903 85.6667 81.8624C106.892 83.0344 125.058 66.9372 126.241 45.9083Z" fill="url(#paint5_linear_2063_1291)"/>
<path d="M131.509 50.3218C135.182 26.1262 118.138 3.63998 93.6562 0.383446C69.9036 -2.76994 47.7425 13.6748 44.1134 37.1483C43.0872 43.8382 43.6375 50.3955 45.4966 56.4518C46.8204 60.784 45.2289 65.4699 41.5106 68.1075C32.8395 73.427 24.1089 79.4096 15.3635 85.9374C14.4711 86.6005 13.5638 87.293 12.6565 87.9709C11.6898 88.7076 10.7081 89.4444 9.74137 90.1959C8.84898 90.8737 7.95658 91.5663 7.06419 92.2736C5.85945 93.2019 4.6696 94.1597 3.46486 95.1028C-0.253447 97.7404 -1.11609 102.868 1.54622 106.552C2.91455 108.453 4.95219 109.602 7.12368 109.897C9.16131 110.177 11.3179 109.72 13.1176 108.438C14.4562 107.569 15.7799 106.7 17.1036 105.83C18.0555 105.211 18.9925 104.578 19.9295 103.959C20.9707 103.266 21.9969 102.574 23.0232 101.881C23.9602 101.247 24.8972 100.614 25.8342 99.9655C34.9664 93.7177 43.6821 87.3667 51.9516 80.8831C55.4766 78.3781 60.2063 78.2307 63.8651 80.5589C69.0112 83.8449 74.9456 86.1289 81.4006 87.072C105.361 90.5496 127.909 74.0164 131.523 50.2924L131.509 50.3218ZM83.6316 81.6936C83.4978 81.6936 83.349 81.6641 83.2152 81.6494C82.9326 81.6199 82.6649 81.5904 82.3823 81.5462C81.9807 81.4873 81.5791 81.4283 81.1775 81.3546C81.0139 81.3252 80.8355 81.2957 80.6718 81.2662C80.2703 81.1926 79.8836 81.1189 79.482 81.0305C78.8573 80.8831 78.2326 80.7358 77.608 80.5737C77.2956 80.4853 76.9982 80.3968 76.6858 80.3084C76.4032 80.22 76.1058 80.1316 75.8232 80.0432C75.7934 80.0432 75.7786 80.0432 75.7488 80.0137C75.4513 79.9253 75.1687 79.8222 74.8713 79.719C74.5738 79.6159 74.2764 79.498 73.9789 79.3948C73.384 79.1738 72.8039 78.938 72.2387 78.6875C71.9561 78.5697 71.6587 78.437 71.3909 78.3044C71.1084 78.1718 70.8406 78.0392 70.5729 77.9066C70.5729 77.9066 70.558 77.9066 70.5432 77.9066C70.2606 77.7739 69.9929 77.6266 69.7103 77.4792C69.4574 77.3466 69.1897 77.1993 68.9369 77.0666C68.7286 76.9487 68.5353 76.8456 68.3419 76.7277C68.1932 76.6393 68.0296 76.5509 67.8809 76.4625C67.6429 76.3299 67.4198 76.1825 67.1818 76.0352C66.9587 75.8878 66.7356 75.7404 66.5125 75.5931C66.2597 75.431 66.0068 75.2542 65.754 75.0774C65.5011 74.9005 65.2483 74.7237 64.9955 74.5469C64.7426 74.3701 64.5046 74.1785 64.2667 73.9869C64.0436 73.8101 63.8056 73.6333 63.5825 73.4565C63.3743 73.2944 63.166 73.1175 62.9578 72.9407C62.8537 72.8523 62.7645 72.7786 62.6604 72.6902C62.229 72.3218 61.7977 71.9534 61.3961 71.5556C61.2176 71.3935 61.054 71.2314 60.8904 71.0693C60.8458 71.0251 60.8012 70.9809 60.7566 70.9367C60.5632 70.7451 60.3847 70.5683 60.1914 70.3767C59.3288 69.4926 58.5107 68.5643 57.7373 67.6065C57.5588 67.3707 57.3655 67.1497 57.187 66.9139C51.1633 59.0747 48.1738 48.9514 49.676 38.4451C49.7504 37.8851 49.8545 37.3252 49.9586 36.7652C49.9884 36.5589 50.033 36.3526 50.0776 36.1463C50.1073 36.0285 50.1222 35.9253 50.152 35.8074C50.1817 35.6601 50.2115 35.5127 50.2412 35.3654C50.2709 35.218 50.3156 35.0707 50.3453 34.9233C50.3899 34.7612 50.4345 34.5844 50.4792 34.4076C50.5387 34.1571 50.613 33.9066 50.6725 33.656C50.732 33.4203 50.8064 33.1993 50.8659 32.9635C50.97 32.6098 51.089 32.2562 51.1931 31.9025C51.3864 31.2984 51.6095 30.709 51.8326 30.1343C51.9367 29.8396 52.0557 29.5449 52.1747 29.2649C52.264 29.0439 52.3532 28.8228 52.4573 28.6165C52.5168 28.4692 52.5912 28.3218 52.6507 28.1745C52.8886 27.6735 53.1266 27.1725 53.3646 26.6715C53.4687 26.4504 53.5877 26.2441 53.7067 26.0231C53.8405 25.7579 53.9893 25.5074 54.138 25.2421C54.2421 25.0506 54.3462 24.8737 54.4503 24.6969C54.5544 24.5201 54.6586 24.3285 54.7775 24.1517C54.8817 23.9749 55.0006 23.798 55.1047 23.6065C55.1791 23.5033 55.2386 23.3855 55.313 23.2823C56.0715 22.1182 56.8747 20.9983 57.7522 19.9226C57.8266 19.8195 57.9158 19.7311 57.9902 19.6279C58.1835 19.3922 58.3917 19.1564 58.5851 18.9354C58.7338 18.7585 58.8826 18.5817 59.0462 18.4196C59.0462 18.4196 59.0462 18.4196 59.061 18.4049C59.2395 18.2133 59.4031 18.0365 59.5816 17.8449C59.7898 17.6239 59.9832 17.4176 60.2063 17.1966C60.3253 17.0787 60.4442 16.9461 60.5781 16.8282C60.6376 16.7692 60.6971 16.7103 60.7566 16.6514C60.8756 16.5335 60.9946 16.4156 61.1135 16.3124C61.2623 16.1651 61.4259 16.0177 61.5746 15.8851C61.7085 15.7672 61.8275 15.6494 61.9613 15.5315C62.0803 15.4136 62.2142 15.3104 62.3331 15.2073C62.5265 15.0452 62.705 14.8831 62.8983 14.721C62.9876 14.6473 63.0917 14.5589 63.1809 14.4853C63.3594 14.3379 63.5379 14.1905 63.7312 14.0432C63.9692 13.8516 64.2072 13.6748 64.4451 13.498L64.6087 13.3801C64.8021 13.2327 65.0103 13.0854 65.2037 12.938C65.4565 12.7612 65.7094 12.5844 65.9622 12.4076C66.1853 12.2602 66.4084 12.0981 66.6315 11.9508C66.7356 11.8918 66.8397 11.8181 66.929 11.7592C67.1521 11.6118 67.3603 11.4792 67.5834 11.3466C67.8214 11.1993 68.0742 11.0519 68.3122 10.9193C68.565 10.7719 68.8179 10.6246 69.0856 10.4772C69.2938 10.3593 69.502 10.2562 69.7103 10.153C69.8441 10.0794 69.9929 10.0057 70.1416 9.932C70.3201 9.84359 70.4986 9.75518 70.677 9.66677C70.8406 9.59309 70.9894 9.51941 71.153 9.431C71.1827 9.40153 71.2273 9.38679 71.2571 9.37206C71.4207 9.29838 71.5843 9.20997 71.7479 9.15103C71.7628 9.15103 71.7776 9.13629 71.8074 9.12156C72.0156 9.03314 72.2387 8.93 72.4469 8.84158C72.4767 8.84158 72.5064 8.81211 72.5362 8.79738C72.8039 8.67949 73.0716 8.56161 73.3542 8.45846C73.6517 8.34058 73.9343 8.2227 74.2317 8.11955C74.4846 8.0164 74.7523 7.92799 75.02 7.83957C75.1093 7.8101 75.1836 7.78063 75.258 7.75116C75.496 7.66275 75.7488 7.58907 76.0016 7.50066C76.2694 7.41225 76.5371 7.33857 76.8048 7.25016C76.8494 7.25016 76.8792 7.22069 76.9089 7.22069C77.132 7.14701 77.3551 7.08807 77.5931 7.02913C77.7121 6.99965 77.8311 6.95545 77.9649 6.92598C78.1583 6.86704 78.3516 6.82283 78.545 6.77862C78.664 6.74915 78.7829 6.71968 78.9168 6.69021C79.0804 6.646 79.2589 6.61653 79.4225 6.57233C80.3149 6.38077 81.2073 6.21868 82.1145 6.07132C82.1443 6.07132 82.174 6.07132 82.2038 6.07132C82.3823 6.04185 82.5459 6.02712 82.7244 5.99765C82.9623 5.96817 83.1854 5.9387 83.4234 5.90923C83.6614 5.87976 83.9142 5.85029 84.1671 5.83556C84.3158 5.82082 84.4645 5.80608 84.6281 5.79135C84.8661 5.77661 85.1041 5.74714 85.342 5.73241C85.6693 5.71767 85.9965 5.70294 86.3088 5.6882C86.3534 5.6882 86.398 5.6882 86.4278 5.6882C86.7104 5.6882 86.993 5.67347 87.2756 5.67347C87.3053 5.67347 87.3499 5.67347 87.3797 5.67347C87.6623 5.67347 87.9597 5.67347 88.2572 5.67347C88.9116 5.67347 89.566 5.70294 90.2353 5.74714C90.5477 5.76188 90.8451 5.79135 91.1575 5.82082C91.4252 5.85029 91.6929 5.86503 91.9606 5.8945C92.154 5.90923 92.3325 5.9387 92.5109 5.96817C92.734 5.99765 92.9571 6.02712 93.1951 6.05659C114.211 9.01841 128.876 28.366 125.886 49.1872C125.857 49.3493 125.842 49.4966 125.812 49.6587C125.782 49.8798 125.753 50.0861 125.708 50.3071C125.663 50.5281 125.634 50.7492 125.589 50.9849C125.559 51.1765 125.515 51.368 125.47 51.5596C125.366 52.0459 125.262 52.5174 125.143 53.0037C124.83 54.2415 124.459 55.4645 124.042 56.6433C123.968 56.8644 123.879 57.0854 123.804 57.3064C123.715 57.5275 123.641 57.7485 123.551 57.9695C123.462 58.1905 123.373 58.3968 123.284 58.6179C123.194 58.8389 123.105 59.0452 123.001 59.2662C122.882 59.5462 122.748 59.8409 122.614 60.1062C122.481 60.3861 122.347 60.6514 122.213 60.9166C122.213 60.9166 122.213 60.9313 122.213 60.9461C122.079 61.226 121.93 61.4913 121.781 61.7713C121.648 62.0218 121.499 62.287 121.365 62.5375C121.246 62.7438 121.142 62.9354 121.023 63.1269C120.934 63.2743 120.844 63.4216 120.755 63.5837C120.606 63.8195 120.458 64.0552 120.309 64.291C120.175 64.512 120.026 64.7331 119.878 64.9394C119.714 65.1899 119.536 65.4404 119.357 65.6909C119.179 65.9414 119 66.1772 118.822 66.4277C118.643 66.6782 118.45 66.9139 118.271 67.1497C118.093 67.3707 117.914 67.6065 117.736 67.8128C117.557 68.0191 117.394 68.2401 117.215 68.4464C117.141 68.5496 117.052 68.638 116.963 68.7411C116.591 69.1684 116.204 69.5958 115.817 70.0084C115.669 70.1704 115.52 70.3178 115.371 70.4652C115.312 70.5241 115.252 70.583 115.193 70.642C114.999 70.8335 114.821 71.0104 114.627 71.2019C114.479 71.3493 114.33 71.4966 114.166 71.6293C114.077 71.7177 113.988 71.8061 113.899 71.8798C113.229 72.4839 112.545 73.0733 111.831 73.6333C111.593 73.8101 111.37 74.0017 111.132 74.1785C110.85 74.3848 110.567 74.6058 110.27 74.8121C110.061 74.9595 109.868 75.0921 109.66 75.2394C109.615 75.2689 109.571 75.2984 109.526 75.3279C109.377 75.431 109.214 75.5489 109.065 75.6373C108.946 75.7257 108.812 75.7994 108.693 75.8878C108.455 76.0352 108.202 76.1972 107.964 76.3446C107.473 76.6393 106.983 76.9193 106.492 77.1993C106.298 77.3024 106.12 77.4055 105.927 77.5087C105.718 77.6118 105.51 77.7297 105.302 77.8329C105.287 77.8329 105.257 77.8623 105.242 77.8623C105.034 77.9655 104.811 78.0686 104.603 78.1865C104.038 78.4518 103.473 78.717 102.892 78.9528L102.342 79.1738C101.836 79.3801 101.331 79.5717 100.81 79.7485C100.661 79.8074 100.498 79.8664 100.334 79.9106C99.8286 80.0874 99.308 80.2495 98.7874 80.3968C98.5495 80.4705 98.3115 80.5442 98.0587 80.6031C98.0587 80.6031 98.0438 80.6031 98.0289 80.6031C97.8207 80.6621 97.6125 80.721 97.4042 80.7652C97.315 80.7947 97.2109 80.8094 97.1217 80.8389C96.9729 80.8831 96.8391 80.9126 96.6903 80.9421C96.5267 80.9863 96.378 81.0157 96.2144 81.0599C96.0657 81.0894 95.902 81.1336 95.7533 81.1631C95.4112 81.2368 95.0543 81.3104 94.6973 81.3694C94.4891 81.4136 94.2809 81.4431 94.0726 81.4725C93.8644 81.502 93.6413 81.5462 93.4331 81.5757C93.1802 81.6199 92.9423 81.6494 92.6894 81.6788C92.6597 81.6788 92.6448 81.6788 92.6151 81.6788C92.4068 81.7083 92.1837 81.7378 91.9755 81.7525C91.8565 81.7525 91.7375 81.782 91.6185 81.782C91.4401 81.7967 91.2616 81.8262 91.0831 81.8262C90.5328 81.8704 89.9676 81.9146 89.4173 81.9293C89.224 81.9293 89.0306 81.9441 88.8373 81.9441C88.7629 81.9441 88.6736 81.9441 88.5993 81.9441C88.3911 81.9441 88.1828 81.9441 87.9746 81.9441C87.9449 81.9441 87.9151 81.9441 87.8854 81.9441C87.3351 81.9441 86.7699 81.9441 86.2196 81.9146C85.937 81.9146 85.6544 81.8851 85.3718 81.8704C85.0595 81.8557 84.7471 81.8262 84.4348 81.7967C84.1671 81.7672 83.8993 81.7525 83.6316 81.723V81.6936Z" fill="url(#paint6_linear_2063_1291)"/>
<g style="mix-blend-mode:soft-light" opacity="0.5">
<path d="M128.162 49.4671C131.33 27.4229 115.802 6.92591 93.5368 3.78726C71.2715 0.648613 50.5977 16.0324 47.4297 38.0913C44.2617 60.1503 59.7894 80.6325 82.0546 83.7712C104.32 86.9098 124.994 71.526 128.162 49.4671ZM109.645 75.151C109.645 75.151 109.555 75.2099 109.511 75.2394C109.362 75.3425 109.198 75.4604 109.05 75.5488C108.931 75.6372 108.797 75.7109 108.678 75.7993C108.44 75.9467 108.187 76.1088 107.949 76.2561C107.458 76.5508 106.967 76.8308 106.476 77.1108C106.283 77.2139 106.105 77.3171 105.911 77.4202C105.703 77.5234 105.495 77.6412 105.287 77.7444C105.272 77.7444 105.242 77.7739 105.227 77.7739C105.019 77.877 104.796 77.9802 104.588 78.098C104.022 78.3633 103.457 78.6285 102.877 78.8643L102.327 79.0853C101.821 79.2916 101.315 79.4832 100.795 79.66C100.646 79.7189 100.483 79.7779 100.319 79.8221C99.8133 79.9989 99.2927 80.161 98.7722 80.3084C98.5342 80.382 98.2962 80.4557 98.0434 80.5147C98.0434 80.5147 98.0285 80.5147 98.0136 80.5147C97.8054 80.5736 97.5972 80.6325 97.389 80.6767C97.2997 80.7062 97.1956 80.7209 97.1064 80.7504C96.9576 80.7946 96.8238 80.8241 96.675 80.8536C96.5114 80.8978 96.3627 80.9272 96.1991 80.9715C96.0504 81.0009 95.8868 81.0451 95.738 81.0746C95.3959 81.1483 95.039 81.222 94.682 81.2809C94.4738 81.3251 94.2656 81.3546 94.0573 81.384C93.8491 81.4135 93.626 81.4577 93.4178 81.4872C93.165 81.5314 92.927 81.5609 92.6741 81.5903C92.6444 81.5903 92.6295 81.5903 92.5998 81.5903C92.3915 81.6198 92.1684 81.6493 91.9602 81.664C91.8412 81.664 91.7222 81.6935 91.6033 81.6935C91.4248 81.7082 91.2463 81.7377 91.0678 81.7377C90.5175 81.7819 89.9523 81.8261 89.402 81.8408C89.2087 81.8408 89.0153 81.8556 88.822 81.8556C88.7476 81.8556 88.6584 81.8556 88.584 81.8556C88.3758 81.8556 88.1675 81.8556 87.9593 81.8556C87.9296 81.8556 87.8998 81.8556 87.8701 81.8556C87.3198 81.8556 86.7546 81.8556 86.2043 81.8261C85.9217 81.8261 85.6391 81.7966 85.3565 81.7819C85.0442 81.7672 84.7318 81.7377 84.4195 81.7082C84.1518 81.6788 83.8841 81.664 83.6163 81.6345C83.4825 81.6345 83.3337 81.6051 83.1999 81.5903C82.9173 81.5609 82.6496 81.5314 82.367 81.4872C81.9654 81.4282 81.5638 81.3693 81.1622 81.2956C80.9986 81.2662 80.8202 81.2367 80.6566 81.2072C80.255 81.1335 79.8683 81.0599 79.4667 80.9715C78.842 80.8241 78.2173 80.6767 77.5927 80.5147C77.2803 80.4262 76.9829 80.3378 76.6705 80.2494C76.3879 80.161 76.0905 80.0726 75.8079 79.9842C75.7781 79.9842 75.7633 79.9842 75.7335 79.9547C75.436 79.8663 75.1535 79.7631 74.856 79.66C74.5585 79.5569 74.2611 79.439 73.9636 79.3358C73.3687 79.1148 72.7886 78.879 72.2234 78.6285C71.9408 78.5106 71.6434 78.378 71.3757 78.2454C71.0931 78.1128 70.8253 77.9802 70.5576 77.8475C70.5576 77.8475 70.5427 77.8475 70.5279 77.8475C70.2453 77.7149 69.9776 77.5676 69.695 77.4202C69.4421 77.2876 69.1744 77.1402 68.9216 77.0076C68.7133 76.8897 68.52 76.7866 68.3266 76.6687C68.1779 76.5803 68.0143 76.4919 67.8656 76.4035C67.6276 76.2708 67.4045 76.1235 67.1665 75.9761C66.9434 75.8288 66.7203 75.6814 66.4972 75.5341C66.2444 75.372 65.9915 75.1952 65.7387 75.0183C65.4858 74.8415 65.233 74.6647 64.9802 74.4879C64.7273 74.311 64.4893 74.1195 64.2514 73.9279C64.0283 73.7511 63.7903 73.5743 63.5672 73.3974C63.359 73.2354 63.1507 73.0585 62.9425 72.8817C62.8384 72.7933 62.7492 72.7196 62.6451 72.6312C62.2137 72.2628 61.7824 71.8944 61.3808 71.4966C61.2024 71.3345 61.0387 71.1724 60.8751 71.0103C60.8305 70.9661 60.7859 70.9219 60.7413 70.8777C60.5479 70.6861 60.3695 70.5093 60.1761 70.3177C59.3135 69.4336 58.4954 68.5053 57.722 67.5475C57.5435 67.3117 57.3502 67.0907 57.1717 66.8549C51.148 59.0157 48.1585 48.8924 49.6607 38.3861C49.7351 37.8261 49.8392 37.2662 49.9433 36.7062C49.9731 36.4999 50.0177 36.2936 50.0623 36.0873C50.092 35.9694 50.1069 35.8663 50.1367 35.7484C50.1664 35.6011 50.1962 35.4537 50.2259 35.3063C50.2557 35.159 50.3003 35.0116 50.33 34.8643C50.3746 34.7022 50.4193 34.5254 50.4639 34.3485C50.5234 34.098 50.5977 33.8475 50.6572 33.597C50.7167 33.3613 50.7911 33.1402 50.8506 32.9045C50.9547 32.5508 51.0737 32.1972 51.1778 31.8435C51.3711 31.2394 51.5942 30.65 51.8173 30.0753C51.9215 29.7806 52.0404 29.4859 52.1594 29.2059C52.2487 28.9848 52.3379 28.7638 52.442 28.5575C52.5015 28.4102 52.5759 28.2628 52.6354 28.1155C52.8733 27.6145 53.1113 27.1134 53.3493 26.6124C53.4534 26.3914 53.5724 26.1851 53.6914 25.9641C53.8252 25.6988 53.974 25.4483 54.1227 25.1831C54.2268 24.9915 54.3309 24.8147 54.435 24.6379C54.5391 24.4611 54.6433 24.2695 54.7622 24.0927C54.8664 23.9159 54.9853 23.739 55.0895 23.5475C55.1638 23.4443 55.2233 23.3264 55.2977 23.2233C56.0562 22.0592 56.8594 20.9393 57.7369 19.8636C57.8113 19.7605 57.9005 19.6721 57.9749 19.5689C58.1682 19.3331 58.3764 19.0974 58.5698 18.8763C58.7185 18.6995 58.8673 18.5227 59.0309 18.3606C59.0309 18.3606 59.0309 18.3606 59.0457 18.3459C59.2242 18.1543 59.3878 17.9775 59.5663 17.7859C59.7745 17.5649 59.9679 17.3586 60.191 17.1376C60.31 17.0197 60.4289 16.8871 60.5628 16.7692C60.6223 16.7102 60.6818 16.6513 60.7413 16.5924C60.8603 16.4745 60.9793 16.3566 61.0982 16.2534C61.247 16.1061 61.4106 15.9587 61.5593 15.8261C61.6932 15.7082 61.8122 15.5903 61.946 15.4725C62.065 15.3546 62.1989 15.2514 62.3178 15.1483C62.5112 14.9862 62.6897 14.8241 62.883 14.662C62.9723 14.5883 63.0764 14.4999 63.1656 14.4262C63.3441 14.2789 63.5226 14.1315 63.7159 13.9842C63.9539 13.7926 64.1919 13.6158 64.4298 13.439L64.5935 13.3211C64.7868 13.1737 64.995 13.0264 65.1884 12.879C65.4412 12.7022 65.6941 12.5254 65.9469 12.3485C66.17 12.2012 66.3931 12.0391 66.6162 11.8917C66.7203 11.8328 66.8244 11.7591 66.9137 11.7002C67.1368 11.5528 67.345 11.4202 67.5681 11.2876C67.8061 11.1402 68.0589 10.9929 68.2969 10.8603C68.5497 10.7129 68.8026 10.5656 69.0703 10.4182C69.2785 10.3003 69.4868 10.1972 69.695 10.094C69.8288 10.0203 69.9776 9.94667 70.1263 9.87299C70.3048 9.78458 70.4833 9.69617 70.6617 9.60776C70.8253 9.53408 70.9741 9.4604 71.1377 9.37199C71.1674 9.34252 71.212 9.32778 71.2418 9.31305C71.4054 9.23937 71.569 9.15096 71.7326 9.09202C71.7475 9.09202 71.7624 9.07728 71.7921 9.06254C72.0003 8.97413 72.2234 8.87098 72.4317 8.78257C72.4614 8.78257 72.4911 8.7531 72.5209 8.73836C72.7886 8.62048 73.0563 8.5026 73.3389 8.39945C73.6364 8.28157 73.919 8.16368 74.2164 8.06054C74.4693 7.95739 74.737 7.86898 75.0047 7.78056C75.094 7.75109 75.1683 7.72162 75.2427 7.69215C75.4807 7.60374 75.7335 7.53006 75.9864 7.44165C76.2541 7.35323 76.5218 7.27956 76.7895 7.19115C76.8341 7.19115 76.8639 7.16167 76.8936 7.16167C77.1167 7.088 77.3398 7.02906 77.5778 6.97011C77.6968 6.94064 77.8158 6.89644 77.9496 6.86697C78.143 6.80802 78.3363 6.76382 78.5297 6.71961C78.6487 6.69014 78.7677 6.66067 78.9015 6.6312C79.0651 6.58699 79.2436 6.55752 79.4072 6.51332C80.2996 6.32175 81.192 6.15966 82.0993 6.01231C82.129 6.01231 82.1588 6.01231 82.1885 6.01231C82.367 5.98284 82.5306 5.9681 82.7091 5.93863C82.947 5.90916 83.1701 5.87969 83.4081 5.85022C83.6461 5.82075 83.8989 5.79128 84.1518 5.77654C84.3005 5.76181 84.4492 5.74707 84.6128 5.73234C84.8508 5.7176 85.0888 5.68813 85.3268 5.6734C85.654 5.65866 85.9812 5.64392 86.2935 5.62919C86.3381 5.62919 86.3828 5.62919 86.4125 5.62919C86.6951 5.62919 86.9777 5.61445 87.2603 5.61445C87.29 5.61445 87.3346 5.61445 87.3644 5.61445C87.647 5.61445 87.9444 5.61445 88.2419 5.61445C88.8963 5.61445 89.5508 5.64392 90.22 5.68813C90.5324 5.70287 90.8299 5.73234 91.1422 5.76181C91.4099 5.79128 91.6776 5.80601 91.9453 5.83549C92.1387 5.85022 92.3172 5.87969 92.4957 5.90916C92.7188 5.93863 92.9419 5.9681 93.1798 5.99758C114.196 8.9594 128.861 28.307 125.871 49.1282C125.841 49.2903 125.827 49.4376 125.797 49.5997C125.767 49.8207 125.737 50.027 125.693 50.2481C125.648 50.4691 125.618 50.6901 125.574 50.9259C125.544 51.1175 125.499 51.309 125.455 51.5006C125.351 51.9869 125.247 52.4584 125.128 52.9447C124.815 54.1824 124.443 55.4055 124.027 56.5843C123.953 56.8053 123.863 57.0264 123.789 57.2474C123.7 57.4684 123.625 57.6895 123.536 57.9105C123.447 58.1315 123.358 58.3378 123.268 58.5589C123.179 58.7799 123.09 58.9862 122.986 59.2072C122.867 59.4872 122.733 59.7819 122.599 60.0471C122.465 60.3271 122.331 60.5923 122.198 60.8576C122.198 60.8576 122.198 60.8723 122.198 60.8871C122.064 61.167 121.915 61.4323 121.766 61.7122C121.632 61.9627 121.484 62.228 121.35 62.4785C121.231 62.6848 121.127 62.8763 121.008 63.0679C120.918 63.2153 120.829 63.3626 120.74 63.5247C120.591 63.7605 120.442 63.9962 120.294 64.232C120.16 64.453 120.011 64.6741 119.862 64.8804C119.699 65.1309 119.52 65.3814 119.342 65.6319C119.163 65.8824 118.985 66.1181 118.806 66.3686C118.628 66.6191 118.435 66.8549 118.256 67.0907C118.078 67.3117 117.899 67.5475 117.721 67.7538C117.542 67.9601 117.379 68.1811 117.2 68.3874C117.126 68.4905 117.036 68.579 116.947 68.6821C116.575 69.1094 116.189 69.5368 115.802 69.9494C115.653 70.1114 115.505 70.2588 115.356 70.4061C115.296 70.4651 115.237 70.524 115.177 70.583C114.984 70.7745 114.806 70.9514 114.612 71.1429C114.463 71.2903 114.315 71.4376 114.151 71.5702C114.062 71.6587 113.973 71.7471 113.883 71.8208C113.214 72.4249 112.53 73.0143 111.816 73.5743C111.578 73.7511 111.355 73.9427 111.117 74.1195C110.834 74.3258 110.552 74.5468 110.254 74.7531C110.046 74.9005 109.853 75.0331 109.645 75.1804V75.151Z" fill="url(#paint7_linear_2063_1291)"/>
</g>
<path opacity="0.3" d="M111.817 73.5738C112.531 73.0139 113.215 72.4245 113.884 71.8203C113.973 71.7319 114.063 71.6582 114.152 71.5698C114.301 71.4224 114.464 71.2898 114.613 71.1425C114.806 70.9656 115 70.7741 115.178 70.5825C115.238 70.5236 115.297 70.4646 115.357 70.4057C115.505 70.2583 115.654 70.0963 115.803 69.9489C116.204 69.5363 116.576 69.109 116.948 68.6816C117.037 68.5932 117.127 68.4901 117.201 68.3869C117.379 68.1806 117.558 67.9743 117.722 67.7533C117.9 67.5323 118.078 67.3113 118.257 67.0902C118.45 66.8545 118.629 66.604 118.807 66.3682C118.986 66.1324 119.164 65.8819 119.343 65.6314C119.521 65.3809 119.7 65.1304 119.863 64.8799C120.012 64.6589 120.146 64.4526 120.295 64.2315C120.443 63.9958 120.592 63.76 120.741 63.5243C120.83 63.3769 120.919 63.2295 121.009 63.0674C121.128 62.8759 121.246 62.6696 121.351 62.478C121.499 62.2275 121.633 61.977 121.767 61.7118C121.916 61.4466 122.065 61.1666 122.198 60.8866C122.198 60.8866 122.198 60.8719 122.198 60.8571C122.332 60.5919 122.466 60.3119 122.6 60.0467C122.734 59.7667 122.868 59.4867 122.987 59.2068C123.076 59.0005 123.18 58.7794 123.269 58.5584C123.269 58.5289 123.299 58.4995 123.299 58.47C123.373 58.2932 123.463 58.1016 123.522 57.91C123.552 57.8216 123.582 57.748 123.626 57.6595C123.671 57.5711 123.701 57.4827 123.73 57.3796C123.834 57.1143 123.924 56.8491 124.028 56.5839C124.459 55.405 124.816 54.1967 125.128 52.9589C125.203 52.6495 125.277 52.3401 125.352 52.0306C125.396 51.8685 125.426 51.6917 125.456 51.5296C125.5 51.338 125.53 51.1465 125.575 50.9549C125.619 50.7339 125.664 50.5129 125.694 50.2771C125.723 50.0708 125.768 49.8498 125.798 49.6287C125.827 49.4666 125.857 49.3193 125.872 49.1719C128.862 28.3508 114.197 9.00315 93.1807 6.04132C92.9576 6.01185 92.7345 5.98238 92.4965 5.95291C92.3032 5.92344 92.1247 5.90871 91.9462 5.87923C91.6785 5.84976 91.4108 5.82029 91.1431 5.80556C90.8307 5.77609 90.5332 5.76135 90.2209 5.73188C89.5516 5.68767 88.8972 5.6582 88.2428 5.6582C87.9602 5.6582 87.6627 5.6582 87.3653 5.6582C87.3206 5.6582 87.2909 5.6582 87.2611 5.6582C86.9785 5.6582 86.696 5.6582 86.4134 5.67294C86.3687 5.67294 86.339 5.67294 86.2944 5.67294C85.982 5.67294 85.6548 5.70241 85.3276 5.71715C85.0896 5.73188 84.8517 5.74662 84.5988 5.77609C84.4501 5.77609 84.3014 5.80556 84.1378 5.82029C83.8849 5.83503 83.6469 5.8645 83.3941 5.89397C83.1561 5.92344 82.933 5.95291 82.695 5.98238C82.5314 6.01185 82.353 6.02659 82.1745 6.05606C82.1447 6.05606 82.115 6.05606 82.0852 6.05606C81.178 6.18868 80.2856 6.35077 79.3932 6.55706C79.2296 6.60127 79.0511 6.63074 78.8875 6.67495C78.7685 6.70442 78.6347 6.73389 78.5157 6.76336C78.3223 6.80757 78.129 6.86651 77.9356 6.91072C77.8166 6.94019 77.6828 6.96966 77.5638 7.01386C77.3407 7.07281 77.1027 7.14648 76.8796 7.20542C76.8499 7.20542 76.8052 7.22016 76.7755 7.23489C76.5078 7.30857 76.2401 7.39698 75.9724 7.4854C75.7195 7.55907 75.4815 7.64749 75.2287 7.7359C75.1543 7.76537 75.0651 7.79484 74.9907 7.82431C74.723 7.91272 74.4701 8.01587 74.2024 8.10429C73.905 8.20743 73.6224 8.32532 73.3249 8.4432C73.0572 8.54635 72.7895 8.66423 72.5069 8.78211C72.4771 8.78211 72.4474 8.81159 72.4176 8.82632C72.2094 8.91473 71.9863 9.01788 71.7781 9.10629C71.7632 9.10629 71.7484 9.12103 71.7186 9.13577C71.555 9.20944 71.3914 9.28312 71.2278 9.3568C71.198 9.37153 71.1534 9.38627 71.1237 9.41574C70.9601 9.48942 70.8113 9.56309 70.6477 9.65151C70.4692 9.73992 70.2908 9.82833 70.1123 9.91674C69.9636 9.99042 69.8148 10.0641 69.681 10.1378C69.4727 10.2409 69.2645 10.3588 69.0563 10.462C68.8034 10.6093 68.5357 10.7567 68.2829 10.904C68.0449 11.0514 67.7921 11.184 67.5541 11.3313C67.331 11.464 67.1079 11.5966 66.8997 11.7439C66.7956 11.8029 66.6914 11.8766 66.6022 11.9355C66.3791 12.0829 66.156 12.2302 65.9329 12.3923C65.6801 12.5691 65.4272 12.7459 65.1744 12.9228C64.9662 13.0701 64.7728 13.2175 64.5794 13.3648L64.4158 13.4827C64.1779 13.6595 63.9399 13.8511 63.7019 14.0279C63.5234 14.1753 63.3301 14.3226 63.1516 14.47C63.0624 14.5437 62.9583 14.6321 62.869 14.7058C62.6757 14.8678 62.4823 15.0299 62.3038 15.192C62.1849 15.2952 62.051 15.4131 61.932 15.5162C61.7982 15.6341 61.6792 15.752 61.5453 15.8699C61.3966 16.0172 61.233 16.1498 61.0842 16.2972C60.9653 16.4151 60.8463 16.5182 60.7273 16.6361C60.6678 16.695 60.6083 16.754 60.5488 16.8129C60.4298 16.9308 60.3108 17.0487 60.177 17.1813C59.9687 17.3876 59.7605 17.6086 59.5523 17.8297C59.3738 18.0065 59.2102 18.1981 59.0317 18.3896C59.0317 18.3896 59.0317 18.3896 59.0169 18.4044C58.8681 18.5664 58.7194 18.7433 58.5558 18.9201C58.3624 19.1411 58.1542 19.3769 57.9609 19.6127C57.8865 19.7158 57.7973 19.8042 57.7229 19.9074C56.8602 20.9831 56.0422 22.1029 55.2837 23.267C55.2093 23.3702 55.1498 23.4881 55.0754 23.5912C54.9713 23.7681 54.8524 23.9449 54.7482 24.1364C54.6293 24.3133 54.5251 24.5048 54.421 24.6816C54.3169 24.8585 54.2128 25.05 54.1087 25.2269C53.96 25.4774 53.8261 25.7426 53.6774 26.0078C53.5584 26.2141 53.4543 26.4352 53.3353 26.6562C53.0824 27.1572 52.8445 27.6435 52.6214 28.1592C52.5619 28.3066 52.4875 28.4539 52.428 28.6013C52.3239 28.8223 52.2347 29.0286 52.1454 29.2496C52.0264 29.5296 51.9074 29.8243 51.8033 30.119C51.5802 30.7084 51.3571 31.2831 51.1638 31.8873C51.0448 32.2409 50.9407 32.5946 50.8366 32.9482C50.7622 33.184 50.7027 33.405 50.6432 33.6408C50.5689 33.8913 50.5094 34.1418 50.4499 34.3923C50.4052 34.5544 50.3606 34.7312 50.316 34.908C50.2863 35.0554 50.2416 35.2027 50.2119 35.3501C50.1821 35.4975 50.1375 35.6448 50.1227 35.7922C50.0929 35.91 50.078 36.0132 50.0483 36.1311C50.0037 36.3374 49.9591 36.5437 49.9293 36.75C49.8252 37.3099 49.7211 37.8699 49.6467 38.4298C48.1445 48.9362 51.1192 59.0594 57.1577 66.8987C57.3362 67.1344 57.5147 67.3555 57.708 67.5912C58.4814 68.549 59.2994 69.4774 60.1621 70.3615C60.3406 70.553 60.5339 70.7446 60.7273 70.9214C60.7719 70.9656 60.8165 71.0098 60.8611 71.0541C61.0247 71.2161 61.2032 71.3782 61.3668 71.5403C61.7833 71.9382 62.1997 72.3066 62.6311 72.6749C62.7203 72.7634 62.8244 72.8518 62.9285 72.9255C63.1367 73.1023 63.345 73.2791 63.5532 73.4412C63.7763 73.618 63.9994 73.7948 64.2374 73.9717C64.4902 74.1632 64.7282 74.3401 64.9662 74.5316C65.219 74.7084 65.457 74.8853 65.7247 75.0621C65.9775 75.2389 66.2304 75.4157 66.4832 75.5778C66.7063 75.7252 66.9294 75.8725 67.1525 76.0199C67.3905 76.1673 67.6136 76.3146 67.8516 76.4472C68.0003 76.5356 68.149 76.624 68.3126 76.7125C68.506 76.8303 68.7142 76.9482 68.9076 77.0514C69.1604 77.184 69.4132 77.3313 69.681 77.464C69.9487 77.6113 70.2313 77.7439 70.5139 77.8913C70.5139 77.8913 70.5287 77.8913 70.5436 77.8913C70.8113 78.0239 71.0791 78.1565 71.3616 78.2892C71.6442 78.4218 71.9268 78.5544 72.2094 78.6723C72.7895 78.9228 73.3695 79.1585 73.9496 79.3796C74.2471 79.4975 74.5445 79.6006 74.842 79.7038C75.1246 79.8069 75.422 79.91 75.7195 79.9985C75.7493 79.9985 75.7641 80.0132 75.7939 80.0279C76.0765 80.1163 76.3739 80.2195 76.6565 80.2932C76.9689 80.3816 77.2663 80.47 77.5787 80.5584C78.1885 80.7205 78.8131 80.8826 79.4527 81.0152C79.8543 81.1036 80.241 81.1773 80.6425 81.251C80.8062 81.2804 80.9698 81.3099 81.1482 81.3394C81.5498 81.4131 81.9514 81.472 82.353 81.531C82.6207 81.5752 82.9033 81.6046 83.1859 81.6341C83.3197 81.6488 83.4685 81.6783 83.6023 81.6783C83.87 81.7078 84.1378 81.7372 84.4055 81.752C84.7178 81.7814 85.0302 81.7962 85.3425 81.8257C85.6251 81.8404 85.9077 81.8551 86.1903 81.8699C86.7554 81.8993 87.3058 81.8993 87.8561 81.8993C87.8858 81.8993 87.9156 81.8993 87.9453 81.8993C88.1535 81.8993 88.3618 81.8993 88.57 81.8993C88.6443 81.8993 88.7336 81.8993 88.808 81.8993C89.0013 81.8993 89.1947 81.8993 89.388 81.8846C89.9383 81.8551 90.5035 81.8257 91.0538 81.7814C91.2323 81.7814 91.4108 81.752 91.5893 81.7372C91.7082 81.7372 91.8272 81.7225 91.9462 81.7078C92.1544 81.6783 92.3775 81.6636 92.5858 81.6341C92.6155 81.6341 92.6452 81.6341 92.6601 81.6341C92.913 81.6046 93.1658 81.5752 93.4038 81.531C93.612 81.5015 93.8351 81.472 94.0433 81.4278C94.2516 81.3983 94.4598 81.3541 94.668 81.3246C95.025 81.2657 95.3819 81.192 95.724 81.1184C95.8727 81.0889 96.0363 81.0594 96.1851 81.0152C96.3487 80.9857 96.4974 80.9415 96.661 80.8973C96.8098 80.8679 96.9436 80.8384 97.0924 80.7942C97.1816 80.7647 97.2708 80.75 97.3749 80.7205C97.5832 80.6616 97.7914 80.6173 97.9996 80.5584C97.9996 80.5584 98.0145 80.5584 98.0294 80.5584C98.2673 80.4847 98.5202 80.4258 98.7582 80.3521C99.2787 80.2048 99.7844 80.0427 100.305 79.8658C100.469 79.8069 100.617 79.748 100.781 79.7038C101.287 79.5269 101.807 79.3354 102.313 79.1291L102.863 78.908C103.443 78.6575 104.008 78.407 104.574 78.1418C104.782 78.0387 105.005 77.9355 105.213 77.8176C105.243 77.8176 105.258 77.8029 105.273 77.7881C105.481 77.685 105.689 77.5818 105.897 77.464C106.091 77.3608 106.269 77.2577 106.462 77.1545C106.968 76.8745 107.459 76.5946 107.935 76.2999C108.188 76.1525 108.426 75.9904 108.664 75.8431C108.798 75.7547 108.917 75.681 109.036 75.5926C109.199 75.4894 109.348 75.3863 109.497 75.2831C109.541 75.2537 109.586 75.2242 109.63 75.1947C109.824 75.0621 110.032 74.9147 110.24 74.7674C110.538 74.5611 110.82 74.3548 111.103 74.1338C111.341 73.9569 111.564 73.7801 111.802 73.5885L111.817 73.5738ZM82.4868 80.8089C61.8874 77.906 47.5198 58.9415 50.4499 38.533C53.3799 18.1244 72.5218 3.88995 93.1212 6.79283C113.721 9.69571 128.088 28.6602 125.158 49.0688C122.228 69.4774 103.086 83.7265 82.4868 80.8089Z" fill="white"/>
<path opacity="0.5" d="M78.0707 19.6131C74.397 20.9834 70.7382 20.3204 69.9053 18.11C69.0724 15.9145 71.3629 13.0116 75.0366 11.6412C78.7103 10.2708 82.3691 10.9339 83.202 13.1442C84.0349 15.3398 81.7444 18.2427 78.0707 19.6131Z" fill="white"/>
<path opacity="0.5" d="M69.7116 26.141C67.6889 26.8925 65.681 26.5242 65.2199 25.3159C64.7588 24.1075 66.0231 22.5161 68.0309 21.7499C70.0537 20.9984 72.0616 21.3668 72.5227 22.5751C72.9837 23.7834 71.7195 25.3748 69.7116 26.141Z" fill="white"/>
<path d="M25.8191 100.009C24.8821 100.642 23.9599 101.276 23.008 101.924C18.903 97.7985 15.4078 93.1126 12.6562 87.9847C13.5486 87.3068 14.4559 86.6143 15.3632 85.9512C18.0999 91.138 21.6248 95.8829 25.8191 100.009Z" fill="url(#paint8_linear_2063_1291)"/>
<path d="M19.9279 103.988C18.9908 104.607 18.039 105.24 17.1019 105.859C13.1308 101.822 9.75456 97.2536 7.0625 92.273C7.95489 91.5804 8.84729 90.8879 9.73968 90.1953C12.4169 95.279 15.8526 99.9207 19.9279 103.973V103.988Z" fill="url(#paint9_linear_2063_1291)"/>
</g>
<defs>
<linearGradient id="paint0_linear_2063_1291" x1="88.1012" y1="40.6406" x2="88.1012" y2="57.3948" gradientUnits="userSpaceOnUse">
<stop stop-color="#00BBAB"/>
<stop offset="1" stop-color="#00EEDA"/>
</linearGradient>
<linearGradient id="paint1_linear_2063_1291" x1="80.3969" y1="17.7266" x2="80.3969" y2="57.3943" gradientUnits="userSpaceOnUse">
<stop stop-color="#00BBAB"/>
<stop offset="1" stop-color="#00EEDA"/>
</linearGradient>
<linearGradient id="paint2_linear_2063_1291" x1="95.3957" y1="17.7266" x2="95.3957" y2="57.3943" gradientUnits="userSpaceOnUse">
<stop stop-color="#00BBAB"/>
<stop offset="1" stop-color="#00EEDA"/>
</linearGradient>
<linearGradient id="paint3_linear_2063_1291" x1="80.3969" y1="48.376" x2="80.3969" y2="69.5213" gradientUnits="userSpaceOnUse">
<stop stop-color="#00BBAB"/>
<stop offset="1" stop-color="#00EEDA"/>
</linearGradient>
<linearGradient id="paint4_linear_2063_1291" x1="95.3957" y1="48.5977" x2="95.3957" y2="69.522" gradientUnits="userSpaceOnUse">
<stop stop-color="#00BBAB"/>
<stop offset="1" stop-color="#00EEDA"/>
</linearGradient>
<linearGradient id="paint5_linear_2063_1291" x1="49.3763" y1="41.664" x2="126.236" y2="45.9878" gradientUnits="userSpaceOnUse">
<stop stop-color="#00BBAB"/>
<stop offset="1" stop-color="#00EEDA"/>
</linearGradient>
<linearGradient id="paint6_linear_2063_1291" x1="66.0034" y1="-0.00390625" x2="66.0034" y2="109.976" gradientUnits="userSpaceOnUse">
<stop stop-color="#00BBAB"/>
<stop offset="1" stop-color="#00EEDA"/>
</linearGradient>
<linearGradient id="paint7_linear_2063_1291" x1="87.7957" y1="3.38086" x2="87.7957" y2="84.1776" gradientUnits="userSpaceOnUse">
<stop stop-color="#00BBAB"/>
<stop offset="1" stop-color="#00EEDA"/>
</linearGradient>
<linearGradient id="paint8_linear_2063_1291" x1="19.2377" y1="85.9512" x2="19.2377" y2="101.924" gradientUnits="userSpaceOnUse">
<stop stop-color="#00BBAB"/>
<stop offset="1" stop-color="#00EEDA"/>
</linearGradient>
<linearGradient id="paint9_linear_2063_1291" x1="13.4952" y1="90.1953" x2="13.4952" y2="105.859" gradientUnits="userSpaceOnUse">
<stop stop-color="#00BBAB"/>
<stop offset="1" stop-color="#00EEDA"/>
</linearGradient>
<clipPath id="clip0_2063_1291">
<rect width="132" height="110" fill="white"/>
</clipPath>
</defs>
</svg>
