<svg width="272" height="272" viewBox="0 0 272 272" fill="none" xmlns="http://www.w3.org/2000/svg">
<path opacity="0.1" d="M142.854 178.102C152.574 178.102 160.454 175.169 160.454 171.552C160.454 167.934 152.574 165.002 142.854 165.002C133.134 165.002 125.254 167.934 125.254 171.552C125.254 175.169 133.134 178.102 142.854 178.102Z" fill="#141414"/>
<path d="M142.853 244.913C196.281 244.913 239.593 227.559 239.593 206.153C239.593 184.746 196.281 167.393 142.853 167.393C89.4253 167.393 46.1133 184.746 46.1133 206.153C46.1133 227.559 89.4253 244.913 142.853 244.913Z" fill="url(#paint0_linear_2063_1156)"/>
<g style="mix-blend-mode:soft-light" opacity="0.2">
<path d="M142.853 171.923C194.383 171.923 236.493 188.063 239.423 208.413C239.533 207.663 239.593 206.903 239.593 206.143C239.593 184.733 196.283 167.383 142.853 167.383C89.4233 167.383 46.1133 184.733 46.1133 206.143C46.1133 206.903 46.1733 207.663 46.2833 208.413C49.2133 188.063 91.3233 171.923 142.853 171.923Z" fill="black"/>
</g>
<path d="M205.163 183.712C190.273 176.492 167.983 171.902 143.063 171.902C118.143 171.902 95.8528 176.492 80.9628 183.712H61.8828V205.372C62.2828 223.542 98.4628 238.232 143.053 238.232C187.643 238.232 223.823 223.552 224.223 205.372V183.712H205.143H205.163Z" fill="url(#paint1_linear_2063_1156)"/>
<g style="mix-blend-mode:soft-light">
<path d="M143.065 237.243C98.4845 237.243 62.2945 222.563 61.8945 204.383V205.363C62.2945 223.533 98.4745 238.223 143.065 238.223C187.655 238.223 223.835 223.543 224.235 205.363V204.383C223.835 222.553 187.655 237.243 143.065 237.243Z" fill="black"/>
</g>
<path d="M143.063 216.783C187.897 216.783 224.243 201.977 224.243 183.713C224.243 165.449 187.897 150.643 143.063 150.643C98.2283 150.643 61.8828 165.449 61.8828 183.713C61.8828 201.977 98.2283 216.783 143.063 216.783Z" fill="url(#paint2_linear_2063_1156)"/>
<path d="M142.853 209.713C182.363 209.713 214.393 197.803 214.393 183.113C214.393 168.422 182.363 156.513 142.853 156.513C103.342 156.513 71.3125 168.422 71.3125 183.113C71.3125 197.803 103.342 209.713 142.853 209.713Z" fill="url(#paint3_linear_2063_1156)"/>
<path d="M143.063 215.573C98.7228 215.573 62.7028 201.093 61.9028 183.103C61.9028 183.303 61.8828 183.503 61.8828 183.703C61.8828 201.973 98.2228 216.773 143.063 216.773C187.903 216.773 224.243 201.963 224.243 183.703C224.243 183.503 224.243 183.303 224.223 183.103C223.433 201.093 187.403 215.573 143.063 215.573Z" fill="url(#paint4_linear_2063_1156)"/>
<path d="M178.323 171.903C169.873 167.803 157.213 165.203 143.063 165.203C128.913 165.203 116.263 167.803 107.803 171.903H96.9727V184.203C97.2027 194.523 117.743 202.863 143.053 202.863C168.363 202.863 188.913 194.523 189.133 184.203V171.903H178.303H178.323Z" fill="url(#paint5_linear_2063_1156)"/>
<g style="mix-blend-mode:soft-light">
<path d="M143.064 202.293C117.754 202.293 97.2044 193.953 96.9844 183.633V184.193C97.2144 194.513 117.754 202.853 143.064 202.853C168.374 202.853 188.924 194.513 189.144 184.193V183.633C188.914 193.953 168.374 202.293 143.064 202.293Z" fill="black"/>
</g>
<path d="M143.063 190.683C168.517 190.683 189.153 182.275 189.153 171.903C189.153 161.531 168.517 153.123 143.063 153.123C117.608 153.123 96.9727 161.531 96.9727 171.903C96.9727 182.275 117.608 190.683 143.063 190.683Z" fill="url(#paint6_linear_2063_1156)"/>
<path d="M142.944 186.663C165.378 186.663 183.564 179.898 183.564 171.553C183.564 163.208 165.378 156.443 142.944 156.443C120.51 156.443 102.324 163.208 102.324 171.553C102.324 179.898 120.51 186.663 142.944 186.663Z" fill="url(#paint7_linear_2063_1156)"/>
<path d="M143.063 189.993C117.893 189.993 97.4327 181.773 96.9827 171.563C96.9827 171.673 96.9727 171.793 96.9727 171.903C96.9727 182.273 117.603 190.683 143.063 190.683C168.523 190.683 189.153 182.273 189.153 171.903C189.153 171.793 189.153 171.673 189.143 171.563C188.693 181.773 168.233 189.993 143.063 189.993Z" fill="white"/>
<path opacity="0.2" d="M71.3125 20.3223V183.112C71.3125 197.802 103.343 209.712 142.853 209.712C182.363 209.712 214.393 197.802 214.393 183.112V20.3223H71.3125Z" fill="url(#paint8_linear_2063_1156)"/>
<path d="M101.734 98.1822L144.254 75.4521L189.154 98.8622L144.254 124.712L101.734 98.1822Z" fill="url(#paint9_linear_2063_1156)"/>
<path opacity="0.7" d="M144.254 8.04199L101.734 98.182L144.254 124.712V8.04199Z" fill="url(#paint10_linear_2063_1156)"/>
<path opacity="0.7" d="M144.254 8.04199V124.712L189.154 98.862L144.254 8.04199Z" fill="url(#paint11_linear_2063_1156)"/>
<path d="M101.734 98.1816L144.254 160.432V124.712L101.734 98.1816Z" fill="url(#paint12_linear_2063_1156)"/>
<path d="M144.254 160.432L189.154 98.8623L144.254 124.712V160.432Z" fill="url(#paint13_linear_2063_1156)"/>
<path opacity="0.5" d="M188.994 98.5423L144.254 124.302L101.884 97.8623L101.734 98.1823L144.254 124.712V160.432L144.664 159.862V124.712L189.154 98.8623L188.994 98.5423Z" fill="white"/>
<path opacity="0.7" d="M244.542 106.383L230.492 131.153L259.352 129.623L244.542 106.383Z" fill="url(#paint14_linear_2063_1156)"/>
<path opacity="0.7" d="M244.542 106.383H237.392L224.242 129.743L230.492 131.153L244.542 106.383Z" fill="url(#paint15_linear_2063_1156)"/>
<path opacity="0.7" d="M252.202 160.433L239.012 163.743V130.703L252.202 129.993V160.433Z" fill="url(#paint16_linear_2063_1156)"/>
<path opacity="0.7" d="M239.011 163.743L231.641 162.163V131.093L239.011 130.703V163.743Z" fill="url(#paint17_linear_2063_1156)"/>
<g style="mix-blend-mode:soft-light" opacity="0.4">
<path d="M231.641 131.093V131.803L239.011 131.533L252.201 130.753V129.993L239.011 130.703L231.641 131.093Z" fill="black"/>
</g>
<path opacity="0.7" d="M52.142 43.9824L41.582 62.5924L63.262 61.4424L52.142 43.9824Z" fill="url(#paint18_linear_2063_1156)"/>
<path opacity="0.7" d="M52.1428 43.9824H46.7628L36.8828 61.5424L41.5828 62.5924L52.1428 43.9824Z" fill="url(#paint19_linear_2063_1156)"/>
<path opacity="0.7" d="M57.8944 84.5924L47.9844 87.0824V62.2524L57.8944 61.7324V84.5924Z" fill="url(#paint20_linear_2063_1156)"/>
<path opacity="0.7" d="M47.9814 87.082L42.4414 85.892V62.552L47.9814 62.252V87.082Z" fill="url(#paint21_linear_2063_1156)"/>
<g style="mix-blend-mode:soft-light" opacity="0.4">
<path d="M42.4414 62.5524V63.0824L47.9814 62.8824L57.8914 62.2924V61.7324L47.9814 62.2524L42.4414 62.5524Z" fill="black"/>
</g>
<path d="M84.2024 28.8419C86.3224 24.6419 84.8224 17.4019 80.1024 10.9719C75.3224 4.45191 68.7624 0.821914 64.1124 1.71191L63.7424 1.21191L61.3924 2.93191C57.1224 6.35191 58.1724 15.2019 63.8224 22.9019C69.4724 30.6019 77.5924 34.2619 82.1324 31.2219L84.6124 29.4119L84.1924 28.8419H84.2024Z" fill="url(#paint22_linear_2063_1156)"/>
<path d="M84.4842 29.5124C79.9942 32.8124 71.7042 29.1424 65.9742 21.3324C60.2442 13.5224 59.2442 4.51235 63.7342 1.21235C68.2242 -2.08765 76.5142 1.58235 82.2442 9.39235C87.9742 17.2024 88.9742 26.2124 84.4842 29.5124Z" fill="url(#paint23_linear_2063_1156)"/>
<path d="M82.6122 26.4225C79.0422 29.0425 72.4522 26.1325 67.9022 19.9225C63.3522 13.7125 62.5522 6.55247 66.1222 3.94247C69.6922 1.32247 76.2822 4.23247 80.8322 10.4425C85.3822 16.6525 86.1822 23.8125 82.6122 26.4225Z" fill="url(#paint24_linear_2063_1156)"/>
<path d="M68.4121 19.5326C64.0721 13.6226 63.2121 6.85264 66.4921 4.45264C69.7721 2.05264 75.9621 4.90264 80.3021 10.8126C84.6421 16.7226 85.5021 23.4926 82.2221 25.9026C78.9421 28.3026 72.7521 25.4526 68.4121 19.5426V19.5326ZM80.2421 10.8626C75.9321 4.99264 69.7921 2.14264 66.5521 4.52264C63.3121 6.90264 64.1821 13.6126 68.4821 19.4826C72.7921 25.3626 78.9321 28.2026 82.1721 25.8226C85.4121 23.4426 84.5421 16.7326 80.2321 10.8626H80.2421Z" fill="white"/>
<path d="M78.702 17.4325C79.472 18.4925 80.082 19.7325 80.332 20.8725L80.382 21.0925C80.842 23.2725 79.812 24.2925 78.082 23.3525L78.002 23.3125L78.252 24.4825L76.232 23.3925L75.992 22.2325L75.162 21.7825L75.412 22.9525L73.392 21.8625L73.152 20.7025L72.682 20.4525L71.682 19.9125L71.142 17.3725L72.142 17.9125L71.492 14.8625L70.952 12.3225L70.372 9.57254L69.372 9.03254L68.832 6.49254L69.832 7.03254L70.302 7.28254L70.002 5.85254L72.022 6.93254L72.322 8.36254L73.152 8.81254L72.852 7.38254L74.872 8.46254L75.172 9.90254C76.782 10.8725 78.392 13.2125 78.822 15.2325L78.862 15.4425C79.052 16.3225 78.982 17.0025 78.722 17.4225L78.702 17.4325ZM78.352 20.0125L78.302 19.7925C78.142 19.0125 77.502 18.1125 76.882 17.7725L76.622 17.6325L73.492 15.9525L74.142 19.0025L74.572 19.2325L77.532 20.8225C78.152 21.1525 78.522 20.7925 78.352 20.0125ZM72.372 10.6625L72.952 13.4125L76.082 15.0925C76.642 15.3925 76.972 15.0725 76.822 14.3625L76.772 14.1525C76.622 13.4525 76.052 12.6425 75.492 12.3425L72.792 10.8925L72.362 10.6625" fill="white"/>
<path d="M63.4728 253.182C63.6828 263.102 49.8728 271.442 32.6228 271.812C15.3728 272.182 1.21281 264.432 1.00281 254.512C0.952805 252.362 1.57281 250.282 2.73281 248.342C6.94281 241.342 18.3428 236.162 31.8528 235.872C45.5628 235.582 57.3228 240.412 61.6728 247.392C62.8028 249.192 63.4328 251.142 63.4728 253.172V253.182Z" stroke="url(#paint25_linear_2063_1156)" stroke-width="0.34" stroke-miterlimit="10"/>
<path d="M55.8859 249.382C52.7859 243.582 43.2859 239.502 32.1359 239.742C20.8359 239.982 11.4259 244.581 8.70594 250.621L7.83594 250.641L7.92594 254.712H7.94594C8.42594 262.332 19.4059 268.232 32.7459 267.952C46.0859 267.662 56.8059 261.301 56.9559 253.671H56.9759L56.8859 249.361L55.8959 249.391L55.8859 249.382Z" fill="url(#paint26_linear_2063_1156)"/>
<path d="M56.8743 249.592C57.0443 257.382 46.1943 263.932 32.6543 264.222C19.1043 264.512 7.9943 258.432 7.8343 250.642C7.7943 248.952 8.2843 247.322 9.1943 245.802C12.4943 240.302 21.4443 236.242 32.0543 236.012C42.8143 235.782 52.0443 239.572 55.4643 245.052C56.3443 246.472 56.8443 247.992 56.8743 249.592Z" fill="url(#paint27_linear_2063_1156)"/>
<path d="M51.8247 249.262C51.9547 255.452 43.3447 260.652 32.5847 260.882C21.8247 261.112 12.9947 256.282 12.8647 250.092C12.7347 243.902 21.3447 238.702 32.1047 238.472C42.8647 238.242 51.6947 243.072 51.8247 249.262Z" fill="url(#paint28_linear_2063_1156)"/>
<path d="M32.5652 259.982C22.3152 260.202 13.8852 255.752 13.7552 250.072C13.6352 244.392 21.8752 239.582 32.1152 239.372C42.3652 239.152 50.7952 243.602 50.9252 249.282C51.0452 254.962 42.8052 259.772 32.5652 259.982ZM32.1252 239.492C21.9452 239.712 13.7552 244.452 13.8752 250.072C13.9952 255.692 22.3752 260.082 32.5552 259.862C42.7352 259.642 50.9252 254.902 50.8052 249.282C50.6852 243.662 42.3052 239.272 32.1252 239.492Z" fill="white"/>
<path d="M38.4031 246.532C40.2331 246.492 42.1431 246.792 43.6531 247.432L43.9431 247.552C46.8131 248.772 47.1431 250.772 44.6831 252.002L44.5731 252.052L46.1031 252.702L43.2431 254.142L41.7131 253.492L40.5431 254.082L42.0731 254.732L39.2131 256.172L37.6831 255.522L37.0131 255.862L35.5931 256.572L32.2531 255.152L33.6731 254.442L29.6631 252.732L26.3231 251.312L22.7131 249.772L21.2931 250.482L17.9531 249.062L19.3731 248.352L20.0431 248.012L18.1631 247.212L21.0231 245.772L22.9031 246.572L24.0731 245.982L22.1931 245.182L25.0531 243.742L26.9431 244.552C29.3431 243.492 33.3131 243.522 35.9631 244.652L36.2331 244.772C37.3831 245.262 38.1131 245.882 38.3931 246.532H38.4031ZM41.0731 248.992L40.7831 248.872C39.7631 248.432 38.2131 248.442 37.3331 248.882L36.9631 249.062L32.5231 251.292L36.5331 253.002L37.1431 252.702L41.3431 250.592C42.2231 250.152 42.1031 249.432 41.0731 249.002M25.5731 248.352L29.1831 249.892L33.6231 247.662C34.4131 247.262 34.3131 246.622 33.3831 246.232L33.1031 246.112C32.1831 245.722 30.7931 245.722 30.0031 246.112L26.1731 248.042L25.5631 248.352" fill="white"/>
<g style="mix-blend-mode:soft-light" opacity="0.4">
<path d="M55.4653 245.052C52.1653 250.552 43.2153 254.622 32.6053 254.852C21.8353 255.082 12.6053 251.282 9.19531 245.792C12.4953 240.292 21.4453 236.232 32.0553 236.002C42.8153 235.772 52.0453 239.562 55.4653 245.042V245.052Z" fill="black"/>
</g>
<path d="M55.5461 233.413C52.4461 227.613 42.9461 223.533 31.7961 223.773C20.4961 224.013 11.0861 228.613 8.36609 234.653L7.49609 234.673L7.58609 238.743H7.60609C8.08609 246.363 19.0661 252.263 32.4061 251.983C45.7461 251.693 56.4661 245.333 56.6161 237.703H56.6361L56.5461 233.393L55.5561 233.423L55.5461 233.413Z" fill="url(#paint29_linear_2063_1156)"/>
<path d="M32.3371 248.255C45.8816 247.964 56.7259 241.413 56.5586 233.622C56.3913 225.831 45.2758 219.751 31.7314 220.042C18.187 220.333 7.34264 226.884 7.50992 234.675C7.67719 242.466 18.7927 248.546 32.3371 248.255Z" fill="url(#paint30_linear_2063_1156)"/>
<path d="M51.4849 233.292C51.6149 239.482 43.0049 244.682 32.2449 244.912C21.4849 245.142 12.6549 240.312 12.5249 234.122C12.3949 227.932 21.0049 222.732 31.7649 222.502C42.5249 222.272 51.3549 227.102 51.4849 233.292Z" fill="url(#paint31_linear_2063_1156)"/>
<path d="M32.2254 244.022C21.9754 244.242 13.5454 239.792 13.4154 234.112C13.2954 228.432 21.5354 223.622 31.7754 223.412C42.0254 223.192 50.4554 227.642 50.5854 233.322C50.7054 239.002 42.4654 243.812 32.2254 244.022ZM31.7854 223.532C21.6054 223.752 13.4154 228.492 13.5354 234.112C13.6554 239.732 22.0354 244.122 32.2154 243.902C42.3954 243.682 50.5854 238.942 50.4654 233.322C50.3454 227.702 41.9654 223.312 31.7854 223.532Z" fill="white"/>
<path d="M38.0633 230.562C39.8933 230.522 41.8033 230.822 43.3133 231.462L43.6033 231.582C46.4733 232.802 46.8033 234.802 44.3433 236.032L44.2333 236.082L45.7633 236.732L42.9033 238.172L41.3733 237.522L40.2033 238.112L41.7333 238.762L38.8733 240.202L37.3433 239.552L36.6733 239.892L35.2533 240.602L31.9133 239.182L33.3333 238.472L29.3233 236.762L25.9833 235.342L22.3733 233.802L20.9533 234.512L17.6133 233.092L19.0333 232.382L19.7033 232.042L17.8233 231.242L20.6833 229.802L22.5633 230.602L23.7333 230.012L21.8533 229.212L24.7133 227.772L26.6033 228.582C29.0033 227.522 32.9733 227.552 35.6233 228.682L35.8933 228.802C37.0433 229.292 37.7733 229.912 38.0533 230.562H38.0633ZM40.7333 233.022L40.4433 232.902C39.4233 232.462 37.8733 232.472 36.9933 232.912L36.6233 233.092L32.1833 235.322L36.1933 237.032L36.8033 236.732L41.0033 234.622C41.8833 234.182 41.7633 233.462 40.7333 233.032M25.2333 232.382L28.8433 233.922L33.2833 231.692C34.0733 231.292 33.9733 230.652 33.0433 230.262L32.7633 230.142C31.8433 229.752 30.4533 229.752 29.6633 230.142L25.8333 232.072L25.2233 232.382" fill="white"/>
<g style="mix-blend-mode:soft-light" opacity="0.4">
<path d="M55.1958 229.092C51.8958 234.592 42.9458 238.662 32.3358 238.892C21.5658 239.122 12.3358 235.322 8.92578 229.832C12.2258 224.342 21.1758 220.272 31.7858 220.042C42.5458 219.812 51.7758 223.602 55.1958 229.082V229.092Z" fill="black"/>
</g>
<path d="M55.2063 217.452C52.1063 211.652 42.6062 207.572 31.4562 207.812C20.1562 208.052 10.7462 212.652 8.02625 218.692L7.15625 218.712L7.24625 222.782H7.26625C7.74625 230.402 18.7262 236.302 32.0662 236.022C45.4062 235.732 56.1263 229.372 56.2763 221.742H56.2962L56.2063 217.432L55.2162 217.462L55.2063 217.452Z" fill="url(#paint32_linear_2063_1156)"/>
<path d="M56.1943 217.662C56.3643 225.452 45.5143 232.002 31.9743 232.292C18.4343 232.582 7.31431 226.502 7.15431 218.712C6.98431 210.922 17.8343 204.372 31.3743 204.082C44.9143 203.792 56.0343 209.872 56.1943 217.662Z" fill="url(#paint33_linear_2063_1156)"/>
<path d="M51.145 217.332C51.275 223.522 42.665 228.722 31.905 228.952C21.145 229.182 12.315 224.352 12.185 218.162C12.055 211.972 20.665 206.772 31.425 206.542C42.185 206.312 51.015 211.142 51.145 217.332Z" fill="url(#paint34_linear_2063_1156)"/>
<path d="M31.8855 228.052C21.6355 228.272 13.2055 223.822 13.0755 218.142C12.9555 212.462 21.1955 207.662 31.4355 207.442C41.6855 207.222 50.1155 211.672 50.2455 217.352C50.3655 223.032 42.1255 227.842 31.8855 228.052ZM31.4455 207.562C21.2655 207.782 13.0755 212.522 13.1955 218.142C13.3155 223.762 21.6955 228.152 31.8755 227.932C42.0555 227.712 50.2455 222.972 50.1255 217.352C50.0055 211.732 41.6255 207.342 31.4455 207.562Z" fill="white"/>
<path d="M37.7234 214.592C39.5534 214.552 41.4634 214.852 42.9734 215.492L43.2634 215.612C46.1334 216.832 46.4634 218.832 44.0034 220.062L43.8934 220.112L45.4234 220.762L42.5634 222.202L41.0334 221.552L39.8634 222.142L41.3934 222.792L38.5334 224.232L37.0034 223.582L36.3334 223.922L34.9134 224.632L31.5734 223.212L32.9934 222.502L28.9834 220.792L25.6434 219.372L22.0334 217.832L20.6134 218.542L17.2734 217.122L18.6934 216.412L19.3634 216.072L17.4834 215.272L20.3434 213.832L22.2234 214.632L23.3934 214.042L21.5134 213.242L24.3734 211.802L26.2634 212.612C28.6634 211.552 32.6334 211.582 35.2834 212.712L35.5534 212.832C36.7034 213.322 37.4334 213.942 37.7134 214.592H37.7234ZM40.3934 217.052L40.1034 216.932C39.0834 216.492 37.5334 216.502 36.6534 216.942L36.2834 217.122L31.8434 219.352L35.8534 221.062L36.4634 220.762L40.6634 218.652C41.5434 218.212 41.4234 217.492 40.3934 217.062M24.8934 216.412L28.5034 217.952L32.9434 215.722C33.7334 215.322 33.6334 214.682 32.7034 214.292L32.4234 214.172C31.5034 213.782 30.1134 213.782 29.3234 214.172L25.4934 216.102L24.8834 216.412" fill="white"/>
<path d="M261.623 243.063C261.623 252.983 247.633 261.033 230.383 261.033C213.133 261.033 199.133 252.983 199.133 243.063C199.133 240.913 199.793 238.843 200.993 236.933C205.353 230.023 216.853 225.093 230.373 225.093C243.893 225.093 255.743 230.173 259.943 237.243C261.033 239.073 261.623 241.023 261.623 243.063Z" stroke="#96B3F9" stroke-width="0.34" stroke-miterlimit="10"/>
<path d="M252.989 239.213V245.443C252.949 247.333 251.559 249.092 249.199 250.562C245.029 253.172 237.829 254.893 229.639 254.893C216.809 254.893 206.399 250.673 206.289 245.443V239.213H211.779C216.059 237.133 222.479 235.812 229.649 235.812C235.349 235.812 240.569 236.643 244.629 238.033C245.679 238.393 246.639 238.783 247.519 239.213H253.009H252.989Z" fill="url(#paint35_linear_2063_1156)"/>
<g style="mix-blend-mode:soft-light">
<path d="M252.989 245.162V245.442C252.949 247.332 251.559 249.092 249.199 250.562C245.029 253.172 237.829 254.892 229.639 254.892C216.809 254.892 206.399 250.672 206.289 245.442V245.162C206.409 250.392 216.819 254.612 229.639 254.612C237.739 254.612 244.879 252.932 249.069 250.362C251.509 248.872 252.949 247.082 252.989 245.152V245.162Z" fill="black"/>
</g>
<path d="M229.63 248.732C242.531 248.732 252.99 244.47 252.99 239.212C252.99 233.955 242.531 229.692 229.63 229.692C216.728 229.692 206.27 233.955 206.27 239.212C206.27 244.47 216.728 248.732 229.63 248.732Z" fill="url(#paint36_linear_2063_1156)"/>
<path d="M229.568 246.692C240.934 246.692 250.148 243.263 250.148 239.032C250.148 234.802 240.934 231.372 229.568 231.372C218.202 231.372 208.988 234.802 208.988 239.032C208.988 243.263 218.202 246.692 229.568 246.692Z" fill="#FCFAFF"/>
<path d="M229.631 248.382C216.871 248.382 206.511 244.212 206.281 239.042C206.281 239.102 206.281 239.162 206.281 239.212C206.281 244.472 216.741 248.732 229.641 248.732C242.541 248.732 253.001 244.472 253.001 239.212C253.001 239.152 253.001 239.092 253.001 239.042C252.771 244.222 242.411 248.382 229.651 248.382H229.631Z" fill="white"/>
<path opacity="0.7" d="M252.991 196.453V239.793H252.951C252.941 239.873 252.931 239.943 252.911 240.023C252.911 240.023 252.911 240.023 252.911 240.033C252.901 240.103 252.881 240.173 252.861 240.253C252.861 240.253 252.861 240.253 252.861 240.263C252.841 240.333 252.821 240.413 252.791 240.483C252.771 240.563 252.741 240.633 252.711 240.713C252.681 240.783 252.651 240.863 252.611 240.943C252.581 241.013 252.541 241.093 252.501 241.163C252.431 241.303 252.351 241.453 252.261 241.593C252.261 241.593 252.261 241.603 252.251 241.613C252.111 241.833 251.951 242.053 251.781 242.263C251.661 242.403 251.541 242.543 251.411 242.673C251.411 242.673 251.401 242.683 251.391 242.693C251.261 242.823 251.131 242.953 250.991 243.083C250.921 243.143 250.851 243.213 250.781 243.273C250.701 243.343 250.611 243.413 250.521 243.483C250.361 243.613 250.191 243.743 250.011 243.873C249.921 243.933 249.831 244.003 249.741 244.063C249.651 244.123 249.551 244.193 249.461 244.253C249.361 244.313 249.271 244.373 249.171 244.433C249.071 244.493 248.971 244.553 248.871 244.613C248.771 244.673 248.661 244.733 248.561 244.793C248.451 244.853 248.351 244.913 248.241 244.973C248.161 245.013 248.081 245.063 248.001 245.103C247.911 245.153 247.821 245.193 247.731 245.243C247.541 245.333 247.351 245.423 247.161 245.513C247.061 245.563 246.961 245.603 246.861 245.653C246.781 245.683 246.701 245.723 246.621 245.753C246.581 245.773 246.531 245.793 246.491 245.813C246.131 245.963 245.771 246.113 245.391 246.253C245.271 246.303 245.151 246.343 245.021 246.383C244.161 246.693 243.241 246.973 242.271 247.223C241.981 247.293 241.691 247.373 241.401 247.443C241.211 247.493 241.011 247.533 240.821 247.583C240.541 247.643 240.271 247.703 239.981 247.753C239.491 247.853 238.981 247.943 238.461 248.033C238.291 248.063 238.121 248.093 237.951 248.113C237.751 248.143 237.551 248.173 237.341 248.203C237.201 248.223 237.061 248.243 236.921 248.263C236.641 248.303 236.351 248.333 236.071 248.363C235.891 248.383 235.711 248.403 235.521 248.423C234.771 248.503 234.021 248.563 233.241 248.613C233.091 248.613 232.931 248.633 232.781 248.643C232.701 248.643 232.621 248.643 232.551 248.653C232.411 248.653 232.261 248.663 232.121 248.673C231.891 248.683 231.661 248.693 231.421 248.703C231.341 248.703 231.261 248.703 231.181 248.703C231.071 248.703 230.961 248.703 230.851 248.703C230.831 248.703 230.811 248.703 230.791 248.703C230.631 248.703 230.461 248.703 230.301 248.703H230.281C230.091 248.703 229.891 248.703 229.701 248.703C229.301 248.703 228.901 248.703 228.501 248.693C228.401 248.693 228.311 248.693 228.211 248.693C227.671 248.683 227.131 248.663 226.601 248.633C226.451 248.633 226.291 248.613 226.141 248.603C225.371 248.553 224.611 248.493 223.861 248.413C223.681 248.393 223.491 248.373 223.311 248.353C223.021 248.323 222.741 248.283 222.461 248.253C222.321 248.233 222.181 248.213 222.041 248.193C221.831 248.163 221.631 248.133 221.431 248.103C221.261 248.083 221.091 248.053 220.921 248.023C220.411 247.943 219.901 247.843 219.401 247.743C219.121 247.683 218.841 247.623 218.561 247.573C218.361 247.533 218.171 247.483 217.981 247.433C217.681 247.363 217.391 247.293 217.111 247.213C216.141 246.963 215.221 246.683 214.361 246.373C214.241 246.333 214.111 246.283 213.991 246.243C213.611 246.103 213.251 245.953 212.891 245.803C212.761 245.753 212.641 245.693 212.521 245.643C212.421 245.603 212.321 245.553 212.221 245.503C212.031 245.413 211.831 245.323 211.651 245.233C211.561 245.193 211.471 245.143 211.381 245.093C211.301 245.053 211.221 245.013 211.141 244.963C211.031 244.903 210.921 244.843 210.821 244.783C210.711 244.723 210.611 244.663 210.511 244.603C210.411 244.543 210.311 244.483 210.211 244.423C210.111 244.363 210.011 244.303 209.921 244.243C209.821 244.183 209.731 244.113 209.641 244.053C209.551 243.993 209.461 243.923 209.371 243.863C209.191 243.733 209.021 243.603 208.861 243.473C208.771 243.403 208.691 243.333 208.601 243.263C208.531 243.203 208.461 243.133 208.391 243.073C208.251 242.943 208.121 242.813 207.991 242.683C207.991 242.683 207.981 242.663 207.971 242.663C207.841 242.523 207.721 242.383 207.601 242.253C207.421 242.043 207.271 241.823 207.131 241.603C207.131 241.603 207.131 241.593 207.121 241.583C207.031 241.443 206.951 241.303 206.881 241.153C206.841 241.083 206.811 241.003 206.771 240.933C206.741 240.853 206.701 240.783 206.671 240.703C206.641 240.623 206.611 240.553 206.591 240.473C206.571 240.403 206.541 240.323 206.521 240.253C206.521 240.253 206.521 240.253 206.521 240.243C206.501 240.173 206.481 240.093 206.471 240.023C206.471 240.023 206.471 240.023 206.471 240.013C206.451 239.933 206.441 239.863 206.431 239.783H206.391V197.093H206.821H207.001L209.781 197.053L249.931 196.493L252.801 196.453H252.921H253.101H252.991Z" fill="url(#paint37_linear_2063_1156)"/>
<path opacity="0.7" d="M229.63 222.633C242.531 222.633 252.99 218.371 252.99 213.113C252.99 207.855 242.531 203.593 229.63 203.593C216.728 203.593 206.27 207.855 206.27 213.113C206.27 218.371 216.728 222.633 229.63 222.633Z" fill="url(#paint38_linear_2063_1156)"/>
<path opacity="0.5" d="M229.631 222.303C216.861 222.303 206.491 218.133 206.281 212.953C206.281 213.003 206.281 213.063 206.281 213.113C206.281 218.373 216.741 222.633 229.641 222.633C242.541 222.633 253.001 218.373 253.001 213.113C253.001 213.063 253.001 213.003 253.001 212.953C252.791 218.133 242.411 222.303 229.651 222.303H229.631Z" fill="white"/>
<path opacity="0.8" d="M229.571 222.632C216.671 222.632 206.211 218.372 206.211 213.112V239.782H206.251C206.991 244.772 217.141 248.722 229.561 248.722C241.981 248.722 252.141 244.772 252.871 239.782H252.911V213.112C252.911 218.372 242.451 222.632 229.551 222.632H229.571Z" fill="url(#paint39_linear_2063_1156)"/>
<path opacity="0.5" d="M252.991 239.423V239.793H252.951C252.941 239.873 252.931 239.943 252.911 240.023C252.911 240.023 252.911 240.023 252.911 240.033C252.901 240.103 252.881 240.173 252.861 240.253C252.861 240.253 252.861 240.253 252.861 240.263C252.841 240.333 252.821 240.413 252.791 240.483C252.771 240.563 252.741 240.633 252.711 240.713C252.681 240.783 252.651 240.863 252.611 240.943C252.581 241.013 252.541 241.093 252.501 241.163C252.431 241.303 252.351 241.453 252.261 241.593C252.261 241.593 252.261 241.603 252.251 241.613C252.111 241.833 251.951 242.053 251.781 242.263C251.661 242.403 251.541 242.543 251.411 242.673C251.411 242.673 251.401 242.683 251.391 242.693C251.261 242.823 251.131 242.953 250.991 243.083C250.921 243.143 250.851 243.213 250.781 243.273C250.701 243.343 250.611 243.413 250.521 243.483C250.361 243.613 250.191 243.743 250.011 243.873C249.921 243.933 249.831 244.003 249.741 244.063C249.651 244.123 249.551 244.193 249.461 244.253C249.361 244.313 249.271 244.373 249.171 244.433C249.071 244.493 248.971 244.553 248.871 244.613C248.771 244.673 248.661 244.733 248.561 244.793C248.451 244.853 248.351 244.913 248.241 244.973C248.161 245.013 248.081 245.063 248.001 245.103C247.911 245.153 247.821 245.193 247.731 245.243C247.541 245.333 247.351 245.423 247.161 245.513C247.061 245.563 246.961 245.603 246.861 245.653C246.781 245.683 246.701 245.723 246.621 245.753C246.581 245.773 246.531 245.793 246.491 245.813C246.131 245.963 245.771 246.113 245.391 246.253C245.271 246.303 245.151 246.343 245.021 246.383C244.161 246.693 243.241 246.973 242.271 247.223C241.981 247.293 241.691 247.373 241.401 247.443C241.211 247.493 241.011 247.533 240.821 247.583C240.541 247.643 240.271 247.703 239.981 247.753C239.491 247.853 238.981 247.943 238.461 248.033C238.291 248.063 238.121 248.093 237.951 248.113C237.751 248.143 237.551 248.173 237.341 248.203C237.201 248.223 237.061 248.243 236.921 248.263C236.641 248.303 236.351 248.333 236.071 248.363C235.891 248.383 235.711 248.403 235.521 248.423C234.771 248.503 234.021 248.563 233.241 248.613C233.091 248.613 232.931 248.633 232.781 248.643C232.701 248.643 232.621 248.643 232.551 248.653C232.411 248.653 232.261 248.663 232.121 248.673C231.891 248.683 231.661 248.693 231.421 248.703C231.341 248.703 231.261 248.703 231.181 248.703C231.071 248.703 230.961 248.703 230.851 248.703C230.831 248.703 230.811 248.703 230.791 248.703C230.631 248.703 230.461 248.703 230.301 248.703H230.281C230.091 248.703 229.891 248.703 229.701 248.703C229.301 248.703 228.901 248.703 228.501 248.693C228.401 248.693 228.311 248.693 228.211 248.693C227.671 248.683 227.131 248.663 226.601 248.633C226.451 248.633 226.291 248.613 226.141 248.603C225.371 248.553 224.611 248.493 223.861 248.413C223.681 248.393 223.491 248.373 223.311 248.353C223.021 248.323 222.741 248.283 222.461 248.253C222.321 248.233 222.181 248.213 222.041 248.193C221.831 248.163 221.631 248.133 221.431 248.103C221.261 248.083 221.091 248.053 220.921 248.023C220.411 247.943 219.901 247.843 219.401 247.743C219.121 247.683 218.841 247.623 218.561 247.573C218.361 247.533 218.171 247.483 217.981 247.433C217.681 247.363 217.391 247.293 217.111 247.213C216.141 246.963 215.221 246.683 214.361 246.373C214.241 246.333 214.111 246.283 213.991 246.243C213.611 246.103 213.251 245.953 212.891 245.803C212.761 245.753 212.641 245.693 212.521 245.643C212.421 245.603 212.321 245.553 212.221 245.503C212.031 245.413 211.831 245.323 211.651 245.233C211.561 245.193 211.471 245.143 211.381 245.093C211.301 245.053 211.221 245.013 211.141 244.963C211.031 244.903 210.921 244.843 210.821 244.783C210.711 244.723 210.611 244.663 210.511 244.603C210.411 244.543 210.311 244.483 210.211 244.423C210.111 244.363 210.011 244.303 209.921 244.243C209.821 244.183 209.731 244.113 209.641 244.053C209.551 243.993 209.461 243.923 209.371 243.863C209.191 243.733 209.021 243.603 208.861 243.473C208.771 243.403 208.691 243.333 208.601 243.263C208.531 243.203 208.461 243.133 208.391 243.073C208.251 242.943 208.121 242.813 207.991 242.683C207.991 242.683 207.981 242.663 207.971 242.663C207.841 242.523 207.721 242.383 207.601 242.253C207.421 242.043 207.271 241.823 207.131 241.603C207.131 241.603 207.131 241.593 207.121 241.583C207.031 241.443 206.951 241.303 206.881 241.153C206.841 241.083 206.811 241.003 206.771 240.933C206.741 240.853 206.701 240.783 206.671 240.703C206.641 240.623 206.611 240.553 206.591 240.473C206.571 240.403 206.541 240.323 206.521 240.253C206.521 240.253 206.521 240.253 206.521 240.243C206.501 240.173 206.481 240.093 206.471 240.023C206.471 240.023 206.471 240.023 206.471 240.013C206.451 239.933 206.441 239.863 206.431 239.783H206.391V239.413H206.431C207.171 244.403 217.321 248.353 229.741 248.353C236.341 248.353 242.301 247.243 246.551 245.443C250.241 243.883 252.641 241.813 253.041 239.513C253.041 239.483 253.051 239.453 253.061 239.413H253.101L252.991 239.423Z" fill="white"/>
<path d="M247.5 195.283C243.22 193.203 236.8 191.883 229.63 191.883C222.46 191.883 216.05 193.203 211.76 195.283H206.27V201.513C206.38 206.743 216.8 210.963 229.62 210.963C242.44 210.963 252.86 206.743 252.97 201.513V195.283H247.48H247.5Z" fill="url(#paint40_linear_2063_1156)"/>
<g style="mix-blend-mode:soft-light">
<path d="M229.631 210.682C216.801 210.682 206.391 206.462 206.281 201.232V201.512C206.391 206.742 216.811 210.962 229.631 210.962C242.451 210.962 252.871 206.742 252.981 201.512V201.232C252.871 206.462 242.451 210.682 229.631 210.682Z" fill="black"/>
</g>
<path d="M229.63 204.803C242.531 204.803 252.99 200.54 252.99 195.283C252.99 190.025 242.531 185.763 229.63 185.763C216.728 185.763 206.27 190.025 206.27 195.283C206.27 200.54 216.728 204.803 229.63 204.803Z" fill="url(#paint41_linear_2063_1156)"/>
<path d="M229.568 202.762C240.934 202.762 250.148 199.333 250.148 195.102C250.148 190.872 240.934 187.442 229.568 187.442C218.202 187.442 208.988 190.872 208.988 195.102C208.988 199.333 218.202 202.762 229.568 202.762Z" fill="url(#paint42_linear_2063_1156)"/>
<path d="M229.631 204.452C216.871 204.452 206.511 200.282 206.281 195.112C206.281 195.172 206.281 195.232 206.281 195.282C206.281 200.542 216.741 204.802 229.641 204.802C242.541 204.802 253.001 200.542 253.001 195.282C253.001 195.222 253.001 195.162 253.001 195.112C252.771 200.292 242.411 204.452 229.651 204.452H229.631Z" fill="#00756B"/>
<g style="mix-blend-mode:soft-light" opacity="0.4">
<path d="M252.99 226.873V245.443C252.95 247.333 251.56 249.093 249.2 250.563C249.16 250.493 249.11 250.433 249.06 250.363C248.45 249.443 247.87 248.463 247.34 247.413C247.06 246.863 246.8 246.313 246.57 245.753V245.733C246.53 245.643 246.49 245.553 246.46 245.463C246.46 245.463 246.46 245.463 246.46 245.453C246.22 244.883 246.01 244.313 245.82 243.743C245.15 241.773 244.76 239.833 244.63 238.033C244.52 236.543 244.6 235.153 244.85 233.903C244.97 233.293 245.14 232.703 245.35 232.163C245.94 230.623 246.89 229.423 248.17 228.713L250.59 227.483C251.33 227.113 252.12 226.913 252.95 226.883C252.97 226.883 252.99 226.883 253.01 226.883L252.99 226.873Z" fill="black"/>
</g>
<path d="M267.573 252.404C270.163 248.874 269.883 241.984 266.523 235.354C263.123 228.634 257.643 224.304 253.233 224.414L252.963 223.894L250.543 225.114C246.103 227.604 245.723 235.904 249.733 243.834C253.753 251.764 260.653 256.374 265.293 254.264L267.853 252.974L267.553 252.394L267.573 252.404Z" fill="url(#paint43_linear_2063_1156)"/>
<path d="M267.734 253.063C263.104 255.403 256.044 250.783 251.964 242.723C247.884 234.673 248.334 226.243 252.974 223.893C257.604 221.553 264.664 226.173 268.744 234.233C272.824 242.283 272.374 250.713 267.734 253.063Z" fill="url(#paint44_linear_2063_1156)"/>
<path d="M266.481 249.933C262.801 251.793 257.191 248.123 253.951 241.723C250.711 235.323 251.071 228.623 254.751 226.763C258.431 224.903 264.041 228.573 267.281 234.973C270.521 241.373 270.161 248.073 266.481 249.933Z" fill="url(#paint45_linear_2063_1156)"/>
<path d="M254.482 241.453C251.402 235.363 251.642 229.013 255.022 227.303C258.402 225.593 263.662 229.163 266.742 235.253C269.822 241.343 269.582 247.693 266.202 249.403C262.822 251.113 257.562 247.543 254.482 241.453ZM266.672 235.283C263.612 229.233 258.402 225.683 255.062 227.373C251.722 229.063 251.502 235.363 254.562 241.413C257.622 247.463 262.832 251.013 266.172 249.323C269.512 247.633 269.732 241.333 266.672 235.283Z" fill="#00BBAB"/>
<path d="M264.254 241.083C264.804 242.173 265.174 243.403 265.224 244.493V244.703C265.324 246.773 264.224 247.553 262.774 246.433L262.714 246.383L262.764 247.493L261.074 246.193L261.024 245.083L260.334 244.543L260.384 245.653L258.694 244.353L258.644 243.243L258.244 242.933L257.404 242.283L257.294 239.873L258.134 240.523L258.004 237.623L257.894 235.203L257.774 232.593L256.934 231.943L256.824 229.523L257.664 230.173L258.054 230.473L257.994 229.113L259.684 230.413L259.744 231.773L260.434 232.313L260.374 230.953L262.064 232.253L262.124 233.623C263.454 234.763 264.584 237.153 264.664 239.073V239.273C264.714 240.103 264.544 240.723 264.244 241.073L264.254 241.083ZM263.544 243.393V243.183C263.504 242.443 263.054 241.513 262.534 241.113L262.314 240.943L259.694 238.923L259.824 241.823L260.184 242.103L262.664 244.023C263.184 244.423 263.574 244.143 263.544 243.403M259.474 233.903L259.594 236.513L262.214 238.533C262.684 238.893 263.034 238.643 263.004 237.983V237.783C262.964 237.113 262.564 236.283 262.094 235.923L259.834 234.173L259.474 233.893" fill="white"/>
<defs>
<linearGradient id="paint0_linear_2063_1156" x1="142.853" y1="167.393" x2="142.853" y2="244.913" gradientUnits="userSpaceOnUse">
<stop stop-color="#00BBAB"/>
<stop offset="1" stop-color="#00EEDA"/>
</linearGradient>
<linearGradient id="paint1_linear_2063_1156" x1="143.053" y1="171.902" x2="143.053" y2="238.232" gradientUnits="userSpaceOnUse">
<stop stop-color="#003430"/>
<stop offset="1" stop-color="#00D6C4"/>
</linearGradient>
<linearGradient id="paint2_linear_2063_1156" x1="70.5" y1="184" x2="224" y2="184" gradientUnits="userSpaceOnUse">
<stop stop-color="#00BBAB"/>
<stop offset="1" stop-color="#00EEDA"/>
</linearGradient>
<linearGradient id="paint3_linear_2063_1156" x1="142.853" y1="156.513" x2="142.853" y2="209.713" gradientUnits="userSpaceOnUse">
<stop stop-color="#007B71"/>
<stop offset="1" stop-color="#00B4A5"/>
</linearGradient>
<linearGradient id="paint4_linear_2063_1156" x1="143.063" y1="183.103" x2="143.063" y2="216.773" gradientUnits="userSpaceOnUse">
<stop stop-color="#00BBAB"/>
<stop offset="1" stop-color="#00EEDA"/>
</linearGradient>
<linearGradient id="paint5_linear_2063_1156" x1="143.053" y1="165.203" x2="143.053" y2="202.863" gradientUnits="userSpaceOnUse">
<stop stop-color="#00BBAB"/>
<stop offset="1" stop-color="#00EEDA"/>
</linearGradient>
<linearGradient id="paint6_linear_2063_1156" x1="143.063" y1="153.123" x2="143.063" y2="190.683" gradientUnits="userSpaceOnUse">
<stop stop-color="#00BBAB"/>
<stop offset="1" stop-color="#00EEDA"/>
</linearGradient>
<linearGradient id="paint7_linear_2063_1156" x1="142.944" y1="156.443" x2="142.944" y2="186.663" gradientUnits="userSpaceOnUse">
<stop stop-color="#00F1DD"/>
<stop offset="1" stop-color="#032E2A"/>
</linearGradient>
<linearGradient id="paint8_linear_2063_1156" x1="142.853" y1="209.712" x2="142.853" y2="20.3223" gradientUnits="userSpaceOnUse">
<stop stop-color="#00BBAB"/>
<stop offset="1" stop-color="#B5FFF9"/>
</linearGradient>
<linearGradient id="paint9_linear_2063_1156" x1="145.444" y1="75.4521" x2="145.444" y2="124.712" gradientUnits="userSpaceOnUse">
<stop stop-color="#00BBAB"/>
<stop offset="1" stop-color="#00EEDA"/>
</linearGradient>
<linearGradient id="paint10_linear_2063_1156" x1="122.994" y1="8.04199" x2="122.994" y2="124.712" gradientUnits="userSpaceOnUse">
<stop stop-color="#00BBAB"/>
<stop offset="1" stop-color="#00EEDA"/>
</linearGradient>
<linearGradient id="paint11_linear_2063_1156" x1="166.704" y1="8.04199" x2="166.704" y2="124.712" gradientUnits="userSpaceOnUse">
<stop stop-color="#00BBAB"/>
<stop offset="1" stop-color="#00EEDA"/>
</linearGradient>
<linearGradient id="paint12_linear_2063_1156" x1="122.994" y1="98.1816" x2="122.994" y2="160.432" gradientUnits="userSpaceOnUse">
<stop stop-color="#00BBAB"/>
<stop offset="1" stop-color="#00EEDA"/>
</linearGradient>
<linearGradient id="paint13_linear_2063_1156" x1="166.704" y1="98.8623" x2="166.704" y2="160.432" gradientUnits="userSpaceOnUse">
<stop stop-color="#00BBAB"/>
<stop offset="1" stop-color="#00EEDA"/>
</linearGradient>
<linearGradient id="paint14_linear_2063_1156" x1="244.922" y1="106.383" x2="244.922" y2="131.153" gradientUnits="userSpaceOnUse">
<stop stop-color="#00BBAB"/>
<stop offset="1" stop-color="#00EEDA"/>
</linearGradient>
<linearGradient id="paint15_linear_2063_1156" x1="234.392" y1="106.383" x2="234.392" y2="131.153" gradientUnits="userSpaceOnUse">
<stop stop-color="#00BBAB"/>
<stop offset="1" stop-color="#00EEDA"/>
</linearGradient>
<linearGradient id="paint16_linear_2063_1156" x1="245.607" y1="129.993" x2="245.607" y2="163.743" gradientUnits="userSpaceOnUse">
<stop stop-color="#00BBAB"/>
<stop offset="1" stop-color="#00EEDA"/>
</linearGradient>
<linearGradient id="paint17_linear_2063_1156" x1="235.326" y1="130.703" x2="235.326" y2="163.743" gradientUnits="userSpaceOnUse">
<stop stop-color="#00BBAB"/>
<stop offset="1" stop-color="#00EEDA"/>
</linearGradient>
<linearGradient id="paint18_linear_2063_1156" x1="52.422" y1="43.9824" x2="52.422" y2="62.5924" gradientUnits="userSpaceOnUse">
<stop stop-color="#00BBAB"/>
<stop offset="1" stop-color="#00EEDA"/>
</linearGradient>
<linearGradient id="paint19_linear_2063_1156" x1="44.5128" y1="43.9824" x2="44.5128" y2="62.5924" gradientUnits="userSpaceOnUse">
<stop stop-color="#00BBAB"/>
<stop offset="1" stop-color="#00EEDA"/>
</linearGradient>
<linearGradient id="paint20_linear_2063_1156" x1="52.9394" y1="61.7324" x2="52.9394" y2="87.0824" gradientUnits="userSpaceOnUse">
<stop stop-color="#00BBAB"/>
<stop offset="1" stop-color="#00EEDA"/>
</linearGradient>
<linearGradient id="paint21_linear_2063_1156" x1="45.2114" y1="62.252" x2="45.2114" y2="87.082" gradientUnits="userSpaceOnUse">
<stop stop-color="#00BBAB"/>
<stop offset="1" stop-color="#00EEDA"/>
</linearGradient>
<linearGradient id="paint22_linear_2063_1156" x1="61.5671" y1="2.82617" x2="82.322" y2="31.1324" gradientUnits="userSpaceOnUse">
<stop stop-color="#00BBAB"/>
<stop offset="1" stop-color="#005952"/>
</linearGradient>
<linearGradient id="paint23_linear_2063_1156" x1="74.1092" y1="0" x2="74.1092" y2="30.7247" gradientUnits="userSpaceOnUse">
<stop stop-color="#00BBAB"/>
<stop offset="1" stop-color="#00EEDA"/>
</linearGradient>
<linearGradient id="paint24_linear_2063_1156" x1="74.3672" y1="2.97949" x2="74.3672" y2="27.3854" gradientUnits="userSpaceOnUse">
<stop stop-color="#00BBAB"/>
<stop offset="1" stop-color="#00EEDA"/>
</linearGradient>
<linearGradient id="paint25_linear_2063_1156" x1="32.2376" y1="235.859" x2="32.2376" y2="271.824" gradientUnits="userSpaceOnUse">
<stop stop-color="#00BBAB"/>
<stop offset="1" stop-color="#00EEDA"/>
</linearGradient>
<linearGradient id="paint26_linear_2063_1156" x1="32.4059" y1="239.731" x2="32.4059" y2="267.961" gradientUnits="userSpaceOnUse">
<stop stop-color="#007F74"/>
<stop offset="1" stop-color="#00A395"/>
</linearGradient>
<linearGradient id="paint27_linear_2063_1156" x1="32.3542" y1="236.002" x2="32.3542" y2="264.232" gradientUnits="userSpaceOnUse">
<stop stop-color="#00BBAB"/>
<stop offset="1" stop-color="#00EEDA"/>
</linearGradient>
<linearGradient id="paint28_linear_2063_1156" x1="32.3447" y1="238.464" x2="32.3447" y2="260.89" gradientUnits="userSpaceOnUse">
<stop stop-color="#00BBAB"/>
<stop offset="1" stop-color="#00EEDA"/>
</linearGradient>
<linearGradient id="paint29_linear_2063_1156" x1="32.0661" y1="223.763" x2="32.0661" y2="251.992" gradientUnits="userSpaceOnUse">
<stop stop-color="#007F74"/>
<stop offset="1" stop-color="#00A395"/>
</linearGradient>
<linearGradient id="paint30_linear_2063_1156" x1="31.7314" y1="220.042" x2="32.3371" y2="248.255" gradientUnits="userSpaceOnUse">
<stop stop-color="#00BBAB"/>
<stop offset="1" stop-color="#00EEDA"/>
</linearGradient>
<linearGradient id="paint31_linear_2063_1156" x1="32.0049" y1="222.494" x2="32.0049" y2="244.92" gradientUnits="userSpaceOnUse">
<stop stop-color="#00BBAB"/>
<stop offset="1" stop-color="#00EEDA"/>
</linearGradient>
<linearGradient id="paint32_linear_2063_1156" x1="7.24198" y1="222.426" x2="56.2807" y2="221.373" gradientUnits="userSpaceOnUse">
<stop stop-color="#00BBAB"/>
<stop offset="1" stop-color="#00978A"/>
</linearGradient>
<linearGradient id="paint33_linear_2063_1156" x1="31.6743" y1="204.072" x2="31.6743" y2="232.302" gradientUnits="userSpaceOnUse">
<stop stop-color="#00BBAB"/>
<stop offset="1" stop-color="#00EEDA"/>
</linearGradient>
<linearGradient id="paint34_linear_2063_1156" x1="31.665" y1="206.534" x2="31.665" y2="228.96" gradientUnits="userSpaceOnUse">
<stop stop-color="#00BBAB"/>
<stop offset="1" stop-color="#00EEDA"/>
</linearGradient>
<linearGradient id="paint35_linear_2063_1156" x1="229.649" y1="235.812" x2="229.649" y2="254.893" gradientUnits="userSpaceOnUse">
<stop stop-color="#00BBAB"/>
<stop offset="1" stop-color="#00EEDA"/>
</linearGradient>
<linearGradient id="paint36_linear_2063_1156" x1="206.28" y1="239.212" x2="252.99" y2="239.212" gradientUnits="userSpaceOnUse">
<stop stop-color="#F2F0FB"/>
<stop offset="1" stop-color="#F4F3FB"/>
</linearGradient>
<linearGradient id="paint37_linear_2063_1156" x1="229.746" y1="196.453" x2="229.746" y2="248.703" gradientUnits="userSpaceOnUse">
<stop stop-color="#00BBAB"/>
<stop offset="1" stop-color="#00EEDA"/>
</linearGradient>
<linearGradient id="paint38_linear_2063_1156" x1="229.63" y1="203.593" x2="229.63" y2="222.633" gradientUnits="userSpaceOnUse">
<stop stop-color="#00BBAB"/>
<stop offset="1" stop-color="#00EEDA"/>
</linearGradient>
<linearGradient id="paint39_linear_2063_1156" x1="229.561" y1="213.112" x2="229.561" y2="248.722" gradientUnits="userSpaceOnUse">
<stop stop-color="#00BBAB"/>
<stop offset="1" stop-color="#00EEDA"/>
</linearGradient>
<linearGradient id="paint40_linear_2063_1156" x1="206.28" y1="201.423" x2="252.99" y2="201.423" gradientUnits="userSpaceOnUse">
<stop stop-color="#01B0A1"/>
<stop offset="1" stop-color="#01C5B5"/>
</linearGradient>
<linearGradient id="paint41_linear_2063_1156" x1="206.28" y1="195.283" x2="252.99" y2="195.283" gradientUnits="userSpaceOnUse">
<stop stop-color="#03AEA0"/>
<stop offset="1" stop-color="#008176"/>
</linearGradient>
<linearGradient id="paint42_linear_2063_1156" x1="229.568" y1="187.442" x2="229.568" y2="202.762" gradientUnits="userSpaceOnUse">
<stop stop-color="#075E57"/>
<stop offset="1" stop-color="#0BE5D2"/>
</linearGradient>
<linearGradient id="paint43_linear_2063_1156" x1="250.84" y1="225.032" x2="265.605" y2="254.198" gradientUnits="userSpaceOnUse">
<stop stop-color="#00BBAB"/>
<stop offset="1" stop-color="#02AC9E"/>
</linearGradient>
<linearGradient id="paint44_linear_2063_1156" x1="260.354" y1="223.285" x2="260.354" y2="253.671" gradientUnits="userSpaceOnUse">
<stop stop-color="#00BBAB"/>
<stop offset="1" stop-color="#00EEDA"/>
</linearGradient>
<linearGradient id="paint45_linear_2063_1156" x1="254.828" y1="226.778" x2="266.558" y2="249.948" gradientUnits="userSpaceOnUse">
<stop stop-color="#2DF4E3"/>
<stop offset="1" stop-color="#00BBAB"/>
</linearGradient>
</defs>
</svg>
