<svg width="127" height="134" viewBox="0 0 127 134" fill="none" xmlns="http://www.w3.org/2000/svg">
<g clip-path="url(#clip0_3209_1254)">
<path d="M103.673 0H23.3084C23.3084 0 26.2938 20.2004 0 27.0873C0 27.0873 8.437 108.865 63.4907 133.982C118.563 108.865 126.981 27.0873 126.981 27.0873C100.688 20.1819 103.673 0 103.673 0Z" fill="url(#paint0_linear_3209_1254)"/>
<path d="M63.4892 125.75C53.3648 120.502 44.2602 112.658 36.3981 102.383C29.2961 93.0835 23.1585 81.7956 18.189 68.8321C12.3851 53.6956 9.51091 39.7376 8.25 32.1878C20.2658 27.4186 25.8101 19.8135 28.369 13.8657C29.3518 11.5824 29.9637 9.37266 30.3345 7.40234H96.6438C97.0146 9.37266 97.6266 11.5824 98.6093 13.8657C101.168 19.8135 106.713 27.4186 118.728 32.1878C117.467 39.7376 114.593 53.6956 108.789 68.8321C103.82 81.7956 97.6822 93.0835 90.5803 102.383C82.7181 112.658 73.6136 120.521 63.4892 125.75Z" fill="url(#paint1_linear_3209_1254)"/>
<g style="mix-blend-mode:soft-light" opacity="0.4">
<path d="M40.7 104.832C33.5981 95.5325 27.4604 84.2446 22.4909 71.281C16.687 56.1445 13.8129 42.1866 12.5519 34.6368C24.5677 29.8675 30.112 22.2624 32.6709 16.3147C33.6537 14.0313 34.2656 11.8216 34.6365 9.85129H97.2186C96.9776 9.00424 96.7921 8.1756 96.6438 7.38379H30.3345C29.9637 9.35411 29.3518 11.5638 28.369 13.8472C25.8101 19.7949 20.2658 27.4 8.25 32.1693C9.51091 39.7191 12.3851 53.677 18.189 68.8135C23.1585 81.7771 29.2961 93.065 36.3981 102.364C44.149 112.492 53.1052 120.263 63.0627 125.511C54.8111 120.41 47.3198 113.486 40.7 104.832Z" fill="#1B253D"/>
</g>
<path d="M79.9185 60.3245H47.0977V44.028C47.0977 35.0419 54.4592 27.7314 63.5081 27.7314C72.557 27.7314 79.9185 35.0419 79.9185 44.028V60.3245ZM50.6393 56.8074H76.3768V44.028C76.3768 36.9754 70.61 31.2486 63.5081 31.2486C56.4062 31.2486 50.6393 36.9754 50.6393 44.028V56.8074Z" fill="#667CB7"/>
<path d="M80.0854 52.0381H46.8937C44.5017 52.0381 42.5547 53.9716 42.5547 56.347V84.9074C42.5547 87.2828 44.5017 89.2163 46.8937 89.2163H80.0854C82.4774 89.2163 84.4244 87.2828 84.4244 84.9074V56.347C84.4244 53.9716 82.4774 52.0381 80.0854 52.0381ZM66.5862 74.8164V78.2599C66.5862 79.954 65.1955 81.335 63.4896 81.335C61.7836 81.335 60.3929 79.954 60.3929 78.2599V74.8164C59.336 74.1167 58.5201 73.0487 58.1492 71.7413C57.3148 68.8134 59.0393 65.7566 61.9876 64.928C64.9359 64.0994 68.014 65.8119 68.8485 68.7398C69.516 71.0968 68.5332 73.5274 66.6048 74.8164H66.5862Z" fill="#667CB7"/>
</g>
<defs>
<linearGradient id="paint0_linear_3209_1254" x1="63.4907" y1="0" x2="63.4907" y2="133.982" gradientUnits="userSpaceOnUse">
<stop stop-color="#1C263E"/>
<stop offset="1" stop-color="#6D7FAD" stop-opacity="0.46"/>
</linearGradient>
<linearGradient id="paint1_linear_3209_1254" x1="8.25" y1="66.5872" x2="118.728" y2="66.5872" gradientUnits="userSpaceOnUse">
<stop stop-color="#485884"/>
<stop offset="1" stop-color="#243154"/>
</linearGradient>
<clipPath id="clip0_3209_1254">
<rect width="127" height="134" fill="white"/>
</clipPath>
</defs>
</svg>
