<svg width="771" height="557" viewBox="0 0 771 557" fill="none" xmlns="http://www.w3.org/2000/svg">
<path d="M295.511 411.225L169.234 488.306C159.636 494.175 147.52 494.074 137.998 488.054L79.2802 450.874C69.834 444.904 57.8183 444.752 48.2461 450.496L4.11328 476.97" stroke="#8294C3" stroke-width="0.5" stroke-miterlimit="10"/>
<path d="M4.10594 481.077C6.3736 481.077 8.21192 479.239 8.21192 476.971C8.21192 474.704 6.3736 472.865 4.10594 472.865C1.83828 472.865 0 474.704 0 476.971C0 479.239 1.83828 481.077 4.10594 481.077Z" fill="#1B294C"/>
<path d="M603.7 52.1431C603.7 54.4102 601.861 56.249 599.594 56.249C597.327 56.249 595.488 54.4102 595.488 52.1431C595.488 49.876 597.327 48.0371 599.594 48.0371C601.861 48.0371 603.7 49.876 603.7 52.1431Z" fill="#2B4074"/>
<path d="M696.466 168.118C696.466 170.385 694.627 172.224 692.36 172.224C690.093 172.224 688.254 170.385 688.254 168.118C688.254 165.851 690.093 164.012 692.36 164.012C694.627 164.012 696.466 165.851 696.466 168.118Z" fill="#2B4074"/>
<path d="M770.212 501.106C770.212 503.373 768.373 505.212 766.106 505.212C763.839 505.212 762 503.373 762 501.106C762 498.839 763.839 497 766.106 497C768.373 497 770.212 498.839 770.212 501.106Z" fill="#2B4074"/>
<path d="M213.278 34.106C213.278 36.3731 211.439 38.2119 209.172 38.2119C206.905 38.2119 205.066 36.3731 205.066 34.106C205.066 31.8389 206.905 30 209.172 30C211.439 30 213.278 31.8389 213.278 34.106Z" fill="#1B294C"/>
<path d="M32.8721 109.877C32.8721 112.145 31.0332 113.983 28.7661 113.983C26.499 113.983 24.6602 112.145 24.6602 109.877C24.6602 107.61 26.499 105.771 28.7661 105.771C31.0332 105.771 32.8721 107.61 32.8721 109.877Z" fill="#1B294C"/>
<path d="M114.064 384.598C114.064 386.865 112.225 388.704 109.958 388.704C107.69 388.704 105.852 386.865 105.852 384.598C105.852 382.331 107.69 380.492 109.958 380.492C112.225 380.492 114.064 382.331 114.064 384.598Z" fill="#1B294C"/>
<path d="M551.48 387.598L765.394 501.003" stroke="#8294C3" stroke-width="0.5" stroke-miterlimit="10"/>
<path d="M559.555 556.319C561.823 556.319 563.661 554.481 563.661 552.213C563.661 549.946 561.823 548.107 559.555 548.107C557.288 548.107 555.449 549.946 555.449 552.213C555.449 554.481 557.288 556.319 559.555 556.319Z" fill="#2B4074"/>
<path d="M484.48 426.264L588.641 481.53C608.415 492.035 609.7 519.895 590.958 532.162L561.763 551.256" stroke="#8294C3" stroke-width="0.5" stroke-miterlimit="10"/>
<path d="M183.403 345.932L109.949 384.598" stroke="#8294C3" stroke-width="0.5" stroke-miterlimit="10"/>
<path d="M201.447 214.518L30.0547 110.131" stroke="#8294C3" stroke-width="0.5" stroke-miterlimit="10"/>
<path d="M349.621 204.188L205.131 116.174C193.342 108.995 193.947 91.6896 206.214 85.3669L226.24 75.0138C238.785 68.54 239.062 50.7055 226.719 43.8286L209.187 34.0801" stroke="#8294C3" stroke-width="0.5" stroke-miterlimit="10"/>
<path d="M577.719 233.838L692.384 168.117" stroke="#8294C3" stroke-width="0.5" stroke-miterlimit="10"/>
<path d="M477.195 186.152L567.073 134.663C577.678 128.592 577.25 113.126 566.317 107.66L558.106 103.554C547.173 98.0873 546.72 82.6711 557.299 76.5751L599.619 52.166" stroke="#8294C3" stroke-width="0.5" stroke-miterlimit="10"/>
<path d="M658.551 264.896L658.375 324.823L405.039 472.059L405.19 412.132L658.551 264.896Z" fill="#000C2B"/>
<path d="M405.192 412.132L405.041 472.059L113.996 304.017L114.172 244.09L405.192 412.132Z" fill="#000C2B"/>
<path d="M658.552 264.896L405.192 412.131L114.172 244.089L367.507 96.8789L658.552 264.896Z" fill="#202430"/>
<path d="M507.846 170.184L507.695 230.111L499.105 235.098L499.282 175.171L507.846 170.184Z" fill="#000C2E"/>
<path d="M499.292 175.17L499.116 235.097L477.578 222.654L477.729 162.727L499.292 175.17Z" fill="#1B294C"/>
<path d="M507.862 170.182L499.297 175.17L477.734 162.726L486.299 157.738L507.862 170.182Z" fill="#737A8E"/>
<path d="M331.578 146.328L331.401 206.255L294.246 227.843L294.422 167.916L331.578 146.328Z" fill="#000C2E"/>
<path d="M294.42 167.915L294.244 227.842L285.629 222.88L285.805 162.928L294.42 167.915Z" fill="#1B294C"/>
<path d="M331.575 146.327L294.42 167.915L285.805 162.928L322.96 141.34L331.575 146.327Z" fill="#737A8E"/>
<path d="M472.989 150.053L472.838 209.98L464.273 214.967L464.425 155.04L472.989 150.053Z" fill="#000C2E"/>
<path d="M464.421 155.041L464.27 214.967L436.586 198.997L436.762 139.045L464.421 155.041Z" fill="#1B294C"/>
<path d="M472.985 150.052L464.42 155.04L436.762 139.044L445.326 134.082L472.985 150.052Z" fill="#737A8E"/>
<path d="M406.438 121.541L406.262 181.493H371.5L371.676 121.541H406.438Z" fill="#000C2E"/>
<path d="M371.682 121.54L371.506 181.492L371.48 174.439L371.632 114.512L371.682 121.54Z" fill="#4B645E"/>
<path d="M427.408 133.657L427.257 193.584L406.273 181.493L406.45 121.541L427.408 133.657Z" fill="#1B294C"/>
<path d="M435.97 128.668L435.818 188.62L427.254 193.583L427.405 133.656L435.97 128.668Z" fill="#000C2E"/>
<path d="M435.972 128.668L427.407 133.656L406.449 121.54H371.687L371.637 114.512H411.437L435.972 128.668Z" fill="#737A8E"/>
<path d="M359.794 129.93L359.618 189.857L350.348 195.247L350.524 135.32L359.794 129.93Z" fill="#000C2E"/>
<path d="M350.527 135.32L350.351 195.247L341.711 190.284L341.887 130.332L350.527 135.32Z" fill="#1B294C"/>
<path d="M359.797 129.929L350.527 135.32L341.887 130.332L351.157 124.967L359.797 129.929Z" fill="#737A8E"/>
<path d="M546.514 202.426L546.338 262.353L512.785 242.982L512.962 183.055L546.514 202.426Z" fill="#1B294C"/>
<path d="M280.87 175.799L280.693 235.726L234.848 262.377L235.024 202.425L280.87 175.799Z" fill="#000C2E"/>
<path d="M517.971 229.001L517.795 288.928L509.18 283.941L509.356 224.014L517.971 229.001Z" fill="#1B294C"/>
<path d="M563.697 202.426L563.521 262.353L517.801 288.928L517.977 229.001L563.697 202.426Z" fill="#000C2E"/>
<path d="M563.69 202.425L517.97 229.001L509.355 224.013L546.511 202.425L512.958 183.054L521.522 178.066L563.69 202.425Z" fill="#737A8E"/>
<path d="M280.871 175.8L235.025 202.426L271.802 223.686L263.238 228.649L217.82 202.426L272.231 170.812L280.871 175.8Z" fill="#737A8E"/>
<path d="M271.803 223.688L271.652 283.614L263.062 288.602L263.239 228.65L271.803 223.688Z" fill="#000C2E"/>
<path d="M263.233 228.649L263.056 288.601L217.664 262.378L217.815 202.426L263.233 228.649Z" fill="#1B294C"/>
<path d="M505.535 203.988L505.358 263.915L390.492 330.669L390.643 270.742L505.535 203.988Z" fill="#000C2E"/>
<path d="M505.549 203.988L390.657 270.741L275.035 203.988L373.049 147.008L407.182 147.184L505.549 203.988Z" fill="#737A8E"/>
<path d="M390.646 270.742L390.495 330.669L274.848 263.915L275.024 203.988L390.646 270.742Z" fill="#1B294C"/>
<path d="M391.153 302.898L390.976 362.825L318.605 321.034L318.782 261.107L391.153 302.898Z" fill="#1B294C"/>
<path d="M444.417 271.748L444.241 331.675L391.141 362.533L391.317 302.606L444.417 271.748Z" fill="#000C2E"/>
<path d="M444.428 271.75L391.328 302.608L318.957 260.818L327.522 255.83L391.277 292.658L435.788 266.763L444.428 271.75Z" fill="#737A8E"/>
<path d="M503.702 237.287L503.525 297.239L487.832 306.358L488.008 246.431L503.702 237.287Z" fill="#000C2E"/>
<path d="M488.006 246.431L487.83 306.358L479.215 301.37L479.366 241.443L488.006 246.431Z" fill="#1B294C"/>
<path d="M503.705 237.287L488.011 246.431L479.371 241.443L495.09 232.324L503.705 237.287Z" fill="#737A8E"/>
<path d="M309.913 245.676L309.736 305.603L301.172 310.59L301.323 250.638L309.913 245.676Z" fill="#000C2E"/>
<path d="M301.316 250.638L301.165 310.59L278.52 297.517L278.696 237.59L301.316 250.638Z" fill="#1B294C"/>
<path d="M309.906 245.675L301.316 250.638L278.695 237.589L287.26 232.602L309.906 245.675Z" fill="#737A8E"/>
<path d="M476.812 252.932L476.661 312.859L457.113 324.219L457.29 264.267L476.812 252.932Z" fill="#000C2E"/>
<path d="M457.287 264.265L457.111 324.217L448.496 319.23L448.672 259.303L457.287 264.265Z" fill="#1B294C"/>
<path d="M476.809 252.931L457.287 264.266L448.672 259.304L468.194 247.943L476.809 252.931Z" fill="#737A8E"/>
<path d="M322.021 199.622C322.021 199.622 322 199.507 322 199.454C322 186.788 329.795 175.33 343.936 167.163C356.385 159.963 372.752 156 390.034 156C407.316 156 423.82 159.973 436.343 167.216C450.546 175.425 458.373 186.914 458.373 199.612C458.373 199.664 458.362 199.696 458.362 199.769C458.362 199.811 458.373 199.874 458.373 199.927C458.373 199.98 458.362 200.043 458.362 200.095C458.362 200.137 458.373 200.2 458.373 200.253C458.373 200.316 458.362 200.358 458.362 200.411C458.362 200.474 458.373 200.526 458.373 200.579C458.373 200.642 458.362 200.684 458.362 200.726C458.362 200.789 458.373 200.852 458.373 200.884C458.373 200.947 458.362 200.999 458.362 201.062C458.362 201.104 458.373 201.167 458.373 201.209C458.373 201.272 458.362 201.325 458.362 201.378C458.362 201.42 458.373 201.493 458.373 201.535C458.373 201.598 458.362 201.651 458.362 201.714C458.362 201.756 458.373 201.83 458.373 201.872C458.373 201.924 458.362 201.977 458.362 202.04C458.362 202.103 458.373 202.134 458.373 202.208C458.373 202.25 458.362 202.324 458.362 202.366C458.362 202.429 458.373 202.481 458.373 202.534C458.373 202.586 458.362 202.649 458.362 202.681C458.362 202.755 458.373 202.797 458.373 202.86C458.373 202.923 458.362 202.975 458.362 203.007C458.362 203.08 458.373 203.122 458.373 203.175C458.373 203.228 458.362 203.291 458.362 203.333C458.362 203.396 458.373 203.448 458.373 203.501C458.373 203.543 458.362 203.606 458.362 203.669C458.362 203.732 458.373 203.785 458.373 203.837C458.373 203.879 458.362 203.932 458.362 203.984C458.362 204.037 458.373 204.079 458.373 204.163C458.373 204.205 458.362 204.258 458.362 204.31C458.362 204.363 458.373 204.405 458.373 204.478C458.373 204.52 458.362 204.573 458.362 204.626C458.362 204.689 458.373 204.741 458.373 204.794C458.373 204.857 458.362 204.909 458.362 204.962C458.362 205.025 458.373 205.067 458.373 205.109C458.373 205.172 458.362 205.225 458.362 205.277C458.362 205.34 458.373 205.393 458.373 205.445C458.373 205.509 458.362 205.561 458.362 205.614C458.362 205.656 458.373 205.729 458.373 205.782C458.373 205.824 458.362 205.876 458.362 205.929C458.362 205.992 458.373 206.045 458.373 206.108C458.373 206.139 458.362 206.202 458.362 206.255C458.362 206.318 458.373 206.349 458.373 206.434C458.373 206.476 458.362 206.528 458.362 206.591C458.362 206.644 458.373 206.686 458.373 206.759C458.373 206.801 458.362 206.854 458.362 206.917C458.362 206.97 458.373 207.012 458.373 207.075C458.373 207.117 458.362 207.19 458.362 207.243C458.362 207.306 458.373 207.359 458.373 207.411C458.373 207.464 458.362 207.527 458.362 207.579C458.362 207.621 458.373 207.695 458.373 207.747C458.373 207.811 458.362 207.863 458.362 207.916C458.362 207.958 458.373 208.031 458.373 208.063C458.373 208.126 458.362 208.178 458.362 208.231C458.362 208.273 458.373 208.326 458.373 208.389C458.373 208.452 458.362 208.494 458.362 208.567C458.362 208.609 458.373 208.662 458.373 208.725C458.373 208.778 458.362 208.82 458.362 208.872C458.362 208.925 458.373 208.988 458.373 209.03C458.373 209.103 458.362 209.135 458.362 209.198C458.362 209.251 458.373 209.314 458.373 209.356C458.373 209.419 458.362 209.471 458.362 209.524C458.362 209.587 458.373 209.639 458.373 209.682C458.373 222.348 450.578 233.826 436.437 241.993C423.988 249.194 407.621 253.146 390.328 253.146C372.994 253.146 356.553 249.152 344.051 241.93C329.837 233.721 322.011 222.222 322.011 209.534C322.011 209.482 322.032 209.419 322.032 209.366C322.032 209.324 322.011 209.272 322.011 209.198C322.011 209.156 322.032 209.093 322.032 209.03C322.032 208.988 322.011 208.925 322.011 208.872C322.011 208.809 322.032 208.778 322.032 208.704C322.032 208.662 322.011 208.599 322.011 208.546C322.011 208.483 322.032 208.452 322.032 208.368C322.032 208.336 322.011 208.273 322.011 208.21C322.011 208.157 322.032 208.115 322.032 208.063C322.032 208 322.011 207.947 322.011 207.895C322.011 207.832 322.032 207.789 322.032 207.737C322.032 207.674 322.011 207.621 322.011 207.569C322.011 207.516 322.032 207.464 322.032 207.401C322.032 207.348 322.011 207.295 322.011 207.253C322.011 207.19 322.032 207.138 322.032 207.085C322.032 207.033 322.011 206.97 322.011 206.917C322.011 206.875 322.032 206.822 322.032 206.759C322.032 206.707 322.011 206.644 322.011 206.591C322.011 206.549 322.032 206.497 322.032 206.434C322.032 206.381 322.011 206.339 322.011 206.286C322.011 206.223 322.032 206.171 322.032 206.118C322.032 206.055 322.011 206.013 322.011 205.961C322.011 205.897 322.032 205.845 322.032 205.803C322.032 205.74 322.011 205.687 322.011 205.624C322.011 205.561 322.032 205.519 322.032 205.477C322.032 205.403 322.011 205.361 322.011 205.298C322.011 205.256 322.032 205.183 322.032 205.141C322.032 205.088 322.011 205.035 322.011 204.972C322.011 204.93 322.032 204.857 322.032 204.825C322.032 204.762 322.011 204.71 322.011 204.647C322.011 204.605 322.032 204.552 322.032 204.499C322.032 204.436 322.011 204.405 322.011 204.331C322.011 204.289 322.032 204.237 322.032 204.184C322.032 204.121 322.011 204.068 322.011 204.016C322.011 203.953 322.032 203.9 322.032 203.858C322.032 203.795 322.011 203.743 322.011 203.69C322.011 203.627 322.032 203.574 322.032 203.532C322.032 203.459 322.011 203.417 322.011 203.364C322.011 203.301 322.032 203.249 322.032 203.217C322.032 203.154 322.011 203.101 322.011 203.049C322.011 202.986 322.032 202.933 322.032 202.891C322.032 202.828 322.011 202.776 322.011 202.712C322.011 202.67 322.032 202.618 322.032 202.555C322.032 202.502 322.011 202.45 322.011 202.387C322.011 202.345 322.032 202.292 322.032 202.229C322.032 202.176 322.011 202.134 322.011 202.061C322.011 202.019 322.032 201.966 322.032 201.903C322.032 201.851 322.011 201.787 322.011 201.735C322.011 201.672 322.032 201.64 322.032 201.577C322.032 201.514 322.011 201.462 322.011 201.42C322.011 201.367 322.032 201.304 322.032 201.251C322.032 201.188 322.011 201.136 322.011 201.094C322.011 201.031 322.032 200.978 322.032 200.926C322.032 200.884 322.011 200.81 322.011 200.778C322.011 200.715 322.032 200.663 322.032 200.6C322.032 200.558 322.011 200.484 322.011 200.442C322.011 200.379 322.032 200.326 322.032 200.274C322.032 200.232 322.011 200.179 322.011 200.116C322.011 200.064 322.032 200.001 322.032 199.948C322.032 199.906 322.011 199.853 322.011 199.79C322.011 199.738 322.032 199.696 322.032 199.643L322.021 199.622Z" fill="#242D44"/>
<path d="M343.949 167.163C356.398 159.963 372.765 156 390.047 156C407.329 156 423.833 159.973 436.356 167.216C450.559 175.425 458.386 186.914 458.386 199.612C458.386 212.309 450.591 223.735 436.45 231.924C424.001 239.103 407.633 243.055 390.341 243.076C373.007 243.076 356.566 239.082 344.064 231.86C329.85 223.651 322.023 212.152 322.023 199.454C322.023 186.756 329.819 175.33 343.959 167.163H343.949Z" fill="url(#paint0_linear_3212_1412)"/>
<g style="mix-blend-mode:overlay" opacity="0.85">
<path d="M326.066 199.454C326.066 210.764 333.431 221.013 346.794 228.318C358.56 234.751 374.014 238.304 390.329 238.304C406.592 238.304 422.003 234.762 433.707 228.381C447.017 221.086 454.34 210.88 454.34 199.601C454.34 188.323 446.986 178.053 433.623 170.758C421.846 164.304 406.371 160.762 390.066 160.762C373.762 160.762 358.413 164.283 346.71 170.705C333.41 177.979 326.077 188.186 326.077 199.454H326.066ZM333.82 199.454C333.82 189.552 340.27 180.576 351.963 174.185C362.248 168.54 375.789 165.439 390.077 165.439C404.365 165.439 418.011 168.551 428.37 174.216C440.115 180.628 446.586 189.636 446.586 199.57C446.586 209.503 440.147 218.459 428.443 224.871C418.158 230.484 404.617 233.584 390.319 233.595C375.978 233.595 362.395 230.473 352.047 224.818C340.301 218.385 333.83 209.387 333.83 199.433L333.82 199.454Z" fill="#001140"/>
</g>
<g style="mix-blend-mode:overlay">
<path d="M344.054 231.861C356.555 239.083 372.997 243.077 390.331 243.077C407.623 243.056 424.001 239.104 436.44 231.924C450.402 223.841 458.144 212.562 458.344 200.096C458.344 200.306 458.386 200.506 458.386 200.716C458.386 213.382 450.591 224.84 436.45 233.028C424.001 240.207 407.633 244.16 390.341 244.181C373.007 244.181 356.566 240.186 344.064 232.965C329.85 224.756 322.023 213.256 322.023 200.558C322.023 200.348 322.055 200.138 322.055 199.928C322.255 212.436 330.029 223.768 344.054 231.861Z" fill="#030E2C"/>
</g>
<path d="M405.351 211.627C405.718 209.987 405.151 208.274 403.628 206.592C406.118 207.075 408.502 207.138 410.898 206.823C413.24 206.487 415.404 205.772 417.285 204.679C420.353 202.892 421.54 200.769 420.794 198.277C420.185 196.165 418.146 193.989 414.732 191.75L420.384 188.491L413.64 184.602L408.093 187.798L403.932 185.401L409.49 182.195L402.693 178.274L397.135 181.48L393.668 179.483L389.414 177.023L382.69 180.902L386.945 183.362L361.826 197.867L357.571 195.408L350.848 199.287L358.559 203.754L355.481 205.52L362.267 209.44L365.345 207.654L368.739 209.619L369.506 210.061L366.427 211.837L373.172 215.726L376.292 213.929C380.915 216.494 385.295 217.965 389.393 218.417C393.858 218.88 397.818 218.144 401.169 216.21C403.554 214.833 404.93 213.298 405.33 211.616L405.351 211.627ZM404.794 193.642C406.086 194.388 407.053 195.113 407.662 195.828C408.166 196.291 408.544 196.764 408.681 197.226C409.101 198.319 408.502 199.286 406.99 200.18C405.477 201.042 403.817 201.368 401.884 201.147C401.106 201.063 400.224 200.874 399.436 200.579C398.238 200.211 396.988 199.654 395.696 198.898L392.282 196.921L388.121 194.514L386.787 193.736L395.864 188.502L400.592 191.245L400.613 191.224L401.38 191.666L404.794 193.642ZM387.712 211.459C386.283 211.269 384.665 210.817 383.058 210.04C382.459 209.745 381.86 209.44 381.209 209.073L376.229 206.203L375.462 205.761H375.483L370.756 203.008L380.284 197.5L381.619 198.288L385.779 200.685L390.769 203.565C391.41 203.943 391.924 204.29 392.429 204.637C395.664 206.928 395.854 208.841 393.101 210.439C391.452 211.396 389.655 211.732 387.722 211.469L387.712 211.459Z" fill="#002238"/>
<mask id="mask0_3212_1412" style="mask-type:luminance" maskUnits="userSpaceOnUse" x="322" y="200" width="137" height="53">
<path d="M322.016 200.662C322.058 213.307 329.874 224.775 344.046 232.964C356.547 240.185 372.989 244.179 390.323 244.179C407.615 244.158 423.993 240.206 436.432 233.027C450.541 224.859 458.326 213.433 458.368 200.799C458.368 200.83 458.368 200.872 458.368 200.893C458.368 200.956 458.357 201.009 458.357 201.072C458.357 201.114 458.368 201.177 458.368 201.219C458.368 201.282 458.357 201.335 458.357 201.387C458.357 201.429 458.368 201.503 458.368 201.545C458.368 201.608 458.357 201.661 458.357 201.724C458.357 201.766 458.368 201.839 458.368 201.881C458.368 201.934 458.357 201.987 458.357 202.05C458.357 202.113 458.368 202.144 458.368 202.218C458.368 202.26 458.357 202.333 458.357 202.375C458.357 202.439 458.368 202.491 458.368 202.544C458.368 202.596 458.357 202.659 458.357 202.691C458.357 202.764 458.368 202.806 458.368 202.869C458.368 202.933 458.357 202.985 458.357 203.017C458.357 203.09 458.368 203.132 458.368 203.185C458.368 203.237 458.357 203.3 458.357 203.343C458.357 203.406 458.368 203.458 458.368 203.511C458.368 203.553 458.357 203.616 458.357 203.679C458.357 203.742 458.368 203.794 458.368 203.847C458.368 203.889 458.357 203.942 458.357 203.994C458.357 204.047 458.368 204.089 458.368 204.173C458.368 204.215 458.357 204.268 458.357 204.32C458.357 204.373 458.368 204.415 458.368 204.488C458.368 204.53 458.357 204.583 458.357 204.635C458.357 204.698 458.368 204.751 458.368 204.804C458.368 204.867 458.357 204.919 458.357 204.972C458.357 205.035 458.368 205.077 458.368 205.119C458.368 205.182 458.357 205.235 458.357 205.287C458.357 205.35 458.368 205.403 458.368 205.455C458.368 205.518 458.357 205.571 458.357 205.623C458.357 205.666 458.368 205.739 458.368 205.792C458.368 205.834 458.357 205.886 458.357 205.939C458.357 206.002 458.368 206.054 458.368 206.118C458.368 206.149 458.357 206.212 458.357 206.265C458.357 206.328 458.368 206.359 458.368 206.443C458.368 206.485 458.357 206.538 458.357 206.601C458.357 206.654 458.368 206.696 458.368 206.769C458.368 206.811 458.357 206.864 458.357 206.927C458.357 206.979 458.368 207.021 458.368 207.085C458.368 207.127 458.357 207.2 458.357 207.253C458.357 207.316 458.368 207.368 458.368 207.421C458.368 207.473 458.357 207.537 458.357 207.589C458.357 207.631 458.368 207.705 458.368 207.757C458.368 207.82 458.357 207.873 458.357 207.925C458.357 207.968 458.368 208.041 458.368 208.073C458.368 208.136 458.357 208.188 458.357 208.241C458.357 208.283 458.368 208.335 458.368 208.398C458.368 208.462 458.357 208.504 458.357 208.577C458.357 208.619 458.368 208.672 458.368 208.735C458.368 208.787 458.357 208.829 458.357 208.882C458.357 208.935 458.368 208.998 458.368 209.04C458.368 209.113 458.357 209.145 458.357 209.208C458.357 209.26 458.368 209.323 458.368 209.366C458.368 209.429 458.368 209.471 458.357 209.513C458.357 209.366 458.336 209.218 458.336 209.071C458.136 221.538 450.404 232.827 436.432 240.9C423.983 248.079 407.615 252.042 390.323 252.052C372.989 252.052 356.547 248.068 344.046 240.847C330.021 232.743 322.236 221.412 322.047 208.914C322.047 209.061 322.037 209.197 322.026 209.344C322.026 209.302 322.026 209.271 322.026 209.218C322.026 209.176 322.047 209.113 322.047 209.05C322.047 209.008 322.026 208.945 322.026 208.893C322.026 208.829 322.047 208.798 322.047 208.724C322.047 208.682 322.026 208.619 322.026 208.567C322.026 208.504 322.047 208.472 322.047 208.388C322.047 208.356 322.026 208.293 322.026 208.23C322.026 208.178 322.047 208.136 322.047 208.083C322.047 208.02 322.026 207.968 322.026 207.915C322.026 207.852 322.047 207.81 322.047 207.757C322.047 207.694 322.026 207.642 322.026 207.589C322.026 207.537 322.047 207.484 322.047 207.421C322.047 207.368 322.026 207.316 322.026 207.274C322.026 207.211 322.047 207.158 322.047 207.106C322.047 207.053 322.026 206.99 322.026 206.937C322.026 206.895 322.047 206.843 322.047 206.78C322.047 206.727 322.026 206.664 322.026 206.612C322.026 206.569 322.047 206.517 322.047 206.454C322.047 206.401 322.026 206.359 322.026 206.307C322.026 206.244 322.047 206.191 322.047 206.139C322.047 206.075 322.026 206.033 322.026 205.981C322.026 205.918 322.047 205.865 322.047 205.823C322.047 205.76 322.026 205.708 322.026 205.644C322.026 205.581 322.047 205.539 322.047 205.497C322.047 205.424 322.026 205.382 322.026 205.319C322.026 205.277 322.047 205.203 322.047 205.161C322.047 205.108 322.026 205.056 322.026 204.993C322.026 204.951 322.047 204.877 322.047 204.846C322.047 204.783 322.026 204.73 322.026 204.667C322.026 204.625 322.047 204.572 322.047 204.52C322.047 204.457 322.026 204.425 322.026 204.352C322.026 204.31 322.047 204.257 322.047 204.204C322.047 204.141 322.026 204.089 322.026 204.036C322.026 203.973 322.047 203.921 322.047 203.879C322.047 203.816 322.026 203.763 322.026 203.71C322.026 203.647 322.047 203.595 322.047 203.553C322.047 203.479 322.026 203.437 322.026 203.385C322.026 203.321 322.047 203.269 322.047 203.237C322.047 203.174 322.026 203.122 322.026 203.069C322.026 203.006 322.047 202.954 322.047 202.912C322.047 202.848 322.026 202.796 322.026 202.733C322.026 202.691 322.047 202.638 322.047 202.575C322.047 202.523 322.026 202.47 322.026 202.407C322.026 202.365 322.047 202.312 322.047 202.249C322.047 202.197 322.026 202.155 322.026 202.081C322.026 202.039 322.047 201.987 322.047 201.923C322.047 201.871 322.026 201.808 322.026 201.755C322.026 201.692 322.047 201.661 322.047 201.598C322.047 201.535 322.026 201.482 322.026 201.44C322.026 201.387 322.047 201.324 322.047 201.272C322.047 201.209 322.026 201.156 322.026 201.114C322.026 201.051 322.047 200.998 322.047 200.946C322.047 200.904 322.026 200.83 322.026 200.799C322.026 200.767 322.026 200.736 322.026 200.704L322.016 200.662Z" fill="white"/>
</mask>
<g mask="url(#mask0_3212_1412)">
<g style="mix-blend-mode:multiply" opacity="0.21">
<path d="M322.413 198.654H321.625V210.606H322.413V198.654Z" fill="#001F77"/>
<path d="M322.593 201.85H321.805V213.833H322.593V201.85Z" fill="#001F77"/>
<path d="M323.097 204.992H322.309V217.007H323.097V204.992Z" fill="#001F77"/>
<path d="M323.925 208.061H323.137V220.096H323.925V208.061Z" fill="#001F77"/>
<path d="M325.081 211.057H324.293V223.124H325.081V211.057Z" fill="#001F77"/>
<path d="M326.554 213.959H325.766V226.047H326.554V213.959Z" fill="#001F77"/>
<path d="M328.347 216.775H327.559V228.895H328.347V216.775Z" fill="#001F77"/>
<path d="M330.452 219.498H329.664V231.639H330.452V219.498Z" fill="#001F77"/>
<path d="M332.843 222.105H332.055V234.278H332.843V222.105Z" fill="#001F77"/>
<path d="M335.546 224.607H334.758V236.801H335.546V224.607Z" fill="#001F77"/>
<path d="M338.538 226.992H337.75V239.217H338.538V226.992Z" fill="#001F77"/>
<path d="M341.815 229.242H341.027V241.488H341.815V229.242Z" fill="#001F77"/>
<path d="M345.147 231.229H344.359V243.506H345.147V231.229Z" fill="#001F77"/>
<path d="M347.952 232.711H347.164V245.009H347.952V232.711Z" fill="#001F77"/>
<path d="M350.882 234.078H350.094V246.408H350.882V234.078Z" fill="#001F77"/>
<path d="M353.917 235.35H353.129V247.7H353.917V235.35Z" fill="#001F77"/>
<path d="M357.057 236.516H356.27V248.898H357.057V236.516Z" fill="#001F77"/>
<path d="M360.296 237.566H359.508V249.98H360.296V237.566Z" fill="#001F77"/>
<path d="M363.612 238.514H362.824V250.949H363.612V238.514Z" fill="#001F77"/>
<path d="M367.022 239.332H366.234V251.798H367.022V239.332Z" fill="#001F77"/>
<path d="M370.495 240.049H369.707V252.536H370.495V240.049Z" fill="#001F77"/>
<path d="M374.038 240.646H373.25V253.166H374.038V240.646Z" fill="#001F77"/>
<path d="M377.643 241.131H376.855V253.671H377.643V241.131Z" fill="#001F77"/>
<path d="M381.296 241.498H380.508V254.059H381.296V241.498Z" fill="#001F77"/>
<path d="M385.007 241.73H384.219V254.323H385.007V241.73Z" fill="#001F77"/>
<path d="M388.737 241.846H387.949V254.47H388.737V241.846Z" fill="#002238"/>
<path d="M392.507 241.834H391.719V254.479H392.507V241.834Z" fill="#001F77"/>
<path d="M396.257 241.697H395.469V254.374H396.257V241.697Z" fill="#001F77"/>
<path d="M399.964 241.436H399.176V254.133H399.964V241.436Z" fill="#001F77"/>
<path d="M403.624 241.047H402.836V253.776H403.624V241.047Z" fill="#001F77"/>
<path d="M407.225 240.553H406.438V253.303H407.225V240.553Z" fill="#001F77"/>
<path d="M410.776 239.932H409.988V252.713H410.776V239.932Z" fill="#001F77"/>
<path d="M414.253 239.195H413.465V251.998H414.253V239.195Z" fill="#001F77"/>
<path d="M417.659 238.346H416.871V251.18H417.659V238.346Z" fill="#737A8E"/>
<path d="M420.979 237.377H420.191V250.232H420.979V237.377Z" fill="#001F77"/>
<path d="M424.214 236.305H423.426V249.192H424.214V236.305Z" fill="#001F77"/>
<path d="M427.354 235.117H426.566V248.036H427.354V235.117Z" fill="#001F77"/>
<path d="M430.389 233.824H429.602V246.764H430.389V233.824Z" fill="#001F77"/>
<path d="M433.323 232.428H432.535V245.399H433.323V232.428Z" fill="#001F77"/>
<path d="M436.136 230.924H435.348V243.926H436.136V230.924Z" fill="#001F77"/>
<path d="M439.444 228.916H438.656V241.94H439.444V228.916Z" fill="#001F77"/>
<path d="M442.714 226.635H441.926V239.69H442.714V226.635Z" fill="#001F77"/>
<path d="M445.698 224.229H444.91V237.305H445.698V224.229Z" fill="#001F77"/>
<path d="M448.386 221.695H447.598V234.803H448.386V221.695Z" fill="#001F77"/>
<path d="M450.78 219.045H449.992V232.174H450.78V219.045Z" fill="#001F77"/>
<path d="M452.874 216.291H452.086V229.451H452.874V216.291Z" fill="#001F77"/>
<path d="M454.647 213.443H453.859V226.625H454.647V213.443Z" fill="#001F77"/>
<path d="M456.116 210.49H455.328V223.703H456.116V210.49Z" fill="#001F77"/>
<path d="M457.28 207.463H456.492V220.707H457.28V207.463Z" fill="#001F77"/>
<path d="M458.112 204.361H457.324V217.627H458.112V204.361Z" fill="#001F77"/>
<path d="M458.608 201.197H457.82V214.484H458.608V201.197Z" fill="#3958B2"/>
<path d="M458.776 197.971H457.988V211.289H458.776V197.971Z" fill="#001F77"/>
</g>
</g>
<defs>
<linearGradient id="paint0_linear_3212_1412" x1="331.573" y1="172.177" x2="448.849" y2="226.839" gradientUnits="userSpaceOnUse">
<stop offset="0.02" stop-color="#7495AB"/>
<stop offset="0.13" stop-color="#82B1D0"/>
<stop offset="0.295833" stop-color="#82B2D1"/>
<stop offset="0.592708" stop-color="#82B2D1"/>
<stop offset="1" stop-color="#39617A"/>
</linearGradient>
</defs>
</svg>
