<svg width="771" height="557" viewBox="0 0 771 557" fill="none" xmlns="http://www.w3.org/2000/svg">
<path d="M295.515 411.225L169.237 488.306C159.64 494.175 147.524 494.074 138.002 488.054L79.2841 450.874C69.8379 444.904 57.8222 444.752 48.25 450.496L4.11719 476.97" stroke="#00BCAC" stroke-width="0.5" stroke-miterlimit="10"/>
<path d="M4.10594 481.078C6.3736 481.078 8.21192 479.24 8.21192 476.972C8.21192 474.705 6.3736 472.866 4.10594 472.866C1.83828 472.866 0 474.705 0 476.972C0 479.24 1.83828 481.078 4.10594 481.078Z" fill="#008E83"/>
<path d="M603.696 52.1431C603.696 54.4102 601.857 56.249 599.59 56.249C597.323 56.249 595.484 54.4102 595.484 52.1431C595.484 49.876 597.323 48.0371 599.59 48.0371C601.857 48.0371 603.696 49.876 603.696 52.1431Z" fill="#008E83"/>
<path d="M696.462 168.117C696.462 170.384 694.623 172.223 692.356 172.223C690.089 172.223 688.25 170.384 688.25 168.117C688.25 165.85 690.089 164.011 692.356 164.011C694.623 164.011 696.462 165.85 696.462 168.117Z" fill="#008E83"/>
<path d="M770.212 501.106C770.212 503.373 768.373 505.212 766.106 505.212C763.839 505.212 762 503.373 762 501.106C762 498.839 763.839 497 766.106 497C768.373 497 770.212 498.839 770.212 501.106Z" fill="#008E83"/>
<path d="M213.274 34.106C213.274 36.3731 211.436 38.2119 209.168 38.2119C206.901 38.2119 205.062 36.3731 205.062 34.106C205.062 31.8389 206.901 30 209.168 30C211.436 30 213.274 31.8389 213.274 34.106Z" fill="#008E83"/>
<path d="M32.8682 109.878C32.8682 112.146 31.0293 113.984 28.7622 113.984C26.4951 113.984 24.6562 112.146 24.6562 109.878C24.6562 107.611 26.4951 105.772 28.7622 105.772C31.0293 105.772 32.8682 107.611 32.8682 109.878Z" fill="#008E83"/>
<path d="M114.064 384.598C114.064 386.865 112.225 388.704 109.958 388.704C107.69 388.704 105.852 386.865 105.852 384.598C105.852 382.331 107.69 380.492 109.958 380.492C112.225 380.492 114.064 382.331 114.064 384.598Z" fill="#008E83"/>
<path d="M551.484 387.598L765.398 501.003" stroke="#00BCAC" stroke-width="0.5" stroke-miterlimit="10"/>
<path d="M559.559 556.32C561.827 556.32 563.665 554.482 563.665 552.214C563.665 549.947 561.827 548.108 559.559 548.108C557.291 548.108 555.453 549.947 555.453 552.214C555.453 554.482 557.291 556.32 559.559 556.32Z" fill="#008E83"/>
<path d="M484.484 426.265L588.645 481.531C608.419 492.036 609.704 519.896 590.962 532.163L561.767 551.257" stroke="#00BCAC" stroke-width="0.5" stroke-miterlimit="10"/>
<path d="M183.399 345.933L109.945 384.599" stroke="#00BCAC" stroke-width="0.5" stroke-miterlimit="10"/>
<path d="M201.447 214.518L30.0547 110.131" stroke="#00BCAC" stroke-width="0.5" stroke-miterlimit="10"/>
<path d="M349.621 204.189L205.131 116.175C193.342 108.996 193.947 91.6905 206.214 85.3678L226.24 75.0148C238.785 68.5409 239.062 50.7065 226.719 43.8296L209.187 34.0811" stroke="#00BCAC" stroke-width="0.5" stroke-miterlimit="10"/>
<path d="M577.719 233.837L692.384 168.116" stroke="#00BCAC" stroke-width="0.5" stroke-miterlimit="10"/>
<path d="M477.195 186.152L567.073 134.663C577.678 128.592 577.25 113.126 566.317 107.66L558.106 103.554C547.173 98.0873 546.72 82.6711 557.299 76.5751L599.619 52.166" stroke="#00BCAC" stroke-width="0.5" stroke-miterlimit="10"/>
<path d="M658.551 264.896L658.375 324.823L405.039 472.059L405.19 412.132L658.551 264.896Z" fill="#00A998"/>
<path d="M405.196 412.132L405.045 472.059L114 304.017L114.176 244.09L405.196 412.132Z" fill="#00A998"/>
<path d="M658.56 264.896L405.199 412.131L114.18 244.089L367.515 96.8789L658.56 264.896Z" fill="#006359"/>
<path d="M507.85 170.183L507.699 230.11L499.109 235.097L499.286 175.17L507.85 170.183Z" fill="#00675E"/>
<path d="M499.292 175.17L499.116 235.097L477.578 222.654L477.729 162.727L499.292 175.17Z" fill="#008E83"/>
<path d="M507.862 170.182L499.297 175.17L477.734 162.726L486.299 157.738L507.862 170.182Z" fill="#AAE6E1"/>
<path d="M331.574 146.327L331.397 206.254L294.242 227.842L294.419 167.915L331.574 146.327Z" fill="#00675E"/>
<path d="M294.416 167.914L294.24 227.841L285.625 222.879L285.801 162.927L294.416 167.914Z" fill="#008E83"/>
<path d="M331.575 146.327L294.42 167.914L285.805 162.927L322.96 141.339L331.575 146.327Z" fill="#AAE6E1"/>
<path d="M472.989 150.054L472.838 209.981L464.273 214.968L464.425 155.041L472.989 150.054Z" fill="#00675E"/>
<path d="M464.421 155.041L464.27 214.967L436.586 198.997L436.762 139.045L464.421 155.041Z" fill="#008E83"/>
<path d="M472.989 150.053L464.424 155.041L436.766 139.045L445.33 134.083L472.989 150.053Z" fill="#AAE6E1"/>
<path d="M406.438 121.54L406.262 181.492H371.5L371.676 121.54H406.438Z" fill="#00675E"/>
<path d="M371.686 121.54L371.51 181.492L371.484 174.439L371.636 114.512L371.686 121.54Z" fill="#00EDD9"/>
<path d="M427.408 133.656L427.257 193.583L406.273 181.492L406.45 121.54L427.408 133.656Z" fill="#008E83"/>
<path d="M435.974 128.669L435.822 188.621L427.258 193.584L427.409 133.657L435.974 128.669Z" fill="#00675E"/>
<path d="M435.976 128.668L427.411 133.656L406.453 121.54H371.691L371.641 114.512H411.441L435.976 128.668Z" fill="#AAE6E1"/>
<path d="M359.798 129.93L359.622 189.857L350.352 195.247L350.528 135.32L359.798 129.93Z" fill="#00675E"/>
<path d="M350.527 135.321L350.351 195.248L341.711 190.285L341.887 130.333L350.527 135.321Z" fill="#008E83"/>
<path d="M359.801 129.93L350.531 135.321L341.891 130.333L351.161 124.968L359.801 129.93Z" fill="#AAE6E1"/>
<path d="M546.511 202.424L546.334 262.351L512.781 242.98L512.958 183.053L546.511 202.424Z" fill="#008E83"/>
<path d="M280.866 175.798L280.689 235.725L234.844 262.376L235.02 202.424L280.866 175.798Z" fill="#00675E"/>
<path d="M517.971 229L517.795 288.927L509.18 283.94L509.356 224.013L517.971 229Z" fill="#008E83"/>
<path d="M563.693 202.425L563.517 262.352L517.797 288.927L517.973 229L563.693 202.425Z" fill="#00675E"/>
<path d="M563.694 202.425L517.974 229.001L509.359 224.013L546.515 202.425L512.962 183.054L521.526 178.066L563.694 202.425Z" fill="#AAE6E1"/>
<path d="M280.871 175.799L235.025 202.425L271.802 223.685L263.238 228.648L217.82 202.425L272.231 170.812L280.871 175.799Z" fill="#AAE6E1"/>
<path d="M271.803 223.686L271.652 283.612L263.062 288.6L263.239 228.648L271.803 223.686Z" fill="#00675E"/>
<path d="M263.233 228.648L263.056 288.6L217.664 262.377L217.815 202.425L263.233 228.648Z" fill="#008E83"/>
<path d="M505.535 203.987L505.358 263.914L390.492 330.668L390.643 270.741L505.535 203.987Z" fill="#00675E"/>
<path d="M505.545 203.987L390.653 270.74L275.031 203.987L373.045 147.007L407.178 147.183L505.545 203.987Z" fill="#AAE6E1"/>
<path d="M390.65 270.741L390.499 330.668L274.852 263.914L275.028 203.987L390.65 270.741Z" fill="#008E83"/>
<path d="M391.149 302.898L390.972 362.825L318.602 321.034L318.778 261.107L391.149 302.898Z" fill="#008E83"/>
<path d="M444.417 271.746L444.241 331.673L391.141 362.531L391.317 302.604L444.417 271.746Z" fill="#00675E"/>
<path d="M444.424 271.748L391.324 302.606L318.953 260.816L327.518 255.828L391.274 292.656L435.784 266.761L444.424 271.748Z" fill="#AAE6E1"/>
<path d="M503.698 237.287L503.522 297.239L487.828 306.358L488.004 246.431L503.698 237.287Z" fill="#00675E"/>
<path d="M488.002 246.432L487.826 306.359L479.211 301.371L479.362 241.444L488.002 246.432Z" fill="#008E83"/>
<path d="M503.701 237.288L488.007 246.432L479.367 241.444L495.086 232.325L503.701 237.288Z" fill="#AAE6E1"/>
<path d="M309.921 245.677L309.744 305.604L301.18 310.591L301.331 250.639L309.921 245.677Z" fill="#00675E"/>
<path d="M301.32 250.638L301.169 310.59L278.523 297.517L278.7 237.59L301.32 250.638Z" fill="#008E83"/>
<path d="M309.913 245.675L301.324 250.638L278.703 237.589L287.268 232.602L309.913 245.675Z" fill="#AAE6E1"/>
<path d="M476.808 252.931L476.657 312.858L457.109 324.218L457.286 264.266L476.808 252.931Z" fill="#00675E"/>
<path d="M457.283 264.265L457.107 324.217L448.492 319.23L448.669 259.303L457.283 264.265Z" fill="#008E83"/>
<path d="M476.809 252.93L457.287 264.266L448.672 259.303L468.194 247.942L476.809 252.93Z" fill="#AAE6E1"/>
<path d="M322.021 199.622C322.021 199.622 322 199.507 322 199.454C322 186.788 329.795 175.33 343.936 167.163C356.385 159.963 372.752 156 390.034 156C407.316 156 423.82 159.973 436.343 167.216C450.546 175.425 458.373 186.914 458.373 199.612C458.373 199.664 458.362 199.696 458.362 199.769C458.362 199.811 458.373 199.874 458.373 199.927C458.373 199.98 458.362 200.043 458.362 200.095C458.362 200.137 458.373 200.2 458.373 200.253C458.373 200.316 458.362 200.358 458.362 200.411C458.362 200.474 458.373 200.526 458.373 200.579C458.373 200.642 458.362 200.684 458.362 200.726C458.362 200.789 458.373 200.852 458.373 200.884C458.373 200.947 458.362 200.999 458.362 201.062C458.362 201.104 458.373 201.167 458.373 201.209C458.373 201.272 458.362 201.325 458.362 201.378C458.362 201.42 458.373 201.493 458.373 201.535C458.373 201.598 458.362 201.651 458.362 201.714C458.362 201.756 458.373 201.83 458.373 201.872C458.373 201.924 458.362 201.977 458.362 202.04C458.362 202.103 458.373 202.134 458.373 202.208C458.373 202.25 458.362 202.324 458.362 202.366C458.362 202.429 458.373 202.481 458.373 202.534C458.373 202.586 458.362 202.649 458.362 202.681C458.362 202.755 458.373 202.797 458.373 202.86C458.373 202.923 458.362 202.975 458.362 203.007C458.362 203.08 458.373 203.122 458.373 203.175C458.373 203.228 458.362 203.291 458.362 203.333C458.362 203.396 458.373 203.448 458.373 203.501C458.373 203.543 458.362 203.606 458.362 203.669C458.362 203.732 458.373 203.785 458.373 203.837C458.373 203.879 458.362 203.932 458.362 203.984C458.362 204.037 458.373 204.079 458.373 204.163C458.373 204.205 458.362 204.258 458.362 204.31C458.362 204.363 458.373 204.405 458.373 204.478C458.373 204.52 458.362 204.573 458.362 204.626C458.362 204.689 458.373 204.741 458.373 204.794C458.373 204.857 458.362 204.909 458.362 204.962C458.362 205.025 458.373 205.067 458.373 205.109C458.373 205.172 458.362 205.225 458.362 205.277C458.362 205.34 458.373 205.393 458.373 205.445C458.373 205.509 458.362 205.561 458.362 205.614C458.362 205.656 458.373 205.729 458.373 205.782C458.373 205.824 458.362 205.876 458.362 205.929C458.362 205.992 458.373 206.045 458.373 206.108C458.373 206.139 458.362 206.202 458.362 206.255C458.362 206.318 458.373 206.349 458.373 206.434C458.373 206.476 458.362 206.528 458.362 206.591C458.362 206.644 458.373 206.686 458.373 206.759C458.373 206.801 458.362 206.854 458.362 206.917C458.362 206.97 458.373 207.012 458.373 207.075C458.373 207.117 458.362 207.19 458.362 207.243C458.362 207.306 458.373 207.359 458.373 207.411C458.373 207.464 458.362 207.527 458.362 207.579C458.362 207.621 458.373 207.695 458.373 207.747C458.373 207.811 458.362 207.863 458.362 207.916C458.362 207.958 458.373 208.031 458.373 208.063C458.373 208.126 458.362 208.178 458.362 208.231C458.362 208.273 458.373 208.326 458.373 208.389C458.373 208.452 458.362 208.494 458.362 208.567C458.362 208.609 458.373 208.662 458.373 208.725C458.373 208.778 458.362 208.82 458.362 208.872C458.362 208.925 458.373 208.988 458.373 209.03C458.373 209.103 458.362 209.135 458.362 209.198C458.362 209.251 458.373 209.314 458.373 209.356C458.373 209.419 458.362 209.471 458.362 209.524C458.362 209.587 458.373 209.639 458.373 209.682C458.373 222.348 450.578 233.826 436.437 241.993C423.988 249.194 407.621 253.146 390.328 253.146C372.994 253.146 356.553 249.152 344.051 241.93C329.837 233.721 322.011 222.222 322.011 209.534C322.011 209.482 322.032 209.419 322.032 209.366C322.032 209.324 322.011 209.272 322.011 209.198C322.011 209.156 322.032 209.093 322.032 209.03C322.032 208.988 322.011 208.925 322.011 208.872C322.011 208.809 322.032 208.778 322.032 208.704C322.032 208.662 322.011 208.599 322.011 208.546C322.011 208.483 322.032 208.452 322.032 208.368C322.032 208.336 322.011 208.273 322.011 208.21C322.011 208.157 322.032 208.115 322.032 208.063C322.032 208 322.011 207.947 322.011 207.895C322.011 207.832 322.032 207.789 322.032 207.737C322.032 207.674 322.011 207.621 322.011 207.569C322.011 207.516 322.032 207.464 322.032 207.401C322.032 207.348 322.011 207.295 322.011 207.253C322.011 207.19 322.032 207.138 322.032 207.085C322.032 207.033 322.011 206.97 322.011 206.917C322.011 206.875 322.032 206.822 322.032 206.759C322.032 206.707 322.011 206.644 322.011 206.591C322.011 206.549 322.032 206.497 322.032 206.434C322.032 206.381 322.011 206.339 322.011 206.286C322.011 206.223 322.032 206.171 322.032 206.118C322.032 206.055 322.011 206.013 322.011 205.961C322.011 205.897 322.032 205.845 322.032 205.803C322.032 205.74 322.011 205.687 322.011 205.624C322.011 205.561 322.032 205.519 322.032 205.477C322.032 205.403 322.011 205.361 322.011 205.298C322.011 205.256 322.032 205.183 322.032 205.141C322.032 205.088 322.011 205.035 322.011 204.972C322.011 204.93 322.032 204.857 322.032 204.825C322.032 204.762 322.011 204.71 322.011 204.647C322.011 204.605 322.032 204.552 322.032 204.499C322.032 204.436 322.011 204.405 322.011 204.331C322.011 204.289 322.032 204.237 322.032 204.184C322.032 204.121 322.011 204.068 322.011 204.016C322.011 203.953 322.032 203.9 322.032 203.858C322.032 203.795 322.011 203.743 322.011 203.69C322.011 203.627 322.032 203.574 322.032 203.532C322.032 203.459 322.011 203.417 322.011 203.364C322.011 203.301 322.032 203.249 322.032 203.217C322.032 203.154 322.011 203.101 322.011 203.049C322.011 202.986 322.032 202.933 322.032 202.891C322.032 202.828 322.011 202.776 322.011 202.712C322.011 202.67 322.032 202.618 322.032 202.555C322.032 202.502 322.011 202.45 322.011 202.387C322.011 202.345 322.032 202.292 322.032 202.229C322.032 202.176 322.011 202.134 322.011 202.061C322.011 202.019 322.032 201.966 322.032 201.903C322.032 201.851 322.011 201.787 322.011 201.735C322.011 201.672 322.032 201.64 322.032 201.577C322.032 201.514 322.011 201.462 322.011 201.42C322.011 201.367 322.032 201.304 322.032 201.251C322.032 201.188 322.011 201.136 322.011 201.094C322.011 201.031 322.032 200.978 322.032 200.926C322.032 200.884 322.011 200.81 322.011 200.778C322.011 200.715 322.032 200.663 322.032 200.6C322.032 200.558 322.011 200.484 322.011 200.442C322.011 200.379 322.032 200.326 322.032 200.274C322.032 200.232 322.011 200.179 322.011 200.116C322.011 200.064 322.032 200.001 322.032 199.948C322.032 199.906 322.011 199.853 322.011 199.79C322.011 199.738 322.032 199.696 322.032 199.643L322.021 199.622Z" fill="url(#paint0_linear_2604_2094)"/>
<path d="M343.949 167.163C356.398 159.963 372.765 156 390.047 156C407.329 156 423.833 159.973 436.356 167.216C450.559 175.425 458.386 186.914 458.386 199.612C458.386 212.309 450.591 223.735 436.45 231.924C424.001 239.103 407.633 243.055 390.341 243.076C373.007 243.076 356.566 239.082 344.064 231.86C329.85 223.651 322.023 212.152 322.023 199.454C322.023 186.756 329.819 175.33 343.959 167.163H343.949Z" fill="url(#paint1_linear_2604_2094)"/>
<g style="mix-blend-mode:overlay" opacity="0.85">
<path d="M326.062 199.454C326.062 210.764 333.427 221.013 346.79 228.318C358.556 234.751 374.01 238.304 390.325 238.304C406.588 238.304 421.999 234.762 433.703 228.381C447.013 221.086 454.336 210.88 454.336 199.601C454.336 188.323 446.982 178.053 433.619 170.758C421.842 164.304 406.367 160.762 390.063 160.762C373.758 160.762 358.409 164.283 346.706 170.705C333.406 177.979 326.073 188.186 326.073 199.454H326.062ZM333.816 199.454C333.816 189.552 340.266 180.576 351.959 174.185C362.244 168.54 375.785 165.439 390.073 165.439C404.361 165.439 418.007 168.551 428.366 174.216C440.111 180.628 446.583 189.636 446.583 199.57C446.583 209.503 440.143 218.459 428.439 224.871C418.154 230.484 404.613 233.584 390.315 233.595C375.975 233.595 362.391 230.473 352.043 224.818C340.298 218.385 333.826 209.387 333.826 199.433L333.816 199.454Z" fill="white"/>
</g>
<g style="mix-blend-mode:overlay">
<path d="M344.054 231.86C356.555 239.082 372.997 243.076 390.331 243.076C407.623 243.055 424.001 239.103 436.44 231.923C450.402 223.84 458.144 212.561 458.344 200.095C458.344 200.305 458.386 200.505 458.386 200.715C458.386 213.381 450.591 224.839 436.45 233.027C424.001 240.206 407.633 244.159 390.341 244.18C373.007 244.18 356.566 240.185 344.064 232.964C329.85 224.755 322.023 213.255 322.023 200.557C322.023 200.347 322.055 200.137 322.055 199.927C322.255 212.435 330.029 223.767 344.054 231.86Z" fill="white"/>
</g>
<path d="M405.355 211.626C405.722 209.986 405.155 208.273 403.632 206.591C406.121 207.074 408.506 207.138 410.901 206.822C413.244 206.486 415.408 205.771 417.289 204.678C420.357 202.891 421.544 200.768 420.798 198.276C420.188 196.164 418.15 193.988 414.736 191.749L420.388 188.49L413.643 184.601L408.097 187.797L403.936 185.4L409.494 182.194L402.697 178.273L397.139 181.479L393.672 179.482L389.418 177.022L382.694 180.901L386.949 183.361L361.83 197.866L357.575 195.407L350.852 199.286L358.563 203.753L355.485 205.519L362.271 209.439L365.349 207.653L368.743 209.618L369.509 210.06L366.431 211.836L373.176 215.725L376.296 213.928C380.919 216.493 385.299 217.964 389.397 218.416C393.861 218.879 397.822 218.143 401.173 216.209C403.558 214.832 404.934 213.297 405.334 211.615L405.355 211.626ZM404.798 193.641C406.09 194.387 407.056 195.113 407.666 195.827C408.17 196.29 408.548 196.763 408.685 197.225C409.105 198.318 408.506 199.286 406.993 200.179C405.481 201.041 403.821 201.367 401.888 201.146C401.11 201.062 400.228 200.873 399.44 200.578C398.242 200.211 396.992 199.653 395.7 198.897L392.286 196.92L388.125 194.513L386.791 193.736L395.868 188.501L400.596 191.244L400.617 191.223L401.383 191.665L404.798 193.641ZM387.716 211.458C386.287 211.268 384.669 210.816 383.062 210.039C382.463 209.744 381.864 209.439 381.213 209.072L376.233 206.202L375.466 205.761H375.487L370.76 203.007L380.288 197.499L381.622 198.287L385.783 200.684L390.773 203.564C391.414 203.942 391.928 204.289 392.433 204.636C395.668 206.927 395.857 208.84 393.105 210.438C391.456 211.395 389.659 211.731 387.726 211.468L387.716 211.458Z" fill="#85FFFC"/>
<mask id="mask0_2604_2094" style="mask-type:luminance" maskUnits="userSpaceOnUse" x="322" y="200" width="137" height="53">
<path d="M322.016 200.663C322.058 213.308 329.874 224.776 344.046 232.964C356.547 240.186 372.989 244.18 390.323 244.18C407.615 244.159 423.993 240.207 436.432 233.028C450.541 224.86 458.326 213.434 458.368 200.8C458.368 200.831 458.368 200.873 458.368 200.894C458.368 200.957 458.357 201.01 458.357 201.073C458.357 201.115 458.368 201.178 458.368 201.22C458.368 201.283 458.357 201.336 458.357 201.388C458.357 201.43 458.368 201.504 458.368 201.546C458.368 201.609 458.357 201.662 458.357 201.725C458.357 201.767 458.368 201.84 458.368 201.882C458.368 201.935 458.357 201.988 458.357 202.051C458.357 202.114 458.368 202.145 458.368 202.219C458.368 202.261 458.357 202.334 458.357 202.376C458.357 202.44 458.368 202.492 458.368 202.545C458.368 202.597 458.357 202.66 458.357 202.692C458.357 202.765 458.368 202.807 458.368 202.87C458.368 202.934 458.357 202.986 458.357 203.018C458.357 203.091 458.368 203.133 458.368 203.186C458.368 203.238 458.357 203.301 458.357 203.343C458.357 203.407 458.368 203.459 458.368 203.512C458.368 203.554 458.357 203.617 458.357 203.68C458.357 203.743 458.368 203.795 458.368 203.848C458.368 203.89 458.357 203.943 458.357 203.995C458.357 204.048 458.368 204.09 458.368 204.174C458.368 204.216 458.357 204.268 458.357 204.321C458.357 204.374 458.368 204.416 458.368 204.489C458.368 204.531 458.357 204.584 458.357 204.636C458.357 204.699 458.368 204.752 458.368 204.805C458.368 204.868 458.357 204.92 458.357 204.973C458.357 205.036 458.368 205.078 458.368 205.12C458.368 205.183 458.357 205.236 458.357 205.288C458.357 205.351 458.368 205.404 458.368 205.456C458.368 205.519 458.357 205.572 458.357 205.624C458.357 205.666 458.368 205.74 458.368 205.793C458.368 205.835 458.357 205.887 458.357 205.94C458.357 206.003 458.368 206.055 458.368 206.118C458.368 206.15 458.357 206.213 458.357 206.266C458.357 206.329 458.368 206.36 458.368 206.444C458.368 206.486 458.357 206.539 458.357 206.602C458.357 206.655 458.368 206.697 458.368 206.77C458.368 206.812 458.357 206.865 458.357 206.928C458.357 206.98 458.368 207.022 458.368 207.086C458.368 207.128 458.357 207.201 458.357 207.254C458.357 207.317 458.368 207.369 458.368 207.422C458.368 207.474 458.357 207.538 458.357 207.59C458.357 207.632 458.368 207.706 458.368 207.758C458.368 207.821 458.357 207.874 458.357 207.926C458.357 207.968 458.368 208.042 458.368 208.074C458.368 208.137 458.357 208.189 458.357 208.242C458.357 208.284 458.368 208.336 458.368 208.399C458.368 208.463 458.357 208.505 458.357 208.578C458.357 208.62 458.368 208.673 458.368 208.736C458.368 208.788 458.357 208.83 458.357 208.883C458.357 208.936 458.368 208.999 458.368 209.041C458.368 209.114 458.357 209.146 458.357 209.209C458.357 209.261 458.368 209.324 458.368 209.366C458.368 209.43 458.368 209.472 458.357 209.514C458.357 209.366 458.336 209.219 458.336 209.072C458.136 221.539 450.404 232.828 436.432 240.901C423.983 248.08 407.615 252.043 390.323 252.053C372.989 252.053 356.547 248.069 344.046 240.848C330.021 232.744 322.236 221.413 322.047 208.915C322.047 209.062 322.037 209.198 322.026 209.345C322.026 209.303 322.026 209.272 322.026 209.219C322.026 209.177 322.047 209.114 322.047 209.051C322.047 209.009 322.026 208.946 322.026 208.893C322.026 208.83 322.047 208.799 322.047 208.725C322.047 208.683 322.026 208.62 322.026 208.568C322.026 208.505 322.047 208.473 322.047 208.389C322.047 208.357 322.026 208.294 322.026 208.231C322.026 208.179 322.047 208.137 322.047 208.084C322.047 208.021 322.026 207.968 322.026 207.916C322.026 207.853 322.047 207.811 322.047 207.758C322.047 207.695 322.026 207.643 322.026 207.59C322.026 207.538 322.047 207.485 322.047 207.422C322.047 207.369 322.026 207.317 322.026 207.275C322.026 207.212 322.047 207.159 322.047 207.107C322.047 207.054 322.026 206.991 322.026 206.938C322.026 206.896 322.047 206.844 322.047 206.781C322.047 206.728 322.026 206.665 322.026 206.613C322.026 206.57 322.047 206.518 322.047 206.455C322.047 206.402 322.026 206.36 322.026 206.308C322.026 206.245 322.047 206.192 322.047 206.14C322.047 206.076 322.026 206.034 322.026 205.982C322.026 205.919 322.047 205.866 322.047 205.824C322.047 205.761 322.026 205.709 322.026 205.645C322.026 205.582 322.047 205.54 322.047 205.498C322.047 205.425 322.026 205.383 322.026 205.32C322.026 205.278 322.047 205.204 322.047 205.162C322.047 205.109 322.026 205.057 322.026 204.994C322.026 204.952 322.047 204.878 322.047 204.847C322.047 204.784 322.026 204.731 322.026 204.668C322.026 204.626 322.047 204.573 322.047 204.521C322.047 204.458 322.026 204.426 322.026 204.353C322.026 204.311 322.047 204.258 322.047 204.205C322.047 204.142 322.026 204.09 322.026 204.037C322.026 203.974 322.047 203.922 322.047 203.88C322.047 203.816 322.026 203.764 322.026 203.711C322.026 203.648 322.047 203.596 322.047 203.554C322.047 203.48 322.026 203.438 322.026 203.386C322.026 203.322 322.047 203.27 322.047 203.238C322.047 203.175 322.026 203.123 322.026 203.07C322.026 203.007 322.047 202.955 322.047 202.913C322.047 202.849 322.026 202.797 322.026 202.734C322.026 202.692 322.047 202.639 322.047 202.576C322.047 202.524 322.026 202.471 322.026 202.408C322.026 202.366 322.047 202.313 322.047 202.25C322.047 202.198 322.026 202.156 322.026 202.082C322.026 202.04 322.047 201.988 322.047 201.924C322.047 201.872 322.026 201.809 322.026 201.756C322.026 201.693 322.047 201.662 322.047 201.599C322.047 201.536 322.026 201.483 322.026 201.441C322.026 201.388 322.047 201.325 322.047 201.273C322.047 201.21 322.026 201.157 322.026 201.115C322.026 201.052 322.047 200.999 322.047 200.947C322.047 200.905 322.026 200.831 322.026 200.8C322.026 200.768 322.026 200.737 322.026 200.705L322.016 200.663Z" fill="white"/>
</mask>
<g mask="url(#mask0_2604_2094)">
<g style="mix-blend-mode:multiply" opacity="0.21">
<path d="M322.413 198.656H321.625V210.608H322.413V198.656Z" fill="url(#paint2_linear_2604_2094)"/>
<path d="M322.593 201.852H321.805V213.835H322.593V201.852Z" fill="url(#paint3_linear_2604_2094)"/>
<path d="M323.093 204.994H322.305V217.009H323.093V204.994Z" fill="url(#paint4_linear_2604_2094)"/>
<path d="M323.929 208.063H323.141V220.099H323.929V208.063Z" fill="url(#paint5_linear_2604_2094)"/>
<path d="M325.077 211.06H324.289V223.127H325.077V211.06Z" fill="url(#paint6_linear_2604_2094)"/>
<path d="M326.554 213.96H325.766V226.048H326.554V213.96Z" fill="url(#paint7_linear_2604_2094)"/>
<path d="M328.35 216.777H327.562V228.897H328.35V216.777Z" fill="url(#paint8_linear_2604_2094)"/>
<path d="M330.452 219.5H329.664V231.641H330.452V219.5Z" fill="url(#paint9_linear_2604_2094)"/>
<path d="M332.843 222.106H332.055V234.279H332.843V222.106Z" fill="url(#paint10_linear_2604_2094)"/>
<path d="M335.546 224.608H334.758V236.802H335.546V224.608Z" fill="url(#paint11_linear_2604_2094)"/>
<path d="M338.538 226.995H337.75V239.22H338.538V226.995Z" fill="url(#paint12_linear_2604_2094)"/>
<path d="M341.811 229.244H341.023V241.49H341.811V229.244Z" fill="url(#paint13_linear_2604_2094)"/>
<path d="M345.147 231.23H344.359V243.508H345.147V231.23Z" fill="url(#paint14_linear_2604_2094)"/>
<path d="M347.952 232.713H347.164V245.011H347.952V232.713Z" fill="url(#paint15_linear_2604_2094)"/>
<path d="M350.882 234.079H350.094V246.409H350.882V234.079Z" fill="url(#paint16_linear_2604_2094)"/>
<path d="M353.921 235.351H353.133V247.701H353.921V235.351Z" fill="url(#paint17_linear_2604_2094)"/>
<path d="M357.061 236.518H356.273V248.9H357.061V236.518Z" fill="url(#paint18_linear_2604_2094)"/>
<path d="M360.296 237.569H359.508V249.983H360.296V237.569Z" fill="url(#paint19_linear_2604_2094)"/>
<path d="M363.616 238.515H362.828V250.95H363.616V238.515Z" fill="url(#paint20_linear_2604_2094)"/>
<path d="M367.022 239.335H366.234V251.801H367.022V239.335Z" fill="url(#paint21_linear_2604_2094)"/>
<path d="M370.499 240.05H369.711V252.537H370.499V240.05Z" fill="url(#paint22_linear_2604_2094)"/>
<path d="M374.038 240.648H373.25V253.167H374.038V240.648Z" fill="url(#paint23_linear_2604_2094)"/>
<path d="M377.639 241.132H376.852V253.672H377.639V241.132Z" fill="url(#paint24_linear_2604_2094)"/>
<path d="M381.296 241.5H380.508V254.061H381.296V241.5Z" fill="url(#paint25_linear_2604_2094)"/>
<path d="M385.007 241.731H384.219V254.324H385.007V241.731Z" fill="url(#paint26_linear_2604_2094)"/>
<path d="M388.733 241.848H387.945V254.472H388.733V241.848Z" fill="url(#paint27_linear_2604_2094)"/>
<path d="M392.507 241.837H391.719V254.482H392.507V241.837Z" fill="url(#paint28_linear_2604_2094)"/>
<path d="M396.257 241.7H395.469V254.377H396.257V241.7Z" fill="url(#paint29_linear_2604_2094)"/>
<path d="M399.968 241.438H399.18V254.135H399.968V241.438Z" fill="url(#paint30_linear_2604_2094)"/>
<path d="M403.624 241.049H402.836V253.778H403.624V241.049Z" fill="url(#paint31_linear_2604_2094)"/>
<path d="M407.225 240.555H406.438V253.305H407.225V240.555Z" fill="url(#paint32_linear_2604_2094)"/>
<path d="M410.772 239.935H409.984V252.716H410.772V239.935Z" fill="url(#paint33_linear_2604_2094)"/>
<path d="M414.249 239.198H413.461V252.001H414.249V239.198Z" fill="url(#paint34_linear_2604_2094)"/>
<path d="M417.655 238.347H416.867V251.181H417.655V238.347Z" fill="url(#paint35_linear_2604_2094)"/>
<path d="M420.975 237.38H420.188V250.235H420.975V237.38Z" fill="url(#paint36_linear_2604_2094)"/>
<path d="M424.21 236.308H423.422V249.195H424.21V236.308Z" fill="url(#paint37_linear_2604_2094)"/>
<path d="M427.35 235.12H426.562V248.039H427.35V235.12Z" fill="url(#paint38_linear_2604_2094)"/>
<path d="M430.389 233.827H429.602V246.767H430.389V233.827Z" fill="url(#paint39_linear_2604_2094)"/>
<path d="M433.319 232.429H432.531V245.4H433.319V232.429Z" fill="url(#paint40_linear_2604_2094)"/>
<path d="M436.132 230.926H435.344V243.928H436.132V230.926Z" fill="url(#paint41_linear_2604_2094)"/>
<path d="M439.444 228.918H438.656V241.942H439.444V228.918Z" fill="url(#paint42_linear_2604_2094)"/>
<path d="M442.71 226.637H441.922V239.692H442.71V226.637Z" fill="url(#paint43_linear_2604_2094)"/>
<path d="M445.694 224.23H444.906V237.307H445.694V224.23Z" fill="url(#paint44_linear_2604_2094)"/>
<path d="M448.389 221.697H447.602V234.805H448.389V221.697Z" fill="url(#paint45_linear_2604_2094)"/>
<path d="M450.78 219.048H449.992V232.177H450.78V219.048Z" fill="url(#paint46_linear_2604_2094)"/>
<path d="M452.874 216.294H452.086V229.454H452.874V216.294Z" fill="url(#paint47_linear_2604_2094)"/>
<path d="M454.647 213.445H453.859V226.627H454.647V213.445Z" fill="url(#paint48_linear_2604_2094)"/>
<path d="M456.116 210.492H455.328V223.705H456.116V210.492Z" fill="url(#paint49_linear_2604_2094)"/>
<path d="M457.28 207.465H456.492V220.709H457.28V207.465Z" fill="url(#paint50_linear_2604_2094)"/>
<path d="M458.116 204.363H457.328V217.629H458.116V204.363Z" fill="url(#paint51_linear_2604_2094)"/>
<path d="M458.608 201.199H457.82V214.486H458.608V201.199Z" fill="url(#paint52_linear_2604_2094)"/>
<path d="M458.772 197.973H457.984V211.291H458.772V197.973Z" fill="url(#paint53_linear_2604_2094)"/>
</g>
</g>
<defs>
<linearGradient id="paint0_linear_2604_2094" x1="322.011" y1="204.552" x2="458.384" y2="204.552" gradientUnits="userSpaceOnUse">
<stop offset="0.02" stop-color="#7FFFD6"/>
<stop offset="0.13" stop-color="#51D1AB"/>
<stop offset="0.24" stop-color="#2EAD8A"/>
<stop offset="0.35" stop-color="#149373"/>
<stop offset="0.44" stop-color="#058464"/>
<stop offset="0.51" stop-color="#007F60"/>
</linearGradient>
<linearGradient id="paint1_linear_2604_2094" x1="331.573" y1="172.177" x2="448.849" y2="226.839" gradientUnits="userSpaceOnUse">
<stop offset="0.02" stop-color="#7FFFD6"/>
<stop offset="0.13" stop-color="#51D1AB"/>
<stop offset="0.24" stop-color="#2EAD8A"/>
<stop offset="0.35" stop-color="#149373"/>
<stop offset="0.44" stop-color="#058464"/>
<stop offset="0.51" stop-color="#007F60"/>
</linearGradient>
<linearGradient id="paint2_linear_2604_2094" x1="322.024" y1="234.174" x2="322.024" y2="266.171" gradientUnits="userSpaceOnUse">
<stop offset="0.02" stop-color="#7FFFD6"/>
<stop offset="0.13" stop-color="#51D1AB"/>
<stop offset="0.24" stop-color="#2EAD8A"/>
<stop offset="0.35" stop-color="#149373"/>
<stop offset="0.44" stop-color="#058464"/>
<stop offset="0.51" stop-color="#007F60"/>
</linearGradient>
<linearGradient id="paint3_linear_2604_2094" x1="322.193" y1="234.174" x2="322.193" y2="266.171" gradientUnits="userSpaceOnUse">
<stop offset="0.02" stop-color="#7FFFD6"/>
<stop offset="0.13" stop-color="#51D1AB"/>
<stop offset="0.24" stop-color="#2EAD8A"/>
<stop offset="0.35" stop-color="#149373"/>
<stop offset="0.44" stop-color="#058464"/>
<stop offset="0.51" stop-color="#007F60"/>
</linearGradient>
<linearGradient id="paint4_linear_2604_2094" x1="322.693" y1="234.174" x2="322.693" y2="266.17" gradientUnits="userSpaceOnUse">
<stop offset="0.02" stop-color="#7FFFD6"/>
<stop offset="0.13" stop-color="#51D1AB"/>
<stop offset="0.24" stop-color="#2EAD8A"/>
<stop offset="0.35" stop-color="#149373"/>
<stop offset="0.44" stop-color="#058464"/>
<stop offset="0.51" stop-color="#007F60"/>
</linearGradient>
<linearGradient id="paint5_linear_2604_2094" x1="323.54" y1="234.174" x2="323.54" y2="266.17" gradientUnits="userSpaceOnUse">
<stop offset="0.02" stop-color="#7FFFD6"/>
<stop offset="0.13" stop-color="#51D1AB"/>
<stop offset="0.24" stop-color="#2EAD8A"/>
<stop offset="0.35" stop-color="#149373"/>
<stop offset="0.44" stop-color="#058464"/>
<stop offset="0.51" stop-color="#007F60"/>
</linearGradient>
<linearGradient id="paint6_linear_2604_2094" x1="324.688" y1="234.174" x2="324.688" y2="266.171" gradientUnits="userSpaceOnUse">
<stop offset="0.02" stop-color="#7FFFD6"/>
<stop offset="0.13" stop-color="#51D1AB"/>
<stop offset="0.24" stop-color="#2EAD8A"/>
<stop offset="0.35" stop-color="#149373"/>
<stop offset="0.44" stop-color="#058464"/>
<stop offset="0.51" stop-color="#007F60"/>
</linearGradient>
<linearGradient id="paint7_linear_2604_2094" x1="326.165" y1="234.173" x2="326.165" y2="266.17" gradientUnits="userSpaceOnUse">
<stop offset="0.02" stop-color="#7FFFD6"/>
<stop offset="0.13" stop-color="#51D1AB"/>
<stop offset="0.24" stop-color="#2EAD8A"/>
<stop offset="0.35" stop-color="#149373"/>
<stop offset="0.44" stop-color="#058464"/>
<stop offset="0.51" stop-color="#007F60"/>
</linearGradient>
<linearGradient id="paint8_linear_2604_2094" x1="327.962" y1="234.174" x2="327.962" y2="266.17" gradientUnits="userSpaceOnUse">
<stop offset="0.02" stop-color="#7FFFD6"/>
<stop offset="0.13" stop-color="#51D1AB"/>
<stop offset="0.24" stop-color="#2EAD8A"/>
<stop offset="0.35" stop-color="#149373"/>
<stop offset="0.44" stop-color="#058464"/>
<stop offset="0.51" stop-color="#007F60"/>
</linearGradient>
<linearGradient id="paint9_linear_2604_2094" x1="330.063" y1="234.174" x2="330.063" y2="266.17" gradientUnits="userSpaceOnUse">
<stop offset="0.02" stop-color="#7FFFD6"/>
<stop offset="0.13" stop-color="#51D1AB"/>
<stop offset="0.24" stop-color="#2EAD8A"/>
<stop offset="0.35" stop-color="#149373"/>
<stop offset="0.44" stop-color="#058464"/>
<stop offset="0.51" stop-color="#007F60"/>
</linearGradient>
<linearGradient id="paint10_linear_2604_2094" x1="332.454" y1="234.173" x2="332.454" y2="266.17" gradientUnits="userSpaceOnUse">
<stop offset="0.02" stop-color="#7FFFD6"/>
<stop offset="0.13" stop-color="#51D1AB"/>
<stop offset="0.24" stop-color="#2EAD8A"/>
<stop offset="0.35" stop-color="#149373"/>
<stop offset="0.44" stop-color="#058464"/>
<stop offset="0.51" stop-color="#007F60"/>
</linearGradient>
<linearGradient id="paint11_linear_2604_2094" x1="335.157" y1="234.174" x2="335.157" y2="266.17" gradientUnits="userSpaceOnUse">
<stop offset="0.02" stop-color="#7FFFD6"/>
<stop offset="0.13" stop-color="#51D1AB"/>
<stop offset="0.24" stop-color="#2EAD8A"/>
<stop offset="0.35" stop-color="#149373"/>
<stop offset="0.44" stop-color="#058464"/>
<stop offset="0.51" stop-color="#007F60"/>
</linearGradient>
<linearGradient id="paint12_linear_2604_2094" x1="338.149" y1="234.174" x2="338.149" y2="266.171" gradientUnits="userSpaceOnUse">
<stop offset="0.02" stop-color="#7FFFD6"/>
<stop offset="0.13" stop-color="#51D1AB"/>
<stop offset="0.24" stop-color="#2EAD8A"/>
<stop offset="0.35" stop-color="#149373"/>
<stop offset="0.44" stop-color="#058464"/>
<stop offset="0.51" stop-color="#007F60"/>
</linearGradient>
<linearGradient id="paint13_linear_2604_2094" x1="341.423" y1="234.174" x2="341.423" y2="266.171" gradientUnits="userSpaceOnUse">
<stop offset="0.02" stop-color="#7FFFD6"/>
<stop offset="0.13" stop-color="#51D1AB"/>
<stop offset="0.24" stop-color="#2EAD8A"/>
<stop offset="0.35" stop-color="#149373"/>
<stop offset="0.44" stop-color="#058464"/>
<stop offset="0.51" stop-color="#007F60"/>
</linearGradient>
<linearGradient id="paint14_linear_2604_2094" x1="344.759" y1="234.174" x2="344.759" y2="266.17" gradientUnits="userSpaceOnUse">
<stop offset="0.02" stop-color="#7FFFD6"/>
<stop offset="0.13" stop-color="#51D1AB"/>
<stop offset="0.24" stop-color="#2EAD8A"/>
<stop offset="0.35" stop-color="#149373"/>
<stop offset="0.44" stop-color="#058464"/>
<stop offset="0.51" stop-color="#007F60"/>
</linearGradient>
<linearGradient id="paint15_linear_2604_2094" x1="347.563" y1="234.174" x2="347.563" y2="266.171" gradientUnits="userSpaceOnUse">
<stop offset="0.02" stop-color="#7FFFD6"/>
<stop offset="0.13" stop-color="#51D1AB"/>
<stop offset="0.24" stop-color="#2EAD8A"/>
<stop offset="0.35" stop-color="#149373"/>
<stop offset="0.44" stop-color="#058464"/>
<stop offset="0.51" stop-color="#007F60"/>
</linearGradient>
<linearGradient id="paint16_linear_2604_2094" x1="350.493" y1="234.174" x2="350.493" y2="266.17" gradientUnits="userSpaceOnUse">
<stop offset="0.02" stop-color="#7FFFD6"/>
<stop offset="0.13" stop-color="#51D1AB"/>
<stop offset="0.24" stop-color="#2EAD8A"/>
<stop offset="0.35" stop-color="#149373"/>
<stop offset="0.44" stop-color="#058464"/>
<stop offset="0.51" stop-color="#007F60"/>
</linearGradient>
<linearGradient id="paint17_linear_2604_2094" x1="353.532" y1="234.173" x2="353.532" y2="266.17" gradientUnits="userSpaceOnUse">
<stop offset="0.02" stop-color="#7FFFD6"/>
<stop offset="0.13" stop-color="#51D1AB"/>
<stop offset="0.24" stop-color="#2EAD8A"/>
<stop offset="0.35" stop-color="#149373"/>
<stop offset="0.44" stop-color="#058464"/>
<stop offset="0.51" stop-color="#007F60"/>
</linearGradient>
<linearGradient id="paint18_linear_2604_2094" x1="356.673" y1="234.174" x2="356.673" y2="266.17" gradientUnits="userSpaceOnUse">
<stop offset="0.02" stop-color="#7FFFD6"/>
<stop offset="0.13" stop-color="#51D1AB"/>
<stop offset="0.24" stop-color="#2EAD8A"/>
<stop offset="0.35" stop-color="#149373"/>
<stop offset="0.44" stop-color="#058464"/>
<stop offset="0.51" stop-color="#007F60"/>
</linearGradient>
<linearGradient id="paint19_linear_2604_2094" x1="359.907" y1="234.174" x2="359.907" y2="266.171" gradientUnits="userSpaceOnUse">
<stop offset="0.02" stop-color="#7FFFD6"/>
<stop offset="0.13" stop-color="#51D1AB"/>
<stop offset="0.24" stop-color="#2EAD8A"/>
<stop offset="0.35" stop-color="#149373"/>
<stop offset="0.44" stop-color="#058464"/>
<stop offset="0.51" stop-color="#007F60"/>
</linearGradient>
<linearGradient id="paint20_linear_2604_2094" x1="363.227" y1="234.173" x2="363.227" y2="266.17" gradientUnits="userSpaceOnUse">
<stop offset="0.02" stop-color="#7FFFD6"/>
<stop offset="0.13" stop-color="#51D1AB"/>
<stop offset="0.24" stop-color="#2EAD8A"/>
<stop offset="0.35" stop-color="#149373"/>
<stop offset="0.44" stop-color="#058464"/>
<stop offset="0.51" stop-color="#007F60"/>
</linearGradient>
<linearGradient id="paint21_linear_2604_2094" x1="366.634" y1="234.174" x2="366.634" y2="266.17" gradientUnits="userSpaceOnUse">
<stop offset="0.02" stop-color="#7FFFD6"/>
<stop offset="0.13" stop-color="#51D1AB"/>
<stop offset="0.24" stop-color="#2EAD8A"/>
<stop offset="0.35" stop-color="#149373"/>
<stop offset="0.44" stop-color="#058464"/>
<stop offset="0.51" stop-color="#007F60"/>
</linearGradient>
<linearGradient id="paint22_linear_2604_2094" x1="370.11" y1="234.174" x2="370.11" y2="266.171" gradientUnits="userSpaceOnUse">
<stop offset="0.02" stop-color="#7FFFD6"/>
<stop offset="0.13" stop-color="#51D1AB"/>
<stop offset="0.24" stop-color="#2EAD8A"/>
<stop offset="0.35" stop-color="#149373"/>
<stop offset="0.44" stop-color="#058464"/>
<stop offset="0.51" stop-color="#007F60"/>
</linearGradient>
<linearGradient id="paint23_linear_2604_2094" x1="373.649" y1="234.173" x2="373.649" y2="266.17" gradientUnits="userSpaceOnUse">
<stop offset="0.02" stop-color="#7FFFD6"/>
<stop offset="0.13" stop-color="#51D1AB"/>
<stop offset="0.24" stop-color="#2EAD8A"/>
<stop offset="0.35" stop-color="#149373"/>
<stop offset="0.44" stop-color="#058464"/>
<stop offset="0.51" stop-color="#007F60"/>
</linearGradient>
<linearGradient id="paint24_linear_2604_2094" x1="377.251" y1="234.173" x2="377.251" y2="266.17" gradientUnits="userSpaceOnUse">
<stop offset="0.02" stop-color="#7FFFD6"/>
<stop offset="0.13" stop-color="#51D1AB"/>
<stop offset="0.24" stop-color="#2EAD8A"/>
<stop offset="0.35" stop-color="#149373"/>
<stop offset="0.44" stop-color="#058464"/>
<stop offset="0.51" stop-color="#007F60"/>
</linearGradient>
<linearGradient id="paint25_linear_2604_2094" x1="380.907" y1="234.174" x2="380.907" y2="266.17" gradientUnits="userSpaceOnUse">
<stop offset="0.02" stop-color="#7FFFD6"/>
<stop offset="0.13" stop-color="#51D1AB"/>
<stop offset="0.24" stop-color="#2EAD8A"/>
<stop offset="0.35" stop-color="#149373"/>
<stop offset="0.44" stop-color="#058464"/>
<stop offset="0.51" stop-color="#007F60"/>
</linearGradient>
<linearGradient id="paint26_linear_2604_2094" x1="384.607" y1="234.174" x2="384.607" y2="266.17" gradientUnits="userSpaceOnUse">
<stop offset="0.02" stop-color="#7FFFD6"/>
<stop offset="0.13" stop-color="#51D1AB"/>
<stop offset="0.24" stop-color="#2EAD8A"/>
<stop offset="0.35" stop-color="#149373"/>
<stop offset="0.44" stop-color="#058464"/>
<stop offset="0.51" stop-color="#007F60"/>
</linearGradient>
<linearGradient id="paint27_linear_2604_2094" x1="388.345" y1="234.174" x2="388.345" y2="266.171" gradientUnits="userSpaceOnUse">
<stop offset="0.02" stop-color="#7FFFD6"/>
<stop offset="0.13" stop-color="#51D1AB"/>
<stop offset="0.24" stop-color="#2EAD8A"/>
<stop offset="0.35" stop-color="#149373"/>
<stop offset="0.44" stop-color="#058464"/>
<stop offset="0.51" stop-color="#007F60"/>
</linearGradient>
<linearGradient id="paint28_linear_2604_2094" x1="392.118" y1="234.174" x2="392.118" y2="266.171" gradientUnits="userSpaceOnUse">
<stop offset="0.02" stop-color="#7FFFD6"/>
<stop offset="0.13" stop-color="#51D1AB"/>
<stop offset="0.24" stop-color="#2EAD8A"/>
<stop offset="0.35" stop-color="#149373"/>
<stop offset="0.44" stop-color="#058464"/>
<stop offset="0.51" stop-color="#007F60"/>
</linearGradient>
<linearGradient id="paint29_linear_2604_2094" x1="395.857" y1="234.174" x2="395.857" y2="266.171" gradientUnits="userSpaceOnUse">
<stop offset="0.02" stop-color="#7FFFD6"/>
<stop offset="0.13" stop-color="#51D1AB"/>
<stop offset="0.24" stop-color="#2EAD8A"/>
<stop offset="0.35" stop-color="#149373"/>
<stop offset="0.44" stop-color="#058464"/>
<stop offset="0.51" stop-color="#007F60"/>
</linearGradient>
<linearGradient id="paint30_linear_2604_2094" x1="399.568" y1="234.174" x2="399.568" y2="266.171" gradientUnits="userSpaceOnUse">
<stop offset="0.02" stop-color="#7FFFD6"/>
<stop offset="0.13" stop-color="#51D1AB"/>
<stop offset="0.24" stop-color="#2EAD8A"/>
<stop offset="0.35" stop-color="#149373"/>
<stop offset="0.44" stop-color="#058464"/>
<stop offset="0.51" stop-color="#007F60"/>
</linearGradient>
<linearGradient id="paint31_linear_2604_2094" x1="403.235" y1="234.174" x2="403.235" y2="266.171" gradientUnits="userSpaceOnUse">
<stop offset="0.02" stop-color="#7FFFD6"/>
<stop offset="0.13" stop-color="#51D1AB"/>
<stop offset="0.24" stop-color="#2EAD8A"/>
<stop offset="0.35" stop-color="#149373"/>
<stop offset="0.44" stop-color="#058464"/>
<stop offset="0.51" stop-color="#007F60"/>
</linearGradient>
<linearGradient id="paint32_linear_2604_2094" x1="406.837" y1="234.174" x2="406.837" y2="266.171" gradientUnits="userSpaceOnUse">
<stop offset="0.02" stop-color="#7FFFD6"/>
<stop offset="0.13" stop-color="#51D1AB"/>
<stop offset="0.24" stop-color="#2EAD8A"/>
<stop offset="0.35" stop-color="#149373"/>
<stop offset="0.44" stop-color="#058464"/>
<stop offset="0.51" stop-color="#007F60"/>
</linearGradient>
<linearGradient id="paint33_linear_2604_2094" x1="410.384" y1="234.174" x2="410.384" y2="266.171" gradientUnits="userSpaceOnUse">
<stop offset="0.02" stop-color="#7FFFD6"/>
<stop offset="0.13" stop-color="#51D1AB"/>
<stop offset="0.24" stop-color="#2EAD8A"/>
<stop offset="0.35" stop-color="#149373"/>
<stop offset="0.44" stop-color="#058464"/>
<stop offset="0.51" stop-color="#007F60"/>
</linearGradient>
<linearGradient id="paint34_linear_2604_2094" x1="413.86" y1="234.174" x2="413.86" y2="266.17" gradientUnits="userSpaceOnUse">
<stop offset="0.02" stop-color="#7FFFD6"/>
<stop offset="0.13" stop-color="#51D1AB"/>
<stop offset="0.24" stop-color="#2EAD8A"/>
<stop offset="0.35" stop-color="#149373"/>
<stop offset="0.44" stop-color="#058464"/>
<stop offset="0.51" stop-color="#007F60"/>
</linearGradient>
<linearGradient id="paint35_linear_2604_2094" x1="417.266" y1="234.174" x2="417.266" y2="266.17" gradientUnits="userSpaceOnUse">
<stop offset="0.02" stop-color="#7FFFD6"/>
<stop offset="0.13" stop-color="#51D1AB"/>
<stop offset="0.24" stop-color="#2EAD8A"/>
<stop offset="0.35" stop-color="#149373"/>
<stop offset="0.44" stop-color="#058464"/>
<stop offset="0.51" stop-color="#007F60"/>
</linearGradient>
<linearGradient id="paint36_linear_2604_2094" x1="420.587" y1="234.174" x2="420.587" y2="266.171" gradientUnits="userSpaceOnUse">
<stop offset="0.02" stop-color="#7FFFD6"/>
<stop offset="0.13" stop-color="#51D1AB"/>
<stop offset="0.24" stop-color="#2EAD8A"/>
<stop offset="0.35" stop-color="#149373"/>
<stop offset="0.44" stop-color="#058464"/>
<stop offset="0.51" stop-color="#007F60"/>
</linearGradient>
<linearGradient id="paint37_linear_2604_2094" x1="423.821" y1="234.174" x2="423.821" y2="266.17" gradientUnits="userSpaceOnUse">
<stop offset="0.02" stop-color="#7FFFD6"/>
<stop offset="0.13" stop-color="#51D1AB"/>
<stop offset="0.24" stop-color="#2EAD8A"/>
<stop offset="0.35" stop-color="#149373"/>
<stop offset="0.44" stop-color="#058464"/>
<stop offset="0.51" stop-color="#007F60"/>
</linearGradient>
<linearGradient id="paint38_linear_2604_2094" x1="426.962" y1="234.174" x2="426.962" y2="266.171" gradientUnits="userSpaceOnUse">
<stop offset="0.02" stop-color="#7FFFD6"/>
<stop offset="0.13" stop-color="#51D1AB"/>
<stop offset="0.24" stop-color="#2EAD8A"/>
<stop offset="0.35" stop-color="#149373"/>
<stop offset="0.44" stop-color="#058464"/>
<stop offset="0.51" stop-color="#007F60"/>
</linearGradient>
<linearGradient id="paint39_linear_2604_2094" x1="430.001" y1="234.174" x2="430.001" y2="266.171" gradientUnits="userSpaceOnUse">
<stop offset="0.02" stop-color="#7FFFD6"/>
<stop offset="0.13" stop-color="#51D1AB"/>
<stop offset="0.24" stop-color="#2EAD8A"/>
<stop offset="0.35" stop-color="#149373"/>
<stop offset="0.44" stop-color="#058464"/>
<stop offset="0.51" stop-color="#007F60"/>
</linearGradient>
<linearGradient id="paint40_linear_2604_2094" x1="432.93" y1="234.174" x2="432.93" y2="266.17" gradientUnits="userSpaceOnUse">
<stop offset="0.02" stop-color="#7FFFD6"/>
<stop offset="0.13" stop-color="#51D1AB"/>
<stop offset="0.24" stop-color="#2EAD8A"/>
<stop offset="0.35" stop-color="#149373"/>
<stop offset="0.44" stop-color="#058464"/>
<stop offset="0.51" stop-color="#007F60"/>
</linearGradient>
<linearGradient id="paint41_linear_2604_2094" x1="435.732" y1="234.174" x2="435.732" y2="266.17" gradientUnits="userSpaceOnUse">
<stop offset="0.02" stop-color="#7FFFD6"/>
<stop offset="0.13" stop-color="#51D1AB"/>
<stop offset="0.24" stop-color="#2EAD8A"/>
<stop offset="0.35" stop-color="#149373"/>
<stop offset="0.44" stop-color="#058464"/>
<stop offset="0.51" stop-color="#007F60"/>
</linearGradient>
<linearGradient id="paint42_linear_2604_2094" x1="439.055" y1="234.174" x2="439.055" y2="266.17" gradientUnits="userSpaceOnUse">
<stop offset="0.02" stop-color="#7FFFD6"/>
<stop offset="0.13" stop-color="#51D1AB"/>
<stop offset="0.24" stop-color="#2EAD8A"/>
<stop offset="0.35" stop-color="#149373"/>
<stop offset="0.44" stop-color="#058464"/>
<stop offset="0.51" stop-color="#007F60"/>
</linearGradient>
<linearGradient id="paint43_linear_2604_2094" x1="442.321" y1="234.173" x2="442.321" y2="266.17" gradientUnits="userSpaceOnUse">
<stop offset="0.02" stop-color="#7FFFD6"/>
<stop offset="0.13" stop-color="#51D1AB"/>
<stop offset="0.24" stop-color="#2EAD8A"/>
<stop offset="0.35" stop-color="#149373"/>
<stop offset="0.44" stop-color="#058464"/>
<stop offset="0.51" stop-color="#007F60"/>
</linearGradient>
<linearGradient id="paint44_linear_2604_2094" x1="445.295" y1="234.174" x2="445.295" y2="266.171" gradientUnits="userSpaceOnUse">
<stop offset="0.02" stop-color="#7FFFD6"/>
<stop offset="0.13" stop-color="#51D1AB"/>
<stop offset="0.24" stop-color="#2EAD8A"/>
<stop offset="0.35" stop-color="#149373"/>
<stop offset="0.44" stop-color="#058464"/>
<stop offset="0.51" stop-color="#007F60"/>
</linearGradient>
<linearGradient id="paint45_linear_2604_2094" x1="447.99" y1="234.174" x2="447.99" y2="266.171" gradientUnits="userSpaceOnUse">
<stop offset="0.02" stop-color="#7FFFD6"/>
<stop offset="0.13" stop-color="#51D1AB"/>
<stop offset="0.24" stop-color="#2EAD8A"/>
<stop offset="0.35" stop-color="#149373"/>
<stop offset="0.44" stop-color="#058464"/>
<stop offset="0.51" stop-color="#007F60"/>
</linearGradient>
<linearGradient id="paint46_linear_2604_2094" x1="450.381" y1="234.174" x2="450.381" y2="266.17" gradientUnits="userSpaceOnUse">
<stop offset="0.02" stop-color="#7FFFD6"/>
<stop offset="0.13" stop-color="#51D1AB"/>
<stop offset="0.24" stop-color="#2EAD8A"/>
<stop offset="0.35" stop-color="#149373"/>
<stop offset="0.44" stop-color="#058464"/>
<stop offset="0.51" stop-color="#007F60"/>
</linearGradient>
<linearGradient id="paint47_linear_2604_2094" x1="452.475" y1="234.174" x2="452.475" y2="266.17" gradientUnits="userSpaceOnUse">
<stop offset="0.02" stop-color="#7FFFD6"/>
<stop offset="0.13" stop-color="#51D1AB"/>
<stop offset="0.24" stop-color="#2EAD8A"/>
<stop offset="0.35" stop-color="#149373"/>
<stop offset="0.44" stop-color="#058464"/>
<stop offset="0.51" stop-color="#007F60"/>
</linearGradient>
<linearGradient id="paint48_linear_2604_2094" x1="454.259" y1="234.174" x2="454.259" y2="266.17" gradientUnits="userSpaceOnUse">
<stop offset="0.02" stop-color="#7FFFD6"/>
<stop offset="0.13" stop-color="#51D1AB"/>
<stop offset="0.24" stop-color="#2EAD8A"/>
<stop offset="0.35" stop-color="#149373"/>
<stop offset="0.44" stop-color="#058464"/>
<stop offset="0.51" stop-color="#007F60"/>
</linearGradient>
<linearGradient id="paint49_linear_2604_2094" x1="455.727" y1="234.174" x2="455.727" y2="266.171" gradientUnits="userSpaceOnUse">
<stop offset="0.02" stop-color="#7FFFD6"/>
<stop offset="0.13" stop-color="#51D1AB"/>
<stop offset="0.24" stop-color="#2EAD8A"/>
<stop offset="0.35" stop-color="#149373"/>
<stop offset="0.44" stop-color="#058464"/>
<stop offset="0.51" stop-color="#007F60"/>
</linearGradient>
<linearGradient id="paint50_linear_2604_2094" x1="456.881" y1="234.174" x2="456.881" y2="266.171" gradientUnits="userSpaceOnUse">
<stop offset="0.02" stop-color="#7FFFD6"/>
<stop offset="0.13" stop-color="#51D1AB"/>
<stop offset="0.24" stop-color="#2EAD8A"/>
<stop offset="0.35" stop-color="#149373"/>
<stop offset="0.44" stop-color="#058464"/>
<stop offset="0.51" stop-color="#007F60"/>
</linearGradient>
<linearGradient id="paint51_linear_2604_2094" x1="457.717" y1="234.174" x2="457.717" y2="266.17" gradientUnits="userSpaceOnUse">
<stop offset="0.02" stop-color="#7FFFD6"/>
<stop offset="0.13" stop-color="#51D1AB"/>
<stop offset="0.24" stop-color="#2EAD8A"/>
<stop offset="0.35" stop-color="#149373"/>
<stop offset="0.44" stop-color="#058464"/>
<stop offset="0.51" stop-color="#007F60"/>
</linearGradient>
<linearGradient id="paint52_linear_2604_2094" x1="458.22" y1="234.173" x2="458.22" y2="266.17" gradientUnits="userSpaceOnUse">
<stop offset="0.02" stop-color="#7FFFD6"/>
<stop offset="0.13" stop-color="#51D1AB"/>
<stop offset="0.24" stop-color="#2EAD8A"/>
<stop offset="0.35" stop-color="#149373"/>
<stop offset="0.44" stop-color="#058464"/>
<stop offset="0.51" stop-color="#007F60"/>
</linearGradient>
<linearGradient id="paint53_linear_2604_2094" x1="458.384" y1="234.174" x2="458.384" y2="266.17" gradientUnits="userSpaceOnUse">
<stop offset="0.02" stop-color="#7FFFD6"/>
<stop offset="0.13" stop-color="#51D1AB"/>
<stop offset="0.24" stop-color="#2EAD8A"/>
<stop offset="0.35" stop-color="#149373"/>
<stop offset="0.44" stop-color="#058464"/>
<stop offset="0.51" stop-color="#007F60"/>
</linearGradient>
</defs>
</svg>
