<svg width="41" height="36" viewBox="0 0 41 36" fill="none" xmlns="http://www.w3.org/2000/svg">
<path fill-rule="evenodd" clip-rule="evenodd" d="M30 0H7.5C3.375 0 0 3.375 0 7.5C0 10.6875 1.875 13.3125 4.6875 14.4375V7.5C4.6875 6.75 5.0625 6 5.4375 5.4375C5.8125 4.875 6.75 4.6875 7.5 4.6875H30C30.75 4.6875 31.5 5.0625 32.0625 5.4375C32.625 5.8125 32.8125 6.75 32.8125 7.5V14.4375C35.625 13.3125 37.5 10.6875 37.5 7.5C37.5 3.375 34.125 0 30 0ZM30 30V7.5H7.5V30C7.5 32.0625 9.1875 33.75 11.25 33.75H26.25C28.3125 33.75 30 32.0625 30 30ZM17.25 17.625L15.9375 18.9375C15.375 19.5 14.4375 19.5 13.875 18.9375C13.3125 18.375 13.3125 17.4375 13.875 16.875L16.3125 14.4375C17.625 13.125 19.6875 13.125 21 14.4375L23.4375 16.875C24 17.4375 24 18.375 23.4375 18.9375C22.875 19.5 21.9375 19.5 21.375 18.9375L20.0625 17.625V25.5C20.0625 26.25 19.5 27 18.5625 27C17.625 27 17.0625 26.4375 17.0625 25.5V17.625H17.25Z" fill="#8C8C8C"/>
<path d="M7.25 7.375H30.25V29.375C30.25 32.6887 27.5637 35.375 24.25 35.375H13.25C9.93629 35.375 7.25 32.6887 7.25 29.375V7.375Z" fill="#8C8C8C"/>
<path fill-rule="evenodd" clip-rule="evenodd" d="M11.25 21.375C11.25 16.9568 14.8318 13.375 19.25 13.375C23.6682 13.375 27.25 16.9568 27.25 21.375C27.25 25.7932 23.6682 29.375 19.25 29.375C14.8318 29.375 11.25 25.7932 11.25 21.375ZM16.3409 17.0114C16.148 17.0114 15.963 17.088 15.8266 17.2244C15.6903 17.3608 15.6136 17.5458 15.6136 17.7386C15.6136 17.9315 15.6903 18.1165 15.8266 18.2529C15.963 18.3893 16.148 18.4659 16.3409 18.4659H18.5227C18.77 18.4659 19.1569 18.5459 19.4609 18.7655C19.5991 18.8645 19.7315 18.999 19.8282 19.1932H16.3387C16.1458 19.1932 15.9609 19.2698 15.8245 19.4062C15.6881 19.5426 15.6115 19.7276 15.6115 19.9205C15.6115 20.1133 15.6881 20.2983 15.8245 20.4347C15.9609 20.5711 16.1458 20.6477 16.3387 20.6477H19.8282C19.7434 20.8185 19.6174 20.9654 19.4616 21.0754C19.1848 21.2652 18.8583 21.3694 18.5227 21.375H16.3387C16.188 21.3749 16.0409 21.4217 15.9179 21.5089C15.7949 21.596 15.7021 21.7192 15.6521 21.8615C15.6022 22.0037 15.5977 22.1579 15.6393 22.3028C15.6809 22.4477 15.7665 22.5761 15.8842 22.6703L19.5227 25.5794C19.5973 25.6391 19.6829 25.6835 19.7747 25.7101C19.8664 25.7367 19.9625 25.7449 20.0575 25.7344C20.1524 25.7239 20.2444 25.6947 20.3281 25.6487C20.4118 25.6026 20.4856 25.5405 20.5453 25.4659C20.605 25.3913 20.6494 25.3057 20.676 25.2139C20.7026 25.1222 20.7109 25.0261 20.7003 24.9311C20.6898 24.8362 20.6607 24.7442 20.6146 24.6605C20.5685 24.5769 20.5064 24.5031 20.4318 24.4434L18.4122 22.8295H18.5213C19.002 22.8295 19.706 22.6914 20.3104 22.2557C20.8487 21.8703 21.2221 21.2961 21.3562 20.6477H22.1591C22.352 20.6477 22.537 20.5711 22.6734 20.4347C22.8097 20.2983 22.8864 20.1133 22.8864 19.9205C22.8864 19.7276 22.8097 19.5426 22.6734 19.4062C22.537 19.2698 22.352 19.1932 22.1591 19.1932H21.3562C21.3017 18.9395 21.2119 18.6946 21.0893 18.4659H22.1591C22.352 18.4659 22.537 18.3893 22.6734 18.2529C22.8097 18.1165 22.8864 17.9315 22.8864 17.7386C22.8864 17.5458 22.8097 17.3608 22.6734 17.2244C22.537 17.088 22.352 17.0114 22.1591 17.0114H16.3409Z" fill="#FAFAFA"/>
<path d="M37.6036 19.0214C37.4083 18.8262 37.0917 18.8262 36.8964 19.0214L33.7145 22.2034C33.5192 22.3987 33.5192 22.7153 33.7145 22.9105C33.9097 23.1058 34.2263 23.1058 34.4216 22.9105L37.25 20.0821L40.0784 22.9105C40.2737 23.1058 40.5903 23.1058 40.7855 22.9105C40.9808 22.7153 40.9808 22.3987 40.7855 22.2034L37.6036 19.0214ZM37.75 33.375V19.375H36.75V33.375H37.75Z" fill="#8C8C8C"/>
</svg>
