<svg width="22" height="22" viewBox="0 0 22 22" fill="none" xmlns="http://www.w3.org/2000/svg">
<path fill-rule="evenodd" clip-rule="evenodd" d="M0 11C0 4.925 4.925 0 11 0C17.075 0 22 4.925 22 11C22 17.075 17.075 22 11 22C4.925 22 0 17.075 0 11ZM7 5C6.73478 5 6.48043 5.10536 6.29289 5.29289C6.10536 5.48043 6 5.73478 6 6C6 6.26522 6.10536 6.51957 6.29289 6.70711C6.48043 6.89464 6.73478 7 7 7H10C10.34 7 10.872 7.11 11.29 7.412C11.48 7.548 11.662 7.733 11.795 8H6.997C6.73178 8 6.47743 8.10536 6.28989 8.29289C6.10236 8.48043 5.997 8.73478 5.997 9C5.997 9.26522 6.10236 9.51957 6.28989 9.70711C6.47743 9.89464 6.73178 10 6.997 10H11.795C11.6784 10.2348 11.5052 10.4368 11.291 10.588C10.9104 10.849 10.4614 10.9923 10 11H6.997C6.78973 10.9999 6.58754 11.0642 6.41842 11.184C6.24929 11.3039 6.12158 11.4733 6.05295 11.6689C5.98431 11.8645 5.97815 12.0765 6.03531 12.2758C6.09246 12.475 6.21012 12.6516 6.372 12.781L11.375 16.781C11.4776 16.8631 11.5953 16.9241 11.7215 16.9607C11.8476 16.9973 11.9797 17.0087 12.1103 16.9942C12.2409 16.9797 12.3673 16.9396 12.4824 16.8763C12.5975 16.813 12.6989 16.7276 12.781 16.625C12.8631 16.5224 12.9241 16.4047 12.9607 16.2785C12.9973 16.1524 13.0087 16.0202 12.9942 15.8897C12.9797 15.7591 12.9396 15.6327 12.8763 15.5176C12.813 15.4026 12.7276 15.3011 12.625 15.219L9.848 13H9.998C10.659 13 11.627 12.81 12.458 12.211C13.1982 11.681 13.7117 10.8916 13.896 10H15C15.2652 10 15.5196 9.89464 15.7071 9.70711C15.8946 9.51957 16 9.26522 16 9C16 8.73478 15.8946 8.48043 15.7071 8.29289C15.5196 8.10536 15.2652 8 15 8H13.896C13.8211 7.65113 13.6976 7.3145 13.529 7H15C15.2652 7 15.5196 6.89464 15.7071 6.70711C15.8946 6.51957 16 6.26522 16 6C16 5.73478 15.8946 5.48043 15.7071 5.29289C15.5196 5.10536 15.2652 5 15 5H7Z" fill="#8C8C8C"/>
</svg>
