<svg width="24" height="24" viewBox="0 0 21 21" fill="none" xmlns="http://www.w3.org/2000/svg">
<path d="M18.4224 15.2344H16.7747C16.6622 15.2344 16.5568 15.2836 16.4865 15.3703C16.3224 15.5696 16.1466 15.7618 15.9615 15.9446C15.2042 16.7026 14.3072 17.3067 13.3201 17.7235C12.2974 18.1554 11.1982 18.377 10.088 18.375C8.96537 18.375 7.87787 18.1547 6.85599 17.7235C5.86887 17.3067 4.97187 16.7026 4.21458 15.9446C3.45595 15.1891 2.85103 14.2937 2.43333 13.3078C1.99974 12.286 1.78177 11.2008 1.78177 10.0782C1.78177 8.9555 2.00208 7.87035 2.43333 6.84847C2.85052 5.86175 3.45052 4.97347 4.21458 4.21175C4.97865 3.45004 5.86693 2.85004 6.85599 2.43285C7.87787 2.0016 8.96537 1.78129 10.088 1.78129C11.2107 1.78129 12.2982 1.99925 13.3201 2.43285C14.3091 2.85004 15.1974 3.45004 15.9615 4.21175C16.1466 4.39691 16.3201 4.5891 16.4865 4.78597C16.5568 4.87269 16.6646 4.92191 16.7747 4.92191H18.4224C18.5701 4.92191 18.6615 4.75785 18.5794 4.63363C16.7818 1.83988 13.6365 -0.00933952 10.0622 3.54813e-05C4.44661 0.014098 -0.0557286 4.57269 0.000521378 10.1813C0.0567714 15.7008 4.55208 20.1563 10.088 20.1563C13.6529 20.1563 16.7841 18.3094 18.5794 15.5227C18.6591 15.3985 18.5701 15.2344 18.4224 15.2344ZM20.506 9.9305L17.1802 7.3055C17.056 7.20707 16.8755 7.29613 16.8755 7.45316V9.23441H9.51615C9.41302 9.23441 9.32865 9.31879 9.32865 9.42191V10.7344C9.32865 10.8375 9.41302 10.9219 9.51615 10.9219H16.8755V12.7032C16.8755 12.8602 17.0583 12.9493 17.1802 12.8508L20.506 10.2258C20.5284 10.2083 20.5465 10.1859 20.559 10.1603C20.5715 10.1347 20.5779 10.1066 20.5779 10.0782C20.5779 10.0497 20.5715 10.0216 20.559 9.99604C20.5465 9.97045 20.5284 9.94804 20.506 9.9305Z" fill="#9F9F9F"/>
</svg>
