<svg width="22" height="22" viewBox="0 0 22 22" fill="none" xmlns="http://www.w3.org/2000/svg">
<path d="M14.75 7.28399e-07H2.75C2.38879 -0.000262256 2.03107 0.0706891 1.69731 0.208796C1.36355 0.346904 1.06028 0.549457 0.804871 0.804871C0.549457 1.06028 0.346904 1.36355 0.208796 1.69731C0.0706891 2.03107 -0.000262256 2.38879 7.28399e-07 2.75V18.75C-0.000262256 19.1112 0.0706891 19.4689 0.208796 19.8027C0.346904 20.1365 0.549457 20.4397 0.804871 20.6951C1.06028 20.9505 1.36355 21.1531 1.69731 21.2912C2.03107 21.4293 2.38879 21.5003 2.75 21.5H12.24C10.9823 20.7358 10.0094 19.581 9.46964 18.2119C8.92992 16.8428 8.85311 15.3347 9.25096 13.9179C9.64881 12.501 10.4994 11.2534 11.673 10.3653C12.8465 9.47734 14.2784 8.99781 15.75 9C16.3416 8.99839 16.9306 9.07917 17.5 9.24V2.75C17.5003 2.38879 17.4293 2.03107 17.2912 1.69731C17.1531 1.36355 16.9505 1.06028 16.6951 0.804871C16.4397 0.549457 16.1365 0.346904 15.8027 0.208796C15.4689 0.0706891 15.1112 -0.000262256 14.75 7.28399e-07ZM8.75 9.5H3.75C3.55109 9.5 3.36032 9.42098 3.21967 9.28033C3.07902 9.13968 3 8.94891 3 8.75C3 8.55109 3.07902 8.36032 3.21967 8.21967C3.36032 8.07902 3.55109 8 3.75 8H8.75C8.94891 8 9.13968 8.07902 9.28033 8.21967C9.42098 8.36032 9.5 8.55109 9.5 8.75C9.5 8.94891 9.42098 9.13968 9.28033 9.28033C9.13968 9.42098 8.94891 9.5 8.75 9.5ZM10.75 5.5H3.75C3.55109 5.5 3.36032 5.42098 3.21967 5.28033C3.07902 5.13968 3 4.94891 3 4.75C3 4.55109 3.07902 4.36032 3.21967 4.21967C3.36032 4.07902 3.55109 4 3.75 4H10.75C10.9489 4 11.1397 4.07902 11.2803 4.21967C11.421 4.36032 11.5 4.55109 11.5 4.75C11.5 4.94891 11.421 5.13968 11.2803 5.28033C11.1397 5.42098 10.9489 5.5 10.75 5.5Z" fill="white"/>
<path d="M15.75 10C14.6128 10 13.5011 10.3372 12.5555 10.969C11.6099 11.6009 10.8729 12.4989 10.4377 13.5496C10.0025 14.6002 9.88862 15.7564 10.1105 16.8718C10.3324 17.9872 10.88 19.0117 11.6841 19.8159C12.4883 20.62 13.5128 21.1676 14.6282 21.3895C15.7436 21.6114 16.8998 21.4975 17.9504 21.0623C19.0011 20.6271 19.8991 19.8901 20.531 18.9445C21.1628 17.9989 21.5 16.8872 21.5 15.75C21.4981 14.2256 20.8918 12.7641 19.8138 11.6862C18.7359 10.6082 17.2744 10.0019 15.75 10ZM17.78 15.28L15.78 17.28C15.7105 17.3498 15.6279 17.4052 15.537 17.4429C15.446 17.4807 15.3485 17.5002 15.25 17.5002C15.1515 17.5002 15.054 17.4807 14.963 17.4429C14.8721 17.4052 14.7895 17.3498 14.72 17.28L13.72 16.28C13.6463 16.2113 13.5872 16.1285 13.5462 16.0365C13.5052 15.9445 13.4832 15.8452 13.4814 15.7445C13.4796 15.6438 13.4982 15.5438 13.5359 15.4504C13.5736 15.357 13.6297 15.2722 13.701 15.201C13.7722 15.1297 13.857 15.0736 13.9504 15.0359C14.0438 14.9982 14.1438 14.9796 14.2445 14.9814C14.3452 14.9832 14.4445 15.0052 14.5365 15.0462C14.6285 15.0872 14.7113 15.1463 14.78 15.22L15.25 15.689L16.72 14.22C16.7887 14.1463 16.8715 14.0872 16.9635 14.0462C17.0555 14.0052 17.1548 13.9832 17.2555 13.9814C17.3562 13.9796 17.4562 13.9982 17.5496 14.0359C17.643 14.0736 17.7278 14.1297 17.799 14.201C17.8703 14.2722 17.9264 14.357 17.9641 14.4504C18.0018 14.5438 18.0204 14.6438 18.0186 14.7445C18.0168 14.8452 17.9948 14.9445 17.9538 15.0365C17.9128 15.1285 17.8537 15.2113 17.78 15.28Z" fill="white"/>
</svg>
