<svg width="24" height="24" viewBox="0 0 24 24" fill="none" xmlns="http://www.w3.org/2000/svg">
<path d="M14.975 11.125L12.875 9.025L7.725 14.175C7.625 14.275 7.55 14.3877 7.5 14.513C7.45 14.6383 7.425 14.7673 7.425 14.9V16.075C7.425 16.2083 7.475 16.325 7.575 16.425C7.675 16.525 7.79167 16.575 7.925 16.575H9.1C9.23333 16.575 9.36267 16.55 9.488 16.5C9.61333 16.45 9.72567 16.375 9.825 16.275L14.975 11.125ZM15.575 10.525L16.275 9.825C16.475 9.625 16.575 9.39167 16.575 9.125C16.575 8.85833 16.475 8.625 16.275 8.425L15.575 7.725C15.375 7.525 15.1417 7.425 14.875 7.425C14.6083 7.425 14.375 7.525 14.175 7.725L13.475 8.425L15.575 10.525ZM12 22C10.6167 22 9.31667 21.7373 8.1 21.212C6.88333 20.6867 5.825 19.9743 4.925 19.075C4.025 18.175 3.31267 17.1167 2.788 15.9C2.26333 14.6833 2.00067 13.3833 2 12C2 10.6167 2.26267 9.31667 2.788 8.1C3.31333 6.88333 4.02567 5.825 4.925 4.925C5.825 4.025 6.88333 3.31267 8.1 2.788C9.31667 2.26333 10.6167 2.00067 12 2C13.3833 2 14.6833 2.26267 15.9 2.788C17.1167 3.31333 18.175 4.02567 19.075 4.925C19.975 5.825 20.6877 6.88333 21.213 8.1C21.7383 9.31667 22.0007 10.6167 22 12C22 13.3833 21.7373 14.6833 21.212 15.9C20.6867 17.1167 19.9743 18.175 19.075 19.075C18.175 19.975 17.1167 20.6877 15.9 21.213C14.6833 21.7383 13.3833 22.0007 12 22ZM12 20C14.2333 20 16.125 19.225 17.675 17.675C19.225 16.125 20 14.2333 20 12C20 9.76667 19.225 7.875 17.675 6.325C16.125 4.775 14.2333 4 12 4C9.76667 4 7.875 4.775 6.325 6.325C4.775 7.875 4 9.76667 4 12C4 14.2333 4.775 16.125 6.325 17.675C7.875 19.225 9.76667 20 12 20Z" fill="#8C8C8C"/>
</svg>
