<svg width="102" height="100" viewBox="0 0 102 100" fill="none" xmlns="http://www.w3.org/2000/svg">
<rect x="19.2266" y="1.5" width="41.4198" height="74.2789" rx="6.5" stroke="#00BBAB" stroke-width="3"/>
<rect x="26.793" y="14.1216" width="25.7817" height="7.58286" fill="#00BBAB"/>
<rect x="26.793" y="29.2876" width="25.7817" height="7.58286" fill="#00BBAB"/>
<rect x="26.793" y="44.4531" width="25.7817" height="7.58286" fill="#00BBAB"/>
<path d="M4.1453 17.9229L8.2906 22.4827L4.1453 27.0425L0 22.4827L4.1453 17.9229Z" fill="#00BBAB"/>
<path d="M96.9998 90.8804L101.145 95.4402L96.9998 100L92.8545 95.4402L96.9998 90.8804Z" fill="#00BBAB"/>
<path d="M79.5 57.5C78.51 57.4992 77.5422 57.7934 76.72 58.345C76.035 56.4 74.1775 55 72 55C71.01 54.9993 70.0422 55.2935 69.22 55.845C68.535 53.9001 66.6775 52.5 64.5 52.5C63.6219 52.4989 62.7592 52.731 62.0001 53.1726V45C62.0001 42.2425 59.7576 40 57 40C54.2425 40 52 42.2425 52 45V74.2275L45.1275 70.7901C44.0925 70.2725 42.9325 70 41.775 70C39.1401 70 37 72.1425 37 74.79C37 76.0675 37.4975 77.265 38.4 78.1675L54.565 94.3325C58.2175 97.9875 63.0801 100 68.25 100C77.2101 100 84.5001 92.71 84.5001 83.75V62.5C84.5001 59.7425 82.2576 57.5 79.5 57.5ZM82 83.75C82 91.3325 75.83 97.4999 68.2475 97.4999C63.745 97.4999 59.515 95.7474 56.335 92.5625L40.1676 76.3975C39.7376 75.97 39.5001 75.3975 39.5001 74.775C39.5001 73.5201 40.5201 72.5001 41.775 72.5001C42.5507 72.5012 43.3157 72.6817 44.01 73.0275L52.6926 77.3676C53.0801 77.5601 53.5425 77.5401 53.9076 77.3126C54.0886 77.2005 54.238 77.0441 54.3417 76.8582C54.4453 76.6723 54.4999 76.463 54.5001 76.2501V45C54.5001 43.6225 55.62 42.5001 57 42.5001C58.38 42.5001 59.5 43.6226 59.5 45V68.7501C59.5 69.4401 60.06 70.0001 60.75 70.0001C61.44 70.0001 62.0001 69.4401 62.0001 68.7501V57.5001C62.0001 56.1225 63.12 55.0001 64.5 55.0001C65.88 55.0001 67 56.1227 67 57.5001V68.7501C67 69.4401 67.56 70.0001 68.25 70.0001C68.94 70.0001 69.5001 69.4401 69.5001 68.7501V60C69.5001 58.6225 70.62 57.5001 72 57.5001C73.38 57.5001 74.5 58.6226 74.5 60V68.7501C74.5 69.4401 75.06 70.0001 75.75 70.0001C76.44 70.0001 77.0001 69.4401 77.0001 68.7501V62.5C77.0001 61.1225 78.12 60 79.5 60C80.88 60 82 61.1226 82 62.5V83.75Z" fill="#00BBAB"/>
</svg>
