<svg width="129" height="131" viewBox="0 0 129 131" fill="none" xmlns="http://www.w3.org/2000/svg">
<path d="M125.177 26.2002C126.784 26.2002 128.088 27.5044 128.088 29.1113C128.088 30.7182 126.784 32.0224 125.177 32.0224C123.57 32.0224 122.266 30.7182 122.266 29.1113C122.266 27.5044 123.57 26.2002 125.177 26.2002Z" fill="#00BBAB"/>
<path d="M125.177 101.889C126.784 101.889 128.088 103.193 128.088 104.8C128.088 106.407 126.784 107.711 125.177 107.711C123.57 107.711 122.266 106.407 122.266 104.8C122.266 103.193 123.57 101.889 125.177 101.889Z" fill="#00BBAB"/>
<path d="M110.623 119.356C113.84 119.356 116.445 121.961 116.445 125.178C116.445 128.395 113.84 131 110.623 131C107.406 131 104.801 128.395 104.801 125.178C104.801 121.961 107.406 119.356 110.623 119.356Z" fill="#007E3A"/>
<path d="M104.798 0C106.405 0 107.709 1.30418 107.709 2.91111C107.709 4.51804 106.405 5.82222 104.798 5.82222C103.191 5.82222 101.887 4.51804 101.887 2.91111C101.887 1.30418 103.191 0 104.798 0Z" fill="#00BBAB"/>
<path d="M64.0425 8.7334C31.8864 8.7334 5.82031 34.7995 5.82031 66.9556C5.82031 99.1118 31.8864 125.178 64.0425 125.178C96.1987 125.178 122.265 99.1118 122.265 66.9556C122.265 34.7995 96.1987 8.7334 64.0425 8.7334Z" fill="#00BB1E"/>
<path d="M64.0456 110.622C39.9299 110.622 20.3789 91.0714 20.3789 66.9557C20.3789 42.8401 39.9299 23.2891 64.0456 23.2891C88.1612 23.2891 107.712 42.8401 107.712 66.9557C107.712 91.0714 88.1612 110.622 64.0456 110.622Z" fill="white"/>
<path d="M85.6866 53.1918C87.9605 55.4653 87.9605 59.1508 85.6866 61.4244L65.1021 82.0118L56.8695 90.2444L48.634 82.0118L42.4595 75.8344C41.3245 74.699 40.7539 73.2085 40.7539 71.7181C40.7539 70.2276 41.3245 68.7371 42.4595 67.6015C44.7334 65.3279 48.4189 65.3279 50.6922 67.6015L56.8695 73.7759L77.4543 53.1918C78.5925 52.0564 80.0801 51.4858 81.5706 51.4858C83.0611 51.4858 84.5487 52.0564 85.6866 53.1918Z" fill="#07CC66"/>
<path d="M20.376 125.178C21.9829 125.178 23.2871 126.482 23.2871 128.089C23.2871 129.696 21.9829 131 20.376 131C18.7687 131 17.4648 129.696 17.4648 128.089C17.4648 126.482 18.7687 125.178 20.376 125.178Z" fill="#00BBAB"/>
<path d="M13.0981 5.82227C17.1183 5.82227 20.3759 9.0798 20.3759 13.1C20.3759 17.1203 17.1183 20.3778 13.0981 20.3778C9.07755 20.3778 5.82031 17.1203 5.82031 13.1C5.82031 9.0798 9.07755 5.82227 13.0981 5.82227Z" fill="#007E3A"/>
<path d="M2.91111 29.1108C4.51804 29.1108 5.82222 30.415 5.82222 32.022C5.82222 33.6289 4.51804 34.9331 2.91111 34.9331C1.30389 34.9331 0 33.6289 0 32.022C0 30.415 1.30389 29.1108 2.91111 29.1108Z" fill="#00BBAB"/>
<path d="M2.91111 101.889C4.51804 101.889 5.82222 103.193 5.82222 104.8C5.82222 106.407 4.51804 107.711 2.91111 107.711C1.30389 107.711 0 106.407 0 104.8C0 103.193 1.30389 101.889 2.91111 101.889Z" fill="#00BBAB"/>
</svg>
