<svg width="146" height="225" viewBox="0 0 146 225" fill="none" xmlns="http://www.w3.org/2000/svg">
<path d="M145.669 113.376L135.885 101.08C135.322 100.371 134.207 100.547 133.89 101.401L132.308 105.589C115.106 100.413 105.699 115.552 105.699 115.552L112.266 120.237C119.432 109.037 129.636 112.655 129.636 112.655L128.251 116.316C127.928 117.164 128.647 118.049 129.534 117.897L144.95 115.279C145.831 115.128 146.226 114.079 145.663 113.376H145.669Z" fill="#02978A"/>
<path d="M104.335 36.9838C109.316 26.521 104.873 14.0009 94.4101 9.0194C83.9473 4.03786 71.4272 8.48131 66.4456 18.9441C61.4641 29.4069 65.9076 41.927 76.3704 46.9085C86.8332 51.8901 99.3533 47.4466 104.335 36.9838Z" fill="#02978A"/>
<path d="M104.521 27.8627C105.471 16.3135 96.8779 6.18132 85.3287 5.2318C73.7795 4.28228 63.6473 12.875 62.6978 24.4242C61.7483 35.9734 70.341 46.1057 81.8902 47.0552C93.4394 48.0047 103.572 39.412 104.521 27.8627Z" fill="#007E72"/>
<path d="M88.7262 40.6508C97.0338 37.6632 101.406 28.6722 98.4918 20.5689C95.5776 12.4656 86.4806 8.31859 78.1731 11.3062C69.8655 14.2939 65.4933 23.2848 68.4074 31.3881C71.3216 39.4914 80.4186 43.6385 88.7262 40.6508Z" fill="#00DCCD"/>
<path d="M88.7013 40.5798C80.5419 43.516 71.5606 39.4006 68.4219 31.3781C68.4695 31.5211 68.5112 31.664 68.5648 31.8129C71.5546 40.1153 80.7087 44.4273 89.011 41.4375C97.3134 38.4476 101.625 29.2936 98.6356 20.9912C98.582 20.8483 98.5284 20.7053 98.4688 20.5684C101.155 28.7576 96.8608 37.6436 88.6954 40.5798H88.7013Z" fill="#3ABFB4"/>
<path d="M78.1897 11.3591C86.3491 8.42292 95.3245 12.5384 98.4691 20.5608C98.4215 20.4179 98.3798 20.2749 98.3262 20.1261C95.3364 11.8237 86.1823 7.51169 77.88 10.5015C69.5776 13.4913 65.2656 22.6454 68.2554 30.9477C68.309 31.0907 68.3626 31.2336 68.4222 31.3706C65.7361 23.1814 70.0302 14.2953 78.1956 11.3591H78.1897Z" fill="#02978A"/>
<path d="M92.8253 27.4292C92.063 25.3149 90.5681 24.3083 88.8826 24.2845C89.7105 23.2303 89.9785 21.7414 89.3769 20.0738C88.6325 17.9952 86.941 16.941 84.5766 17.2329L83.6534 14.6719L81.289 15.5236L82.1466 17.9059L80.8006 18.3883L79.943 16.006L77.5785 16.8576L78.4362 19.24L76.2802 20.0142L74.7793 20.5562L75.631 22.9206L77.1318 22.3787L81.2711 33.8912L79.6094 34.4868L80.4611 36.8512L82.1228 36.2557L84.2788 35.4814L85.2734 38.2508L87.6378 37.3992L86.6432 34.6297L87.9892 34.1473L88.9839 36.9168L91.3483 36.0651L90.318 33.2063C92.8551 31.8722 93.6889 29.8353 92.8194 27.4292H92.8253ZM80.1276 21.3007L83.3318 20.1452C85.1126 19.508 86.3871 19.8832 86.9291 21.396C87.4651 22.879 86.7207 23.9867 84.9458 24.624L81.3128 25.9343L79.6988 21.4555L80.1276 21.3007ZM87.9892 31.4732L84.112 32.8668L83.838 32.9681L82.1526 28.2809L86.3037 26.786C88.2394 26.0891 89.5437 26.4346 90.1333 28.0545C90.717 29.6805 89.9308 30.7763 87.9952 31.4732H87.9892Z" fill="#02978A"/>
<path d="M91.6769 27.8413C90.9146 25.727 89.4197 24.7205 87.7342 24.6966C88.562 23.6425 88.83 22.1535 88.2285 20.4859C87.484 18.4073 85.7926 17.3531 83.4281 17.645L82.505 15.084L80.1405 15.9357L80.9982 18.318L79.6522 18.8004L78.7945 16.4181L76.4301 17.2698L77.2877 19.6521L75.1317 20.4263L73.6309 20.9683L74.4825 23.3328L75.9834 22.7908L80.1227 34.3033L78.461 34.8989L79.3127 37.2633L80.9743 36.6678L83.1303 35.8935L84.125 38.663L86.4894 37.8113L85.4948 35.0418L86.8408 34.5594L87.8354 37.3289L90.1999 36.4772L89.1695 33.6184C91.7067 32.2843 92.5405 30.2474 91.6709 27.8413H91.6769ZM78.9792 21.7128L82.1834 20.5574C83.9642 19.9201 85.2387 20.2953 85.7807 21.8081C86.3167 23.2911 85.5722 24.3988 83.7974 25.0361L80.1644 26.3464L78.5503 21.8676L78.9792 21.7128ZM86.8408 31.8853L82.9636 33.2789L82.6896 33.3802L81.0041 28.693L85.1553 27.1981C87.0909 26.5012 88.3953 26.8467 88.9849 28.4666C89.5685 30.0926 88.7824 31.1884 86.8468 31.8853H86.8408Z" fill="#007E72"/>
<path d="M78.7912 16.4167C78.8448 16.5656 77.9633 17.0361 76.5518 17.6317L76.7841 17.1373C77.07 17.8103 77.3856 18.6144 77.7132 19.4958L77.874 19.9246L77.4333 20.0854C77.2308 20.1569 77.0164 20.2403 76.796 20.3177C75.6763 20.7227 74.6281 21.0682 73.7466 21.3302L73.9789 20.8359C74.4137 22.295 74.6162 23.2778 74.4673 23.3314C74.3184 23.385 73.8479 22.4975 73.2523 21.092L73.1094 20.7585L73.4846 20.5976C74.3303 20.2403 75.3607 19.8413 76.4804 19.4363C76.7007 19.3588 76.9151 19.2814 77.1176 19.2099L76.8377 19.7996C76.528 18.9181 76.26 18.0903 76.0515 17.3934L75.9384 17.0063L76.2838 16.9051C77.7489 16.4703 78.7257 16.2678 78.7793 16.4167H78.7912Z" fill="#3ABFB4"/>
<path d="M83.0146 14.9445C83.1039 15.1887 82.5321 15.6116 81.74 15.8975C80.9479 16.1834 80.2392 16.2191 80.1498 15.9749C80.0605 15.7307 80.6322 15.3079 81.4244 15.022C82.2165 14.7361 82.9252 14.7004 83.0146 14.9445Z" fill="#3ABFB4"/>
<path d="M79.9358 34.1821C79.6916 34.2715 78.5898 31.8117 77.4701 28.6969C76.3504 25.582 75.6357 22.9853 75.8799 22.8959C76.1241 22.8066 77.2259 25.2663 78.3456 28.3812C79.4653 31.4961 80.18 34.0928 79.9358 34.1821Z" fill="#3ABFB4"/>
<path d="M85.0036 24.6286C85.0929 24.8727 84.14 25.4326 82.8774 25.8852C81.6147 26.3379 80.5248 26.5106 80.4355 26.2664C80.3462 26.0222 81.2991 25.4624 82.5617 25.0097C83.8243 24.5571 84.9142 24.3844 85.0036 24.6286Z" fill="#3ABFB4"/>
<path d="M87.6188 31.6266C87.7082 31.8708 86.7552 32.4306 85.4926 32.8833C84.23 33.3359 83.1401 33.5086 83.0507 33.2645C82.9614 33.0203 83.9143 32.4604 85.1769 32.0078C86.4396 31.5551 87.5295 31.3824 87.6188 31.6266Z" fill="#3ABFB4"/>
<path d="M103.715 72.0363C105.466 72.5425 106.919 73.7694 108.021 75.2167C108.61 75.9969 109.146 76.8962 109.123 77.873C109.105 78.8497 108.319 79.8622 107.342 79.7967C106.764 79.761 106.27 79.3679 105.847 78.9629C104.834 77.9861 103.876 76.7354 102.476 76.5806C101.678 76.4912 100.82 76.7831 100.1 76.4257C99.3968 76.0803 99.0871 75.181 99.2598 74.4127C99.4325 73.6503 100.004 73.025 100.665 72.5961C100.665 72.5961 101.946 71.5241 103.709 72.0303L103.715 72.0363Z" fill="#008375"/>
<path d="M105.931 64.2932C105.681 65.9966 107.396 66.9793 108.641 66.9614C109.879 66.9436 111.011 66.2944 112.077 65.6631C114.513 64.2218 117.05 62.6852 118.527 60.2731C118.968 59.5524 119.313 58.7365 119.308 57.8908C119.308 57.0451 118.908 56.1636 118.164 55.7586C117.283 55.2821 116.193 55.5561 115.258 55.9135C112.506 56.9617 109.993 58.6352 107.968 60.7734C107.021 61.768 106.145 62.9294 105.931 64.2873" fill="#008375"/>
<path d="M102.566 63.9069C104.222 63.7163 105.645 62.5073 106.395 61.0183C107.146 59.5294 107.289 57.8022 107.146 56.1405C106.979 54.193 106.425 52.2812 105.532 50.548C105.18 49.8631 104.763 49.1961 104.156 48.7196C103.548 48.2491 102.721 48.0049 101.994 48.2551C100.922 48.6243 100.451 49.8572 100.166 50.959C99.6594 52.8946 99.3139 54.872 99.1174 56.8671C98.9625 58.4692 98.9208 60.1607 99.6236 61.6079C100.32 63.0612 101.506 64.0856 102.804 63.8712" fill="#008375"/>
<path d="M91.2617 79.7365C91.2617 79.7365 91.4523 79.6055 91.768 79.3315C92.1194 79.0218 92.566 78.6347 93.0961 78.1761C93.6619 77.6937 94.3409 77.1339 95.1449 76.58C95.9489 76.0261 96.8899 75.496 97.9024 75.0195C98.9268 74.555 99.9512 74.2215 100.91 74.0904C101.869 73.9535 102.756 74.0309 103.447 74.2513C104.144 74.4657 104.662 74.7754 104.996 75.0076C105.323 75.2578 105.514 75.3948 105.526 75.3769C105.538 75.365 105.371 75.2042 105.061 74.9243C104.74 74.6562 104.222 74.3168 103.507 74.0726C102.792 73.8224 101.869 73.7152 100.88 73.8463C99.8857 73.9713 98.8315 74.3049 97.7952 74.7813C96.7589 75.2697 95.8179 75.8117 95.0079 76.3834C94.1979 76.9552 93.5249 77.5388 92.977 78.0391C92.4291 78.5394 92.0002 78.9623 91.7025 79.2601C91.4106 79.5579 91.2558 79.7246 91.2677 79.7425L91.2617 79.7365Z" fill="#263238"/>
<path d="M92.276 78.839C92.276 78.839 92.3594 78.7735 92.4904 78.6365C92.6452 78.4757 92.8358 78.2673 93.0741 78.0171C93.5803 77.4811 94.3129 76.7009 95.2479 75.7658C97.1061 73.8898 99.2264 71.978 102.294 69.3693C105.182 66.9155 108.601 64.1104 110.983 62.4427C111.519 62.0556 112.013 61.7221 112.448 61.4302C112.883 61.1384 113.258 60.8823 113.568 60.6858C113.86 60.4952 114.092 60.3403 114.283 60.2212C114.443 60.114 114.527 60.0485 114.521 60.0425C114.521 60.0366 114.426 60.0783 114.253 60.1736C114.056 60.2867 113.812 60.4237 113.514 60.5964C113.193 60.7811 112.812 61.0193 112.365 61.3052C111.918 61.5851 111.418 61.9127 110.87 62.2879C108.672 63.7649 105.748 65.9686 102.669 68.5831C99.5957 71.1977 96.9394 73.723 95.1109 75.6348C94.1938 76.5877 93.4731 77.3858 92.9907 77.9457C92.7703 78.2137 92.5857 78.4281 92.4428 78.6008C92.3177 78.7497 92.2581 78.8331 92.2641 78.839H92.276Z" fill="#263238"/>
<path d="M97.1282 73.7219C97.1282 73.7219 97.3545 73.5016 97.7357 73.0727C98.105 72.632 98.6112 71.9828 99.1889 71.1311C99.7607 70.2795 100.41 69.2432 101.029 68.0401C101.321 67.4981 102.024 66.1938 102.816 64.014C103.912 61.0778 104.335 58.225 104.287 56.1762C104.311 55.664 104.227 55.1994 104.198 54.7944C104.174 54.5919 104.162 54.4013 104.132 54.2286C104.096 54.0619 104.061 53.907 104.031 53.7641C103.912 53.2042 103.834 52.8945 103.817 52.9005C103.745 52.9124 104.102 54.1452 104.096 56.1762C104.091 58.2011 103.65 61.0123 102.56 63.9246C101.982 65.5148 101.375 66.8489 100.809 67.9329C100.201 69.136 99.576 70.1723 99.0281 71.0299C98.4742 71.8816 97.9918 72.5546 97.6463 73.0072C97.295 73.4539 97.1044 73.71 97.1222 73.7219H97.1282Z" fill="#263238"/>
<path d="M80.8202 224.994L14.4012 224.685C6.41453 224.649 -0.035587 218.145 0.000147768 210.159L0.702931 43.6406C0.738666 35.6479 7.24239 29.1978 15.241 29.2335L81.66 29.5432C89.6467 29.579 96.0968 36.0827 96.0611 44.0754L95.3583 210.593C95.3226 218.586 88.8188 225.036 80.8202 225V224.994Z" fill="#00524C"/>
<path d="M82.3447 35.2844L69.4683 35.2248C67.7411 35.2189 66.3355 36.6721 66.3296 38.4767L66.3176 40.8114C66.3117 42.616 64.9061 44.0752 63.1789 44.0632L38.0753 43.9501C36.3481 43.9441 34.9544 42.473 34.9604 40.6684L34.9723 38.3338C34.9783 36.5292 33.5846 35.0581 31.8574 35.0521L27.331 35.0283L16.0627 34.9747C10.4642 34.9509 5.90805 39.4654 5.88423 45.0638L5.19931 207.597C5.17549 213.19 9.68998 217.746 15.2825 217.776L81.5704 218.08C87.1689 218.103 91.725 213.589 91.7489 207.99L92.4338 45.4569C92.4576 39.8644 87.9431 35.3082 82.3506 35.2784L82.3447 35.2844Z" fill="#3ABFB4"/>
<path d="M64.7931 101.53C77.5918 101.53 87.9671 91.1543 87.9671 78.3556C87.9671 65.557 77.5918 55.1816 64.7931 55.1816C51.9945 55.1816 41.6191 65.557 41.6191 78.3556C41.6191 91.1543 51.9945 101.53 64.7931 101.53Z" fill="#02978A"/>
<path d="M79.2141 92.7283C88.2641 83.6783 88.2641 69.0053 79.2141 59.9553C70.1641 50.9053 55.4912 50.9053 46.4412 59.9553C37.3912 69.0053 37.3912 83.6783 46.4412 92.7283C55.4912 101.778 70.1641 101.778 79.2141 92.7283Z" fill="#007E72"/>
<path d="M68.4842 92.3446C77.661 89.0426 82.4902 79.1122 79.2706 70.1645C76.051 61.2168 66.0017 56.64 56.825 59.9421C47.6482 63.2441 42.819 73.1745 46.0386 82.1222C49.2582 91.0699 59.3075 95.6466 68.4842 92.3446Z" fill="#00DCCD"/>
<path d="M68.4487 92.2856C59.4316 95.5315 49.5212 90.9813 46.043 82.1191C46.0966 82.2799 46.1442 82.4407 46.2038 82.5956C49.5033 91.7675 59.6162 96.5321 68.7881 93.2326C77.9601 89.9331 82.7247 79.8202 79.4252 70.6482C79.3656 70.4874 79.3061 70.3326 79.2406 70.1777C82.2125 79.2246 77.4598 89.0397 68.4487 92.2856Z" fill="#3ABFB4"/>
<path d="M56.8411 60.0127C65.8582 56.7668 75.7686 61.3171 79.2468 70.1793C79.1932 70.0185 79.1455 69.8577 79.086 69.7028C75.7865 60.5309 65.6735 55.7663 56.5016 59.0658C47.3297 62.3653 42.5651 72.4782 45.8646 81.6501C45.9241 81.8109 45.9837 81.9658 46.0492 82.1206C43.0773 73.0738 47.83 63.2586 56.8411 60.0127Z" fill="#02978A"/>
<path d="M73.0044 77.7603C72.1647 75.4257 70.509 74.3179 68.6508 74.2881C69.562 73.1208 69.8598 71.477 69.1927 69.6366C68.3649 67.3437 66.5067 66.1763 63.8921 66.4979L62.8736 63.6689L60.259 64.61L61.206 67.2424L59.723 67.7784L58.7761 65.146L56.1615 66.087L57.1084 68.7195L54.7261 69.5771L53.0645 70.1727L54.0055 72.7873L55.6671 72.1917L60.2412 84.9073L58.4068 85.5684L59.3478 88.183L61.1822 87.5219L63.5645 86.6643L64.6663 89.7255L67.2809 88.7845L66.1791 85.7232L67.6621 85.1872L68.7639 88.2485L71.3785 87.3075L70.241 84.145C73.0402 82.6679 73.9633 80.4166 73.0044 77.7603ZM58.9786 70.9946L62.5163 69.72C64.4817 69.0113 65.8873 69.4341 66.4888 71.1018C67.0784 72.7396 66.2625 73.9606 64.2971 74.6693L60.2829 76.1166L58.5021 71.1673L58.9786 70.9946ZM67.6621 82.2331L63.3799 83.7757L63.0761 83.8829L61.212 78.7073L65.7979 77.0576C67.9361 76.2893 69.3774 76.6645 70.0265 78.4631C70.6698 80.2558 69.8002 81.4708 67.6621 82.2391V82.2331Z" fill="#02978A"/>
<path d="M71.7349 78.2184C70.8951 75.8837 69.2394 74.7759 67.3812 74.7461C68.2925 73.5788 68.5903 71.935 67.9232 70.0947C67.0953 67.8017 65.2371 66.6343 62.6225 66.956L61.6041 64.127L58.9895 65.068L59.9365 67.7004L58.4535 68.2364L57.5065 65.604L54.8919 66.545L55.8389 69.1775L53.4566 70.0351L51.7949 70.6307L52.7359 73.2453L54.3976 72.6497L58.9716 85.3653L57.1373 86.0264L58.0783 88.641L59.9127 87.9799L62.295 87.1223L63.3968 90.1835L66.0114 89.2425L64.9096 86.1812L66.3926 85.6452L67.4944 88.7065L70.109 87.7655L68.9714 84.603C71.7706 83.1259 72.6938 80.8746 71.7349 78.2184ZM57.709 71.4526L61.2468 70.178C63.2122 69.4693 64.6177 69.8922 65.2193 71.5598C65.8089 73.1976 64.993 74.4186 63.0275 75.1273L59.0133 76.5746L57.2326 71.6253L57.709 71.4526ZM66.3926 82.6912L62.1104 84.2337L61.8066 84.3409L59.9424 79.1653L64.5284 77.5156C66.6665 76.7473 68.1078 77.1225 68.757 78.9211C69.4062 80.7198 68.5307 81.9288 66.3926 82.6971V82.6912Z" fill="#007E72"/>
<path d="M57.5089 65.6036C57.5625 65.7525 56.5798 66.2588 55.0253 66.908L55.2576 66.4136C55.5673 67.1581 55.9187 68.0515 56.276 69.0163L56.4368 69.4451L55.9961 69.6059C55.7698 69.6893 55.5315 69.7727 55.2933 69.862C54.0545 70.3087 52.8991 70.6899 51.9283 70.9877L52.1606 70.4933C52.6489 72.1014 52.8872 73.1854 52.7383 73.239C52.5894 73.2926 52.0831 72.3039 51.434 70.7554L51.291 70.4159L51.6662 70.2611C52.6013 69.8739 53.7388 69.4332 54.9776 68.9865C55.2218 68.9032 55.4601 68.8138 55.6804 68.7364L55.4005 69.326C55.061 68.3493 54.7632 67.438 54.525 66.6697L54.4059 66.2826L54.7573 66.1754C56.3713 65.687 57.4493 65.4488 57.5029 65.5977L57.5089 65.6036Z" fill="#3ABFB4"/>
<path d="M62.1709 63.9796C62.2602 64.2238 61.6229 64.6705 60.7474 64.9861C59.8719 65.3018 59.0977 65.3613 59.0084 65.1171C58.919 64.8729 59.5563 64.4263 60.4318 64.1106C61.3073 63.795 62.0815 63.7354 62.1709 63.9796Z" fill="#3ABFB4"/>
<path d="M58.7703 85.2225C58.5262 85.3118 57.329 82.59 56.0902 79.1476C54.8514 75.7051 54.0414 72.8464 54.2856 72.757C54.5298 72.6677 55.7269 75.3895 56.9657 78.8319C58.2045 82.2744 59.0145 85.1331 58.7703 85.2225Z" fill="#3ABFB4"/>
<path d="M64.3623 74.6736C64.4516 74.9178 63.3915 75.5194 61.9979 76.0197C60.6042 76.5199 59.4071 76.7284 59.3178 76.4902C59.2284 76.246 60.2886 75.6444 61.6822 75.1442C63.0759 74.6439 64.273 74.4354 64.3623 74.6736Z" fill="#3ABFB4"/>
<path d="M67.249 82.4002C67.3384 82.6444 66.2782 83.2459 64.8846 83.7462C63.4909 84.2465 62.2938 84.455 62.2045 84.2167C62.1151 83.9725 63.1753 83.371 64.5689 82.8707C65.9626 82.3704 67.1597 82.162 67.249 82.4002Z" fill="#3ABFB4"/>
<path d="M37.3354 70.0893C37.4902 70.5836 37.3294 71.1673 36.9363 71.5067C36.5432 71.8462 35.9417 71.9236 35.4772 71.6914C34.5897 71.2566 34.4647 70.0416 34.6255 69.0708C34.7863 68.1 35.1019 67.0578 34.685 66.1644C34.3634 65.4795 33.6845 65.0507 33.1484 64.5206C32.2193 63.5915 31.7131 62.2217 31.9215 60.9233C32.13 59.6249 33.0889 58.4457 34.3515 58.0764C35.638 57.7012 37.2401 58.0764 38.193 57.1295C38.8839 56.4445 38.9136 55.3308 39.4437 54.5149C40.2656 53.2463 42.0345 53.0259 43.5353 53.2106C45.0362 53.3952 46.5668 53.8597 48.026 53.4786C49.2469 53.1569 50.2416 52.2934 51.3851 51.7514C53.8567 50.5841 57.0431 51.1618 58.9549 53.1212C60.8607 55.0807 61.3491 58.2849 60.1103 60.7268C59.6636 61.6023 58.7822 64.1335 55.971 64.1335" fill="#263238"/>
<path d="M36.752 59.59L36.7936 61.6031L37.1986 91.7513C37.2463 95.2533 40.2897 97.999 44.0359 97.9215C47.8178 97.8441 50.891 94.9138 50.9029 91.3761C50.9148 87.6656 50.9922 83.7586 50.9922 83.7586C50.9922 83.7586 55.7748 82.9665 56.7634 76.7249C57.2577 73.6219 57.1029 68.5356 56.8408 64.3785C56.6026 60.6383 53.3031 57.845 49.5748 58.2381L36.752 59.596V59.59Z" fill="#FFBE9D"/>
<path d="M55.5656 67.9162C55.5834 68.3391 55.238 68.7024 54.7913 68.7262C54.3506 68.75 53.9813 68.4284 53.9694 68.0056C53.9515 67.5827 54.297 67.2194 54.7377 67.1956C55.1784 67.1718 55.5477 67.4934 55.5656 67.9162Z" fill="#263238"/>
<path d="M55.7459 67.0234C55.6447 67.1306 55.0432 66.6779 54.1796 66.6839C53.3219 66.672 52.6906 67.1187 52.5953 67.0114C52.5477 66.9638 52.6489 66.7792 52.9229 66.5767C53.1909 66.3742 53.6555 66.1836 54.1915 66.1836C54.7275 66.1836 55.1801 66.3861 55.4362 66.5886C55.6983 66.7911 55.7936 66.9817 55.74 67.0293L55.7459 67.0234Z" fill="#263238"/>
<path d="M46.9523 67.9153C46.9702 68.3381 46.6247 68.7014 46.178 68.7252C45.7373 68.7491 45.368 68.4275 45.3561 68.0046C45.3383 67.5817 45.6837 67.2184 46.1244 67.1946C46.5652 67.1708 46.9344 67.4924 46.9523 67.9153Z" fill="#263238"/>
<path d="M47.283 67.1767C47.1818 67.2839 46.5743 66.8312 45.7167 66.8372C44.859 66.8253 44.2277 67.272 44.1324 67.1648C44.0848 67.1171 44.186 66.9325 44.46 66.73C44.728 66.5335 45.1926 66.3369 45.7286 66.3369C46.2646 66.3369 46.7172 66.5394 46.9733 66.7419C47.2354 66.9444 47.3247 67.135 47.2771 67.1826L47.283 67.1767Z" fill="#263238"/>
<path d="M50.4024 73.5628C50.4024 73.5151 50.9324 73.4198 51.802 73.3126C52.0223 73.2888 52.2308 73.2471 52.2665 73.0982C52.3201 72.9374 52.2248 72.7051 52.1176 72.449C51.9092 71.919 51.6948 71.3591 51.4685 70.7755C50.5632 68.3931 49.914 66.4337 50.0093 66.398C50.1046 66.3622 50.9146 68.2681 51.8198 70.6504C52.0342 71.24 52.2427 71.7999 52.4452 72.3359C52.5286 72.586 52.6715 72.8719 52.5584 73.1995C52.4988 73.3662 52.338 73.4853 52.1951 73.5211C52.0521 73.5628 51.933 73.5687 51.8198 73.5747C50.9443 73.6223 50.4083 73.6283 50.4024 73.5747V73.5628Z" fill="#263238"/>
<path d="M50.9986 83.7519C50.9986 83.7519 46.7997 84.0199 42.6426 81.5244C42.6426 81.5244 44.6676 85.8126 50.9152 85.223L50.9986 83.7519Z" fill="#A36957"/>
<path d="M47.8706 74.1573C48.0135 74.1514 48.0135 75.0864 48.8116 75.7475C49.6097 76.4146 50.6043 76.3074 50.6162 76.4384C50.6281 76.4979 50.3958 76.6171 49.973 76.629C49.562 76.6409 48.9605 76.5099 48.4662 76.1049C47.9778 75.6999 47.7693 75.1579 47.7396 74.7708C47.7038 74.3777 47.811 74.1514 47.8706 74.1514V74.1573Z" fill="#263238"/>
<path d="M47.5023 63.8056C47.4189 64.0378 46.5554 63.9306 45.5488 64.0498C44.5363 64.151 43.7204 64.4488 43.5894 64.2344C43.5298 64.1331 43.6727 63.9128 44.0003 63.6865C44.3279 63.4601 44.846 63.2457 45.4535 63.1802C46.061 63.1147 46.6149 63.21 46.9842 63.3589C47.3534 63.5078 47.544 63.6924 47.5023 63.8056Z" fill="#263238"/>
<path d="M55.4236 64.5268C55.2747 64.7234 54.6791 64.5209 53.9644 64.509C53.2498 64.4732 52.6482 64.64 52.5112 64.4375C52.4517 64.3363 52.547 64.1397 52.809 63.9551C53.0711 63.7705 53.5059 63.6216 53.9942 63.6335C54.4826 63.6513 54.9114 63.8241 55.1556 64.0266C55.4057 64.2291 55.4891 64.4316 55.4236 64.5268Z" fill="#263238"/>
<path d="M57.0561 61.6088C57.0561 61.6088 53.8697 63.2764 49.5935 61.311C46.7883 60.0186 43.5424 59.4469 42.8515 60.0246C42.1607 60.6023 42.1011 63.4551 39.3912 64.3723C39.3912 64.3723 39.7486 69.798 37.5807 69.673C35.4068 69.5479 35.7344 58.6547 35.7344 58.6547L41.708 58.3331L47.4554 57.0586L52.9287 57.6542L57.1812 58.6726L57.0561 61.6029V61.6088Z" fill="#263238"/>
<path d="M35.5852 57.1003C35.5554 57.0169 36.0676 56.8264 36.6632 57.0408C37.2648 57.2552 37.5387 57.7257 37.4613 57.7733C37.3898 57.8329 37.0563 57.5232 36.556 57.3505C36.0557 57.1658 35.6031 57.1897 35.5852 57.1003Z" fill="#263238"/>
<path d="M37.3831 55.2648C37.4843 55.2708 37.4486 55.908 37.5618 56.6466C37.669 57.3851 37.9906 57.9211 37.9132 57.9747C37.8536 58.0343 37.3652 57.5221 37.2402 56.7002C37.121 55.8902 37.3057 55.2529 37.3831 55.2648Z" fill="#263238"/>
<path d="M37.9758 67.4437C37.8805 67.3961 34.1045 66.1156 34.0628 70.0286C34.0211 73.9355 37.952 73.1732 37.9639 73.06C37.9698 72.9469 37.9758 67.4497 37.9758 67.4497V67.4437Z" fill="#FFBE9D"/>
<path d="M36.7781 71.5639C36.7781 71.5639 36.7067 71.6116 36.5935 71.6652C36.4803 71.7128 36.2898 71.7485 36.0873 71.6652C35.6763 71.5103 35.3368 70.8492 35.3249 70.1464C35.319 69.7891 35.3964 69.4556 35.5274 69.1756C35.6525 68.8898 35.8371 68.6932 36.0456 68.6575C36.254 68.6098 36.397 68.7349 36.4446 68.8481C36.4982 68.9553 36.4684 69.0327 36.4922 69.0446C36.5042 69.0565 36.5756 68.9791 36.5459 68.8183C36.528 68.7409 36.4863 68.6456 36.397 68.5741C36.3017 68.4967 36.1647 68.455 36.0217 68.4729C35.718 68.4907 35.444 68.7647 35.307 69.0744C35.1462 69.3841 35.0509 69.7593 35.0569 70.1583C35.0748 70.9445 35.4679 71.689 36.0337 71.8557C36.3076 71.9332 36.5399 71.8557 36.659 71.7604C36.7781 71.6652 36.802 71.5758 36.79 71.5699L36.7781 71.5639Z" fill="#A36957"/>
<path d="M54.8565 55.1817C54.8565 55.1817 54.9696 55.0805 55.2496 55.003C55.5235 54.9316 55.9762 54.9078 56.4765 55.1519C56.7206 55.2711 56.9827 55.4616 57.1614 55.7535C57.34 56.0453 57.4234 56.4324 57.3579 56.8255C57.2984 57.2186 57.1018 57.6176 56.7742 57.9333C56.4467 58.243 56.0059 58.4574 55.5235 58.5646C54.5587 58.785 53.4033 58.511 52.498 57.7904C52.0453 57.433 51.6344 56.9863 51.3366 56.4384C51.0448 55.8964 50.878 55.2175 51.0686 54.5564C51.2651 53.8953 51.8131 53.3831 52.4384 53.1032C53.0638 52.8173 53.7725 52.7041 54.4813 52.7518C55.8928 52.859 57.3043 53.6034 58.1858 54.8303C58.6265 55.4438 58.8945 56.1763 58.9302 56.9149C58.9779 57.6534 58.7933 58.38 58.4836 59.0173C58.1619 59.6486 57.7033 60.1965 57.1554 60.6074C56.6075 61.0184 55.994 61.2924 55.3746 61.4651C54.1239 61.7986 52.8851 61.7927 51.7595 61.5366C50.6636 61.1852 49.7464 60.7027 48.8471 60.393C47.9597 60.0655 47.1259 59.8511 46.3814 59.7498C45.6369 59.6486 44.9877 59.6605 44.4636 59.7081C43.4095 59.8272 42.8615 60.0714 42.8496 60.0238C42.8496 60.0119 42.9806 59.9583 43.2486 59.8689C43.5107 59.7677 43.9216 59.6724 44.4517 59.583C44.9818 59.5175 45.6488 59.4818 46.4052 59.5711C47.1676 59.6605 48.0133 59.863 48.9245 60.1846C49.8298 60.4883 50.7827 60.9648 51.8309 61.2864C52.8911 61.5127 54.118 61.5187 55.3032 61.1852C56.4884 60.8635 57.6319 60.0833 58.2215 58.8803C58.829 57.707 58.7992 56.1525 57.9475 55.015C57.1316 53.8655 55.7975 53.1568 54.4753 53.0555C53.8142 53.0138 53.1531 53.1151 52.5754 53.3771C52.0037 53.6332 51.5272 54.0799 51.3545 54.6397C51.1818 55.2055 51.3247 55.8071 51.5868 56.3133C51.8548 56.8196 52.2419 57.2484 52.6647 57.5879C53.5164 58.2728 54.5825 58.5408 55.4818 58.3502C55.9345 58.2609 56.3395 58.0643 56.6432 57.7904C56.941 57.5164 57.1316 57.1531 57.1911 56.8017C57.2567 56.4443 57.1912 56.1049 57.0363 55.8369C56.8815 55.5689 56.6492 55.3842 56.4229 55.2651C55.9583 55.0209 55.5295 55.0269 55.2615 55.0745C54.9875 55.1281 54.8624 55.2055 54.8565 55.1877V55.1817Z" fill="#00524C"/>
<path d="M72.4396 218.085L67.6631 154.34L28.2715 153.143V217.84L49.5932 217.936L50.296 169.634L53.0714 217.953L72.4396 218.085Z" fill="#263238"/>
<path d="M52.0186 154.357C52.0722 154.357 52.1318 155.245 52.1913 156.68C52.245 158.116 52.2986 160.099 52.3283 162.285C52.3402 163.375 52.3462 164.411 52.3522 165.376C52.3522 166.329 52.2509 167.222 51.9352 167.907C51.6196 168.592 51.1491 169.015 50.7858 169.211C50.4165 169.414 50.1783 169.42 50.1723 169.396C50.1604 169.366 50.3808 169.306 50.7024 169.08C51.0181 168.86 51.4231 168.437 51.6791 167.794C51.9412 167.15 52.0186 166.311 51.9948 165.376C51.9769 164.417 51.9591 163.38 51.9352 162.291C51.9055 160.099 51.8995 158.121 51.9114 156.686C51.9233 155.251 51.965 154.363 52.0186 154.363V154.357Z" fill="#00524C"/>
<path d="M48.9204 155.882C48.9561 155.93 48.6524 156.109 48.6405 156.573C48.6345 156.794 48.712 157.073 48.9323 157.216C49.1348 157.371 49.4803 157.347 49.7423 157.157C50.1533 156.883 50.0877 156.377 49.784 156.138C49.4981 155.882 49.1527 155.876 48.9681 155.942L48.9561 155.793C49.1229 155.876 49.2063 155.936 49.1944 155.966C49.1825 155.995 49.0812 155.99 48.8966 155.948L48.7358 155.912L48.8847 155.793C49.0812 155.638 49.5636 155.567 49.9865 155.882C50.189 156.031 50.3796 156.281 50.3975 156.615C50.4213 156.942 50.2366 157.276 49.9627 157.467C49.5934 157.741 49.0514 157.776 48.712 157.496C48.3725 157.222 48.3189 156.817 48.3665 156.543C48.4082 156.258 48.5631 156.055 48.6881 155.96C48.8192 155.864 48.9085 155.858 48.9204 155.876V155.882Z" fill="#00524C"/>
<path d="M104.432 144.133V144.097C107.339 144.288 110.263 144.514 112.038 144.621C114.974 144.8 115.837 144.52 115.849 144.08C115.873 143.127 109.614 143.228 110.102 142.531C110.102 142.531 115.695 143.806 115.879 143.073C116.248 141.578 110.007 140.988 110.007 140.988C113.89 142.424 116.123 142.34 116.034 141.34C115.974 140.673 110.007 139.315 110.007 139.315C110.007 139.315 114.581 140.601 115.45 140.578C116.32 140.554 116.493 139.791 115.909 139.1C115.325 138.41 108.196 135.807 107.082 135.408C105.969 135.009 106.576 133.746 106.576 133.746C107.684 131.376 108.292 129.637 108.035 128.976C107.779 128.315 106.791 128.446 106.6 129.202C106.445 129.815 105.879 130.756 105.421 131.447C105.046 132.013 104.581 132.519 104.045 132.924C103.42 133.401 102.872 133.776 102.395 134.086L98.0059 134.854L99.0362 142.757L104.438 144.139L104.432 144.133Z" fill="#FFBE9D"/>
<path d="M106.797 141.441C106.749 141.471 106.541 141.179 106.118 140.804C105.701 140.423 105.04 139.976 104.194 139.75L103.777 139.642L104.141 139.398C104.224 139.339 104.319 139.285 104.409 139.219C105.189 138.672 105.719 137.963 106.029 137.415C106.338 136.867 106.463 136.48 106.523 136.498C106.571 136.51 106.541 136.926 106.279 137.54C106.017 138.147 105.487 138.945 104.635 139.541C104.54 139.613 104.438 139.672 104.343 139.732L104.29 139.374C105.219 139.63 105.91 140.166 106.303 140.619C106.702 141.072 106.833 141.423 106.791 141.447L106.797 141.441Z" fill="#A36957"/>
<path d="M115.044 140.666C115.002 140.767 113.764 140.333 112.227 139.862C110.69 139.386 109.422 139.058 109.446 138.945C109.464 138.844 110.786 139.004 112.346 139.487C113.907 139.963 115.092 140.577 115.05 140.672L115.044 140.666Z" fill="#A36957"/>
<path d="M114.986 142.042C114.951 142.15 113.825 141.84 112.437 141.506C111.05 141.167 109.912 140.935 109.924 140.822C109.936 140.714 111.115 140.78 112.527 141.125C113.938 141.465 115.022 141.941 114.98 142.042H114.986Z" fill="#A36957"/>
<path d="M42.9242 90.3271C42.9182 90.3866 42.3524 90.071 41.596 90.4998C41.2268 90.6963 40.8873 91.0775 40.655 91.5957C40.5359 91.8518 40.4406 92.1376 40.3572 92.4414C40.3155 92.5962 40.2738 92.7511 40.2322 92.9119C40.1845 93.0787 40.1488 93.2693 39.982 93.4539C39.8986 93.5432 39.7616 93.6147 39.6306 93.6206C39.4996 93.6266 39.3864 93.5909 39.2971 93.5611C39.1244 93.4837 38.9933 93.4181 38.8445 93.3467C38.5586 93.2097 38.2846 93.0727 38.0106 92.9357C37.5223 92.6856 37.0577 92.4473 36.6051 92.221C35.813 91.8041 35.3305 91.5182 35.3544 91.4706C35.3782 91.423 35.8963 91.6135 36.7242 91.9709C37.1828 92.1734 37.6593 92.3878 38.1655 92.6082C38.4395 92.7332 38.7194 92.8643 39.0112 92.9953C39.1542 93.0608 39.2971 93.1263 39.446 93.1978C39.583 93.2514 39.6366 93.2454 39.7021 93.1799C39.8391 93.031 39.8867 92.632 39.988 92.3282C40.0833 92.0126 40.1905 91.7088 40.3274 91.4289C40.5955 90.8691 41.0243 90.4343 41.471 90.2437C41.9057 90.0412 42.3226 90.0412 42.5728 90.1127C42.8289 90.1901 42.9361 90.2973 42.9242 90.3152V90.3271Z" fill="#263238"/>
<path d="M51.2562 91.1195C51.3158 91.2028 49.9697 92.3225 48.1771 93.6745L47.921 93.8651L47.8674 93.5494C47.8435 93.4184 47.8197 93.2874 47.7959 93.1444C47.6113 91.9533 47.2182 90.9467 46.6405 90.4286C46.0925 89.8866 45.5744 89.833 45.5922 89.7675C45.5803 89.7258 46.158 89.6782 46.8251 90.2201C47.1527 90.4822 47.4743 90.8812 47.7006 91.3875C47.9329 91.8878 48.0758 92.4714 48.183 93.073C48.2068 93.2099 48.2307 93.3469 48.2545 93.478L47.9448 93.3529C49.7434 92.0128 51.1966 91.0301 51.2562 91.1135V91.1195Z" fill="#263238"/>
<path d="M99.5232 133.549L97.8913 133.49C95.5805 133.764 88.9874 133.085 83.7523 131.858C78.5172 130.637 78.7196 129.886 78.0466 128.933C77.3736 127.98 76.2063 122.805 76.2063 122.805C76.2063 122.805 74.8127 114.431 71.9777 105.616C69.1427 96.8079 62.6092 94.5864 62.6092 94.5864C62.0732 94.3064 61.7159 94.1992 61.7159 94.1992C61.1977 93.9014 53.878 91.5608 51.1622 91.4119L51.186 86.2959C46.6299 86.7426 44.2773 92.1266 44.2773 92.1266C42.3893 87.5704 35.296 86.9034 35.296 86.9034L35.427 91.6144C33.1579 91.7574 29.7273 92.347 27.9942 92.9723C24.0395 94.4017 22.1754 95.7894 18.8997 98.3802C15.6002 100.989 14.5996 106.569 14.5996 111.28L29.0603 116.909V117.266L28.9292 134.038L28.286 153.144L67.7789 154.341L65.7599 138.052C66.8676 139.999 70.7985 142.638 78.6601 144.633C87.4985 146.878 100.619 145.014 100.619 145.014L99.5292 133.543L99.5232 133.549Z" fill="#008375"/>
<path d="M47.6671 101.745C47.6373 101.704 47.9649 101.561 48.3341 101.876C48.5009 102.025 48.6676 102.281 48.6319 102.621C48.6021 102.966 48.2924 103.27 47.941 103.341C47.5896 103.431 47.1787 103.294 47.006 102.996C46.8273 102.704 46.869 102.4 46.9524 102.192C47.143 101.751 47.5003 101.733 47.4944 101.787C47.5182 101.841 47.2859 101.948 47.2144 102.281C47.1787 102.436 47.1966 102.645 47.3038 102.794C47.405 102.942 47.6254 103.008 47.8517 102.96C48.078 102.907 48.2448 102.752 48.2746 102.573C48.3103 102.394 48.2329 102.198 48.1316 102.073C47.9232 101.805 47.6671 101.811 47.6671 101.751V101.745Z" fill="#263238"/>
<path d="M49.1222 115.801C49.0924 115.759 49.4199 115.616 49.7892 115.932C49.956 116.081 50.1227 116.337 50.087 116.676C50.0572 117.022 49.7475 117.326 49.3961 117.397C49.0447 117.486 48.6338 117.349 48.4611 117.052C48.2824 116.76 48.3241 116.456 48.4075 116.248C48.598 115.807 48.9554 115.789 48.9494 115.843C48.9733 115.896 48.741 116.003 48.6695 116.337C48.6338 116.492 48.6516 116.7 48.7589 116.849C48.8601 116.998 49.0805 117.064 49.3068 117.016C49.5331 116.962 49.6999 116.807 49.7296 116.629C49.7654 116.45 49.688 116.254 49.5867 116.129C49.3783 115.861 49.1222 115.866 49.1222 115.807V115.801Z" fill="#263238"/>
<path d="M50.0147 129.524C49.985 129.482 50.3125 129.339 50.6818 129.655C50.8485 129.804 51.0153 130.06 50.9796 130.399C50.9498 130.745 50.6401 131.048 50.2887 131.12C49.9373 131.209 49.5264 131.072 49.3536 130.774C49.175 130.482 49.2167 130.179 49.3 129.97C49.4906 129.53 49.848 129.512 49.842 129.565C49.8658 129.619 49.6336 129.726 49.5621 130.06C49.5264 130.214 49.5442 130.423 49.6514 130.572C49.7527 130.721 49.973 130.786 50.1994 130.739C50.4257 130.685 50.5924 130.53 50.6222 130.351C50.658 130.173 50.5805 129.976 50.4793 129.851C50.2708 129.583 50.0147 129.589 50.0147 129.53V129.524Z" fill="#263238"/>
<path d="M50.9132 144.454C50.8834 144.413 51.211 144.27 51.5802 144.585C51.747 144.734 51.9137 144.99 51.878 145.33C51.8482 145.675 51.5385 145.979 51.1871 146.05C50.8357 146.14 50.4248 146.003 50.2521 145.705C50.0734 145.413 50.1151 145.109 50.1985 144.901C50.3891 144.46 50.7464 144.442 50.7405 144.496C50.7643 144.55 50.532 144.657 50.4605 144.99C50.4248 145.145 50.4427 145.354 50.5499 145.502C50.6511 145.651 50.8715 145.717 51.0978 145.669C51.3241 145.616 51.4909 145.461 51.5207 145.282C51.5564 145.103 51.479 144.907 51.3777 144.782C51.1693 144.514 50.9132 144.52 50.9132 144.46V144.454Z" fill="#263238"/>
<g opacity="0.3">
<path d="M29.8696 110.745L33.4192 153.317H28.2734L28.8273 135.748L29.0477 116.909L29.8696 110.745Z" fill="black"/>
</g>
<path d="M67.2548 148.838C67.2548 148.838 67.2072 148.707 67.1595 148.451C67.1059 148.153 67.0404 147.784 66.957 147.337C66.7843 146.367 66.564 144.961 66.3079 143.222C65.7897 139.744 65.1643 134.919 64.5032 129.595C63.8481 124.265 63.2347 119.446 62.7284 115.968C62.4783 114.271 62.2698 112.877 62.1209 111.847C62.0554 111.394 62.0018 111.025 61.9601 110.727C61.9303 110.471 61.9184 110.334 61.9303 110.334C61.9423 110.334 61.978 110.465 62.0376 110.715C62.1031 111.013 62.1745 111.376 62.2698 111.823C62.4604 112.788 62.7225 114.187 63.0024 115.926C63.5801 119.399 64.2352 124.217 64.8904 129.547C65.5455 134.848 66.1411 139.642 66.5759 143.186C66.7903 144.889 66.9689 146.283 67.1 147.319C67.1536 147.772 67.1953 148.141 67.231 148.445C67.2548 148.701 67.2608 148.838 67.2489 148.844L67.2548 148.838Z" fill="#263238"/>
<g opacity="0.3">
<path d="M62.7833 114.192C65.0525 122.012 65.7969 128.879 70.0553 135.335C71.586 137.658 73.6228 139.647 75.9754 141.142C80.5673 144.073 86.124 145.037 91.5438 145.544H95.2126C95.2126 145.544 86.9638 146.24 80.2933 145.02C80.2933 145.02 70.0315 143.191 66.0173 138.48L62.7773 114.192H62.7833Z" fill="black"/>
</g>
<path d="M48.6022 151.904C48.6022 151.904 48.5665 151.696 48.5427 151.297C48.5188 150.862 48.4891 150.278 48.4474 149.552C48.37 147.997 48.2628 145.817 48.1258 143.137C47.8458 137.723 47.3872 130.243 46.7559 121.994C46.1246 113.739 45.4635 106.277 44.9811 100.875C44.7488 98.2008 44.5583 96.0269 44.4213 94.4784C44.3677 93.7518 44.32 93.1741 44.2843 92.7393C44.2605 92.3403 44.2485 92.1318 44.2664 92.1318C44.2783 92.1318 44.3141 92.3403 44.3677 92.7334C44.4213 93.1681 44.4868 93.7459 44.5761 94.4665C44.7429 96.015 44.9752 98.1889 45.2551 100.857C45.803 106.253 46.5117 113.716 47.1431 121.97C47.7744 130.225 48.1853 137.712 48.3938 143.131C48.501 145.841 48.5665 148.039 48.5903 149.552C48.6022 150.284 48.6082 150.862 48.6141 151.297C48.6141 151.696 48.6141 151.904 48.5963 151.904H48.6022Z" fill="#263238"/>
<path d="M87.1461 165.561C100.925 165.561 112.095 154.636 112.095 141.16C112.095 127.683 100.925 116.759 87.1461 116.759C73.3672 116.759 62.1973 127.683 62.1973 141.16C62.1973 154.636 73.3672 165.561 87.1461 165.561Z" fill="#008375"/>
<path opacity="0.4" d="M87.1461 165.561C100.925 165.561 112.095 154.636 112.095 141.16C112.095 127.683 100.925 116.759 87.1461 116.759C73.3672 116.759 62.1973 127.683 62.1973 141.16C62.1973 154.636 73.3672 165.561 87.1461 165.561Z" fill="black"/>
<path d="M85.6265 163.001C99.4054 163.001 110.575 152.076 110.575 138.6C110.575 125.124 99.4054 114.199 85.6265 114.199C71.8477 114.199 60.6777 125.124 60.6777 138.6C60.6777 152.076 71.8477 163.001 85.6265 163.001Z" fill="#008375"/>
<path opacity="0.2" d="M86.4207 156.469C96.9062 155.929 104.989 147.382 104.473 137.379C103.958 127.377 95.0396 119.706 84.554 120.246C74.0685 120.787 65.9862 129.333 66.5017 139.336C67.0172 149.339 75.9352 157.009 86.4207 156.469Z" fill="#00DCCD"/>
<path d="M87.2782 156.326C77.0104 157.303 67.8683 150.096 66.5938 140.15C66.6057 140.329 66.6176 140.501 66.6354 140.68C67.6479 150.894 76.9449 158.375 87.3854 157.38C97.8319 156.385 105.473 147.297 104.461 137.083C104.443 136.904 104.419 136.731 104.395 136.559C105.098 146.558 97.546 155.349 87.2842 156.326H87.2782Z" fill="#3ABFB4"/>
<path opacity="0.3" d="M83.7041 120.381C93.9719 119.404 103.114 126.611 104.389 136.557C104.377 136.378 104.365 136.206 104.347 136.027C103.334 125.813 94.0374 118.332 83.5969 119.327C73.1505 120.322 65.5092 129.41 66.5217 139.624C66.5396 139.803 66.5634 139.976 66.5872 140.148C65.8844 130.149 73.4364 121.358 83.6982 120.381H83.7041Z" fill="black"/>
<path d="M95.8786 142.68C95.6225 140.083 94.1872 138.516 92.2515 138.01C93.5142 137.057 94.2586 135.455 94.0502 133.4C93.7941 130.845 92.1622 129.172 89.3451 128.826L89.0294 125.676L86.0515 125.962L86.3434 128.892L84.6519 129.053L84.3601 126.122L81.3822 126.408L81.674 129.339L78.9642 129.595L77.0762 129.773L77.368 132.686L79.256 132.507L80.6616 146.664L78.5711 146.861L78.8629 149.773L80.9534 149.576L83.6633 149.32L84.0028 152.727L86.9806 152.441L86.6412 149.034L88.3326 148.874L88.6721 152.28L91.65 151.994L91.2986 148.475C94.61 147.694 96.1704 145.634 95.8726 142.674L95.8786 142.68ZM83.0379 132.144L87.07 131.763C89.3094 131.548 90.6673 132.34 90.8519 134.199C91.0306 136.027 89.8573 137.057 87.6179 137.272L83.0439 137.706L82.4959 132.197L83.0379 132.144ZM89.1247 145.86L84.2469 146.325L83.9015 146.354L83.3298 140.589L88.547 140.095C90.9829 139.862 92.3885 140.625 92.585 142.62C92.7816 144.621 91.5547 145.628 89.1188 145.86H89.1247Z" fill="#008375"/>
<path opacity="0.3" d="M95.8786 142.68C95.6225 140.083 94.1872 138.516 92.2515 138.01C93.5142 137.057 94.2586 135.455 94.0502 133.4C93.7941 130.845 92.1622 129.172 89.3451 128.826L89.0294 125.676L86.0515 125.962L86.3434 128.892L84.6519 129.053L84.3601 126.122L81.3822 126.408L81.674 129.339L78.9642 129.595L77.0762 129.773L77.368 132.686L79.256 132.507L80.6616 146.664L78.5711 146.861L78.8629 149.773L80.9534 149.576L83.6633 149.32L84.0028 152.727L86.9806 152.441L86.6412 149.034L88.3326 148.874L88.6721 152.28L91.65 151.994L91.2986 148.475C94.61 147.694 96.1704 145.634 95.8726 142.674L95.8786 142.68ZM83.0379 132.144L87.07 131.763C89.3094 131.548 90.6673 132.34 90.8519 134.199C91.0306 136.027 89.8573 137.057 87.6179 137.272L83.0439 137.706L82.4959 132.197L83.0379 132.144ZM89.1247 145.86L84.2469 146.325L83.9015 146.354L83.3298 140.589L88.547 140.095C90.9829 139.862 92.3885 140.625 92.585 142.62C92.7816 144.621 91.5547 145.628 89.1188 145.86H89.1247Z" fill="black"/>
<path d="M94.4313 142.816C94.1752 140.22 92.7399 138.653 90.8043 138.147C92.0669 137.194 92.8114 135.592 92.6029 133.537C92.3468 130.982 90.7149 129.309 87.8978 128.963L87.5822 125.812L84.6043 126.098L84.8961 129.029L83.2047 129.189L82.9128 126.259L79.9349 126.545L80.2268 129.475L77.5169 129.731L75.6289 129.91L75.9207 132.822L77.8087 132.644L79.2143 146.801L77.1238 146.997L77.4156 149.91L79.5061 149.713L82.216 149.457L82.5555 152.864L85.5334 152.578L85.1939 149.171L86.8854 149.01L87.2248 152.417L90.2027 152.131L89.8513 148.611C93.1628 147.831 94.7232 145.77 94.4254 142.81L94.4313 142.816ZM81.5907 132.28L85.6227 131.899C87.8621 131.685 89.22 132.477 89.4046 134.335C89.5833 136.164 88.41 137.194 86.1706 137.408L81.5966 137.843L81.0487 132.334L81.5907 132.28ZM87.6775 145.997L82.7997 146.461L82.4542 146.491L81.8825 140.726L87.0998 140.231C89.5357 139.999 90.9412 140.762 91.1378 142.757C91.3343 144.752 90.1074 145.764 87.6715 145.997H87.6775Z" fill="#00DCCD"/>
<path d="M108.183 128.094C108.183 128.094 108.141 128.041 108.069 127.927C107.992 127.796 107.897 127.63 107.772 127.421C107.641 127.195 107.48 126.915 107.295 126.593C107.111 126.266 106.908 125.879 106.61 125.492C106.324 125.092 106.015 124.646 105.669 124.163C105.33 123.675 104.871 123.216 104.425 122.68C103.99 122.132 103.442 121.638 102.87 121.096C102.578 120.834 102.304 120.53 101.977 120.28C101.649 120.024 101.316 119.762 100.97 119.494C99.6003 118.41 97.9327 117.457 96.0864 116.57C95.61 116.379 95.1275 116.189 94.6332 115.992C94.389 115.897 94.1389 115.79 93.8887 115.7C93.6326 115.623 93.3706 115.551 93.1085 115.474C92.5844 115.325 92.0543 115.152 91.5124 115.021C90.9585 114.914 90.4046 114.807 89.8388 114.7C89.2789 114.563 88.6893 114.551 88.1057 114.485C87.516 114.432 86.9264 114.348 86.3189 114.372C85.7174 114.372 85.1039 114.372 84.4905 114.372C83.877 114.432 83.2576 114.485 82.6323 114.545C80.1487 114.878 77.6116 115.527 75.1935 116.635C72.7874 117.767 70.6075 119.214 68.7315 120.888C66.8852 122.591 65.3903 124.515 64.1872 126.48C63.9132 126.986 63.6452 127.487 63.3772 127.981L63.1807 128.35L63.0199 128.737C62.9127 128.994 62.8055 129.244 62.6983 129.5C62.2337 130.488 61.9716 131.525 61.656 132.496C61.5071 132.984 61.4356 133.49 61.3284 133.967C61.2391 134.455 61.0961 134.92 61.0723 135.396C60.9889 136.343 60.8222 137.248 60.8579 138.124C60.852 138.993 60.8222 139.827 60.9294 140.607C61.0068 141.388 61.0425 142.132 61.2093 142.811C61.3522 143.49 61.4356 144.133 61.6024 144.705C61.7751 145.271 61.93 145.795 62.0729 146.265C62.198 146.742 62.3766 147.135 62.5196 147.486C62.6625 147.832 62.7816 148.124 62.8769 148.368C62.9663 148.594 63.0377 148.773 63.0913 148.916C63.139 149.041 63.1628 149.106 63.1569 149.106C63.1569 149.106 63.1211 149.047 63.0616 148.928C63.002 148.791 62.9186 148.618 62.8174 148.392C62.7102 148.147 62.5791 147.856 62.4302 147.516C62.2754 147.171 62.0908 146.778 61.9597 146.301C61.8108 145.831 61.6441 145.312 61.4654 144.741C61.2867 144.169 61.1974 143.52 61.0425 142.841C60.8698 142.162 60.8222 141.411 60.7388 140.625C60.6256 139.839 60.6435 138.999 60.6435 138.118C60.6018 137.236 60.7626 136.319 60.8401 135.36C60.8639 134.878 61.0068 134.401 61.0902 133.913C61.1974 133.425 61.2629 132.918 61.4178 132.424C61.7334 131.435 61.9895 130.393 62.4541 129.387C62.5613 129.131 62.6685 128.874 62.7757 128.618L62.9365 128.231L63.139 127.856C63.407 127.356 63.681 126.849 63.9549 126.331C65.164 124.342 66.6708 122.389 68.5409 120.661C70.4348 118.97 72.6385 117.499 75.0744 116.355C77.5282 115.236 80.0951 114.575 82.6085 114.247C83.2398 114.187 83.8651 114.134 84.4845 114.074C85.1099 114.074 85.7233 114.074 86.3368 114.074C86.9502 114.05 87.5458 114.14 88.1414 114.193C88.731 114.265 89.3266 114.283 89.8924 114.42C90.4641 114.533 91.03 114.646 91.5838 114.753C92.1377 114.884 92.6678 115.063 93.1979 115.218C93.4599 115.295 93.722 115.373 93.984 115.45C94.2401 115.539 94.4903 115.647 94.7344 115.748C95.2288 115.95 95.7172 116.147 96.1996 116.337C98.0637 117.243 99.7373 118.214 101.113 119.321C101.459 119.595 101.792 119.863 102.126 120.119C102.459 120.375 102.727 120.685 103.019 120.953C103.591 121.507 104.139 122.007 104.567 122.567C105.008 123.109 105.461 123.58 105.8 124.074C106.134 124.568 106.444 125.021 106.723 125.426C107.015 125.825 107.212 126.212 107.391 126.546C107.563 126.873 107.718 127.153 107.837 127.391C107.95 127.606 108.04 127.779 108.105 127.916C108.165 128.035 108.195 128.094 108.189 128.1L108.183 128.094Z" fill="#3ABFB4"/>
<path d="M82.9192 126.259C82.9192 126.259 82.6333 126.337 82.1151 126.408C81.597 126.48 80.8585 126.569 79.9532 126.67L80.0663 126.527C80.1616 127.397 80.2688 128.392 80.382 129.458L80.3999 129.612L80.245 129.63C79.9889 129.654 79.7149 129.684 79.441 129.708C78.0473 129.833 76.7549 129.946 75.6412 130.041L75.7543 129.904C75.8258 130.786 75.8794 131.518 75.9092 132.025C75.939 132.537 75.939 132.823 75.9151 132.829C75.8913 132.829 75.8377 132.549 75.7603 132.042C75.6888 131.536 75.5995 130.81 75.4982 129.934L75.4863 129.809L75.6174 129.797C76.7311 129.684 78.0235 129.553 79.4112 129.41C79.6852 129.386 79.9591 129.356 80.2152 129.333L80.0782 129.499C79.9829 128.433 79.8936 127.439 79.8102 126.569L79.7983 126.438L79.9234 126.426C80.8287 126.355 81.5731 126.301 82.0913 126.277C82.6095 126.247 82.9072 126.247 82.9132 126.277L82.9192 126.259Z" fill="#3ABFB4"/>
<path d="M88.2205 125.807C88.2264 125.891 87.4283 126.04 86.4337 126.135C85.4391 126.23 84.6291 126.236 84.6172 126.153C84.6113 126.069 85.4093 125.921 86.404 125.825C87.3986 125.73 88.2086 125.724 88.2205 125.807Z" fill="#3ABFB4"/>
<path d="M79.0468 146.611C78.9634 146.616 78.5823 143.519 78.2011 139.684C77.8199 135.848 77.5817 132.734 77.6651 132.728C77.7484 132.722 78.1296 135.819 78.5108 139.654C78.892 143.49 79.1302 146.599 79.0468 146.611Z" fill="#3ABFB4"/>
<path d="M87.6771 137.29C87.6831 137.374 86.4085 137.564 84.8183 137.719C83.2341 137.868 81.9417 137.922 81.9298 137.838C81.9179 137.755 83.1984 137.564 84.7886 137.409C86.3728 137.261 87.6652 137.207 87.6771 137.29Z" fill="#3ABFB4"/>
<path d="M88.6419 145.927C88.6479 146.01 87.3733 146.201 85.7831 146.356C84.1989 146.505 82.9065 146.558 82.8946 146.475C82.8886 146.392 84.1631 146.201 85.7533 146.046C87.3376 145.897 88.63 145.844 88.6419 145.927Z" fill="#3ABFB4"/>
<path d="M82.0609 165.056C81.9895 165.098 81.5964 164.562 81.1795 163.859C80.7685 163.156 80.4946 162.549 80.566 162.501C80.6375 162.46 81.0306 162.996 81.4475 163.698C81.8584 164.401 82.1324 165.009 82.0609 165.056Z" fill="#263238"/>
<path d="M77.9546 163.77C77.8831 163.811 77.5019 163.299 77.1089 162.626C76.7158 161.947 76.4537 161.369 76.5311 161.322C76.6026 161.28 76.9838 161.792 77.3769 162.465C77.77 163.144 78.032 163.722 77.9546 163.77Z" fill="#263238"/>
<path d="M74.1929 162.012C74.1214 162.054 73.7402 161.542 73.3471 160.869C72.9541 160.19 72.692 159.612 72.7694 159.565C72.8469 159.517 73.2221 160.035 73.6152 160.708C74.0082 161.387 74.2703 161.965 74.1929 162.012Z" fill="#263238"/>
<path d="M86.4008 165.574C86.3293 165.616 85.9362 165.08 85.5193 164.377C85.1084 163.674 84.8344 163.067 84.9059 163.019C84.9773 162.977 85.3704 163.513 85.7873 164.216C86.1983 164.919 86.4722 165.526 86.4008 165.574Z" fill="#263238"/>
<path d="M90.4223 165.354C90.3508 165.396 89.9577 164.86 89.5408 164.157C89.1298 163.454 88.8559 162.847 88.9273 162.799C88.9988 162.757 89.3919 163.293 89.8088 163.996C90.2198 164.699 90.4937 165.307 90.4223 165.354Z" fill="#263238"/>
<path d="M94.3773 164.513C94.3059 164.555 93.9128 164.019 93.4959 163.316C93.0849 162.613 92.811 162.006 92.8824 161.958C92.9539 161.917 93.347 162.453 93.7639 163.155C94.1748 163.858 94.4488 164.466 94.3773 164.513Z" fill="#263238"/>
<path d="M97.9984 163.216C97.927 163.257 97.5339 162.721 97.117 162.018C96.706 161.316 96.4321 160.708 96.5035 160.66C96.575 160.619 96.9681 161.155 97.385 161.858C97.7959 162.56 98.0699 163.168 97.9984 163.216Z" fill="#263238"/>
<path d="M101.452 161.232C101.38 161.273 100.987 160.737 100.57 160.035C100.159 159.332 99.8852 158.724 99.9566 158.677C100.028 158.629 100.421 159.171 100.838 159.874C101.249 160.577 101.523 161.184 101.452 161.232Z" fill="#263238"/>
<path d="M104.455 158.802C104.384 158.844 103.991 158.308 103.574 157.605C103.163 156.903 102.889 156.295 102.961 156.247C103.032 156.206 103.425 156.742 103.842 157.445C104.253 158.147 104.527 158.755 104.455 158.802Z" fill="#263238"/>
<path d="M106.724 156.088C106.653 156.13 106.277 155.635 105.896 154.974C105.515 154.319 105.265 153.747 105.336 153.706C105.408 153.664 105.783 154.158 106.164 154.819C106.545 155.474 106.796 156.046 106.724 156.088Z" fill="#263238"/>
<path d="M108.892 153.138C108.821 153.179 108.445 152.679 108.064 152.024C107.677 151.363 107.427 150.797 107.504 150.755C107.576 150.714 107.951 151.214 108.332 151.869C108.713 152.53 108.969 153.096 108.892 153.138Z" fill="#263238"/>
<path d="M110.554 149.629C110.482 149.671 110.131 149.207 109.767 148.593C109.41 147.98 109.178 147.444 109.249 147.402C109.321 147.36 109.672 147.825 110.035 148.438C110.393 149.052 110.625 149.588 110.554 149.629Z" fill="#263238"/>
<path d="M111.641 145.818C111.57 145.86 111.224 145.407 110.873 144.811C110.522 144.21 110.301 143.692 110.373 143.65C110.444 143.608 110.79 144.061 111.141 144.657C111.492 145.258 111.713 145.776 111.641 145.818Z" fill="#263238"/>
<path d="M112.102 141.721C112.03 141.763 111.625 141.215 111.209 140.494C110.786 139.774 110.506 139.154 110.583 139.113C110.655 139.071 111.06 139.619 111.477 140.339C111.899 141.06 112.179 141.68 112.102 141.721Z" fill="#263238"/>
<path d="M111.644 136.29C111.572 136.331 111.144 135.742 110.697 134.967C110.244 134.193 109.94 133.532 110.018 133.49C110.089 133.449 110.518 134.038 110.965 134.813C111.418 135.587 111.721 136.248 111.644 136.29Z" fill="#263238"/>
<path d="M55.4648 151.888C58.1747 152.531 68.5378 153.544 70.2233 153.71C73.7313 154.062 73.767 153.746 73.7372 153.329C73.6598 152.215 67.5908 152.483 68.8594 151.668C70.128 150.852 76.322 152.204 76.191 151.042C76.0242 149.529 69.6754 149.922 69.1334 149.917C68.6093 149.911 68.5854 149.13 69.0679 149.16C69.7707 149.208 77.132 149.5 76.9831 148.011C76.8997 147.183 75.4287 147.475 75.4287 147.475C75.4287 147.475 68.5199 147.707 68.4723 146.998C68.4246 146.283 72.4746 146.01 73.8504 146.015C75.2083 146.015 75.7622 145.378 75.2619 144.777C74.9224 144.366 70.7176 144.253 69.3597 144.276C68.0018 144.306 64.2794 144.443 66.0602 142.883C67.841 141.322 68.6152 139.446 68.4782 138.797C68.3353 138.142 67.3764 138.106 67.0786 138.773C66.8344 139.315 66.1555 140.095 65.6195 140.661C65.1787 141.126 64.6606 141.519 64.0888 141.811C63.8208 141.948 63.5647 142.073 63.3265 142.186C62.2008 142.716 57.5672 143.276 56.3284 143.133L55.4708 151.894L55.4648 151.888Z" fill="#FFBE9D"/>
<path d="M14.5898 111.281V135.759C14.5898 142.817 28.6753 149.005 36.525 150.333L57.7634 153.031L58.4602 140.679C58.4602 140.679 32.1237 133.764 30.7241 132.031C29.3185 130.292 29.9558 107.678 29.9558 107.678L14.5898 111.281Z" fill="#008375"/>
<path d="M28.0254 131.144C28.0254 131.144 28.1386 131.173 28.353 131.257C28.5852 131.346 28.9009 131.465 29.2999 131.62C30.1457 131.954 31.3547 132.436 32.8794 133.043H32.8853C34.1658 133.574 35.7679 134.038 37.5606 134.586C39.3652 135.11 41.3783 135.7 43.5581 136.337C47.9356 137.594 53.0159 139.017 58.5012 140.53L58.6203 140.566V140.691C58.519 142.364 58.4178 144.127 58.3165 145.914C58.1796 148.356 58.0426 150.744 57.9116 153.043V153.192H57.7567C49.1804 152.989 41.7356 151.679 36.5243 150.393C33.9157 149.755 31.849 149.154 30.4375 148.719C29.7287 148.505 29.1868 148.32 28.8235 148.201C28.6507 148.141 28.5138 148.094 28.4066 148.058C28.3113 148.022 28.2696 148.004 28.2696 147.998C28.2696 147.998 28.3232 147.998 28.4185 148.028C28.5316 148.058 28.6686 148.094 28.8413 148.141C29.2344 148.255 29.7764 148.409 30.4732 148.612C31.8967 149.017 33.9633 149.583 36.572 150.196C41.7833 151.429 49.2101 152.692 57.7627 152.882L57.6078 153.025C57.7388 150.726 57.8699 148.338 58.0068 145.896C58.1081 144.109 58.2093 142.346 58.3046 140.673L58.4178 140.828C52.9325 139.303 47.8582 137.862 43.4866 136.581C41.3009 135.944 39.2937 135.336 37.5011 134.788C35.7084 134.223 34.1241 133.746 32.8198 133.186C31.3011 132.555 30.104 132.049 29.2702 131.697C28.8771 131.525 28.5674 131.394 28.341 131.292C28.1326 131.197 28.0254 131.15 28.0254 131.144Z" fill="#263238"/>
<path d="M31.2598 132.674C31.1883 132.721 30.5153 131.87 29.753 130.768C28.9906 129.666 28.4308 128.737 28.5022 128.689C28.5737 128.642 29.2467 129.493 30.0091 130.595C30.7714 131.697 31.3312 132.626 31.2598 132.674Z" fill="#263238"/>
<g opacity="0.3">
<path d="M35.3555 91.4727C35.3555 91.4727 40.1558 96.422 40.8288 95.6894C41.4959 94.9569 41.7937 90.1982 43.7472 91.1392C43.7472 91.1392 43.2826 90.353 42.5382 90.2756C41.7937 90.1982 40.5966 90.085 40.001 92.8068C40.001 92.8068 39.9772 93.6526 39.3578 93.4024C38.7384 93.1523 35.3555 91.4727 35.3555 91.4727Z" fill="black"/>
</g>
<g opacity="0.3">
<path d="M44.9942 90.8039C44.9942 90.8039 46.0127 90.8039 46.2569 91.8521C46.5011 92.9003 46.5785 95.7651 46.5785 95.7651L50.8428 91.5543L48.0436 93.4959C48.0436 93.4959 47.6624 90.1845 45.5958 89.7676L44.9883 90.8039H44.9942Z" fill="black"/>
</g>
<path d="M58.0115 148.683C58.0115 148.683 57.9401 148.683 57.809 148.659C57.6601 148.635 57.4636 148.605 57.2135 148.563C56.6715 148.468 55.9091 148.337 54.9384 148.17C52.9432 147.807 50.0963 147.289 46.5824 146.646C43.0565 145.991 38.8577 145.204 34.2062 144.293C33.0449 144.061 31.8537 143.823 30.6328 143.578C30.0253 143.453 29.4118 143.322 28.7924 143.191C28.4827 143.132 28.1671 143.048 27.8574 142.971C27.5477 142.87 27.232 142.78 26.9283 142.661C25.7073 142.179 24.5638 141.446 23.6109 140.487C22.6699 139.523 21.8778 138.361 21.3775 137.069C20.8712 135.776 20.6151 134.401 20.6449 133.049C20.6449 131.715 20.6449 130.404 20.6449 129.112C20.6449 126.533 20.6509 124.043 20.6568 121.673C20.6687 116.938 20.6806 112.668 20.6926 109.077C20.7104 105.503 20.7283 102.609 20.7402 100.584C20.7521 99.595 20.764 98.8207 20.77 98.2728C20.7759 98.0226 20.7819 97.8261 20.7878 97.6712C20.7878 97.5343 20.7998 97.4688 20.8057 97.4688C20.8117 97.4688 20.8176 97.5402 20.8236 97.6712C20.8236 97.8201 20.8355 98.0226 20.8415 98.2728C20.8474 98.8207 20.8593 99.595 20.8712 100.584C20.8831 102.609 20.901 105.503 20.9189 109.077C20.9308 112.668 20.9367 116.938 20.9546 121.673C20.9546 124.043 20.9546 126.533 20.9665 129.112C20.9665 130.404 20.9665 131.715 20.9665 133.049C20.9427 134.371 21.1928 135.699 21.6812 136.95C22.1696 138.206 22.9319 139.332 23.8432 140.267C24.7663 141.196 25.8741 141.911 27.0533 142.375C27.3511 142.489 27.6549 142.578 27.9527 142.679C28.2564 142.757 28.5602 142.834 28.8699 142.9C29.4893 143.031 30.1027 143.162 30.7102 143.287C31.9252 143.531 33.1163 143.775 34.2777 144.007C38.9232 144.913 43.1161 145.734 46.636 146.419C50.1439 147.098 52.9849 147.652 54.9741 148.039C55.9449 148.23 56.7013 148.385 57.2373 148.492C57.4815 148.546 57.678 148.587 57.8269 148.617C57.9579 148.647 58.0235 148.665 58.0235 148.671L58.0115 148.683Z" fill="#3ABFB4"/>
<path d="M39.9668 135.015C39.9668 135.015 39.9311 134.854 39.8954 134.556C39.8596 134.223 39.806 133.782 39.7465 133.228C39.6273 132.043 39.4606 130.375 39.2521 128.333C38.859 124.17 38.329 118.47 37.7394 112.175C37.4416 109.024 37.2152 106.004 36.9115 103.283C36.5958 100.573 35.8931 98.1487 34.6662 96.487C33.4571 94.8134 31.9563 93.9201 30.8664 93.5806C29.7646 93.2232 29.1035 93.3126 29.1094 93.2649C29.1094 93.253 29.2702 93.2471 29.5799 93.2471C29.8837 93.2649 30.3423 93.2947 30.9081 93.4674C32.0278 93.7771 33.5882 94.6645 34.8508 96.3619C36.1313 98.0534 36.8698 100.525 37.2033 103.247C37.5249 105.987 37.7572 108.988 38.055 112.145C38.6089 118.44 39.1151 124.146 39.4784 128.309C39.6452 130.352 39.7762 132.019 39.8775 133.21C39.9132 133.764 39.949 134.211 39.9668 134.545C39.9847 134.848 39.9906 135.009 39.9787 135.009L39.9668 135.015Z" fill="#3ABFB4"/>
<path d="M59.3763 143.312C59.3763 143.312 59.3465 143.134 59.3227 142.8C59.2989 142.437 59.2631 141.943 59.2215 141.323C59.1381 140.013 59.0249 138.167 58.882 135.897C58.5842 131.317 58.1077 124.992 57.4109 118.018C56.7141 111.044 55.9279 104.749 55.3145 100.198C55.0048 97.9471 54.7546 96.1127 54.5759 94.8084C54.4926 94.1949 54.427 93.7066 54.3794 93.3433C54.3377 93.0097 54.3198 92.8311 54.3317 92.8311C54.3437 92.8311 54.3794 93.0038 54.439 93.3373C54.5045 93.6946 54.5878 94.183 54.6951 94.7965C54.9095 96.0651 55.2013 97.8994 55.5348 100.169C56.2078 104.713 57.0238 111.008 57.7265 117.988C58.4234 124.963 58.8641 131.294 59.1083 135.885C59.2334 138.178 59.3108 140.037 59.3525 141.323C59.3703 141.943 59.3823 142.437 59.3942 142.8C59.3942 143.14 59.3942 143.318 59.3882 143.318L59.3763 143.312Z" fill="#3ABFB4"/>
<path d="M68.6318 120.185C68.6318 120.185 68.5485 119.851 68.4532 119.238C68.3519 118.57 68.2209 117.695 68.0601 116.641C67.7266 114.449 67.2501 111.424 66.6545 108.094C66.0589 104.765 65.4574 101.763 65.0048 99.5894C64.7904 98.5412 64.6117 97.6776 64.4747 97.0165C64.3496 96.409 64.296 96.0695 64.3139 96.0636C64.3318 96.0576 64.433 96.3852 64.5938 96.9867C64.7546 97.5882 64.969 98.4578 65.2192 99.5358C65.7254 101.698 66.3627 104.699 66.9583 108.029C67.5538 111.364 68.0005 114.395 68.2745 116.599C68.4115 117.701 68.5127 118.594 68.5723 119.208C68.6318 119.827 68.6557 120.167 68.6318 120.173V120.185Z" fill="#3ABFB4"/>
<path d="M71.4005 105.647C71.4005 105.647 71.3528 105.653 71.2576 105.659C71.1444 105.659 71.0015 105.659 70.8287 105.659C70.4297 105.653 69.8818 105.641 69.1909 105.629C67.7436 105.599 65.6889 105.552 63.1636 105.492C58.0774 105.385 51.0496 105.301 43.2832 105.355C35.5169 105.415 28.489 105.605 23.4028 105.79C20.8775 105.885 18.8287 105.962 17.3815 106.016C16.6906 106.04 16.1427 106.058 15.7436 106.07C15.5709 106.07 15.4339 106.07 15.3148 106.076C15.2195 106.076 15.1719 106.076 15.1719 106.07C15.1719 106.07 15.2195 106.058 15.3148 106.046C15.428 106.034 15.5709 106.022 15.7377 106.01C16.1367 105.98 16.6846 105.945 17.3755 105.897C18.793 105.802 20.8537 105.689 23.3968 105.575C28.4831 105.337 35.5109 105.111 43.2832 105.051C51.0496 104.992 58.0833 105.117 63.1696 105.278C65.7127 105.355 67.7734 105.438 69.1909 105.51C69.8818 105.546 70.4297 105.575 70.8287 105.599C71.0015 105.611 71.1384 105.623 71.2516 105.629C71.3469 105.635 71.3945 105.647 71.3945 105.653L71.4005 105.647Z" fill="#3ABFB4"/>
<path d="M40.2514 91.8167C40.2037 91.8882 39.09 91.2509 37.7618 90.3873C36.4337 89.5238 35.3914 88.7674 35.4391 88.6959C35.4867 88.6244 36.6005 89.2617 37.9286 90.1253C39.2567 90.9889 40.299 91.7453 40.2514 91.8167Z" fill="#3ABFB4"/>
<path d="M51.1762 88.6963C51.2298 88.7619 50.4793 89.4765 49.4788 90.2806C48.9785 90.6796 48.5139 91.031 48.1625 91.2633C47.9839 91.3824 47.8409 91.4658 47.7278 91.5194C47.6742 91.5432 47.6265 91.5611 47.5908 91.567C47.5193 91.5908 47.5372 91.5075 47.555 91.5253C47.5014 91.5492 48.2995 90.8285 49.2882 90.0364C50.2828 89.2324 51.1226 88.6249 51.1762 88.6904V88.6963Z" fill="#3ABFB4"/>
<path d="M29.5946 126.725C29.5946 126.808 26.3784 127.047 22.4 127.255C18.4215 127.463 15.1875 127.565 15.1875 127.475C15.1875 127.392 18.4036 127.154 22.3881 126.945C26.3665 126.737 29.5946 126.636 29.6005 126.725H29.5946Z" fill="#3ABFB4"/>
<path d="M62.7288 128.482C62.7288 128.565 55.5461 128.869 46.6779 129.161C37.8097 129.453 30.6211 129.614 30.6211 129.53C30.6211 129.447 37.8038 129.143 46.6719 128.851C55.5342 128.559 62.7288 128.399 62.7288 128.482Z" fill="#3ABFB4"/>
<path d="M29.5074 147.796C29.4657 147.778 29.7992 147.039 30.3234 145.848C30.8475 144.657 31.5383 142.995 32.2233 141.137C32.9022 139.273 33.4442 137.558 33.8194 136.313C34.1946 135.068 34.409 134.288 34.4567 134.3C34.4745 134.3 34.4507 134.502 34.3792 134.866C34.3078 135.223 34.1946 135.741 34.0338 136.373C33.7122 137.641 33.206 139.374 32.521 141.244C31.8361 143.115 31.1036 144.77 30.5318 145.944C30.2459 146.533 30.0017 146.998 29.8231 147.319C29.6444 147.641 29.5372 147.808 29.5193 147.802L29.5074 147.796Z" fill="#3ABFB4"/>
<path d="M47.412 152.126C47.3703 152.126 47.3763 151.363 47.4596 150.136C47.543 148.91 47.7217 147.218 48.0195 145.366C48.3173 143.514 48.6806 141.852 48.9903 140.661C49.294 139.47 49.5323 138.749 49.568 138.755C49.6097 138.767 49.4548 139.511 49.2047 140.708C48.9545 141.906 48.627 143.567 48.3292 145.413C48.0314 147.26 47.8229 148.939 47.68 150.154C47.5371 151.369 47.4596 152.126 47.412 152.126Z" fill="#3ABFB4"/>
<path d="M29.853 113.603C29.853 113.603 29.7755 113.299 29.71 112.745C29.6445 112.191 29.5909 111.381 29.5552 110.38C29.5135 109.38 29.5016 108.195 29.4122 106.884C29.3229 105.574 29.1383 104.139 28.6916 102.697C28.2389 101.262 27.5421 99.9757 26.6368 99.0466C25.7375 98.1175 24.6774 97.5338 23.7483 97.2479C22.8073 96.9621 21.9913 96.9561 21.4493 97.0276C20.9014 97.099 20.6096 97.2122 20.5977 97.1765C20.5977 97.1646 20.6632 97.1348 20.8061 97.0812C20.9431 97.0216 21.1515 96.968 21.4315 96.9085C21.9854 96.7953 22.8251 96.7715 23.8078 97.0395C24.7846 97.3075 25.8924 97.8912 26.8393 98.85C27.7923 99.8089 28.5248 101.137 28.9834 102.608C29.442 104.085 29.6207 105.55 29.6921 106.872C29.7636 108.195 29.7577 109.386 29.7696 110.386C29.7755 111.381 29.7994 112.191 29.8291 112.745C29.853 113.305 29.8768 113.608 29.853 113.614V113.603Z" fill="#263238"/>
</svg>
