<svg width="146" height="225" viewBox="0 0 146 225" fill="none" xmlns="http://www.w3.org/2000/svg">
<path d="M77.873 47.452C88.1352 45.6551 95.0323 35.6767 93.2781 25.1645C91.524 14.6524 81.7829 7.5873 71.5207 9.38417C61.2586 11.181 54.3615 21.1595 56.1156 31.6716C57.8697 42.1837 67.6109 49.2488 77.873 47.452Z" fill="#02978A"/>
<path d="M83.4125 42.8924C92.1281 37.0591 94.577 25.0928 88.8824 16.165C83.1878 7.23717 71.5061 4.72857 62.7906 10.5619C54.0751 16.3952 51.6261 28.3615 57.3207 37.2893C63.0153 46.2171 74.697 48.7257 83.4125 42.8924Z" fill="#007E72"/>
<path d="M77.6968 40.0642C85.1613 37.3129 89.0891 29.0374 86.4697 21.5804C83.8503 14.1235 75.6757 10.3088 68.2111 13.0602C60.7465 15.8116 56.8187 24.087 59.4381 31.544C62.0575 39.001 70.2322 42.8156 77.6968 40.0642Z" fill="#00DCCD"/>
<path d="M77.6757 40.019C70.3419 42.7203 62.2789 38.9312 59.4492 31.5503C59.4901 31.6818 59.5309 31.8133 59.5776 31.9507C62.2614 39.5946 70.4878 43.563 77.9499 40.8138C85.412 38.0647 89.286 29.6378 86.6023 21.9939C86.5556 21.8625 86.5031 21.731 86.4564 21.6055C88.8718 29.1418 85.0095 37.3236 77.6757 40.0249V40.019Z" fill="#3ABFB4"/>
<path d="M68.2347 13.1248C75.5685 10.4234 83.6316 14.2125 86.4612 21.5934C86.4204 21.4619 86.3795 21.3305 86.3329 21.193C83.6491 13.5491 75.4226 9.58073 67.9605 12.3299C60.4984 15.0791 56.6244 23.5059 59.3082 31.1498C59.3549 31.2813 59.4074 31.4128 59.4541 31.5383C57.0386 24.0019 60.901 15.8202 68.2347 13.1188V13.1248Z" fill="#02978A"/>
<path d="M81.3816 27.9156C80.699 25.9733 79.3512 25.0469 77.8401 25.023C78.5811 24.0489 78.8203 22.6803 78.2835 21.1443C77.6126 19.2318 76.0957 18.2577 73.972 18.5326L73.1435 16.1719L71.014 16.9548L71.7841 19.1482L70.5764 19.5904L69.8062 17.3971L67.6767 18.18L68.4468 20.3733L66.5098 21.0845L65.1621 21.5806L65.9264 23.762L67.2741 23.2659L70.9965 33.8622L69.5029 34.4121L70.2672 36.5935L71.7607 36.0436L73.6977 35.3324L74.5962 37.8844L76.7258 37.1015L75.8273 34.5495L77.035 34.1073L77.9335 36.6592L80.063 35.8763L79.1353 33.2407C81.4107 32.0095 82.1634 30.1389 81.3874 27.9216L81.3816 27.9156ZM69.9754 22.2798L72.8518 21.216C74.4504 20.6243 75.5939 20.977 76.084 22.3635C76.5624 23.7321 75.8973 24.7481 74.2987 25.3338L71.0315 26.5351L69.5845 22.4113L69.9696 22.2679L69.9754 22.2798ZM77.035 31.645L73.5519 32.9299L73.3068 33.0195L71.7899 28.7045L75.5181 27.3299C77.2567 26.6905 78.4294 27.0012 78.9545 28.5013C79.4796 29.9954 78.7736 31.0055 77.0292 31.645H77.035Z" fill="#02978A"/>
<path d="M80.3484 28.2916C79.6658 26.3493 78.318 25.4229 76.8069 25.399C77.5479 24.4248 77.7871 23.0562 77.2504 21.5203C76.5794 19.6078 75.0625 18.6336 72.9388 18.9086L72.1103 16.5479L69.9808 17.3308L70.7509 19.5241L69.5432 19.9664L68.7731 17.773L66.6435 18.5559L67.4136 20.7493L65.4766 21.4605L64.1289 21.9566L64.8932 24.138L66.2409 23.6419L69.9632 34.2382L68.4697 34.788L69.234 36.9694L70.7275 36.4196L72.6646 35.7084L73.563 38.2604L75.6926 37.4774L74.7941 34.9255L76.0018 34.4832L76.9003 37.0352L79.0298 36.2523L78.1022 33.6166C80.3776 32.3855 81.1302 30.5149 80.3542 28.2976L80.3484 28.2916ZM68.9422 22.6558L71.8186 21.592C73.4172 21.0003 74.5607 21.3529 75.0508 22.7395C75.5292 24.1081 74.8641 25.1241 73.2655 25.7098L69.9983 26.911L68.5513 22.7873L68.9364 22.6438L68.9422 22.6558ZM76.0018 32.0209L72.5187 33.3059L72.2737 33.3955L70.7567 29.0805L74.4849 27.7059C76.2235 27.0664 77.3962 27.3772 77.9213 28.8773C78.4464 30.3774 77.7404 31.3814 75.996 32.0209H76.0018Z" fill="#007E72"/>
<path d="M68.7709 17.7805C68.8234 17.93 68.0299 18.3722 66.7697 18.928L66.9972 18.432C67.254 19.0476 67.5457 19.7886 67.8374 20.5955L67.9949 21.0258L67.5632 21.1871C67.3823 21.2529 67.1898 21.3306 66.9914 21.4023C65.9879 21.7728 65.0427 22.0896 64.2493 22.3286L64.4768 21.8326C64.8619 23.1773 65.0369 24.0857 64.8852 24.1395C64.7394 24.1933 64.3018 23.3805 63.765 22.0896L63.625 21.7549L63.9926 21.5935C64.751 21.2589 65.6728 20.8883 66.6822 20.5178C66.8806 20.4461 67.0731 20.3743 67.254 20.3086L66.9797 20.9003C66.7055 20.0875 66.4663 19.3285 66.2796 18.683L66.1688 18.2885L66.5072 18.1869C67.8257 17.7925 68.7067 17.6132 68.7592 17.7686L68.7709 17.7805Z" fill="#3ABFB4"/>
<path d="M72.571 16.4247C72.6586 16.6697 72.151 17.0761 71.4392 17.3391C70.7274 17.602 70.0856 17.614 69.9981 17.3749C69.9106 17.1299 70.4182 16.7235 71.13 16.4605C71.8417 16.1976 72.4835 16.1856 72.571 16.4247Z" fill="#3ABFB4"/>
<path d="M69.801 34.1318C69.5618 34.2214 68.5583 31.9623 67.549 29.0996C66.5396 26.2309 65.9154 23.8343 66.1546 23.7506C66.3938 23.661 67.3973 25.9201 68.4066 28.7888C69.416 31.6575 70.0402 34.0541 69.801 34.1377V34.1318Z" fill="#3ABFB4"/>
<path d="M74.348 25.3405C74.4355 25.5855 73.5837 26.1174 72.4518 26.5358C71.3199 26.9541 70.3281 27.0975 70.2464 26.8525C70.1589 26.6075 71.0107 26.0756 72.1426 25.6572C73.2744 25.2389 74.2604 25.0954 74.348 25.3405Z" fill="#3ABFB4"/>
<path d="M76.6995 31.776C76.787 32.021 75.9352 32.5529 74.8034 32.9713C73.6715 33.3897 72.6797 33.5331 72.598 33.2881C72.5105 33.043 73.3623 32.5111 74.4941 32.0928C75.626 31.6744 76.612 31.531 76.6995 31.776Z" fill="#3ABFB4"/>
<path d="M27.888 186.166C29.4283 185.293 31.3361 185.263 33.0106 185.813C34.685 186.363 36.1494 187.451 37.4155 188.7C39.8601 191.126 41.3945 194.82 42.2755 198.184C38.5707 198.943 34.7317 196.768 32.853 195.537C29.8833 193.594 25.671 188.234 27.888 186.16" fill="#455A64"/>
<path d="M48.7211 198.986C46.9299 198.161 45.7514 196.207 45.6113 194.199C45.4713 192.191 46.2823 190.182 47.595 188.682C48.2018 187.989 49.0069 187.362 49.9171 187.403C50.7631 187.445 51.504 188.097 51.8599 188.886C52.2158 189.674 52.245 190.583 52.1633 191.443C51.8833 194.414 51.084 197.235 48.7211 198.98" fill="#455A64"/>
<path d="M54.7121 208.427C54.7121 208.427 54.5254 208.254 54.222 207.913C53.8895 207.537 53.4577 207.047 52.9443 206.461C51.8941 205.224 50.3597 203.491 49.3737 201.136C48.3819 198.799 48.1368 196.433 48.376 194.783C48.4811 193.958 48.6678 193.307 48.8311 192.871C48.907 192.649 48.9886 192.494 49.0353 192.381C49.0878 192.273 49.117 192.213 49.1228 192.219C49.1812 192.237 48.7086 193.169 48.5452 194.801C48.3585 196.427 48.6269 198.739 49.6012 201.034C50.5639 203.341 52.0633 205.075 53.0785 206.342C53.5978 206.975 54.0178 207.483 54.2979 207.848C54.5779 208.212 54.7238 208.415 54.7121 208.427Z" fill="#263238"/>
<path d="M31.4515 189.954C31.4515 189.954 31.5448 190.002 31.714 190.116C31.9007 190.247 32.1399 190.414 32.4375 190.618C33.0617 191.06 33.9602 191.705 35.0571 192.518C37.2566 194.138 40.2671 196.427 43.5402 199.021C46.8074 201.62 49.7188 204.041 51.7958 205.828C52.8343 206.718 53.6686 207.447 54.2404 207.955C54.5088 208.2 54.7247 208.398 54.8939 208.547C55.0397 208.684 55.1156 208.762 55.1097 208.768C55.1097 208.774 55.0164 208.714 54.8588 208.589C54.6838 208.445 54.4563 208.26 54.1762 208.033C53.5636 207.525 52.7176 206.826 51.6791 205.965C49.5729 204.22 46.6499 201.817 43.3827 199.224C40.1155 196.624 37.1224 194.323 34.9521 192.662C33.8844 191.849 33.0092 191.179 32.3791 190.695C32.0932 190.474 31.8657 190.295 31.6848 190.151C31.5273 190.026 31.4456 189.954 31.4515 189.948V189.954Z" fill="#263238"/>
<path d="M47.3466 204.275C43.7059 202.243 39.091 202.171 35.3978 204.09C34.4585 204.58 33.4608 205.398 33.5483 206.48C33.63 207.562 34.7502 208.213 35.7654 208.518C39.9836 209.785 44.8903 208.112 47.5333 204.508" fill="#455A64"/>
<path d="M38.2226 205.715C38.2226 205.715 38.421 205.583 38.8002 205.386C38.9869 205.284 39.2203 205.165 39.5062 205.057C39.7862 204.95 40.1013 204.794 40.4689 204.693C40.8306 204.579 41.2273 204.442 41.6707 204.352C42.1025 204.239 42.5809 204.167 43.0768 204.095C44.0803 203.976 45.1947 203.946 46.3499 204.077C47.5051 204.221 48.5844 204.513 49.5296 204.872C49.9963 205.063 50.4456 205.249 50.8365 205.47C51.2449 205.667 51.5949 205.894 51.9158 206.103C52.2484 206.294 52.5109 206.528 52.756 206.707C53.001 206.886 53.1994 207.059 53.3569 207.209C53.672 207.502 53.8412 207.663 53.8295 207.675C53.7945 207.717 53.1119 207.053 51.8225 206.253C51.4958 206.061 51.1457 205.84 50.7431 205.655C50.3522 205.446 49.9088 205.272 49.4479 205.087C48.5144 204.747 47.4526 204.466 46.3149 204.322C45.1772 204.191 44.0803 204.221 43.0943 204.322C42.6042 204.388 42.1316 204.448 41.7057 204.555C41.2682 204.633 40.8773 204.759 40.5155 204.86C39.0744 205.308 38.2401 205.757 38.2168 205.709L38.2226 205.715Z" fill="#263238"/>
<path d="M130.989 224.999L65.924 224.689C58.1001 224.653 51.7815 218.126 51.8166 210.106L52.505 43.01C52.54 34.9895 58.9111 28.517 66.7466 28.5529L131.811 28.8637C139.635 28.8995 145.954 35.4258 145.919 43.4462L145.23 210.542C145.195 218.563 138.824 225.035 130.989 224.999Z" fill="#00524C"/>
<path d="M131.715 34.8939L119.101 34.8341C117.409 34.8281 116.032 36.2864 116.026 38.0973L116.015 40.44C116.009 42.2509 114.632 43.7151 112.94 43.7032L88.3482 43.5896C86.6563 43.5837 85.291 42.1075 85.2969 40.2966L85.3085 37.9538C85.3144 36.143 83.9491 34.6668 82.2572 34.6608L77.8231 34.6369L66.7845 34.5831C61.3002 34.5592 56.837 39.0894 56.8136 44.7072L56.1427 207.805C56.1193 213.417 60.5418 217.989 66.0202 218.019L130.956 218.324C136.441 218.348 140.904 213.817 140.927 208.199L141.598 45.1017C141.622 39.4898 137.199 34.9178 131.721 34.8879L131.715 34.8939Z" fill="#3ABFB4"/>
<path d="M89.5038 99.0016C101.972 97.268 110.708 85.5087 109.015 72.7365C107.323 59.9644 95.8433 51.0159 83.3749 52.7496C70.9065 54.4833 62.1708 66.2425 63.8633 79.0147C65.5557 91.7869 77.0354 100.735 89.5038 99.0016Z" fill="#02978A"/>
<path d="M91.602 96.9221C104.056 95.0837 112.697 83.2514 110.903 70.4939C109.108 57.7364 97.557 48.8847 85.1029 50.7231C72.6488 52.5615 64.0076 64.3938 65.8023 77.1513C67.5969 89.9088 79.1479 98.7605 91.602 96.9221Z" fill="#007E72"/>
<path d="M94.994 90.1507C103.674 86.5872 107.818 76.307 104.251 67.1891C100.683 58.0712 90.7551 53.5684 82.0754 57.1319C73.3957 60.6953 69.2513 70.9755 72.8187 80.0934C76.3861 89.2113 86.3143 93.7141 94.994 90.1507Z" fill="#00DCCD"/>
<path d="M72.8811 80.0642C69.3747 71.1114 73.4938 60.9634 82.0761 57.1504C81.9185 57.2102 81.7668 57.2639 81.6093 57.3297C72.7119 60.9813 68.3945 71.3325 71.9593 80.4467C75.5241 89.5608 85.6292 93.9834 94.5207 90.3317C94.6724 90.266 94.8241 90.2003 94.9758 90.1285C86.1951 93.4455 76.3817 89.0229 72.8753 80.0642H72.8811Z" fill="#3ABFB4"/>
<path d="M104.184 67.2144C107.691 76.1671 103.572 86.3152 94.9896 90.1282C95.1471 90.0684 95.2988 90.0146 95.4563 89.9489C104.354 86.2972 108.671 75.946 105.106 66.8319C101.542 57.7178 91.4365 53.2952 82.5449 56.9468C82.3932 57.0126 82.2415 57.0783 82.0898 57.15C90.8705 53.8331 100.684 58.2557 104.19 67.2144H104.184Z" fill="#02978A"/>
<path d="M87.3136 84.1272C89.5773 83.2009 90.61 81.4916 90.5691 79.621C91.7477 80.4935 93.3696 80.7386 95.1608 80.0035C97.3836 79.0891 98.4688 77.1706 98.0546 74.5529L100.803 73.4234L99.7874 70.8236L97.2378 71.8695L96.6602 70.3933L99.2098 69.3474L98.1946 66.7476L95.645 67.7935L94.7173 65.4269L94.0697 63.7773L91.5318 64.8173L92.1794 66.4668L79.8514 71.5288L79.1397 69.706L76.6017 70.7459L77.3135 72.5687L78.2412 74.9354L75.2715 76.1546L76.2867 78.7544L79.2563 77.5352L79.8339 79.0114L76.8642 80.2306L77.8794 82.8303L80.9425 81.5693C82.4886 84.3364 84.7348 85.1791 87.3136 84.1212V84.1272ZM93.4688 69.7658L94.8457 73.2799C95.61 75.2342 95.2483 76.6626 93.6322 77.326C92.0394 77.9774 90.8142 77.2005 90.0499 75.2462L88.4863 71.2539L93.2821 69.2817L93.4688 69.7538V69.7658ZM82.7336 78.9098L81.0708 74.6545L80.9541 74.3557L85.9775 72.2938L87.757 76.8479C88.5913 78.9755 88.2646 80.4397 86.5259 81.1509C84.7873 81.8681 83.5679 81.0314 82.7336 78.9098Z" fill="#02978A"/>
<path d="M86.8194 82.8665C89.0831 81.9401 90.1158 80.2309 90.075 78.3602C91.2535 79.2328 92.8755 79.4778 94.6666 78.7427C96.8895 77.8283 97.9747 75.9099 97.5604 73.2922L100.308 72.1626L99.2932 69.5629L96.7436 70.6087L96.166 69.1326L98.7156 68.0867L97.7005 65.4869L95.1509 66.5328L94.2232 64.1661L93.5756 62.5166L91.0377 63.5565L91.6853 65.206L79.3573 70.2681L78.6455 68.4453L76.1076 69.4852L76.8194 71.308L77.747 73.6747L74.7773 74.8939L75.7925 77.4936L78.7622 76.2744L79.3398 77.7506L76.3701 78.9698L77.3853 81.5696L80.4483 80.3085C81.9944 83.0757 84.2406 83.9183 86.8194 82.8605V82.8665ZM92.9747 68.505L94.3516 72.0192C95.1159 73.9735 94.7541 75.4019 93.138 76.0653C91.5452 76.7167 90.32 75.9397 89.5557 73.9854L87.9921 69.9932L92.788 68.0209L92.9747 68.4931V68.505ZM82.2395 77.649L80.5767 73.3938L80.46 73.0949L85.4834 71.0331L87.2628 75.5871C88.0971 77.7148 87.7763 79.179 86.0318 79.8902C84.2873 80.6014 83.0738 79.7707 82.2395 77.649Z" fill="#007E72"/>
<path d="M98.7138 68.0871C98.5679 68.1469 98.0428 67.1787 97.3485 65.6308L97.8386 65.8459C97.121 66.1866 96.2575 66.5691 95.3123 66.9635L94.8981 67.1368L94.7289 66.7005C94.6414 66.4794 94.548 66.2404 94.4547 66.0013C93.9763 64.7701 93.5562 63.6227 93.2295 62.6545L93.7196 62.8696C92.156 63.4195 91.0999 63.7004 91.0416 63.551C90.9833 63.4015 91.9342 62.8577 93.4395 62.1525L93.7662 61.9971L93.9296 62.3676C94.3438 63.294 94.8164 64.4235 95.3007 65.6547C95.394 65.8937 95.4874 66.1328 95.569 66.3539L94.9798 66.0969C95.9249 65.7204 96.8118 65.3857 97.5586 65.1228L97.932 64.9913L98.0486 65.3379C98.5912 66.9456 98.8596 68.0213 98.7138 68.0811V68.0871Z" fill="#3ABFB4"/>
<path d="M100.477 72.7255C100.244 72.8211 99.777 72.1936 99.4386 71.327C99.1002 70.4604 99.0127 69.6775 99.2461 69.5819C99.4795 69.4863 99.9462 70.1138 100.285 70.9804C100.623 71.847 100.711 72.6299 100.477 72.7255Z" fill="#3ABFB4"/>
<path d="M79.4809 70.0648C79.3876 69.8257 82.0189 68.5228 85.3561 67.1483C88.6934 65.7797 91.4763 64.8593 91.5697 65.0983C91.663 65.3374 89.0317 66.6403 85.6945 68.0148C82.3573 69.3835 79.5743 70.3038 79.4809 70.0648Z" fill="#3ABFB4"/>
<path d="M90.0437 75.319C89.8103 75.4147 89.1802 74.3688 88.6376 72.9882C88.095 71.6017 87.8441 70.4064 88.0775 70.3108C88.3109 70.2151 88.941 71.261 89.4836 72.6416C90.0262 74.0281 90.2771 75.2234 90.0437 75.319Z" fill="#3ABFB4"/>
<path d="M82.5554 78.5046C82.322 78.6002 81.6919 77.5543 81.1493 76.1738C80.6067 74.7872 80.3558 73.5919 80.5892 73.4963C80.8226 73.4007 81.4527 74.4466 81.9953 75.8271C82.5379 77.2077 82.7888 78.409 82.5554 78.5046Z" fill="#3ABFB4"/>
<path d="M76.9809 117.646C76.9809 117.646 76.9809 131.231 73.6612 132.516C64.6354 136.018 53.8361 135.211 50.0379 134.841C49.5828 134.518 49.0577 134.118 48.4568 133.621C47.9434 133.197 47.5058 132.677 47.1557 132.092C46.7357 131.386 46.2106 130.424 46.0764 129.803C45.913 129.038 44.9445 128.876 44.6761 129.528C44.4078 130.179 44.4953 132.552 45.9539 134.566C45.9539 134.566 46.4498 135.492 45.4054 136.012C43.8885 136.771 38.5092 139.102 37.6574 139.628C36.899 140.1 36.193 140.871 37.0448 140.925C37.8966 140.979 42.4182 139.837 42.4182 139.837C42.4182 139.837 36.4672 141.212 36.7006 142.09C36.864 142.694 38.5151 142.825 42.3657 141.516C42.3657 141.516 37.4707 142.688 37.004 143.273C35.948 144.594 41.8523 143.244 41.8523 143.244C37.7274 144.23 37.7449 143.997 37.7566 144.588C37.7683 145.031 38.731 145.114 41.0297 144.905C42.8967 144.738 44.857 144.947 47.7158 144.851C47.7158 144.851 84.583 151.581 87.9378 134.912C89.7464 125.93 89.4431 122.613 89.8048 116.804" fill="#FFBE9D"/>
<path d="M44.3488 142.711C44.378 142.819 43.1236 143.171 41.5484 143.506C39.9731 143.841 38.6837 144.02 38.6662 143.913C38.6487 143.805 39.9031 143.446 41.4667 143.118C43.0303 142.789 44.3197 142.604 44.3488 142.711Z" fill="#EB996E"/>
<path d="M44.1526 141.044C44.1817 141.151 42.8632 141.606 41.212 142.06C39.5609 142.514 38.2015 142.801 38.1723 142.699C38.1432 142.592 39.4617 142.138 41.1129 141.683C42.764 141.229 44.1234 140.942 44.1526 141.044Z" fill="#EB996E"/>
<path d="M43.9275 139.323C43.9567 139.431 42.7198 139.879 41.162 140.334C39.6042 140.788 38.3207 141.069 38.2915 140.967C38.2623 140.859 39.4992 140.411 41.057 139.957C42.6148 139.503 43.8983 139.222 43.9275 139.323Z" fill="#EB996E"/>
<path d="M125.704 120.188C125.704 120.188 125.499 118.161 124.128 106.818C123.533 101.882 119.77 99.0547 116.258 97.1781V97.1124L115.954 97.0227C111.485 94.7218 106.754 94.2795 106.754 94.2795L94.3322 94.0703C94.3322 94.0703 85.7208 93.401 79.4372 99.3655C77.3777 101.326 75.2656 118.837 75.2656 118.837L81.4792 121.102L81.4267 118.52C81.4267 118.52 81.17 123.761 82.8619 126.815C84.5539 129.869 86.8585 134.029 86.8585 134.029L84.2097 146.753C82.5644 151.6 77.1501 169.314 79.2738 186.867C81.9051 208.603 82.7103 218.094 82.7103 218.094L118.591 218.261C118.591 218.261 125.727 185.767 121.818 157.044C120.079 144.279 115.237 142.88 114.548 140.155L115.33 120.594L125.709 120.176L125.704 120.188Z" fill="#008375"/>
<path d="M123.404 104.678C123.404 104.762 113.182 104.846 100.58 104.852C87.9718 104.864 77.75 104.804 77.75 104.714C77.75 104.624 87.9659 104.547 100.574 104.541C113.176 104.529 123.398 104.589 123.398 104.678H123.404Z" fill="#FAFAFA"/>
<path d="M78.0035 110.883C78.0035 110.967 77.6768 111.039 77.2742 111.039C76.8716 111.039 76.5449 110.967 76.5449 110.883C76.5449 110.799 76.8716 110.728 77.2742 110.728C77.6768 110.728 78.0035 110.799 78.0035 110.883Z" fill="#FAFAFA"/>
<path d="M84.0183 110.875C84.0183 110.959 83.3474 111.031 82.5131 111.031C81.6846 111.031 81.0078 110.965 81.0078 110.875C81.0078 110.792 81.6788 110.72 82.5131 110.72C83.3416 110.72 84.0183 110.786 84.0183 110.875Z" fill="#FAFAFA"/>
<path d="M90.0398 110.871C90.0398 110.955 89.3689 111.026 88.5345 111.026C87.7061 111.026 87.0293 110.96 87.0293 110.871C87.0293 110.787 87.7002 110.715 88.5345 110.715C89.363 110.715 90.0398 110.781 90.0398 110.871Z" fill="#FAFAFA"/>
<path d="M96.0613 110.865C96.0613 110.949 95.3903 111.021 94.556 111.021C93.7276 111.021 93.0508 110.955 93.0508 110.865C93.0508 110.775 93.7217 110.709 94.556 110.709C95.3845 110.709 96.0613 110.775 96.0613 110.865Z" fill="#FAFAFA"/>
<path d="M102.085 110.859C102.085 110.943 101.414 111.015 100.579 111.015C99.751 111.015 99.0742 110.949 99.0742 110.859C99.0742 110.769 99.7452 110.703 100.579 110.703C101.408 110.703 102.085 110.769 102.085 110.859Z" fill="#FAFAFA"/>
<path d="M108.104 110.859C108.104 110.943 107.433 111.015 106.599 111.015C105.771 111.015 105.094 110.949 105.094 110.859C105.094 110.775 105.765 110.703 106.599 110.703C107.427 110.703 108.104 110.769 108.104 110.859Z" fill="#FAFAFA"/>
<path d="M114.12 110.852C114.12 110.936 113.449 111.008 112.615 111.008C111.786 111.008 111.109 110.942 111.109 110.852C111.109 110.768 111.78 110.696 112.615 110.696C113.443 110.696 114.12 110.762 114.12 110.852Z" fill="#FAFAFA"/>
<path d="M120.139 110.846C120.139 110.93 119.468 111.002 118.634 111.002C117.806 111.002 117.129 110.936 117.129 110.846C117.129 110.762 117.8 110.69 118.634 110.69C119.463 110.69 120.139 110.756 120.139 110.846Z" fill="#FAFAFA"/>
<path d="M124.615 110.841C124.615 110.925 124.288 110.997 123.886 110.997C123.483 110.997 123.156 110.925 123.156 110.841C123.156 110.757 123.483 110.686 123.886 110.686C124.288 110.686 124.615 110.757 124.615 110.841Z" fill="#FAFAFA"/>
<path d="M110.599 116.009C110.599 116.093 102.804 116.165 93.189 116.165C83.574 116.165 75.7734 116.093 75.7734 116.009C75.7734 115.925 83.5681 115.854 93.189 115.854C102.81 115.854 110.599 115.925 110.599 116.009Z" fill="#FAFAFA"/>
<path d="M124.775 116.267C124.775 116.351 121.823 116.423 118.183 116.423C114.542 116.423 111.59 116.351 111.59 116.267C111.59 116.183 114.542 116.111 118.183 116.111C121.823 116.111 124.775 116.183 124.775 116.267Z" fill="#FAFAFA"/>
<path d="M111.1 127.801C111.1 127.885 105.919 127.837 99.5305 127.682C93.1419 127.532 87.961 127.335 87.9668 127.251C87.9668 127.168 93.1477 127.222 99.5363 127.371C105.925 127.52 111.1 127.718 111.1 127.801Z" fill="#FAFAFA"/>
<path d="M120.926 153.088C120.926 153.172 114.018 153.244 105.506 153.244C96.9938 153.244 90.0859 153.172 90.0859 153.088C90.0859 153.005 96.988 152.933 105.506 152.933C114.024 152.933 120.926 153.005 120.926 153.088Z" fill="#FAFAFA"/>
<path d="M122.043 166.972C122.043 167.056 112.463 167.128 100.654 167.128C88.8456 167.128 79.2598 167.056 79.2598 166.972C79.2598 166.888 88.8339 166.816 100.654 166.816C112.475 166.816 122.043 166.888 122.043 166.972Z" fill="#FAFAFA"/>
<path d="M122.414 183.157C122.414 183.241 112.723 183.313 100.774 183.313C88.8256 183.313 79.1348 183.241 79.1348 183.157C79.1348 183.073 88.8198 183.001 100.774 183.001C112.729 183.001 122.414 183.073 122.414 183.157Z" fill="#FAFAFA"/>
<path d="M121.641 198.57C121.641 198.654 112.517 198.726 101.256 198.726C89.996 198.726 80.8711 198.654 80.8711 198.57C80.8711 198.486 89.996 198.414 101.256 198.414C112.517 198.414 121.641 198.486 121.641 198.57Z" fill="#FAFAFA"/>
<path d="M119.777 211.946C119.777 212.03 111.405 212.102 101.072 212.102C90.7395 212.102 82.3672 212.03 82.3672 211.946C82.3672 211.862 90.7395 211.79 101.072 211.79C111.405 211.79 119.777 211.862 119.777 211.946Z" fill="#FAFAFA"/>
<path d="M86.0523 123.069C86.0523 123.153 85.7256 123.225 85.323 123.225C84.9205 123.225 84.5938 123.153 84.5938 123.069C84.5938 122.985 84.9205 122.913 85.323 122.913C85.7256 122.913 86.0523 122.985 86.0523 123.069Z" fill="#FAFAFA"/>
<path d="M91.385 123.069C91.385 123.153 90.7899 123.225 90.049 123.225C89.308 123.225 88.7129 123.153 88.7129 123.069C88.7129 122.985 89.308 122.913 90.049 122.913C90.7899 122.913 91.385 122.985 91.385 123.069Z" fill="#FAFAFA"/>
<path d="M96.7249 123.069C96.7249 123.153 96.1297 123.225 95.3888 123.225C94.6478 123.225 94.0527 123.153 94.0527 123.069C94.0527 122.985 94.6478 122.913 95.3888 122.913C96.1297 122.913 96.7249 122.985 96.7249 123.069Z" fill="#FAFAFA"/>
<path d="M102.055 123.069C102.055 123.153 101.46 123.225 100.719 123.225C99.9779 123.225 99.3828 123.153 99.3828 123.069C99.3828 122.985 99.9779 122.913 100.719 122.913C101.46 122.913 102.055 122.985 102.055 123.069Z" fill="#FAFAFA"/>
<path d="M107.395 123.069C107.395 123.153 106.8 123.225 106.059 123.225C105.318 123.225 104.723 123.153 104.723 123.069C104.723 122.985 105.318 122.913 106.059 122.913C106.8 122.913 107.395 122.985 107.395 123.069Z" fill="#FAFAFA"/>
<path d="M111.519 123.069C111.519 123.153 111.192 123.225 110.79 123.225C110.387 123.225 110.061 123.153 110.061 123.069C110.061 122.985 110.387 122.913 110.79 122.913C111.192 122.913 111.519 122.985 111.519 123.069Z" fill="#FAFAFA"/>
<path d="M92.9527 133.982C92.9527 134.066 92.626 134.138 92.2234 134.144C91.8209 134.144 91.4941 134.078 91.4941 133.988C91.4941 133.898 91.8209 133.832 92.2234 133.826C92.626 133.826 92.9527 133.892 92.9527 133.976V133.982Z" fill="#FAFAFA"/>
<path d="M99.3301 133.953C99.3301 134.036 98.6183 134.114 97.7373 134.114C96.8563 134.114 96.1445 134.054 96.1445 133.965C96.1445 133.881 96.8563 133.803 97.7373 133.803C98.6183 133.803 99.3301 133.863 99.3301 133.953Z" fill="#FAFAFA"/>
<path d="M105.699 133.922C105.699 134.006 104.987 134.084 104.106 134.084C103.225 134.084 102.514 134.024 102.514 133.934C102.514 133.85 103.225 133.772 104.106 133.772C104.987 133.772 105.699 133.832 105.699 133.922Z" fill="#FAFAFA"/>
<path d="M110.343 133.904C110.343 133.988 110.017 134.059 109.614 134.065C109.211 134.065 108.885 134 108.885 133.916C108.885 133.832 109.211 133.76 109.614 133.754C110.017 133.754 110.343 133.82 110.343 133.91V133.904Z" fill="#FAFAFA"/>
<path d="M85.8805 160.303C85.8805 160.387 85.5537 160.459 85.1512 160.459C84.7486 160.459 84.4219 160.387 84.4219 160.303C84.4219 160.219 84.7486 160.147 85.1512 160.147C85.5537 160.147 85.8805 160.219 85.8805 160.303Z" fill="#FAFAFA"/>
<path d="M92.1409 160.303C92.1409 160.387 91.4408 160.459 90.5773 160.459C89.7138 160.459 89.0137 160.387 89.0137 160.303C89.0137 160.219 89.7138 160.147 90.5773 160.147C91.4408 160.147 92.1409 160.219 92.1409 160.303Z" fill="#FAFAFA"/>
<path d="M98.4065 160.303C98.4065 160.387 97.7064 160.459 96.8429 160.459C95.9794 160.459 95.2793 160.387 95.2793 160.303C95.2793 160.219 95.9794 160.147 96.8429 160.147C97.7064 160.147 98.4065 160.219 98.4065 160.303Z" fill="#FAFAFA"/>
<path d="M104.668 160.303C104.668 160.387 103.968 160.459 103.105 160.459C102.241 160.459 101.541 160.387 101.541 160.303C101.541 160.219 102.241 160.147 103.105 160.147C103.968 160.147 104.668 160.219 104.668 160.303Z" fill="#FAFAFA"/>
<path d="M110.926 160.303C110.926 160.387 110.226 160.459 109.362 160.459C108.499 160.459 107.799 160.387 107.799 160.303C107.799 160.219 108.499 160.147 109.362 160.147C110.226 160.147 110.926 160.219 110.926 160.303Z" fill="#FAFAFA"/>
<path d="M117.188 160.303C117.188 160.387 116.488 160.459 115.624 160.459C114.761 160.459 114.061 160.387 114.061 160.303C114.061 160.219 114.761 160.147 115.624 160.147C116.488 160.147 117.188 160.219 117.188 160.303Z" fill="#FAFAFA"/>
<path d="M121.779 160.303C121.779 160.387 121.452 160.459 121.05 160.459C120.647 160.459 120.32 160.387 120.32 160.303C120.32 160.219 120.647 160.147 121.05 160.147C121.452 160.147 121.779 160.219 121.779 160.303Z" fill="#FAFAFA"/>
<path d="M80.3277 175.817C80.3277 175.901 80.001 175.973 79.5984 175.973C79.1959 175.973 78.8691 175.901 78.8691 175.817C78.8691 175.733 79.1959 175.661 79.5984 175.661C80.001 175.661 80.3277 175.733 80.3277 175.817Z" fill="#FAFAFA"/>
<path d="M86.5882 175.817C86.5882 175.901 85.888 175.973 85.0246 175.973C84.1611 175.973 83.4609 175.901 83.4609 175.817C83.4609 175.733 84.1611 175.661 85.0246 175.661C85.888 175.661 86.5882 175.733 86.5882 175.817Z" fill="#FAFAFA"/>
<path d="M92.844 175.817C92.844 175.901 92.1439 175.973 91.2804 175.973C90.4169 175.973 89.7168 175.901 89.7168 175.817C89.7168 175.733 90.4169 175.661 91.2804 175.661C92.1439 175.661 92.844 175.733 92.844 175.817Z" fill="#FAFAFA"/>
<path d="M99.0979 175.817C99.0979 175.901 98.3978 175.973 97.5343 175.973C96.6708 175.973 95.9707 175.901 95.9707 175.817C95.9707 175.733 96.6708 175.661 97.5343 175.661C98.3978 175.661 99.0979 175.733 99.0979 175.817Z" fill="#FAFAFA"/>
<path d="M105.356 175.817C105.356 175.901 104.656 175.973 103.792 175.973C102.929 175.973 102.229 175.901 102.229 175.817C102.229 175.733 102.929 175.661 103.792 175.661C104.656 175.661 105.356 175.733 105.356 175.817Z" fill="#FAFAFA"/>
<path d="M111.614 175.817C111.614 175.901 110.913 175.973 110.05 175.973C109.186 175.973 108.486 175.901 108.486 175.817C108.486 175.733 109.186 175.661 110.05 175.661C110.913 175.661 111.614 175.733 111.614 175.817Z" fill="#FAFAFA"/>
<path d="M117.867 175.817C117.867 175.901 117.167 175.973 116.304 175.973C115.44 175.973 114.74 175.901 114.74 175.817C114.74 175.733 115.44 175.661 116.304 175.661C117.167 175.661 117.867 175.733 117.867 175.817Z" fill="#FAFAFA"/>
<path d="M121.723 175.973C122.126 175.973 122.453 175.903 122.453 175.817C122.453 175.731 122.126 175.661 121.723 175.661C121.321 175.661 120.994 175.731 120.994 175.817C120.994 175.903 121.321 175.973 121.723 175.973Z" fill="#FAFAFA"/>
<path d="M81.1754 192.193C81.1754 192.277 80.8487 192.349 80.4461 192.349C80.0435 192.349 79.7168 192.277 79.7168 192.193C79.7168 192.109 80.0435 192.037 80.4461 192.037C80.8487 192.037 81.1754 192.109 81.1754 192.193Z" fill="#FAFAFA"/>
<path d="M87.2195 192.193C87.2195 192.277 86.5427 192.349 85.7084 192.349C84.874 192.349 84.1973 192.277 84.1973 192.193C84.1973 192.109 84.874 192.037 85.7084 192.037C86.5427 192.037 87.2195 192.109 87.2195 192.193Z" fill="#FAFAFA"/>
<path d="M93.2702 192.193C93.2702 192.277 92.5935 192.349 91.7591 192.349C90.9248 192.349 90.248 192.277 90.248 192.193C90.248 192.109 90.9248 192.037 91.7591 192.037C92.5935 192.037 93.2702 192.109 93.2702 192.193Z" fill="#FAFAFA"/>
<path d="M99.321 192.193C99.321 192.277 98.6442 192.349 97.8099 192.349C96.9756 192.349 96.2988 192.277 96.2988 192.193C96.2988 192.109 96.9756 192.037 97.8099 192.037C98.6442 192.037 99.321 192.109 99.321 192.193Z" fill="#FAFAFA"/>
<path d="M105.37 192.193C105.37 192.277 104.693 192.349 103.859 192.349C103.024 192.349 102.348 192.277 102.348 192.193C102.348 192.109 103.024 192.037 103.859 192.037C104.693 192.037 105.37 192.109 105.37 192.193Z" fill="#FAFAFA"/>
<path d="M111.421 192.193C111.421 192.277 110.744 192.349 109.91 192.349C109.075 192.349 108.398 192.277 108.398 192.193C108.398 192.109 109.075 192.037 109.91 192.037C110.744 192.037 111.421 192.109 111.421 192.193Z" fill="#FAFAFA"/>
<path d="M117.466 192.193C117.466 192.277 116.789 192.349 115.954 192.349C115.12 192.349 114.443 192.277 114.443 192.193C114.443 192.109 115.12 192.037 115.954 192.037C116.789 192.037 117.466 192.109 117.466 192.193Z" fill="#FAFAFA"/>
<path d="M121.951 192.193C121.951 192.277 121.624 192.349 121.221 192.349C120.819 192.349 120.492 192.277 120.492 192.193C120.492 192.109 120.819 192.037 121.221 192.037C121.624 192.037 121.951 192.109 121.951 192.193Z" fill="#FAFAFA"/>
<path d="M83.193 205.98C83.193 206.064 82.8662 206.136 82.4637 206.136C82.0611 206.136 81.7344 206.064 81.7344 205.98C81.7344 205.896 82.0611 205.824 82.4637 205.824C82.8662 205.824 83.193 205.896 83.193 205.98Z" fill="#FAFAFA"/>
<path d="M89.3033 205.98C89.3033 206.064 88.6207 206.136 87.7747 206.136C86.9287 206.136 86.2461 206.064 86.2461 205.98C86.2461 205.896 86.9287 205.824 87.7747 205.824C88.6207 205.824 89.3033 205.896 89.3033 205.98Z" fill="#FAFAFA"/>
<path d="M95.4088 205.98C95.4088 206.064 94.7261 206.136 93.8802 206.136C93.0342 206.136 92.3516 206.064 92.3516 205.98C92.3516 205.896 93.0342 205.824 93.8802 205.824C94.7261 205.824 95.4088 205.896 95.4088 205.98Z" fill="#FAFAFA"/>
<path d="M101.518 205.98C101.518 206.064 100.836 206.136 99.9895 206.136C99.1436 206.136 98.4609 206.064 98.4609 205.98C98.4609 205.896 99.1436 205.824 99.9895 205.824C100.836 205.824 101.518 205.896 101.518 205.98Z" fill="#FAFAFA"/>
<path d="M107.628 205.98C107.628 206.064 106.945 206.136 106.099 206.136C105.253 206.136 104.57 206.064 104.57 205.98C104.57 205.896 105.253 205.824 106.099 205.824C106.945 205.824 107.628 205.896 107.628 205.98Z" fill="#FAFAFA"/>
<path d="M113.735 205.98C113.735 206.064 113.052 206.136 112.206 206.136C111.36 206.136 110.678 206.064 110.678 205.98C110.678 205.896 111.36 205.824 112.206 205.824C113.052 205.824 113.735 205.896 113.735 205.98Z" fill="#FAFAFA"/>
<path d="M118.244 205.98C118.244 206.064 117.917 206.136 117.514 206.136C117.112 206.136 116.785 206.064 116.785 205.98C116.785 205.896 117.112 205.824 117.514 205.824C117.917 205.824 118.244 205.896 118.244 205.98Z" fill="#FAFAFA"/>
<path d="M110.687 138.07C110.687 138.07 110.349 138.166 109.73 138.267C109.112 138.369 108.213 138.488 107.093 138.608C104.865 138.847 101.761 139.038 98.3359 138.978C94.9112 138.913 91.819 138.608 89.5961 138.291C88.4876 138.13 87.5891 137.98 86.9765 137.855C86.358 137.729 86.0196 137.652 86.0255 137.622C86.0255 137.592 86.3755 137.622 86.9998 137.699C87.6999 137.783 88.5809 137.885 89.6311 138.01C91.854 138.255 94.9345 138.512 98.3418 138.578C101.749 138.638 104.835 138.494 107.07 138.327C108.126 138.243 109.013 138.172 109.713 138.112C110.337 138.058 110.681 138.04 110.687 138.07Z" fill="#263238"/>
<path d="M112.138 130.353C112.138 130.353 112.079 130.031 112.05 129.451C112.015 128.788 111.974 127.963 111.928 126.989C111.823 124.819 111.689 121.986 111.543 118.855C111.397 115.675 111.298 112.795 111.269 110.709C111.257 109.669 111.257 108.82 111.269 108.24C111.28 107.655 111.304 107.332 111.327 107.332C111.356 107.332 111.385 107.655 111.414 108.234C111.449 108.898 111.49 109.723 111.537 110.697C111.642 112.866 111.776 115.699 111.922 118.831C112.068 122.01 112.167 124.885 112.196 126.971C112.208 128.017 112.208 128.859 112.196 129.439C112.185 130.025 112.161 130.347 112.138 130.347V130.353Z" fill="#263238"/>
<g opacity="0.4">
<path d="M91.8809 138.414C94.7222 138.151 97.581 137.882 100.311 137.034C103.042 136.185 105.662 134.709 107.424 132.414C109.711 129.432 110.131 125.439 110.393 121.656C110.685 117.509 110.796 113.188 111.443 108.693L112.196 129.444L112.208 138.982L102.289 143.309L91.8867 138.414H91.8809Z" fill="black"/>
</g>
<path d="M68.4948 166.486C81.9926 166.486 92.9348 155.523 92.9348 142C92.9348 128.477 81.9926 117.515 68.4948 117.515C54.9969 117.515 44.0547 128.477 44.0547 142C44.0547 155.523 54.9969 166.486 68.4948 166.486Z" fill="#004F46"/>
<path d="M67.0045 163.911C80.5024 163.911 91.4446 152.948 91.4446 139.425C91.4446 125.902 80.5024 114.939 67.0045 114.939C53.5066 114.939 42.5645 125.902 42.5645 139.425C42.5645 152.948 53.5066 163.911 67.0045 163.911Z" fill="#008375"/>
<path opacity="0.2" d="M67.7846 157.351C78.0562 156.809 85.9737 148.232 85.4688 138.195C84.9638 128.158 76.2277 120.46 65.956 121.003C55.6843 121.545 47.7668 130.121 48.2717 140.159C48.7767 150.196 57.5129 157.893 67.7846 157.351Z" fill="#009587"/>
<path d="M68.6221 157.21C58.5636 158.19 49.6079 150.959 48.3594 140.978C48.371 141.157 48.3827 141.33 48.4002 141.51C49.392 151.759 58.4995 159.266 68.7271 158.268C78.9605 157.27 86.446 148.15 85.4541 137.9C85.4366 137.721 85.4133 137.547 85.3899 137.374C86.0784 147.409 78.6804 156.23 68.6279 157.21H68.6221Z" fill="#3ABFB4"/>
<path opacity="0.3" d="M65.1234 121.143C75.1818 120.163 84.1375 127.394 85.3861 137.375C85.3744 137.196 85.3627 137.022 85.3452 136.843C84.3534 126.594 75.246 119.087 65.0184 120.085C54.785 121.083 47.2995 130.203 48.2913 140.453C48.3088 140.632 48.3322 140.806 48.3555 140.979C47.6671 130.944 55.065 122.123 65.1176 121.143H65.1234Z" fill="black"/>
<path d="M77.0382 143.525C76.7873 140.919 75.3812 139.347 73.4851 138.839C74.7219 137.883 75.4512 136.275 75.247 134.213C74.9961 131.649 73.3975 129.97 70.6379 129.623L70.3287 126.462L67.4115 126.749L67.6974 129.689L66.0404 129.851L65.7545 126.91L62.8374 127.197L63.1233 130.137L60.4686 130.394L58.6191 130.574L58.905 133.496L60.7545 133.317L62.1314 147.523L60.0836 147.72L60.3694 150.643L62.4173 150.445L65.0719 150.188L65.4045 153.607L68.3217 153.32L67.9891 149.902L69.646 149.74L69.9786 153.159L72.8958 152.872L72.5516 149.34C75.7954 148.557 77.324 146.489 77.0323 143.519L77.0382 143.525ZM64.4593 132.952L68.4092 132.57C70.6029 132.355 71.9331 133.15 72.114 135.014C72.289 136.849 71.1396 137.883 68.9459 138.098L64.4651 138.534L63.9284 133.006L64.4593 132.952ZM70.422 146.716L65.6437 147.182L65.3053 147.212L64.7452 141.427L69.8561 140.931C72.2423 140.698 73.6192 141.463 73.8118 143.465C74.0043 145.467 72.8024 146.483 70.4162 146.716H70.422Z" fill="#005C52"/>
<path d="M75.6261 143.663C75.3752 141.058 73.9691 139.486 72.0729 138.978C73.3098 138.022 74.0391 136.414 73.8349 134.352C73.584 131.788 71.9854 130.109 69.2258 129.762L68.9166 126.601L65.9994 126.887L66.2853 129.828L64.6283 129.989L64.3424 127.049L61.4253 127.336L61.7111 130.276L59.0565 130.533L57.207 130.712L57.4929 133.635L59.3424 133.456L60.7193 147.662L58.6715 147.859L58.9573 150.781L61.0052 150.584L63.6598 150.327L63.9924 153.746L66.9095 153.459L66.577 150.04L68.234 149.879L68.5665 153.297L71.4837 153.011L71.1394 149.479C74.3833 148.696 75.9119 146.628 75.6202 143.657L75.6261 143.663ZM63.0472 133.091L66.9971 132.709C69.1908 132.493 70.521 133.288 70.7019 135.153C70.8769 136.988 69.7275 138.022 67.5338 138.237L63.0531 138.673L62.5163 133.145L63.0472 133.091ZM69.0099 146.855L64.2316 147.321L63.8932 147.351L63.3331 141.566L68.444 141.07C70.8302 140.837 72.2071 141.602 72.3997 143.604C72.5922 145.606 71.3903 146.622 69.0041 146.855H69.0099Z" fill="#00DCCD"/>
<path d="M89.0939 128.888C89.0939 128.888 89.0531 128.834 88.9831 128.721C88.9072 128.589 88.8139 128.422 88.6914 128.213C88.563 127.98 88.4055 127.705 88.2246 127.382C88.0438 127.053 87.8454 126.665 87.5537 126.276C87.2736 125.876 86.9702 125.428 86.6319 124.944C86.2993 124.453 85.8501 123.993 85.4125 123.455C84.9866 122.906 84.4498 122.41 83.8897 121.866C83.6038 121.603 83.3354 121.298 83.0146 121.047C82.6937 120.79 82.3669 120.527 82.0286 120.258C80.6867 119.17 79.053 118.214 77.2444 117.324C76.7777 117.132 76.3051 116.941 75.8208 116.744C75.5816 116.648 75.3366 116.541 75.0915 116.451C74.8407 116.373 74.5839 116.302 74.3272 116.224C73.8138 116.074 73.2945 115.901 72.7636 115.77C72.221 115.662 71.6784 115.554 71.1242 115.447C70.5757 115.309 69.9981 115.298 69.4264 115.232C68.8488 115.178 68.2712 115.094 67.6761 115.118C67.0868 115.118 66.4859 115.118 65.8849 115.118C65.284 115.178 64.6772 115.232 64.0646 115.292C61.6317 115.626 59.1463 116.278 56.7775 117.389C54.4204 118.525 52.2851 119.977 50.4473 121.656C48.6386 123.366 47.1742 125.296 45.9957 127.268C45.7273 127.776 45.4647 128.278 45.2022 128.774L45.0097 129.145L44.8521 129.533C44.7471 129.79 44.6421 130.041 44.5371 130.298C44.082 131.291 43.8253 132.33 43.5161 133.305C43.3702 133.795 43.3002 134.303 43.1952 134.781C43.1077 135.271 42.9676 135.737 42.9443 136.215C42.8626 137.165 42.6993 138.074 42.7343 138.952C42.7284 139.831 42.6993 140.662 42.8043 141.445C42.8801 142.227 42.9151 142.975 43.0785 143.656C43.2185 144.337 43.3002 144.983 43.4636 145.556C43.6328 146.124 43.7844 146.65 43.9245 147.122C44.047 147.6 44.222 147.995 44.362 148.347C44.5021 148.694 44.6188 148.987 44.7121 149.232C44.7996 149.459 44.8696 149.638 44.9221 149.782C44.9688 149.907 44.9922 149.973 44.9863 149.973C44.9863 149.973 44.9513 149.913 44.893 149.794C44.8346 149.656 44.7529 149.483 44.6538 149.256C44.5487 149.011 44.4204 148.718 44.2745 148.377C44.1228 148.031 43.942 147.636 43.8136 147.158C43.6678 146.686 43.5044 146.166 43.3294 145.592C43.1543 145.018 43.0668 144.367 42.9151 143.686C42.7459 143.004 42.6993 142.251 42.6176 141.462C42.5067 140.674 42.5242 139.831 42.5242 138.946C42.4834 138.062 42.6409 137.141 42.7168 136.179C42.7401 135.695 42.8801 135.217 42.9618 134.727C43.0668 134.237 43.131 133.729 43.2827 133.233C43.5861 132.241 43.8428 131.195 44.2979 130.185C44.4029 129.928 44.5079 129.671 44.6129 129.414L44.7704 129.025L44.9688 128.649C45.2314 128.147 45.4997 127.639 45.7681 127.119C46.9525 125.123 48.4286 123.163 50.2606 121.429C52.1159 119.732 54.2746 118.256 56.6608 117.108C59.0646 115.985 61.5792 115.321 64.0413 114.993C64.6597 114.933 65.2723 114.879 65.8791 114.819C66.4917 114.819 67.0926 114.819 67.6936 114.819C68.2945 114.795 68.8779 114.885 69.4614 114.939C70.039 115.011 70.6224 115.029 71.1767 115.166C71.7368 115.28 72.291 115.393 72.8336 115.501C73.3762 115.632 73.8955 115.811 74.4147 115.967C74.6715 116.045 74.9282 116.122 75.1849 116.2C75.4358 116.29 75.6808 116.397 75.92 116.499C76.4042 116.702 76.8827 116.899 77.3553 117.09C79.1814 117.999 80.8209 118.973 82.1686 120.085C82.507 120.36 82.8337 120.629 83.1604 120.886C83.4871 121.142 83.7497 121.453 84.0356 121.722C84.5957 122.278 85.1324 122.78 85.5525 123.342C85.9842 123.886 86.4277 124.358 86.7602 124.854C87.0869 125.35 87.3903 125.804 87.6645 126.211C87.9504 126.611 88.1429 126.999 88.318 127.334C88.4872 127.663 88.6389 127.944 88.7555 128.183C88.8664 128.398 88.9539 128.571 89.0181 128.709C89.0764 128.828 89.1056 128.888 89.0998 128.894L89.0939 128.888Z" fill="#3ABFB4"/>
<path d="M64.3496 127.042C64.3496 127.042 64.0696 127.119 63.562 127.191C63.0544 127.263 62.3309 127.352 61.4441 127.454L61.555 127.311C61.6483 128.183 61.7533 129.181 61.8642 130.251L61.8817 130.406L61.73 130.424C61.4791 130.448 61.2108 130.478 60.9424 130.502C59.5771 130.627 58.3111 130.741 57.2201 130.837L57.3309 130.699C57.4009 131.584 57.4534 132.319 57.4826 132.827C57.5118 133.341 57.5118 133.628 57.4884 133.634C57.4651 133.634 57.4126 133.353 57.3367 132.845C57.2667 132.337 57.1792 131.608 57.08 130.729L57.0684 130.604L57.1967 130.592C58.2877 130.478 59.5538 130.347 60.9132 130.203C61.1816 130.179 61.45 130.149 61.7008 130.125L61.5666 130.293C61.4733 129.223 61.3858 128.225 61.3041 127.352L61.2924 127.221L61.415 127.209C62.3018 127.137 63.0311 127.083 63.5386 127.06C64.0462 127.03 64.338 127.03 64.3438 127.06L64.3496 127.042Z" fill="#3ABFB4"/>
<path d="M69.5435 126.588C69.5493 126.672 68.7675 126.821 67.7932 126.917C66.8188 127.012 66.0254 127.018 66.0137 126.935C66.0079 126.851 66.7897 126.701 67.764 126.606C68.7383 126.51 69.5318 126.504 69.5435 126.588Z" fill="#3ABFB4"/>
<path d="M60.5535 147.462C60.4718 147.468 60.0984 144.361 59.725 140.512C59.3516 136.663 59.1182 133.537 59.1999 133.531C59.2816 133.525 59.655 136.633 60.0284 140.482C60.4018 144.331 60.6351 147.45 60.5535 147.462Z" fill="#3ABFB4"/>
<path d="M69.0071 138.117C69.0129 138.2 67.7644 138.392 66.2066 138.547C64.6547 138.696 63.3886 138.75 63.377 138.666C63.3711 138.583 64.6197 138.392 66.1775 138.236C67.7294 138.087 68.9954 138.033 69.0071 138.117Z" fill="#3ABFB4"/>
<path d="M69.9583 146.776C69.9641 146.859 68.7156 147.051 67.1578 147.206C65.6059 147.356 64.3398 147.409 64.3281 147.326C64.3223 147.242 65.5709 147.051 67.1286 146.895C68.6806 146.746 69.9466 146.692 69.9583 146.776Z" fill="#3ABFB4"/>
<path d="M82.5068 162.136C82.4368 162.177 82.0517 161.639 81.6433 160.934C81.2407 160.229 80.9723 159.619 81.0424 159.572C81.1124 159.53 81.4974 160.068 81.9058 160.773C82.3084 161.478 82.5768 162.088 82.5068 162.136Z" fill="#263238"/>
<path d="M111.99 120.188C111.99 120.188 112.211 134.609 108.892 135.9C99.8659 139.402 89.0665 138.595 85.2684 138.224C84.8133 137.902 84.2882 137.501 83.6873 137.005C83.1738 136.581 82.7363 136.061 82.3862 135.475C81.9661 134.77 81.441 133.808 81.3069 133.186C81.1435 132.421 80.175 132.26 79.9066 132.911C79.6382 133.563 79.7258 135.935 81.1843 137.95C81.1843 137.95 81.6803 138.876 80.6359 139.396C79.119 140.155 73.7397 142.486 72.8879 143.012C72.1294 143.484 71.4235 144.255 72.2753 144.309C73.1271 144.362 77.6487 143.221 77.6487 143.221C77.6487 143.221 71.6977 144.595 71.9311 145.474C72.0944 146.078 73.7455 146.209 77.5962 144.9C77.5962 144.9 72.7012 146.072 72.2344 146.657C71.1784 147.978 77.0828 146.627 77.0828 146.627C72.9579 147.614 72.9754 147.38 72.9871 147.972C72.9988 148.414 73.9614 148.498 76.2602 148.289C78.1271 148.122 80.0875 148.331 82.9463 148.235C82.9463 148.235 119.814 154.965 123.168 138.296C124.977 129.314 124.674 125.997 125.035 120.188" fill="#FFBE9D"/>
<path d="M79.5793 146.095C79.6085 146.203 78.3541 146.555 76.7788 146.89C75.2036 147.225 73.9142 147.404 73.8967 147.296C73.8792 147.189 75.1336 146.83 76.6972 146.501C78.2608 146.173 79.5502 145.988 79.5793 146.095Z" fill="#EB996E"/>
<path d="M79.3772 144.428C79.4063 144.535 78.0878 144.989 76.4366 145.444C74.7855 145.898 73.4261 146.185 73.397 146.083C73.3678 145.976 74.6864 145.521 76.3375 145.067C77.9886 144.613 79.348 144.326 79.3772 144.428Z" fill="#EB996E"/>
<path d="M79.158 142.701C79.1871 142.809 77.9502 143.257 76.3925 143.711C74.8347 144.166 73.5512 144.447 73.522 144.345C73.4928 144.237 74.7297 143.789 76.2875 143.335C77.8452 142.881 79.1288 142.6 79.158 142.701Z" fill="#EB996E"/>
<path d="M90.7155 62.1367C89.0703 62.9914 87.3608 67.2705 87.4775 69.1531C87.5942 71.0417 88.0784 72.9721 87.5533 74.7829C87.1741 76.1037 86.2814 77.2512 86.0481 78.6079C85.8322 79.8928 86.2348 81.2017 86.7132 82.4149C87.1858 83.6281 87.74 84.8413 87.8275 86.1442C87.9209 87.4471 87.425 88.8934 86.2931 89.485C91.5323 90.0289 96.8474 89.7779 102.011 88.744" fill="#263238"/>
<path d="M93.9527 96.0553C94.2794 92.5232 94.5653 88.7939 94.5653 88.7939C94.5653 88.7939 90.1953 87.5926 89.8453 81.5624C89.5127 75.813 91.6773 62.8262 91.6773 62.8262C98.3284 60.8001 105.732 63.3401 109.787 69.0417L106.654 97.6988C106.292 101.028 103.206 103.353 99.7345 102.928C96.228 102.498 93.6376 99.4201 93.9527 96.0553Z" fill="#FFBE9D"/>
<path d="M91.2152 73.0715C91.1627 73.4719 91.4486 73.8484 91.857 73.9141C92.2654 73.9799 92.6388 73.705 92.6913 73.3046C92.7438 72.9041 92.4579 72.5276 92.0495 72.4619C91.6411 72.3961 91.2677 72.671 91.2152 73.0715Z" fill="#263238"/>
<path d="M91.2214 72.234C91.3031 72.3416 91.9099 71.971 92.7092 72.0547C93.5085 72.1264 94.0569 72.6045 94.1502 72.5149C94.1969 72.473 94.1211 72.2878 93.8819 72.0726C93.6485 71.8575 93.2343 71.6304 92.7383 71.5826C92.2424 71.5347 91.8048 71.6782 91.5423 71.8515C91.2798 72.0188 91.1747 72.1922 91.2156 72.24L91.2214 72.234Z" fill="#263238"/>
<path d="M99.5336 74.173C99.4811 74.5735 99.7669 74.95 100.175 75.0157C100.584 75.0815 100.957 74.8065 101.01 74.4061C101.062 74.0057 100.776 73.6292 100.368 73.5634C99.9595 73.4977 99.5861 73.7726 99.5336 74.173Z" fill="#263238"/>
<path d="M99.5339 73.3736C99.6156 73.4812 100.222 73.1107 101.022 73.1943C101.821 73.2661 102.369 73.7442 102.463 73.6545C102.509 73.6127 102.434 73.4274 102.194 73.2123C101.961 72.9971 101.553 72.77 101.051 72.7222C100.555 72.6744 100.117 72.8178 99.8548 72.9911C99.5923 73.1585 99.4872 73.3318 99.5281 73.3796L99.5339 73.3736Z" fill="#263238"/>
<path d="M96.0538 79.1532C96.0597 79.1054 95.5754 78.9679 94.7761 78.7826C94.5719 78.7408 94.3852 78.681 94.3619 78.5316C94.3269 78.3762 94.4377 78.1611 94.5603 77.928C94.7995 77.4439 95.0504 76.9299 95.3187 76.398C96.3748 74.2166 97.1624 72.4117 97.0749 72.3699C96.9873 72.328 96.0597 74.0612 95.0037 76.2486C94.747 76.7865 94.5019 77.3005 94.2685 77.7905C94.1694 78.0176 94.0118 78.2746 94.0818 78.6033C94.1227 78.7647 94.2627 78.8962 94.3911 78.944C94.5194 78.9978 94.6303 79.0097 94.7353 79.0277C95.5404 79.1532 96.0422 79.207 96.0538 79.1651V79.1532Z" fill="#263238"/>
<path d="M94.5642 88.7938C94.5642 88.7938 98.4382 89.4452 102.528 87.4551C102.528 87.4551 100.253 91.3458 94.5059 90.2043L94.5642 88.7938Z" fill="#EB996E"/>
<path d="M96.1978 81.1625C96.5245 80.8039 97.0496 80.6366 97.5397 80.7441C97.8839 80.8159 98.2164 81.025 98.4031 81.3358C98.584 81.6466 98.5898 82.0649 98.374 82.3159C98.1289 82.6028 97.668 82.6327 97.3005 82.4833C96.9271 82.3339 96.6237 82.041 96.3378 81.7542C96.2561 81.6765 96.1744 81.5928 96.1336 81.4912C96.0869 81.3896 96.0869 81.2581 96.1627 81.1864" fill="#EB996E"/>
<path d="M98.3505 79.9602C98.2221 79.9423 98.1346 80.8268 97.3295 81.3826C96.5243 81.9384 95.6084 81.7472 95.5909 81.8727C95.5734 81.9265 95.7834 82.0639 96.1685 82.1177C96.5477 82.1715 97.1194 82.0998 97.6154 81.7591C98.1054 81.4185 98.3505 80.9224 98.4147 80.5579C98.4847 80.1873 98.4088 79.9602 98.3505 79.9602Z" fill="#263238"/>
<path d="M107.032 75.3756C107.662 75.3158 108.316 75.3995 108.887 75.6864C109.453 75.9732 109.932 76.4753 110.13 77.0908C110.328 77.7124 110.235 78.3997 109.961 78.9913C109.687 79.577 109.243 80.0731 108.753 80.4795C108.397 80.7723 108 81.0353 107.557 81.1309C107.108 81.2265 106.606 81.1309 106.285 80.7962" fill="#FFBE9D"/>
<path d="M107.004 79.2611C106.928 79.2791 107.162 79.6914 107.745 79.5898C108.025 79.542 108.317 79.3269 108.504 79.034C108.696 78.7412 108.836 78.4065 108.912 78.012C108.988 77.6176 108.941 77.1873 108.754 76.8705C108.579 76.5418 108.264 76.3327 107.99 76.2968C107.407 76.2251 107.191 76.6195 107.255 76.6374C107.296 76.6912 107.541 76.5 107.914 76.6374C108.276 76.745 108.585 77.2949 108.445 77.9284C108.311 78.5738 108.013 79.1476 107.658 79.2611C107.284 79.4105 107.045 79.2193 107.004 79.2611Z" fill="#EB996E"/>
<path d="M117.308 82.3558C117.541 80.6406 117.401 78.8237 116.585 77.3057C115.972 76.1642 115.009 75.2438 114.496 74.0545C113.907 72.7038 113.953 71.1619 113.743 69.6976C113.236 66.1715 111.071 62.9323 108.043 61.1692C105.19 59.5078 100.803 58.0017 97.5939 60.2489C96.9813 59.8723 96.252 59.6811 95.476 59.6512C94.1224 59.5974 92.798 60.1353 91.6837 60.9302C90.2951 61.9223 89.1807 63.3387 88.6265 64.9762C88.0722 66.6138 88.1072 68.4725 88.819 70.0503C89.0116 70.4806 89.3149 70.9348 89.7758 70.9886C90.1317 71.0304 90.4643 70.8272 90.7502 70.618C92.7339 69.1777 94.8401 67.056 96.5904 64.7192C98.5974 67.4565 101.135 69.7873 104.035 71.4906C104.793 71.9328 105.616 72.3811 106.042 73.158C106.462 73.929 106.41 74.8733 106.34 75.7578C106.019 79.9832 105.692 84.2085 105.371 88.4339C106.777 88.9538 108.277 89.2108 109.776 89.1869C110.109 89.1869 110.464 89.157 110.721 88.9359C111.34 88.398 110.978 87.0772 111.736 86.7664C111.707 87.7944 112.267 88.8104 113.137 89.3184C114.006 89.8264 115.149 89.8025 115.995 89.2586C115.832 88.8642 115.669 88.4697 115.505 88.0753C115.686 87.8661 115.797 87.5912 115.896 87.3282C116.48 85.7026 117.069 84.0651 117.308 82.3498V82.3558Z" fill="#263238"/>
<path d="M109.41 70.9714C109.41 70.9714 109.206 71.1148 108.798 71.3001C108.389 71.4853 107.777 71.7005 106.989 71.8439C105.437 72.1487 103.092 72.0651 100.921 70.8459C98.7511 69.6207 97.4267 67.6365 96.8491 66.1304C96.5515 65.3714 96.3998 64.7259 96.3298 64.2717C96.2598 63.8235 96.2598 63.5665 96.2773 63.5665C96.3415 63.5546 96.4115 64.5706 97.0474 66.0408C97.6659 67.493 98.9728 69.3876 101.067 70.5709C103.162 71.7483 105.426 71.8678 106.954 71.6228C108.506 71.3897 109.381 70.9056 109.405 70.9654L109.41 70.9714Z" fill="#263238"/>
<path d="M87.3898 85.6009C87.3898 85.6009 87.1856 85.3081 86.8705 84.7523C86.5671 84.1905 86.1121 83.3717 85.7328 82.272C85.3594 81.1843 85.0677 79.756 85.447 78.22C85.5403 77.8435 85.6862 77.461 85.8787 77.1024C86.0712 76.7438 86.3104 76.4151 86.5263 76.0685C86.7422 75.7278 86.9114 75.3633 86.9872 74.9628C87.0689 74.5624 87.0689 74.1381 87.0572 73.7018C86.9697 71.9507 86.9697 70.2534 87.1914 68.7354C87.4014 67.2114 87.839 65.8786 88.3758 64.8566C88.9067 63.8287 89.5485 63.1115 90.0619 62.729C90.3186 62.5378 90.5345 62.4122 90.6862 62.3405C90.8379 62.2688 90.9254 62.2449 90.9254 62.2509C90.9371 62.2808 90.6103 62.4122 90.1319 62.8186C89.6535 63.225 89.0584 63.9362 88.5625 64.9522C88.0607 65.9682 87.6523 67.2711 87.4598 68.7712C87.2614 70.2713 87.2673 71.9328 87.3489 73.6898C87.3664 74.1321 87.3606 74.5803 87.2731 75.0226C87.1914 75.4648 86.9872 75.8772 86.7655 76.2239C86.5438 76.5825 86.3046 76.9052 86.1237 77.2399C85.937 77.5745 85.8028 77.9272 85.7095 78.2857C85.3361 79.732 85.587 81.1186 85.9312 82.1944C86.2813 83.2761 86.6955 84.1068 86.9697 84.6865C87.2498 85.2603 87.4014 85.583 87.3839 85.595L87.3898 85.6009Z" fill="#263238"/>
<path d="M110.961 88.7402C110.961 88.7402 110.856 88.6745 110.681 88.5251C110.512 88.3637 110.273 88.1127 110.039 87.7242C109.567 86.9652 109.158 85.6564 109.31 84.0427C109.433 82.4231 110.156 80.6361 110.763 78.646C111.055 77.6479 111.288 76.5721 111.271 75.4486C111.271 74.325 110.915 73.1895 110.214 72.2392C109.52 71.283 108.61 70.5478 107.717 69.8785C106.819 69.2151 105.92 68.5876 105.104 67.9421C103.464 66.6632 102.076 65.4021 100.955 64.2965C99.8352 63.1908 98.9892 62.2346 98.4175 61.5652C98.1316 61.2305 97.9157 60.9616 97.7757 60.7763C97.6357 60.5911 97.5598 60.4954 97.5715 60.4835C97.5832 60.4715 97.6648 60.5612 97.8224 60.7345C98.0032 60.9317 98.2249 61.1767 98.505 61.4815C99.1001 62.127 99.9694 63.0534 101.101 64.1351C102.233 65.2168 103.628 66.454 105.267 67.715C106.084 68.3485 106.971 68.9641 107.887 69.6335C108.791 70.3088 109.724 71.0618 110.454 72.0599C111.189 73.052 111.568 74.2831 111.562 75.4486C111.574 76.6199 111.329 77.7256 111.025 78.7356C110.395 80.7437 109.666 82.4948 109.514 84.0666C109.339 85.6325 109.707 86.9114 110.133 87.6645C110.565 88.4294 110.979 88.7163 110.95 88.7402H110.961Z" fill="#455A64"/>
<path d="M112.867 70.8035C112.867 70.8035 112.64 70.7437 112.249 70.5823C111.858 70.4269 111.298 70.1699 110.621 69.8293C109.268 69.1539 107.447 68.0961 105.586 66.7096C103.725 65.3171 102.185 63.8708 101.14 62.7591C100.615 62.2033 100.207 61.7372 99.9443 61.4025C99.6759 61.0678 99.5359 60.8825 99.5475 60.8646C99.5826 60.8287 100.213 61.534 101.292 62.5978C102.371 63.6676 103.917 65.072 105.767 66.4526C107.616 67.8272 109.402 68.9089 110.72 69.6321C112.045 70.3552 112.885 70.7556 112.867 70.7975V70.8035Z" fill="#455A64"/>
<path d="M89.1574 69.1778C89.1282 69.136 89.6533 68.7774 90.441 68.12C91.2286 67.4685 92.2613 66.5003 93.2356 65.2811C94.2099 64.0619 94.9392 62.8308 95.4118 61.9164C95.8844 61.002 96.1236 60.4043 96.1703 60.4223C96.2053 60.4342 96.0303 61.0617 95.6044 62.012C95.1785 62.9623 94.4667 64.2353 93.469 65.4784C92.4713 66.7215 91.3978 67.6837 90.5693 68.2992C89.7408 68.9148 89.1749 69.2077 89.1574 69.1778Z" fill="#455A64"/>
<path d="M0.249651 162.455L9.77745 174.721C10.3259 175.428 11.4111 175.253 11.7204 174.4L13.2607 170.223C30.0116 175.386 39.1719 160.285 39.1719 160.285L32.7772 155.612C25.7991 166.783 15.8629 163.174 15.8629 163.174L17.2107 159.523C17.5257 158.677 16.8256 157.794 15.9621 157.945L0.949794 160.557C0.0921164 160.708 -0.292965 161.754 0.255482 162.455H0.249651Z" fill="#02978A"/>
</svg>
