<svg width="46" height="43" viewBox="0 0 46 43" fill="none" xmlns="http://www.w3.org/2000/svg">
<ellipse cx="23" cy="21.5" rx="23" ry="21.5" fill="white"/>
<path d="M23 0C18.451 0 14.0042 1.26095 10.2219 3.6234C6.43956 5.98585 3.4916 9.34369 1.75078 13.2723C0.00996554 17.2009 -0.445511 21.5238 0.441949 25.6944C1.32941 29.865 3.51995 33.696 6.73655 36.7028C9.95316 39.7096 14.0514 41.7573 18.5129 42.5869C22.9745 43.4165 27.599 42.9907 31.8017 41.3634C36.0044 39.7361 39.5965 36.9804 42.1238 33.4448C44.6511 29.9091 46 25.7523 46 21.5C45.9936 15.7997 43.5683 10.3346 39.2563 6.30385C34.9444 2.27312 29.098 0.00601962 23 0ZM29.4688 13.2308H33.6154C34.0846 13.2308 34.5346 13.405 34.8664 13.7152C35.1982 14.0253 35.3846 14.446 35.3846 14.8846C35.3846 15.3232 35.1982 15.7439 34.8664 16.0541C34.5346 16.3642 34.0846 16.5385 33.6154 16.5385H30.0769C30.074 19.1694 28.9547 21.6918 26.9645 23.5521C24.9744 25.4125 22.276 26.4588 19.4615 26.4615H18.8622L29.4776 35.1442C29.7981 35.4408 29.9854 35.8406 30.0011 36.2619C30.0168 36.6832 29.8598 37.0943 29.5622 37.411C29.2646 37.7277 28.8488 37.9263 28.3999 37.9661C27.9509 38.0058 27.5026 37.8838 27.1466 37.625L12.9928 26.0481C12.7238 25.8264 12.5333 25.5335 12.4465 25.2083C12.3596 24.883 12.3805 24.5408 12.5064 24.227C12.6323 23.9131 12.8573 23.6424 13.1515 23.4508C13.4457 23.2591 13.7953 23.1556 14.1539 23.1538H19.4615C21.3385 23.1538 23.1385 22.4569 24.4657 21.2162C25.7929 19.9756 26.5385 18.293 26.5385 16.5385H14.1539C13.6846 16.5385 13.2346 16.3642 12.9028 16.0541C12.571 15.7439 12.3846 15.3232 12.3846 14.8846C12.3846 14.446 12.571 14.0253 12.9028 13.7152C13.2346 13.405 13.6846 13.2308 14.1539 13.2308H25.5853C24.9646 12.2258 24.072 11.3911 22.9971 10.8105C21.9223 10.23 20.7029 9.9239 19.4615 9.92307H14.1539C13.6846 9.92307 13.2346 9.74883 12.9028 9.43867C12.571 9.12852 12.3846 8.70786 12.3846 8.26923C12.3846 7.8306 12.571 7.40994 12.9028 7.09978C13.2346 6.78963 13.6846 6.61538 14.1539 6.61538H33.6154C34.0846 6.61538 34.5346 6.78963 34.8664 7.09978C35.1982 7.40994 35.3846 7.8306 35.3846 8.26923C35.3846 8.70786 35.1982 9.12852 34.8664 9.43867C34.5346 9.74883 34.0846 9.92307 33.6154 9.92307H27.3656C28.2901 10.8873 29.0045 12.0108 29.4688 13.2308Z" fill="#FFB424"/>
</svg>
