<svg width="21" height="14" viewBox="0 0 21 14" fill="none" xmlns="http://www.w3.org/2000/svg">
<path d="M20.3594 4.05561V3.11811C20.3594 1.84311 19.3244 0.808105 18.0419 0.808105H3.17688C1.89438 0.808105 0.859375 1.84311 0.859375 3.11811V4.05561H20.3594ZM0.859375 5.18061V11.6231C0.859375 12.8981 1.89438 13.9331 3.17688 13.9331H18.0419C19.3244 13.9331 20.3594 12.8981 20.3594 11.6231V5.18061H0.859375ZM7.72037 11.1251H3.89912C3.7201 11.1251 3.54842 11.054 3.42183 10.9274C3.29524 10.8008 3.22412 10.6291 3.22412 10.4501C3.22412 10.2711 3.29524 10.0994 3.42183 9.97281C3.54842 9.84622 3.7201 9.77511 3.89912 9.77511H7.72113C7.80977 9.77515 7.89753 9.79266 7.97941 9.82663C8.06128 9.8606 8.13567 9.91036 8.19831 9.97307C8.26096 10.0358 8.31064 10.1102 8.34451 10.1921C8.37839 10.2741 8.3958 10.3618 8.39575 10.4505C8.3957 10.5391 8.37819 10.6269 8.34423 10.7088C8.31026 10.7906 8.2605 10.865 8.19778 10.9277C8.13507 10.9903 8.06063 11.04 7.97872 11.0739C7.8968 11.1077 7.80902 11.1252 7.72037 11.1251Z" fill="#9F9F9F"/>
</svg>
