<svg width="121" height="121" viewBox="0 0 121 121" fill="none" xmlns="http://www.w3.org/2000/svg">
<path d="M118.635 56.1648C119.879 88.9636 93.6584 115.932 61.1496 115.932C51.1446 115.932 41.7423 113.374 33.5479 108.886C33.0391 108.607 32.4319 108.577 31.9028 108.814L7.47047 119.793C4.41759 121.165 1.28813 118.035 2.66025 114.983L13.1379 91.6693C13.3976 91.0913 13.3368 90.4241 12.9887 89.8945C7.05288 80.8559 3.60934 70.0351 3.60934 58.4047C3.60934 25.8848 30.5886 -0.322341 63.385 0.919327C93.2737 2.05063 117.501 26.2766 118.635 56.1648Z" fill="#F8664F"/>
<path d="M98.1719 102.424C107.896 91.7039 113.619 77.308 113.023 61.5721C111.892 31.6801 87.6607 7.45554 57.7749 6.32447C42.7891 5.75894 29.0201 10.9161 18.4844 19.7982C29.4748 7.66445 45.5673 0.245167 63.3808 0.921538C93.2666 2.0526 117.497 26.2772 118.628 56.163C119.335 74.7325 111.234 91.4395 98.1719 102.424Z" fill="black" fill-opacity="0.0627451"/>
<path d="M107.224 100.552C107.073 100.414 106.983 100.223 106.974 100.019C106.964 99.8157 107.036 99.6166 107.173 99.466C107.664 98.926 108.142 98.374 108.605 97.8105C108.735 97.6534 108.922 97.5542 109.125 97.5349C109.328 97.5155 109.53 97.5775 109.687 97.7072C109.844 97.837 109.943 98.0238 109.963 98.2267C109.982 98.4295 109.92 98.6318 109.79 98.7889C109.311 99.3718 108.817 99.9429 108.309 100.502C108.172 100.652 107.98 100.742 107.777 100.751C107.573 100.761 107.374 100.689 107.224 100.552ZM93.8212 111.669C93.7671 111.584 93.7303 111.489 93.7129 111.389C93.6955 111.29 93.6979 111.188 93.72 111.089C93.742 110.991 93.7832 110.898 93.8412 110.815C93.8992 110.733 93.973 110.662 94.0582 110.608C97.6953 108.302 101.115 105.593 104.223 102.557C104.295 102.485 104.381 102.428 104.475 102.389C104.569 102.351 104.669 102.331 104.771 102.332C104.873 102.332 104.973 102.353 105.067 102.393C105.161 102.432 105.245 102.49 105.316 102.563C105.387 102.636 105.443 102.722 105.481 102.816C105.518 102.911 105.537 103.012 105.535 103.114C105.533 103.215 105.511 103.316 105.47 103.409C105.429 103.502 105.37 103.586 105.297 103.656C102.113 106.766 98.6089 109.542 94.8818 111.906C94.7097 112.015 94.5012 112.052 94.3023 112.007C94.1034 111.963 93.9303 111.841 93.8212 111.669ZM10.2619 22.2335C10.0971 22.1136 9.98663 21.9332 9.95477 21.732C9.92291 21.5307 9.97226 21.325 10.092 21.1601C10.5213 20.5712 10.9613 19.9901 11.4116 19.4172C11.539 19.2621 11.722 19.163 11.9215 19.1411C12.121 19.1192 12.3212 19.1762 12.4792 19.2999C12.6372 19.4236 12.7406 19.6042 12.7672 19.8031C12.7938 20.002 12.7416 20.2035 12.6216 20.3644C12.1826 20.923 11.7536 21.4894 11.3348 22.0633C11.2756 22.145 11.2008 22.2142 11.1148 22.2669C11.0288 22.3197 10.9333 22.3549 10.8336 22.3707C10.734 22.3865 10.6322 22.3826 10.5341 22.359C10.436 22.3355 10.3435 22.2928 10.2619 22.2335ZM14.1344 17.3344C14.0592 17.2671 13.9981 17.1856 13.9544 17.0946C13.9108 17.0036 13.8855 16.9049 13.88 16.8042C13.8745 16.7034 13.889 16.6025 13.9225 16.5074C13.956 16.4122 14.0079 16.3245 14.0753 16.2494C16.7268 13.2924 19.6497 10.5905 22.8055 8.17905C22.8857 8.11783 22.9772 8.07301 23.0747 8.04715C23.1723 8.02129 23.2739 8.01489 23.3739 8.02832C23.4739 8.04175 23.5703 8.07475 23.6576 8.12543C23.7448 8.1761 23.8212 8.24347 23.8824 8.32368C23.9437 8.40389 23.9885 8.49537 24.0143 8.5929C24.0402 8.69043 24.0466 8.7921 24.0332 8.89211C24.0197 8.99211 23.9867 9.08849 23.9361 9.17574C23.8854 9.263 23.818 9.33941 23.7378 9.40063C20.6587 11.7537 17.8068 14.3901 15.2196 17.2753C15.0835 17.427 14.8927 17.5184 14.6892 17.5295C14.4857 17.5406 14.2862 17.4704 14.1344 17.3344Z" fill="black"/>
<path d="M1.9561 114.668L12.4339 91.3544C12.5847 91.0196 12.5507 90.6315 12.3437 90.3163C6.12469 80.8468 2.83807 69.812 2.83807 58.4044C2.83807 25.4584 30.1203 -1.11957 63.4111 0.151168C93.659 1.29618 118.252 25.8873 119.399 56.1356C120.007 72.1518 114.235 87.3151 103.148 98.8314C92.0538 110.354 77.137 116.7 61.1464 116.7C51.3763 116.7 41.7041 114.231 33.176 109.559C32.8725 109.393 32.5223 109.377 32.2153 109.515L7.78206 120.494C4.09794 122.15 0.294001 118.366 1.9561 114.668ZM4.37444 58.4044C4.37444 69.5116 7.57432 80.2548 13.6276 89.4726C14.1246 90.2288 14.2024 91.168 13.8354 91.9845L3.35752 115.297C2.27514 117.706 4.74406 120.174 7.15224 119.092L31.5846 108.113C32.3228 107.781 33.194 107.818 33.9133 108.211C42.216 112.759 51.633 115.164 61.1457 115.164C76.715 115.164 91.238 108.985 102.04 97.7656C112.836 86.5527 118.455 71.7888 117.863 56.1938C116.747 26.744 92.802 2.80182 63.3532 1.68683C31.2887 0.470448 4.37444 25.9797 4.37444 58.4044Z" fill="black"/>
<path d="M13.7349 82.0288C13.5905 82.0289 13.449 81.9883 13.3267 81.9117C13.2043 81.8351 13.1061 81.7255 13.0432 81.5956C12.3342 80.131 11.6949 78.6338 11.1275 77.1089C11.0008 76.7707 10.8779 76.4311 10.7586 76.0903C10.7532 76.0746 10.7483 76.0586 10.7439 76.0426C10.4135 75.1143 10.1129 74.1758 9.84234 73.2284C9.65659 72.5893 9.48785 71.9409 9.32573 71.2919C9.30121 71.194 9.29621 71.0923 9.31104 70.9925C9.32586 70.8927 9.36021 70.7968 9.41211 70.7103C9.46402 70.6237 9.53247 70.5483 9.61355 70.4882C9.69463 70.4282 9.78675 70.3847 9.88465 70.3603C10.2935 70.2556 10.713 70.5071 10.8163 70.9192C10.9741 71.5488 11.1374 72.1788 11.3189 72.803C11.5854 73.736 11.882 74.6601 12.2082 75.5739C12.2151 75.594 12.2215 75.6141 12.2269 75.6347C12.3373 75.9511 12.4526 76.2626 12.5679 76.5738C13.1182 78.0526 13.7382 79.5046 14.4257 80.9249C14.4825 81.042 14.5086 81.1716 14.5016 81.3016C14.4946 81.4315 14.4547 81.5576 14.3857 81.6679C14.3166 81.7782 14.2207 81.8692 14.1069 81.9323C13.993 81.9955 13.8651 82.0286 13.7349 82.0288ZM9.22765 67.7741C9.047 67.7739 8.87222 67.71 8.73397 67.5937C8.59573 67.4774 8.50285 67.3161 8.47164 67.1382C8.34104 66.3872 8.23236 65.6326 8.14574 64.8753C8.13412 64.7751 8.14235 64.6736 8.16996 64.5765C8.19758 64.4795 8.24404 64.3888 8.30669 64.3097C8.36935 64.2306 8.44697 64.1647 8.53512 64.1156C8.62327 64.0665 8.72023 64.0352 8.82046 64.0236C9.24089 63.9702 9.62327 64.277 9.67219 64.6983C9.76105 65.4645 9.86338 66.1759 9.98556 66.8735C10.0048 66.984 9.99963 67.0974 9.9704 67.2057C9.94118 67.314 9.88861 67.4145 9.81639 67.5004C9.74418 67.5862 9.65405 67.6552 9.55235 67.7025C9.45064 67.7498 9.33982 67.7742 9.22765 67.7741Z" fill="white"/>
<path d="M64.6863 83.6748H59.7049C58.3295 83.6748 57.2143 82.5598 57.2143 81.1841V80.2591C57.2143 70.7207 62.0188 61.7499 69.7527 56.8473C74.3653 53.923 76.8555 48.7148 76.2517 43.2558C75.5517 36.9272 69.3192 30.7394 62.185 30.7394C58.6894 30.7394 55.3936 31.9908 52.7652 34.3441C50.7129 36.1829 49.2407 38.5797 48.5285 41.2416C47.9507 43.4016 45.9719 44.8872 43.7358 44.8872C40.4681 44.8872 38.0646 41.7877 38.9144 38.6325C40.1311 34.1135 42.6342 30.0453 46.1196 26.9222C50.5545 22.9512 56.316 20.7812 62.2466 20.7812C74.5806 20.7812 84.6026 30.0919 86.0997 41.7121C87.3151 51.1456 83.0657 60.2034 75.0866 65.2615C70.2078 68.3546 67.1769 74.1011 67.1769 80.2591V81.1841C67.1769 82.5595 66.0617 83.6748 64.6863 83.6748Z" fill="#EEF0EE"/>
<path d="M65.6838 97.2644C67.6161 95.3321 67.6161 92.1992 65.6838 90.2669C63.7515 88.3345 60.6186 88.3345 58.6863 90.2669C56.754 92.1992 56.754 95.3321 58.6863 97.2644C60.6186 99.1967 63.7515 99.1967 65.6838 97.2644Z" fill="#EEF0EE"/>
<path d="M62.1985 99.4856C59.0463 99.4856 56.4819 96.9212 56.4819 93.769C56.4819 90.6169 59.0463 88.0525 62.1985 88.0525C65.3506 88.0525 67.915 90.6169 67.915 93.769C67.915 96.9212 65.3506 99.4856 62.1985 99.4856ZM62.1985 89.5893C59.8938 89.5893 58.0188 91.4643 58.0188 93.769C58.0188 96.0737 59.8938 97.9487 62.1985 97.9487C64.5029 97.9487 66.3782 96.0737 66.3782 93.769C66.3782 91.4643 64.5029 89.5893 62.1985 89.5893ZM64.6891 84.4423H59.708C57.911 84.4423 56.4491 82.9804 56.4491 81.1834C56.4996 80.9792 55.2653 65.1227 69.3448 56.1976C73.7069 53.4318 76.0624 48.5049 75.491 43.3394C74.872 37.7429 69.2564 31.5072 62.1883 31.5072C55.8642 31.5072 50.7741 35.832 49.2739 41.4396C48.6096 43.9215 46.3338 45.6547 43.7391 45.6547C39.9538 45.6547 37.1961 42.068 38.1757 38.4318C41.0939 27.5934 50.8904 20.0117 62.2495 20.0117C74.6962 20.0117 85.2785 29.2982 86.865 41.6131C88.1208 51.3604 83.7662 60.6703 75.5007 65.9095C70.8426 68.8629 67.9486 74.361 67.9486 80.2581V81.1834C67.9486 82.9804 66.4864 84.4423 64.6891 84.4423ZM62.1883 29.9704C69.3105 29.9704 76.2408 36.1388 77.0181 43.1707C77.655 48.9241 75.0294 54.4131 70.1672 57.4955C62.6536 62.2587 57.9859 70.9811 57.9859 80.2581V81.1834C57.9859 82.1329 58.7585 82.9055 59.708 82.9055H64.6891C65.6394 82.9055 66.412 82.1329 66.412 81.1834C66.4545 81.0038 65.6006 70.3666 74.6782 64.6116C82.4338 59.6952 86.5192 50.9579 85.3404 41.8092C83.8523 30.2587 73.9255 21.5483 62.2495 21.5483C51.5689 21.5483 42.3927 28.6791 39.6596 38.8315C38.9428 41.4925 40.9677 44.1179 43.7391 44.1179C45.6392 44.1179 47.3048 42.8531 47.7895 41.0421C49.4639 34.7808 55.1486 29.9704 62.1883 29.9704Z" fill="black"/>
</svg>
