<svg width="258" height="149" viewBox="0 0 258 149" fill="none" xmlns="http://www.w3.org/2000/svg">
<g clip-path="url(#clip0_2242_2239)">
<path d="M55.4391 99.6592C63.7645 116.433 60.7119 134.95 60.7119 134.95C60.7119 134.95 44.159 126.271 35.8303 109.497C27.5049 92.7231 25.2031 63.4194 25.2031 63.4194C25.2031 63.4194 47.1104 82.8852 55.4391 99.6592Z" fill="url(#paint0_linear_2242_2239)"/>
<g style="mix-blend-mode:screen">
<path d="M58.6303 129.652C58.5389 129.652 58.4508 129.6 58.4083 129.511L41.6693 94.2792C37.7449 86.0169 33.6867 77.4756 28.2572 69.9256C28.1789 69.814 28.2017 69.663 28.3127 69.581C28.4237 69.5022 28.5739 69.5252 28.6555 69.6368C34.1111 77.2195 38.1792 85.7838 42.1133 94.0658L58.8523 129.298C58.9111 129.419 58.8589 129.567 58.7381 129.626C58.7022 129.642 58.6662 129.649 58.6336 129.649L58.6303 129.652Z" fill="#5B586B"/>
<path d="M39.9489 90.9111C39.8673 90.9111 39.7857 90.8685 39.7399 90.7897C37.4774 86.9622 33.5563 84.4215 29.3968 81.9431C29.2793 81.8742 29.2434 81.7232 29.3119 81.605C29.3805 81.4868 29.5307 81.4507 29.6482 81.5196C33.8664 84.0308 37.8431 86.6109 40.1644 90.5402C40.2329 90.6584 40.197 90.8094 40.0795 90.8783C40.0403 90.9013 39.9979 90.9144 39.9554 90.9144L39.9489 90.9111Z" fill="#5B586B"/>
<path d="M45.9404 102.82C45.813 102.82 45.7053 102.722 45.6955 102.591C45.3951 97.9228 45.6922 93.2287 46.5737 88.6364C46.5999 88.5018 46.7305 88.4165 46.8611 88.4427C46.9949 88.469 47.0798 88.597 47.0537 88.7316C46.1787 93.2813 45.8881 97.936 46.1852 102.561C46.195 102.696 46.0905 102.814 45.9567 102.824C45.9501 102.824 45.9469 102.824 45.9404 102.824V102.82Z" fill="#5B586B"/>
<path d="M49.7436 111.496C49.6815 111.496 49.6163 111.473 49.5705 111.424C44.9997 106.789 39.7008 103.034 33.8208 100.267C33.7 100.207 33.6445 100.063 33.7033 99.9383C33.762 99.8136 33.909 99.7611 34.0298 99.8201C39.962 102.61 45.3099 106.398 49.9199 111.076C50.0146 111.171 50.0146 111.329 49.9199 111.424C49.8742 111.473 49.8089 111.496 49.7468 111.496H49.7436Z" fill="#5B586B"/>
<path d="M56.1078 124.075C55.9838 124.075 55.876 123.98 55.863 123.849C55.6573 121.452 56.0001 119.056 56.3331 116.735L57.5019 108.575C57.5215 108.44 57.6489 108.352 57.7794 108.365C57.9133 108.385 58.0047 108.509 57.9884 108.644L56.8196 116.804C56.4931 119.099 56.1535 121.469 56.3527 123.806C56.3658 123.941 56.2645 124.062 56.1307 124.072C56.1242 124.072 56.1176 124.072 56.1078 124.072V124.075Z" fill="#5B586B"/>
<path d="M56.9438 127.013C56.8556 127.013 56.7707 126.964 56.725 126.879C55.517 124.522 53.372 122.48 49.9765 120.455C49.0656 119.913 48.1188 119.394 47.2014 118.892C45.3567 117.884 43.4533 116.84 41.7458 115.544C41.6381 115.462 41.6152 115.308 41.7001 115.199C41.7817 115.091 41.9352 115.071 42.0429 115.15C43.721 116.424 45.6114 117.458 47.4365 118.459C48.3572 118.964 49.3105 119.483 50.2279 120.031C53.705 122.106 55.9088 124.21 57.1625 126.652C57.2246 126.774 57.1789 126.921 57.0581 126.984C57.0221 127.003 56.983 127.01 56.947 127.01L56.9438 127.013Z" fill="#5B586B"/>
</g>
<path d="M42.4695 112.819C56.972 124.604 61.84 142.724 61.84 142.724C61.84 142.724 43.1975 141.739 28.695 129.954C14.1957 118.17 0 92.4705 0 92.4705C0 92.4705 27.9702 101.031 42.4695 112.816V112.819Z" fill="url(#paint1_linear_2242_2239)"/>
<g style="mix-blend-mode:screen">
<path d="M57.6571 138.794C57.6016 138.794 57.546 138.775 57.5003 138.738L27.7247 113.673C20.7444 107.793 13.5258 101.717 5.46807 97.1185C5.35054 97.0529 5.30809 96.9019 5.37666 96.7837C5.44195 96.6655 5.59214 96.6228 5.70967 96.6918C13.8066 101.314 21.0415 107.406 28.0414 113.298L57.817 138.364C57.9215 138.453 57.9346 138.607 57.8464 138.712C57.7974 138.771 57.7289 138.801 57.6571 138.801V138.794Z" fill="#5B586B"/>
<path d="M24.6613 111.349C24.6124 111.349 24.5634 111.335 24.521 111.306C20.8839 108.768 16.2674 108.092 11.4582 107.574C11.3243 107.56 11.2264 107.439 11.2394 107.301C11.2525 107.167 11.3766 107.071 11.5104 107.084C16.3849 107.61 21.0667 108.296 24.8017 110.899C24.9127 110.978 24.9389 111.129 24.8638 111.24C24.8148 111.309 24.7397 111.345 24.6613 111.345V111.349Z" fill="#5B586B"/>
<path d="M35.0323 119.683C34.9442 119.683 34.8593 119.637 34.8168 119.552C32.6163 115.429 30.9479 111.037 29.8509 106.49C29.8183 106.359 29.8999 106.224 30.0305 106.191C30.1644 106.162 30.295 106.241 30.3276 106.372C31.4116 110.876 33.0668 115.232 35.2478 119.315C35.3131 119.433 35.2674 119.584 35.1466 119.65C35.1107 119.67 35.0715 119.68 35.0323 119.68V119.683Z" fill="#5B586B"/>
<path d="M42.0747 125.986C42.0453 125.986 42.0159 125.979 41.9865 125.969C35.9139 123.658 29.5441 122.457 23.0503 122.394C22.9164 122.394 22.8054 122.283 22.8087 122.145C22.8087 122.01 22.9197 121.876 23.0568 121.902C29.6094 121.964 36.0347 123.179 42.1628 125.51C42.2902 125.559 42.3522 125.7 42.3065 125.828C42.2706 125.926 42.1759 125.986 42.0779 125.986H42.0747Z" fill="#5B586B"/>
<path d="M53.0611 134.773C52.9762 134.773 52.8913 134.727 52.8489 134.648C51.6735 132.557 50.9944 130.23 50.3382 127.978L48.0299 120.067C47.9907 119.936 48.0658 119.801 48.1964 119.762C48.327 119.723 48.4609 119.798 48.5001 119.929L50.8083 127.84C51.458 130.063 52.1273 132.364 53.2766 134.406C53.3419 134.524 53.3027 134.675 53.1852 134.74C53.146 134.763 53.1068 134.773 53.0644 134.773H53.0611Z" fill="#5B586B"/>
<path d="M55.0343 137.097C54.9821 137.097 54.9266 137.081 54.8841 137.045C52.8109 135.407 50.0162 134.445 46.0918 134.018C45.0405 133.903 43.9631 133.828 42.9216 133.756C40.8289 133.608 38.6643 133.454 36.5747 132.987C36.4441 132.958 36.3593 132.827 36.3886 132.692C36.418 132.561 36.5486 132.475 36.6792 132.505C38.7328 132.964 40.8778 133.115 42.9543 133.263C44.0023 133.335 45.083 133.414 46.1441 133.529C50.1631 133.966 53.0362 134.96 55.1845 136.657C55.2922 136.739 55.3086 136.897 55.227 137.002C55.178 137.064 55.1062 137.097 55.0343 137.097Z" fill="#5B586B"/>
</g>
<path d="M202.557 99.6592C194.232 116.433 197.285 134.95 197.285 134.95C197.285 134.95 213.838 126.271 222.166 109.497C230.492 92.7231 232.793 63.4194 232.793 63.4194C232.793 63.4194 210.886 82.8852 202.557 99.6592Z" fill="url(#paint2_linear_2242_2239)"/>
<g style="mix-blend-mode:screen">
<path d="M199.364 129.652C199.328 129.652 199.292 129.646 199.26 129.629C199.139 129.57 199.087 129.422 199.145 129.301L215.884 94.069C219.818 85.787 223.887 77.2227 229.342 69.6399C229.42 69.5283 229.574 69.5054 229.685 69.5841C229.796 69.6629 229.819 69.8172 229.74 69.9288C224.311 77.4755 220.253 86.0201 216.328 94.2823L199.589 129.514C199.547 129.603 199.459 129.656 199.367 129.656L199.364 129.652Z" fill="#5B586B"/>
<path d="M218.048 90.9112C218.006 90.9112 217.963 90.9014 217.924 90.8751C217.807 90.8062 217.771 90.6552 217.839 90.537C220.161 86.6078 224.137 84.0276 228.355 81.5165C228.47 81.4475 228.623 81.4869 228.692 81.6018C228.76 81.72 228.721 81.871 228.607 81.9399C224.447 84.4183 220.526 86.959 218.264 90.7865C218.218 90.8653 218.136 90.908 218.055 90.908L218.048 90.9112Z" fill="#5B586B"/>
<path d="M212.059 102.82C212.059 102.82 212.05 102.82 212.043 102.82C211.909 102.81 211.805 102.696 211.814 102.558C212.112 97.9325 211.818 93.2811 210.946 88.7281C210.92 88.5936 211.008 88.4655 211.139 88.4393C211.269 88.4163 211.4 88.5016 211.426 88.633C212.307 93.2253 212.601 97.9194 212.304 102.587C212.294 102.719 212.187 102.817 212.059 102.817V102.82Z" fill="#5B586B"/>
<path d="M208.253 111.496C208.191 111.496 208.129 111.473 208.08 111.424C207.985 111.329 207.982 111.171 208.08 111.076C212.69 106.398 218.038 102.61 223.97 99.8201C224.091 99.7643 224.238 99.8169 224.297 99.9383C224.355 100.063 224.3 100.207 224.179 100.267C218.299 103.034 212.997 106.786 208.429 111.424C208.38 111.473 208.318 111.496 208.256 111.496H208.253Z" fill="#5B586B"/>
<path d="M201.887 124.075C201.887 124.075 201.874 124.075 201.864 124.075C201.73 124.062 201.629 123.944 201.642 123.809C201.841 121.472 201.502 119.099 201.175 116.807L200.006 108.647C199.987 108.512 200.082 108.388 200.215 108.368C200.346 108.352 200.473 108.44 200.493 108.578L201.662 116.739C201.995 119.059 202.338 121.459 202.132 123.852C202.122 123.98 202.014 124.078 201.887 124.078V124.075Z" fill="#5B586B"/>
<path d="M201.052 127.013C201.013 127.013 200.977 127.003 200.941 126.987C200.82 126.924 200.774 126.777 200.836 126.655C202.09 124.213 204.294 122.109 207.771 120.034C208.688 119.486 209.642 118.964 210.562 118.462C212.391 117.461 214.281 116.427 215.959 115.153C216.067 115.071 216.22 115.091 216.302 115.202C216.384 115.311 216.361 115.465 216.253 115.547C214.545 116.844 212.639 117.887 210.797 118.895C209.88 119.397 208.933 119.916 208.022 120.458C204.63 122.483 202.485 124.525 201.274 126.882C201.231 126.967 201.143 127.016 201.055 127.016L201.052 127.013Z" fill="#5B586B"/>
</g>
<path d="M215.527 112.819C201.024 124.604 196.156 142.724 196.156 142.724C196.156 142.724 214.799 141.739 229.301 129.954C243.804 118.17 257.999 92.4736 257.999 92.4736C257.999 92.4736 230.029 101.035 215.53 112.819H215.527Z" fill="url(#paint3_linear_2242_2239)"/>
<g style="mix-blend-mode:screen">
<path d="M200.34 138.794C200.272 138.794 200.2 138.765 200.151 138.706C200.063 138.601 200.079 138.446 200.18 138.358L229.956 113.292C236.956 107.4 244.194 101.307 252.288 96.6852C252.405 96.6163 252.556 96.6589 252.621 96.7771C252.686 96.8953 252.647 97.0463 252.529 97.1119C244.472 101.711 237.253 107.79 230.27 113.666L200.494 138.732C200.448 138.771 200.393 138.788 200.337 138.788L200.34 138.794Z" fill="#5B586B"/>
<path d="M233.336 111.348C233.258 111.348 233.183 111.312 233.134 111.243C233.056 111.132 233.085 110.978 233.196 110.902C236.928 108.299 241.613 107.61 246.487 107.088C246.624 107.075 246.742 107.17 246.758 107.304C246.771 107.439 246.677 107.56 246.539 107.577C241.73 108.095 237.114 108.768 233.477 111.309C233.434 111.339 233.385 111.352 233.336 111.352V111.348Z" fill="#5B586B"/>
<path d="M222.97 119.683C222.931 119.683 222.891 119.673 222.855 119.654C222.738 119.588 222.692 119.44 222.754 119.319C224.935 115.235 226.591 110.879 227.674 106.375C227.707 106.244 227.838 106.165 227.972 106.195C228.102 106.228 228.184 106.359 228.151 106.494C227.057 111.04 225.386 115.435 223.185 119.555C223.143 119.637 223.058 119.686 222.97 119.686V119.683Z" fill="#5B586B"/>
<path d="M215.928 125.986C215.83 125.986 215.736 125.927 215.7 125.828C215.651 125.7 215.716 125.559 215.844 125.51C221.968 123.179 228.397 121.964 234.95 121.902C235.083 121.879 235.194 122.01 235.198 122.145C235.198 122.28 235.09 122.391 234.956 122.394C228.462 122.457 222.093 123.658 216.02 125.969C215.99 125.979 215.961 125.986 215.932 125.986H215.928Z" fill="#5B586B"/>
<path d="M204.94 134.773C204.898 134.773 204.859 134.763 204.82 134.74C204.702 134.674 204.66 134.523 204.728 134.405C205.877 132.36 206.547 130.062 207.196 127.84L209.505 119.929C209.541 119.798 209.674 119.722 209.808 119.762C209.939 119.801 210.014 119.936 209.975 120.067L207.667 127.978C207.01 130.227 206.331 132.554 205.156 134.648C205.11 134.727 205.029 134.773 204.944 134.773H204.94Z" fill="#5B586B"/>
<path d="M202.964 137.097C202.892 137.097 202.821 137.064 202.772 137.002C202.687 136.894 202.706 136.739 202.814 136.657C204.962 134.957 207.835 133.966 211.855 133.529C212.916 133.414 214 133.339 215.044 133.263C217.121 133.115 219.266 132.964 221.319 132.505C221.453 132.475 221.584 132.561 221.61 132.692C221.639 132.823 221.554 132.955 221.424 132.987C219.334 133.454 217.17 133.608 215.077 133.756C214.035 133.828 212.958 133.907 211.907 134.018C207.982 134.445 205.188 135.407 203.114 137.045C203.069 137.081 203.016 137.097 202.964 137.097Z" fill="#5B586B"/>
</g>
<path d="M198.917 31.9888H54.4818C52.7724 31.9888 51.3867 33.382 51.3867 35.1007V137.639C51.3867 139.358 52.7724 140.751 54.4818 140.751H198.917C200.626 140.751 202.012 139.358 202.012 137.639V35.1007C202.012 33.382 200.626 31.9888 198.917 31.9888Z" fill="url(#paint4_linear_2242_2239)"/>
<path d="M197.926 34.9365H55.4732C54.8818 34.9365 54.4023 35.4186 54.4023 36.0132V136.726C54.4023 137.321 54.8818 137.803 55.4732 137.803H197.926C198.518 137.803 198.997 137.321 198.997 136.726V36.0132C198.997 35.4186 198.518 34.9365 197.926 34.9365Z" fill="url(#paint5_linear_2242_2239)"/>
<path d="M204.527 149H48.8706C44.8385 149 41.5703 145.714 41.5703 141.66C41.5703 141.158 41.9752 140.748 42.4779 140.748H210.919C211.419 140.748 211.827 141.155 211.827 141.66C211.827 145.714 208.559 149 204.527 149Z" fill="url(#paint6_linear_2242_2239)"/>
<path d="M56.908 132.232C56.8754 132.232 56.8427 132.226 56.8134 132.213C56.2126 131.953 55.6119 131.697 55.0112 131.435C54.8871 131.382 54.8283 131.238 54.8838 131.11C54.9361 130.985 55.083 130.926 55.207 130.982C55.8078 131.241 56.4085 131.5 57.006 131.756C57.1301 131.809 57.1888 131.953 57.1366 132.078C57.0974 132.173 57.006 132.229 56.9113 132.229L56.908 132.232ZM52.4156 130.276C52.3829 130.276 52.347 130.269 52.3176 130.256C51.7202 129.99 51.1227 129.721 50.5285 129.449C50.4044 129.393 50.3522 129.245 50.4077 129.124C50.4632 128.999 50.6101 128.946 50.7309 129.002C51.3251 129.275 51.9193 129.544 52.5168 129.81C52.6409 129.866 52.6964 130.01 52.6409 130.135C52.6017 130.227 52.5103 130.282 52.4156 130.282V130.276ZM47.9688 128.218C47.9329 128.218 47.897 128.211 47.8611 128.195C47.2701 127.909 46.6825 127.62 46.1013 127.322C45.9805 127.259 45.9315 127.111 45.9936 126.99C46.0556 126.869 46.2025 126.819 46.3233 126.882C46.9045 127.177 47.4889 127.466 48.0766 127.752C48.1974 127.811 48.2496 127.958 48.1908 128.08C48.1484 128.168 48.0602 128.218 47.9688 128.218ZM43.607 125.979C43.5678 125.979 43.5286 125.969 43.4894 125.949C42.9148 125.634 42.3434 125.313 41.7754 124.981C41.6578 124.912 41.6186 124.761 41.6872 124.646C41.7558 124.528 41.906 124.489 42.0202 124.558C42.585 124.886 43.1531 125.204 43.7245 125.519C43.842 125.585 43.8877 125.733 43.8224 125.854C43.7767 125.936 43.6951 125.982 43.607 125.982V125.979ZM39.3855 123.484C39.3398 123.484 39.2941 123.471 39.2549 123.445C38.8566 123.192 38.4615 122.929 38.073 122.667C37.9195 122.562 37.7661 122.46 37.6159 122.355C37.5049 122.28 37.4755 122.125 37.5539 122.014C37.629 121.902 37.7824 121.872 37.8934 121.951C38.0436 122.056 38.1938 122.158 38.3472 122.26C38.7358 122.522 39.1275 122.778 39.5193 123.031C39.6336 123.103 39.6663 123.258 39.5944 123.373C39.5487 123.445 39.4671 123.488 39.3887 123.488L39.3855 123.484ZM35.3729 120.664C35.3207 120.664 35.2685 120.648 35.2228 120.612C34.6938 120.202 34.1747 119.785 33.685 119.374C33.5805 119.286 33.5675 119.132 33.6524 119.026C33.7405 118.921 33.894 118.908 33.9984 118.994C34.4816 119.401 34.9942 119.811 35.5199 120.218C35.6276 120.3 35.6472 120.454 35.5656 120.563C35.5166 120.625 35.4448 120.658 35.3729 120.658V120.664ZM31.6477 117.471C31.5857 117.471 31.5269 117.448 31.478 117.402C30.998 116.945 30.5279 116.473 30.0806 116.003C29.9859 115.905 29.9892 115.75 30.0871 115.655C30.1851 115.56 30.3385 115.567 30.4332 115.662C30.8739 116.125 31.3408 116.591 31.8142 117.044C31.9122 117.136 31.9154 117.293 31.824 117.392C31.7751 117.444 31.7098 117.467 31.6477 117.467V117.471ZM28.3045 113.876C28.2327 113.876 28.1641 113.847 28.1151 113.787C27.694 113.275 27.2859 112.747 26.9039 112.225C26.8222 112.117 26.8484 111.962 26.9561 111.88C27.0638 111.798 27.2173 111.821 27.2989 111.933C27.6776 112.451 28.0792 112.97 28.4939 113.476C28.5787 113.581 28.5657 113.735 28.4612 113.824C28.4155 113.863 28.36 113.879 28.3045 113.879V113.876ZM25.4608 109.871C25.3792 109.871 25.2975 109.829 25.2518 109.753C24.9058 109.185 24.5793 108.604 24.2789 108.027C24.2169 107.905 24.2626 107.757 24.3801 107.695C24.4977 107.633 24.6478 107.679 24.7099 107.797C25.007 108.365 25.3302 108.936 25.6697 109.497C25.7416 109.612 25.7024 109.763 25.5881 109.835C25.5489 109.858 25.5032 109.871 25.4608 109.871ZM23.2505 105.483C23.1558 105.483 23.0644 105.427 23.0252 105.332C22.7771 104.728 22.542 104.101 22.3298 103.474C22.2873 103.346 22.3526 103.204 22.4832 103.162C22.6106 103.116 22.7509 103.185 22.7934 103.316C23.0056 103.933 23.2341 104.547 23.479 105.144C23.5313 105.269 23.4725 105.414 23.3452 105.466C23.3158 105.479 23.2831 105.486 23.2505 105.486V105.483ZM21.7192 100.811C21.6082 100.811 21.5103 100.736 21.4809 100.628C21.3209 99.9973 21.1707 99.3474 21.0402 98.6974C21.014 98.5628 21.0989 98.4348 21.2295 98.4053C21.3601 98.379 21.4907 98.4643 21.5201 98.5956C21.6507 99.239 21.7976 99.8791 21.9576 100.503C21.9902 100.634 21.9119 100.769 21.7813 100.802C21.7617 100.808 21.7421 100.808 21.7192 100.808V100.811ZM20.7822 95.9827C20.6614 95.9827 20.557 95.8941 20.5406 95.7693C20.4525 95.1325 20.3741 94.4694 20.3088 93.8031C20.2958 93.6685 20.3937 93.547 20.5276 93.5339C20.6516 93.5175 20.7822 93.6192 20.7953 93.7538C20.8606 94.4136 20.9389 95.0701 21.0271 95.7004C21.0467 95.835 20.952 95.9597 20.8181 95.9794C20.8051 95.9794 20.7953 95.9794 20.7822 95.9794V95.9827ZM20.3317 91.0818C20.2011 91.0818 20.0933 90.98 20.0868 90.8487C20.0542 90.1889 20.0313 89.5324 20.015 88.8726C20.015 88.738 20.1195 88.6231 20.2533 88.6199H20.2598C20.3937 88.6199 20.5014 88.7282 20.5047 88.8595C20.5178 89.5127 20.5406 90.166 20.5733 90.8192C20.5798 90.9538 20.4753 91.0719 20.3415 91.0785C20.3382 91.0785 20.3317 91.0785 20.3284 91.0785L20.3317 91.0818ZM20.2566 86.1579H20.2533C20.1195 86.1579 20.0117 86.043 20.0117 85.9084C20.0248 85.2257 20.0444 84.5593 20.077 83.9323C20.0835 83.7977 20.1815 83.6828 20.3349 83.6992C20.4688 83.7058 20.5733 83.8207 20.5667 83.9586C20.5341 84.5823 20.5145 85.2421 20.5014 85.9183C20.5014 86.0529 20.3904 86.1612 20.2566 86.1612V86.1579ZM42.4642 82.2779C42.3271 82.2779 42.1867 82.2746 42.0496 82.2648C41.9157 82.2582 41.8113 82.14 41.8178 82.0054C41.8243 81.8709 41.9419 81.756 42.0757 81.7724C42.2063 81.7789 42.3369 81.7822 42.4642 81.7822C43.0356 81.7822 43.5057 81.7034 43.9008 81.5459C44.0249 81.4934 44.1685 81.5557 44.2175 81.6837C44.2665 81.8118 44.2077 81.9529 44.0804 82.0022C43.6265 82.186 43.0976 82.2746 42.4642 82.2746V82.2779ZM39.1569 81.8413C39.1406 81.8413 39.121 81.8413 39.1047 81.8347C38.4615 81.6936 37.8183 81.5196 37.1915 81.3161C37.0641 81.2734 36.9923 81.1356 37.0315 81.0075C37.0739 80.8795 37.2111 80.8073 37.3384 80.8467C37.9489 81.0436 38.579 81.2143 39.2059 81.3522C39.3365 81.3817 39.4214 81.5131 39.392 81.6444C39.3659 81.7592 39.2647 81.838 39.1537 81.838L39.1569 81.8413ZM20.557 81.2472C20.557 81.2472 20.5374 81.2472 20.5276 81.2472C20.3937 81.2307 20.2958 81.1093 20.3121 80.9747C20.3904 80.3018 20.4819 79.642 20.5896 79.0117C20.6125 78.8771 20.743 78.7885 20.8736 78.8115C21.0075 78.8345 21.0957 78.9625 21.0728 79.0971C20.9683 79.7175 20.8769 80.3707 20.7986 81.0338C20.7855 81.1585 20.6778 81.2504 20.557 81.2504V81.2472ZM34.5371 80.2361C34.5012 80.2361 34.4653 80.2296 34.4294 80.2131C33.8319 79.9243 33.2475 79.6026 32.6892 79.2612C32.5749 79.189 32.5358 79.038 32.6076 78.9231C32.6794 78.8049 32.8296 78.7688 32.9439 78.841C33.4891 79.1758 34.0605 79.4877 34.6416 79.77C34.7624 79.8291 34.8146 79.9768 34.7559 80.0983C34.7134 80.1869 34.6253 80.2361 34.5339 80.2361H34.5371ZM45.6899 79.7733C45.6736 79.7733 45.654 79.7733 45.6377 79.7667C45.5071 79.7372 45.4222 79.6059 45.4516 79.4746C45.5496 79.0248 45.5953 78.5128 45.5953 77.9088C45.5953 77.7972 45.5953 77.6823 45.592 77.5739C45.5887 77.4394 45.6965 77.3245 45.8303 77.3212C45.9642 77.3245 46.0785 77.4262 46.0817 77.5608C46.0817 77.6757 46.085 77.7939 46.085 77.9088C46.085 78.5489 46.0328 79.0938 45.9283 79.5796C45.9022 79.6945 45.8009 79.7733 45.6899 79.7733ZM30.4332 77.5739C30.3777 77.5739 30.3222 77.5542 30.2765 77.5149C29.7704 77.0848 29.2807 76.6286 28.8269 76.1526C28.7322 76.0541 28.7355 75.8998 28.8334 75.8046C28.9313 75.7127 29.0848 75.7127 29.1795 75.8112C29.6202 76.274 30.0969 76.7205 30.5899 77.1374C30.6944 77.226 30.7074 77.3803 30.6193 77.4853C30.5703 77.5444 30.5018 77.5739 30.4332 77.5739ZM21.4646 76.4119C21.4417 76.4119 21.4221 76.4119 21.3993 76.4021C21.2687 76.366 21.1936 76.2314 21.2295 76.1001C21.4091 75.4501 21.6115 74.81 21.8335 74.206C21.8792 74.078 22.0229 74.0123 22.1469 74.0583C22.2743 74.1042 22.3396 74.2454 22.2939 74.3734C22.0784 74.9676 21.8792 75.5913 21.7029 76.2314C21.6735 76.3397 21.5756 76.4119 21.4679 76.4119H21.4646ZM45.5789 74.8724C45.4614 74.8724 45.3569 74.7837 45.3373 74.6623C45.2394 74.0058 45.1121 73.3624 44.9619 72.7518C44.9292 72.6205 45.0076 72.4859 45.1414 72.4531C45.272 72.4203 45.4059 72.4991 45.4385 72.6336C45.592 73.2573 45.7226 73.9171 45.8205 74.5901C45.8401 74.7247 45.7487 74.8494 45.6149 74.8691C45.6018 74.8691 45.592 74.8691 45.5789 74.8691V74.8724ZM27.1487 73.9401C27.0704 73.9401 26.9953 73.904 26.9463 73.8318C26.5741 73.2869 26.228 72.7124 25.9179 72.1248C25.8526 72.0067 25.8983 71.8557 26.0191 71.7933C26.1366 71.7277 26.2868 71.7736 26.3488 71.8951C26.6525 72.4662 26.9887 73.0243 27.3512 73.5561C27.4262 73.6677 27.4001 73.8219 27.2859 73.8974C27.2434 73.927 27.1944 73.9401 27.1487 73.9401ZM23.2603 71.8458C23.2211 71.8458 23.1819 71.836 23.1427 71.8163C23.0252 71.7506 22.9795 71.6029 23.0448 71.4815C23.3615 70.8906 23.7108 70.3194 24.083 69.7811C24.1614 69.6695 24.3116 69.6399 24.4226 69.7187C24.5336 69.7975 24.563 69.9485 24.4846 70.0601C24.1255 70.582 23.7859 71.1401 23.4757 71.7145C23.43 71.7966 23.3484 71.8425 23.2603 71.8425V71.8458ZM44.2469 70.152C44.1555 70.152 44.064 70.0995 44.0249 70.0076C43.7506 69.4036 43.4404 68.8357 43.0976 68.3203C43.0225 68.2054 43.0552 68.0544 43.1662 67.9789C43.2772 67.9034 43.4306 67.933 43.5057 68.0479C43.8616 68.5862 44.1848 69.1771 44.4689 69.8041C44.5244 69.9288 44.4689 70.0732 44.3481 70.129C44.3154 70.1454 44.2795 70.152 44.2469 70.152ZM24.9678 69.5513C24.8666 69.5513 24.7719 69.4856 24.736 69.3839C24.5238 68.7536 24.3442 68.1037 24.2038 67.4603C24.1744 67.329 24.2593 67.1977 24.3899 67.1681C24.5238 67.1386 24.6511 67.2239 24.6805 67.3552C24.8176 67.9822 24.9906 68.6125 25.1963 69.2263C25.2388 69.3543 25.1702 69.4955 25.0429 69.5382C25.0168 69.548 24.9906 69.5513 24.9645 69.5513H24.9678ZM26.1889 67.9264C26.1236 67.9264 26.0583 67.9002 26.0093 67.8476C25.9179 67.7492 25.9211 67.5916 26.0191 67.4997C26.499 67.0467 27.0181 66.6199 27.5601 66.2326C27.6711 66.1538 27.8246 66.1801 27.9029 66.2917C27.9813 66.4033 27.9552 66.5576 27.8441 66.6364C27.3185 67.0106 26.819 67.4209 26.3554 67.8608C26.3097 67.9067 26.2476 67.9264 26.1889 67.9264ZM41.3607 66.2326C41.3052 66.2326 41.2497 66.2129 41.204 66.1768C41.0375 66.0356 40.8645 65.9011 40.6849 65.773C40.3453 65.5301 39.9895 65.3069 39.6205 65.1198C39.4997 65.0574 39.454 64.9097 39.5161 64.7883C39.5781 64.6668 39.725 64.6208 39.8458 64.6832C40.2343 64.8835 40.6098 65.1165 40.9689 65.3758C41.1583 65.5104 41.3411 65.6549 41.5174 65.8026C41.6219 65.8912 41.635 66.0455 41.5501 66.1505C41.5011 66.2096 41.4325 66.2392 41.3607 66.2392V66.2326ZM30.2569 65.2281C30.1622 65.2281 30.0741 65.1723 30.0316 65.0804C29.9761 64.9557 30.0316 64.8112 30.1589 64.7554C30.7727 64.4863 31.4029 64.2598 32.0362 64.0825C32.1668 64.0464 32.3007 64.1219 32.3366 64.2532C32.3725 64.3845 32.2974 64.5191 32.1668 64.5552C31.5563 64.7259 30.9458 64.9458 30.3548 65.2051C30.3222 65.2183 30.2895 65.2248 30.2569 65.2248V65.2281ZM24.07 64.7292C23.9394 64.7292 23.8316 64.6241 23.8251 64.4928C23.8186 64.2762 23.812 64.0595 23.812 63.8462C23.812 63.3932 23.8316 62.9402 23.8675 62.497C23.8806 62.3624 24.0014 62.264 24.132 62.2738C24.2658 62.2869 24.3671 62.4051 24.354 62.5397C24.3181 62.9697 24.2985 63.4096 24.2985 63.8494C24.2985 64.0595 24.3018 64.2696 24.3116 64.4797C24.3148 64.6143 24.2103 64.7292 24.0765 64.7357H24.0667L24.07 64.7292ZM36.9531 64.2368C36.9531 64.2368 36.927 64.2368 36.914 64.2368C36.3916 64.1547 35.8431 64.1088 35.2979 64.1153C35.1999 64.1153 35.102 64.1153 35.004 64.1186C34.8767 64.1186 34.7559 64.0169 34.7526 63.879C34.7494 63.7444 34.8538 63.6295 34.991 63.6262C35.1052 63.6229 35.2195 63.6229 35.3338 63.6229C35.8953 63.6229 36.4536 63.6656 36.9891 63.751C37.1229 63.7707 37.2143 63.8987 37.1915 64.0333C37.1719 64.1547 37.0674 64.2401 36.9499 64.2401L36.9531 64.2368ZM24.625 59.8578C24.6054 59.8578 24.5825 59.8578 24.563 59.8512C24.4324 59.8151 24.354 59.6806 24.3899 59.5492C24.5564 58.9223 24.7654 58.2822 25.0037 57.6519C25.0527 57.5239 25.1931 57.4615 25.3204 57.5108C25.4477 57.56 25.5098 57.7011 25.4608 57.8292C25.2257 58.443 25.0233 59.0634 24.8633 59.674C24.8339 59.7856 24.736 59.8578 24.625 59.8578ZM26.4762 55.3114C26.437 55.3114 26.3945 55.3016 26.3586 55.2819C26.2411 55.2162 26.1954 55.0652 26.2639 54.9471C26.5741 54.3792 26.9202 53.808 27.2859 53.2467C27.3609 53.1318 27.5111 53.1022 27.6254 53.1777C27.7397 53.2532 27.7691 53.4042 27.694 53.5191C27.3316 54.0706 26.9953 54.6319 26.6916 55.1867C26.6459 55.2688 26.5643 55.3147 26.4762 55.3147V55.3114ZM29.2317 51.2476C29.1762 51.2476 29.1207 51.2279 29.0783 51.1918C28.9738 51.1064 28.9575 50.9521 29.0424 50.8471C29.2872 50.5451 29.5354 50.2497 29.79 49.9575C29.9696 49.754 30.1524 49.5505 30.3385 49.3502C30.4299 49.2518 30.5866 49.2452 30.6846 49.3371C30.7825 49.429 30.7891 49.5866 30.6976 49.6851C30.5148 49.882 30.3352 50.0823 30.1589 50.2825C29.9075 50.5681 29.6627 50.8602 29.4211 51.1557C29.3721 51.2148 29.3035 51.2476 29.2317 51.2476ZM32.6305 47.7122C32.5619 47.7122 32.4933 47.6827 32.4444 47.6269C32.3562 47.5251 32.366 47.3676 32.4672 47.2789C32.9635 46.8456 33.4793 46.4222 34.0017 46.025C34.1094 45.9429 34.2629 45.9659 34.3445 46.0742C34.4261 46.1825 34.4033 46.3368 34.2955 46.4189C33.783 46.8095 33.2769 47.2231 32.7872 47.6499C32.7415 47.6893 32.6827 47.7089 32.6272 47.7089L32.6305 47.7122ZM36.5875 44.8203C36.5059 44.8203 36.4242 44.7776 36.3785 44.6988C36.31 44.5806 36.3459 44.4296 36.4634 44.3607C37.0348 44.0193 37.6192 43.6976 38.2003 43.4088C38.3211 43.3497 38.468 43.3989 38.5301 43.5204C38.5888 43.6418 38.5399 43.7895 38.4191 43.8519C37.8477 44.1375 37.2764 44.4526 36.7148 44.7874C36.6756 44.8104 36.6332 44.8236 36.5907 44.8236L36.5875 44.8203ZM41.0146 42.7325C40.9134 42.7325 40.8188 42.6702 40.7828 42.5651C40.7404 42.4371 40.8057 42.296 40.933 42.2533C41.5631 42.0334 42.2063 41.8462 42.8332 41.692C42.967 41.6624 43.0976 41.7412 43.1303 41.8725C43.1629 42.0038 43.0813 42.1384 42.9507 42.1712C42.3337 42.3222 41.7101 42.506 41.093 42.7194C41.0669 42.7293 41.0408 42.7325 41.0146 42.7325ZM51.9193 42.4043C51.8932 42.4043 51.8671 42.401 51.8442 42.3912C51.4361 42.2566 51.0215 42.1417 50.6036 42.0432C50.473 42.0137 50.3914 41.8791 50.4207 41.7478C50.4501 41.6165 50.5807 41.5311 50.7146 41.5639C51.1455 41.6624 51.5765 41.7839 51.9977 41.9217C52.125 41.9644 52.1968 42.1023 52.1544 42.2336C52.1217 42.3386 52.0238 42.4043 51.9226 42.4043H51.9193ZM45.7912 41.7051C45.6638 41.7051 45.5593 41.6066 45.5463 41.4786C45.5365 41.344 45.6377 41.2258 45.7716 41.2127C46.4376 41.1602 47.1004 41.1438 47.7566 41.17C47.8905 41.1766 47.9982 41.2882 47.9917 41.4261C47.9851 41.5574 47.8774 41.6624 47.7468 41.6624H47.737C47.1004 41.6362 46.4572 41.6526 45.8107 41.7018C45.8042 41.7018 45.7977 41.7018 45.7912 41.7018V41.7051Z" fill="#26DBBD"/>
<path d="M196.073 123.225C196.018 123.225 195.959 123.205 195.913 123.166C195.812 123.077 195.799 122.92 195.89 122.818C196.259 122.391 196.625 121.948 196.971 121.498C197.053 121.39 197.209 121.37 197.314 121.456C197.422 121.538 197.441 121.695 197.356 121.8C197.004 122.257 196.635 122.706 196.259 123.143C196.21 123.199 196.142 123.228 196.073 123.228V123.225ZM198.858 119.483C198.812 119.483 198.767 119.47 198.727 119.443C198.613 119.371 198.581 119.217 198.652 119.102C198.998 118.56 199.335 117.996 199.655 117.428C199.72 117.31 199.87 117.267 199.988 117.333C200.105 117.398 200.148 117.549 200.082 117.668C199.759 118.245 199.416 118.817 199.067 119.368C199.021 119.44 198.94 119.483 198.861 119.483H198.858ZM201.196 115.163C201.163 115.163 201.127 115.156 201.095 115.14C200.97 115.084 200.918 114.936 200.974 114.815C201.241 114.224 201.496 113.62 201.731 113.013C201.78 112.885 201.924 112.822 202.048 112.875C202.175 112.924 202.237 113.069 202.185 113.193C201.947 113.807 201.685 114.421 201.414 115.019C201.372 115.11 201.284 115.163 201.192 115.163H201.196ZM202.926 110.561C202.903 110.561 202.877 110.558 202.854 110.551C202.724 110.512 202.652 110.374 202.691 110.242C202.877 109.625 203.053 108.992 203.213 108.358C203.246 108.227 203.38 108.145 203.511 108.178C203.641 108.21 203.723 108.345 203.69 108.476C203.53 109.12 203.354 109.763 203.161 110.387C203.129 110.492 203.031 110.561 202.926 110.561ZM204.059 105.775C204.059 105.775 204.03 105.775 204.017 105.771C203.883 105.749 203.795 105.62 203.817 105.486C203.928 104.849 204.023 104.199 204.105 103.549C204.121 103.415 204.252 103.316 204.379 103.336C204.513 103.352 204.608 103.477 204.591 103.612C204.51 104.268 204.412 104.928 204.301 105.571C204.281 105.689 204.177 105.775 204.059 105.775ZM204.608 100.884C204.608 100.884 204.598 100.884 204.594 100.884C204.461 100.877 204.356 100.759 204.363 100.624C204.379 100.345 204.389 100.066 204.399 99.7873C204.412 99.4131 204.418 99.0422 204.421 98.668C204.421 98.5334 204.532 98.4251 204.666 98.4251C204.8 98.4251 204.911 98.5367 204.908 98.6745C204.908 99.052 204.898 99.4295 204.885 99.807C204.875 100.089 204.862 100.372 204.849 100.654C204.843 100.785 204.735 100.887 204.604 100.887L204.608 100.884ZM204.591 95.9631C204.464 95.9631 204.356 95.8614 204.346 95.73C204.31 95.0801 204.258 94.4236 204.193 93.7769C204.18 93.6423 204.278 93.5209 204.412 93.5077C204.552 93.4913 204.666 93.5931 204.679 93.7277C204.745 94.3809 204.797 95.0473 204.833 95.7005C204.839 95.8351 204.738 95.9533 204.604 95.9598C204.601 95.9598 204.594 95.9598 204.588 95.9598L204.591 95.9631ZM204.059 91.0721C203.941 91.0721 203.837 90.9867 203.817 90.8652C203.716 90.2219 203.599 89.5752 203.475 88.9351C203.448 88.8005 203.533 88.6725 203.667 88.6462C203.801 88.6167 203.928 88.7053 203.955 88.8399C204.082 89.4833 204.199 90.1398 204.301 90.7865C204.32 90.9211 204.232 91.0458 204.098 91.0688C204.085 91.0688 204.072 91.0688 204.059 91.0688V91.0721ZM203.063 86.2532C202.952 86.2532 202.854 86.1777 202.825 86.0694C202.665 85.4424 202.492 84.8056 202.309 84.1786C202.27 84.0473 202.345 83.9127 202.476 83.8733C202.606 83.8339 202.74 83.9094 202.779 84.0407C202.965 84.6743 203.138 85.3177 203.298 85.9479C203.331 86.0792 203.253 86.2138 203.122 86.2467C203.102 86.2532 203.083 86.2532 203.06 86.2532H203.063ZM152.392 82.127C151.939 82.127 151.485 82.1171 151.057 82.0942C150.923 82.0876 150.819 81.9727 150.825 81.8349C150.832 81.7035 150.94 81.6018 151.07 81.6018C151.073 81.6018 151.077 81.6018 151.083 81.6018C151.504 81.6248 151.948 81.6346 152.392 81.6346C152.601 81.6346 152.814 81.6346 153.023 81.628H153.029C153.163 81.628 153.271 81.7331 153.274 81.8677C153.277 82.0023 153.169 82.1171 153.036 82.1204C152.823 82.127 152.608 82.127 152.392 82.127ZM155.958 81.9202C155.834 81.9202 155.726 81.825 155.713 81.697C155.7 81.5624 155.798 81.4409 155.932 81.4278C156.578 81.3654 157.224 81.2932 157.871 81.2079C158.001 81.1882 158.129 81.2867 158.145 81.4212C158.161 81.5558 158.067 81.6806 157.933 81.697C157.283 81.779 156.63 81.8545 155.977 81.9169C155.971 81.9169 155.961 81.9169 155.954 81.9169L155.958 81.9202ZM148.158 81.7167C148.142 81.7167 148.122 81.7167 148.106 81.7101C147.423 81.5591 146.78 81.3622 146.196 81.1258C146.072 81.0766 146.01 80.9321 146.059 80.8041C146.108 80.6761 146.251 80.617 146.379 80.6663C146.937 80.8927 147.554 81.0799 148.213 81.2276C148.344 81.2571 148.429 81.3884 148.399 81.5197C148.373 81.6346 148.272 81.7134 148.161 81.7134L148.158 81.7167ZM201.653 81.5427C201.552 81.5427 201.457 81.4803 201.421 81.3753C201.209 80.7582 200.987 80.1443 200.755 79.5305C200.706 79.4025 200.771 79.2613 200.895 79.2121C201.019 79.1628 201.163 79.2252 201.212 79.3532C201.444 79.9703 201.669 80.5875 201.885 81.2112C201.927 81.3392 201.862 81.4803 201.734 81.523C201.708 81.5329 201.682 81.5361 201.656 81.5361L201.653 81.5427ZM160.806 81.2309C160.692 81.2309 160.59 81.1488 160.568 81.0339C160.542 80.8993 160.626 80.7713 160.76 80.745C161.417 80.6137 162.053 80.466 162.651 80.3052C162.784 80.2691 162.915 80.3478 162.951 80.4791C162.987 80.6104 162.909 80.745 162.778 80.7811C162.167 80.9453 161.521 81.0963 160.855 81.2309C160.839 81.2341 160.822 81.2341 160.806 81.2341V81.2309ZM165.498 79.8489C165.403 79.8489 165.312 79.7898 165.272 79.6946C165.22 79.5699 165.282 79.4254 165.406 79.3729C166.013 79.1234 166.601 78.8444 167.156 78.5457C167.274 78.4833 167.424 78.526 167.489 78.6475C167.554 78.7656 167.509 78.9166 167.388 78.9823C166.82 79.2876 166.219 79.5731 165.592 79.8325C165.563 79.8456 165.53 79.8522 165.501 79.8522L165.498 79.8489ZM143.789 79.6158C143.731 79.6158 143.672 79.5961 143.626 79.5535C143.12 79.0972 142.683 78.5752 142.327 78.0008C142.255 77.8859 142.291 77.7349 142.405 77.6627C142.519 77.5905 142.67 77.6266 142.741 77.7415C143.074 78.2765 143.483 78.7656 143.953 79.1891C144.054 79.281 144.06 79.4353 143.972 79.537C143.923 79.5928 143.858 79.6191 143.789 79.6191V79.6158ZM169.732 77.4034C169.657 77.4034 169.585 77.3705 169.536 77.3082C169.455 77.1998 169.474 77.0456 169.582 76.9635C170.078 76.5794 170.578 76.1593 171.064 75.7095C171.165 75.6176 171.319 75.6242 171.41 75.7227C171.502 75.8211 171.495 75.9787 171.397 76.0706C170.901 76.5302 170.392 76.9602 169.882 77.3541C169.837 77.3869 169.784 77.4034 169.732 77.4034ZM199.873 76.9536C199.779 76.9536 199.687 76.8978 199.648 76.8059C199.459 76.3661 199.263 75.9262 199.067 75.4929C198.995 75.3353 198.923 75.1778 198.848 75.0202C198.79 74.8955 198.842 74.751 198.966 74.6919C199.09 74.6361 199.234 74.6854 199.292 74.8101C199.367 74.971 199.439 75.1285 199.514 75.2894C199.713 75.7292 199.909 76.1691 200.102 76.6123C200.154 76.737 200.099 76.8814 199.975 76.9372C199.942 76.9504 199.909 76.9569 199.877 76.9569L199.873 76.9536ZM141.54 75.3583C141.422 75.3583 141.315 75.2697 141.298 75.1482C141.24 74.7412 141.21 74.3243 141.21 73.9008C141.21 73.6415 141.223 73.3855 141.243 73.1261C141.253 72.9916 141.38 72.8964 141.507 72.9029C141.641 72.9161 141.742 73.0342 141.729 73.1688C141.71 73.415 141.697 73.6579 141.697 73.9041C141.697 74.3013 141.723 74.6952 141.782 75.076C141.801 75.2106 141.71 75.3353 141.576 75.355C141.563 75.355 141.553 75.355 141.54 75.355V75.3583ZM173.275 74.0124C173.219 74.0124 173.16 73.9927 173.115 73.9534C173.013 73.8647 173 73.7072 173.092 73.6054C173.497 73.136 173.911 72.6272 174.323 72.0921C174.404 71.9838 174.561 71.9641 174.665 72.0495C174.773 72.1315 174.793 72.2858 174.708 72.3941C174.29 72.939 173.869 73.4544 173.457 73.9304C173.408 73.9862 173.34 74.0157 173.271 74.0157L173.275 74.0124ZM197.755 72.5156C197.666 72.5156 197.585 72.4696 197.539 72.3876C197.219 71.7934 196.893 71.219 196.573 70.6872C196.504 70.5723 196.54 70.4213 196.654 70.3491C196.769 70.2769 196.919 70.3162 196.991 70.4311C197.314 70.9695 197.644 71.5472 197.97 72.1512C198.035 72.2694 197.99 72.4204 197.872 72.486C197.836 72.5057 197.794 72.5156 197.755 72.5156ZM142.177 70.5329C142.147 70.5329 142.115 70.5263 142.085 70.5132C141.961 70.4607 141.899 70.3195 141.951 70.1915C142.026 70.0044 142.108 69.8173 142.196 69.6367C142.392 69.2231 142.621 68.8095 142.872 68.4091C142.944 68.2942 143.097 68.2581 143.208 68.3336C143.323 68.4058 143.359 68.5568 143.283 68.6717C143.042 69.0557 142.826 69.4529 142.637 69.8501C142.555 70.0241 142.477 70.2014 142.405 70.3786C142.366 70.4738 142.275 70.5329 142.18 70.5329H142.177ZM176.229 70.0898C176.184 70.0898 176.135 70.0766 176.092 70.0471C175.981 69.9716 175.948 69.8173 176.027 69.7057C176.389 69.1608 176.745 68.6093 177.085 68.0578C177.156 67.9429 177.307 67.9068 177.421 67.979C177.535 68.0513 177.571 68.2023 177.499 68.3171C177.16 68.8719 176.801 69.4299 176.432 69.9814C176.383 70.0536 176.308 70.0898 176.229 70.0898ZM195.146 68.3533C195.071 68.3533 194.999 68.3204 194.95 68.2548C194.555 67.723 194.147 67.2109 193.735 66.7349C193.647 66.6332 193.657 66.4756 193.758 66.387C193.86 66.2984 194.016 66.3082 194.104 66.41C194.526 66.8958 194.94 67.4177 195.342 67.9593C195.423 68.0677 195.401 68.222 195.29 68.304C195.247 68.3368 195.195 68.3533 195.143 68.3533H195.146ZM144.893 66.4723C144.831 66.4723 144.772 66.4494 144.723 66.4034C144.625 66.3082 144.622 66.1539 144.717 66.0554C145.151 65.6024 145.637 65.1429 146.163 64.6932C146.264 64.6045 146.421 64.6177 146.509 64.7194C146.597 64.8245 146.584 64.9788 146.483 65.0674C145.97 65.5073 145.497 65.9537 145.073 66.3968C145.024 66.4461 144.962 66.4723 144.896 66.4723H144.893ZM178.76 65.8749C178.72 65.8749 178.681 65.8651 178.642 65.8454C178.524 65.7797 178.479 65.632 178.544 65.5105C178.854 64.9361 179.151 64.3485 179.435 63.7675C179.494 63.646 179.641 63.5968 179.762 63.6559C179.883 63.715 179.935 63.8627 179.873 63.9841C179.589 64.5717 179.285 65.1626 178.972 65.7436C178.929 65.8257 178.844 65.8716 178.756 65.8716L178.76 65.8749ZM191.852 64.7161C191.793 64.7161 191.737 64.6965 191.688 64.6538C191.561 64.5422 191.437 64.4338 191.306 64.3255C190.951 64.0235 190.569 63.7281 190.174 63.4425C190.062 63.3637 190.04 63.2094 190.118 63.0978C190.196 62.9862 190.35 62.9632 190.461 63.042C190.866 63.3342 191.254 63.6395 191.62 63.948C191.75 64.0596 191.881 64.1712 192.012 64.2861C192.113 64.3748 192.123 64.5323 192.034 64.6341C191.986 64.6899 191.92 64.7161 191.852 64.7161ZM148.657 63.3375C148.579 63.3375 148.504 63.3014 148.455 63.2291C148.38 63.1175 148.406 62.9632 148.517 62.8877C149.056 62.5168 149.614 62.1557 150.179 61.8176C150.293 61.7454 150.443 61.7848 150.515 61.903C150.584 62.0211 150.548 62.1721 150.43 62.2411C149.875 62.5759 149.323 62.9304 148.795 63.2948C148.752 63.3243 148.703 63.3375 148.657 63.3375ZM187.836 61.9128C187.797 61.9128 187.754 61.903 187.718 61.8833C187.173 61.5813 186.589 61.2826 185.988 60.997C185.864 60.9379 185.812 60.7935 185.87 60.6687C185.929 60.5473 186.073 60.4947 186.197 60.5505C186.807 60.8394 187.402 61.1414 187.957 61.4533C188.074 61.5189 188.12 61.6699 188.051 61.7881C188.006 61.8701 187.924 61.9161 187.836 61.9161V61.9128ZM180.859 61.4303C180.826 61.4303 180.797 61.4237 180.767 61.4106C180.643 61.3581 180.581 61.2136 180.634 61.0889C180.882 60.4783 181.12 59.8645 181.335 59.2605C181.349 59.2244 181.368 59.1948 181.394 59.1686C181.313 59.1062 181.273 58.9979 181.306 58.8961C181.349 58.7681 181.486 58.6959 181.613 58.7386C182.237 58.9421 182.86 59.162 183.474 59.3951C183.601 59.4443 183.663 59.5855 183.618 59.7135C183.569 59.8415 183.428 59.9039 183.301 59.8579C182.811 59.6708 182.308 59.4935 181.809 59.3261C181.812 59.3622 181.809 59.3984 181.796 59.4345C181.577 60.045 181.339 60.6654 181.087 61.2826C181.048 61.3778 180.957 61.4368 180.862 61.4368L180.859 61.4303ZM152.892 60.8722C152.801 60.8722 152.716 60.8197 152.67 60.7344C152.611 60.6129 152.663 60.4652 152.784 60.4061C153.372 60.1205 153.976 59.8481 154.583 59.5953C154.707 59.5428 154.851 59.6019 154.903 59.7299C154.955 59.8546 154.897 59.9991 154.769 60.0516C154.172 60.3011 153.574 60.5702 152.996 60.8525C152.96 60.869 152.925 60.8755 152.889 60.8755L152.892 60.8722ZM157.437 59.0504C157.332 59.0504 157.237 58.9847 157.205 58.8797C157.162 58.7517 157.234 58.6105 157.365 58.5711C157.988 58.3709 158.625 58.1838 159.258 58.0197C159.389 57.9836 159.523 58.0623 159.556 58.1969C159.591 58.3282 159.513 58.4628 159.379 58.4956C158.756 58.6598 158.129 58.8436 157.512 59.0406C157.486 59.0471 157.463 59.0537 157.437 59.0537V59.0504ZM178.707 58.4169C178.688 58.4169 178.668 58.4169 178.649 58.4103C178.022 58.256 177.382 58.1181 176.745 57.9934C176.611 57.9671 176.526 57.8391 176.552 57.7045C176.579 57.57 176.709 57.4846 176.84 57.5109C177.483 57.6356 178.129 57.7768 178.766 57.9343C178.897 57.9671 178.978 58.0984 178.946 58.233C178.92 58.3446 178.818 58.4201 178.707 58.4201V58.4169ZM162.184 57.8687C162.066 57.8687 161.965 57.7866 161.942 57.6651C161.919 57.5306 162.007 57.4025 162.141 57.3796C162.781 57.2647 163.437 57.1629 164.09 57.0808C164.218 57.0611 164.348 57.1596 164.365 57.2942C164.381 57.4288 164.286 57.5535 164.152 57.57C163.509 57.652 162.86 57.7505 162.229 57.8654C162.216 57.8654 162.2 57.8687 162.187 57.8687H162.184ZM173.892 57.5437C173.892 57.5437 173.872 57.5437 173.862 57.5437C173.222 57.4682 172.569 57.4058 171.923 57.3599C171.789 57.35 171.685 57.2318 171.694 57.0973C171.704 56.9627 171.831 56.8609 171.956 56.8675C172.608 56.9134 173.268 56.9758 173.918 57.0546C174.052 57.071 174.146 57.1925 174.13 57.327C174.114 57.4518 174.009 57.5437 173.888 57.5437H173.892ZM167.048 57.3106C166.918 57.3106 166.81 57.2089 166.804 57.0776C166.797 56.943 166.901 56.8248 167.035 56.8182C167.685 56.7854 168.348 56.7657 169.004 56.7657C169.138 56.7657 169.249 56.874 169.249 57.0119C169.249 57.1465 169.141 57.2581 169.004 57.2581C168.354 57.2581 167.701 57.2778 167.058 57.3106C167.055 57.3106 167.048 57.3106 167.045 57.3106H167.048ZM182.462 56.7821C182.439 56.7821 182.419 56.7821 182.397 56.7723C182.266 56.7362 182.191 56.5983 182.227 56.467C182.403 55.8335 182.566 55.1966 182.707 54.5697C182.736 54.4384 182.863 54.353 183.001 54.3858C183.131 54.4154 183.216 54.5467 183.183 54.6813C183.04 55.3148 182.877 55.9582 182.697 56.6016C182.668 56.7099 182.57 56.7821 182.462 56.7821ZM183.487 51.9699C183.487 51.9699 183.464 51.9699 183.451 51.9699C183.317 51.9502 183.226 51.8254 183.245 51.6908C183.34 51.0442 183.415 50.3909 183.474 49.7508C183.487 49.613 183.614 49.5178 183.738 49.5276C183.872 49.5407 183.974 49.6589 183.96 49.7935C183.902 50.4435 183.827 51.1065 183.732 51.7631C183.712 51.8845 183.611 51.9731 183.49 51.9731L183.487 51.9699ZM183.849 47.0493C183.716 47.0493 183.605 46.9508 183.605 46.8162C183.605 46.1531 183.585 45.5064 183.546 44.863C183.539 44.7285 183.641 44.6103 183.774 44.6037C183.908 44.5906 184.026 44.6989 184.032 44.8335C184.071 45.4867 184.091 46.1433 184.091 46.7899C184.091 46.9245 183.98 47.0493 183.846 47.0493H183.849ZM183.464 42.1582C183.347 42.1582 183.242 42.0729 183.223 41.9514C183.118 41.3146 182.991 40.6679 182.844 40.0344C182.814 39.9031 182.896 39.7685 183.027 39.7389C183.164 39.7094 183.291 39.7915 183.321 39.9228C183.471 40.5661 183.598 41.2227 183.706 41.8693C183.729 42.0039 183.637 42.1319 183.503 42.1516C183.49 42.1516 183.477 42.1549 183.464 42.1549V42.1582ZM182.273 37.3886C182.171 37.3886 182.077 37.3229 182.041 37.2212C181.832 36.6041 181.6 35.9902 181.352 35.3961C181.3 35.2713 181.358 35.1269 181.482 35.0744C181.61 35.0219 181.75 35.0809 181.802 35.2057C182.054 35.8097 182.292 36.4366 182.504 37.0603C182.547 37.1884 182.481 37.3295 182.351 37.3722C182.325 37.382 182.299 37.3853 182.273 37.3853V37.3886ZM134.223 36.9717C133.446 36.9717 132.774 36.7813 132.229 36.4038C132.118 36.3283 132.088 36.174 132.167 36.0624C132.242 35.9508 132.395 35.9213 132.506 36.0001C132.97 36.3185 133.548 36.4826 134.223 36.4826C134.357 36.4826 134.468 36.5942 134.468 36.7288C134.468 36.8634 134.357 36.975 134.223 36.975V36.9717ZM137.028 36.197C136.943 36.197 136.858 36.1511 136.812 36.069C136.747 35.9508 136.79 35.7998 136.907 35.7342C136.969 35.6981 137.034 35.662 137.096 35.6258C137.573 35.3403 138.033 35.0054 138.468 34.6345C138.569 34.5459 138.726 34.559 138.814 34.6608C138.902 34.7625 138.889 34.9201 138.788 35.0087C138.334 35.3993 137.851 35.7506 137.348 36.0493C137.283 36.0887 137.214 36.1281 137.145 36.1642C137.11 36.1839 137.067 36.1937 137.028 36.1937V36.197ZM131.079 33.9025C130.955 33.9025 130.848 33.8073 130.834 33.6793C130.818 33.4954 130.812 33.3116 130.808 33.1311C130.808 32.6124 130.851 32.1299 130.932 31.6539C130.955 31.5193 131.086 31.4274 131.216 31.4537C131.35 31.4767 131.438 31.6047 131.416 31.7393C131.337 32.1857 131.298 32.6387 131.298 33.0884C131.298 33.2952 131.305 33.4659 131.321 33.6366C131.334 33.7712 131.233 33.8926 131.099 33.9025C131.092 33.9025 131.083 33.9025 131.076 33.9025H131.079ZM180.304 32.8882C180.216 32.8882 180.134 32.8422 180.088 32.7601C179.778 32.189 179.445 31.6244 179.096 31.0827C179.021 30.9679 179.057 30.8169 179.168 30.7414C179.282 30.6659 179.432 30.6987 179.507 30.8136C179.86 31.365 180.203 31.9395 180.516 32.5205C180.581 32.6387 180.539 32.7897 180.418 32.8553C180.382 32.875 180.34 32.8849 180.301 32.8849L180.304 32.8882ZM140.58 32.8718C140.531 32.8718 140.482 32.8586 140.44 32.8291C140.329 32.7536 140.299 32.5993 140.378 32.4877C140.734 31.969 141.06 31.4077 141.344 30.8201C141.403 30.6987 141.55 30.6494 141.671 30.7052C141.791 30.7643 141.844 30.9121 141.785 31.0335C141.491 31.6441 141.151 32.2251 140.783 32.7667C140.734 32.8356 140.658 32.8718 140.58 32.8718ZM132.17 29.1788C132.131 29.1788 132.088 29.169 132.052 29.1493C131.935 29.0836 131.892 28.9326 131.958 28.8145C132.268 28.2499 132.646 27.6885 133.081 27.1502C133.166 27.0452 133.319 27.0287 133.424 27.1141C133.528 27.1994 133.544 27.3537 133.459 27.4588C133.045 27.9741 132.682 28.5092 132.385 29.0508C132.34 29.1329 132.258 29.1788 132.17 29.1788ZM177.578 28.8079C177.506 28.8079 177.437 28.7784 177.388 28.716C176.977 28.2105 176.546 27.7181 176.102 27.2552C176.007 27.1568 176.011 27.0025 176.108 26.9073C176.206 26.8121 176.36 26.8154 176.455 26.9139C176.905 27.3865 177.346 27.8888 177.764 28.4042C177.849 28.5092 177.836 28.6635 177.728 28.7488C177.682 28.7849 177.627 28.8046 177.574 28.8046L177.578 28.8079ZM142.572 28.4009C142.552 28.4009 142.532 28.4009 142.51 28.3943C142.379 28.3615 142.301 28.2269 142.333 28.0956C142.49 27.4719 142.611 26.8318 142.689 26.1917C142.706 26.0571 142.83 25.9619 142.96 25.9783C143.094 25.9947 143.189 26.1162 143.172 26.2508C143.091 26.9139 142.97 27.5737 142.807 28.217C142.777 28.3287 142.679 28.4009 142.568 28.4009H142.572ZM90.5263 27.4391C90.4088 27.4391 90.3043 27.3537 90.2847 27.2323C90.1803 26.579 90.1117 25.9094 90.0823 25.2463C90.0758 25.1117 90.1803 24.9968 90.3174 24.9903C90.4382 24.9837 90.5655 25.0887 90.5721 25.2266C90.5982 25.8733 90.6667 26.5232 90.7679 27.1568C90.7908 27.2914 90.6994 27.4161 90.5655 27.4391C90.5525 27.4391 90.5394 27.4424 90.5263 27.4424V27.4391ZM135.347 25.4695C135.275 25.4695 135.206 25.44 135.157 25.3809C135.072 25.2758 135.085 25.1216 135.19 25.0329C135.689 24.6226 136.228 24.2254 136.793 23.8578C136.904 23.7823 137.057 23.8151 137.132 23.93C137.207 24.0449 137.175 24.1959 137.061 24.2714C136.512 24.6292 135.986 25.0165 135.5 25.417C135.454 25.4531 135.399 25.4728 135.343 25.4728L135.347 25.4695ZM174.12 25.3316C174.065 25.3316 174.012 25.3152 173.967 25.2758C173.464 24.8655 172.942 24.4749 172.413 24.1138C172.302 24.0383 172.272 23.884 172.347 23.7724C172.422 23.6608 172.576 23.6313 172.687 23.7068C173.226 24.0744 173.761 24.4716 174.277 24.8918C174.381 24.9771 174.398 25.1314 174.313 25.2397C174.264 25.2988 174.195 25.3316 174.123 25.3316H174.12ZM143.022 23.5164C142.892 23.5164 142.784 23.4146 142.777 23.2833C142.745 22.6531 142.683 22.0031 142.585 21.3466C142.565 21.212 142.657 21.0873 142.79 21.0676C142.921 21.0479 143.048 21.1398 143.068 21.2744C143.166 21.944 143.231 22.6137 143.264 23.2571C143.27 23.3916 143.166 23.5065 143.032 23.5164C143.029 23.5164 143.025 23.5164 143.019 23.5164H143.022ZM139.503 22.8927C139.411 22.8927 139.32 22.8402 139.281 22.7483C139.225 22.6235 139.281 22.4791 139.401 22.4233C139.992 22.1508 140.606 21.8915 141.223 21.6551C141.351 21.6092 141.491 21.6716 141.54 21.7963C141.589 21.9243 141.524 22.0655 141.396 22.1147C140.789 22.3445 140.188 22.6005 139.607 22.8697C139.575 22.8861 139.539 22.8927 139.506 22.8927H139.503ZM170.006 22.6728C169.97 22.6728 169.931 22.6662 169.899 22.6465C169.327 22.3609 168.73 22.095 168.129 21.8554C168.002 21.8061 167.943 21.6617 167.992 21.537C168.041 21.409 168.185 21.3466 168.309 21.3991C168.926 21.6453 169.533 21.9145 170.117 22.2066C170.238 22.2657 170.287 22.4134 170.228 22.5349C170.186 22.6235 170.098 22.6728 170.01 22.6728H170.006ZM90.4415 22.5349C90.4415 22.5349 90.4219 22.5349 90.4121 22.5349C90.2782 22.5185 90.1835 22.397 90.1999 22.2591C90.2815 21.6026 90.3957 20.9428 90.5459 20.2962C90.5753 20.1649 90.7059 20.0828 90.8398 20.1123C90.9704 20.1419 91.052 20.2765 91.0226 20.4078C90.8757 21.038 90.7647 21.6814 90.6863 22.3215C90.67 22.4463 90.5655 22.5382 90.4447 22.5382L90.4415 22.5349ZM144.1 21.2186C143.992 21.2186 143.894 21.1463 143.865 21.038C143.829 20.9067 143.904 20.7721 144.034 20.736C144.651 20.5653 145.295 20.4045 145.951 20.2633C146.085 20.2338 146.212 20.3191 146.241 20.4504C146.271 20.5817 146.186 20.713 146.055 20.7426C145.412 20.8837 144.775 21.0413 144.168 21.2087C144.145 21.2153 144.126 21.2186 144.103 21.2186H144.1ZM165.429 20.9461C165.409 20.9461 165.387 20.9461 165.364 20.9363C164.753 20.7689 164.117 20.6211 163.473 20.4898C163.34 20.4636 163.255 20.3323 163.281 20.201C163.307 20.0664 163.437 19.981 163.568 20.0073C164.224 20.1386 164.871 20.2929 165.491 20.4603C165.622 20.4964 165.7 20.631 165.664 20.7623C165.635 20.8706 165.537 20.9428 165.429 20.9428V20.9461ZM148.896 20.2338C148.775 20.2338 148.67 20.1452 148.654 20.0204C148.635 19.8858 148.729 19.7611 148.863 19.7414C149.5 19.6528 150.156 19.574 150.819 19.5116C150.946 19.5051 151.073 19.597 151.086 19.7348C151.1 19.8694 151.002 19.9909 150.864 20.004C150.208 20.0664 149.558 20.1419 148.928 20.2305C148.915 20.2305 148.906 20.2305 148.892 20.2305L148.896 20.2338ZM160.623 20.0401C160.623 20.0401 160.604 20.0401 160.594 20.0401C159.967 19.9679 159.314 19.9121 158.654 19.8694C158.521 19.8596 158.416 19.7447 158.426 19.6068C158.436 19.4722 158.543 19.3606 158.687 19.377C159.353 19.4197 160.016 19.4788 160.653 19.551C160.786 19.5674 160.884 19.6889 160.868 19.8235C160.855 19.9482 160.747 20.0434 160.626 20.0434L160.623 20.0401ZM153.777 19.8136C153.646 19.8136 153.535 19.7086 153.532 19.5773C153.529 19.4427 153.633 19.3278 153.767 19.3212C154.005 19.3114 154.244 19.3048 154.485 19.3015C154.9 19.2917 155.318 19.2851 155.736 19.2851C155.869 19.2851 155.981 19.3967 155.981 19.5313C155.981 19.6659 155.869 19.7775 155.736 19.7775C155.321 19.7775 154.91 19.7841 154.498 19.7939C154.26 19.8005 154.025 19.8071 153.787 19.8136H153.777ZM142.226 18.6647C142.118 18.6647 142.02 18.5925 141.991 18.4809C141.827 17.8769 141.638 17.2499 141.422 16.6131C141.38 16.4851 141.449 16.3439 141.576 16.3012C141.703 16.2586 141.844 16.3275 141.886 16.4555C142.105 17.1022 142.297 17.7423 142.464 18.3529C142.5 18.4842 142.421 18.6188 142.291 18.6549C142.271 18.6614 142.248 18.6647 142.229 18.6647H142.226ZM91.6527 17.7751C91.6233 17.7751 91.594 17.7686 91.5646 17.7587C91.4372 17.7095 91.3752 17.565 91.4242 17.4403C91.6592 16.833 91.9302 16.2225 92.2273 15.6217C92.2861 15.5003 92.433 15.4511 92.5571 15.5101C92.6779 15.5692 92.7269 15.7169 92.6681 15.8417C92.3775 16.4293 92.1131 17.0267 91.8813 17.6208C91.8421 17.7193 91.7507 17.7784 91.6527 17.7784V17.7751ZM140.6 14.0231C140.505 14.0231 140.414 13.9673 140.374 13.8721C140.312 13.7211 140.247 13.5734 140.182 13.4224C139.989 12.976 139.787 12.5296 139.575 12.0864C139.516 11.9649 139.568 11.8172 139.689 11.7581C139.813 11.7023 139.957 11.7516 140.015 11.873C140.227 12.3227 140.433 12.7725 140.629 13.2255C140.694 13.3765 140.76 13.5275 140.825 13.6817C140.877 13.8065 140.818 13.9509 140.694 14.0034C140.662 14.0166 140.632 14.0231 140.6 14.0231ZM93.9251 13.4257C93.8794 13.4257 93.8304 13.4126 93.788 13.383C93.6769 13.3075 93.6443 13.1532 93.7227 13.0416C94.0883 12.4934 94.4801 11.9551 94.8915 11.4364C94.9764 11.3281 95.1298 11.315 95.2343 11.3971C95.3388 11.4824 95.3584 11.6367 95.2735 11.7417C94.8719 12.2472 94.4866 12.779 94.1275 13.3141C94.0818 13.3863 94.0034 13.4224 93.9251 13.4224V13.4257ZM97.0496 9.64744C96.9875 9.64744 96.9222 9.62446 96.8765 9.57522C96.7818 9.47674 96.7818 9.32246 96.8765 9.22727C97.3467 8.76442 97.8397 8.31471 98.3424 7.89125C98.4469 7.80262 98.6004 7.81904 98.6885 7.92408C98.7767 8.02912 98.7604 8.1834 98.6559 8.27203C98.1629 8.68564 97.6797 9.12551 97.2193 9.58179C97.1704 9.62774 97.1083 9.65072 97.0463 9.65072L97.0496 9.64744ZM138.396 9.63102C138.314 9.63102 138.233 9.58835 138.187 9.51285C137.838 8.94168 137.472 8.40005 137.1 7.90438C137.018 7.79606 137.041 7.64178 137.149 7.55971C137.256 7.47765 137.41 7.49734 137.492 7.60895C137.874 8.11775 138.246 8.66923 138.605 9.25681C138.677 9.3717 138.641 9.5227 138.523 9.59492C138.484 9.62118 138.438 9.63102 138.396 9.63102ZM100.866 6.57493C100.785 6.57493 100.706 6.53554 100.661 6.46333C100.589 6.34844 100.621 6.19744 100.736 6.12194L101.029 5.93483C101.487 5.64924 101.96 5.37351 102.437 5.1109C102.554 5.04525 102.704 5.0912 102.77 5.20938C102.835 5.32755 102.789 5.47855 102.672 5.5442C102.202 5.80024 101.738 6.0727 101.291 6.35172L101.003 6.53554C100.961 6.5618 100.915 6.57493 100.869 6.57493H100.866ZM135.324 5.81666C135.265 5.81666 135.206 5.79696 135.16 5.75429C134.677 5.31442 134.165 4.91723 133.642 4.57256C133.528 4.49706 133.499 4.34606 133.57 4.23117C133.646 4.11628 133.796 4.08673 133.91 4.15895C134.455 4.51675 134.984 4.93036 135.487 5.38664C135.588 5.47855 135.595 5.63283 135.503 5.73459C135.454 5.78711 135.389 5.81666 135.32 5.81666H135.324ZM105.205 4.3001C105.111 4.3001 105.019 4.2443 104.98 4.1491C104.928 4.02436 104.986 3.87993 105.111 3.82741C105.711 3.57465 106.332 3.3383 106.958 3.12493C107.086 3.08226 107.226 3.14791 107.269 3.27921C107.311 3.40724 107.246 3.54839 107.115 3.59106C106.501 3.80115 105.888 4.03421 105.3 4.28369C105.267 4.29682 105.238 4.30338 105.205 4.30338V4.3001ZM131.154 3.29563C131.125 3.29563 131.096 3.28906 131.07 3.27921C130.498 3.06585 129.878 2.87217 129.225 2.70476C129.094 2.67194 129.016 2.53735 129.049 2.40605C129.081 2.27474 129.212 2.19268 129.346 2.22879C130.015 2.39948 130.655 2.59972 131.243 2.81965C131.37 2.86889 131.435 3.01004 131.386 3.13478C131.35 3.23326 131.256 3.29563 131.158 3.29563H131.154ZM109.858 2.7737C109.747 2.7737 109.649 2.6982 109.619 2.58659C109.587 2.45529 109.668 2.3207 109.799 2.28787C110.429 2.13359 111.079 1.99244 111.725 1.87098C111.856 1.84801 111.986 1.93335 112.009 2.06794C112.035 2.20253 111.947 2.33055 111.813 2.35681C111.173 2.47826 110.533 2.61613 109.913 2.77041C109.894 2.7737 109.874 2.77698 109.854 2.77698L109.858 2.7737ZM126.401 2.15657C126.401 2.15657 126.378 2.15657 126.365 2.15657C125.967 2.10077 125.568 2.05153 125.17 2.00557C124.925 1.97603 124.677 1.94977 124.429 1.92679C124.295 1.91366 124.197 1.7922 124.21 1.65762C124.223 1.52303 124.337 1.42783 124.478 1.43768C124.726 1.46394 124.977 1.4902 125.225 1.51646C125.627 1.56242 126.032 1.61166 126.433 1.67075C126.567 1.69044 126.662 1.81518 126.642 1.94977C126.626 2.07122 126.522 2.16313 126.401 2.16313V2.15657ZM114.677 1.92679C114.553 1.92679 114.448 1.83488 114.435 1.70685C114.419 1.57227 114.517 1.45081 114.65 1.4344C115.29 1.36218 115.953 1.30638 116.613 1.26371C116.763 1.25714 116.864 1.3589 116.874 1.49349C116.884 1.62807 116.779 1.74625 116.645 1.75609C115.992 1.79877 115.339 1.85457 114.706 1.92351C114.696 1.92351 114.686 1.92351 114.68 1.92351L114.677 1.92679ZM121.523 1.7167C121.523 1.7167 121.517 1.7167 121.513 1.7167C120.86 1.69044 120.204 1.67403 119.564 1.67403C119.43 1.67403 119.319 1.56242 119.319 1.42783C119.319 1.29325 119.43 1.18164 119.564 1.18164C120.211 1.18164 120.873 1.19805 121.533 1.2276C121.667 1.23416 121.774 1.34905 121.768 1.48364C121.761 1.61494 121.654 1.71999 121.523 1.71999V1.7167Z" fill="#26DBBD"/>
<path d="M102.134 72.7389L92.4991 86.1614C92.4991 86.1614 84.2292 66.0719 83.4848 64.1615C82.7404 62.251 80.9218 61.2531 80.5105 58.2627C80.0958 55.2722 80.468 53.9001 79.1882 52.6133C77.9084 51.3265 75.6752 51.6581 75.0973 51.0771C74.5194 50.496 73.8567 50.0792 73.0306 50.5781C72.2046 51.0771 69.3936 55.2033 70.3045 57.4617C71.2121 59.7201 72.7009 61.4238 75.2214 62.5431C77.7419 63.6658 77.99 65.701 78.9009 68.1104C79.8118 70.5198 85.4437 96.019 87.4287 99.0094C89.4138 102 93.0247 101.888 94.9673 99.4788C96.9099 97.0694 110.051 80.709 110.051 80.709L102.14 72.7389H102.134Z" fill="url(#paint7_linear_2242_2239)"/>
<path d="M110.897 112.452C115.128 112.452 138.688 111.106 142.184 111.106C158.078 135.761 139.2 179.886 139.2 179.886L122.082 181.153L120.528 157.184L113.254 181.153L95.7773 178.616C95.7773 178.616 97.4228 134.215 110.9 112.449L110.897 112.452Z" fill="url(#paint8_linear_2242_2239)"/>
<path d="M143.407 79.0021C143.407 79.0021 151.683 101.58 151.683 103.152C151.683 104.724 149.329 133.841 148.546 134.626C146.982 134.626 140.416 137.35 140.024 138.424C139.633 139.497 140.442 140.416 140.442 140.416C138.748 141.516 134.601 144.424 135.209 145.822C135.467 146.417 136.005 146.364 136.182 146.433C136.26 146.463 136.299 146.469 136.299 146.469C136.299 146.469 135.179 148.59 137.21 148.304C137.419 149.509 138.356 149.378 139.113 149.036C139.868 148.695 140.73 148.015 140.73 148.015C140.73 149.141 141.458 149.745 142.969 148.488C144.481 147.231 147.165 145.212 148.441 144.165C149.718 143.118 152.062 137.931 152.872 136.017C153.678 134.104 158.997 112.757 159.934 109.343C160.871 105.929 161.586 104.527 160.645 101.274C159.708 98.0214 153.025 74.2456 153.025 74.2456L143.407 79.0054V79.0021Z" fill="url(#paint9_linear_2242_2239)"/>
<path d="M75.0387 49.0946L70.8303 59.937C70.2132 61.5257 71.1274 63.2983 72.7762 63.7087C74.1246 64.0435 75.5154 63.3377 76.0476 62.0444L80.8731 50.3091C80.8731 50.3091 76.5667 47.2793 75.0387 49.0946Z" fill="url(#paint10_linear_2242_2239)"/>
<path d="M54.788 21.7244L63.6913 30.1015C68.7486 34.8613 74.9388 38.2391 81.6644 39.9066L83.3263 40.3202C83.9858 43.849 83.0912 47.496 80.8743 50.3092L79.2125 49.8955C72.4869 48.2247 65.4445 48.3199 58.7646 50.1647L47.0078 53.4145L54.788 21.7244Z" fill="url(#paint11_linear_2242_2239)"/>
<path d="M47.8729 36.8209C45.7246 45.5723 45.3361 53.0041 47.0044 53.4177C48.6728 53.8313 51.7679 47.0725 53.9161 38.3211C56.0644 29.5697 56.4529 22.1379 54.7846 21.7243C53.1162 21.3107 50.0211 28.0696 47.8729 36.8209Z" fill="url(#paint12_linear_2242_2239)"/>
<mask id="mask0_2242_2239" style="mask-type:luminance" maskUnits="userSpaceOnUse" x="45" y="21" width="11" height="33">
<path d="M47.8729 36.8209C45.7246 45.5723 45.3361 53.0041 47.0044 53.4177C48.6728 53.8313 51.7679 47.0725 53.9161 38.3211C56.0644 29.5697 56.4529 22.1379 54.7846 21.7243C53.1162 21.3107 50.0211 28.0696 47.8729 36.8209Z" fill="white"/>
</mask>
<g mask="url(#mask0_2242_2239)">
<path d="M51.5151 41.4395L53.1834 41.8532C55.1064 42.3291 57.0523 41.1507 57.529 39.214C58.0024 37.2805 56.8303 35.3241 54.904 34.8448L53.2357 34.4312C51.3127 33.9552 49.3668 35.1337 48.8901 37.0704C48.4167 39.0039 49.5888 40.9603 51.5151 41.4395Z" fill="url(#paint13_radial_2242_2239)"/>
</g>
<path d="M79.7791 53.4178C78.9923 52.003 76.6514 51.0051 76.0147 51.2283C75.378 51.4515 74.0297 54.6914 75.1071 55.1904C76.1812 55.6893 76.6514 53.5852 76.9811 53.5852C77.3109 53.5852 76.9027 57.173 77.7581 58.0331C77.7581 57.8919 79.7791 53.421 79.7791 53.421V53.4178Z" fill="url(#paint14_linear_2242_2239)"/>
<path d="M74.431 50.5454C75.1983 50.9886 74.4735 54.1891 73.8956 55.8238C73.3177 57.4585 72.064 59.973 71.1172 59.0769L74.4343 50.5454H74.431Z" fill="url(#paint15_linear_2242_2239)"/>
<path d="M113.578 26.0704C112.909 27.1438 111.91 28.0071 111.388 29.1593C110.385 31.3717 111.365 34.0667 110.516 36.3416C109.847 38.1339 108.162 39.3484 107.264 41.039C105.815 43.7537 106.637 47.1052 106.04 50.1285C105.224 54.2514 101.864 57.4092 100.542 61.3976C100.356 61.9622 100.209 62.5596 100.287 63.1505C100.366 63.7545 100.672 64.2994 100.973 64.8246C101.56 65.8619 102.187 66.9386 103.193 67.5721C103.927 68.035 104.799 68.2188 105.655 68.3435C109.788 68.9443 114.085 68.3501 117.904 66.6497C119.276 66.0392 120.598 65.2809 121.718 64.2764C122.893 63.2194 123.817 61.9097 124.624 60.5474C127.859 55.0753 129.25 48.6874 129.844 42.3487C130.086 39.7522 130.203 37.1228 129.785 34.5526C129.109 30.4034 122.354 12.4246 116.37 19.7809C114.875 21.6192 114.813 24.1008 113.585 26.0769L113.578 26.0704Z" fill="url(#paint16_linear_2242_2239)"/>
<path d="M133.899 40.3596C131.427 44.3512 133.256 57.4685 133.256 57.4685C133.256 57.4685 115.364 72.1876 121.153 55.8567C121.825 53.0271 122.423 45.5658 122.423 45.5658L133.899 40.3596Z" fill="url(#paint17_linear_2242_2239)"/>
<path d="M116.384 25.4107C113.635 29.1561 111.51 46.9904 115.434 48.7663C118.396 50.1089 128.647 46.6031 133.564 39.6637C138.481 32.7243 140.192 31.4671 139.327 26.7828C138.465 22.0985 132.813 15.8616 126.946 16.5543C121.079 17.2469 120.991 19.1245 116.381 25.4074L116.384 25.4107Z" fill="url(#paint18_linear_2242_2239)"/>
<path d="M114.716 41.1113C114.344 41.1113 114.047 41.4297 114.063 41.8039C114.112 42.8609 114.354 43.5076 115.451 43.7997C116.776 44.151 119.342 42.1355 118.562 41.3542C118.164 40.9537 116.065 41.1113 114.713 41.1146L114.716 41.1113Z" fill="white"/>
<path d="M120.807 57.1205C118.159 57.9083 113.369 59.7334 109.706 61.9098C106.043 64.0862 102.595 70.8089 101.707 73.0378L107.884 78.5361L108.24 80.1052C108.24 92.556 111.792 95.9371 110.875 112.839L142.893 111.831C141.228 104.469 143.697 83.5059 143.697 83.5059L145.28 85.6921L154.709 75.5785C154.709 75.5785 151.728 65.1267 148.901 62.284C146.073 59.4413 132.831 54.9868 132.831 54.9868C132.831 54.9868 127.803 61.1712 122.935 61.1712C119.252 61.1712 120.803 57.1205 120.803 57.1205H120.807Z" fill="url(#paint19_linear_2242_2239)"/>
<path d="M153.594 75.4241C146.545 53.4176 127.759 66.4495 130.061 53.4176C130.204 52.6036 129.839 51.0739 129.427 50.355C126.136 44.5743 131.083 44.384 131.83 38.8823C132.046 35.8328 130.71 37.0047 129.639 34.1653C128.833 31.6344 125.258 32.6487 122.274 31.5884C101.065 24.0549 126.502 8.43304 137.753 19.41C142.405 23.9466 140.332 26.1525 144.962 30.8072C149.03 34.8973 149.121 38.2586 150.538 43.5141C151.808 48.2246 158.867 50.1088 160.075 55.6399C160.623 61.716 159.046 62.3102 161.981 69.696C164.414 75.8147 159 83.148 155.517 83.0955C154.694 81.5133 154.074 77.3083 153.594 75.4241Z" fill="url(#paint20_linear_2242_2239)"/>
<mask id="mask1_2242_2239" style="mask-type:luminance" maskUnits="userSpaceOnUse" x="188" y="137" width="19" height="4">
<path d="M205.773 137.091H188.44C188.216 137.091 188.035 137.273 188.035 137.498V140.344C188.035 140.568 188.216 140.751 188.44 140.751H205.773C205.997 140.751 206.178 140.568 206.178 140.344V137.498C206.178 137.273 205.997 137.091 205.773 137.091Z" fill="white"/>
</mask>
<g mask="url(#mask1_2242_2239)">
<path d="M206.178 137.091H188.035V140.751H206.178V137.091Z" fill="url(#paint21_linear_2242_2239)"/>
<path style="mix-blend-mode:soft-light" d="M206.178 137.091H188.035V137.826H206.178V137.091Z" fill="url(#paint22_linear_2242_2239)"/>
<g style="mix-blend-mode:multiply">
<path d="M206.178 140.015H188.035V140.751H206.178V140.015Z" fill="#F2E4CC"/>
</g>
</g>
<mask id="mask2_2242_2239" style="mask-type:luminance" maskUnits="userSpaceOnUse" x="188" y="133" width="19" height="5">
<path d="M205.773 133.43H188.44C188.216 133.43 188.035 133.613 188.035 133.837V136.683C188.035 136.908 188.216 137.091 188.44 137.091H205.773C205.997 137.091 206.178 136.908 206.178 136.683V133.837C206.178 133.613 205.997 133.43 205.773 133.43Z" fill="white"/>
</mask>
<g mask="url(#mask2_2242_2239)">
<path d="M206.178 133.43H188.035V137.091H206.178V133.43Z" fill="url(#paint23_linear_2242_2239)"/>
<path style="mix-blend-mode:soft-light" d="M206.178 133.43H188.035V134.166H206.178V133.43Z" fill="url(#paint24_linear_2242_2239)"/>
<g style="mix-blend-mode:multiply">
<path d="M206.178 136.355H188.035V137.091H206.178V136.355Z" fill="#F2E4CC"/>
</g>
</g>
<mask id="mask3_2242_2239" style="mask-type:luminance" maskUnits="userSpaceOnUse" x="188" y="129" width="19" height="5">
<path d="M205.773 129.771H188.44C188.216 129.771 188.035 129.953 188.035 130.178V133.024C188.035 133.248 188.216 133.431 188.44 133.431H205.773C205.997 133.431 206.178 133.248 206.178 133.024V130.178C206.178 129.953 205.997 129.771 205.773 129.771Z" fill="white"/>
</mask>
<g mask="url(#mask3_2242_2239)">
<path d="M206.178 129.771H188.035V133.431H206.178V129.771Z" fill="url(#paint25_linear_2242_2239)"/>
<path style="mix-blend-mode:soft-light" d="M206.178 129.771H188.035V130.506H206.178V129.771Z" fill="url(#paint26_linear_2242_2239)"/>
<g style="mix-blend-mode:multiply">
<path d="M206.178 132.695H188.035V133.431H206.178V132.695Z" fill="#F2E4CC"/>
</g>
</g>
<mask id="mask4_2242_2239" style="mask-type:luminance" maskUnits="userSpaceOnUse" x="188" y="126" width="19" height="4">
<path d="M188.44 126.107H205.77C205.995 126.107 206.175 126.291 206.175 126.514V129.36C206.175 129.586 205.992 129.767 205.77 129.767H188.44C188.215 129.767 188.035 129.583 188.035 129.36V126.514C188.035 126.287 188.218 126.107 188.44 126.107Z" fill="white"/>
</mask>
<g mask="url(#mask4_2242_2239)">
<path d="M206.178 126.107H188.035V129.767H206.178V126.107Z" fill="url(#paint27_linear_2242_2239)"/>
<path style="mix-blend-mode:soft-light" d="M206.178 126.107H188.035V126.842H206.178V126.107Z" fill="url(#paint28_linear_2242_2239)"/>
<g style="mix-blend-mode:multiply">
<path d="M206.178 129.032H188.035V129.767H206.178V129.032Z" fill="#F2E4CC"/>
</g>
</g>
<mask id="mask5_2242_2239" style="mask-type:luminance" maskUnits="userSpaceOnUse" x="188" y="122" width="19" height="5">
<path d="M206.281 122.447H188.948C188.724 122.447 188.543 122.629 188.543 122.854V125.7C188.543 125.925 188.724 126.107 188.948 126.107H206.281C206.505 126.107 206.686 125.925 206.686 125.7V122.854C206.686 122.629 206.505 122.447 206.281 122.447Z" fill="white"/>
</mask>
<g mask="url(#mask5_2242_2239)">
<path d="M206.686 122.447H188.543V126.107H206.686V122.447Z" fill="url(#paint29_linear_2242_2239)"/>
<path style="mix-blend-mode:soft-light" d="M206.686 122.447H188.543V123.182H206.686V122.447Z" fill="url(#paint30_linear_2242_2239)"/>
<g style="mix-blend-mode:multiply">
<path d="M206.686 125.372H188.543V126.107H206.686V125.372Z" fill="#F2E4CC"/>
</g>
</g>
<mask id="mask6_2242_2239" style="mask-type:luminance" maskUnits="userSpaceOnUse" x="187" y="118" width="19" height="5">
<path d="M187.706 118.787H205.036C205.261 118.787 205.44 118.971 205.44 119.194V122.04C205.44 122.266 205.258 122.447 205.036 122.447H187.706C187.48 122.447 187.301 122.263 187.301 122.04V119.194C187.301 118.967 187.484 118.787 187.706 118.787Z" fill="white"/>
</mask>
<g mask="url(#mask6_2242_2239)">
<path d="M205.444 118.787H187.301V122.447H205.444V118.787Z" fill="url(#paint31_linear_2242_2239)"/>
<path style="mix-blend-mode:soft-light" d="M205.444 118.787H187.301V119.522H205.444V118.787Z" fill="url(#paint32_linear_2242_2239)"/>
<g style="mix-blend-mode:multiply">
<path d="M205.444 121.712H187.301V122.447H205.444V121.712Z" fill="#F2E4CC"/>
</g>
</g>
<mask id="mask7_2242_2239" style="mask-type:luminance" maskUnits="userSpaceOnUse" x="167" y="137" width="19" height="4">
<path d="M184.883 137.091H167.549C167.326 137.091 167.145 137.273 167.145 137.498V140.344C167.145 140.568 167.326 140.751 167.549 140.751H184.883C185.106 140.751 185.287 140.568 185.287 140.344V137.498C185.287 137.273 185.106 137.091 184.883 137.091Z" fill="white"/>
</mask>
<g mask="url(#mask7_2242_2239)">
<path d="M185.287 137.091H167.145V140.751H185.287V137.091Z" fill="url(#paint33_linear_2242_2239)"/>
<path style="mix-blend-mode:soft-light" d="M185.287 137.091H167.145V137.826H185.287V137.091Z" fill="url(#paint34_linear_2242_2239)"/>
<g style="mix-blend-mode:multiply">
<path d="M185.287 140.015H167.145V140.751H185.287V140.015Z" fill="#F2E4CC"/>
</g>
</g>
<mask id="mask8_2242_2239" style="mask-type:luminance" maskUnits="userSpaceOnUse" x="167" y="133" width="19" height="5">
<path d="M184.883 133.431H167.549C167.326 133.431 167.145 133.613 167.145 133.838V136.684C167.145 136.909 167.326 137.091 167.549 137.091H184.883C185.106 137.091 185.287 136.909 185.287 136.684V133.838C185.287 133.613 185.106 133.431 184.883 133.431Z" fill="white"/>
</mask>
<g mask="url(#mask8_2242_2239)">
<path d="M185.287 133.431H167.145V137.091H185.287V133.431Z" fill="url(#paint35_linear_2242_2239)"/>
<path style="mix-blend-mode:soft-light" d="M185.287 133.431H167.145V134.166H185.287V133.431Z" fill="url(#paint36_linear_2242_2239)"/>
<g style="mix-blend-mode:multiply">
<path d="M185.287 136.355H167.145V137.091H185.287V136.355Z" fill="#F2E4CC"/>
</g>
</g>
<mask id="mask9_2242_2239" style="mask-type:luminance" maskUnits="userSpaceOnUse" x="167" y="129" width="19" height="5">
<path d="M184.883 129.771H167.549C167.326 129.771 167.145 129.953 167.145 130.178V133.024C167.145 133.248 167.326 133.431 167.549 133.431H184.883C185.106 133.431 185.287 133.248 185.287 133.024V130.178C185.287 129.953 185.106 129.771 184.883 129.771Z" fill="white"/>
</mask>
<g mask="url(#mask9_2242_2239)">
<path d="M185.287 129.771H167.145V133.431H185.287V129.771Z" fill="url(#paint37_linear_2242_2239)"/>
<path style="mix-blend-mode:soft-light" d="M185.287 129.771H167.145V130.506H185.287V129.771Z" fill="url(#paint38_linear_2242_2239)"/>
<g style="mix-blend-mode:multiply">
<path d="M185.287 132.695H167.145V133.431H185.287V132.695Z" fill="#F2E4CC"/>
</g>
</g>
<mask id="mask10_2242_2239" style="mask-type:luminance" maskUnits="userSpaceOnUse" x="89" y="137" width="19" height="4">
<path d="M107.558 137.091H90.2252C90.0016 137.091 89.8203 137.273 89.8203 137.498V140.344C89.8203 140.569 90.0016 140.751 90.2252 140.751H107.558C107.782 140.751 107.963 140.569 107.963 140.344V137.498C107.963 137.273 107.782 137.091 107.558 137.091Z" fill="white"/>
</mask>
<g mask="url(#mask10_2242_2239)">
<path d="M107.963 137.091H89.8203V140.751H107.963V137.091Z" fill="url(#paint39_linear_2242_2239)"/>
<path style="mix-blend-mode:soft-light" d="M107.963 137.091H89.8203V137.826H107.963V137.091Z" fill="url(#paint40_linear_2242_2239)"/>
<g style="mix-blend-mode:multiply">
<path d="M107.963 140.016H89.8203V140.751H107.963V140.016Z" fill="#F2E4CC"/>
</g>
</g>
<mask id="mask11_2242_2239" style="mask-type:luminance" maskUnits="userSpaceOnUse" x="88" y="133" width="19" height="5">
<path d="M105.961 133.431H88.6275C88.4039 133.431 88.2227 133.613 88.2227 133.838V136.684C88.2227 136.909 88.4039 137.091 88.6275 137.091H105.961C106.184 137.091 106.366 136.909 106.366 136.684V133.838C106.366 133.613 106.184 133.431 105.961 133.431Z" fill="white"/>
</mask>
<g mask="url(#mask11_2242_2239)">
<path d="M106.366 133.431H88.2227V137.091H106.366V133.431Z" fill="url(#paint41_linear_2242_2239)"/>
<path style="mix-blend-mode:soft-light" d="M106.366 133.431H88.2227V134.166H106.366V133.431Z" fill="url(#paint42_linear_2242_2239)"/>
<g style="mix-blend-mode:multiply">
<path d="M106.366 136.355H88.2227V137.091H106.366V136.355Z" fill="#F2E4CC"/>
</g>
</g>
<mask id="mask12_2242_2239" style="mask-type:luminance" maskUnits="userSpaceOnUse" x="74" y="137" width="20" height="4">
<path d="M92.6131 137.091H75.2798C75.0563 137.091 74.875 137.273 74.875 137.498V140.344C74.875 140.569 75.0563 140.751 75.2798 140.751H92.6131C92.8366 140.751 93.0179 140.569 93.0179 140.344V137.498C93.0179 137.273 92.8366 137.091 92.6131 137.091Z" fill="white"/>
</mask>
<g mask="url(#mask12_2242_2239)">
<path d="M93.0179 137.091H74.875V140.751H93.0179V137.091Z" fill="url(#paint43_linear_2242_2239)"/>
<path style="mix-blend-mode:soft-light" d="M93.0179 137.091H74.875V137.826H93.0179V137.091Z" fill="url(#paint44_linear_2242_2239)"/>
<g style="mix-blend-mode:multiply">
<path d="M93.0179 140.016H74.875V140.751H93.0179V140.016Z" fill="#F2E4CC"/>
</g>
</g>
<mask id="mask13_2242_2239" style="mask-type:luminance" maskUnits="userSpaceOnUse" x="61" y="137" width="19" height="4">
<path d="M79.5818 137.091H62.2486C62.025 137.091 61.8438 137.273 61.8438 137.498V140.344C61.8438 140.569 62.025 140.751 62.2486 140.751H79.5818C79.8054 140.751 79.9866 140.569 79.9866 140.344V137.498C79.9866 137.273 79.8054 137.091 79.5818 137.091Z" fill="white"/>
</mask>
<g mask="url(#mask13_2242_2239)">
<path d="M79.9866 137.091H61.8438V140.751H79.9866V137.091Z" fill="url(#paint45_linear_2242_2239)"/>
<path style="mix-blend-mode:soft-light" d="M79.9866 137.091H61.8438V137.826H79.9866V137.091Z" fill="url(#paint46_linear_2242_2239)"/>
<g style="mix-blend-mode:multiply">
<path d="M79.9866 140.016H61.8438V140.751H79.9866V140.016Z" fill="#F2E4CC"/>
</g>
</g>
<mask id="mask14_2242_2239" style="mask-type:luminance" maskUnits="userSpaceOnUse" x="74" y="133" width="20" height="5">
<path d="M92.6131 133.431H75.2798C75.0563 133.431 74.875 133.613 74.875 133.838V136.684C74.875 136.909 75.0563 137.091 75.2798 137.091H92.6131C92.8366 137.091 93.0179 136.909 93.0179 136.684V133.838C93.0179 133.613 92.8366 133.431 92.6131 133.431Z" fill="white"/>
</mask>
<g mask="url(#mask14_2242_2239)">
<path d="M93.0179 133.431H74.875V137.091H93.0179V133.431Z" fill="url(#paint47_linear_2242_2239)"/>
<path style="mix-blend-mode:soft-light" d="M93.0179 133.431H74.875V134.166H93.0179V133.431Z" fill="url(#paint48_linear_2242_2239)"/>
<g style="mix-blend-mode:multiply">
<path d="M93.0179 136.355H74.875V137.091H93.0179V136.355Z" fill="#F2E4CC"/>
</g>
</g>
<mask id="mask15_2242_2239" style="mask-type:luminance" maskUnits="userSpaceOnUse" x="74" y="129" width="20" height="5">
<path d="M92.6131 129.771H75.2798C75.0563 129.771 74.875 129.953 74.875 130.178V133.024C74.875 133.248 75.0563 133.431 75.2798 133.431H92.6131C92.8366 133.431 93.0179 133.248 93.0179 133.024V130.178C93.0179 129.953 92.8366 129.771 92.6131 129.771Z" fill="white"/>
</mask>
<g mask="url(#mask15_2242_2239)">
<path d="M93.0179 129.771H74.875V133.431H93.0179V129.771Z" fill="url(#paint49_linear_2242_2239)"/>
<path style="mix-blend-mode:soft-light" d="M93.0179 129.771H74.875V130.506H93.0179V129.771Z" fill="url(#paint50_linear_2242_2239)"/>
<g style="mix-blend-mode:multiply">
<path d="M93.0179 132.695H74.875V133.431H93.0179V132.695Z" fill="#F2E4CC"/>
</g>
</g>
<mask id="mask16_2242_2239" style="mask-type:luminance" maskUnits="userSpaceOnUse" x="73" y="126" width="20" height="4">
<path d="M74.3697 126.107H91.6996C91.9249 126.107 92.1045 126.291 92.1045 126.514V129.36C92.1045 129.587 91.9216 129.767 91.6996 129.767H74.3697C74.1444 129.767 73.9648 129.583 73.9648 129.36V126.514C73.9648 126.288 74.1477 126.107 74.3697 126.107Z" fill="white"/>
</mask>
<g mask="url(#mask16_2242_2239)">
<path d="M92.1038 126.107H73.9609V129.767H92.1038V126.107Z" fill="url(#paint51_linear_2242_2239)"/>
<path style="mix-blend-mode:soft-light" d="M92.1038 126.107H73.9609V126.842H92.1038V126.107Z" fill="url(#paint52_linear_2242_2239)"/>
<g style="mix-blend-mode:multiply">
<path d="M92.1038 129.032H73.9609V129.767H92.1038V129.032Z" fill="#F2E4CC"/>
</g>
</g>
<path d="M202.014 99.958C206.268 99.958 209.716 96.491 209.716 92.2143C209.716 87.9377 206.268 84.4707 202.014 84.4707C197.761 84.4707 194.312 87.9377 194.312 92.2143C194.312 96.491 197.761 99.958 202.014 99.958Z" fill="url(#paint53_linear_2242_2239)"/>
<path d="M206.438 96.6609C208.881 94.2048 208.881 90.2225 206.438 87.7663C203.995 85.3102 200.034 85.3101 197.591 87.7663C195.148 90.2225 195.148 94.2048 197.591 96.6609C200.034 99.1171 203.995 99.1171 206.438 96.6609Z" fill="url(#paint54_linear_2242_2239)"/>
<path d="M202.015 88.866L203.096 91.0719L205.515 91.4231L203.765 93.1399L204.18 95.5624L202.015 94.4201L199.85 95.5624L200.262 93.1399L198.512 91.4231L200.931 91.0719L202.015 88.866Z" fill="url(#paint55_linear_2242_2239)"/>
<path d="M54.403 112.56C60.4742 112.56 65.3958 107.611 65.3958 101.507C65.3958 95.4032 60.4742 90.4548 54.403 90.4548C48.3318 90.4548 43.4102 95.4032 43.4102 101.507C43.4102 107.611 48.3318 112.56 54.403 112.56Z" fill="url(#paint56_linear_2242_2239)"/>
<path d="M54.403 110.8C59.5077 110.8 63.6459 106.64 63.6459 101.507C63.6459 96.375 59.5077 92.2144 54.403 92.2144C49.2983 92.2144 45.1602 96.375 45.1602 101.507C45.1602 106.64 49.2983 110.8 54.403 110.8Z" fill="url(#paint57_linear_2242_2239)"/>
<path d="M57.32 103.54C57.32 104.788 56.408 105.868 54.524 106.096V107.44H53.324V106.132C52.136 106.06 50.996 105.688 50.336 105.172L50.996 103.708C51.596 104.152 52.46 104.476 53.324 104.56V102.556C51.992 102.232 50.504 101.788 50.504 100.072C50.504 98.7998 51.428 97.7078 53.324 97.4918V96.1598H54.524V97.4678C55.424 97.5398 56.3 97.7798 56.96 98.1998L56.36 99.6758C55.748 99.3278 55.124 99.1238 54.524 99.0518V101.092C55.856 101.404 57.32 101.848 57.32 103.54ZM52.436 99.9758C52.436 100.396 52.796 100.624 53.324 100.792V99.0878C52.688 99.2318 52.436 99.5798 52.436 99.9758ZM54.524 104.512C55.124 104.38 55.388 104.068 55.388 103.684C55.388 103.264 55.04 103.036 54.524 102.856V104.512Z" fill="#FFC431"/>
<path d="M178.364 65.4482C184.435 65.4482 189.357 60.4999 189.357 54.3957C189.357 48.2916 184.435 43.3433 178.364 43.3433C172.293 43.3433 167.371 48.2916 167.371 54.3957C167.371 60.4999 172.293 65.4482 178.364 65.4482Z" fill="url(#paint58_linear_2242_2239)"/>
<path d="M178.364 63.6888C183.469 63.6888 187.607 59.5282 187.607 54.3958C187.607 49.2634 183.469 45.1028 178.364 45.1028C173.259 45.1028 169.121 49.2634 169.121 54.3958C169.121 59.5282 173.259 63.6888 178.364 63.6888Z" fill="url(#paint59_linear_2242_2239)"/>
<path d="M181.088 51.596H179.384C179.576 51.788 179.72 52.016 179.828 52.256H181.088V53.252H180.068V53.408C180.068 54.644 179.396 55.532 178.244 55.964L180.236 59H178.148L176.36 56.252H173.996V54.692H176.228C177.56 54.692 178.1 54.056 178.112 53.252H173.504V52.256H177.836C177.536 51.836 176.984 51.584 176.156 51.596H173.504V50.6H181.088V51.596Z" fill="#FFC431"/>
<path d="M44.8167 29.1329L39.7627 23.1422H17.9174C15.2239 23.1422 13.043 20.9494 13.043 18.2413V8.0784C13.043 5.37026 15.2239 3.17749 17.9174 3.17749H39.9423C42.6358 3.17749 44.8167 5.37026 44.8167 8.0784V29.1329Z" fill="url(#paint60_linear_2242_2239)"/>
<g style="mix-blend-mode:screen">
<path d="M38.9194 7.90758H18.9416C18.5368 7.90758 18.207 7.57604 18.207 7.169C18.207 6.76196 18.5368 6.43042 18.9416 6.43042H38.9194C39.3242 6.43042 39.654 6.76196 39.654 7.169C39.654 7.57604 39.3242 7.90758 38.9194 7.90758Z" fill="#5B586B"/>
</g>
<g style="mix-blend-mode:screen">
<path d="M38.9194 11.9615H18.9416C18.5368 11.9615 18.207 11.63 18.207 11.223C18.207 10.8159 18.5368 10.4844 18.9416 10.4844H38.9194C39.3242 10.4844 39.654 10.8159 39.654 11.223C39.654 11.63 39.3242 11.9615 38.9194 11.9615Z" fill="#5B586B"/>
</g>
<g style="mix-blend-mode:screen">
<path d="M38.9194 16.0155H18.9416C18.5368 16.0155 18.207 15.684 18.207 15.2769C18.207 14.8699 18.5368 14.5383 18.9416 14.5383H38.9194C39.3242 14.5383 39.654 14.8699 39.654 15.2769C39.654 15.684 39.3242 16.0155 38.9194 16.0155Z" fill="#5B586B"/>
</g>
<g style="mix-blend-mode:screen">
<path d="M38.9194 20.0697H18.9416C18.5368 20.0697 18.207 19.7382 18.207 19.3311C18.207 18.9241 18.5368 18.5925 18.9416 18.5925H38.9194C39.3242 18.5925 39.654 18.9241 39.654 19.3311C39.654 19.7382 39.3242 20.0697 38.9194 20.0697Z" fill="#5B586B"/>
</g>
<path d="M100.89 36.7057H94.3959L93.0051 39.125L91.6143 36.7057H85.1237C83.9124 36.7057 82.9297 35.7176 82.9297 34.4998V25.8502C82.9297 24.6323 83.9124 23.6443 85.1237 23.6443H100.893C102.104 23.6443 103.087 24.6323 103.087 25.8502V34.4998C103.087 35.7176 102.104 36.7057 100.893 36.7057H100.89Z" fill="url(#paint61_linear_2242_2239)"/>
<path d="M93.0079 27.3439C90.5658 24.8885 87.5654 26.6808 88.3555 29.4677C89.1489 32.2546 93.0079 34.1126 93.0079 34.1126C93.0079 34.1126 96.867 32.2546 97.6604 29.4677C98.4538 26.6808 95.4501 24.8885 93.0079 27.3439Z" fill="url(#paint62_linear_2242_2239)"/>
</g>
<defs>
<linearGradient id="paint0_linear_2242_2239" x1="34.8574" y1="64.6044" x2="46.4697" y2="107.861" gradientUnits="userSpaceOnUse">
<stop stop-color="#016E5B"/>
<stop offset="1" stop-color="#21BDA3"/>
</linearGradient>
<linearGradient id="paint1_linear_2242_2239" x1="17.9111" y1="88.7185" x2="40.7256" y2="137.564" gradientUnits="userSpaceOnUse">
<stop stop-color="#22C1A6"/>
<stop offset="1" stop-color="#006E5A"/>
</linearGradient>
<linearGradient id="paint2_linear_2242_2239" x1="231.553" y1="62.497" x2="199.458" y2="132.114" gradientUnits="userSpaceOnUse">
<stop stop-color="#22C1A6"/>
<stop offset="1" stop-color="#077B67"/>
</linearGradient>
<linearGradient id="paint3_linear_2242_2239" x1="262.567" y1="80.6793" x2="205.789" y2="137.663" gradientUnits="userSpaceOnUse">
<stop stop-color="#1EB79D"/>
<stop offset="1" stop-color="#016E5B"/>
</linearGradient>
<linearGradient id="paint4_linear_2242_2239" x1="153.793" y1="10.3828" x2="99.0409" y2="162.29" gradientUnits="userSpaceOnUse">
<stop stop-color="#004A3D"/>
<stop offset="1" stop-color="#008A72"/>
</linearGradient>
<linearGradient id="paint5_linear_2242_2239" x1="152.639" y1="13.6194" x2="100.221" y2="159.055" gradientUnits="userSpaceOnUse">
<stop stop-color="#02705D"/>
<stop offset="1" stop-color="#1FB89E"/>
</linearGradient>
<linearGradient id="paint6_linear_2242_2239" x1="126.699" y1="141.873" x2="126.699" y2="148.833" gradientUnits="userSpaceOnUse">
<stop stop-color="#015445"/>
<stop offset="1" stop-color="#11947D"/>
</linearGradient>
<linearGradient id="paint7_linear_2242_2239" x1="107.07" y1="61.3319" x2="84.2133" y2="74.9277" gradientUnits="userSpaceOnUse">
<stop stop-color="#FFC085"/>
<stop offset="1" stop-color="#FA976E"/>
</linearGradient>
<linearGradient id="paint8_linear_2242_2239" x1="122.161" y1="114.704" x2="122.161" y2="143.991" gradientUnits="userSpaceOnUse">
<stop stop-color="#FAAD1E"/>
<stop offset="1" stop-color="#F2830B"/>
</linearGradient>
<linearGradient id="paint9_linear_2242_2239" x1="135.15" y1="111.756" x2="161.086" y2="111.756" gradientUnits="userSpaceOnUse">
<stop stop-color="#FFC085"/>
<stop offset="1" stop-color="#FA976E"/>
</linearGradient>
<linearGradient id="paint10_linear_2242_2239" x1="77.9915" y1="57.2295" x2="73.4526" y2="55.6435" gradientUnits="userSpaceOnUse">
<stop stop-color="#067B67"/>
<stop offset="1" stop-color="#15A089"/>
</linearGradient>
<linearGradient id="paint11_linear_2242_2239" x1="69.36" y1="32.9084" x2="62.0723" y2="51.7762" gradientUnits="userSpaceOnUse">
<stop stop-color="#F59513"/>
<stop offset="0.37" stop-color="#FAAD1E"/>
<stop offset="1" stop-color="#F2830B"/>
</linearGradient>
<linearGradient id="paint12_linear_2242_2239" x1="47.5625" y1="36.7853" x2="53.776" y2="38.3101" gradientUnits="userSpaceOnUse">
<stop stop-color="#E6971C"/>
<stop offset="1" stop-color="#DE6D0A"/>
</linearGradient>
<radialGradient id="paint13_radial_2242_2239" cx="0" cy="0" r="1" gradientUnits="userSpaceOnUse" gradientTransform="translate(50.1466 37.8147) rotate(-166.068) scale(5.24502 5.27019)">
<stop stop-color="#FFD042"/>
<stop offset="1" stop-color="#F2830B"/>
</radialGradient>
<linearGradient id="paint14_linear_2242_2239" x1="88.493" y1="47.647" x2="71.307" y2="57.8691" gradientUnits="userSpaceOnUse">
<stop stop-color="#FFC085"/>
<stop offset="1" stop-color="#FA976E"/>
</linearGradient>
<linearGradient id="paint15_linear_2242_2239" x1="87.6995" y1="46.1139" x2="70.425" y2="56.3881" gradientUnits="userSpaceOnUse">
<stop stop-color="#FFC085"/>
<stop offset="1" stop-color="#FA976E"/>
</linearGradient>
<linearGradient id="paint16_linear_2242_2239" x1="100.261" y1="43.2974" x2="130.06" y2="43.2974" gradientUnits="userSpaceOnUse">
<stop stop-color="#263681"/>
<stop offset="1" stop-color="#1A1248"/>
</linearGradient>
<linearGradient id="paint17_linear_2242_2239" x1="133.899" y1="51.957" x2="120" y2="51.957" gradientUnits="userSpaceOnUse">
<stop stop-color="#FFC085"/>
<stop offset="1" stop-color="#FA976E"/>
</linearGradient>
<linearGradient id="paint18_linear_2242_2239" x1="119.901" y1="17.6671" x2="130.142" y2="46.0853" gradientUnits="userSpaceOnUse">
<stop stop-color="#FFC085"/>
<stop offset="1" stop-color="#FA976E"/>
</linearGradient>
<linearGradient id="paint19_linear_2242_2239" x1="130.036" y1="49.8266" x2="125.36" y2="111.828" gradientUnits="userSpaceOnUse">
<stop stop-color="#89DFD0"/>
<stop offset="1" stop-color="#B3F5EA"/>
</linearGradient>
<linearGradient id="paint20_linear_2242_2239" x1="114.095" y1="49.3571" x2="162.592" y2="49.3571" gradientUnits="userSpaceOnUse">
<stop stop-color="#263681"/>
<stop offset="1" stop-color="#1A1248"/>
</linearGradient>
<linearGradient id="paint21_linear_2242_2239" x1="195.14" y1="134.53" x2="199.106" y2="143.298" gradientUnits="userSpaceOnUse">
<stop stop-color="#F59513"/>
<stop offset="0.37" stop-color="#FAAD1E"/>
<stop offset="1" stop-color="#F2830B"/>
</linearGradient>
<linearGradient id="paint22_linear_2242_2239" x1="195.626" y1="134.149" x2="198.614" y2="140.755" gradientUnits="userSpaceOnUse">
<stop stop-color="#F59513"/>
<stop offset="0.37" stop-color="#FAC667"/>
<stop offset="1" stop-color="#F2830B"/>
</linearGradient>
<linearGradient id="paint23_linear_2242_2239" x1="195.14" y1="130.87" x2="199.106" y2="139.635" gradientUnits="userSpaceOnUse">
<stop stop-color="#F59513"/>
<stop offset="0.37" stop-color="#FAAD1E"/>
<stop offset="1" stop-color="#F2830B"/>
</linearGradient>
<linearGradient id="paint24_linear_2242_2239" x1="0.00136269" y1="130.489" x2="198.59" y2="137.036" gradientUnits="userSpaceOnUse">
<stop stop-color="#F59513"/>
<stop offset="0.37" stop-color="#FAC667"/>
<stop offset="1" stop-color="#F2830B"/>
</linearGradient>
<linearGradient id="paint25_linear_2242_2239" x1="195.14" y1="127.21" x2="199.106" y2="135.975" gradientUnits="userSpaceOnUse">
<stop stop-color="#F59513"/>
<stop offset="0.37" stop-color="#FAAD1E"/>
<stop offset="1" stop-color="#F2830B"/>
</linearGradient>
<linearGradient id="paint26_linear_2242_2239" x1="195.626" y1="126.829" x2="198.614" y2="133.435" gradientUnits="userSpaceOnUse">
<stop stop-color="#F59513"/>
<stop offset="0.37" stop-color="#FAC667"/>
<stop offset="1" stop-color="#F2830B"/>
</linearGradient>
<linearGradient id="paint27_linear_2242_2239" x1="195.14" y1="123.55" x2="199.106" y2="132.315" gradientUnits="userSpaceOnUse">
<stop stop-color="#F59513"/>
<stop offset="0.37" stop-color="#FAAD1E"/>
<stop offset="1" stop-color="#F2830B"/>
</linearGradient>
<linearGradient id="paint28_linear_2242_2239" x1="195.626" y1="123.169" x2="198.614" y2="129.775" gradientUnits="userSpaceOnUse">
<stop stop-color="#F59513"/>
<stop offset="0.37" stop-color="#FAC667"/>
<stop offset="1" stop-color="#F2830B"/>
</linearGradient>
<linearGradient id="paint29_linear_2242_2239" x1="195.651" y1="119.887" x2="199.617" y2="128.655" gradientUnits="userSpaceOnUse">
<stop stop-color="#F59513"/>
<stop offset="0.37" stop-color="#FAAD1E"/>
<stop offset="1" stop-color="#F2830B"/>
</linearGradient>
<linearGradient id="paint30_linear_2242_2239" x1="196.134" y1="119.506" x2="199.122" y2="126.111" gradientUnits="userSpaceOnUse">
<stop stop-color="#F59513"/>
<stop offset="0.37" stop-color="#FAC667"/>
<stop offset="1" stop-color="#F2830B"/>
</linearGradient>
<linearGradient id="paint31_linear_2242_2239" x1="194.405" y1="116.226" x2="198.372" y2="124.995" gradientUnits="userSpaceOnUse">
<stop stop-color="#F59513"/>
<stop offset="0.37" stop-color="#FAAD1E"/>
<stop offset="1" stop-color="#F2830B"/>
</linearGradient>
<linearGradient id="paint32_linear_2242_2239" x1="194.892" y1="115.846" x2="197.88" y2="122.451" gradientUnits="userSpaceOnUse">
<stop stop-color="#F59513"/>
<stop offset="0.37" stop-color="#FAC667"/>
<stop offset="1" stop-color="#F2830B"/>
</linearGradient>
<linearGradient id="paint33_linear_2242_2239" x1="174.249" y1="134.53" x2="178.215" y2="143.298" gradientUnits="userSpaceOnUse">
<stop stop-color="#F59513"/>
<stop offset="0.37" stop-color="#FAAD1E"/>
<stop offset="1" stop-color="#F2830B"/>
</linearGradient>
<linearGradient id="paint34_linear_2242_2239" x1="174.735" y1="0.000401156" x2="177.729" y2="140.766" gradientUnits="userSpaceOnUse">
<stop stop-color="#F59513"/>
<stop offset="0.37" stop-color="#FAC667"/>
<stop offset="1" stop-color="#F2830B"/>
</linearGradient>
<linearGradient id="paint35_linear_2242_2239" x1="174.249" y1="130.87" x2="178.215" y2="139.635" gradientUnits="userSpaceOnUse">
<stop stop-color="#F59513"/>
<stop offset="0.37" stop-color="#FAAD1E"/>
<stop offset="1" stop-color="#F2830B"/>
</linearGradient>
<linearGradient id="paint36_linear_2242_2239" x1="174.735" y1="130.489" x2="177.723" y2="137.095" gradientUnits="userSpaceOnUse">
<stop stop-color="#F59513"/>
<stop offset="0.37" stop-color="#FAC667"/>
<stop offset="1" stop-color="#F2830B"/>
</linearGradient>
<linearGradient id="paint37_linear_2242_2239" x1="174.249" y1="127.21" x2="178.215" y2="135.975" gradientUnits="userSpaceOnUse">
<stop stop-color="#F59513"/>
<stop offset="0.37" stop-color="#FAAD1E"/>
<stop offset="1" stop-color="#F2830B"/>
</linearGradient>
<linearGradient id="paint38_linear_2242_2239" x1="174.735" y1="126.829" x2="177.723" y2="133.435" gradientUnits="userSpaceOnUse">
<stop stop-color="#F59513"/>
<stop offset="0.37" stop-color="#FAC667"/>
<stop offset="1" stop-color="#F2830B"/>
</linearGradient>
<linearGradient id="paint39_linear_2242_2239" x1="96.9279" y1="134.53" x2="100.894" y2="143.299" gradientUnits="userSpaceOnUse">
<stop stop-color="#F59513"/>
<stop offset="0.37" stop-color="#FAAD1E"/>
<stop offset="1" stop-color="#F2830B"/>
</linearGradient>
<linearGradient id="paint40_linear_2242_2239" x1="97.4111" y1="134.15" x2="100.399" y2="140.755" gradientUnits="userSpaceOnUse">
<stop stop-color="#F59513"/>
<stop offset="0.37" stop-color="#FAC667"/>
<stop offset="1" stop-color="#F2830B"/>
</linearGradient>
<linearGradient id="paint41_linear_2242_2239" x1="95.3303" y1="130.87" x2="99.2967" y2="139.635" gradientUnits="userSpaceOnUse">
<stop stop-color="#F59513"/>
<stop offset="0.37" stop-color="#FAAD1E"/>
<stop offset="1" stop-color="#F2830B"/>
</linearGradient>
<linearGradient id="paint42_linear_2242_2239" x1="95.8135" y1="130.489" x2="98.8015" y2="137.095" gradientUnits="userSpaceOnUse">
<stop stop-color="#F59513"/>
<stop offset="0.37" stop-color="#FAC667"/>
<stop offset="1" stop-color="#F2830B"/>
</linearGradient>
<linearGradient id="paint43_linear_2242_2239" x1="81.9826" y1="134.53" x2="85.9458" y2="143.299" gradientUnits="userSpaceOnUse">
<stop stop-color="#F59513"/>
<stop offset="0.37" stop-color="#FAAD1E"/>
<stop offset="1" stop-color="#F2830B"/>
</linearGradient>
<linearGradient id="paint44_linear_2242_2239" x1="82.4658" y1="134.15" x2="85.4538" y2="140.755" gradientUnits="userSpaceOnUse">
<stop stop-color="#F59513"/>
<stop offset="0.37" stop-color="#FAC667"/>
<stop offset="1" stop-color="#F2830B"/>
</linearGradient>
<linearGradient id="paint45_linear_2242_2239" x1="68.9481" y1="134.53" x2="72.9145" y2="143.299" gradientUnits="userSpaceOnUse">
<stop stop-color="#F59513"/>
<stop offset="0.37" stop-color="#FAAD1E"/>
<stop offset="1" stop-color="#F2830B"/>
</linearGradient>
<linearGradient id="paint46_linear_2242_2239" x1="69.4346" y1="0.000645297" x2="72.428" y2="140.767" gradientUnits="userSpaceOnUse">
<stop stop-color="#F59513"/>
<stop offset="0.37" stop-color="#FAC667"/>
<stop offset="1" stop-color="#F2830B"/>
</linearGradient>
<linearGradient id="paint47_linear_2242_2239" x1="81.9826" y1="130.87" x2="85.9458" y2="139.635" gradientUnits="userSpaceOnUse">
<stop stop-color="#F59513"/>
<stop offset="0.37" stop-color="#FAAD1E"/>
<stop offset="1" stop-color="#F2830B"/>
</linearGradient>
<linearGradient id="paint48_linear_2242_2239" x1="82.4658" y1="130.489" x2="85.4538" y2="137.095" gradientUnits="userSpaceOnUse">
<stop stop-color="#F59513"/>
<stop offset="0.37" stop-color="#FAC667"/>
<stop offset="1" stop-color="#F2830B"/>
</linearGradient>
<linearGradient id="paint49_linear_2242_2239" x1="81.9826" y1="127.21" x2="85.9458" y2="135.975" gradientUnits="userSpaceOnUse">
<stop stop-color="#F59513"/>
<stop offset="0.37" stop-color="#FAAD1E"/>
<stop offset="1" stop-color="#F2830B"/>
</linearGradient>
<linearGradient id="paint50_linear_2242_2239" x1="82.4658" y1="126.829" x2="85.4539" y2="133.435" gradientUnits="userSpaceOnUse">
<stop stop-color="#F59513"/>
<stop offset="0.37" stop-color="#FAC667"/>
<stop offset="1" stop-color="#F2830B"/>
</linearGradient>
<linearGradient id="paint51_linear_2242_2239" x1="81.0686" y1="123.55" x2="85.035" y2="132.315" gradientUnits="userSpaceOnUse">
<stop stop-color="#F59513"/>
<stop offset="0.37" stop-color="#FAAD1E"/>
<stop offset="1" stop-color="#F2830B"/>
</linearGradient>
<linearGradient id="paint52_linear_2242_2239" x1="81.5518" y1="123.169" x2="84.5397" y2="129.775" gradientUnits="userSpaceOnUse">
<stop stop-color="#F59513"/>
<stop offset="0.37" stop-color="#FAC667"/>
<stop offset="1" stop-color="#F2830B"/>
</linearGradient>
<linearGradient id="paint53_linear_2242_2239" x1="199.2" y1="85.9315" x2="204.876" y2="98.4775" gradientUnits="userSpaceOnUse">
<stop stop-color="#015647"/>
<stop offset="1" stop-color="#11957F"/>
</linearGradient>
<linearGradient id="paint54_linear_2242_2239" x1="199.73" y1="87.1094" x2="204.342" y2="97.3029" gradientUnits="userSpaceOnUse">
<stop stop-color="#87DECF"/>
<stop offset="1" stop-color="#B1F4E9"/>
</linearGradient>
<linearGradient id="paint55_linear_2242_2239" x1="201.006" y1="89.7457" x2="203.569" y2="95.4175" gradientUnits="userSpaceOnUse">
<stop stop-color="#FAAD1E"/>
<stop offset="1" stop-color="#F2830B"/>
</linearGradient>
<linearGradient id="paint56_linear_2242_2239" x1="60.2047" y1="81.5229" x2="52.3861" y2="108.171" gradientUnits="userSpaceOnUse">
<stop stop-color="#FFE14D"/>
<stop offset="1" stop-color="#F7A523"/>
</linearGradient>
<linearGradient id="paint57_linear_2242_2239" x1="59.2807" y1="84.7038" x2="52.7086" y2="107.111" gradientUnits="userSpaceOnUse">
<stop stop-color="#FAAD1E"/>
<stop offset="1" stop-color="#F2830B"/>
</linearGradient>
<linearGradient id="paint58_linear_2242_2239" x1="184.162" y1="34.4113" x2="176.344" y2="61.0596" gradientUnits="userSpaceOnUse">
<stop stop-color="#FFE14D"/>
<stop offset="1" stop-color="#F7A523"/>
</linearGradient>
<linearGradient id="paint59_linear_2242_2239" x1="183.238" y1="37.5922" x2="176.666" y2="59.9997" gradientUnits="userSpaceOnUse">
<stop stop-color="#FAAD1E"/>
<stop offset="1" stop-color="#F2830B"/>
</linearGradient>
<linearGradient id="paint60_linear_2242_2239" x1="23.977" y1="2.09095" x2="36.8778" y2="30.6038" gradientUnits="userSpaceOnUse">
<stop stop-color="#21BDA2"/>
<stop offset="1" stop-color="#077C67"/>
</linearGradient>
<linearGradient id="paint61_linear_2242_2239" x1="93.0802" y1="22.4527" x2="92.9152" y2="39.8045" gradientUnits="userSpaceOnUse">
<stop stop-color="#80DACB"/>
<stop offset="1" stop-color="#C6FFF5"/>
</linearGradient>
<linearGradient id="paint62_linear_2242_2239" x1="92.9786" y1="26.2015" x2="93.0677" y2="33.4527" gradientUnits="userSpaceOnUse">
<stop stop-color="#FF8561"/>
<stop offset="1" stop-color="#EF4C43"/>
</linearGradient>
<clipPath id="clip0_2242_2239">
<rect width="258" height="149" fill="white"/>
</clipPath>
</defs>
</svg>
