<svg width="20" height="24" viewBox="0 0 20 24" fill="none" xmlns="http://www.w3.org/2000/svg">
<path d="M13.1661 9.04492C13.0112 8.89008 12.7953 8.80127 12.5737 8.80127C12.349 8.80127 12.1387 8.88774 11.9814 9.04492L9.04803 11.9782L8.03508 10.9651C7.95745 10.8873 7.86519 10.8256 7.76362 10.7837C7.66205 10.7417 7.55318 10.7202 7.44327 10.7205C7.33323 10.7202 7.22422 10.7418 7.12255 10.7839C7.02088 10.8259 6.92856 10.8878 6.85093 10.9658C6.77289 11.0434 6.71101 11.1358 6.66888 11.2375C6.62674 11.3392 6.60519 11.4482 6.60547 11.5583C6.60547 11.7823 6.69274 11.9927 6.85087 12.1508L8.45616 13.7562C8.61307 13.9128 8.82328 13.999 9.04789 13.999C9.27264 13.999 9.48285 13.9127 9.6405 13.7556L13.1663 10.2299C13.4928 9.90337 13.4929 9.37189 13.1661 9.04492Z" fill="#9F9F9F"/>
<path d="M19.783 4.94621C19.7765 4.87119 19.7507 4.79914 19.708 4.73709C19.6653 4.67503 19.6073 4.6251 19.5396 4.59216L10.1919 0.0439405C10.1325 0.0150259 10.0673 0 10.0013 0C9.93523 0 9.87004 0.0150259 9.81065 0.0439405L0.463042 4.5921C0.395318 4.62503 0.337289 4.67496 0.29462 4.73701C0.251952 4.79907 0.226101 4.87112 0.219591 4.94615C0.20766 5.08329 -0.0603915 8.35125 0.972266 12.3427C1.58056 14.6939 2.51723 16.8031 3.7562 18.6117C5.31015 20.8801 7.34376 22.6765 9.80073 23.9511C9.8627 23.9833 9.93151 24.0001 10.0013 24.0001C10.0712 24.0001 10.14 23.9833 10.202 23.9511C12.6589 22.6765 14.6926 20.8801 16.2466 18.6117C17.4855 16.8031 18.4222 14.6939 19.0304 12.3427C20.063 8.35125 19.795 5.08336 19.783 4.94621ZM10.0013 16.8714C6.94554 16.8714 4.45955 14.3855 4.45955 11.3297C4.45955 8.27396 6.94554 5.78797 10.0013 5.78797C13.057 5.78797 15.543 8.27396 15.543 11.3297C15.543 14.3855 13.057 16.8714 10.0013 16.8714Z" fill="#9F9F9F"/>
</svg>
