<svg width="85" height="101" viewBox="0 0 85 101" fill="none" xmlns="http://www.w3.org/2000/svg">
<path d="M4.0603 0L8.1206 5.02462L4.0603 10.0492L0 5.02462L4.0603 0Z" fill="#00BBAB"/>
<path d="M78.7698 90.9507L82.8301 95.9753L78.7698 101L74.7095 95.9753L78.7698 90.9507Z" fill="#00BBAB"/>
<path d="M57 29C58.6569 29 60 27.6569 60 26C60 24.3431 58.6569 23 57 23C55.3431 23 54 24.3431 54 26C54 27.6569 55.3431 29 57 29Z" fill="#00BBAB"/>
<path d="M70.6184 5.18358L70.6193 5.18653L73.3942 14.164H74.245H74.2459V15.164L70.6184 5.18358ZM70.6184 5.18358C70.5548 4.98013 70.4541 4.78622 70.3173 4.61495M70.6184 5.18358L70.3173 4.61495M70.3173 4.61495C70.1803 4.44345 70.0085 4.29652 69.8076 4.1888M70.3173 4.61495L69.8076 4.1888M69.8076 4.1888C69.6062 4.08083 69.3821 4.01587 69.1488 4.00255M69.8076 4.1888L69.1488 4.00255M69.1488 4.00255C68.9176 3.98935 68.6886 4.02757 68.4763 4.11197M69.1488 4.00255L68.4763 4.11197M68.4763 4.11197L42.8105 14.1352L68.4763 4.11197ZM68.0272 7.95925L68.712 10.1713C68.5859 10.1885 68.4625 10.221 68.3443 10.2678C67.994 10.4021 67.6135 10.379 67.2708 10.1941C66.9146 9.99202 66.6108 9.62038 66.4621 9.12859L66.4621 9.12858L66.4594 9.11991C66.409 8.95864 66.3353 8.80335 66.2387 8.66057L68.0272 7.95925ZM67.9074 14.164H58.0299L64.0828 11.7941C64.5204 12.3928 65.0772 12.8892 65.7238 13.2378C66.3682 13.5853 67.0744 13.7705 67.7902 13.7819L67.9074 14.164ZM72.605 34.3503H41.2817V17.6059H72.605V34.3503Z" stroke="#00BBAB" stroke-width="2"/>
<path d="M66.6 20.5C66.6 20.3674 66.5494 20.2402 66.4594 20.1464C66.3694 20.0527 66.2473 20 66.12 20H47.88C47.7527 20 47.6306 20.0527 47.5406 20.1464C47.4506 20.2402 47.4 20.3674 47.4 20.5C47.4 21.0304 47.1977 21.5391 46.8376 21.9142C46.4776 22.2893 45.9892 22.5 45.48 22.5C45.3527 22.5 45.2306 22.5527 45.1406 22.6464C45.0506 22.7402 45 22.8674 45 23V29C45 29.1326 45.0506 29.2598 45.1406 29.3536C45.2306 29.4473 45.3527 29.5 45.48 29.5C45.9892 29.5 46.4776 29.7107 46.8376 30.0858C47.1977 30.4609 47.4 30.9696 47.4 31.5C47.4 31.6326 47.4506 31.7598 47.5406 31.8536C47.6306 31.9473 47.7527 32 47.88 32H66.12C66.2473 32 66.3694 31.9473 66.4594 31.8536C66.5494 31.7598 66.6 31.6326 66.6 31.5C66.6 30.9696 66.8023 30.4609 67.1624 30.0858C67.5224 29.7107 68.0108 29.5 68.52 29.5C68.6473 29.5 68.7694 29.4473 68.8594 29.3536C68.9494 29.2598 69 29.1326 69 29V23C69 22.8674 68.9494 22.7402 68.8594 22.6464C68.7694 22.5527 68.6473 22.5 68.52 22.5C68.0108 22.5 67.5224 22.2893 67.1624 21.9142C66.8023 21.5391 66.6 21.0304 66.6 20.5ZM68.04 28.54C67.4524 28.6464 66.911 28.9402 66.4905 29.3809C66.0701 29.8215 65.7913 30.3873 65.6928 31H48.3216C48.2222 30.3852 47.9413 29.8179 47.5181 29.377C47.0948 28.9361 46.5502 28.6436 45.96 28.54V23.45C46.5502 23.3464 47.0948 23.0539 47.5181 22.613C47.9413 22.1721 48.2222 21.6048 48.3216 20.99H65.6928C65.7913 21.6027 66.0701 22.1685 66.4905 22.6091C66.911 23.0498 67.4524 23.3436 68.04 23.45V28.54Z" fill="#00BBAB"/>
<path d="M46.1925 51.9041L44.3833 50.3794L44.3779 50.3749C37.462 44.6021 28.2678 45.4145 22.0661 51.9041H10.583C8.27455 51.9041 6.94092 54.1093 6.94092 56.0864V77.5466C6.94092 79.5241 8.27466 81.7288 10.583 81.7288H22.9361L33.8326 86.277C35.1433 86.8433 36.5011 87.0934 37.8041 87.0934H54.6614C54.6614 87.0934 54.6615 87.0934 54.6615 87.0934C57.184 87.0935 59.6085 86.1468 61.6249 84.4415C61.6257 84.4408 61.6265 84.4402 61.6273 84.4395L80.6288 68.513C80.631 68.5111 80.6333 68.5093 80.6355 68.5074C82.0356 67.3552 82.745 65.5951 82.9624 63.9517C83.178 62.3225 82.9487 60.5289 82.1412 59.1582C80.3444 55.8263 76.381 55.0224 73.8899 57.3189L61.2479 67.7547C61.0316 67.8367 60.8198 67.917 60.6035 67.9992H36.4328C36.3586 67.9992 36.2313 67.9698 36.084 67.7853C35.931 67.5937 35.7907 67.2618 35.7907 66.8169C35.7907 66.3715 35.9311 66.0394 36.0841 65.8478C36.2314 65.6632 36.3586 65.6339 36.4327 65.6339H59.7834H61.5444L61.2643 63.8953C60.2046 57.3184 55.4474 51.9041 49.2865 51.9041H46.1925Z" stroke="#00BBAB" stroke-width="3"/>
</svg>
