<svg width="348" height="358" viewBox="0 0 348 358" fill="none" xmlns="http://www.w3.org/2000/svg">
<path d="M90.4782 348.212V264.015C90.4782 263.262 90.1791 262.54 89.6467 262.007C89.1143 261.475 88.3923 261.176 87.6394 261.176H55.9326C55.1797 261.176 54.4576 261.475 53.9252 262.007C53.3928 262.54 53.0938 263.262 53.0938 264.015V348.212H90.4782Z" fill="#FD5426"/>
<path d="M67.7683 348.212V264.015C67.7683 263.262 68.0673 262.54 68.5997 262.007C69.1321 261.475 69.8542 261.176 70.6071 261.176H55.9326C55.1797 261.176 54.4576 261.475 53.9252 262.007C53.3928 262.54 53.0938 263.262 53.0938 264.015V348.212H67.7683Z" fill="#EF4424"/>
<path d="M147.494 348.21V196.708C147.494 195.955 147.195 195.233 146.662 194.701C146.13 194.168 145.408 193.869 144.655 193.869H112.948C112.195 193.869 111.473 194.168 110.941 194.701C110.408 195.233 110.109 195.955 110.109 196.708V348.21H147.494Z" fill="#05E39C"/>
<path d="M124.553 348.212V196.71C124.553 195.957 124.852 195.235 125.385 194.703C125.917 194.17 126.639 193.871 127.392 193.871H112.948C112.195 193.871 111.473 194.17 110.941 194.703C110.408 195.235 110.109 195.957 110.109 196.71V348.212H124.553Z" fill="#0ED290"/>
<path d="M204.502 348.21V228.485C204.502 228.112 204.429 227.743 204.286 227.399C204.143 227.054 203.934 226.741 203.671 226.478C203.407 226.214 203.094 226.005 202.749 225.862C202.405 225.72 202.036 225.646 201.663 225.646H169.956C169.203 225.646 168.481 225.946 167.949 226.478C167.416 227.01 167.117 227.732 167.117 228.485V348.21H204.502Z" fill="#FED402"/>
<path d="M181.808 348.21V228.485C181.808 227.732 182.107 227.01 182.639 226.478C183.172 225.946 183.894 225.646 184.647 225.646H169.956C169.203 225.646 168.481 225.946 167.949 226.478C167.416 227.01 167.117 227.732 167.117 228.485V348.21H181.808Z" fill="#FAC600"/>
<path d="M261.518 348.211V264.937C261.518 264.184 261.219 263.462 260.686 262.929C260.154 262.397 259.432 262.098 258.679 262.098H226.972C226.219 262.098 225.497 262.397 224.965 262.929C224.432 263.461 224.133 264.184 224.133 264.937V348.211H261.518Z" fill="#FD5426"/>
<path d="M238.826 348.211V264.937C238.826 264.184 239.125 263.462 239.658 262.929C240.19 262.397 240.912 262.098 241.665 262.098H226.972C226.599 262.098 226.23 262.171 225.886 262.314C225.541 262.456 225.228 262.665 224.965 262.929C224.701 263.193 224.492 263.505 224.349 263.85C224.206 264.194 224.133 264.564 224.133 264.937V348.211H238.826Z" fill="#EF4424"/>
<path d="M318.526 348.21V197.872C318.526 197.499 318.452 197.13 318.31 196.785C318.167 196.441 317.958 196.128 317.694 195.864C317.43 195.601 317.117 195.392 316.773 195.249C316.428 195.106 316.059 195.033 315.686 195.033H283.979C283.227 195.033 282.504 195.332 281.972 195.865C281.44 196.397 281.141 197.119 281.141 197.872V348.21H318.526Z" fill="#05E39C"/>
<path d="M295.603 348.21V197.872C295.603 197.119 295.902 196.397 296.435 195.865C296.967 195.332 297.689 195.033 298.442 195.033H283.979C283.227 195.033 282.504 195.332 281.972 195.865C281.44 196.397 281.141 197.119 281.141 197.872V348.21H295.603Z" fill="#0ED290"/>
<path d="M284.099 153.048L251.023 187.208C254.2 188.843 256.822 191.381 258.559 194.503L291.635 160.343C288.459 158.707 285.837 156.169 284.099 153.048ZM112.787 123.553L80.5078 154.773C83.6283 156.512 86.1649 159.135 87.7986 162.312L120.077 131.092C116.957 129.353 114.42 126.73 112.787 123.553ZM232.399 188.564L145.632 121.711C144.363 125.051 142.133 127.94 139.223 130.013L225.991 196.866C227.26 193.527 229.49 190.638 232.399 188.564Z" fill="#537983"/>
<path d="M71.786 189.197C82.1094 189.197 90.4782 180.828 90.4782 170.505C90.4782 160.181 82.1094 151.812 71.786 151.812C61.4625 151.812 53.0938 160.181 53.0938 170.505C53.0938 180.828 61.4625 189.197 71.786 189.197Z" fill="#FD5426"/>
<path d="M67.7683 170.503C67.7683 162.785 72.4474 156.16 79.1236 153.308C76.8043 152.317 74.308 151.808 71.786 151.811C61.4627 151.811 53.0938 160.18 53.0938 170.503C53.0938 180.826 61.4627 189.195 71.786 189.195C74.308 189.198 76.8043 188.689 79.1236 187.698C72.4481 184.847 67.7683 178.223 67.7683 170.503Z" fill="#EF4424"/>
<path d="M128.802 134.054C139.125 134.054 147.494 125.686 147.494 115.362C147.494 105.039 139.125 96.6699 128.802 96.6699C118.478 96.6699 110.109 105.039 110.109 115.362C110.109 125.686 118.478 134.054 128.802 134.054Z" fill="#05E39C"/>
<path d="M124.553 115.362C124.553 107.599 129.286 100.942 136.024 98.1173C133.737 97.1589 131.281 96.6669 128.802 96.6699C118.478 96.6699 110.109 105.039 110.109 115.362C110.109 125.686 118.478 134.054 128.802 134.054C131.281 134.057 133.737 133.565 136.024 132.606C129.286 129.782 124.553 123.125 124.553 115.362Z" fill="#0ED290"/>
<path d="M242.825 221.908C253.148 221.908 261.517 213.539 261.517 203.216C261.517 192.892 253.148 184.523 242.825 184.523C232.502 184.523 224.133 192.892 224.133 203.216C224.133 213.539 232.502 221.908 242.825 221.908Z" fill="#FD5426"/>
<path d="M238.825 203.216C238.825 195.5 243.5 188.878 250.172 186.024C247.85 185.031 245.35 184.521 242.825 184.523C232.502 184.523 224.133 192.892 224.133 203.216C224.133 213.539 232.502 221.908 242.825 221.908C245.433 221.908 247.916 221.372 250.172 220.407C243.5 217.552 238.825 210.931 238.825 203.216Z" fill="#EF4424"/>
<path d="M299.833 163.027C310.156 163.027 318.525 154.658 318.525 144.335C318.525 134.011 310.156 125.643 299.833 125.643C289.509 125.643 281.141 134.011 281.141 144.335C281.141 154.658 289.509 163.027 299.833 163.027Z" fill="#05E39C"/>
<path d="M295.603 144.336C295.603 136.576 300.331 129.921 307.064 127.094C304.775 126.133 302.316 125.64 299.833 125.643C289.51 125.643 281.141 134.012 281.141 144.335C281.141 154.658 289.51 163.027 299.833 163.027C302.397 163.027 304.839 162.51 307.064 161.575C300.331 158.749 295.603 152.095 295.603 144.336Z" fill="#0ED290"/>
<path d="M337.219 358H34.4004C31.5035 358 29.1562 355.652 29.1562 352.756C29.1562 349.86 31.5035 347.512 34.4004 347.512H337.219C338.61 347.512 339.943 348.064 340.927 349.048C341.91 350.031 342.463 351.365 342.463 352.756C342.463 354.147 341.91 355.481 340.927 356.464C339.943 357.448 338.61 358 337.219 358Z" fill="#537983"/>
<path d="M128.797 164.738C101.571 164.738 79.4219 142.589 79.4219 115.362C79.4219 88.1362 101.572 65.9863 128.797 65.9863C156.023 65.9863 178.173 88.1362 178.173 115.362C178.173 142.589 156.023 164.738 128.797 164.738ZM128.797 76.4746C107.355 76.4746 89.9102 93.9194 89.9102 115.362C89.9102 136.805 107.355 154.25 128.797 154.25C150.24 154.25 167.685 136.805 167.685 115.362C167.685 93.9194 150.24 76.4746 128.797 76.4746Z" fill="#8EBAC5"/>
<path d="M95.7861 95.3981H4.34504C3.44544 95.3981 2.5827 95.0407 1.94659 94.4046C1.31049 93.7685 0.953125 92.9058 0.953125 92.0062V56.8138C0.953125 55.9142 1.31049 55.0514 1.94659 54.4153C2.5827 53.7792 3.44544 53.4219 4.34504 53.4219H95.7854C96.685 53.4219 97.5477 53.7792 98.1838 54.4153C98.8199 55.0514 99.1773 55.9142 99.1773 56.8138V92.0062C99.1774 92.4516 99.0897 92.8926 98.9193 93.3041C98.749 93.7157 98.4992 94.0896 98.1843 94.4046C97.8694 94.7195 97.4955 94.9694 97.084 95.1399C96.6725 95.3103 96.2315 95.3981 95.7861 95.3981Z" fill="#FED402"/>
<path d="M23.254 92.0062V56.8138C23.254 55.9142 23.6114 55.0514 24.2475 54.4153C24.8836 53.7792 25.7463 53.4219 26.6459 53.4219H4.34503C3.44544 53.4219 2.5827 53.7792 1.94659 54.4153C1.31049 55.0514 0.953125 55.9142 0.953125 56.8138V92.0062C0.953125 92.9058 1.31049 93.7685 1.94659 94.4046C2.5827 95.0407 3.44544 95.3981 4.34503 95.3981H26.6459C25.7463 95.3981 24.8836 95.0407 24.2475 94.4046C23.6114 93.7685 23.254 92.9058 23.254 92.0062Z" fill="#FAC600"/>
<path d="M32.2747 79.6543H19.4629C16.566 79.6543 14.2188 77.3063 14.2188 74.4102C14.2188 71.514 16.566 69.166 19.4629 69.166H32.2747C33.6655 69.166 34.9994 69.7185 35.9828 70.702C36.9663 71.6855 37.5188 73.0193 37.5188 74.4102C37.5188 75.801 36.9663 77.1349 35.9828 78.1183C34.9994 79.1018 33.6655 79.6543 32.2747 79.6543ZM80.6746 79.6543H48.9028C46.0059 79.6543 43.6587 77.3063 43.6587 74.4102C43.6587 71.514 46.0059 69.166 48.9028 69.166H80.6746C83.5715 69.166 85.9187 71.514 85.9187 74.4102C85.9187 77.3063 83.5715 79.6543 80.6746 79.6543Z" fill="#3E5959"/>
<path d="M347.046 47.1247C347.046 20.381 324.768 -1.15914 297.758 0.0484099C273.852 1.11752 253.977 20.9404 252.851 44.8439C251.739 68.4327 267.982 88.4255 289.906 93.1718C290.621 93.325 291.284 93.6607 291.831 94.1463C292.378 94.6319 292.79 95.2508 293.027 95.9428L298.112 104.609C298.922 105.991 300.92 105.991 301.73 104.609L306.816 95.9414C307.051 95.2518 307.46 94.6346 308.004 94.1499C308.548 93.6652 309.208 93.3295 309.92 93.1753C331.142 88.5898 347.046 69.7186 347.046 47.1247Z" fill="#FED402"/>
<path d="M309.344 88.6825C309.107 87.9907 308.695 87.3719 308.148 86.8864C307.601 86.4008 306.938 86.065 306.223 85.9115C284.245 81.1533 267.976 61.0739 269.177 37.4081C269.935 22.4665 277.777 9.29952 289.373 1.20117C269.276 5.83839 253.943 23.4664 252.867 44.6681C251.666 68.3339 267.935 88.4133 289.913 93.1715C290.628 93.3247 291.292 93.6604 291.839 94.146C292.386 94.6315 292.798 95.2505 293.034 95.9425L298.119 104.609C298.93 105.99 300.927 105.99 301.738 104.609L306.823 95.9411C307.058 95.2515 307.467 94.6344 308.011 94.1497C308.555 93.665 309.215 93.3292 309.927 93.175C310.53 93.0435 311.131 92.9002 311.728 92.745L309.344 88.6825Z" fill="#FAC600"/>
<path d="M305.343 41.8813H294.512C292.001 41.8813 289.957 39.8382 289.957 37.3259C289.957 34.8136 292.001 32.7705 294.512 32.7705H313.596C316.492 32.7705 318.84 30.4225 318.84 27.5263C318.84 24.6301 316.492 22.2822 313.596 22.2822H305.172V17.4688C305.172 14.5726 302.825 12.2246 299.928 12.2246C297.031 12.2246 294.684 14.5726 294.684 17.4688V22.2822H294.512C286.218 22.2822 279.469 29.0303 279.469 37.3259C279.469 45.6214 286.217 52.3696 294.512 52.3696H305.343C307.855 52.3696 309.899 54.4127 309.899 56.925C309.899 59.4373 307.855 61.4804 305.343 61.4804H286.26C283.363 61.4804 281.016 63.8284 281.016 66.7245C281.016 69.6207 283.363 71.9687 286.26 71.9687H294.684V76.7814C294.684 79.6775 297.031 82.0255 299.928 82.0255C302.825 82.0255 305.172 79.6775 305.172 76.7814V71.9687H305.343C313.638 71.9687 320.387 65.2205 320.387 56.925C320.387 48.6294 313.638 41.8813 305.343 41.8813Z" fill="#3E5959"/>
</svg>
