<svg width="512" height="512" viewBox="0 0 512 512" fill="none" xmlns="http://www.w3.org/2000/svg">
<circle cx="256" cy="256" r="240" fill="url(#paint0_linear_3059_1237)"/>
<path d="M417.611 276.278C418.129 289.237 413.72 301.881 405.35 311.438C396.981 320.995 385.336 326.683 372.969 327.255C372.245 327.29 371.524 327.308 370.803 327.308C367.517 327.305 364.241 326.933 361.031 326.196C351.507 341.604 339.018 354.759 324.364 364.82C309.71 374.881 293.213 381.627 275.929 384.626C273.884 390.919 269.806 396.265 264.398 399.742C258.99 403.218 252.593 404.605 246.312 403.664C240.032 402.723 234.263 399.512 230.002 394.587C225.741 389.661 223.257 383.331 222.978 376.69C222.7 370.049 224.644 363.514 228.476 358.216C232.308 352.918 237.786 349.189 243.963 347.674C250.141 346.159 256.629 346.953 262.307 349.919C267.985 352.884 272.496 357.835 275.06 363.916C299.394 359.2 321.378 345.688 337.179 325.732C352.98 305.777 361.597 280.645 361.528 254.716C361.528 193.459 313.964 143.623 255.5 143.623C197.035 143.623 149.471 193.459 149.471 254.716C149.468 273.658 154.088 292.285 162.892 308.829C163.191 309.375 163.415 309.962 163.558 310.573C164.408 313.05 164.317 315.774 163.304 318.182C162.29 320.591 160.432 322.499 158.113 323.511C152.436 326.015 146.338 327.304 140.178 327.303C139.453 327.303 138.726 327.285 137.998 327.25C125.637 326.671 113.998 320.98 105.636 311.423C97.2731 301.867 92.8684 289.227 93.3876 276.273C93.5964 271.107 93.4799 266.498 93.366 262.042C93.26 257.845 93.1495 253.506 93.3314 248.978C93.8742 236.33 99.0669 224.393 107.822 215.666C116.577 206.94 128.215 202.101 140.298 202.164C159.702 155.648 204.033 123.057 255.5 123.057C306.966 123.057 351.298 155.648 370.702 202.165C382.786 202.092 394.428 206.927 403.184 215.653C411.941 224.38 417.131 236.321 417.667 248.97C417.85 253.505 417.74 257.844 417.632 262.04C417.52 266.498 417.403 271.109 417.611 276.278ZM337.813 254.716C337.809 267.929 334.907 280.964 329.334 292.816C323.76 304.669 315.663 315.021 305.667 323.076C295.67 331.131 284.042 336.672 271.678 339.274C259.314 341.875 246.546 341.466 234.357 338.078L201.039 358.238C199.358 359.255 197.427 359.727 195.49 359.595C193.553 359.462 191.697 358.73 190.156 357.492C188.616 356.253 187.461 354.565 186.837 352.638C186.213 350.712 186.149 348.636 186.651 346.671L195.166 313.389C181.065 297.419 173.219 276.472 173.189 254.716C173.189 207.147 210.112 168.451 255.5 168.451C300.887 168.451 337.813 207.147 337.813 254.716ZM232.615 254.716C232.615 251.989 231.581 249.373 229.741 247.445C227.9 245.516 225.404 244.433 222.801 244.433H222.785C220.844 244.437 218.949 245.043 217.337 246.175C215.725 247.307 214.47 248.915 213.73 250.794C212.99 252.673 212.799 254.74 213.179 256.734C213.56 258.727 214.496 260.558 215.87 261.994C217.243 263.43 218.992 264.408 220.895 264.803C222.798 265.198 224.771 264.993 226.563 264.214C228.355 263.436 229.887 262.118 230.965 260.427C232.042 258.736 232.617 256.749 232.617 254.716H232.615ZM265.316 254.716C265.315 254.379 265.298 254.043 265.264 253.708C265.233 253.372 265.185 253.038 265.12 252.707C265.062 252.378 264.983 252.053 264.884 251.734C264.793 251.412 264.682 251.096 264.564 250.781C264.446 250.466 264.302 250.171 264.152 249.876C264.002 249.579 263.839 249.291 263.661 249.012C263.482 248.73 263.29 248.458 263.085 248.196C262.883 247.934 262.667 247.685 262.438 247.449C262.215 247.209 261.973 246.983 261.724 246.764C261.475 246.558 261.213 246.352 260.945 246.167C260.679 245.981 260.404 245.81 260.121 245.653C259.839 245.495 259.546 245.351 259.251 245.221C258.956 245.092 258.655 244.98 258.348 244.885C257.736 244.679 257.104 244.546 256.464 244.488C255.503 244.391 254.533 244.439 253.585 244.632C253.269 244.699 252.957 244.784 252.65 244.885C252.343 244.979 252.042 245.092 251.747 245.221C251.453 245.351 251.158 245.495 250.877 245.653C250.596 245.811 250.321 245.982 250.052 246.167C249.515 246.541 249.015 246.97 248.561 247.449C248.331 247.685 248.115 247.934 247.912 248.196C247.71 248.458 247.52 248.73 247.344 249.012C247.164 249.291 246.998 249.579 246.846 249.876C246.695 250.17 246.56 250.472 246.44 250.781C246.316 251.093 246.207 251.411 246.113 251.734C246.022 252.049 245.943 252.378 245.878 252.707C245.813 253.038 245.765 253.372 245.733 253.708C245.701 254.044 245.688 254.38 245.688 254.716C245.688 255.052 245.701 255.395 245.733 255.731C245.766 256.064 245.814 256.396 245.878 256.725C245.943 257.054 246.022 257.383 246.113 257.705C246.207 258.026 246.316 258.342 246.44 258.651C246.56 258.962 246.695 259.267 246.846 259.563C246.996 259.858 247.167 260.145 247.344 260.427C247.52 260.706 247.71 260.976 247.912 261.235C248.116 261.498 248.333 261.75 248.561 261.99C248.79 262.223 249.025 262.456 249.28 262.668C249.526 262.882 249.784 263.081 250.052 263.265C250.321 263.45 250.595 263.628 250.877 263.786C251.445 264.096 252.038 264.353 252.65 264.553C252.957 264.649 253.271 264.732 253.585 264.8C254.216 264.936 254.858 265.002 255.502 264.999C258.102 264.992 260.594 263.91 262.438 261.99C262.89 261.509 263.299 260.985 263.661 260.427C263.838 260.145 264.001 259.858 264.152 259.563C264.302 259.268 264.44 258.959 264.564 258.651C264.688 258.342 264.793 258.02 264.884 257.705C264.982 257.384 265.061 257.056 265.12 256.725C265.184 256.396 265.232 256.064 265.264 255.731C265.297 255.393 265.314 255.054 265.314 254.715L265.316 254.716ZM298.031 254.716C298.031 251.989 296.997 249.373 295.156 247.445C293.316 245.516 290.819 244.433 288.216 244.433H288.197C286.257 244.437 284.361 245.043 282.75 246.175C281.138 247.308 279.883 248.915 279.144 250.794C278.404 252.674 278.212 254.741 278.593 256.734C278.974 258.728 279.91 260.558 281.283 261.994C282.656 263.43 284.405 264.408 286.309 264.803C288.212 265.198 290.184 264.993 291.977 264.214C293.769 263.436 295.3 262.118 296.378 260.427C297.456 258.736 298.031 256.749 298.031 254.716Z" fill="white"/>
<defs>
<linearGradient id="paint0_linear_3059_1237" x1="256" y1="16" x2="256" y2="496" gradientUnits="userSpaceOnUse">
<stop stop-color="#02B4AA"/>
<stop offset="1" stop-color="#1E4590"/>
<stop offset="1" stop-color="#1E458F"/>
</linearGradient>
</defs>
</svg>
