<svg width="1120" height="160" viewBox="0 0 1120 160" fill="none" xmlns="http://www.w3.org/2000/svg">
<g clip-path="url(#clip0_3311_2202)">
<rect width="1120" height="160" rx="15" fill="white"/>
<path d="M40.3472 134.609L35.9811 133.464L33.8121 134.157C31.953 131.23 30.1126 129.698 27.2582 127.805L27.9624 124.814L26.6573 120.484L22.3381 118.702L16.526 123.078C13.9157 122.57 11.512 122.265 6.91112 122.459L5.58719 119.902L2.63887 118L-2.50656 119.902L-4.81641 122.182L-0.0840818 120.437L2.68584 122.339L4.58251 126.06C7.82189 125.571 11.0707 125.728 14.1504 126.457L15.9626 123.512L18.8264 121.767L23.4273 123.816L24.0188 127.085L22.9108 130.381C25.5868 132.264 27.9061 134.674 29.6807 137.545L33.0985 136.733L36.2909 137.527L38.0655 142.18L36.2252 144.866L33.0515 146.445C33.5961 149.713 33.4553 152.991 32.6947 156.102L36.8261 158.558L39.2674 162.436L36.5163 165.898L42.2439 158.697L39.6336 153.905L38.1313 153.305C38.2721 149.492 38.3942 147.581 37.8777 144.22L40.4692 142.226L42.3847 139.041L40.3566 134.618L40.3472 134.609Z" fill="#A4BBDD" fill-opacity="0.25"/>
<path d="M33.093 136.714L29.6752 137.527C27.9006 134.665 25.5814 132.246 22.9054 130.362L24.0134 127.066L23.4218 123.798L18.821 121.748L15.9571 123.493L14.145 126.438C11.0652 125.709 7.81643 125.561 4.57705 126.042L2.68038 122.321L-0.0895409 120.419L-4.82187 122.164L-5.60118 125.386L-4.62467 129.31C-7.65748 131.11 -10.202 133.474 -12.1551 136.216L-15.5916 135.099L-18.9155 135.68L-21 140.204L-19.2254 143.02L-16.0799 144.894C-16.8123 148.015 -16.9249 151.301 -16.3428 154.57L-19.0188 155.899L-20.8591 158.586L-19.0845 163.239L-15.8921 164.033L-12.9626 163.341C-10.9532 166.535 -8.27718 169.166 -5.17864 171.114L-6.1176 173.893L-5.52608 177.162L-0.925193 179.211L1.9386 177.475L3.7132 174.586C6.61456 175.121 9.6474 175.149 12.6614 174.623L14.5957 178.399L17.3656 180.301L22.0979 178.556L22.8772 175.334L21.8256 171.124C24.4734 169.462 26.7269 167.357 28.5203 164.947L33.1869 166.47L36.5108 165.889L39.2619 162.427L36.8206 158.549L32.6893 156.093C33.4404 152.982 33.5907 149.704 33.0461 146.436L36.2197 144.857L38.0601 142.171L36.2854 137.517L33.093 136.723V136.714ZM12.6051 160.857C6.71785 163.036 0.15459 160.1 -2.05195 154.321C-4.26787 148.532 -1.28202 142.078 4.59582 139.909C10.483 137.73 17.0463 140.666 19.2529 146.445C21.4688 152.234 18.4829 158.687 12.6051 160.857Z" fill="url(#paint0_linear_3311_2202)" fill-opacity="0.1"/>
<path d="M655.234 44.1522L657.488 40.2973L657.37 38.0559C660.723 37.0458 662.703 35.6927 665.299 33.4686L668.053 34.9124L672.64 34.7922L675.506 31.1468L672.716 24.4882C673.89 22.1379 674.811 19.9313 675.811 15.5068L678.664 14.9099L681.293 12.599L680.758 7.21463L679.118 4.42829L679.606 9.37926L677.023 11.5206L672.881 12.3609C672.522 15.5675 671.528 18.6157 670.015 21.355L672.436 23.8403L673.407 27.0147L670.205 30.8586L666.844 30.5751L663.897 28.6686C661.356 30.7254 658.391 32.3068 655.114 33.2509L655.027 36.7107L653.421 39.5405L648.396 40.0235L646.236 37.5784L645.508 34.1523C642.16 33.8242 638.98 32.842 636.123 31.3136L632.644 34.606L628.207 35.9235L625.522 32.4117L631.106 39.7212L636.484 38.4796L637.461 37.2066C641.167 38.3273 643.011 38.938 646.442 39.3168L647.728 42.2969L650.358 44.9424L655.223 44.1587L655.234 44.1522Z" fill="#A4BBDD" fill-opacity="0.25"/>
<path d="M655.048 36.7111L655.135 33.2513C658.403 32.3048 661.377 30.7258 663.918 28.669L666.866 30.5755L670.226 30.8589L673.428 27.0151L672.457 23.8406L670.036 21.3554C671.549 18.616 672.534 15.5654 672.902 12.3612L677.044 11.5209L679.627 9.37959L679.14 4.42862L676.179 2.85372L672.076 2.76661C671.094 -0.582859 669.434 -3.61388 667.248 -6.18044L669.234 -9.1587L669.523 -12.4695L665.623 -15.6222L662.401 -14.6638L659.748 -12.1582C656.875 -13.6622 653.679 -14.62 650.321 -14.9124L649.709 -17.8008L647.549 -20.2459L642.523 -19.7629L640.918 -16.9332L640.839 -13.9686C637.184 -12.885 633.909 -11.0217 631.196 -8.5799L628.712 -10.1919L625.351 -10.4754L622.149 -6.63147L623.111 -3.45943L625.488 -1.02426C624.211 1.59567 623.399 4.47204 623.136 7.4739L618.929 8.3356L616.346 10.4769L616.834 15.4279L619.794 17.0028L624.197 17.0925C625.143 20.0402 626.625 22.7275 628.526 25.0563L625.823 29.0989L625.534 32.4097L628.219 35.9214L632.656 34.604L636.135 31.3116C638.994 32.831 642.172 33.8222 645.52 34.1503L646.248 37.5763L648.408 40.0214L653.433 39.5384L655.039 36.7087L655.048 36.7111ZM636.659 10.9831C636.044 4.82177 640.624 -0.658514 646.867 -1.26058C653.121 -1.86918 658.681 2.63997 659.289 8.78999C659.903 14.9513 655.323 20.4316 649.081 21.0337C642.827 21.6423 637.266 17.1331 636.659 10.9831Z" fill="url(#paint1_linear_3311_2202)" fill-opacity="0.1"/>
<path d="M64.248 92H61.464L59.304 88.88H59.176H56.92V92H54.328V80.8H59.176C62.168 80.8 64.04 82.352 64.04 84.864C64.04 86.544 63.192 87.776 61.736 88.4L64.248 92ZM61.416 84.864C61.416 83.632 60.616 82.912 59.032 82.912H56.92V86.816H59.032C60.616 86.816 61.416 86.08 61.416 84.864ZM69.3115 83.264C71.9355 83.264 73.4555 84.48 73.4555 87.088V92H71.1195V90.928C70.6555 91.712 69.7595 92.128 68.4955 92.128C66.4795 92.128 65.2795 91.008 65.2795 89.52C65.2795 88 66.3515 86.944 68.9755 86.944H70.9595C70.9595 85.872 70.3195 85.248 68.9755 85.248C68.0635 85.248 67.1195 85.552 66.4955 86.048L65.5995 84.304C66.5435 83.632 67.9355 83.264 69.3115 83.264ZM69.1195 90.448C69.9515 90.448 70.6715 90.064 70.9595 89.28V88.4H69.2475C68.0795 88.4 67.7115 88.832 67.7115 89.408C67.7115 90.032 68.2395 90.448 69.1195 90.448ZM76.9625 82.192C76.0345 82.192 75.4105 81.584 75.4105 80.8C75.4105 80.016 76.0345 79.408 76.9625 79.408C77.8905 79.408 78.5145 79.984 78.5145 80.752C78.5145 81.584 77.8905 82.192 76.9625 82.192ZM75.7145 92V83.392H78.2105V92H75.7145ZM83.423 92.128C81.967 92.128 80.495 91.728 79.695 91.2L80.527 89.408C81.295 89.904 82.463 90.24 83.519 90.24C84.671 90.24 85.103 89.936 85.103 89.456C85.103 88.048 79.903 89.488 79.903 86.048C79.903 84.416 81.375 83.264 83.887 83.264C85.071 83.264 86.383 83.536 87.199 84.016L86.367 85.792C85.519 85.312 84.671 85.152 83.887 85.152C82.767 85.152 82.287 85.504 82.287 85.952C82.287 87.424 87.487 86 87.487 89.392C87.487 90.992 85.999 92.128 83.423 92.128ZM97.459 87.728C97.459 87.92 97.427 88.192 97.411 88.4H90.899C91.139 89.472 92.051 90.128 93.363 90.128C94.275 90.128 94.931 89.856 95.523 89.296L96.851 90.736C96.051 91.648 94.851 92.128 93.299 92.128C90.323 92.128 88.387 90.256 88.387 87.696C88.387 85.12 90.355 83.264 92.979 83.264C95.507 83.264 97.459 84.96 97.459 87.728ZM92.995 85.152C91.859 85.152 91.043 85.84 90.867 86.944H95.107C94.931 85.856 94.115 85.152 92.995 85.152ZM109.796 83.392H112.196L108.308 92.528C107.476 94.608 106.292 95.232 104.74 95.232C103.86 95.232 102.9 94.944 102.34 94.448L103.252 92.672C103.636 93.008 104.164 93.216 104.66 93.216C105.348 93.216 105.732 92.912 106.068 92.144L106.1 92.064L102.372 83.392H104.948L107.364 89.232L109.796 83.392ZM117.076 92.128C114.34 92.128 112.34 90.288 112.34 87.696C112.34 85.104 114.34 83.264 117.076 83.264C119.812 83.264 121.796 85.104 121.796 87.696C121.796 90.288 119.812 92.128 117.076 92.128ZM117.076 90.08C118.324 90.08 119.268 89.184 119.268 87.696C119.268 86.208 118.324 85.312 117.076 85.312C115.828 85.312 114.868 86.208 114.868 87.696C114.868 89.184 115.828 90.08 117.076 90.08ZM129.641 83.392H132.137V92H129.769V90.976C129.113 91.728 128.153 92.128 127.097 92.128C124.937 92.128 123.417 90.912 123.417 88.256V83.392H125.913V87.888C125.913 89.328 126.553 89.968 127.657 89.968C128.809 89.968 129.641 89.232 129.641 87.648V83.392ZM136.833 84.528C137.441 83.696 138.465 83.264 139.793 83.264V85.568C139.585 85.552 139.425 85.536 139.233 85.536C137.857 85.536 136.945 86.288 136.945 87.936V92H134.449V83.392H136.833V84.528ZM148.367 92V82.912H144.783V80.8H154.543V82.912H150.959V92H148.367ZM156.822 82.192C155.894 82.192 155.27 81.584 155.27 80.8C155.27 80.016 155.894 79.408 156.822 79.408C157.75 79.408 158.374 79.984 158.374 80.752C158.374 81.584 157.75 82.192 156.822 82.192ZM155.574 92V83.392H158.07V92H155.574ZM164.546 92.128C161.746 92.128 159.746 90.288 159.746 87.696C159.746 85.104 161.746 83.264 164.546 83.264C166.354 83.264 167.778 84.048 168.402 85.456L166.466 86.496C166.002 85.68 165.314 85.312 164.53 85.312C163.266 85.312 162.274 86.192 162.274 87.696C162.274 89.2 163.266 90.08 164.53 90.08C165.314 90.08 166.002 89.728 166.466 88.896L168.402 89.952C167.778 91.328 166.354 92.128 164.546 92.128ZM176.193 92L173.473 88.624L172.273 89.808V92H169.777V80.128H172.273V86.848L175.921 83.392H178.897L175.313 87.04L179.217 92H176.193ZM188.397 87.728C188.397 87.92 188.365 88.192 188.349 88.4H181.837C182.077 89.472 182.989 90.128 184.301 90.128C185.213 90.128 185.869 89.856 186.461 89.296L187.789 90.736C186.989 91.648 185.789 92.128 184.237 92.128C181.261 92.128 179.325 90.256 179.325 87.696C179.325 85.12 181.293 83.264 183.917 83.264C186.445 83.264 188.397 84.96 188.397 87.728ZM183.933 85.152C182.797 85.152 181.981 85.84 181.805 86.944H186.045C185.869 85.856 185.053 85.152 183.933 85.152ZM194.938 89.824L195.61 91.584C195.098 91.952 194.346 92.128 193.578 92.128C191.546 92.128 190.362 91.088 190.362 89.04V85.504H189.034V83.584H190.362V81.488H192.858V83.584H195.002V85.504H192.858V89.008C192.858 89.744 193.258 90.144 193.93 90.144C194.298 90.144 194.666 90.032 194.938 89.824Z" fill="#262626"/>
<path d="M59.188 53.92H68.428V57H53.98V54.564L61.764 47.172C63.668 45.352 64.004 44.204 64.004 43.112C64.004 41.32 62.772 40.284 60.364 40.284C58.46 40.284 56.864 40.928 55.772 42.328L53.224 40.368C54.736 38.324 57.452 37.12 60.672 37.12C64.928 37.12 67.672 39.276 67.672 42.748C67.672 44.652 67.14 46.388 64.424 48.936L59.188 53.92ZM87.5907 49.468V52.548H84.1187V57H80.5907V52.548H69.8387V50.028L79.4987 37.4H83.3907L74.2907 49.468H80.7027V45.52H84.1187V49.468H87.5907ZM87.7616 59.8L97.0016 33.424H100.138L90.8976 59.8H87.7616ZM100.05 37.4H115.282V39.836L107.666 57H103.774L111.138 40.48H103.438V43.812H100.05V37.4ZM132.747 57.28C129.695 57.28 126.643 56.328 125.019 54.928L126.279 52.1C127.847 53.36 130.339 54.256 132.747 54.256C135.799 54.256 137.087 53.164 137.087 51.708C137.087 47.48 125.439 50.252 125.439 42.972C125.439 39.808 127.959 37.12 133.335 37.12C135.687 37.12 138.151 37.736 139.859 38.856L138.711 41.684C136.947 40.648 135.015 40.144 133.307 40.144C130.283 40.144 129.051 41.32 129.051 42.804C129.051 46.976 140.671 44.26 140.671 51.456C140.671 54.592 138.123 57.28 132.747 57.28ZM154.92 42.048H158.42V57H155.088V55.096C153.968 56.468 152.204 57.196 150.272 57.196C146.436 57.196 143.832 55.096 143.832 50.588V42.048H147.332V50.112C147.332 52.828 148.62 54.116 150.832 54.116C153.268 54.116 154.92 52.604 154.92 49.608V42.048ZM171.291 41.88C175.659 41.88 178.879 44.904 178.879 49.524C178.879 54.172 175.659 57.196 171.291 57.196C169.387 57.196 167.707 56.552 166.503 55.18V62.432H163.003V42.048H166.335V44.008C167.511 42.58 169.247 41.88 171.291 41.88ZM170.899 54.2C173.419 54.2 175.323 52.38 175.323 49.524C175.323 46.668 173.419 44.848 170.899 44.848C168.379 44.848 166.447 46.668 166.447 49.524C166.447 52.38 168.379 54.2 170.899 54.2ZM190.486 41.88C194.854 41.88 198.074 44.904 198.074 49.524C198.074 54.172 194.854 57.196 190.486 57.196C188.582 57.196 186.902 56.552 185.698 55.18V62.432H182.198V42.048H185.53V44.008C186.706 42.58 188.442 41.88 190.486 41.88ZM190.094 54.2C192.614 54.2 194.518 52.38 194.518 49.524C194.518 46.668 192.614 44.848 190.094 44.848C187.574 44.848 185.642 46.668 185.642 49.524C185.642 52.38 187.574 54.2 190.094 54.2ZM208.114 57.196C203.522 57.196 200.162 54.004 200.162 49.524C200.162 45.044 203.522 41.88 208.114 41.88C212.762 41.88 216.094 45.044 216.094 49.524C216.094 54.004 212.762 57.196 208.114 57.196ZM208.114 54.2C210.662 54.2 212.566 52.38 212.566 49.524C212.566 46.668 210.662 44.848 208.114 44.848C205.594 44.848 203.69 46.668 203.69 49.524C203.69 52.38 205.594 54.2 208.114 54.2ZM222.773 44.232C223.781 42.664 225.601 41.88 228.093 41.88V45.212C227.785 45.156 227.533 45.128 227.281 45.128C224.621 45.128 222.941 46.696 222.941 49.748V57H219.441V42.048H222.773V44.232ZM239.617 53.696L240.597 56.188C239.757 56.86 238.497 57.196 237.237 57.196C233.961 57.196 232.085 55.46 232.085 52.156V44.96H229.621V42.16H232.085V38.744H235.585V42.16H239.589V44.96H235.585V52.072C235.585 53.528 236.312 54.312 237.657 54.312C238.385 54.312 239.085 54.116 239.617 53.696Z" fill="#262626"/>
<path d="M59.048 111.8C61.96 111.8 63.72 113.272 63.72 115.704C63.72 118.136 61.96 119.608 59.048 119.608H56.28V123H54.68V111.8H59.048ZM59 118.216C61.048 118.216 62.12 117.304 62.12 115.704C62.12 114.104 61.048 113.192 59 113.192H56.28V118.216H59ZM67.178 115.944C67.722 114.952 68.778 114.44 70.266 114.44V115.928C70.138 115.912 70.026 115.912 69.914 115.912C68.266 115.912 67.242 116.92 67.242 118.776V123H65.706V114.52H67.178V115.944ZM75.713 123.096C73.169 123.096 71.297 121.288 71.297 118.76C71.297 116.232 73.169 114.44 75.713 114.44C78.257 114.44 80.113 116.232 80.113 118.76C80.113 121.288 78.257 123.096 75.713 123.096ZM75.713 121.752C77.345 121.752 78.561 120.568 78.561 118.76C78.561 116.952 77.345 115.784 75.713 115.784C74.081 115.784 72.849 116.952 72.849 118.76C72.849 120.568 74.081 121.752 75.713 121.752ZM86.5253 121.4L87.0053 122.504C86.5413 122.904 85.8373 123.096 85.1493 123.096C83.4373 123.096 82.4613 122.152 82.4613 120.44V115.784H81.0213V114.52H82.4613V112.664H83.9973V114.52H86.4293V115.784H83.9973V120.376C83.9973 121.288 84.4773 121.8 85.3253 121.8C85.7733 121.8 86.2053 121.656 86.5253 121.4ZM96.245 118.808C96.245 118.936 96.229 119.128 96.213 119.272H89.333C89.525 120.76 90.725 121.752 92.405 121.752C93.397 121.752 94.229 121.416 94.853 120.728L95.701 121.72C94.933 122.616 93.765 123.096 92.357 123.096C89.621 123.096 87.797 121.288 87.797 118.76C87.797 116.248 89.605 114.44 92.053 114.44C94.501 114.44 96.245 116.2 96.245 118.808ZM92.053 115.736C90.581 115.736 89.493 116.728 89.333 118.168H94.773C94.613 116.744 93.541 115.736 92.053 115.736ZM102.074 123.096C99.4659 123.096 97.5939 121.288 97.5939 118.76C97.5939 116.232 99.4659 114.44 102.074 114.44C103.594 114.44 104.858 115.064 105.53 116.248L104.362 117C103.818 116.168 102.986 115.784 102.058 115.784C100.394 115.784 99.1459 116.952 99.1459 118.76C99.1459 120.6 100.394 121.752 102.058 121.752C102.986 121.752 103.818 121.368 104.362 120.536L105.53 121.272C104.858 122.456 103.594 123.096 102.074 123.096ZM111.916 121.4L112.396 122.504C111.932 122.904 111.228 123.096 110.54 123.096C108.828 123.096 107.852 122.152 107.852 120.44V115.784H106.412V114.52H107.852V112.664H109.388V114.52H111.82V115.784H109.388V120.376C109.388 121.288 109.868 121.8 110.716 121.8C111.164 121.8 111.596 121.656 111.916 121.4ZM124.55 114.52H126.054L121.942 123.848C121.19 125.64 120.214 126.2 118.918 126.2C118.102 126.2 117.27 125.928 116.742 125.416L117.398 124.264C117.814 124.664 118.342 124.888 118.918 124.888C119.654 124.888 120.118 124.552 120.534 123.576L120.806 122.984L117.062 114.52H118.662L121.622 121.304L124.55 114.52ZM130.885 123.096C128.341 123.096 126.469 121.288 126.469 118.76C126.469 116.232 128.341 114.44 130.885 114.44C133.429 114.44 135.285 116.232 135.285 118.76C135.285 121.288 133.429 123.096 130.885 123.096ZM130.885 121.752C132.517 121.752 133.733 120.568 133.733 118.76C133.733 116.952 132.517 115.784 130.885 115.784C129.253 115.784 128.021 116.952 128.021 118.76C128.021 120.568 129.253 121.752 130.885 121.752ZM143.777 114.52H145.313V123H143.857V121.72C143.233 122.6 142.177 123.096 140.977 123.096C138.785 123.096 137.329 121.896 137.329 119.4V114.52H138.865V119.224C138.865 120.888 139.697 121.72 141.153 121.72C142.753 121.72 143.777 120.728 143.777 118.904V114.52ZM149.709 115.944C150.253 114.952 151.309 114.44 152.797 114.44V115.928C152.669 115.912 152.557 115.912 152.445 115.912C150.797 115.912 149.773 116.92 149.773 118.776V123H148.237V114.52H149.709V115.944ZM162.185 114.44C164.505 114.44 165.817 115.56 165.817 117.88V123H164.361V121.88C163.849 122.648 162.905 123.096 161.577 123.096C159.657 123.096 158.441 122.072 158.441 120.6C158.441 119.24 159.321 118.12 161.849 118.12H164.281V117.816C164.281 116.52 163.529 115.768 162.009 115.768C161.001 115.768 159.977 116.12 159.321 116.68L158.681 115.528C159.561 114.824 160.825 114.44 162.185 114.44ZM161.833 121.912C162.985 121.912 163.897 121.384 164.281 120.408V119.224H161.913C160.393 119.224 159.961 119.816 159.961 120.536C159.961 121.384 160.665 121.912 161.833 121.912ZM172.402 123.096C169.794 123.096 167.922 121.288 167.922 118.76C167.922 116.232 169.794 114.44 172.402 114.44C173.922 114.44 175.186 115.064 175.858 116.248L174.69 117C174.146 116.168 173.314 115.784 172.386 115.784C170.722 115.784 169.474 116.952 169.474 118.76C169.474 120.6 170.722 121.752 172.386 121.752C173.314 121.752 174.146 121.368 174.69 120.536L175.858 121.272C175.186 122.456 173.922 123.096 172.402 123.096ZM181.418 123.096C178.81 123.096 176.938 121.288 176.938 118.76C176.938 116.232 178.81 114.44 181.418 114.44C182.938 114.44 184.202 115.064 184.874 116.248L183.706 117C183.162 116.168 182.33 115.784 181.402 115.784C179.738 115.784 178.49 116.952 178.49 118.76C178.49 120.6 179.738 121.752 181.402 121.752C182.33 121.752 183.162 121.368 183.706 120.536L184.874 121.272C184.202 122.456 182.938 123.096 181.418 123.096ZM190.369 123.096C187.825 123.096 185.953 121.288 185.953 118.76C185.953 116.232 187.825 114.44 190.369 114.44C192.913 114.44 194.769 116.232 194.769 118.76C194.769 121.288 192.913 123.096 190.369 123.096ZM190.369 121.752C192.001 121.752 193.217 120.568 193.217 118.76C193.217 116.952 192.001 115.784 190.369 115.784C188.737 115.784 187.505 116.952 187.505 118.76C187.505 120.568 188.737 121.752 190.369 121.752ZM203.262 114.52H204.798V123H203.342V121.72C202.718 122.6 201.662 123.096 200.462 123.096C198.27 123.096 196.814 121.896 196.814 119.4V114.52H198.35V119.224C198.35 120.888 199.182 121.72 200.638 121.72C202.238 121.72 203.262 120.728 203.262 118.904V114.52ZM212.25 114.44C214.314 114.44 215.77 115.624 215.77 118.12V123H214.234V118.296C214.234 116.632 213.402 115.816 211.946 115.816C210.314 115.816 209.258 116.792 209.258 118.632V123H207.722V114.52H209.194V115.8C209.818 114.936 210.906 114.44 212.25 114.44ZM222.9 121.4L223.38 122.504C222.916 122.904 222.212 123.096 221.524 123.096C219.812 123.096 218.836 122.152 218.836 120.44V115.784H217.396V114.52H218.836V112.664H220.372V114.52H222.804V115.784H220.372V120.376C220.372 121.288 220.852 121.8 221.7 121.8C222.148 121.8 222.58 121.656 222.9 121.4ZM232.622 114.44C234.942 114.44 236.254 115.56 236.254 117.88V123H234.798V121.88C234.286 122.648 233.342 123.096 232.014 123.096C230.094 123.096 228.878 122.072 228.878 120.6C228.878 119.24 229.758 118.12 232.286 118.12H234.718V117.816C234.718 116.52 233.966 115.768 232.446 115.768C231.438 115.768 230.414 116.12 229.758 116.68L229.118 115.528C229.998 114.824 231.262 114.44 232.622 114.44ZM232.27 121.912C233.422 121.912 234.334 121.384 234.718 120.408V119.224H232.35C230.83 119.224 230.398 119.816 230.398 120.536C230.398 121.384 231.102 121.912 232.27 121.912ZM243.625 114.44C245.689 114.44 247.145 115.624 247.145 118.12V123H245.609V118.296C245.609 116.632 244.777 115.816 243.321 115.816C241.689 115.816 240.633 116.792 240.633 118.632V123H239.097V114.52H240.569V115.8C241.193 114.936 242.281 114.44 243.625 114.44ZM256.498 111.128H258.034V123H256.562V121.656C255.874 122.616 254.786 123.096 253.538 123.096C251.058 123.096 249.25 121.352 249.25 118.76C249.25 116.168 251.058 114.44 253.538 114.44C254.738 114.44 255.794 114.888 256.498 115.8V111.128ZM253.666 121.752C255.282 121.752 256.514 120.568 256.514 118.76C256.514 116.952 255.282 115.784 253.666 115.784C252.034 115.784 250.802 116.952 250.802 118.76C250.802 120.568 252.034 121.752 253.666 121.752ZM269.525 121.4L270.005 122.504C269.541 122.904 268.837 123.096 268.149 123.096C266.437 123.096 265.461 122.152 265.461 120.44V115.784H264.021V114.52H265.461V112.664H266.997V114.52H269.429V115.784H266.997V120.376C266.997 121.288 267.477 121.8 268.325 121.8C268.773 121.8 269.205 121.656 269.525 121.4ZM273.334 115.944C273.878 114.952 274.934 114.44 276.422 114.44V115.928C276.294 115.912 276.182 115.912 276.07 115.912C274.422 115.912 273.398 116.92 273.398 118.776V123H271.862V114.52H273.334V115.944ZM281.388 114.44C283.708 114.44 285.02 115.56 285.02 117.88V123H283.564V121.88C283.052 122.648 282.108 123.096 280.78 123.096C278.86 123.096 277.644 122.072 277.644 120.6C277.644 119.24 278.524 118.12 281.052 118.12H283.484V117.816C283.484 116.52 282.732 115.768 281.212 115.768C280.204 115.768 279.18 116.12 278.524 116.68L277.884 115.528C278.764 114.824 280.028 114.44 281.388 114.44ZM281.036 121.912C282.188 121.912 283.1 121.384 283.484 120.408V119.224H281.116C279.596 119.224 279.164 119.816 279.164 120.536C279.164 121.384 279.868 121.912 281.036 121.912ZM292.39 114.44C294.454 114.44 295.91 115.624 295.91 118.12V123H294.374V118.296C294.374 116.632 293.542 115.816 292.086 115.816C290.454 115.816 289.398 116.792 289.398 118.632V123H287.862V114.52H289.334V115.8C289.958 114.936 291.046 114.44 292.39 114.44ZM301.185 123.096C299.777 123.096 298.385 122.664 297.681 122.104L298.321 120.888C299.041 121.4 300.193 121.768 301.297 121.768C302.721 121.768 303.313 121.336 303.313 120.616C303.313 118.712 297.953 120.36 297.953 116.984C297.953 115.464 299.313 114.44 301.489 114.44C302.593 114.44 303.841 114.728 304.577 115.208L303.921 116.424C303.153 115.928 302.305 115.752 301.473 115.752C300.129 115.752 299.473 116.248 299.473 116.92C299.473 118.92 304.849 117.288 304.849 120.584C304.849 122.12 303.441 123.096 301.185 123.096ZM309.857 114.44C312.177 114.44 313.489 115.56 313.489 117.88V123H312.033V121.88C311.521 122.648 310.577 123.096 309.249 123.096C307.329 123.096 306.113 122.072 306.113 120.6C306.113 119.24 306.993 118.12 309.521 118.12H311.953V117.816C311.953 116.52 311.201 115.768 309.681 115.768C308.673 115.768 307.649 116.12 306.993 116.68L306.353 115.528C307.233 114.824 308.497 114.44 309.857 114.44ZM309.505 121.912C310.657 121.912 311.569 121.384 311.953 120.408V119.224H309.585C308.065 119.224 307.633 119.816 307.633 120.536C307.633 121.384 308.337 121.912 309.505 121.912ZM320.074 123.096C317.466 123.096 315.594 121.288 315.594 118.76C315.594 116.232 317.466 114.44 320.074 114.44C321.594 114.44 322.858 115.064 323.53 116.248L322.362 117C321.818 116.168 320.986 115.784 320.058 115.784C318.394 115.784 317.146 116.952 317.146 118.76C317.146 120.6 318.394 121.752 320.058 121.752C320.986 121.752 321.818 121.368 322.362 120.536L323.53 121.272C322.858 122.456 321.594 123.096 320.074 123.096ZM329.916 121.4L330.396 122.504C329.932 122.904 329.228 123.096 328.54 123.096C326.828 123.096 325.852 122.152 325.852 120.44V115.784H324.412V114.52H325.852V112.664H327.388V114.52H329.82V115.784H327.388V120.376C327.388 121.288 327.868 121.8 328.716 121.8C329.164 121.8 329.596 121.656 329.916 121.4ZM333.021 112.888C332.429 112.888 331.981 112.456 331.981 111.896C331.981 111.336 332.429 110.888 333.021 110.888C333.613 110.888 334.061 111.32 334.061 111.864C334.061 112.44 333.629 112.888 333.021 112.888ZM332.253 123V114.52H333.789V123H332.253ZM340.354 123.096C337.81 123.096 335.938 121.288 335.938 118.76C335.938 116.232 337.81 114.44 340.354 114.44C342.898 114.44 344.754 116.232 344.754 118.76C344.754 121.288 342.898 123.096 340.354 123.096ZM340.354 121.752C341.986 121.752 343.202 120.568 343.202 118.76C343.202 116.952 341.986 115.784 340.354 115.784C338.722 115.784 337.49 116.952 337.49 118.76C337.49 120.568 338.722 121.752 340.354 121.752ZM351.406 114.44C353.47 114.44 354.926 115.624 354.926 118.12V123H353.39V118.296C353.39 116.632 352.558 115.816 351.102 115.816C349.47 115.816 348.414 116.792 348.414 118.632V123H346.878V114.52H348.35V115.8C348.974 114.936 350.062 114.44 351.406 114.44ZM360.201 123.096C358.793 123.096 357.401 122.664 356.697 122.104L357.337 120.888C358.057 121.4 359.209 121.768 360.312 121.768C361.737 121.768 362.329 121.336 362.329 120.616C362.329 118.712 356.969 120.36 356.969 116.984C356.969 115.464 358.329 114.44 360.505 114.44C361.609 114.44 362.857 114.728 363.593 115.208L362.937 116.424C362.169 115.928 361.321 115.752 360.489 115.752C359.145 115.752 358.489 116.248 358.489 116.92C358.489 118.92 363.865 117.288 363.865 120.584C363.865 122.12 362.457 123.096 360.201 123.096ZM381.537 114.52H382.913L379.745 123H378.273L375.825 116.568L373.345 123H371.873L368.721 114.52H370.177L372.641 121.272L375.201 114.52H376.497L379.009 121.304L381.537 114.52ZM385.24 112.888C384.648 112.888 384.2 112.456 384.2 111.896C384.2 111.336 384.648 110.888 385.24 110.888C385.832 110.888 386.28 111.32 386.28 111.864C386.28 112.44 385.848 112.888 385.24 112.888ZM384.472 123V114.52H386.008V123H384.472ZM393.228 121.4L393.708 122.504C393.244 122.904 392.54 123.096 391.852 123.096C390.14 123.096 389.164 122.152 389.164 120.44V115.784H387.724V114.52H389.164V112.664H390.7V114.52H393.132V115.784H390.7V120.376C390.7 121.288 391.18 121.8 392.028 121.8C392.476 121.8 392.908 121.656 393.228 121.4ZM400.093 114.44C402.157 114.44 403.613 115.624 403.613 118.12V123H402.077V118.296C402.077 116.632 401.245 115.816 399.789 115.816C398.157 115.816 397.101 116.792 397.101 118.632V123H395.565V111.128H397.101V115.72C397.741 114.904 398.797 114.44 400.093 114.44ZM412.193 121.608H417.937V123H409.889V121.912L414.449 117.512C415.633 116.36 415.857 115.656 415.857 114.952C415.857 113.8 415.041 113.096 413.473 113.096C412.273 113.096 411.297 113.48 410.609 114.312L409.521 113.368C410.385 112.296 411.873 111.672 413.617 111.672C415.953 111.672 417.457 112.872 417.457 114.792C417.457 115.88 417.137 116.856 415.617 118.312L412.193 121.608ZM428.068 113.192H421.764V117.096H427.38V118.472H421.764V123H420.164V111.8H428.068V113.192ZM438.173 123L436.941 120.2H430.989L429.757 123H428.109L433.181 111.8H434.765L439.853 123H438.173ZM431.549 118.92H436.381L433.965 113.432L431.549 118.92ZM442.199 123.096C441.607 123.096 441.111 122.632 441.111 121.992C441.111 121.352 441.607 120.904 442.199 120.904C442.775 120.904 443.255 121.352 443.255 121.992C443.255 122.632 442.775 123.096 442.199 123.096Z" fill="#959595"/>
<g clip-path="url(#clip1_3311_2202)">
<path d="M1053.98 120.69C1038.68 151.282 1000.19 163.104 967.99 147.101C935.79 131.098 912.657 97.7302 929.779 68.1206C942.344 46.3952 963.857 60.4704 986.773 52.43C1003.99 46.3906 1008.29 30.9525 1028.47 32.3614C1068.8 35.1746 1069.27 90.0984 1053.97 120.69H1053.98Z" fill="url(#paint2_linear_3311_2202)"/>
<path d="M1067.33 146.876C1067.33 153.42 1030.81 161.204 985.044 154.306C937.016 147.064 909 152.916 909 146.371C909 139.827 936.468 135.628 985.044 135.628C1033.62 135.628 1067.33 140.336 1067.33 146.881V146.876Z" fill="#EAF9FF"/>
<path d="M989.66 24.6104C988.992 24.6104 988.357 24.7389 987.768 24.9592C987.772 24.8444 987.777 24.7297 987.777 24.6104C987.777 20.0441 984.067 16.3452 979.488 16.3452C974.908 16.3452 971.567 19.6908 971.226 23.945C970.237 22.995 968.893 22.4076 967.411 22.4076C965.229 22.4076 963.351 23.6742 962.458 25.5053C961.358 23.1418 958.965 21.4989 956.18 21.4989C952.355 21.4989 949.258 24.592 949.258 28.4011C949.258 32.2101 952.36 35.3033 956.18 35.3033H989.66C992.624 35.3033 995.022 32.9077 995.022 29.9568C995.022 27.006 992.619 24.6104 989.66 24.6104Z" fill="#BFFFFA"/>
<path d="M1038.19 9.96599C1037.71 9.96599 1037.25 10.0578 1036.82 10.2184C1036.82 10.1358 1036.83 10.0532 1036.83 9.96599C1036.83 6.67093 1034.15 4 1030.85 4C1027.54 4 1025.13 6.41393 1024.88 9.48412C1024.17 8.80032 1023.2 8.37353 1022.13 8.37353C1020.55 8.37353 1019.2 9.28678 1018.55 10.6085C1017.76 8.90129 1016.03 7.71727 1014.02 7.71727C1011.26 7.71727 1009.02 9.94763 1009.02 12.7012C1009.02 15.4547 1011.26 17.6851 1014.02 17.6851H1038.19C1040.33 17.6851 1042.07 15.9549 1042.07 13.8255C1042.07 11.6961 1040.33 9.9614 1038.19 9.9614V9.96599Z" fill="url(#paint3_linear_3311_2202)"/>
<path d="M1010.46 119.951C1010.46 119.951 1040.01 126.192 1053.78 111.442C1064.81 99.6297 1072.14 99.9922 1075.72 103.228C1081.25 108.239 1069.29 131.529 1031.87 134.508C994.448 137.486 1010.46 119.946 1010.46 119.946V119.951Z" fill="url(#paint4_linear_3311_2202)"/>
<path d="M1019.5 123.723C1018.71 123.636 1017.92 123.539 1017.12 123.42C1017.03 123.406 1016.96 123.315 1016.97 123.218C1016.98 123.122 1017.08 123.062 1017.17 123.067C1033.42 125.416 1046.74 121.332 1055.05 117.486C1064.05 113.324 1069.26 108.546 1069.31 108.501C1069.39 108.432 1069.5 108.436 1069.56 108.51C1069.63 108.583 1069.63 108.698 1069.56 108.762C1069.5 108.808 1064.25 113.622 1055.2 117.812C1047.26 121.488 1034.76 125.384 1019.5 123.723Z" fill="#F1F1F1"/>
<path d="M1015.19 130.749C1015.19 130.749 1039.77 117.445 1046.46 99.6889C1052.39 83.9892 1058.9 79.9553 1062.48 79.8727C1071.22 79.6707 1070.68 98.8674 1039.49 124.044C1008.31 149.22 1015.19 130.753 1015.19 130.753V130.749Z" fill="url(#paint5_linear_3311_2202)"/>
<path d="M1024.05 125.857C1024.01 125.843 1023.97 125.815 1023.95 125.779C1023.89 125.692 1023.92 125.581 1024.01 125.535C1054.09 109.34 1060.79 85.1825 1060.85 84.9393C1060.88 84.8429 1060.98 84.7832 1061.09 84.8062C1061.18 84.8245 1061.26 84.9255 1061.23 85.0219C1061.21 85.0815 1059.55 91.2127 1054.18 99.2668C1049.22 106.697 1039.99 117.339 1024.21 125.838C1024.16 125.866 1024.1 125.871 1024.05 125.852L1024.05 125.857Z" fill="#F1F1F1"/>
<path d="M1027.15 143.732C1027.15 143.732 1030.39 140.726 1046.76 143.319C1060.63 145.522 1065.23 144.2 1066.47 138.611C1068.62 128.987 1044.44 125.306 1021.19 140.791C1012.78 146.385 1027.15 143.732 1027.15 143.732Z" fill="url(#paint6_linear_3311_2202)"/>
<path d="M1019.78 145.324C1019.74 145.311 1019.69 145.274 1019.67 145.219C1019.62 145.113 1019.65 144.976 1019.74 144.916C1039.78 130.978 1059.82 137.435 1060.02 137.495C1060.12 137.527 1060.18 137.651 1060.15 137.766C1060.13 137.885 1060.03 137.954 1059.93 137.922C1059.73 137.853 1039.83 131.456 1019.92 145.301C1019.88 145.329 1019.83 145.338 1019.79 145.324H1019.78Z" fill="#F1F1F1"/>
<path d="M981.498 126.738C981.498 126.738 952.415 134.884 937.714 121.066C925.936 109.997 918.641 110.837 915.29 114.297C910.098 119.657 924.159 137.587 961.698 138.129C999.232 138.67 981.503 126.738 981.503 126.738H981.498Z" fill="url(#paint7_linear_3311_2202)"/>
<path d="M972.725 131.094C957.605 133.742 944.879 130.667 936.714 127.514C927.412 123.925 921.852 119.46 921.797 119.419C921.719 119.355 921.71 119.244 921.769 119.166C921.834 119.088 921.944 119.079 922.023 119.139C922.078 119.185 927.601 123.613 936.857 127.184C945.395 130.474 958.94 133.687 975.003 130.286C975.095 130.272 975.196 130.327 975.215 130.424C975.233 130.52 975.173 130.617 975.077 130.635C974.285 130.8 973.503 130.956 972.725 131.089V131.094Z" fill="#E8E8E8"/>
<path d="M972.091 128.469C972.091 128.469 946.947 121.686 937.853 105.224C929.812 90.6674 923.212 87.6981 919.939 88.1708C911.968 89.3273 916.579 106.794 948.305 128.148C974.315 145.655 972.091 128.469 972.091 128.469Z" fill="url(#paint8_linear_3311_2202)"/>
<path d="M962.655 127.546C962.609 127.569 962.559 127.574 962.508 127.556C946.721 121.622 936.535 112.563 930.773 106.005C924.523 98.8959 921.977 93.1135 921.95 93.0538C921.908 92.962 921.95 92.8565 922.042 92.8197C922.134 92.7784 922.24 92.8197 922.276 92.9115C922.299 92.9666 924.836 98.7123 931.049 105.78C936.784 112.301 946.919 121.314 962.632 127.221C962.724 127.257 962.77 127.358 962.738 127.45C962.724 127.491 962.692 127.523 962.655 127.542V127.546Z" fill="#E8E8E8"/>
<path d="M975.083 121.979C975.083 121.979 955.255 109.855 954.868 94.1228C954.56 81.5163 949.4 76.0459 944.66 75.9174C938.732 75.7522 936.26 90.3184 959.181 117.574C969.486 129.827 975.083 121.984 975.083 121.984V121.979Z" fill="url(#paint9_linear_3311_2202)"/>
<path d="M965.731 123.643C965.688 123.639 965.647 123.617 965.617 123.589C954.572 112.294 950.353 100.833 948.765 93.205C947.041 84.9354 947.945 79.2549 947.954 79.1952C947.969 79.099 948.06 79.036 948.158 79.0468C948.254 79.0621 948.322 79.1549 948.307 79.2511C948.3 79.3065 947.402 84.9359 949.12 93.1461C950.7 100.723 954.894 112.11 965.873 123.336C965.943 123.406 965.942 123.52 965.872 123.59C965.832 123.626 965.783 123.644 965.732 123.638L965.731 123.643Z" fill="#E8E8E8"/>
<g style="mix-blend-mode:multiply">
<path d="M1031.66 58.9691C1031.6 65.3684 1037.71 70.936 1036.65 77.2441C1036.08 80.619 1033.49 84.0412 1035 87.1205C1036.33 89.8459 1040.14 90.3165 1043.05 89.43C1049.87 87.354 1054.02 80.4256 1056 73.6139C1057.86 67.2073 1058.33 60.0526 1055.34 54.0801C1052.93 49.2678 1047.38 45.021 1041.74 45.4151C1036.58 45.7763 1031.7 54.1495 1031.65 58.9654L1031.66 58.9691Z" fill="#4DCFC4"/>
</g>
<g style="mix-blend-mode:multiply">
<path d="M942.493 47.1849C937.939 54.7408 937.733 64.7011 941.972 72.4358C943.312 74.8803 945.121 77.1569 947.566 78.5178C950.01 79.8787 953.162 80.1815 955.592 78.8024C959.281 76.7118 960.095 71.7791 959.802 67.5651C959.508 63.3548 958.547 58.9402 960.18 55.04C961.244 52.5007 963.285 50.5196 965.098 48.44C966.911 46.3603 968.599 43.9305 968.694 41.1795C968.937 34.0505 961.325 34.5831 956.733 36.0644C950.876 37.9543 945.668 41.9202 942.49 47.1885L942.493 47.1849Z" fill="url(#paint10_linear_3311_2202)"/>
</g>
<g style="mix-blend-mode:multiply">
<path d="M1038.56 142.533L1038.07 142.088C1039.42 140.625 1041.56 137.272 1040.84 131.245C1040.51 128.56 1039.71 125.911 1038.94 123.346C1038.59 122.201 1038.23 121.018 1037.92 119.84C1034.58 107.293 1036.04 93.4508 1041.93 81.8669C1042.45 80.8381 1043.01 79.8055 1043.56 78.8095C1045.19 75.8506 1046.86 72.7932 1047.58 69.4914C1048.85 63.694 1046.35 59.3487 1043.49 57.7653C1040.75 56.2439 1036.88 56.4774 1032.87 58.4037C1031.41 59.1079 1029.99 59.9689 1028.61 60.8008C1026.78 61.9026 1024.9 63.0409 1022.88 63.8472C1014.93 67.0177 1004.99 64.3215 999.758 57.5792C997.244 54.3394 995.824 50.4209 994.451 46.6338C993.919 45.1672 993.368 43.6494 992.763 42.1973C990.88 37.6805 987.438 32.0145 981.72 30.6573C976.695 29.4642 971.605 32.0838 968.217 34.4918C961.743 39.0961 957.178 45.335 955.365 52.0554C954.142 56.5868 954.091 61.5195 954.043 66.288C953.974 73.3916 953.9 80.7359 949.863 86.6537C948.028 89.3462 945.503 91.4915 943.062 93.5675C940.776 95.5121 938.412 97.5224 936.647 99.9596C932.654 105.483 931.674 113.302 933.96 121.412C936.016 128.698 940.203 135.167 944.255 141.421L943.697 141.778C939.62 135.485 935.403 128.976 933.322 121.591C930.98 113.287 931.997 105.261 936.107 99.5765C937.917 97.0737 940.313 95.0378 942.629 93.0677C945.037 91.0209 947.529 88.9011 949.313 86.2852C953.236 80.5352 953.306 73.6105 953.379 66.2844C953.427 61.4721 953.478 56.4993 954.722 51.8876C956.576 45.0212 961.229 38.6547 967.828 33.9591C971.326 31.4709 976.6 28.771 981.87 30.0188C987.863 31.438 991.431 37.2902 993.372 41.9456C993.981 43.4123 994.536 44.9373 995.071 46.4113C996.426 50.1509 997.828 54.0183 1000.28 57.1779C1005.34 63.6976 1014.95 66.3026 1022.63 63.2379C1024.6 62.4535 1026.46 61.3298 1028.26 60.2426C1029.65 59.3998 1031.09 58.5314 1032.58 57.8127C1036.78 55.7914 1040.87 55.5652 1043.81 57.1925C1046.87 58.8926 1049.57 63.5079 1048.23 69.6337C1047.49 73.0304 1045.79 76.1316 1044.14 79.1306C1043.6 80.123 1043.04 81.1518 1042.52 82.1697C1036.71 93.6149 1035.26 107.286 1038.56 119.679C1038.87 120.843 1039.23 122.025 1039.58 123.164C1040.36 125.754 1041.17 128.432 1041.5 131.172C1042.26 137.462 1039.99 140.994 1038.57 142.537L1038.56 142.533Z" fill="#E0E8FF"/>
</g>
<path d="M1060.16 145.357H927.302C925.941 145.357 924.84 144.259 924.84 142.909C924.84 141.555 925.945 140.461 927.302 140.461H1060.16C1061.52 140.461 1062.62 141.559 1062.62 142.909C1062.62 144.263 1061.51 145.357 1060.16 145.357Z" fill="#35B5AA"/>
<path d="M966.941 107.238C964.225 105.651 962.232 102.882 961.601 99.8136C960.969 96.7452 961.704 93.4215 963.572 90.9004C965.025 88.9412 967.205 87.2629 967.477 84.844C967.759 82.3375 965.873 80.163 965.003 77.7915C963.942 74.9019 964.489 71.487 966.401 69.0681C967.781 67.3205 969.822 66.0508 970.743 64.0259C971.323 62.7526 971.393 61.3188 971.554 59.9287C971.716 58.5386 972.009 57.0902 972.93 56.0322C973.852 54.9741 975.577 54.4925 976.696 55.3389C978.821 53.1608 981.32 50.5157 984.135 49.3409C986.95 48.1661 990.33 48.0019 992.965 49.5343C995.05 50.7492 996.437 52.8471 998.265 54.4122C999.836 55.7585 1001.72 56.6925 1003.41 57.8819C1005.11 59.0713 1006.69 60.6255 1007.21 62.6213C1008.06 65.9049 1005.86 69.1994 1005.76 72.5888C1005.66 75.8797 1007.54 78.9152 1007.96 82.1842C1008.38 85.5007 1007.26 88.8646 1005.48 91.6994C1003.7 94.5379 1001.31 96.9276 998.933 99.2918C997.971 103.564 994.804 106.589 990.763 108.329C986.723 110.069 982.205 110.369 977.804 110.208C974.222 110.08 970.031 109.044 966.937 107.235L966.941 107.238Z" fill="#6B3C00"/>
<path d="M971.854 98.6025C970.94 97.3985 970.966 95.7166 971.347 94.2572C971.729 92.7978 972.423 91.4223 972.724 89.9447C973.131 87.9454 972.805 85.8767 972.39 83.8773C971.971 81.8816 971.461 79.8786 971.498 77.8392C971.535 75.7997 972.206 73.669 973.777 72.3555C979.279 67.7512 988.19 69.3529 995.343 70.1008C998.958 70.4802 1001.43 73.9463 1002.58 77.3758C1003.72 80.8054 1003.33 84.6253 1001.97 87.9746C1000.6 91.3238 998.315 94.2389 995.717 96.7673C994.168 98.2741 991.423 97.0665 989.294 97.4788C987.21 97.8874 985.411 99.1498 983.448 99.967C980.317 101.273 976.702 101.401 973.487 100.321C972.544 100.004 971.748 99.5876 971.854 98.6025Z" fill="#593200"/>
<path d="M1011.36 102.156C1008.77 98.8287 1005.04 96.4025 1000.93 95.3809C999.047 94.9139 997.094 94.7315 995.237 94.155C994.712 93.9909 994.195 93.7829 993.696 93.5385C992.969 90.7182 992.609 87.8067 992.631 84.8989H981.764C981.786 87.8067 981.426 90.7219 980.7 93.5385C980.201 93.7829 979.683 93.9909 979.158 94.155C977.305 94.7315 975.349 94.9139 973.462 95.3809C969.359 96.4025 965.627 98.8287 963.039 102.156C960.452 105.483 959.035 109.687 959.079 113.893V140.589L1007.56 139.885C1011.86 139.823 1015.31 136.338 1015.31 132.062V113.893C1015.35 109.69 1013.93 105.483 1011.35 102.156H1011.36Z" fill="#FFC582"/>
<path d="M992.503 138.863C993.428 136.451 993.508 133.817 993.842 131.256C994.485 126.345 996.096 121.621 997.241 116.801C998.382 111.981 999.395 106.728 998.144 101.937C991.075 102.78 983.904 102.769 976.839 101.904C974.163 103.021 972.776 106.374 972.281 109.216C971.785 112.054 972.148 114.966 972.203 117.848C972.262 121 971.954 124.156 972.104 127.305C972.255 130.453 972.908 133.679 974.699 136.28C975.807 137.889 977.294 139.177 978.909 140.301L991.916 140.111C992.143 139.71 992.345 139.29 992.506 138.863H992.503Z" fill="white"/>
<path d="M972.283 111.726C972.778 108.887 974.169 105.531 976.841 104.414C983.906 105.279 991.077 105.293 998.146 104.447C998.451 105.611 998.619 106.804 998.685 108.012C998.788 105.95 998.66 103.903 998.146 101.933C991.077 102.776 983.906 102.765 976.841 101.9C974.165 103.017 972.778 106.37 972.283 109.212C972.011 110.77 972 112.35 972.051 113.933C972.085 113.192 972.154 112.455 972.283 111.726Z" fill="#EDEDED"/>
<path d="M972.202 120.354C972.202 120.256 972.194 120.157 972.194 120.059C972.147 122.222 972.025 124.386 972.08 126.546C972.125 124.484 972.242 122.419 972.205 120.354H972.202Z" fill="#EDEDED"/>
<path d="M981.48 89.4923C985.382 89.4558 989.272 88.4051 992.66 86.4824C992.638 85.9533 992.627 85.428 992.63 84.8989H981.763C981.774 86.4349 981.679 87.9709 981.48 89.4923Z" fill="#94724C"/>
<path d="M976.932 70.9396C976.495 70.1296 975.963 69.3197 975.16 68.8636C974.359 68.4039 973.222 68.4075 972.605 69.0935C972.106 69.6517 972.069 70.4726 972.117 71.2205C972.209 72.7273 972.543 74.2779 973.457 75.4855C974.37 76.6932 975.971 77.4739 977.439 77.0872C977.648 75.0331 977.912 72.7601 976.929 70.9432L976.932 70.9396Z" fill="#FFC582"/>
<path d="M976.831 72.5449C976.883 72.5522 976.938 72.5631 976.989 72.5704C976.784 72.0742 976.578 71.5707 976.292 71.1183C976.002 70.6659 975.624 70.2536 975.143 70.0092C974.662 69.7647 974.071 69.6991 973.576 69.9143C973.08 70.1296 972.713 70.6513 972.757 71.1876C973.051 70.8447 973.58 70.7425 974.02 70.8337C974.46 70.925 974.842 71.2679 974.974 71.6948C974.589 71.7386 974.306 72.1253 974.229 72.5047C974.148 72.8805 974.251 73.2745 974.402 73.6321C974.49 73.8401 974.596 74.0407 974.758 74.2013C974.916 74.3618 975.132 74.4712 975.36 74.4676C975.158 74.7376 974.813 74.9492 974.475 74.9674C975.202 75.3213 976.152 75.2703 976.82 74.8178C976.919 74.0663 976.905 73.311 976.839 72.5522L976.831 72.5449Z" fill="#D6A56D"/>
<path d="M996.79 71.7277C997.226 70.9177 997.758 70.1077 998.562 69.6517C999.362 69.192 1000.5 69.1956 1001.12 69.8815C1001.62 70.4398 1001.65 71.2607 1001.6 72.0086C1001.51 73.5154 1001.18 75.066 1000.27 76.2736C999.351 77.4813 997.751 78.262 996.283 77.8753C996.074 75.8212 995.81 73.5482 996.793 71.7313L996.79 71.7277Z" fill="#FFC582"/>
<path d="M996.888 73.3329C996.837 73.3402 996.782 73.3512 996.73 73.3585C996.936 72.8623 997.142 72.3588 997.428 71.9064C997.718 71.454 998.096 71.0417 998.577 70.7973C999.057 70.5528 999.648 70.4872 1000.14 70.7024C1000.64 70.9177 1001.01 71.4394 1000.96 71.9757C1000.67 71.6328 1000.14 71.5306 999.7 71.6218C999.259 71.713 998.877 72.056 998.745 72.4829C999.131 72.5266 999.413 72.9134 999.49 73.2928C999.571 73.6686 999.468 74.0626 999.318 74.4202C999.23 74.6281 999.123 74.8288 998.962 74.9893C998.8 75.1499 998.588 75.2593 998.36 75.2557C998.562 75.5257 998.907 75.7373 999.244 75.7555C998.518 76.1094 997.567 76.0583 996.899 75.6059C996.8 74.8507 996.815 74.0991 996.881 73.3402L996.888 73.3329Z" fill="#D6A56D"/>
<path d="M975.893 75.5954C977.62 75.5954 979.019 74.2037 979.019 72.4869C979.019 70.7701 977.62 69.3784 975.893 69.3784C974.166 69.3784 972.766 70.7701 972.766 72.4869C972.766 74.2037 974.166 75.5954 975.893 75.5954Z" fill="#0094C6"/>
<path d="M998.037 75.5954C999.764 75.5954 1001.16 74.2037 1001.16 72.4869C1001.16 70.7701 999.764 69.3784 998.037 69.3784C996.31 69.3784 994.91 70.7701 994.91 72.4869C994.91 74.2037 996.31 75.5954 998.037 75.5954Z" fill="#0094C6"/>
<path d="M986.947 87.9852C993.07 87.9852 998.034 81.3484 998.034 73.1615C998.034 64.9747 993.07 58.3379 986.947 58.3379C980.823 58.3379 975.859 64.9747 975.859 73.1615C975.859 81.3484 980.823 87.9852 986.947 87.9852Z" fill="#FFC582"/>
<path d="M976.517 67.5906C976.172 67.43 976.77 66.8354 977.669 66.5909C980.059 65.9488 982.701 65.6788 984.69 67.1455C984.767 67.5541 984.243 68.0393 983.828 68.0904C983.413 68.1415 983.006 67.9737 982.613 67.8314C980.694 67.1418 978.506 67.1126 976.521 67.5869L976.517 67.5906Z" fill="#6B3C00"/>
<path d="M997.271 67.5906C997.616 67.43 997.018 66.8354 996.118 66.5909C993.729 65.9488 991.087 65.6788 989.097 67.1455C989.02 67.5541 989.545 68.0393 989.96 68.0904C990.375 68.1415 990.782 67.9737 991.175 67.8314C993.094 67.1418 995.282 67.1126 997.267 67.5869L997.271 67.5906Z" fill="#6B3C00"/>
<path d="M983.821 76.7554C983.821 77.1823 982.448 77.5289 980.76 77.5289C979.072 77.5289 977.699 77.1823 977.699 76.7554C977.699 76.3285 979.072 75.9819 980.76 75.9819C982.448 75.9819 983.821 76.3285 983.821 76.7554Z" fill="#FFA866"/>
<path d="M996.024 76.7554C996.024 77.1823 994.651 77.5289 992.963 77.5289C991.275 77.5289 989.902 77.1823 989.902 76.7554C989.902 76.3285 991.275 75.9819 992.963 75.9819C994.651 75.9819 996.024 76.3285 996.024 76.7554Z" fill="#FFA866"/>
<g style="mix-blend-mode:multiply">
<path d="M986.66 69.9546C986.954 71.9612 986.451 74.0737 985.284 75.7374C985.038 76.0876 984.751 76.4561 984.766 76.883C984.785 77.3646 985.207 77.7623 985.673 77.8973C986.139 78.0323 986.642 77.9593 987.115 77.8608" stroke="#D9D9D9" stroke-width="0.5" stroke-linecap="round" stroke-linejoin="round"/>
</g>
<path d="M980.834 75.4823C978.111 75.4823 975.895 73.2786 975.895 70.5715C975.895 67.8643 978.111 65.6606 980.834 65.6606C983.558 65.6606 985.774 67.8643 985.774 70.5715C985.774 73.2786 983.558 75.4823 980.834 75.4823ZM980.834 66.4597C978.555 66.4597 976.698 68.3058 976.698 70.5715C976.698 72.8371 978.555 74.6833 980.834 74.6833C983.114 74.6833 984.971 72.8371 984.971 70.5715C984.971 68.3058 983.114 66.4597 980.834 66.4597Z" fill="white"/>
<path d="M993.233 75.4823C990.51 75.4823 988.293 73.2786 988.293 70.5715C988.293 67.8643 990.51 65.6606 993.233 65.6606C995.956 65.6606 998.173 67.8643 998.173 70.5715C998.173 73.2786 995.956 75.4823 993.233 75.4823ZM993.233 66.4597C990.954 66.4597 989.097 68.3058 989.097 70.5715C989.097 72.8371 990.954 74.6833 993.233 74.6833C995.512 74.6833 997.369 72.8371 997.369 70.5715C997.369 68.3058 995.512 66.4597 993.233 66.4597Z" fill="white"/>
<path d="M985.607 70.8963L985.141 70.2432C985.798 69.7799 987.434 69.1852 988.928 70.2432L988.462 70.8927C987.053 69.8966 985.621 70.8817 985.607 70.8927V70.8963Z" fill="white"/>
<g style="mix-blend-mode:multiply">
<path d="M983.762 79.9551C985.85 81.1627 988.639 81.0606 990.632 79.6997" stroke="#D9D9D9" stroke-width="0.5" stroke-linecap="round" stroke-linejoin="round"/>
</g>
<g style="mix-blend-mode:multiply">
<path d="M985.938 82.3701C986.598 82.5927 987.317 82.651 988.007 82.5343" stroke="#D9D9D9" stroke-width="0.5" stroke-linecap="round" stroke-linejoin="round"/>
</g>
<path d="M971.773 73.9349C975.517 71.2278 978.413 67.3787 979.965 63.0443C982.593 65.4778 986.344 66.7876 989.929 66.6344C989.221 66.317 988.7 65.6858 988.271 65.0436C991.735 65.8572 994.715 67.9478 996.998 70.6659C997.927 71.7677 998.712 72.9973 999.758 73.986C1000.81 74.9747 1002.21 75.7263 1003.64 75.5731C1002.75 71.7823 1001.88 67.8602 1000.44 64.2373C999.556 62.0118 998.514 59.7461 996.671 58.2064C994.381 56.291 991.181 55.8058 988.197 56.0247C985.012 56.2582 981.874 57.2141 979.147 58.8595C975.436 61.096 972.526 64.6131 971.036 68.6629C970.705 69.5568 970.441 70.4981 970.485 71.4503C970.529 72.4026 970.999 73.3621 971.77 73.9313L971.773 73.9349Z" fill="#6B3C00"/>
<path d="M975.878 76.3651C975.878 76.9197 975.427 77.3685 974.869 77.3685C974.311 77.3685 973.859 76.9197 973.859 76.3651C973.859 75.8106 974.311 75.3618 974.869 75.3618C975.427 75.3618 975.878 75.8106 975.878 76.3651Z" fill="#FFEE3D"/>
<path d="M1000.05 76.3651C1000.05 76.9197 999.602 77.3685 999.044 77.3685C998.487 77.3685 998.035 76.9197 998.035 76.3651C998.035 75.8106 998.487 75.3618 999.044 75.3618C999.602 75.3618 1000.05 75.8106 1000.05 76.3651Z" fill="#FFEE3D"/>
<path d="M981.07 69.1011C980.711 69.1011 980.399 69.393 980.219 69.8308L981.07 70.6772L980.219 71.5236C980.399 71.9615 980.711 72.2533 981.07 72.2533C981.628 72.2533 982.079 71.5492 982.079 70.6772C982.079 69.8052 981.628 69.1011 981.07 69.1011Z" fill="#453E18"/>
<path d="M992.863 69.1011C992.507 69.1011 992.192 69.393 992.012 69.8308L992.863 70.6772L992.012 71.5236C992.192 71.9615 992.504 72.2533 992.863 72.2533C993.421 72.2533 993.872 71.5492 993.872 70.6772C993.872 69.8052 993.421 69.1011 992.863 69.1011Z" fill="#453E18"/>
<path d="M973.965 67.0907C973.745 65.4817 973.936 63.7998 974.453 62.2054C974.989 60.6183 975.863 59.1188 977.03 57.8601C978.186 56.5904 979.628 55.5725 981.225 54.8757C982.821 54.1788 984.568 53.8213 986.315 53.814C988.062 53.8176 989.809 54.1752 991.406 54.872C992.998 55.5689 994.448 56.5868 995.6 57.8564C996.768 59.1115 997.641 60.6147 998.177 62.2018C998.694 63.7961 998.882 65.4781 998.661 67.087C998.243 63.8727 996.742 60.9868 994.492 58.9583C992.239 56.9334 989.292 55.806 986.315 55.8097C983.339 55.8024 980.392 56.9334 978.138 58.9546C975.885 60.9832 974.384 63.8691 973.969 67.0834L973.965 67.0907Z" fill="white"/>
<path d="M1000.93 95.3807C999.365 94.9939 997.757 94.7969 996.197 94.4175C992.913 109.497 990.589 124.78 989.246 140.147L1007.56 139.881C1011.86 139.819 1015.31 136.335 1015.31 132.059V113.889C1015.36 109.686 1013.93 105.48 1011.35 102.152C1008.77 98.8248 1005.03 96.3986 1000.93 95.377V95.3807Z" fill="#00665D"/>
<path d="M978.546 94.3301C976.876 94.7752 975.143 94.9649 973.466 95.3808C969.363 96.4024 965.63 98.8286 963.043 102.156C960.456 105.483 959.039 109.686 959.083 113.893V140.589L985.519 140.206C984.176 124.787 981.845 109.457 978.546 94.3337V94.3301Z" fill="#00665D"/>
<g style="mix-blend-mode:multiply" opacity="0.18">
<path d="M973.468 95.3806C972.899 95.5229 972.337 95.6943 971.783 95.8877C970.506 99.4924 969.339 103.123 968.289 106.778C970.286 107.924 972.22 109.35 974.392 110.259C973.607 112.16 972.77 114.265 971.985 116.169C975.985 123.813 979.424 132.146 982.228 140.242L985.52 140.202C983.902 124.893 981.098 109.672 977.134 94.6509C975.912 94.8953 974.675 95.0814 973.468 95.3806Z" fill="#009FCF"/>
</g>
<g style="mix-blend-mode:multiply" opacity="0.18">
<path d="M1002.8 116.169C1002.03 114.268 1001.21 112.163 1000.44 110.259C1002.57 109.354 1004.46 107.924 1006.41 106.778C1005.4 103.177 1004.28 99.6017 1003.05 96.0481C1002.36 95.7854 1001.65 95.5592 1000.93 95.3804C999.78 95.0922 998.601 94.9134 997.434 94.6836C993.57 109.675 990.835 124.867 989.25 140.147L992.832 140.096C995.563 132.044 998.91 123.765 1002.8 116.169Z" fill="#009FCF"/>
</g>
<path d="M978.548 94.3301C977.193 94.6913 975.795 94.8846 974.419 95.1692C973.285 99.011 972.253 102.882 971.336 106.779C972.98 107.924 974.573 109.351 976.36 110.259C975.714 112.16 975.024 114.265 974.378 116.17C977.674 123.813 980.504 132.146 982.812 140.242L985.525 140.202C984.181 124.784 981.851 109.453 978.551 94.3301H978.548Z" fill="#008C80"/>
<path d="M1000.66 95.3223C999.185 94.9757 997.669 94.7787 996.197 94.4175C992.913 109.497 990.589 124.78 989.246 140.147L992.259 140.103C994.56 132.051 997.379 123.769 1000.65 116.17C1000.01 114.269 999.317 112.164 998.671 110.259C1000.46 109.354 1002.05 107.924 1003.7 106.778C1002.79 102.933 1001.78 99.113 1000.66 95.3223H1000.66Z" fill="#008C80"/>
<path d="M979.493 94.5197C979.335 94.5197 979.181 94.4577 979.067 94.3445C979.037 94.3154 979.015 94.2862 978.99 94.2533C978.971 94.2205 978.949 94.184 978.938 94.1512C978.924 94.1147 978.909 94.0746 978.902 94.0381C978.894 93.9979 978.891 93.9578 978.891 93.9213C978.891 93.8812 978.894 93.8411 978.902 93.8009C978.909 93.7644 978.92 93.7243 978.938 93.6878C978.949 93.6513 978.971 93.6149 978.99 93.5857C979.015 93.5528 979.037 93.52 979.067 93.4945C979.206 93.3595 979.415 93.2938 979.61 93.3303C979.65 93.3376 979.687 93.3522 979.724 93.3668C979.764 93.3814 979.797 93.3996 979.827 93.4215C979.863 93.4434 979.893 93.4689 979.918 93.4945C979.948 93.5236 979.97 93.5528 979.995 93.5857C980.017 93.6185 980.036 93.655 980.05 93.6878C980.061 93.7243 980.076 93.7644 980.083 93.8009C980.091 93.8411 980.094 93.8812 980.094 93.9213C980.094 93.9578 980.091 93.9979 980.083 94.0381C980.076 94.0746 980.065 94.1147 980.05 94.1512C980.036 94.1877 980.014 94.2242 979.995 94.2533C979.97 94.2862 979.948 94.319 979.918 94.3445C979.889 94.3737 979.863 94.3956 979.827 94.4175C979.793 94.4431 979.764 94.4577 979.724 94.4722C979.687 94.4868 979.65 94.5014 979.61 94.5087C979.573 94.516 979.533 94.5197 979.493 94.5197Z" fill="#FFEE3D"/>
<path d="M986.496 97.9636C986.195 97.9527 985.949 97.7192 985.92 97.4273C985.843 97.7082 985.568 97.9016 985.27 97.8651H985.267C984.969 97.8286 984.746 97.5805 984.735 97.2886C984.639 97.5659 984.349 97.7374 984.052 97.679C983.755 97.6243 983.549 97.3543 983.56 97.0588C983.439 97.3324 983.131 97.4747 982.837 97.3871C982.54 97.2996 982.364 97.0041 982.419 96.7085C982.257 96.9639 981.923 97.0697 981.644 96.9311C981.362 96.7961 981.233 96.4677 981.343 96.1795C981.131 96.4057 980.778 96.4385 980.529 96.2488C980.279 96.0518 980.224 95.7016 980.4 95.4425C980.136 95.6176 979.78 95.5629 979.585 95.3112C979.384 95.0485 979.431 94.6727 979.699 94.4684C979.963 94.2677 980.341 94.3188 980.543 94.5815H980.547C980.705 94.7931 980.708 95.074 980.565 95.282C980.778 95.1433 981.061 95.147 981.274 95.3075C981.487 95.4717 981.556 95.7526 981.468 95.9898C981.644 95.8037 981.931 95.738 982.173 95.8584C982.426 95.9788 982.555 96.2452 982.507 96.5042C982.646 96.278 982.925 96.1649 983.193 96.2452C983.461 96.3254 983.634 96.5808 983.619 96.8472C983.733 96.5991 984.004 96.4531 984.283 96.5042C984.569 96.5553 984.764 96.7997 984.775 97.077C984.867 96.818 985.127 96.6465 985.414 96.6757C985.7 96.7085 985.916 96.9347 985.946 97.2084C986.019 96.9457 986.265 96.7523 986.551 96.7633C986.838 96.7742 987.069 96.9822 987.116 97.2522C987.164 96.9858 987.399 96.7779 987.682 96.7596C987.968 96.7487 988.214 96.9347 988.287 97.1938C988.313 96.9238 988.522 96.6939 988.801 96.6538C989.084 96.6137 989.348 96.7742 989.447 97.0259C989.443 96.7523 989.623 96.5079 989.902 96.4385C990.177 96.3692 990.453 96.4969 990.581 96.7377C990.548 96.4714 990.702 96.205 990.963 96.1065C991.227 96.008 991.517 96.0992 991.675 96.3181C991.609 96.0591 991.726 95.7782 991.976 95.6468C992.225 95.5155 992.523 95.5739 992.702 95.7745C992.607 95.5228 992.688 95.2309 992.915 95.0704C993.143 94.9062 993.447 94.9281 993.649 95.0996C993.521 94.8624 993.561 94.5669 993.763 94.3772C994.005 94.151 994.387 94.1583 994.614 94.3954C994.849 94.6362 994.835 95.0157 994.596 95.2419C994.376 95.4535 994.031 95.4608 993.796 95.271C993.939 95.5301 993.869 95.8657 993.616 96.0445C993.367 96.2233 993.025 96.1795 992.82 95.9606C992.93 96.2415 992.816 96.5589 992.541 96.7049C992.269 96.8472 991.935 96.7633 991.766 96.5225C991.84 96.8107 991.682 97.1135 991.396 97.2266C991.106 97.3361 990.79 97.212 990.647 96.9493C990.684 97.2412 990.493 97.5258 990.196 97.6024C989.898 97.679 989.597 97.5185 989.487 97.2412C989.487 97.5367 989.271 97.7958 988.97 97.8396C988.665 97.8833 988.383 97.6973 988.302 97.409C988.276 97.7046 988.038 97.9417 987.729 97.9563C987.425 97.9673 987.164 97.7556 987.105 97.4674C987.058 97.7483 986.808 97.96 986.515 97.96H986.489L986.496 97.9636Z" fill="#FFEE3D"/>
<path d="M994.977 94.5308C994.819 94.5308 994.665 94.4651 994.551 94.3556C994.437 94.2425 994.375 94.0929 994.375 93.9324C994.375 93.7719 994.441 93.6223 994.551 93.5092C994.775 93.2866 995.179 93.2866 995.403 93.5092C995.516 93.6223 995.579 93.7755 995.579 93.9324C995.579 94.0893 995.516 94.2425 995.403 94.3556C995.289 94.4687 995.135 94.5308 994.977 94.5308Z" fill="#FFEE3D"/>
<path d="M983.322 83.2133C983.322 83.2133 983.307 83.2133 983.303 83.2133C982.162 83.1476 980.98 83.0783 979.831 82.8119C978.514 82.5055 977.435 81.9801 976.627 81.2431C975.361 80.0938 974.825 78.4995 974.598 77.3648C974.311 75.9419 974.333 74.4825 974.356 73.0742C974.356 72.8918 974.524 72.7495 974.693 72.7495C974.877 72.7495 975.023 72.9027 975.02 73.0852C974.998 74.4606 974.979 75.8835 975.251 77.2371C975.46 78.2733 975.945 79.729 977.075 80.7579C977.802 81.4182 978.778 81.8925 979.985 82.1735C981.079 82.4252 982.232 82.4945 983.347 82.5602C983.531 82.5711 983.67 82.728 983.659 82.9068C983.648 83.0819 983.501 83.2169 983.329 83.2169L983.322 83.2133Z" fill="#006385"/>
<path d="M984.293 82.8592C984.293 83.3517 983.735 83.7531 983.045 83.7531C982.355 83.7531 981.797 83.3517 981.797 82.8592C981.797 82.3667 982.355 81.9653 983.045 81.9653C983.735 81.9653 984.293 82.363 984.293 82.8592Z" fill="#006385"/>
<path d="M963.926 101.747C960.175 105.578 957.591 110.419 955.785 115.454C953.98 120.493 952.912 125.754 951.847 130.997C951.543 132.504 951.238 134.072 951.62 135.565C952.405 138.618 955.8 140.289 958.949 140.654C962.098 141.019 965.324 140.494 968.44 141.074C970.759 128.045 969.79 113.619 963.922 101.747H963.926Z" fill="#009FCF"/>
<path d="M974.628 134.146C976.94 133.474 979.27 132.796 981.67 132.555C984.067 132.314 986.566 132.526 988.739 133.565C990.912 134.605 992.717 136.55 993.213 138.892C993.371 139.64 991.925 139.841 991.183 140.049C990.446 140.26 989.66 140.217 988.893 140.176C986.339 140.034 983.781 139.892 981.226 139.753C979.402 139.651 977.409 140.1 975.883 139.104C975.116 138.608 974.664 137.732 974.481 136.842C974.297 135.952 974.569 135.054 974.628 134.146Z" fill="#FFC582"/>
<path d="M958.751 130.241C965.427 129.866 972.129 129.855 978.805 130.212C979.414 133.328 980.236 136.736 979.961 139.895C974.606 141.336 969.027 141.373 963.64 140.056C959.962 139.155 958.7 134.007 958.747 130.241H958.751Z" fill="#009FCF"/>
<g style="mix-blend-mode:multiply" opacity="0.18">
<path d="M975.113 130.15C972.797 128.943 970.063 128.22 967.461 127.954C967.879 124.16 967.971 120.332 967.729 116.523C968.701 119.588 969.406 122.737 969.366 125.951C971.627 126.768 973.858 128.107 975.113 130.147V130.15Z" fill="#009FCF"/>
</g>
<path d="M965.047 138.305H1041.31V138.932C1041.31 139.775 1040.62 140.461 1039.77 140.461H966.581C965.733 140.461 965.043 139.775 965.043 138.932V138.305H965.047Z" fill="#E0E8FF"/>
<g style="mix-blend-mode:multiply">
<path d="M965.047 138.305H1041.31V138.932C1041.31 139.775 1040.62 140.461 1039.77 140.461H966.581C965.733 140.461 965.043 139.775 965.043 138.932V138.305H965.047Z" fill="#D0D8ED"/>
</g>
<g style="mix-blend-mode:multiply">
<path d="M991.615 138.932V138.305H965.047V138.932C965.047 139.775 965.733 140.461 966.585 140.461H990.081C990.928 140.461 991.618 139.779 991.618 138.932H991.615Z" fill="#D0D8ED"/>
</g>
<path d="M1041.31 138.305H991.613L1002.69 108.041C1003.1 106.914 1004.36 106.001 1005.49 106.001H1051.08C1052.22 106.001 1052.8 106.914 1052.39 108.041L1041.31 138.305H1041.31Z" fill="#006A61"/>
<path d="M1025.56 122.15C1024.92 123.901 1022.97 125.324 1021.21 125.324C1019.45 125.324 1018.54 123.905 1019.18 122.15C1019.82 120.398 1021.77 118.976 1023.54 118.976C1025.3 118.976 1026.21 120.395 1025.56 122.15Z" fill="#C5CCE0"/>
<g style="mix-blend-mode:multiply">
<path d="M986.29 139.779H984.565C984.348 139.779 984.172 139.604 984.172 139.388C984.172 139.173 984.348 138.998 984.565 138.998H986.29C986.506 138.998 986.682 139.173 986.682 139.388C986.682 139.604 986.506 139.779 986.29 139.779Z" fill="#D0D8ED"/>
</g>
<g style="mix-blend-mode:multiply">
<path d="M982.793 139.779H981.068C980.852 139.779 980.676 139.604 980.676 139.388C980.676 139.173 980.852 138.998 981.068 138.998H982.793C983.01 138.998 983.186 139.173 983.186 139.388C983.186 139.604 983.01 139.779 982.793 139.779Z" fill="#D0D8ED"/>
</g>
<g style="mix-blend-mode:multiply">
<path d="M979.293 139.779H977.568C977.352 139.779 977.176 139.604 977.176 139.388C977.176 139.173 977.352 138.998 977.568 138.998H979.293C979.51 138.998 979.686 139.173 979.686 139.388C979.686 139.604 979.51 139.779 979.293 139.779Z" fill="#D0D8ED"/>
</g>
<g style="mix-blend-mode:screen">
<path d="M951.881 84.7603C951.881 84.4976 951.862 84.2422 951.837 83.9868L952.945 83.5125C952.886 83.1294 952.798 82.7536 952.688 82.3924L951.477 82.4435C951.304 81.951 951.077 81.4876 950.802 81.0534L951.594 80.145C951.374 79.8276 951.132 79.5284 950.871 79.2438L949.811 79.8093C949.444 79.4445 949.033 79.1271 948.592 78.8498L948.912 77.6896C948.578 77.4999 948.229 77.332 947.869 77.1897L947.154 78.1602C946.669 77.9924 946.163 77.872 945.638 77.8136L945.418 76.6352C945.227 76.6206 945.032 76.6133 944.838 76.6133C944.643 76.6133 944.449 76.6242 944.258 76.6352L944.038 77.8136C943.513 77.872 943.006 77.9924 942.522 78.1602L941.806 77.1897C941.447 77.332 941.098 77.4999 940.764 77.6896L941.083 78.8498C940.643 79.1271 940.232 79.4445 939.865 79.8093L938.804 79.2438C938.544 79.5247 938.301 79.8276 938.081 80.145L938.874 81.0534C938.599 81.4876 938.375 81.9546 938.199 82.4435L936.987 82.3924C936.877 82.7573 936.789 83.1294 936.73 83.5125L937.839 83.9868C937.809 84.2422 937.795 84.4976 937.795 84.7603C937.795 85.023 937.813 85.2784 937.839 85.5337L936.73 86.008C936.789 86.3911 936.877 86.7669 936.987 87.1281L938.199 87.077C938.371 87.5696 938.599 88.0329 938.874 88.4671L938.081 89.3756C938.301 89.693 938.544 89.9921 938.804 90.2767L939.865 89.7112C940.232 90.0761 940.643 90.3935 941.083 90.6708L940.764 91.831C941.098 92.0207 941.447 92.1885 941.806 92.3308L942.522 91.3603C943.006 91.5281 943.513 91.6485 944.038 91.7069L944.258 92.8854C944.449 92.9 944.643 92.9073 944.838 92.9073C945.032 92.9073 945.227 92.8963 945.418 92.8854L945.638 91.7069C946.163 91.6485 946.669 91.5281 947.154 91.3603L947.869 92.3308C948.229 92.1885 948.578 92.0207 948.912 91.831L948.592 90.6708C949.033 90.3935 949.444 90.0761 949.811 89.7112L950.871 90.2767C951.132 89.9958 951.374 89.693 951.594 89.3756L950.802 88.4671C951.077 88.0329 951.301 87.5659 951.477 87.077L952.688 87.1281C952.798 86.7633 952.886 86.3911 952.945 86.008L951.837 85.5337C951.866 85.2784 951.881 85.023 951.881 84.7603ZM944.841 89.7112C942.089 89.7112 939.861 87.493 939.861 84.7603C939.861 82.0276 942.092 79.8093 944.841 79.8093C947.59 79.8093 949.822 82.0276 949.822 84.7603C949.822 87.493 947.59 89.7112 944.841 89.7112Z" fill="#E0E8FF"/>
</g>
<g style="mix-blend-mode:screen">
<path d="M1052.39 96.0888C1052.39 95.8991 1052.38 95.7093 1052.36 95.5233L1053.17 95.1767C1053.12 94.8957 1053.06 94.6221 1052.98 94.3558L1052.1 94.3923C1051.97 94.0347 1051.8 93.6917 1051.6 93.3743L1052.18 92.7103C1052.02 92.4805 1051.85 92.2579 1051.65 92.0536L1050.88 92.4659C1050.61 92.1995 1050.31 91.966 1049.98 91.7654L1050.22 90.9153C1049.97 90.7766 1049.72 90.6526 1049.45 90.5504L1048.93 91.2619C1048.58 91.1378 1048.21 91.0503 1047.82 91.0101L1047.66 90.1491C1047.52 90.1382 1047.38 90.1309 1047.24 90.1309C1047.1 90.1309 1046.96 90.1382 1046.82 90.1491L1046.66 91.0101C1046.27 91.0539 1045.9 91.1415 1045.55 91.2619L1045.03 90.5504C1044.76 90.6562 1044.51 90.7766 1044.26 90.9153L1044.49 91.7654C1044.17 91.9697 1043.87 92.1995 1043.6 92.4659L1042.82 92.0536C1042.63 92.2616 1042.46 92.4805 1042.3 92.7103L1042.88 93.3743C1042.67 93.6917 1042.51 94.0311 1042.38 94.3923L1041.5 94.3558C1041.42 94.6221 1041.36 94.8957 1041.31 95.1767L1042.12 95.5233C1042.1 95.7093 1042.09 95.8991 1042.09 96.0888C1042.09 96.2785 1042.1 96.4682 1042.12 96.6543L1041.31 97.0009C1041.36 97.2818 1041.42 97.5555 1041.5 97.8218L1042.38 97.7853C1042.51 98.1429 1042.68 98.4858 1042.88 98.8032L1042.3 99.4672C1042.46 99.6971 1042.63 99.9197 1042.82 100.124L1043.6 99.7117C1043.87 99.978 1044.17 100.212 1044.49 100.412L1044.26 101.262C1044.51 101.401 1044.76 101.525 1045.03 101.627L1045.55 100.916C1045.9 101.04 1046.27 101.127 1046.66 101.167L1046.82 102.028C1046.96 102.039 1047.1 102.047 1047.24 102.047C1047.38 102.047 1047.52 102.039 1047.66 102.028L1047.82 101.167C1048.21 101.124 1048.58 101.036 1048.93 100.916L1049.45 101.627C1049.72 101.521 1049.97 101.401 1050.22 101.262L1049.98 100.412C1050.31 100.208 1050.61 99.978 1050.88 99.7117L1051.65 100.124C1051.85 99.916 1052.02 99.6971 1052.18 99.4672L1051.6 98.8032C1051.81 98.4858 1051.97 98.1465 1052.1 97.7853L1052.98 97.8218C1053.06 97.5555 1053.12 97.2818 1053.17 97.0009L1052.36 96.6543C1052.38 96.4682 1052.39 96.2785 1052.39 96.0888ZM1047.24 99.7117C1045.23 99.7117 1043.6 98.0918 1043.6 96.0888C1043.6 94.0858 1045.22 92.4659 1047.24 92.4659C1049.25 92.4659 1050.88 94.0858 1050.88 96.0888C1050.88 98.0918 1049.25 99.7117 1047.24 99.7117Z" fill="#E0E8FF"/>
</g>
<path d="M1029.5 80.2327H1016.73C1014.66 80.2327 1012.98 81.9 1012.98 83.9577V90.0251C1012.98 92.0828 1014.66 93.7502 1016.73 93.7502H1017.16L1016.29 94.9687C1016 95.3664 1016.42 95.8882 1016.88 95.6948L1020.95 93.98C1021.32 93.8268 1021.71 93.7465 1022.1 93.7465H1029.5C1031.57 93.7465 1033.24 92.0792 1033.24 90.0215V83.9541C1033.24 81.8963 1031.57 80.229 1029.5 80.229V80.2327Z" fill="#00B4A5"/>
<path d="M1030.67 84.7603H1015.54C1015.18 84.7603 1014.89 84.4721 1014.89 84.1145C1014.89 83.757 1015.18 83.4688 1015.54 83.4688H1030.67C1031.03 83.4688 1031.32 83.757 1031.32 84.1145C1031.32 84.4721 1031.03 84.7603 1030.67 84.7603Z" fill="#EDEDED"/>
<path d="M1030.67 87.6392H1015.54C1015.18 87.6392 1014.89 87.351 1014.89 86.9934C1014.89 86.6359 1015.18 86.3477 1015.54 86.3477H1030.67C1031.03 86.3477 1031.32 86.6359 1031.32 86.9934C1031.32 87.351 1031.03 87.6392 1030.67 87.6392Z" fill="#EDEDED"/>
<path d="M1024.05 90.5142H1015.55C1015.19 90.5142 1014.9 90.226 1014.9 89.8684C1014.9 89.5109 1015.19 89.2227 1015.55 89.2227H1024.05C1024.41 89.2227 1024.7 89.5109 1024.7 89.8684C1024.7 90.226 1024.41 90.5142 1024.05 90.5142Z" fill="#EDEDED"/>
<path d="M1049.67 43.9561H1037.52C1033.39 43.9561 1030.05 47.2785 1030.05 51.377V63.4607C1030.05 67.5592 1033.39 70.8816 1037.52 70.8816H1049.67C1053.79 70.8816 1057.14 67.5592 1057.14 63.4607V51.377C1057.14 47.2785 1053.79 43.9561 1049.67 43.9561Z" fill="url(#paint11_linear_3311_2202)"/>
<path d="M1036.41 64.2815C1032.92 60.3448 1033.3 54.3176 1037.26 50.8479C1041.22 47.3782 1047.28 47.754 1050.77 51.6907C1051.05 52.0045 1051.02 52.4861 1050.71 52.7633C1050.39 53.0406 1049.91 53.0114 1049.63 52.6977C1046.7 49.3885 1041.6 49.0711 1038.27 51.9899C1034.94 54.905 1034.62 59.9727 1037.56 63.2782C1040.49 66.5873 1045.59 66.9047 1048.92 63.986C1051.1 62.0669 1052.08 59.1153 1051.46 56.2768C1051.37 55.8682 1051.63 55.4632 1052.04 55.372C1052.45 55.2844 1052.86 55.5435 1052.95 55.9521C1053.69 59.3269 1052.53 62.8404 1049.93 65.1206C1045.97 68.5903 1039.9 68.2145 1036.41 64.2779V64.2815Z" fill="url(#paint12_linear_3311_2202)"/>
<path d="M1045.51 53.0043C1045.4 52.8839 1045.33 52.7307 1045.32 52.5592C1045.29 52.1397 1045.61 51.7748 1046.03 51.742L1049.37 51.4829L1049.11 48.1555C1049.08 47.736 1049.4 47.3711 1049.82 47.3383C1050.24 47.3055 1050.61 47.6192 1050.64 48.0388L1050.96 52.1251C1050.97 52.3257 1050.91 52.5264 1050.78 52.6796C1050.65 52.8329 1050.46 52.9277 1050.26 52.9423L1046.15 53.2597C1045.9 53.278 1045.67 53.1758 1045.52 53.0043H1045.51Z" fill="url(#paint13_linear_3311_2202)"/>
<path d="M1039.13 58.9027C1039.21 58.8363 1039.25 58.8055 1039.24 58.8104C1039.48 58.6112 1039.67 58.4476 1039.81 58.3197C1039.95 58.1917 1040.07 58.0577 1040.17 57.9174C1040.26 57.7772 1040.31 57.6407 1040.31 57.5079C1040.31 57.407 1040.29 57.3283 1040.24 57.2717C1040.19 57.2151 1040.12 57.1868 1040.03 57.1868C1039.94 57.1868 1039.86 57.2225 1039.81 57.2938C1039.76 57.3627 1039.73 57.4611 1039.73 57.589H1039.12C1039.13 57.3799 1039.17 57.2053 1039.25 57.0651C1039.34 56.9248 1039.45 56.8215 1039.59 56.7551C1039.73 56.6887 1039.88 56.6555 1040.05 56.6555C1040.35 56.6555 1040.57 56.7305 1040.71 56.8806C1040.87 57.0306 1040.94 57.2262 1040.94 57.4673C1040.94 57.7305 1040.85 57.9753 1040.67 58.2016C1040.49 58.4254 1040.26 58.6444 1039.98 58.8584H1040.98V59.3713H1039.13V58.9027ZM1041.27 58.9285V58.4193L1042.44 56.7514H1043.14V58.3824H1043.45V58.9285H1043.14V59.4082H1042.51V58.9285H1041.27ZM1042.56 57.4451L1041.94 58.3824H1042.56V57.4451ZM1045.22 55.9027L1044.24 60.0982H1043.63L1044.62 55.9027H1045.22ZM1047.15 57.1868L1046.22 59.4082H1045.58L1046.51 57.2569H1045.37V56.7182H1047.15V57.1868Z" fill="url(#paint14_linear_3311_2202)"/>
<path d="M948.219 60.3042H928.757C925.295 60.3042 922.488 63.0942 922.488 66.5358V76.6894C922.488 80.131 925.295 82.9209 928.757 82.9209H948.219C951.681 82.9209 954.488 80.131 954.488 76.6894V66.5358C954.488 63.0942 951.681 60.3042 948.219 60.3042Z" fill="url(#paint15_linear_3311_2202)"/>
<path d="M931.071 68.7266C931.711 67.4095 931.156 65.8257 929.832 65.189C928.507 64.5523 926.913 65.1039 926.273 66.4209C925.632 67.738 926.187 69.3218 927.512 69.9585C928.837 70.5952 930.43 70.0436 931.071 68.7266Z" fill="url(#paint16_linear_3311_2202)"/>
<path d="M948.138 66.2175H934.654C934.203 66.2175 933.836 65.8527 933.836 65.4039C933.836 64.9552 934.203 64.5903 934.654 64.5903H948.138C948.59 64.5903 948.957 64.9552 948.957 65.4039C948.957 65.8527 948.59 66.2175 948.138 66.2175Z" fill="url(#paint17_linear_3311_2202)"/>
<path d="M948.138 70.2571H934.654C934.203 70.2571 933.836 69.8922 933.836 69.4435C933.836 68.9947 934.203 68.6299 934.654 68.6299H948.138C948.59 68.6299 948.957 68.9947 948.957 69.4435C948.957 69.8922 948.59 70.2571 948.138 70.2571Z" fill="url(#paint18_linear_3311_2202)"/>
<path d="M932.257 76.1344C932.756 74.7582 932.038 73.2405 930.653 72.7445C929.269 72.2484 927.742 72.962 927.243 74.3382C926.744 75.7144 927.462 77.2322 928.847 77.7282C930.231 78.2242 931.758 77.5107 932.257 76.1344Z" fill="url(#paint19_linear_3311_2202)"/>
<path d="M948.138 74.595H934.654C934.203 74.595 933.836 74.2301 933.836 73.7814C933.836 73.3326 934.203 72.9678 934.654 72.9678H948.138C948.59 72.9678 948.957 73.3326 948.957 73.7814C948.957 74.2301 948.59 74.595 948.138 74.595Z" fill="url(#paint20_linear_3311_2202)"/>
<path d="M948.138 78.302H934.654C934.203 78.302 933.836 77.9372 933.836 77.4884C933.836 77.0396 934.203 76.6748 934.654 76.6748H948.138C948.59 76.6748 948.957 77.0396 948.957 77.4884C948.957 77.9372 948.59 78.302 948.138 78.302Z" fill="url(#paint21_linear_3311_2202)"/>
<path d="M996.19 16.5046C996.19 17.0446 995.749 17.4824 995.206 17.4824C994.663 17.4824 994.223 17.0446 994.223 16.5046C994.223 15.9647 994.663 15.5269 995.206 15.5269C995.749 15.5269 996.19 15.9647 996.19 16.5046Z" fill="#E0E8FF"/>
<path d="M1002.41 25.9509C1002.41 26.5675 1001.9 27.0673 1001.28 27.0673C1000.66 27.0673 1000.16 26.5675 1000.16 25.9509C1000.16 25.3343 1000.66 24.8345 1001.28 24.8345C1001.9 24.8345 1002.41 25.3343 1002.41 25.9509Z" fill="#E0E8FF"/>
<path d="M999.745 12.5679H987.59C983.467 12.5679 980.125 15.8903 980.125 19.9888V24.7756C980.125 28.8741 983.467 32.1965 987.59 32.1965H999.745C1003.87 32.1965 1007.21 28.8741 1007.21 24.7756V19.9888C1007.21 15.8903 1003.87 12.5679 999.745 12.5679Z" fill="url(#paint22_linear_3311_2202)"/>
<path d="M1001.13 22.3818C1001.13 23.469 1000.24 24.3519 999.146 24.3519C998.052 24.3519 997.164 23.469 997.164 22.3818C997.164 21.2945 998.052 20.4116 999.146 20.4116C1000.24 20.4116 1001.13 21.2945 1001.13 22.3818Z" fill="url(#paint23_linear_3311_2202)"/>
<path d="M993.341 23.8519C994.436 23.8519 995.323 22.9699 995.323 21.8818C995.323 20.7937 994.436 19.9116 993.341 19.9116C992.247 19.9116 991.359 20.7937 991.359 21.8818C991.359 22.9699 992.247 23.8519 993.341 23.8519Z" fill="url(#paint24_linear_3311_2202)"/>
<path d="M988.193 24.3519C989.287 24.3519 990.175 23.4699 990.175 22.3818C990.175 21.2937 989.287 20.4116 988.193 20.4116C987.098 20.4116 986.211 21.2937 986.211 22.3818C986.211 23.4699 987.098 24.3519 988.193 24.3519Z" fill="url(#paint25_linear_3311_2202)"/>
<path d="M962.866 136.154C959.974 136.154 957.625 133.815 957.625 130.94C957.625 128.065 959.978 125.73 962.866 125.73C965.754 125.73 968.107 128.069 968.107 130.94C968.107 133.812 965.754 136.154 962.866 136.154ZM962.866 127.361C960.88 127.361 959.262 128.967 959.262 130.944C959.262 132.922 960.877 134.527 962.866 134.527C964.855 134.527 966.47 132.918 966.47 130.944C966.47 128.97 964.855 127.361 962.866 127.361Z" fill="#D6D6D6"/>
<path d="M948.242 135.789C948.242 136.431 948.33 137.051 948.492 137.639C948.925 139.204 950.386 140.273 952.019 140.273H958.456C960.089 140.273 961.546 139.204 961.983 137.639C962.148 137.048 962.233 136.428 962.233 135.789V125.176H948.242V135.789Z" fill="white"/>
<path opacity="0.1" d="M958.48 125.176V135.789C958.48 136.431 958.392 137.051 958.23 137.639C957.797 139.204 956.336 140.273 954.703 140.273H958.454C960.087 140.273 961.544 139.204 961.981 137.639C962.146 137.048 962.231 136.428 962.231 135.789V125.176H958.48Z" fill="black"/>
<path d="M958.699 107.799H949.179C945.952 107.799 943.336 110.4 943.336 113.608V123.072C943.336 126.28 945.952 128.88 949.179 128.88H958.699C961.926 128.88 964.542 126.28 964.542 123.072V113.608C964.542 110.4 961.926 107.799 958.699 107.799Z" fill="url(#paint26_linear_3311_2202)"/>
<path d="M953.039 110.218C954.037 110.218 954.835 110.479 955.433 111.002C956.039 111.524 956.343 112.262 956.343 113.214C956.343 114.091 956.053 114.777 955.475 115.272C954.905 115.757 954.149 116.004 953.207 116.014L953.137 117.064H951.037L950.967 114.46H951.807C952.525 114.46 953.071 114.371 953.445 114.194C953.827 114.016 954.019 113.694 954.019 113.228C954.019 112.901 953.93 112.644 953.753 112.458C953.575 112.271 953.328 112.178 953.011 112.178C952.675 112.178 952.413 112.276 952.227 112.472C952.04 112.658 951.947 112.915 951.947 113.242H949.693C949.674 112.672 949.791 112.159 950.043 111.702C950.304 111.244 950.687 110.885 951.191 110.624C951.704 110.353 952.32 110.218 953.039 110.218ZM952.115 120.704C951.695 120.704 951.349 120.582 951.079 120.34C950.817 120.088 950.687 119.78 950.687 119.416C950.687 119.042 950.817 118.73 951.079 118.478C951.349 118.226 951.695 118.1 952.115 118.1C952.525 118.1 952.861 118.226 953.123 118.478C953.393 118.73 953.529 119.042 953.529 119.416C953.529 119.78 953.393 120.088 953.123 120.34C952.861 120.582 952.525 120.704 952.115 120.704Z" fill="url(#paint27_linear_3311_2202)"/>
</g>
</g>
<defs>
<linearGradient id="paint0_linear_3311_2202" x1="-14.2642" y1="143.23" x2="43.7439" y2="161.927" gradientUnits="userSpaceOnUse">
<stop offset="0.21" stop-color="#CCD9E5"/>
<stop offset="1" stop-color="#AAD5E8"/>
</linearGradient>
<linearGradient id="paint1_linear_3311_2202" x1="660.911" y1="-10.0012" x2="628.758" y2="41.0726" gradientUnits="userSpaceOnUse">
<stop offset="0.21" stop-color="#CCD9E5"/>
<stop offset="1" stop-color="#AAD5E8"/>
</linearGradient>
<linearGradient id="paint2_linear_3311_2202" x1="925.387" y1="77.7581" x2="1060.67" y2="102.464" gradientUnits="userSpaceOnUse">
<stop stop-color="#DDFFFC"/>
<stop offset="1" stop-color="#EFF5FF"/>
</linearGradient>
<linearGradient id="paint3_linear_3311_2202" x1="1009.02" y1="10.8471" x2="1042.07" y2="10.8471" gradientUnits="userSpaceOnUse">
<stop stop-color="#BFFFFA"/>
<stop offset="1" stop-color="#EFF5FF"/>
</linearGradient>
<linearGradient id="paint4_linear_3311_2202" x1="1012.96" y1="117.856" x2="1082.8" y2="118.199" gradientUnits="userSpaceOnUse">
<stop offset="0.03" stop-color="#94FFF6"/>
<stop offset="1" stop-color="#22A69B"/>
</linearGradient>
<linearGradient id="paint5_linear_3311_2202" x1="1019.65" y1="126.332" x2="1077.39" y2="79.8764" gradientUnits="userSpaceOnUse">
<stop offset="0.03" stop-color="#59DCD1"/>
<stop offset="1" stop-color="#179B90"/>
</linearGradient>
<linearGradient id="paint6_linear_3311_2202" x1="1033.2" y1="151.396" x2="1051.77" y2="123.183" gradientUnits="userSpaceOnUse">
<stop offset="0.03" stop-color="#7DFFF4"/>
<stop offset="1" stop-color="#22A59A"/>
</linearGradient>
<linearGradient id="paint7_linear_3311_2202" x1="979.083" y1="122.59" x2="909.059" y2="127.525" gradientUnits="userSpaceOnUse">
<stop offset="0.03" stop-color="#46C9BE"/>
<stop offset="1" stop-color="#25A89E"/>
</linearGradient>
<linearGradient id="paint8_linear_3311_2202" x1="973.593" y1="129.123" x2="913.843" y2="95.8516" gradientUnits="userSpaceOnUse">
<stop offset="0.03" stop-color="#5FD6CC"/>
<stop offset="1" stop-color="#23A79C"/>
</linearGradient>
<linearGradient id="paint9_linear_3311_2202" x1="970.973" y1="115.824" x2="932.817" y2="75.6957" gradientUnits="userSpaceOnUse">
<stop offset="0.03" stop-color="#5BD3C9"/>
<stop offset="1" stop-color="#23A79C"/>
</linearGradient>
<linearGradient id="paint10_linear_3311_2202" x1="953.815" y1="35.1455" x2="953.815" y2="79.6993" gradientUnits="userSpaceOnUse">
<stop stop-color="#52D4C9"/>
<stop offset="1" stop-color="#30B3A8"/>
</linearGradient>
<linearGradient id="paint11_linear_3311_2202" x1="1029.71" y1="57.2294" x2="1056.68" y2="58.458" gradientUnits="userSpaceOnUse">
<stop stop-color="#AAFFFF"/>
<stop offset="1" stop-color="#D0EEF2"/>
</linearGradient>
<linearGradient id="paint12_linear_3311_2202" x1="1043.6" y1="48.4731" x2="1043.6" y2="67.4954" gradientUnits="userSpaceOnUse">
<stop stop-color="#17BDEE"/>
<stop offset="1" stop-color="#8EDDE0"/>
</linearGradient>
<linearGradient id="paint13_linear_3311_2202" x1="1048.14" y1="47.3359" x2="1048.14" y2="53.2618" gradientUnits="userSpaceOnUse">
<stop stop-color="#17BDEE"/>
<stop offset="1" stop-color="#8EDDE0"/>
</linearGradient>
<linearGradient id="paint14_linear_3311_2202" x1="1044.5" y1="55.4082" x2="1044.5" y2="62.7522" gradientUnits="userSpaceOnUse">
<stop stop-color="#17BDEE"/>
<stop offset="1" stop-color="#8EDDE0"/>
</linearGradient>
<linearGradient id="paint15_linear_3311_2202" x1="922.661" y1="71.934" x2="951.478" y2="71.934" gradientUnits="userSpaceOnUse">
<stop stop-color="#F6FEFE"/>
<stop offset="1" stop-color="#CFEDF1"/>
</linearGradient>
<linearGradient id="paint16_linear_3311_2202" x1="926.273" y1="66.4209" x2="931.06" y2="68.7488" gradientUnits="userSpaceOnUse">
<stop stop-color="#19BDEE"/>
<stop offset="1" stop-color="#93DFDF"/>
</linearGradient>
<linearGradient id="paint17_linear_3311_2202" x1="941.396" y1="64.5903" x2="941.396" y2="66.2175" gradientUnits="userSpaceOnUse">
<stop stop-color="#19BDEE"/>
<stop offset="1" stop-color="#93DFDF"/>
</linearGradient>
<linearGradient id="paint18_linear_3311_2202" x1="941.396" y1="68.6299" x2="941.396" y2="70.2571" gradientUnits="userSpaceOnUse">
<stop stop-color="#19BDEE"/>
<stop offset="1" stop-color="#93DFDF"/>
</linearGradient>
<linearGradient id="paint19_linear_3311_2202" x1="927.243" y1="74.3382" x2="932.25" y2="76.1533" gradientUnits="userSpaceOnUse">
<stop stop-color="#19BDEE"/>
<stop offset="1" stop-color="#93DFDF"/>
</linearGradient>
<linearGradient id="paint20_linear_3311_2202" x1="941.396" y1="72.9678" x2="941.396" y2="74.595" gradientUnits="userSpaceOnUse">
<stop stop-color="#19BDEE"/>
<stop offset="1" stop-color="#93DFDF"/>
</linearGradient>
<linearGradient id="paint21_linear_3311_2202" x1="941.396" y1="76.6748" x2="941.396" y2="78.302" gradientUnits="userSpaceOnUse">
<stop stop-color="#19BDEE"/>
<stop offset="1" stop-color="#93DFDF"/>
</linearGradient>
<linearGradient id="paint22_linear_3311_2202" x1="980.321" y1="22.3599" x2="1007.3" y2="22.3599" gradientUnits="userSpaceOnUse">
<stop stop-color="#F8FFFF"/>
<stop offset="1" stop-color="#CFEEF1"/>
</linearGradient>
<linearGradient id="paint23_linear_3311_2202" x1="999.146" y1="20.4116" x2="999.146" y2="24.3519" gradientUnits="userSpaceOnUse">
<stop stop-color="#18BDEE"/>
<stop offset="1" stop-color="#96E0DF"/>
</linearGradient>
<linearGradient id="paint24_linear_3311_2202" x1="993.341" y1="19.9116" x2="993.341" y2="23.8519" gradientUnits="userSpaceOnUse">
<stop stop-color="#18BDEE"/>
<stop offset="1" stop-color="#96E0DF"/>
</linearGradient>
<linearGradient id="paint25_linear_3311_2202" x1="988.193" y1="20.4116" x2="988.193" y2="24.3519" gradientUnits="userSpaceOnUse">
<stop stop-color="#18BDEE"/>
<stop offset="1" stop-color="#96E0DF"/>
</linearGradient>
<linearGradient id="paint26_linear_3311_2202" x1="943.336" y1="117.832" x2="965.409" y2="118.446" gradientUnits="userSpaceOnUse">
<stop stop-color="#F4FDFE"/>
<stop offset="1" stop-color="#CFEEF2"/>
</linearGradient>
<linearGradient id="paint27_linear_3311_2202" x1="954.206" y1="105.592" x2="954.206" y2="131.296" gradientUnits="userSpaceOnUse">
<stop stop-color="#25C6ED"/>
<stop offset="1" stop-color="#9FDEE0"/>
</linearGradient>
<clipPath id="clip0_3311_2202">
<rect width="1120" height="160" rx="15" fill="white"/>
</clipPath>
<clipPath id="clip1_3311_2202">
<rect width="168" height="153" fill="white" transform="translate(909 4)"/>
</clipPath>
</defs>
</svg>
