<svg width="24" height="24" viewBox="0 0 24 24" fill="none" xmlns="http://www.w3.org/2000/svg">
<path fill-rule="evenodd" clip-rule="evenodd" d="M14.4216 22.4063C14.4216 21.5262 13.7491 20.8127 12.9196 20.8127H11.0804C10.6821 20.8127 10.3 20.9806 10.0184 21.2795C9.73668 21.5783 9.57844 21.9837 9.57844 22.4063C9.57844 23.2865 10.2509 24 11.0804 24H12.9196C13.7491 24 14.4216 23.2865 14.4216 22.4063ZM3.15755 18.297C3.40842 18.3173 3.71194 18.329 4.01681 18.31C4.20791 19.3381 4.72944 20.264 5.49235 20.9294C6.25526 21.5949 7.21223 21.9587 8.19984 21.9587H8.77294C8.72203 22.2547 8.7219 22.558 8.77256 22.854H8.19984C6.98613 22.854 5.81209 22.3953 4.88811 21.5603C3.96414 20.7252 3.35064 19.5684 3.15755 18.297ZM2.72836 17.3443C1.96555 17.2079 1.27297 16.7891 0.773512 16.1623C0.27405 15.5355 3.8064e-06 14.7413 0 13.9205L0 11.8045C0 10.8837 0.344767 10.0005 0.958458 9.34933C1.57215 8.69816 2.40449 8.33234 3.27239 8.33232H3.49022C3.83841 3.66922 7.51538 0 12 0C16.4846 0 20.1616 3.66922 20.5098 8.33232H20.7276C21.5955 8.33234 22.4279 8.69816 23.0415 9.34933C23.6552 10.0005 24 10.8837 24 11.8045V13.9205C24 14.8414 23.6552 15.7245 23.0415 16.3757C22.4279 17.0269 21.5955 17.3927 20.7276 17.3927H19.7619C19.3614 17.3927 19.0368 17.0482 19.0368 16.6233V9.05793C19.0368 4.93437 15.8863 1.59157 12 1.59157C8.11369 1.59157 4.96322 4.93437 4.96322 9.05793V16.6233C4.96322 16.9233 4.80136 17.1833 4.5652 17.3101C3.91514 17.5495 2.907 17.3763 2.72836 17.3443Z" fill="#9F9F9F"/>
</svg>
