<svg width="121" height="121" viewBox="0 0 121 121" fill="none" xmlns="http://www.w3.org/2000/svg">
<path d="M79.665 107.033C79.6574 96.6755 71.2661 88.2288 60.9087 88.2616C55.1281 88.2805 50.4295 83.6223 50.4253 77.8487V75.9859C51.9881 75.3356 53.4727 74.5315 54.8566 73.5888C54.8566 73.614 60.7897 73.0234 67.2154 71.7487C70.0562 71.1891 72.103 68.7037 72.103 65.81V59.5537C71.6972 59.7176 71.2712 59.836 70.83 59.9066C73.6809 59.4201 75.8512 56.9347 75.8512 53.9452V43.3584C75.8512 40.8327 74.3035 38.6675 72.103 37.7651V27.1002C72.103 13.2491 60.8734 2.01953 47.0224 2.01953H34.6711C20.82 2.01953 9.59048 13.2491 9.59048 27.1027V37.75C7.37481 38.6473 5.80948 40.8201 5.80948 43.3584V53.9452C5.80948 56.4835 7.37481 58.6564 9.59048 59.5537V65.81C9.59048 68.7037 11.6373 71.1891 14.478 71.7487C20.8493 73.0126 26.8369 73.6142 26.8369 73.5888C28.2284 74.5368 29.7132 75.34 31.2682 75.9859C31.2682 77.8031 31.7388 82.7839 26.9906 86.2526C25.2514 87.523 23.1063 88.2691 20.7847 88.2616C10.4273 88.2288 2.03604 96.6755 2.02848 107.033L2.02344 114.943C2.02092 117.171 3.82824 118.978 6.0565 118.978H75.6369C77.8652 118.978 79.6725 117.171 79.67 114.943L79.665 107.033ZM69.8621 37.3116C69.8218 37.3116 69.7814 37.3091 69.7386 37.3091C69.7686 37.3091 69.8344 37.3081 69.8621 37.3116ZM9.85515 37.6491C10.198 37.5231 10.513 37.4424 10.876 37.3895C10.5256 37.445 10.1828 37.5334 9.85515 37.6491Z" fill="#FFEBD2"/>
<path d="M79.6574 107.034C79.6498 96.6769 71.2586 88.2301 60.9011 88.2629C58.5796 88.2704 56.4345 87.5243 54.6953 86.2539C54.6827 86.2791 54.7038 86.1876 54.239 89.1955L43.3082 97.6589C42.6014 98.2061 41.7329 98.5031 40.839 98.5031C39.9452 98.5031 39.0767 98.2061 38.3699 97.6589L27.4391 89.1955L26.9853 86.2589C26.945 86.1783 24.7314 88.2757 20.7769 88.2629C10.4195 88.2301 2.02823 96.6769 2.02067 107.034L2.01563 114.944C2.01411 117.173 3.82017 118.98 6.04869 118.98H75.6291C77.8577 118.98 79.6637 117.172 79.6622 114.944L79.6574 107.034Z" fill="#FFA4B8"/>
<path d="M29.964 91.1442C31.9163 92.6559 30.8777 95.8196 28.4085 95.8249C17.6528 95.8476 9.59779 104.494 9.59048 114.596L9.58796 118.98H6.0565C3.82824 118.98 2.02092 117.172 2.02344 114.944L2.02848 107.034C2.03604 96.6769 10.4273 88.2301 20.7847 88.2629C23.1063 88.2704 25.2514 87.5243 26.9906 86.2539C27.0032 86.2791 26.9821 86.1876 27.4469 89.1955L29.964 91.1442Z" fill="#FFBFCB"/>
<path d="M51.7293 91.1442C49.7771 92.6559 50.8156 95.8196 53.2849 95.8249C64.0405 95.8476 72.0956 104.494 72.1029 114.596L72.1054 118.98H75.6369C77.8651 118.98 79.6724 117.172 79.6699 114.944L79.6649 107.034C79.6573 96.6769 71.266 88.2301 60.9086 88.2629C58.5871 88.2704 56.442 87.5243 54.7027 86.2539C54.6901 86.2791 54.7113 86.1876 54.2465 89.1955L51.7293 91.1442Z" fill="#FF8CA5"/>
<path d="M54.245 89.1953L49.6574 118.979H32.0329L27.4453 89.1953L38.3762 97.6587C39.0829 98.2059 39.9515 98.5029 40.8453 98.5029C41.7391 98.5029 42.6077 98.2059 43.3144 97.6587L54.245 89.1953Z" fill="#E3F7FC"/>
<path d="M34.0106 118.979H32.0329L27.4453 89.1953C32.8126 93.3529 33.3117 93.4562 33.5297 94.8706L36.7511 115.785C37.0097 117.464 35.7103 118.979 34.0106 118.979Z" fill="#CAF1FC"/>
<path d="M49.3328 81.9775C43.9308 84.0725 37.8567 84.1146 32.3576 81.9808C31.4603 81.6327 30.9221 80.692 31.0945 79.745C31.3214 78.5005 31.2692 77.3667 31.2692 75.8561C37.3788 78.5827 44.3598 78.5648 50.4245 75.8516C50.4245 77.3544 50.3708 78.495 50.5962 79.7422C50.7673 80.689 50.2297 81.6297 49.3328 81.9775Z" fill="#FFDFBA"/>
<path d="M54.8516 73.5898C54.8516 73.615 60.7847 73.0244 67.2104 71.7497C70.0512 71.1901 72.098 68.7047 72.098 65.811V59.5547C70.7247 60.1128 70.2092 59.9958 64.783 59.9958C63.1529 65.538 59.628 70.3441 54.8516 73.5898Z" fill="#42434D"/>
<path d="M75.8445 43.36V53.9468C75.8445 57.2867 73.1373 59.9964 69.7949 59.9964H64.7812C66.0915 55.5558 65.7946 53.8334 65.7946 37.3104C69.9479 37.3104 70.6965 37.1839 72.0962 37.7667C74.2968 38.6691 75.8445 40.8341 75.8445 43.36Z" fill="#585966"/>
<path d="M72.0987 37.7651C70.6992 37.1823 69.9579 37.3088 65.797 37.3088C65.797 37.1271 60.5765 36.0916 56.6596 30.499C55.4152 28.7219 52.9769 28.2886 51.1588 29.4723C40.5453 36.3822 28.3609 38.6367 16.6645 36.6578C16.2586 36.5892 15.8876 36.8975 15.8876 37.3088C11.7051 37.3088 10.9786 37.1838 9.58594 37.75V27.1027C9.58594 13.2491 20.8155 2.01953 34.6666 2.01953H47.0178C60.8694 2.01953 72.0984 13.2486 72.0984 27.1002V37.7651H72.0987ZM26.8326 73.5885C26.8326 73.6137 20.8994 73.0231 14.4738 71.7484C11.633 71.1889 9.58619 68.7035 9.58619 65.8097V59.5535C10.9594 60.1115 11.4749 59.9946 16.9012 59.9946C18.5315 65.5368 22.0562 70.3429 26.8326 73.5885Z" fill="#42434D"/>
<path d="M16.9007 59.9965C11.5684 59.9965 10.9842 60.1238 9.58569 59.5554C7.37002 58.6581 5.80469 56.4852 5.80469 53.9469V43.3601C5.80469 40.0155 8.52171 37.3105 11.8543 37.3105H15.8874C15.8874 54.0921 15.6154 55.6398 16.9007 59.9965Z" fill="#585966"/>
<path d="M69.0011 42.1074L68.9905 56.9624C68.9892 58.6384 67.6304 59.9965 65.9541 59.9965H64.7812C66.0915 55.5559 65.7946 53.8335 65.7946 37.3105C67.2523 37.3105 68.5002 38.3468 68.7788 39.7775C68.9257 40.5314 69.0024 41.3106 69.0011 42.1074Z" fill="#42434D"/>
<path d="M15.8874 37.3105V43.0476C13.2936 43.7181 11.3502 46.0699 11.3502 48.9056V54.0452C11.3476 57.6304 5.80469 57.8956 5.80469 53.9469V43.3601C5.80469 39.9976 8.53961 37.3105 11.8543 37.3105H15.8874Z" fill="#6E6F80"/>
<path d="M23.677 71.0455C18.9134 66.5794 15.8906 60.0572 15.8906 52.937V37.3084C15.8906 36.897 16.2614 36.5893 16.667 36.6581C17.9788 36.8803 19.299 37.0495 20.6244 37.1652C22.8023 37.3543 24.4609 39.2019 24.4609 41.3874C24.4609 47.445 23.654 55.6657 30.9793 63.7028C35.4661 68.6282 28.5091 75.6306 23.677 71.0455Z" fill="#FFF3E4"/>
<path d="M48.201 2.04819C54.6769 2.3489 54.4341 12.0396 47.9515 12.0898C46.9412 12.0976 45.8762 12.1034 44.7492 12.1034C31.8772 12.1034 21.2685 21.8024 19.8355 34.2915C19.6638 35.7875 18.2795 36.9329 16.664 36.6597C16.2581 36.5891 15.8876 36.8992 15.8876 37.31C11.7204 37.31 10.9819 37.181 9.58594 37.7511V27.1039C9.58594 13.2503 20.8155 2.02071 34.6666 2.02071C48.1337 2.02096 47.3881 2.01038 48.201 2.04819Z" fill="#585966"/>
<path d="M118.985 83.4378V112.93C118.985 116.271 116.276 118.979 112.935 118.979H72.6043C69.301 118.979 66.5547 116.302 66.5547 112.93V83.4378C66.5547 80.0967 69.2631 77.3882 72.6043 77.3882H86.4856C87.4258 77.3882 88.2374 76.7371 88.453 75.8219C88.9493 73.7138 88.609 71.6676 87.6723 69.9366C86.8027 68.3299 88.3519 66.5085 90.0901 67.0711C94.0733 68.3604 97.1203 71.5745 98.2387 75.8763C98.3505 76.3088 98.6027 76.6919 98.9557 76.9655C99.3088 77.2392 99.7427 77.3878 100.189 77.3882H112.935C116.276 77.3882 118.985 80.0967 118.985 83.4378Z" fill="#CAF1FC"/>
<path d="M118.985 83.4377C118.985 85.0386 117.687 86.3365 116.086 86.3365H104.675C89.0511 86.3365 76.3853 99.0023 76.3853 114.626C76.3853 117.447 73.6856 119.556 70.9079 118.735C68.3922 118.004 66.5547 115.68 66.5547 112.929V83.4377C66.5547 80.0965 69.2631 77.3881 72.6043 77.3881H86.4856C87.4258 77.3881 88.2374 76.7378 88.4542 75.8228C88.9483 73.713 88.608 71.6662 87.6728 69.937C86.8032 68.3288 88.3509 66.5089 90.0901 67.071C94.0728 68.3591 97.1203 71.5754 98.2394 75.8757C98.4688 76.7655 99.2704 77.3881 100.19 77.3881H112.935C116.276 77.3881 118.985 80.0965 118.985 83.4377Z" fill="#E3F7FC"/>
<path d="M86.3605 95.9765C87.1185 96.3515 87.9129 96.6477 88.7314 96.8602C91.025 97.4475 90.5776 100.831 88.2326 100.831C87.487 100.831 85.0636 100.006 83.0637 98.7431C81.2332 99.8989 79.5025 100.484 78.3965 100.767C78.1395 100.834 77.8718 100.85 77.6088 100.813C77.3458 100.776 77.0926 100.688 76.8639 100.553C76.6351 100.418 76.4352 100.24 76.2756 100.027C76.1161 99.815 76.0001 99.5733 75.9342 99.316C75.8684 99.0588 75.854 98.791 75.8919 98.5282C75.9298 98.2654 76.0192 98.0126 76.155 97.7844C76.2909 97.5562 76.4705 97.3571 76.6835 97.1985C76.8965 97.0399 77.1387 96.9249 77.3963 96.8602C78.2148 96.6476 79.0092 96.3515 79.7672 95.9765C77.8215 93.8311 80.9214 91.2134 82.6793 93.1879C82.804 93.3277 82.9321 93.4646 83.0635 93.5982C84.0855 92.5545 84.9071 91.332 85.4874 89.9914H77.8961C77.3613 89.9914 76.8484 89.7789 76.4702 89.4008C76.092 89.0226 75.8796 88.5097 75.8796 87.9749C75.8796 87.4401 76.092 86.9271 76.4702 86.549C76.8484 86.1708 77.3613 85.9583 77.8961 85.9583H88.2233C89.5045 85.9543 90.4702 87.1327 90.203 88.3948C89.6361 91.1532 88.3475 93.7858 86.3605 95.9765ZM99.4171 111.946L102.851 103.769L106.285 111.946C106.492 112.439 106.887 112.83 107.382 113.032C107.877 113.234 108.432 113.231 108.926 113.024C109.419 112.817 109.809 112.423 110.011 111.927C110.214 111.432 110.211 110.877 110.004 110.384L104.71 97.7808C104.021 96.1375 101.682 96.1363 100.992 97.7808L95.6986 110.384C95.596 110.628 95.5426 110.89 95.5413 111.155C95.5399 111.42 95.5908 111.682 95.6909 111.927C95.7911 112.173 95.9385 112.396 96.1248 112.584C96.3112 112.772 96.5327 112.922 96.7769 113.024C97.0211 113.127 97.283 113.18 97.5479 113.182C97.8127 113.183 98.0751 113.132 98.3203 113.032C98.5655 112.932 98.7885 112.784 98.9767 112.598C99.1649 112.412 99.3145 112.19 99.4171 111.946ZM112.934 75.3718H100.191C98.3019 68.0944 91.6897 63.6668 84.2147 64.5468C82.3249 64.7691 81.7696 67.2593 83.3869 68.2628C85.7439 69.7258 87.188 72.463 86.4896 75.3718H72.6032C72.0684 75.3718 71.5555 75.5843 71.1773 75.9624C70.7991 76.3406 70.5867 76.8535 70.5867 77.3883C70.5867 77.9231 70.7991 78.4361 71.1773 78.8142C71.5555 79.1924 72.0684 79.4049 72.6032 79.4049H87.9299C88.3228 79.4048 88.7071 79.29 89.0357 79.0746C89.3643 78.8591 89.6227 78.5523 89.7793 78.1919C91.1899 74.9466 90.9075 71.6798 89.4524 68.9958C93.378 70.2344 95.9519 73.6091 96.5488 77.6807C96.619 78.1597 96.8593 78.5974 97.2256 78.9139C97.5919 79.2304 98.0598 79.4046 98.5439 79.4046H112.934C115.158 79.4046 116.967 81.2137 116.967 83.4377V112.929C116.967 115.153 115.158 116.963 112.934 116.963H72.6032C70.3795 116.963 68.5702 115.153 68.5702 112.929C68.5702 87.5232 68.7764 88.5997 68.0723 87.7934C67.889 87.5808 67.6622 87.41 67.4074 87.2923C66.9569 87.0821 64.2525 86.2402 60.8678 86.2465C59.0612 86.2465 57.3401 85.6866 55.8889 84.6262C54.982 83.9635 53.7187 84.1777 53.0711 85.0648C52.6451 85.646 53.1001 83.3744 47.6617 118.672C47.5839 119.199 47.7177 119.735 48.0339 120.164C48.3501 120.592 48.8231 120.879 49.3495 120.96C49.8759 121.041 50.413 120.91 50.8436 120.597C51.2742 120.283 51.5632 119.812 51.6477 119.286L56.2524 89.3993C59.7902 90.8083 60.9013 89.8694 64.5368 90.6674V112.93C64.5368 117.377 68.1553 120.996 72.603 120.996H112.934C117.381 120.996 121 117.377 121 112.93V83.4379C121 78.9902 117.382 75.3718 112.934 75.3718ZM45.1325 96.249C45.4599 96.6718 45.6059 97.2075 45.5384 97.738C45.4709 98.2685 45.1954 98.7505 44.7726 99.0779C41.9214 101.285 41.7331 101.586 40.8428 101.586C39.8968 101.586 40.4632 101.826 30.2046 93.8841L34.0237 118.672C34.2115 119.891 33.269 120.996 32.0281 120.996C31.5469 120.995 31.0818 120.822 30.7168 120.509C30.3517 120.195 30.1108 119.761 30.0375 119.286L25.4333 89.4003C23.9643 89.9832 22.398 90.2818 20.8177 90.28C11.4133 90.2629 4.04743 97.8602 4.04113 107.035L4.03306 118.981C4.03273 119.515 3.81995 120.028 3.44155 120.406C3.06314 120.784 2.55009 120.996 2.01527 120.996C1.48045 120.996 0.967675 120.783 0.589738 120.404C0.211801 120.026 -0.000333867 119.513 3.94423e-07 118.978L0.00806652 107.033C0.0158806 95.4265 9.4172 86.247 20.7166 86.247C25.1746 86.2389 29.2437 83.0583 29.247 77.286C22.8587 74.2312 17.8534 68.7349 15.4441 62.0125C11.3511 62.0125 11.89 62.015 11.6031 62.0062L11.6029 65.8129C11.6026 67.7334 12.9741 69.3988 14.8646 69.7726C15.3893 69.8764 15.8512 70.1843 16.1488 70.6287C16.4465 71.073 16.5554 71.6174 16.4516 72.1421C15.6841 76.0214 7.5683 72.4246 7.56981 65.8117L7.57031 60.7754C5.30121 59.3464 3.78932 56.8205 3.78932 53.9464V43.3596C3.78932 40.4858 5.30121 37.9598 7.57031 36.5306V27.1026C7.57031 12.1603 19.726 0.00390625 34.6675 0.00390625H47.0187C61.96 0.00390625 74.1159 12.1596 74.1159 27.1011C74.1159 27.6359 73.9034 28.1488 73.5252 28.527C73.1471 28.9051 72.6342 29.1176 72.0993 29.1176C71.5645 29.1176 71.0516 28.9051 70.6734 28.527C70.2953 28.1488 70.0828 27.6359 70.0828 27.1011C70.0828 14.3835 59.7362 4.03697 47.0187 4.03697H34.6675C21.95 4.03697 11.6034 14.3841 11.6034 27.1026V35.2998C11.8872 35.291 11.4519 35.2935 14.2897 35.2935C14.5161 34.9988 14.8196 34.7724 15.1666 34.6393C15.5136 34.5063 15.8906 34.4718 16.256 34.5395C29.4963 36.9949 42.7114 33.7324 53.4673 25.353C54.5162 24.536 56.0563 24.9411 56.5678 26.1674C58.3983 30.5554 61.8271 33.7869 66.2335 35.2935H69.7985C74.2462 35.2935 77.8646 38.9119 77.8646 43.3596V53.9464C77.8646 56.2911 76.8558 58.4811 75.1239 60.0018V64.4971C75.1239 69.9171 68.1089 72.5371 67.5821 68.8513C67.5064 68.3219 67.6442 67.7841 67.9651 67.3563C68.286 66.9284 68.7636 66.6455 69.2931 66.5699C70.318 66.4234 71.0908 65.5324 71.0908 64.4974C71.0908 58.5746 71.0182 58.6376 71.3333 58.0528C71.4953 57.7601 71.7251 57.5104 72.0033 57.3246C72.5654 56.9584 73.0271 56.4576 73.3464 55.8676C73.6657 55.2776 73.8326 54.6172 73.8318 53.9464V43.3596C73.8318 41.1356 72.0225 39.3265 69.7987 39.3265H67.8142V52.9381C67.8142 70.8747 50.5048 83.8982 33.2388 78.816C32.9935 82.0014 31.5539 84.9289 29.1575 87.0866L29.3126 88.0933L40.8428 97.02L42.3036 95.889C42.7264 95.5616 43.2621 95.4156 43.7926 95.4831C44.3231 95.5506 44.8051 95.8261 45.1325 96.249ZM14.3464 57.9792C13.7333 54.751 13.872 53.9938 13.872 39.3263H11.8554C9.63171 39.3263 7.82238 41.1354 7.82238 43.3593V53.9461C7.82238 56.1701 9.63171 57.9792 11.8554 57.9792H14.3464ZM40.8428 75.8759C53.491 75.8759 63.7809 65.5858 63.7809 52.9379V38.6835C59.5931 36.97 56.1962 33.9626 53.9624 30.0079C43.3232 37.5406 30.6848 40.6544 17.9048 38.8902V52.9376C17.9048 65.5858 28.1946 75.8759 40.8428 75.8759Z" fill="black"/>
</svg>
