<svg width="137" height="131" viewBox="0 0 137 131" fill="none" xmlns="http://www.w3.org/2000/svg">
<path d="M133.177 26.2002C134.784 26.2002 136.088 27.5044 136.088 29.1113C136.088 30.7182 134.784 32.0224 133.177 32.0224C131.57 32.0224 130.266 30.7182 130.266 29.1113C130.266 27.5044 131.57 26.2002 133.177 26.2002Z" fill="#D69E00"/>
<path d="M133.177 101.889C134.784 101.889 136.088 103.193 136.088 104.8C136.088 106.407 134.784 107.711 133.177 107.711C131.57 107.711 130.266 106.407 130.266 104.8C130.266 103.193 131.57 101.889 133.177 101.889Z" fill="#D69E00"/>
<path d="M118.623 119.356C121.84 119.356 124.445 121.961 124.445 125.178C124.445 128.395 121.84 131 118.623 131C115.406 131 112.801 128.395 112.801 125.178C112.801 121.961 115.406 119.356 118.623 119.356Z" fill="#F9C430"/>
<path d="M112.798 0C114.405 0 115.709 1.30418 115.709 2.91111C115.709 4.51804 114.405 5.82222 112.798 5.82222C111.191 5.82222 109.887 4.51804 109.887 2.91111C109.887 1.30418 111.191 0 112.798 0Z" fill="#D69E00"/>
<path d="M21.0981 5.82227C25.1183 5.82227 28.3759 9.0798 28.3759 13.1C28.3759 17.1203 25.1183 20.3778 21.0981 20.3778C17.0776 20.3778 13.8203 17.1203 13.8203 13.1C13.8203 9.0798 17.0776 5.82227 21.0981 5.82227Z" fill="#F9C430"/>
<path d="M10.9111 29.1108C12.518 29.1108 13.8222 30.415 13.8222 32.022C13.8222 33.6289 12.518 34.9331 10.9111 34.9331C9.30389 34.9331 8 33.6289 8 32.022C8 30.415 9.30389 29.1108 10.9111 29.1108Z" fill="#D69E00"/>
<g clip-path="url(#clip0_3028_1602)">
<path d="M71.5 22C92.21 22 109 39.4616 109 61C109 82.5384 92.21 100 71.5 100C50.79 100 34 82.5384 34 61C34 39.4616 50.79 22 71.5 22Z" fill="white"/>
<path d="M36.5 79C46.7169 79 55 87.2831 55 97.5C55 107.717 46.7169 116 36.5 116C26.2831 116 18 107.717 18 97.5C18 87.2831 26.2831 79 36.5 79Z" fill="white"/>
<path fill-rule="evenodd" clip-rule="evenodd" d="M71.5143 13C98.5383 13 120.448 34.9043 120.448 61.9283C120.448 88.9523 98.5383 110.862 71.5143 110.862C66.4626 110.862 61.584 110.092 56.9987 108.671C58.6075 105.517 59.5193 101.948 59.5193 98.1647C59.5193 97.8555 59.5088 97.5516 59.4983 97.2529C62.653 98.3272 65.9963 98.9874 69.4653 99.1761V94.5542C69.4653 93.4275 70.3876 92.5052 71.5143 92.5052C72.6461 92.5052 73.5684 93.4275 73.5684 94.5542V99.1761C92.5382 98.149 107.735 82.9522 108.762 63.9825H104.14C103.013 63.9825 102.091 63.0602 102.091 61.9283C102.091 60.8017 103.013 59.8794 104.14 59.8794H108.762C107.735 40.9096 92.5382 25.7129 73.5684 24.6805V29.3077C73.5684 30.4343 72.6461 31.3566 71.5143 31.3566C70.3876 31.3566 69.4653 30.4343 69.4653 29.3077V24.6805C50.4956 25.7129 35.2988 40.9096 34.2717 59.8794H38.8936C40.0203 59.8794 40.9426 60.8017 40.9426 61.9283C40.9426 63.0602 40.0203 63.9825 38.8936 63.9825H34.2665C34.4813 67.855 35.2778 71.5652 36.5827 75.0342H36.3888C32.3485 75.0342 28.5546 76.0665 25.248 77.8849C23.5239 72.8857 22.5859 67.5197 22.5859 61.9283C22.5859 34.9043 44.4955 13 71.5143 13Z" fill="#FFD86C"/>
<path fill-rule="evenodd" clip-rule="evenodd" d="M71.5134 38.3208C72.965 38.3208 74.1493 39.5051 74.1493 40.9567V61.7867C74.1493 63.2382 72.965 64.4225 71.5134 64.4225C70.0671 64.4225 68.8828 63.2382 68.8828 61.7867V40.9567C68.8828 39.5051 70.0671 38.3208 71.5134 38.3208Z" fill="#E7AF11"/>
<path fill-rule="evenodd" clip-rule="evenodd" d="M71.5134 42.4712C72.965 42.4712 74.1493 43.6555 74.1493 45.107V61.7868C74.1493 63.2383 72.965 64.4226 71.5134 64.4226C70.0671 64.4226 68.8828 63.2383 68.8828 61.7868V45.107C68.8828 43.6555 70.0671 42.4712 71.5134 42.4712Z" fill="#E7AF11"/>
<path fill-rule="evenodd" clip-rule="evenodd" d="M88.7131 72.2517C87.9899 73.5093 86.3654 73.9443 85.113 73.2159L70.6656 64.8786C69.4132 64.1502 68.9782 62.531 69.7014 61.2786C70.4245 60.0209 72.0438 59.5912 73.3014 60.3143L87.7488 68.6568C89.0013 69.38 89.4362 70.9992 88.7131 72.2517Z" fill="#E7AF11"/>
<path fill-rule="evenodd" clip-rule="evenodd" d="M71.5151 57.3115C74.0671 57.3115 76.137 59.3814 76.137 61.9282C76.137 64.4802 74.0671 66.5449 71.5151 66.5449C68.9683 66.5449 66.8984 64.4802 66.8984 61.9282C66.8984 59.3814 68.9683 57.3115 71.5151 57.3115Z" fill="#E7AF11"/>
<path fill-rule="evenodd" clip-rule="evenodd" d="M51.1204 83.4293C59.2585 91.5674 59.2585 104.762 51.1204 112.895C42.9875 121.033 29.7925 121.033 21.6544 112.895C13.5162 104.762 13.5162 91.5674 21.6544 83.4293C29.7925 75.2912 42.9875 75.2912 51.1204 83.4293ZM47.3421 105.302L45.5762 107.12L43.8364 108.913L43.8154 108.928L43.7945 108.949L43.7578 108.986L43.7368 109.002L43.7159 109.017L43.6897 109.033L43.6687 109.049L43.6478 109.065L43.6268 109.08L43.6006 109.091L43.5796 109.107L43.5587 109.117L43.5325 109.128L43.4853 109.148L43.4591 109.159L43.4381 109.169L43.4119 109.175L43.3857 109.185L43.3648 109.19L43.3386 109.201L43.3124 109.206L43.2862 109.211L43.239 109.222H43.2128L43.1866 109.227H43.1604L43.1342 109.232H43.0084L42.9822 109.227H42.956L42.9298 109.222H42.9036L42.8774 109.217L42.8512 109.211L42.8303 109.206L42.8041 109.201L42.7779 109.196L42.7517 109.185L42.7307 109.18L42.7045 109.169L42.6783 109.159L42.6573 109.154V109.148L42.6311 109.143L42.6049 109.128L42.584 109.117L42.5578 109.107L42.5368 109.091L42.5159 109.08L42.4897 109.065L42.4687 109.049L42.4477 109.038L42.4268 109.023L42.4058 109.002L42.3848 108.986L42.3639 108.97L42.3429 108.949L42.322 108.934L36.4581 103.232L30.7619 109.096L30.741 109.117L30.7253 109.133L30.7043 109.154L30.6833 109.169L30.6624 109.185L30.6414 109.201L30.6205 109.217L30.5995 109.232L30.5733 109.248L30.5523 109.264L30.5314 109.274L30.5052 109.29L30.4842 109.3L30.458 109.311L30.4371 109.321L30.4109 109.332L30.3899 109.342L30.3637 109.353L30.3375 109.363L30.3165 109.369L30.2903 109.379L30.2641 109.384L30.2379 109.39L30.217 109.395L30.1908 109.4L30.1646 109.405L30.1384 109.41H30.1122L30.086 109.416H29.9078L29.8816 109.41H29.8554L29.8292 109.405L29.803 109.4L29.782 109.395L29.7558 109.39L29.7296 109.384L29.7034 109.379L29.6772 109.374L29.6563 109.363L29.6301 109.353L29.6039 109.348L29.5829 109.337L29.5567 109.327L29.5357 109.316L29.5095 109.306L29.4886 109.29L29.4624 109.279L29.4414 109.264L29.4204 109.253L29.3942 109.238L29.3733 109.222L29.3523 109.206L29.3314 109.19L29.3104 109.169L29.2894 109.154L29.2685 109.138L29.2475 109.117L25.6422 105.611L25.6213 105.59L25.6003 105.569L25.5846 105.548L25.5689 105.527L25.5479 105.506L25.5322 105.486L25.5164 105.465L25.5007 105.444L25.485 105.423L25.4745 105.402L25.4588 105.375L25.4483 105.355L25.4326 105.328L25.4221 105.307L25.4116 105.281L25.4012 105.26L25.3907 105.234L25.3854 105.213L25.375 105.187L25.3645 105.161L25.3592 105.14L25.354 105.113L25.3435 105.087L25.3383 105.061V105.035L25.333 105.014L25.3278 104.988L25.3226 104.962V104.909L25.3173 104.883V104.778L25.3226 104.757V104.731L25.3278 104.705L25.333 104.679H25.3278L25.333 104.652L25.3383 104.626L25.3435 104.6L25.3488 104.579L25.3592 104.553L25.3645 104.527L25.375 104.5L25.3802 104.479L25.3907 104.453L25.4012 104.427L25.4116 104.406L25.4221 104.38L25.4326 104.359L25.4431 104.333L25.4588 104.312L25.4693 104.291L25.485 104.265L25.5007 104.244L25.5164 104.223L25.5322 104.202L25.5479 104.181L25.5636 104.16L25.5846 104.139L25.6003 104.118L25.6213 104.097L31.3174 98.233L25.4536 92.5369L25.4378 92.5159L25.4169 92.5002L25.4012 92.4792L25.3802 92.4582L25.3645 92.4373L25.3488 92.4163L25.333 92.3954L25.3173 92.3692L25.3016 92.3482L25.2911 92.3272L25.2754 92.3063L25.2597 92.2801L25.2492 92.2591L25.2387 92.2329L25.2282 92.212L25.2178 92.1858L25.2073 92.1648L25.1968 92.1386L25.1916 92.1124L25.1811 92.0862L25.1758 92.0652L25.1653 92.039L25.1601 92.0128L25.1549 91.9866L25.1496 91.9657L25.1444 91.9395V91.9133L25.1391 91.8871V91.8609L25.1339 91.8347V91.6827L25.1391 91.6565L25.1444 91.6303V91.6041L25.1496 91.5779L25.1549 91.5517L25.1601 91.5307L25.1653 91.5045L25.1706 91.4783L25.1811 91.4521L25.1863 91.4312L25.1968 91.405L25.2073 91.3788L25.2178 91.3578H25.2125L25.2282 91.3316H25.223L25.2387 91.3106V91.3054L25.2492 91.2844L25.2597 91.2635L25.2754 91.2373L25.2859 91.2163L25.3016 91.1901L25.3173 91.1691L25.3278 91.1482L25.3488 91.1272H25.3435L25.3645 91.1063L25.3802 91.0853L25.3959 91.0643L25.4169 91.0434L25.4326 91.0224L28.9436 87.4171L28.9803 87.3752C29.0065 87.3542 29.0379 87.328 29.0641 87.3071C29.1008 87.2809 29.1375 87.2547 29.1742 87.2337L29.2004 87.2232L29.2423 87.197C29.2894 87.1761 29.3418 87.1551 29.389 87.1394L29.4152 87.1341L29.4414 87.1289L29.4624 87.1184L29.4886 87.1132C29.5148 87.1079 29.541 87.1079 29.5672 87.1027C29.6405 87.0922 29.7191 87.0922 29.7977 87.0975H29.8239L29.8501 87.1027H29.8763L29.8973 87.1079L29.9235 87.1132C29.9497 87.1184 29.9759 87.1237 30.0021 87.1341L30.0231 87.1394L30.0493 87.1499L30.0755 87.1551L30.0964 87.1656C30.1331 87.1761 30.1646 87.1918 30.196 87.2075L30.217 87.218L30.2432 87.2337L30.2641 87.2442L30.2851 87.2599L30.306 87.2756L30.3322 87.2914L30.3532 87.3071L30.3742 87.3228L30.3951 87.3385L30.4161 87.3595L30.4371 87.3752L30.458 87.3962L36.238 93.0137L36.3166 93.0923L42.0128 87.2285L42.0338 87.2127L42.0547 87.1918L42.0757 87.1761L42.0966 87.1551L42.1176 87.1394L42.1386 87.1237L42.1595 87.1079L42.1805 87.0922L42.2014 87.0765L42.2276 87.0608L42.2486 87.0503L42.2696 87.0346L42.2958 87.0241L42.3167 87.0136L42.3429 87.0031L42.3639 86.9927L42.3901 86.9822L42.4163 86.9717L42.4373 86.9665L42.4635 86.956L42.4897 86.9507L42.5106 86.9403L42.5368 86.935L42.563 86.9298L42.5892 86.9245L42.6154 86.9193H42.6416L42.6626 86.9141H42.6888L42.715 86.9088H42.846L42.8722 86.9141H42.8984L42.9194 86.9193H42.9456L42.9718 86.9245L42.998 86.9298L43.0242 86.935L43.0504 86.9403L43.0713 86.9455L43.0975 86.956L43.1237 86.9612L43.1447 86.9717H43.1499L43.1709 86.9822L43.1971 86.9927L43.2181 86.9979L43.2443 87.0136L43.2652 87.0241L43.2914 87.0346L43.3124 87.0503L43.3386 87.0608L43.3595 87.0765L43.3805 87.0922L43.4015 87.1027L43.4224 87.1184L43.4486 87.1394L43.4696 87.1551L43.4905 87.1708L43.5063 87.1918L43.5272 87.2075L47.1378 90.7185L47.1744 90.7552L47.1954 90.7761L47.2111 90.7971L47.2268 90.818L47.2426 90.839L47.2583 90.86L47.274 90.8809L47.2897 90.9019L47.3055 90.9281L47.3159 90.9491L47.3317 90.97L47.3421 90.9962L47.3526 91.0172L47.3631 91.0434L47.3736 91.0643L47.3841 91.0905L47.3945 91.1167L47.405 91.1377L47.4103 91.1639L47.4207 91.1901L47.426 91.2111L47.4312 91.2373L47.4365 91.2635L47.4417 91.2897L47.4469 91.3159L47.4522 91.3421V91.363L47.4574 91.3892V91.5726L47.4522 91.5988V91.6198L47.4469 91.646L47.4417 91.6722L47.4365 91.6984L47.4312 91.7246L47.426 91.7508L47.4207 91.7718L47.4103 91.798L47.405 91.8242L47.3945 91.8504L47.3841 91.8713L47.3788 91.8975L47.3683 91.9185L47.3579 91.9447L47.3421 91.9709L47.3317 91.9919L47.3212 92.0128L47.3055 92.039L47.2897 92.06L47.2793 92.0809L47.2635 92.1019L47.2478 92.1281L47.2321 92.1491L47.2111 92.17L47.1954 92.191L47.1744 92.212L47.1587 92.2277L41.4573 98.0915L47.3212 103.788C47.3421 103.809 47.3579 103.83 47.3788 103.851L47.3945 103.872L47.4103 103.892L47.4312 103.913L47.4469 103.934L47.4574 103.955L47.4731 103.976L47.4889 103.997L47.4993 104.024L47.5151 104.044L47.5255 104.071L47.5413 104.092L47.5517 104.118L47.5622 104.139L47.5675 104.165L47.5779 104.186L47.5884 104.212L47.5937 104.238L47.6041 104.259L47.6094 104.286L47.6146 104.312L47.6199 104.338L47.6251 104.364L47.6303 104.39L47.6356 104.411V104.437L47.6408 104.464V104.49L47.6461 104.516H47.6408L47.6461 104.542V104.595L47.6408 104.621V104.668H47.6356V104.694L47.6303 104.72L47.6251 104.747C47.6251 104.773 47.6146 104.799 47.6094 104.82L47.6041 104.846L47.5989 104.872L47.5884 104.899L47.5727 104.946C47.5203 105.077 47.4469 105.197 47.3421 105.302ZM28.9436 87.4171C28.9541 87.4014 28.9698 87.3909 28.9803 87.3752L28.9436 87.4171Z" fill="#FF0000"/>
</g>
<path d="M20.376 125.178C21.9829 125.178 23.2871 126.482 23.2871 128.089C23.2871 129.696 21.9829 131 20.376 131C18.7687 131 17.4648 129.696 17.4648 128.089C17.4648 126.482 18.7687 125.178 20.376 125.178Z" fill="#D69E00"/>
<path d="M2.91111 101.889C4.51804 101.889 5.82222 103.193 5.82222 104.8C5.82222 106.407 4.51804 107.711 2.91111 107.711C1.30389 107.711 0 106.407 0 104.8C0 103.193 1.30389 101.889 2.91111 101.889Z" fill="#D69E00"/>
<defs>
<clipPath id="clip0_3028_1602">
<rect width="106" height="106" fill="white" transform="translate(15 13)"/>
</clipPath>
</defs>
</svg>
