<svg width="78" height="78" viewBox="0 0 78 78" fill="none" xmlns="http://www.w3.org/2000/svg">
<path d="M11.7207 48.0645C13.8246 48.0645 15.5293 49.7692 15.5293 51.873C15.5293 53.9769 13.8246 55.6816 11.7207 55.6816C9.61668 55.6816 7.91211 53.9769 7.91211 51.873C7.91211 49.7692 9.61668 48.0645 11.7207 48.0645ZM67.3262 54.1582C69.0096 54.1582 70.373 55.5217 70.373 57.2051C70.373 58.8885 69.0096 60.252 67.3262 60.252C65.6428 60.252 64.2793 58.8885 64.2793 57.2051C64.2793 55.5217 65.6428 54.1582 67.3262 54.1582Z" fill="#00776D"/>
<path d="M31.6513 55.6816V55.5308C31.6513 51.8411 29.948 48.3783 27.0854 46.049C22.5122 42.3241 19.5918 36.6493 19.5918 30.2905C19.5918 19.0216 28.769 9.89625 40.0577 9.97852C51.1682 10.0608 60.2127 19.1725 60.2158 30.2844C60.2188 36.6661 57.2771 42.3607 52.6763 46.0855C49.8413 48.38 48.1562 51.8016 48.1562 55.4486V55.6816H31.6513Z" fill="#00BBAB"/>
<path d="M71.8965 22.166C72.7374 22.166 73.4199 22.8485 73.4199 23.6895C73.4199 24.1099 73.2493 24.4908 72.9736 24.7665C72.6977 25.0423 72.3168 25.2129 71.8965 25.2129C71.4762 25.2129 71.0952 25.0423 70.8194 24.7665C70.5437 24.4908 70.373 24.1099 70.373 23.6895C70.373 23.269 70.5437 22.8881 70.8194 22.6124C71.0952 22.3366 71.476 22.166 71.8965 22.166ZM70.373 45.0176C71.214 45.0176 71.8965 45.7001 71.8965 46.541C71.8965 46.9615 71.7259 47.3423 71.4501 47.6181C71.1742 47.8938 70.7934 48.0645 70.373 48.0645C69.9527 48.0645 69.5717 47.8938 69.296 47.6181C69.0202 47.3422 68.8496 46.9613 68.8496 46.541C68.8496 46.1207 69.0202 45.7397 69.296 45.4639C69.5717 45.1882 69.9526 45.0176 70.373 45.0176ZM62.7559 8.45508C63.5968 8.45508 64.2793 9.13758 64.2793 9.97852C64.2793 10.399 64.1087 10.7798 63.8329 11.0556C63.557 11.3313 63.1762 11.502 62.7559 11.502C62.3355 11.502 61.9545 11.3313 61.6788 11.0556C61.403 10.7798 61.2324 10.399 61.2324 9.97852C61.2324 9.55805 61.403 9.17719 61.6788 8.90145C61.9545 8.6257 62.3354 8.45508 62.7559 8.45508ZM59.709 67.8691C60.5499 67.8691 61.2324 68.5516 61.2324 69.3926C61.2324 69.813 61.0618 70.1939 60.7861 70.4697C60.5102 70.7454 60.1293 70.916 59.709 70.916C59.2887 70.916 58.9077 70.7454 58.6319 70.4697C58.3562 70.1938 58.1855 69.8129 58.1855 69.3926C58.1855 68.9723 58.3562 68.5912 58.6319 68.3155C58.9077 68.0398 59.2885 67.8691 59.709 67.8691ZM20.0996 69.3926C20.9405 69.3926 21.623 70.0751 21.623 70.916C21.623 71.3365 21.4524 71.7173 21.1765 71.9931C20.9008 72.2688 20.5199 72.4395 20.0996 72.4395C19.6793 72.4395 19.2983 72.2688 19.0225 71.9931C18.7468 71.7172 18.5762 71.3363 18.5762 70.916C18.5762 70.4957 18.7468 70.1147 19.0225 69.8389C19.2983 69.5632 19.6791 69.3926 20.0996 69.3926ZM17.0527 8.45508C17.8937 8.45508 18.5762 9.13758 18.5762 9.97852C18.5762 10.399 18.4055 10.7798 18.1297 11.0556C17.8539 11.3313 17.4731 11.502 17.0527 11.502C16.6324 11.502 16.2514 11.3313 15.9757 11.0556C15.6999 10.7798 15.5293 10.399 15.5293 9.97852C15.5293 9.55805 15.6999 9.17719 15.9757 8.90145C16.2514 8.6257 16.6323 8.45508 17.0527 8.45508ZM9.43555 38.9238C10.2765 38.9238 10.959 39.6063 10.959 40.4473C10.959 40.8677 10.7884 41.2486 10.5125 41.5243C10.2367 41.8001 9.85586 41.9707 9.43555 41.9707C9.01523 41.9707 8.63422 41.8001 8.35848 41.5243C8.08273 41.2484 7.91211 40.8676 7.91211 40.4473C7.91211 40.0269 8.08273 39.6459 8.35848 39.3702C8.63422 39.0945 9.01508 38.9238 9.43555 38.9238ZM6.38867 16.0723C7.22961 16.0723 7.91211 16.7548 7.91211 17.5957C7.91211 18.0162 7.74148 18.397 7.46559 18.6728C7.18985 18.9485 6.80899 19.1191 6.38867 19.1191C5.96836 19.1191 5.58734 18.9485 5.3116 18.6728C5.03586 18.397 4.86523 18.0162 4.86523 17.5957C4.86523 17.1752 5.03586 16.7944 5.3116 16.5186C5.58734 16.2429 5.9682 16.0723 6.38867 16.0723Z" fill="#58CDC3"/>
<path d="M47.2169 28.8691C46.7122 28.1961 45.7573 28.0596 45.0841 28.5645L39.9044 32.4492L34.7247 28.5645C34.0516 28.0597 33.0966 28.1962 32.5919 28.8691C32.0872 29.5422 32.2234 30.4972 32.8966 31.002L38.3809 35.1152V35.877C37.5395 35.877 36.8575 36.559 36.8575 37.4004C36.8575 38.2418 37.5395 38.9238 38.3809 38.9238V40.4473C37.5395 40.4473 36.8575 41.1295 36.8575 41.9707C36.8575 42.8119 37.5395 43.4941 38.3809 43.4941V55.6816C38.3809 56.5229 39.0631 57.2051 39.9044 57.2051C40.7456 57.2051 41.4278 56.5229 41.4278 55.6816V43.4941C42.2691 43.4941 42.9512 42.8119 42.9512 41.9707C42.9512 41.1295 42.2691 40.4473 41.4278 40.4473V38.9238C42.2691 38.9238 42.9512 38.2418 42.9512 37.4004C42.9512 36.559 42.2691 35.877 41.4278 35.877V35.1152L46.9122 31.002C47.5852 30.4972 47.7216 29.5422 47.2169 28.8691Z" fill="white"/>
<path d="M49.0449 55.6816H30.7637C29.5023 55.6816 28.4785 56.7074 28.4785 57.9668C28.4785 59.2282 29.5023 60.252 30.7637 60.252H33.8105C32.5491 60.252 31.5254 61.2777 31.5254 62.5371C31.5254 63.7985 32.5491 64.8223 33.8105 64.8223H36.0957V65.584C36.0957 67.6879 37.8003 69.3926 39.9043 69.3926C42.0082 69.3926 43.7129 67.6879 43.7129 65.584V64.8223H45.998C47.2593 64.8223 48.2832 63.7964 48.2832 62.5371C48.2832 61.2757 47.2595 60.252 45.998 60.252H49.0449C50.3062 60.252 51.3301 59.2261 51.3301 57.9668C51.3301 56.7054 50.3063 55.6816 49.0449 55.6816Z" fill="#00BBAB"/>
<path d="M45.998 60.252C47.2595 60.252 48.2832 61.2757 48.2832 62.5371C48.2832 63.7964 47.2593 64.8223 45.998 64.8223H33.8105C32.5491 64.8223 31.5254 63.7985 31.5254 62.5371C31.5254 61.2777 32.5491 60.252 33.8105 60.252H45.998Z" fill="#ABABAB"/>
<path d="M43.7129 64.8223V65.584C43.7129 67.6879 42.0082 69.3926 39.9043 69.3926C37.8003 69.3926 36.0957 67.6879 36.0957 65.584V64.8223H43.7129ZM49.0449 55.6816C50.3063 55.6816 51.3301 56.7054 51.3301 57.9668C51.3301 59.2261 50.3062 60.252 49.0449 60.252H30.7637C29.5023 60.252 28.4785 59.2282 28.4785 57.9668C28.4785 56.7074 29.5023 55.6816 30.7637 55.6816H49.0449Z" fill="#D3D3D3"/>
</svg>
