<svg width="512" height="512" viewBox="0 0 512 512" fill="none" xmlns="http://www.w3.org/2000/svg">
<circle cx="256" cy="256" r="240" fill="url(#paint0_linear_3053_1218)"/>
<path fill-rule="evenodd" clip-rule="evenodd" d="M290.447 111.669C305.72 115.307 320.314 121.358 333.681 129.593L361.774 117.116L394.886 150.226L382.412 178.311C390.649 191.68 396.701 206.279 400.338 221.556L429 232.587V279.413L400.332 290.448C396.694 305.72 390.644 320.315 382.409 333.681L394.886 361.775L361.775 394.887L333.691 382.413C320.321 390.65 305.722 396.702 290.446 400.339L279.413 429H232.588L221.553 400.331C206.281 396.693 191.686 390.643 178.319 382.408L150.226 394.885L117.114 361.774L129.588 333.69C121.351 320.32 115.3 305.722 111.662 290.445L83 279.413V232.588L111.666 221.554C115.304 206.28 121.355 191.685 129.59 178.317L117.114 150.226L150.225 117.115L178.318 129.592C191.685 121.357 206.279 115.306 221.551 111.668L232.588 83H279.413L290.447 111.669ZM256.669 213.238L180.464 233.48C178.33 234.047 178.33 237.094 180.464 237.661L256.668 257.903C257.81 258.206 258.857 258.206 259.999 257.903L336.204 237.661C338.337 237.094 338.337 234.048 336.204 233.48L259.999 213.238C258.858 212.935 257.81 212.935 256.669 213.238ZM172.017 269.356L170.451 270.26C168.846 271.187 167.928 272.777 167.928 274.63V292.574C167.928 294.361 169.962 295.377 171.39 294.302L177.783 289.494L184.177 294.302C185.605 295.376 187.639 294.361 187.639 292.574V274.629C187.639 272.777 186.721 271.186 185.116 270.26L183.55 269.356V250.412L177.503 248.806C175.321 248.227 173.493 247.234 172.017 245.965V269.356ZM199.708 254.705V286.005C199.702 287.018 200.054 288 200.702 288.779C201.35 289.557 202.252 290.081 203.249 290.259C267.777 302.187 248.892 302.187 313.419 290.259C314.416 290.082 315.318 289.557 315.966 288.779C316.614 288.001 316.966 287.018 316.96 286.005V254.705L262.96 269.05C259.93 269.867 256.738 269.867 253.708 269.05L199.708 254.705ZM256 142.435C193.28 142.435 142.434 193.28 142.434 256C142.434 318.72 193.279 369.566 256 369.566C318.72 369.566 369.565 318.721 369.565 256C369.565 193.28 318.72 142.435 256 142.435Z" fill="white"/>
<defs>
<linearGradient id="paint0_linear_3053_1218" x1="256" y1="16" x2="256" y2="496" gradientUnits="userSpaceOnUse">
<stop stop-color="#02B4AA"/>
<stop offset="1" stop-color="#1E4590"/>
<stop offset="1" stop-color="#1E458F"/>
</linearGradient>
</defs>
</svg>
