<svg width="32" height="32" viewBox="0 0 32 32" fill="none" xmlns="http://www.w3.org/2000/svg">
<path d="M16 32C24.8366 32 32 24.8366 32 16C32 7.16344 24.8366 0 16 0C7.16344 0 0 7.16344 0 16C0 24.8366 7.16344 32 16 32Z" fill="#26A17B"/>
<path fill-rule="evenodd" clip-rule="evenodd" d="M17.9189 17.3833V17.3813C17.8089 17.3893 17.2419 17.4233 15.9769 17.4233C14.9669 17.4233 14.2559 17.3933 14.0059 17.3813V17.3843C10.1179 17.2133 7.21587 16.5363 7.21587 15.7263C7.21587 14.9173 10.1179 14.2403 14.0059 14.0663V16.7103C14.2599 16.7283 14.9879 16.7713 15.9939 16.7713C17.2009 16.7713 17.8059 16.7213 17.9189 16.7113V14.0683C21.7989 14.2413 24.6939 14.9183 24.6939 15.7263C24.6939 16.5363 21.7989 17.2113 17.9189 17.3833ZM17.9189 13.7933V11.4273H23.3329V7.81934H8.59188V11.4273H14.0059V13.7923C9.60587 13.9943 6.29688 14.8663 6.29688 15.9103C6.29688 16.9543 9.60587 17.8253 14.0059 18.0283V25.6103H17.9189V18.0263C22.3119 17.8243 25.6129 16.9533 25.6129 15.9103C25.6129 14.8673 22.3119 13.9963 17.9189 13.7933Z" fill="white"/>
</svg>
