<svg width="1120" height="160" viewBox="0 0 1120 160" fill="none" xmlns="http://www.w3.org/2000/svg">
<g clip-path="url(#clip0_3306_1766)">
<rect width="1120" height="160" rx="15" fill="#131722"/>
<path d="M40.3472 134.609L35.9811 133.464L33.8121 134.157C31.953 131.23 30.1126 129.698 27.2582 127.805L27.9624 124.814L26.6573 120.484L22.3381 118.702L16.526 123.078C13.9157 122.57 11.512 122.265 6.91112 122.459L5.58719 119.902L2.63887 118L-2.50656 119.902L-4.81641 122.182L-0.0840816 120.437L2.68584 122.339L4.58251 126.06C7.82189 125.571 11.0707 125.728 14.1504 126.457L15.9626 123.512L18.8264 121.767L23.4273 123.816L24.0188 127.085L22.9108 130.381C25.5868 132.264 27.9061 134.674 29.6807 137.545L33.0985 136.733L36.2909 137.527L38.0655 142.18L36.2252 144.866L33.0515 146.445C33.5961 149.713 33.4553 152.991 32.6947 156.102L36.8261 158.558L39.2674 162.436L36.5163 165.898L42.2439 158.697L39.6336 153.905L38.1313 153.305C38.2721 149.492 38.3941 147.581 37.8777 144.22L40.4692 142.226L42.3847 139.041L40.3566 134.618L40.3472 134.609Z" fill="#A4BBDD" fill-opacity="0.25"/>
<path d="M33.093 136.714L29.6752 137.527C27.9006 134.665 25.5814 132.246 22.9054 130.362L24.0134 127.066L23.4218 123.798L18.821 121.748L15.9571 123.493L14.145 126.438C11.0652 125.709 7.81643 125.561 4.57705 126.042L2.68038 122.321L-0.0895405 120.419L-4.82187 122.164L-5.60118 125.386L-4.62466 129.31C-7.65748 131.11 -10.202 133.474 -12.1551 136.216L-15.5916 135.099L-18.9155 135.68L-21 140.204L-19.2254 143.02L-16.0799 144.894C-16.8123 148.015 -16.9249 151.301 -16.3428 154.57L-19.0188 155.899L-20.8591 158.586L-19.0845 163.239L-15.8921 164.033L-12.9626 163.341C-10.9532 166.535 -8.27718 169.166 -5.17864 171.114L-6.11759 173.893L-5.52608 177.162L-0.925194 179.211L1.9386 177.475L3.7132 174.586C6.61456 175.121 9.6474 175.149 12.6614 174.623L14.5957 178.399L17.3656 180.301L22.0979 178.556L22.8772 175.334L21.8256 171.124C24.4734 169.462 26.7269 167.357 28.5203 164.947L33.1869 166.47L36.5108 165.889L39.2619 162.427L36.8206 158.549L32.6893 156.093C33.4404 152.982 33.5907 149.704 33.0461 146.436L36.2197 144.857L38.0601 142.171L36.2854 137.517L33.093 136.723V136.714ZM12.6051 160.857C6.71785 163.036 0.154591 160.1 -2.05195 154.321C-4.26787 148.532 -1.28202 142.078 4.59582 139.909C10.483 137.73 17.0463 140.666 19.2529 146.445C21.4688 152.234 18.4829 158.687 12.6051 160.857Z" fill="url(#paint0_linear_3306_1766)" fill-opacity="0.1"/>
<path d="M655.234 44.1522L657.488 40.2973L657.37 38.0559C660.723 37.0458 662.703 35.6927 665.299 33.4686L668.053 34.9124L672.64 34.7922L675.506 31.1468L672.716 24.4882C673.89 22.1379 674.811 19.9313 675.811 15.5068L678.664 14.9099L681.293 12.599L680.758 7.21463L679.118 4.42829L679.606 9.37926L677.023 11.5206L672.881 12.3609C672.522 15.5675 671.528 18.6157 670.015 21.355L672.436 23.8403L673.407 27.0147L670.205 30.8586L666.844 30.5751L663.897 28.6686C661.356 30.7254 658.391 32.3068 655.114 33.2509L655.027 36.7107L653.421 39.5405L648.396 40.0234L646.236 37.5784L645.508 34.1523C642.16 33.8242 638.98 32.842 636.123 31.3136L632.644 34.606L628.207 35.9235L625.522 32.4117L631.106 39.7212L636.484 38.4796L637.461 37.2066C641.167 38.3273 643.011 38.938 646.442 39.3168L647.728 42.2969L650.358 44.9424L655.223 44.1587L655.234 44.1522Z" fill="#A4BBDD" fill-opacity="0.25"/>
<path d="M655.048 36.7111L655.135 33.2513C658.403 32.3048 661.377 30.7258 663.918 28.669L666.866 30.5755L670.226 30.8589L673.428 27.0151L672.457 23.8406L670.036 21.3554C671.549 18.616 672.534 15.5654 672.902 12.3612L677.044 11.5209L679.627 9.37959L679.14 4.42862L676.179 2.85372L672.076 2.76661C671.094 -0.582859 669.434 -3.61388 667.248 -6.18045L669.234 -9.1587L669.523 -12.4695L665.623 -15.6222L662.401 -14.6638L659.748 -12.1582C656.875 -13.6622 653.679 -14.62 650.321 -14.9124L649.709 -17.8008L647.549 -20.2459L642.523 -19.7629L640.918 -16.9332L640.839 -13.9686C637.184 -12.885 633.909 -11.0217 631.196 -8.57991L628.712 -10.1919L625.351 -10.4754L622.149 -6.63147L623.111 -3.45943L625.488 -1.02426C624.211 1.59567 623.399 4.47204 623.136 7.4739L618.929 8.3356L616.346 10.4769L616.834 15.4279L619.794 17.0028L624.197 17.0925C625.143 20.0402 626.625 22.7275 628.526 25.0563L625.823 29.0989L625.534 32.4097L628.219 35.9214L632.656 34.604L636.135 31.3116C638.994 32.831 642.172 33.8222 645.52 34.1503L646.248 37.5763L648.408 40.0214L653.433 39.5384L655.039 36.7087L655.048 36.7111ZM636.659 10.9831C636.044 4.82177 640.624 -0.658514 646.867 -1.26058C653.121 -1.86918 658.681 2.63997 659.289 8.78999C659.903 14.9513 655.323 20.4316 649.081 21.0337C642.827 21.6423 637.266 17.1331 636.659 10.9831Z" fill="url(#paint1_linear_3306_1766)" fill-opacity="0.1"/>
<path d="M54.0114 91V79.3636H56.4716V84.4943H56.625L60.8125 79.3636H63.7614L59.4432 84.5739L63.8125 91H60.8693L57.6818 86.2159L56.4716 87.6932V91H54.0114ZM64.3608 79.3636H67.1165L69.7699 84.375H69.8835L72.5369 79.3636H75.2926L71.0483 86.8864V91H68.6051V86.8864L64.3608 79.3636ZM86.2003 83.4375H83.7116C83.6662 83.1155 83.5734 82.8295 83.4332 82.5795C83.2931 82.3258 83.1132 82.1098 82.8935 81.9318C82.6738 81.7538 82.42 81.6174 82.1321 81.5227C81.848 81.428 81.5393 81.3807 81.206 81.3807C80.6037 81.3807 80.0791 81.5303 79.6321 81.8295C79.1851 82.125 78.8385 82.5568 78.5923 83.125C78.3461 83.6894 78.223 84.375 78.223 85.1818C78.223 86.0114 78.3461 86.7083 78.5923 87.2727C78.8423 87.8371 79.1908 88.2633 79.6378 88.5511C80.0848 88.839 80.6018 88.983 81.1889 88.983C81.5185 88.983 81.8234 88.9394 82.1037 88.8523C82.3878 88.7652 82.6397 88.6383 82.8594 88.4716C83.0791 88.3011 83.2609 88.0947 83.4048 87.8523C83.5526 87.6098 83.6548 87.3333 83.7116 87.0227L86.2003 87.0341C86.1359 87.5682 85.9749 88.0833 85.7173 88.5795C85.4635 89.072 85.1207 89.5133 84.6889 89.9034C84.2609 90.2898 83.7495 90.5966 83.1548 90.8239C82.5639 91.0473 81.8954 91.1591 81.1491 91.1591C80.1113 91.1591 79.1832 90.9242 78.3651 90.4545C77.5507 89.9848 76.9067 89.3049 76.4332 88.4148C75.9635 87.5246 75.7287 86.447 75.7287 85.1818C75.7287 83.9129 75.9673 82.8333 76.4446 81.9432C76.9219 81.053 77.5696 80.375 78.3878 79.9091C79.206 79.4394 80.1264 79.2045 81.1491 79.2045C81.8234 79.2045 82.4484 79.2992 83.0241 79.4886C83.6037 79.678 84.117 79.9545 84.5639 80.3182C85.0109 80.678 85.3745 81.1193 85.6548 81.642C85.9389 82.1648 86.1207 82.7633 86.2003 83.4375ZM93.7699 79.3636L96.5824 88.2045H96.6903L99.5085 79.3636H102.236L98.2244 91H95.054L91.0369 79.3636H93.7699ZM106.584 91.1705C105.686 91.1705 104.913 90.9886 104.266 90.625C103.622 90.2576 103.125 89.7386 102.777 89.0682C102.429 88.3939 102.254 87.5966 102.254 86.6761C102.254 85.7784 102.429 84.9905 102.777 84.3125C103.125 83.6345 103.616 83.1061 104.249 82.7273C104.885 82.3485 105.631 82.1591 106.487 82.1591C107.063 82.1591 107.599 82.2519 108.095 82.4375C108.595 82.6193 109.031 82.8939 109.402 83.2614C109.777 83.6288 110.069 84.0909 110.277 84.6477C110.485 85.2008 110.589 85.8485 110.589 86.5909V87.2557H103.22V85.7557H108.311C108.311 85.4072 108.235 85.0985 108.084 84.8295C107.932 84.5606 107.722 84.3504 107.453 84.1989C107.188 84.0436 106.879 83.9659 106.527 83.9659C106.16 83.9659 105.834 84.0511 105.55 84.2216C105.269 84.3883 105.05 84.6136 104.891 84.8977C104.732 85.178 104.65 85.4905 104.646 85.8352V87.2614C104.646 87.6932 104.726 88.0663 104.885 88.3807C105.048 88.6951 105.277 88.9375 105.572 89.108C105.868 89.2784 106.218 89.3636 106.624 89.3636C106.893 89.3636 107.139 89.3258 107.362 89.25C107.586 89.1742 107.777 89.0606 107.936 88.9091C108.095 88.7576 108.216 88.572 108.3 88.3523L110.538 88.5C110.425 89.0379 110.192 89.5076 109.839 89.9091C109.491 90.3068 109.04 90.6174 108.487 90.8409C107.938 91.0606 107.304 91.1705 106.584 91.1705ZM112.169 91V82.2727H114.516V83.7955H114.607C114.766 83.2538 115.033 82.8447 115.408 82.5682C115.783 82.2879 116.214 82.1477 116.703 82.1477C116.824 82.1477 116.955 82.1553 117.095 82.1705C117.235 82.1856 117.358 82.2064 117.464 82.233V84.3807C117.351 84.3466 117.194 84.3163 116.993 84.2898C116.792 84.2633 116.608 84.25 116.442 84.25C116.086 84.25 115.768 84.3277 115.487 84.483C115.211 84.6345 114.991 84.8466 114.828 85.1193C114.669 85.392 114.589 85.7064 114.589 86.0625V91H112.169ZM118.716 91V82.2727H121.136V91H118.716ZM119.932 81.1477C119.572 81.1477 119.263 81.0284 119.006 80.7898C118.752 80.5473 118.625 80.2576 118.625 79.9205C118.625 79.5871 118.752 79.3011 119.006 79.0625C119.263 78.8201 119.572 78.6989 119.932 78.6989C120.292 78.6989 120.598 78.8201 120.852 79.0625C121.11 79.3011 121.239 79.5871 121.239 79.9205C121.239 80.2576 121.11 80.5473 120.852 80.7898C120.598 81.0284 120.292 81.1477 119.932 81.1477ZM127.768 82.2727V84.0909H122.382V82.2727H127.768ZM123.615 91V81.642C123.615 81.0095 123.738 80.4848 123.984 80.0682C124.234 79.6515 124.575 79.339 125.007 79.1307C125.439 78.9223 125.929 78.8182 126.479 78.8182C126.85 78.8182 127.189 78.8466 127.496 78.9034C127.806 78.9602 128.037 79.0114 128.189 79.0568L127.757 80.875C127.662 80.8447 127.545 80.8163 127.405 80.7898C127.268 80.7633 127.128 80.75 126.984 80.75C126.628 80.75 126.38 80.8333 126.24 81C126.1 81.1629 126.03 81.392 126.03 81.6875V91H123.615ZM129.247 91V82.2727H131.668V91H129.247ZM130.463 81.1477C130.103 81.1477 129.795 81.0284 129.537 80.7898C129.283 80.5473 129.156 80.2576 129.156 79.9205C129.156 79.5871 129.283 79.3011 129.537 79.0625C129.795 78.8201 130.103 78.6989 130.463 78.6989C130.823 78.6989 131.13 78.8201 131.384 79.0625C131.641 79.3011 131.77 79.5871 131.77 79.9205C131.77 80.2576 131.641 80.5473 131.384 80.7898C131.13 81.0284 130.823 81.1477 130.463 81.1477ZM137.55 91.1705C136.656 91.1705 135.887 90.9811 135.243 90.6023C134.603 90.2197 134.11 89.6894 133.766 89.0114C133.425 88.3333 133.254 87.553 133.254 86.6705C133.254 85.7765 133.427 84.9924 133.771 84.3182C134.12 83.6402 134.614 83.1117 135.254 82.733C135.894 82.3504 136.656 82.1591 137.538 82.1591C138.3 82.1591 138.966 82.2973 139.538 82.5739C140.11 82.8504 140.563 83.2386 140.896 83.7386C141.23 84.2386 141.413 84.8258 141.447 85.5H139.163C139.099 85.0644 138.929 84.714 138.652 84.4489C138.379 84.1799 138.021 84.0455 137.578 84.0455C137.203 84.0455 136.875 84.1477 136.595 84.3523C136.319 84.553 136.103 84.8466 135.947 85.233C135.792 85.6193 135.714 86.0871 135.714 86.6364C135.714 87.1932 135.79 87.6667 135.942 88.0568C136.097 88.447 136.315 88.7443 136.595 88.9489C136.875 89.1534 137.203 89.2557 137.578 89.2557C137.855 89.2557 138.103 89.1989 138.322 89.0852C138.546 88.9716 138.73 88.8068 138.874 88.5909C139.021 88.3712 139.118 88.108 139.163 87.8011H141.447C141.41 88.4678 141.228 89.0549 140.902 89.5625C140.58 90.0663 140.135 90.4602 139.567 90.7443C138.999 91.0284 138.326 91.1705 137.55 91.1705ZM145.486 91.1648C144.929 91.1648 144.433 91.0682 143.997 90.875C143.562 90.678 143.217 90.3883 142.963 90.0057C142.713 89.6193 142.588 89.1383 142.588 88.5625C142.588 88.0777 142.677 87.6705 142.855 87.3409C143.033 87.0114 143.276 86.7462 143.582 86.5455C143.889 86.3447 144.238 86.1932 144.628 86.0909C145.022 85.9886 145.435 85.9167 145.866 85.875C146.374 85.822 146.783 85.7727 147.094 85.7273C147.404 85.678 147.63 85.6061 147.77 85.5114C147.91 85.4167 147.98 85.2765 147.98 85.0909V85.0568C147.98 84.697 147.866 84.4186 147.639 84.2216C147.416 84.0246 147.098 83.9261 146.685 83.9261C146.249 83.9261 145.902 84.0227 145.645 84.2159C145.387 84.4053 145.217 84.6439 145.134 84.9318L142.895 84.75C143.009 84.2197 143.232 83.7614 143.565 83.375C143.899 82.9848 144.329 82.6856 144.855 82.4773C145.385 82.2652 145.999 82.1591 146.696 82.1591C147.181 82.1591 147.645 82.2159 148.088 82.3295C148.535 82.4432 148.931 82.6193 149.276 82.858C149.624 83.0966 149.899 83.4034 150.099 83.7784C150.3 84.1496 150.401 84.5947 150.401 85.1136V91H148.105V89.7898H148.037C147.897 90.0625 147.709 90.303 147.474 90.5114C147.24 90.7159 146.957 90.8769 146.628 90.9943C146.298 91.108 145.918 91.1648 145.486 91.1648ZM146.179 89.4943C146.535 89.4943 146.849 89.4242 147.122 89.2841C147.395 89.1402 147.609 88.947 147.764 88.7045C147.92 88.4621 147.997 88.1875 147.997 87.8807V86.9545C147.921 87.0038 147.817 87.0492 147.685 87.0909C147.556 87.1288 147.41 87.1648 147.247 87.1989C147.084 87.2292 146.921 87.2576 146.759 87.2841C146.596 87.3068 146.448 87.3277 146.315 87.3466C146.031 87.3883 145.783 87.4545 145.571 87.5455C145.359 87.6364 145.194 87.7595 145.077 87.9148C144.959 88.0663 144.901 88.2557 144.901 88.483C144.901 88.8125 145.02 89.0644 145.259 89.2386C145.501 89.4091 145.808 89.4943 146.179 89.4943ZM156.92 82.2727V84.0909H151.665V82.2727H156.92ZM152.858 80.1818H155.278V88.3182C155.278 88.5417 155.313 88.7159 155.381 88.8409C155.449 88.9621 155.544 89.0473 155.665 89.0966C155.79 89.1458 155.934 89.1705 156.097 89.1705C156.21 89.1705 156.324 89.161 156.438 89.142C156.551 89.1193 156.638 89.1023 156.699 89.0909L157.08 90.892C156.958 90.9299 156.788 90.9735 156.568 91.0227C156.348 91.0758 156.081 91.108 155.767 91.1193C155.184 91.142 154.672 91.0644 154.233 90.8864C153.797 90.7083 153.458 90.4318 153.216 90.0568C152.973 89.6818 152.854 89.2083 152.858 88.6364V80.1818ZM158.497 91V82.2727H160.918V91H158.497ZM159.713 81.1477C159.353 81.1477 159.045 81.0284 158.787 80.7898C158.533 80.5473 158.406 80.2576 158.406 79.9205C158.406 79.5871 158.533 79.3011 158.787 79.0625C159.045 78.8201 159.353 78.6989 159.713 78.6989C160.073 78.6989 160.38 78.8201 160.634 79.0625C160.891 79.3011 161.02 79.5871 161.02 79.9205C161.02 80.2576 160.891 80.5473 160.634 80.7898C160.38 81.0284 160.073 81.1477 159.713 81.1477ZM166.8 91.1705C165.917 91.1705 165.154 90.983 164.51 90.608C163.87 90.2292 163.375 89.7027 163.027 89.0284C162.679 88.3504 162.504 87.5644 162.504 86.6705C162.504 85.7689 162.679 84.9811 163.027 84.3068C163.375 83.6288 163.87 83.1023 164.51 82.7273C165.154 82.3485 165.917 82.1591 166.8 82.1591C167.682 82.1591 168.444 82.3485 169.084 82.7273C169.728 83.1023 170.224 83.6288 170.572 84.3068C170.921 84.9811 171.095 85.7689 171.095 86.6705C171.095 87.5644 170.921 88.3504 170.572 89.0284C170.224 89.7027 169.728 90.2292 169.084 90.608C168.444 90.983 167.682 91.1705 166.8 91.1705ZM166.811 89.2955C167.213 89.2955 167.548 89.1818 167.817 88.9545C168.086 88.7235 168.288 88.4091 168.425 88.0114C168.565 87.6136 168.635 87.161 168.635 86.6534C168.635 86.1458 168.565 85.6932 168.425 85.2955C168.288 84.8977 168.086 84.5833 167.817 84.3523C167.548 84.1212 167.213 84.0057 166.811 84.0057C166.406 84.0057 166.065 84.1212 165.788 84.3523C165.516 84.5833 165.309 84.8977 165.169 85.2955C165.033 85.6932 164.964 86.1458 164.964 86.6534C164.964 87.161 165.033 87.6136 165.169 88.0114C165.309 88.4091 165.516 88.7235 165.788 88.9545C166.065 89.1818 166.406 89.2955 166.811 89.2955ZM175.089 85.9545V91H172.669V82.2727H174.976V83.8125H175.078C175.271 83.3049 175.595 82.9034 176.05 82.608C176.504 82.3087 177.055 82.1591 177.703 82.1591C178.309 82.1591 178.838 82.2917 179.288 82.5568C179.739 82.822 180.089 83.2008 180.339 83.6932C180.589 84.1818 180.714 84.7652 180.714 85.4432V91H178.294V85.875C178.298 85.3409 178.161 84.9242 177.885 84.625C177.608 84.322 177.228 84.1705 176.743 84.1705C176.417 84.1705 176.129 84.2405 175.879 84.3807C175.633 84.5208 175.44 84.7254 175.3 84.9943C175.163 85.2595 175.093 85.5795 175.089 85.9545Z" fill="white"/>
<path d="M67.8452 36.6364H71.5341V49.9403C71.5341 51.3987 71.1894 52.6813 70.5 53.7884C69.8172 54.8954 68.8561 55.7604 67.6165 56.3835C66.3769 57 64.9285 57.3082 63.2713 57.3082C61.6075 57.3082 60.1558 57 58.9162 56.3835C57.6766 55.7604 56.7154 54.8954 56.0327 53.7884C55.3499 52.6813 55.0085 51.3987 55.0085 49.9403V36.6364H58.6974V49.6321C58.6974 50.4806 58.883 51.2363 59.2543 51.8991C59.6321 52.562 60.1624 53.0824 60.8452 53.4602C61.5279 53.8314 62.3366 54.017 63.2713 54.017C64.206 54.017 65.0147 53.8314 65.6974 53.4602C66.3868 53.0824 66.9171 52.562 67.2884 51.8991C67.6596 51.2363 67.8452 50.4806 67.8452 49.6321V36.6364ZM75.3846 62.7273V41.7273H78.9244V44.2528H79.1332C79.3188 43.8816 79.5806 43.4872 79.9187 43.0696C80.2567 42.6454 80.7141 42.2841 81.2908 41.9858C81.8675 41.6809 82.6033 41.5284 83.4982 41.5284C84.6781 41.5284 85.7421 41.83 86.69 42.4332C87.6445 43.0298 88.4002 43.9148 88.957 45.0881C89.5205 46.2547 89.8022 47.6866 89.8022 49.3835C89.8022 51.0606 89.5271 52.4858 88.9769 53.6591C88.4267 54.8324 87.6777 55.7273 86.7298 56.3438C85.7818 56.9602 84.708 57.2685 83.5082 57.2685C82.6332 57.2685 81.9073 57.1226 81.3306 56.831C80.7539 56.5393 80.2899 56.188 79.9386 55.777C79.5939 55.3594 79.3254 54.965 79.1332 54.5938H78.984V62.7273H75.3846ZM78.9144 49.3636C78.9144 50.3513 79.0536 51.2164 79.332 51.9588C79.6171 52.7012 80.0247 53.2812 80.555 53.6989C81.092 54.1098 81.7416 54.3153 82.5039 54.3153C83.2994 54.3153 83.9656 54.1032 84.5025 53.679C85.0394 53.2481 85.4438 52.6615 85.7156 51.919C85.994 51.17 86.1332 50.3182 86.1332 49.3636C86.1332 48.4157 85.9973 47.5739 85.7255 46.8381C85.4537 46.1023 85.0494 45.5256 84.5124 45.108C83.9755 44.6903 83.306 44.4815 82.5039 44.4815C81.735 44.4815 81.082 44.6837 80.5451 45.0881C80.0082 45.4924 79.6005 46.0592 79.3221 46.7884C79.0503 47.5175 78.9144 48.3759 78.9144 49.3636ZM98.5522 57.2685C97.3524 57.2685 96.2785 56.9602 95.3306 56.3438C94.3827 55.7273 93.6336 54.8324 93.0835 53.6591C92.5333 52.4858 92.2582 51.0606 92.2582 49.3835C92.2582 47.6866 92.5366 46.2547 93.0934 45.0881C93.6568 43.9148 94.4158 43.0298 95.3704 42.4332C96.3249 41.83 97.3888 41.5284 98.5621 41.5284C99.457 41.5284 100.193 41.6809 100.77 41.9858C101.346 42.2841 101.804 42.6454 102.142 43.0696C102.48 43.4872 102.742 43.8816 102.927 44.2528H103.076V36.6364H106.686V57H103.146V54.5938H102.927C102.742 54.965 102.473 55.3594 102.122 55.777C101.77 56.188 101.306 56.5393 100.73 56.831C100.153 57.1226 99.4272 57.2685 98.5522 57.2685ZM99.5565 54.3153C100.319 54.3153 100.968 54.1098 101.505 53.6989C102.042 53.2812 102.45 52.7012 102.728 51.9588C103.007 51.2164 103.146 50.3513 103.146 49.3636C103.146 48.3759 103.007 47.5175 102.728 46.7884C102.457 46.0592 102.052 45.4924 101.515 45.0881C100.985 44.6837 100.332 44.4815 99.5565 44.4815C98.7544 44.4815 98.0849 44.6903 97.5479 45.108C97.011 45.5256 96.6067 46.1023 96.3349 46.8381C96.0631 47.5739 95.9272 48.4157 95.9272 49.3636C95.9272 50.3182 96.0631 51.17 96.3349 51.919C96.6133 52.6615 97.021 53.2481 97.5579 53.679C98.1014 54.1032 98.7676 54.3153 99.5565 54.3153ZM114.916 57.3082C113.948 57.3082 113.077 57.1359 112.301 56.7912C111.532 56.4399 110.922 55.9228 110.472 55.2401C110.027 54.5573 109.805 53.7154 109.805 52.7145C109.805 51.8527 109.964 51.1402 110.283 50.5767C110.601 50.0133 111.035 49.5625 111.585 49.2244C112.135 48.8864 112.755 48.6312 113.445 48.4588C114.141 48.2798 114.86 48.1506 115.602 48.071C116.497 47.9782 117.223 47.8954 117.78 47.8224C118.337 47.7429 118.741 47.6236 118.993 47.4645C119.251 47.2988 119.381 47.0436 119.381 46.6989V46.6392C119.381 45.8902 119.159 45.3101 118.714 44.8991C118.27 44.4882 117.631 44.2827 116.795 44.2827C115.914 44.2827 115.214 44.4749 114.697 44.8594C114.187 45.2438 113.842 45.6979 113.663 46.2216L110.303 45.7443C110.568 44.8163 111.005 44.0407 111.615 43.4176C112.225 42.7879 112.971 42.3172 113.852 42.0057C114.734 41.6875 115.708 41.5284 116.776 41.5284C117.511 41.5284 118.244 41.6146 118.973 41.7869C119.702 41.9593 120.368 42.2443 120.972 42.642C121.575 43.0331 122.059 43.5668 122.423 44.2429C122.795 44.919 122.98 45.7642 122.98 46.7784V57H119.52V54.902H119.401C119.182 55.3262 118.874 55.724 118.476 56.0952C118.085 56.4598 117.591 56.7547 116.994 56.9801C116.404 57.1989 115.712 57.3082 114.916 57.3082ZM115.851 54.6634C116.573 54.6634 117.2 54.5208 117.73 54.2358C118.26 53.9441 118.668 53.5597 118.953 53.0824C119.245 52.6051 119.391 52.0848 119.391 51.5213V49.7216C119.278 49.8144 119.086 49.9006 118.814 49.9801C118.549 50.0597 118.25 50.1293 117.919 50.1889C117.588 50.2486 117.259 50.3016 116.935 50.348C116.61 50.3944 116.328 50.4342 116.089 50.4673C115.553 50.5402 115.072 50.6596 114.648 50.8253C114.223 50.991 113.889 51.223 113.643 51.5213C113.398 51.813 113.276 52.1908 113.276 52.6548C113.276 53.3177 113.518 53.8182 114.001 54.1562C114.485 54.4943 115.102 54.6634 115.851 54.6634ZM134.226 41.7273V44.5114H125.446V41.7273H134.226ZM127.614 38.0682H131.213V52.4062C131.213 52.8902 131.286 53.2614 131.432 53.5199C131.584 53.7718 131.783 53.9441 132.028 54.0369C132.274 54.1297 132.545 54.1761 132.844 54.1761C133.069 54.1761 133.275 54.1596 133.46 54.1264C133.652 54.0933 133.798 54.0634 133.898 54.0369L134.504 56.8509C134.312 56.9171 134.037 56.9901 133.679 57.0696C133.328 57.1491 132.897 57.1955 132.386 57.2088C131.485 57.2353 130.673 57.0994 129.95 56.8011C129.228 56.4962 128.654 56.0256 128.23 55.3892C127.813 54.7528 127.607 53.9574 127.614 53.0028V38.0682ZM143.833 57.2983C142.302 57.2983 140.98 56.9801 139.866 56.3438C138.759 55.7008 137.907 54.7926 137.311 53.6193C136.714 52.4394 136.416 51.0507 136.416 49.4531C136.416 47.8821 136.714 46.5033 137.311 45.3168C137.914 44.1236 138.756 43.1955 139.836 42.5327C140.917 41.8632 142.186 41.5284 143.645 41.5284C144.586 41.5284 145.474 41.6809 146.309 41.9858C147.151 42.2841 147.894 42.7481 148.537 43.3778C149.186 44.0076 149.697 44.8097 150.068 45.7841C150.439 46.7519 150.625 47.9053 150.625 49.2443V50.348H138.106V47.9219H147.174C147.168 47.2325 147.019 46.6193 146.727 46.0824C146.435 45.5388 146.028 45.1113 145.504 44.7997C144.987 44.4882 144.384 44.3324 143.694 44.3324C142.958 44.3324 142.312 44.5114 141.755 44.8693C141.199 45.2206 140.764 45.6847 140.453 46.2614C140.148 46.8314 139.992 47.4579 139.985 48.1406V50.2585C139.985 51.1468 140.148 51.9091 140.473 52.5455C140.797 53.1752 141.252 53.6591 141.835 53.9972C142.418 54.3286 143.101 54.4943 143.883 54.4943C144.407 54.4943 144.881 54.4214 145.305 54.2756C145.729 54.1231 146.097 53.901 146.409 53.6094C146.72 53.3177 146.956 52.9564 147.115 52.5256L150.475 52.9034C150.263 53.7917 149.859 54.5672 149.262 55.2301C148.672 55.8864 147.917 56.3968 146.995 56.7614C146.074 57.1193 145.02 57.2983 143.833 57.2983ZM164.463 36.6364V57H160.774V36.6364H164.463ZM173.966 57.2685C172.766 57.2685 171.693 56.9602 170.745 56.3438C169.797 55.7273 169.048 54.8324 168.498 53.6591C167.947 52.4858 167.672 51.0606 167.672 49.3835C167.672 47.6866 167.951 46.2547 168.507 45.0881C169.071 43.9148 169.83 43.0298 170.784 42.4332C171.739 41.83 172.803 41.5284 173.976 41.5284C174.871 41.5284 175.607 41.6809 176.184 41.9858C176.76 42.2841 177.218 42.6454 177.556 43.0696C177.894 43.4872 178.156 43.8816 178.341 44.2528H178.49V36.6364H182.1V57H178.56V54.5938H178.341C178.156 54.965 177.887 55.3594 177.536 55.777C177.185 56.188 176.721 56.5393 176.144 56.831C175.567 57.1226 174.841 57.2685 173.966 57.2685ZM174.971 54.3153C175.733 54.3153 176.382 54.1098 176.919 53.6989C177.456 53.2812 177.864 52.7012 178.142 51.9588C178.421 51.2164 178.56 50.3513 178.56 49.3636C178.56 48.3759 178.421 47.5175 178.142 46.7884C177.871 46.0592 177.466 45.4924 176.929 45.0881C176.399 44.6837 175.746 44.4815 174.971 44.4815C174.168 44.4815 173.499 44.6903 172.962 45.108C172.425 45.5256 172.021 46.1023 171.749 46.8381C171.477 47.5739 171.341 48.4157 171.341 49.3636C171.341 50.3182 171.477 51.17 171.749 51.919C172.027 52.6615 172.435 53.2481 172.972 53.679C173.516 54.1032 174.182 54.3153 174.971 54.3153ZM192.697 57.2983C191.165 57.2983 189.843 56.9801 188.729 56.3438C187.622 55.7008 186.771 54.7926 186.174 53.6193C185.577 52.4394 185.279 51.0507 185.279 49.4531C185.279 47.8821 185.577 46.5033 186.174 45.3168C186.777 44.1236 187.619 43.1955 188.7 42.5327C189.78 41.8632 191.049 41.5284 192.508 41.5284C193.449 41.5284 194.337 41.6809 195.173 41.9858C196.014 42.2841 196.757 42.7481 197.4 43.3778C198.049 44.0076 198.56 44.8097 198.931 45.7841C199.302 46.7519 199.488 47.9053 199.488 49.2443V50.348H186.969V47.9219H196.038C196.031 47.2325 195.882 46.6193 195.59 46.0824C195.299 45.5388 194.891 45.1113 194.367 44.7997C193.85 44.4882 193.247 44.3324 192.558 44.3324C191.822 44.3324 191.175 44.5114 190.619 44.8693C190.062 45.2206 189.628 45.6847 189.316 46.2614C189.011 46.8314 188.855 47.4579 188.849 48.1406V50.2585C188.849 51.1468 189.011 51.9091 189.336 52.5455C189.661 53.1752 190.115 53.6591 190.698 53.9972C191.281 54.3286 191.964 54.4943 192.746 54.4943C193.27 54.4943 193.744 54.4214 194.168 54.2756C194.593 54.1231 194.96 53.901 195.272 53.6094C195.584 53.3177 195.819 52.9564 195.978 52.5256L199.339 52.9034C199.127 53.7917 198.722 54.5672 198.126 55.2301C197.536 55.8864 196.78 56.3968 195.859 56.7614C194.937 57.1193 193.883 57.2983 192.697 57.2983ZM206.132 48.0511V57H202.533V41.7273H205.973V44.3224H206.152C206.504 43.4673 207.064 42.7879 207.833 42.2841C208.608 41.7803 209.566 41.5284 210.706 41.5284C211.76 41.5284 212.678 41.7538 213.461 42.2045C214.249 42.6553 214.859 43.3082 215.29 44.1634C215.728 45.0185 215.943 46.0559 215.936 47.2756V57H212.337V47.8324C212.337 46.8116 212.072 46.0128 211.542 45.4361C211.018 44.8594 210.292 44.571 209.364 44.571C208.734 44.571 208.174 44.7102 207.684 44.9886C207.2 45.2604 206.819 45.6548 206.54 46.1719C206.268 46.6889 206.132 47.3153 206.132 48.0511ZM227.222 41.7273V44.5114H218.442V41.7273H227.222ZM220.61 38.0682H224.209V52.4062C224.209 52.8902 224.282 53.2614 224.428 53.5199C224.58 53.7718 224.779 53.9441 225.025 54.0369C225.27 54.1297 225.542 54.1761 225.84 54.1761C226.065 54.1761 226.271 54.1596 226.456 54.1264C226.649 54.0933 226.794 54.0634 226.894 54.0369L227.5 56.8509C227.308 56.9171 227.033 56.9901 226.675 57.0696C226.324 57.1491 225.893 57.1955 225.382 57.2088C224.481 57.2353 223.669 57.0994 222.946 56.8011C222.224 56.4962 221.65 56.0256 221.226 55.3892C220.809 54.7528 220.603 53.9574 220.61 53.0028V38.0682ZM230.232 57V41.7273H233.832V57H230.232ZM232.042 39.5597C231.472 39.5597 230.981 39.3707 230.57 38.9929C230.159 38.6084 229.954 38.1477 229.954 37.6108C229.954 37.0672 230.159 36.6065 230.57 36.2287C230.981 35.8442 231.472 35.652 232.042 35.652C232.619 35.652 233.109 35.8442 233.513 36.2287C233.924 36.6065 234.13 37.0672 234.13 37.6108C234.13 38.1477 233.924 38.6084 233.513 38.9929C233.109 39.3707 232.619 39.5597 232.042 39.5597ZM245.159 41.7273V44.5114H236.38V41.7273H245.159ZM238.547 38.0682H242.147V52.4062C242.147 52.8902 242.22 53.2614 242.365 53.5199C242.518 53.7718 242.717 53.9441 242.962 54.0369C243.207 54.1297 243.479 54.1761 243.777 54.1761C244.003 54.1761 244.208 54.1596 244.394 54.1264C244.586 54.0933 244.732 54.0634 244.831 54.0369L245.438 56.8509C245.246 56.9171 244.971 56.9901 244.613 57.0696C244.261 57.1491 243.83 57.1955 243.32 57.2088C242.418 57.2353 241.606 57.0994 240.884 56.8011C240.161 56.4962 239.588 56.0256 239.164 55.3892C238.746 54.7528 238.541 53.9574 238.547 53.0028V38.0682ZM250.407 62.7273C249.916 62.7273 249.462 62.6875 249.045 62.608C248.634 62.535 248.306 62.4489 248.06 62.3494L248.896 59.5455C249.419 59.6979 249.887 59.7708 250.298 59.7642C250.709 59.7576 251.07 59.6283 251.381 59.3764C251.7 59.1312 251.968 58.7202 252.187 58.1435L252.495 57.3182L246.957 41.7273H250.775L254.295 53.2614H254.454L257.984 41.7273H261.812L255.697 58.8494C255.412 59.6581 255.034 60.3509 254.563 60.9276C254.093 61.5109 253.516 61.955 252.833 62.2599C252.157 62.5715 251.348 62.7273 250.407 62.7273Z" fill="white"/>
<path d="M61.7614 110.364H63.5227V118.017C63.5227 118.831 63.3314 119.553 62.9489 120.182C62.5663 120.807 62.0284 121.299 61.3352 121.659C60.642 122.015 59.8295 122.193 58.8977 122.193C57.9697 122.193 57.1591 122.015 56.4659 121.659C55.7727 121.299 55.2348 120.807 54.8523 120.182C54.4697 119.553 54.2784 118.831 54.2784 118.017V110.364H56.0341V117.875C56.0341 118.402 56.1496 118.869 56.3807 119.278C56.6155 119.688 56.947 120.009 57.375 120.244C57.803 120.475 58.3106 120.591 58.8977 120.591C59.4886 120.591 59.9981 120.475 60.4261 120.244C60.858 120.009 61.1875 119.688 61.4148 119.278C61.6458 118.869 61.7614 118.402 61.7614 117.875V110.364ZM65.9389 125.273V113.273H67.598V114.688H67.7401C67.8385 114.506 67.9806 114.295 68.1662 114.057C68.3518 113.818 68.6094 113.61 68.9389 113.432C69.2685 113.25 69.7041 113.159 70.2457 113.159C70.9503 113.159 71.5791 113.337 72.1321 113.693C72.6851 114.049 73.1188 114.562 73.4332 115.233C73.7514 115.903 73.9105 116.71 73.9105 117.653C73.9105 118.597 73.7533 119.405 73.4389 120.08C73.1245 120.75 72.6927 121.267 72.1435 121.631C71.5942 121.991 70.9673 122.17 70.2628 122.17C69.7325 122.17 69.2988 122.081 68.9616 121.903C68.6283 121.725 68.367 121.517 68.1776 121.278C67.9882 121.04 67.8423 120.828 67.7401 120.642H67.6378V125.273H65.9389ZM67.6037 117.636C67.6037 118.25 67.6927 118.788 67.8707 119.25C68.0488 119.712 68.3063 120.074 68.6435 120.335C68.9806 120.593 69.3935 120.722 69.8821 120.722C70.3897 120.722 70.8139 120.587 71.1548 120.318C71.4957 120.045 71.7533 119.676 71.9276 119.21C72.1056 118.744 72.1946 118.22 72.1946 117.636C72.1946 117.061 72.1075 116.544 71.9332 116.085C71.7628 115.627 71.5052 115.265 71.1605 115C70.8196 114.735 70.3935 114.602 69.8821 114.602C69.3897 114.602 68.973 114.729 68.6321 114.983C68.295 115.237 68.0393 115.591 67.8651 116.045C67.6908 116.5 67.6037 117.03 67.6037 117.636ZM79.081 122.17C78.3764 122.17 77.7476 121.991 77.1946 121.631C76.6454 121.267 76.2135 120.75 75.8991 120.08C75.5885 119.405 75.4332 118.597 75.4332 117.653C75.4332 116.71 75.5904 115.903 75.9048 115.233C76.223 114.562 76.6586 114.049 77.2116 113.693C77.7647 113.337 78.3916 113.159 79.0923 113.159C79.634 113.159 80.0696 113.25 80.3991 113.432C80.7325 113.61 80.9901 113.818 81.1719 114.057C81.3575 114.295 81.5014 114.506 81.6037 114.688H81.706V110.364H83.4048V122H81.7457V120.642H81.6037C81.5014 120.828 81.3537 121.04 81.1605 121.278C80.9711 121.517 80.7098 121.725 80.3764 121.903C80.0431 122.081 79.6113 122.17 79.081 122.17ZM79.456 120.722C79.9446 120.722 80.3575 120.593 80.6946 120.335C81.0355 120.074 81.2931 119.712 81.4673 119.25C81.6454 118.788 81.7344 118.25 81.7344 117.636C81.7344 117.03 81.6473 116.5 81.473 116.045C81.2988 115.591 81.0431 115.237 80.706 114.983C80.3688 114.729 79.9522 114.602 79.456 114.602C78.9446 114.602 78.5185 114.735 78.1776 115C77.8366 115.265 77.5791 115.627 77.4048 116.085C77.2344 116.544 77.1491 117.061 77.1491 117.636C77.1491 118.22 77.2363 118.744 77.4105 119.21C77.5848 119.676 77.8423 120.045 78.1832 120.318C78.5279 120.587 78.9522 120.722 79.456 120.722ZM88.3693 122.193C87.8163 122.193 87.3163 122.091 86.8693 121.886C86.4223 121.678 86.0682 121.377 85.8068 120.983C85.5492 120.589 85.4205 120.106 85.4205 119.534C85.4205 119.042 85.5152 118.636 85.7045 118.318C85.8939 118 86.1496 117.748 86.4716 117.562C86.7936 117.377 87.1534 117.237 87.5511 117.142C87.9489 117.047 88.3542 116.975 88.767 116.926C89.2898 116.866 89.714 116.816 90.0398 116.778C90.3655 116.737 90.6023 116.67 90.75 116.58C90.8977 116.489 90.9716 116.341 90.9716 116.136V116.097C90.9716 115.6 90.8314 115.216 90.5511 114.943C90.2746 114.67 89.8617 114.534 89.3125 114.534C88.7405 114.534 88.2898 114.661 87.9602 114.915C87.6345 115.165 87.4091 115.443 87.2841 115.75L85.6875 115.386C85.8769 114.856 86.1534 114.428 86.517 114.102C86.8845 113.773 87.3068 113.534 87.7841 113.386C88.2614 113.235 88.7633 113.159 89.2898 113.159C89.6383 113.159 90.0076 113.201 90.3977 113.284C90.7917 113.364 91.1591 113.511 91.5 113.727C91.8447 113.943 92.1269 114.252 92.3466 114.653C92.5663 115.051 92.6761 115.568 92.6761 116.205V122H91.017V120.807H90.9489C90.839 121.027 90.6742 121.242 90.4545 121.455C90.2348 121.667 89.9527 121.843 89.608 121.983C89.2633 122.123 88.8504 122.193 88.3693 122.193ZM88.7386 120.83C89.2083 120.83 89.6098 120.737 89.9432 120.551C90.2803 120.366 90.536 120.123 90.7102 119.824C90.8883 119.521 90.9773 119.197 90.9773 118.852V117.727C90.9167 117.788 90.7992 117.845 90.625 117.898C90.4545 117.947 90.2595 117.991 90.0398 118.028C89.8201 118.062 89.6061 118.095 89.3977 118.125C89.1894 118.152 89.0152 118.174 88.875 118.193C88.5455 118.235 88.2443 118.305 87.9716 118.403C87.7027 118.502 87.4867 118.644 87.3239 118.83C87.1648 119.011 87.0852 119.254 87.0852 119.557C87.0852 119.977 87.2405 120.295 87.5511 120.511C87.8617 120.723 88.2576 120.83 88.7386 120.83ZM99.0128 113.273V114.636H94.2457V113.273H99.0128ZM95.5241 111.182H97.223V119.438C97.223 119.767 97.2723 120.015 97.3707 120.182C97.4692 120.345 97.5961 120.456 97.7514 120.517C97.9105 120.574 98.0829 120.602 98.2685 120.602C98.4048 120.602 98.5241 120.593 98.6264 120.574C98.7287 120.555 98.8082 120.54 98.8651 120.528L99.1719 121.932C99.0734 121.97 98.9332 122.008 98.7514 122.045C98.5696 122.087 98.3423 122.11 98.0696 122.114C97.6226 122.121 97.206 122.042 96.8196 121.875C96.4332 121.708 96.1207 121.451 95.8821 121.102C95.6435 120.754 95.5241 120.316 95.5241 119.79V111.182ZM104.56 122.176C103.7 122.176 102.959 121.992 102.338 121.625C101.721 121.254 101.243 120.733 100.906 120.062C100.573 119.388 100.406 118.598 100.406 117.693C100.406 116.799 100.573 116.011 100.906 115.33C101.243 114.648 101.713 114.116 102.315 113.733C102.921 113.35 103.63 113.159 104.44 113.159C104.933 113.159 105.41 113.241 105.872 113.403C106.334 113.566 106.749 113.822 107.116 114.17C107.484 114.519 107.774 114.972 107.986 115.528C108.198 116.081 108.304 116.754 108.304 117.545V118.148H101.366V116.875H106.639C106.639 116.428 106.548 116.032 106.366 115.688C106.185 115.339 105.929 115.064 105.599 114.864C105.274 114.663 104.891 114.562 104.452 114.562C103.974 114.562 103.558 114.68 103.202 114.915C102.849 115.146 102.577 115.449 102.384 115.824C102.194 116.195 102.099 116.598 102.099 117.034V118.028C102.099 118.612 102.202 119.108 102.406 119.517C102.615 119.926 102.904 120.239 103.276 120.455C103.647 120.667 104.08 120.773 104.577 120.773C104.899 120.773 105.192 120.727 105.457 120.636C105.723 120.542 105.952 120.402 106.145 120.216C106.338 120.03 106.486 119.801 106.588 119.528L108.196 119.818C108.067 120.292 107.836 120.706 107.503 121.062C107.173 121.415 106.759 121.689 106.259 121.886C105.762 122.08 105.196 122.176 104.56 122.176ZM115.497 125.273C115.243 125.273 115.012 125.252 114.804 125.21C114.596 125.172 114.44 125.131 114.338 125.085L114.747 123.693C115.058 123.777 115.334 123.813 115.577 123.801C115.819 123.79 116.033 123.699 116.219 123.528C116.408 123.358 116.575 123.08 116.719 122.693L116.929 122.114L113.736 113.273H115.554L117.764 120.045H117.855L120.065 113.273H121.889L118.293 123.165C118.126 123.619 117.914 124.004 117.656 124.318C117.399 124.636 117.092 124.875 116.736 125.034C116.38 125.193 115.967 125.273 115.497 125.273ZM126.865 122.176C126.047 122.176 125.333 121.989 124.723 121.614C124.113 121.239 123.64 120.714 123.303 120.04C122.965 119.366 122.797 118.578 122.797 117.676C122.797 116.771 122.965 115.979 123.303 115.301C123.64 114.623 124.113 114.097 124.723 113.722C125.333 113.347 126.047 113.159 126.865 113.159C127.683 113.159 128.397 113.347 129.007 113.722C129.617 114.097 130.09 114.623 130.428 115.301C130.765 115.979 130.933 116.771 130.933 117.676C130.933 118.578 130.765 119.366 130.428 120.04C130.09 120.714 129.617 121.239 129.007 121.614C128.397 121.989 127.683 122.176 126.865 122.176ZM126.871 120.75C127.401 120.75 127.84 120.61 128.189 120.33C128.537 120.049 128.795 119.676 128.962 119.21C129.132 118.744 129.217 118.231 129.217 117.67C129.217 117.114 129.132 116.602 128.962 116.136C128.795 115.667 128.537 115.29 128.189 115.006C127.84 114.722 127.401 114.58 126.871 114.58C126.337 114.58 125.893 114.722 125.541 115.006C125.193 115.29 124.933 115.667 124.763 116.136C124.596 116.602 124.513 117.114 124.513 117.67C124.513 118.231 124.596 118.744 124.763 119.21C124.933 119.676 125.193 120.049 125.541 120.33C125.893 120.61 126.337 120.75 126.871 120.75ZM138.358 118.381V113.273H140.062V122H138.392V120.489H138.301C138.1 120.955 137.778 121.343 137.335 121.653C136.896 121.96 136.348 122.114 135.693 122.114C135.133 122.114 134.636 121.991 134.205 121.744C133.777 121.494 133.439 121.125 133.193 120.636C132.951 120.148 132.83 119.544 132.83 118.824V113.273H134.528V118.619C134.528 119.214 134.693 119.687 135.023 120.04C135.352 120.392 135.78 120.568 136.307 120.568C136.625 120.568 136.941 120.489 137.256 120.33C137.574 120.17 137.837 119.93 138.045 119.608C138.258 119.286 138.362 118.877 138.358 118.381ZM142.345 122V113.273H143.987V114.659H144.078C144.237 114.189 144.518 113.82 144.919 113.551C145.324 113.278 145.783 113.142 146.294 113.142C146.4 113.142 146.525 113.146 146.669 113.153C146.817 113.161 146.932 113.17 147.016 113.182V114.807C146.947 114.788 146.826 114.767 146.652 114.744C146.478 114.718 146.304 114.705 146.129 114.705C145.728 114.705 145.37 114.79 145.055 114.96C144.745 115.127 144.499 115.36 144.317 115.659C144.135 115.955 144.044 116.292 144.044 116.67V122H142.345ZM152.857 122V110.364H154.612V115.92H154.754L159.635 110.364H161.845L157.152 115.602L161.862 122H159.749L155.987 116.801L154.612 118.381V122H152.857ZM162.584 110.364H164.578L167.618 115.653H167.743L170.783 110.364H172.777L168.555 117.432V122H166.805V117.432L162.584 110.364ZM183.506 114.148H181.733C181.665 113.769 181.538 113.436 181.352 113.148C181.167 112.86 180.939 112.616 180.67 112.415C180.402 112.214 180.1 112.062 179.767 111.96C179.438 111.858 179.087 111.807 178.716 111.807C178.045 111.807 177.445 111.975 176.915 112.312C176.388 112.65 175.972 113.144 175.665 113.795C175.362 114.447 175.21 115.242 175.21 116.182C175.21 117.129 175.362 117.928 175.665 118.58C175.972 119.231 176.39 119.723 176.92 120.057C177.451 120.39 178.047 120.557 178.71 120.557C179.078 120.557 179.426 120.508 179.756 120.409C180.089 120.307 180.39 120.157 180.659 119.96C180.928 119.763 181.155 119.523 181.341 119.239C181.53 118.951 181.661 118.621 181.733 118.25L183.506 118.256C183.411 118.828 183.227 119.354 182.955 119.835C182.686 120.312 182.339 120.725 181.915 121.074C181.494 121.419 181.013 121.686 180.472 121.875C179.93 122.064 179.339 122.159 178.699 122.159C177.691 122.159 176.794 121.92 176.006 121.443C175.218 120.962 174.597 120.275 174.142 119.381C173.691 118.487 173.466 117.42 173.466 116.182C173.466 114.939 173.693 113.873 174.148 112.983C174.602 112.089 175.223 111.403 176.011 110.926C176.799 110.445 177.695 110.205 178.699 110.205C179.316 110.205 179.892 110.294 180.426 110.472C180.964 110.646 181.447 110.903 181.875 111.244C182.303 111.581 182.657 111.994 182.938 112.483C183.218 112.968 183.407 113.523 183.506 114.148ZM192.972 122.17C192.267 122.17 191.638 121.991 191.085 121.631C190.536 121.267 190.104 120.75 189.79 120.08C189.479 119.405 189.324 118.597 189.324 117.653C189.324 116.71 189.481 115.903 189.795 115.233C190.114 114.562 190.549 114.049 191.102 113.693C191.655 113.337 192.282 113.159 192.983 113.159C193.525 113.159 193.96 113.25 194.29 113.432C194.623 113.61 194.881 113.818 195.062 114.057C195.248 114.295 195.392 114.506 195.494 114.688H195.597V110.364H197.295V122H195.636V120.642H195.494C195.392 120.828 195.244 121.04 195.051 121.278C194.862 121.517 194.6 121.725 194.267 121.903C193.934 122.081 193.502 122.17 192.972 122.17ZM193.347 120.722C193.835 120.722 194.248 120.593 194.585 120.335C194.926 120.074 195.184 119.712 195.358 119.25C195.536 118.788 195.625 118.25 195.625 117.636C195.625 117.03 195.538 116.5 195.364 116.045C195.189 115.591 194.934 115.237 194.597 114.983C194.259 114.729 193.843 114.602 193.347 114.602C192.835 114.602 192.409 114.735 192.068 115C191.727 115.265 191.47 115.627 191.295 116.085C191.125 116.544 191.04 117.061 191.04 117.636C191.04 118.22 191.127 118.744 191.301 119.21C191.475 119.676 191.733 120.045 192.074 120.318C192.419 120.587 192.843 120.722 193.347 120.722ZM203.482 122.176C202.622 122.176 201.881 121.992 201.26 121.625C200.643 121.254 200.165 120.733 199.828 120.062C199.495 119.388 199.328 118.598 199.328 117.693C199.328 116.799 199.495 116.011 199.828 115.33C200.165 114.648 200.635 114.116 201.237 113.733C201.843 113.35 202.552 113.159 203.362 113.159C203.855 113.159 204.332 113.241 204.794 113.403C205.256 113.566 205.671 113.822 206.038 114.17C206.406 114.519 206.696 114.972 206.908 115.528C207.12 116.081 207.226 116.754 207.226 117.545V118.148H200.288V116.875H205.561C205.561 116.428 205.47 116.032 205.288 115.688C205.107 115.339 204.851 115.064 204.521 114.864C204.196 114.663 203.813 114.562 203.374 114.562C202.896 114.562 202.48 114.68 202.124 114.915C201.771 115.146 201.499 115.449 201.305 115.824C201.116 116.195 201.021 116.598 201.021 117.034V118.028C201.021 118.612 201.124 119.108 201.328 119.517C201.536 119.926 201.826 120.239 202.197 120.455C202.569 120.667 203.002 120.773 203.499 120.773C203.821 120.773 204.114 120.727 204.379 120.636C204.644 120.542 204.874 120.402 205.067 120.216C205.26 120.03 205.408 119.801 205.51 119.528L207.118 119.818C206.989 120.292 206.758 120.706 206.425 121.062C206.095 121.415 205.68 121.689 205.18 121.886C204.684 122.08 204.118 122.176 203.482 122.176ZM213.185 113.273V114.636H208.418V113.273H213.185ZM209.696 111.182H211.395V119.438C211.395 119.767 211.444 120.015 211.543 120.182C211.641 120.345 211.768 120.456 211.923 120.517C212.082 120.574 212.255 120.602 212.44 120.602C212.577 120.602 212.696 120.593 212.798 120.574C212.901 120.555 212.98 120.54 213.037 120.528L213.344 121.932C213.245 121.97 213.105 122.008 212.923 122.045C212.741 122.087 212.514 122.11 212.241 122.114C211.795 122.121 211.378 122.042 210.991 121.875C210.605 121.708 210.293 121.451 210.054 121.102C209.815 120.754 209.696 120.316 209.696 119.79V111.182ZM217.604 122.193C217.051 122.193 216.551 122.091 216.104 121.886C215.657 121.678 215.303 121.377 215.041 120.983C214.784 120.589 214.655 120.106 214.655 119.534C214.655 119.042 214.75 118.636 214.939 118.318C215.128 118 215.384 117.748 215.706 117.562C216.028 117.377 216.388 117.237 216.786 117.142C217.183 117.047 217.589 116.975 218.001 116.926C218.524 116.866 218.948 116.816 219.274 116.778C219.6 116.737 219.837 116.67 219.984 116.58C220.132 116.489 220.206 116.341 220.206 116.136V116.097C220.206 115.6 220.066 115.216 219.786 114.943C219.509 114.67 219.096 114.534 218.547 114.534C217.975 114.534 217.524 114.661 217.195 114.915C216.869 115.165 216.643 115.443 216.518 115.75L214.922 115.386C215.111 114.856 215.388 114.428 215.751 114.102C216.119 113.773 216.541 113.534 217.018 113.386C217.496 113.235 217.998 113.159 218.524 113.159C218.873 113.159 219.242 113.201 219.632 113.284C220.026 113.364 220.393 113.511 220.734 113.727C221.079 113.943 221.361 114.252 221.581 114.653C221.801 115.051 221.911 115.568 221.911 116.205V122H220.251V120.807H220.183C220.073 121.027 219.909 121.242 219.689 121.455C219.469 121.667 219.187 121.843 218.842 121.983C218.498 122.123 218.085 122.193 217.604 122.193ZM217.973 120.83C218.443 120.83 218.844 120.737 219.178 120.551C219.515 120.366 219.77 120.123 219.945 119.824C220.123 119.521 220.212 119.197 220.212 118.852V117.727C220.151 117.788 220.034 117.845 219.859 117.898C219.689 117.947 219.494 117.991 219.274 118.028C219.054 118.062 218.84 118.095 218.632 118.125C218.424 118.152 218.25 118.174 218.109 118.193C217.78 118.235 217.479 118.305 217.206 118.403C216.937 118.502 216.721 118.644 216.558 118.83C216.399 119.011 216.32 119.254 216.32 119.557C216.32 119.977 216.475 120.295 216.786 120.511C217.096 120.723 217.492 120.83 217.973 120.83ZM224.173 122V113.273H225.872V122H224.173ZM225.031 111.926C224.736 111.926 224.482 111.828 224.27 111.631C224.062 111.43 223.957 111.191 223.957 110.915C223.957 110.634 224.062 110.396 224.27 110.199C224.482 109.998 224.736 109.898 225.031 109.898C225.327 109.898 225.579 109.998 225.787 110.199C225.999 110.396 226.105 110.634 226.105 110.915C226.105 111.191 225.999 111.43 225.787 111.631C225.579 111.828 225.327 111.926 225.031 111.926ZM229.857 110.364V122H228.158V110.364H229.857ZM238.682 115.403L237.142 115.676C237.078 115.479 236.975 115.292 236.835 115.114C236.699 114.936 236.513 114.79 236.278 114.676C236.044 114.562 235.75 114.506 235.398 114.506C234.917 114.506 234.515 114.614 234.193 114.83C233.871 115.042 233.71 115.316 233.71 115.653C233.71 115.945 233.818 116.18 234.034 116.358C234.25 116.536 234.598 116.682 235.08 116.795L236.466 117.114C237.269 117.299 237.867 117.585 238.261 117.972C238.655 118.358 238.852 118.86 238.852 119.477C238.852 120 238.701 120.466 238.398 120.875C238.098 121.28 237.68 121.598 237.142 121.83C236.608 122.061 235.989 122.176 235.284 122.176C234.307 122.176 233.509 121.968 232.892 121.551C232.275 121.131 231.896 120.534 231.756 119.761L233.398 119.511C233.5 119.939 233.71 120.263 234.028 120.483C234.347 120.699 234.761 120.807 235.273 120.807C235.83 120.807 236.275 120.691 236.608 120.46C236.941 120.225 237.108 119.939 237.108 119.602C237.108 119.33 237.006 119.1 236.801 118.915C236.6 118.729 236.292 118.589 235.875 118.494L234.398 118.17C233.583 117.985 232.981 117.689 232.591 117.284C232.205 116.879 232.011 116.366 232.011 115.744C232.011 115.229 232.155 114.778 232.443 114.392C232.731 114.006 233.129 113.705 233.636 113.489C234.144 113.269 234.725 113.159 235.381 113.159C236.324 113.159 237.066 113.364 237.608 113.773C238.15 114.178 238.508 114.722 238.682 115.403ZM249.108 113.273V114.636H244.176V113.273H249.108ZM245.528 122V112.261C245.528 111.716 245.648 111.263 245.886 110.903C246.125 110.54 246.441 110.269 246.835 110.091C247.229 109.909 247.657 109.818 248.119 109.818C248.46 109.818 248.752 109.847 248.994 109.903C249.237 109.956 249.417 110.006 249.534 110.051L249.136 111.426C249.057 111.403 248.955 111.377 248.83 111.347C248.705 111.312 248.553 111.295 248.375 111.295C247.962 111.295 247.667 111.398 247.489 111.602C247.314 111.807 247.227 112.102 247.227 112.489V122H245.528ZM254.193 122.176C253.375 122.176 252.661 121.989 252.051 121.614C251.441 121.239 250.968 120.714 250.631 120.04C250.294 119.366 250.125 118.578 250.125 117.676C250.125 116.771 250.294 115.979 250.631 115.301C250.968 114.623 251.441 114.097 252.051 113.722C252.661 113.347 253.375 113.159 254.193 113.159C255.011 113.159 255.725 113.347 256.335 113.722C256.945 114.097 257.419 114.623 257.756 115.301C258.093 115.979 258.261 116.771 258.261 117.676C258.261 118.578 258.093 119.366 257.756 120.04C257.419 120.714 256.945 121.239 256.335 121.614C255.725 121.989 255.011 122.176 254.193 122.176ZM254.199 120.75C254.729 120.75 255.169 120.61 255.517 120.33C255.866 120.049 256.123 119.676 256.29 119.21C256.46 118.744 256.545 118.231 256.545 117.67C256.545 117.114 256.46 116.602 256.29 116.136C256.123 115.667 255.866 115.29 255.517 115.006C255.169 114.722 254.729 114.58 254.199 114.58C253.665 114.58 253.222 114.722 252.869 115.006C252.521 115.29 252.261 115.667 252.091 116.136C251.924 116.602 251.841 117.114 251.841 117.67C251.841 118.231 251.924 118.744 252.091 119.21C252.261 119.676 252.521 120.049 252.869 120.33C253.222 120.61 253.665 120.75 254.199 120.75ZM260.158 122V113.273H261.8V114.659H261.891C262.05 114.189 262.33 113.82 262.732 113.551C263.137 113.278 263.595 113.142 264.107 113.142C264.213 113.142 264.338 113.146 264.482 113.153C264.629 113.161 264.745 113.17 264.828 113.182V114.807C264.76 114.788 264.639 114.767 264.464 114.744C264.29 114.718 264.116 114.705 263.942 114.705C263.54 114.705 263.182 114.79 262.868 114.96C262.557 115.127 262.311 115.36 262.129 115.659C261.947 115.955 261.857 116.292 261.857 116.67V122H260.158ZM274.607 113.273V114.636H269.839V113.273H274.607ZM271.118 111.182H272.817V119.438C272.817 119.767 272.866 120.015 272.964 120.182C273.063 120.345 273.19 120.456 273.345 120.517C273.504 120.574 273.677 120.602 273.862 120.602C273.999 120.602 274.118 120.593 274.22 120.574C274.322 120.555 274.402 120.54 274.459 120.528L274.766 121.932C274.667 121.97 274.527 122.008 274.345 122.045C274.163 122.087 273.936 122.11 273.663 122.114C273.216 122.121 272.8 122.042 272.413 121.875C272.027 121.708 271.714 121.451 271.476 121.102C271.237 120.754 271.118 120.316 271.118 119.79V111.182ZM276.486 122V113.273H278.128V114.659H278.219C278.378 114.189 278.658 113.82 279.06 113.551C279.465 113.278 279.923 113.142 280.435 113.142C280.541 113.142 280.666 113.146 280.81 113.153C280.957 113.161 281.073 113.17 281.156 113.182V114.807C281.088 114.788 280.967 114.767 280.793 114.744C280.618 114.718 280.444 114.705 280.27 114.705C279.868 114.705 279.51 114.79 279.196 114.96C278.885 115.127 278.639 115.36 278.457 115.659C278.276 115.955 278.185 116.292 278.185 116.67V122H276.486ZM285.088 122.193C284.535 122.193 284.035 122.091 283.588 121.886C283.141 121.678 282.787 121.377 282.526 120.983C282.268 120.589 282.139 120.106 282.139 119.534C282.139 119.042 282.234 118.636 282.423 118.318C282.613 118 282.868 117.748 283.19 117.562C283.512 117.377 283.872 117.237 284.27 117.142C284.668 117.047 285.073 116.975 285.486 116.926C286.009 116.866 286.433 116.816 286.759 116.778C287.084 116.737 287.321 116.67 287.469 116.58C287.616 116.489 287.69 116.341 287.69 116.136V116.097C287.69 115.6 287.55 115.216 287.27 114.943C286.993 114.67 286.58 114.534 286.031 114.534C285.459 114.534 285.009 114.661 284.679 114.915C284.353 115.165 284.128 115.443 284.003 115.75L282.406 115.386C282.596 114.856 282.872 114.428 283.236 114.102C283.603 113.773 284.026 113.534 284.503 113.386C284.98 113.235 285.482 113.159 286.009 113.159C286.357 113.159 286.726 113.201 287.116 113.284C287.51 113.364 287.878 113.511 288.219 113.727C288.563 113.943 288.846 114.252 289.065 114.653C289.285 115.051 289.395 115.568 289.395 116.205V122H287.736V120.807H287.668C287.558 121.027 287.393 121.242 287.173 121.455C286.954 121.667 286.671 121.843 286.327 121.983C285.982 122.123 285.569 122.193 285.088 122.193ZM285.457 120.83C285.927 120.83 286.329 120.737 286.662 120.551C286.999 120.366 287.255 120.123 287.429 119.824C287.607 119.521 287.696 119.197 287.696 118.852V117.727C287.635 117.788 287.518 117.845 287.344 117.898C287.173 117.947 286.978 117.991 286.759 118.028C286.539 118.062 286.325 118.095 286.116 118.125C285.908 118.152 285.734 118.174 285.594 118.193C285.264 118.235 284.963 118.305 284.69 118.403C284.421 118.502 284.205 118.644 284.043 118.83C283.884 119.011 283.804 119.254 283.804 119.557C283.804 119.977 283.959 120.295 284.27 120.511C284.58 120.723 284.976 120.83 285.457 120.83ZM294.925 122.17C294.22 122.17 293.591 121.991 293.038 121.631C292.489 121.267 292.057 120.75 291.743 120.08C291.432 119.405 291.277 118.597 291.277 117.653C291.277 116.71 291.434 115.903 291.749 115.233C292.067 114.562 292.502 114.049 293.055 113.693C293.608 113.337 294.235 113.159 294.936 113.159C295.478 113.159 295.913 113.25 296.243 113.432C296.576 113.61 296.834 113.818 297.016 114.057C297.201 114.295 297.345 114.506 297.447 114.688H297.55V110.364H299.249V122H297.589V120.642H297.447C297.345 120.828 297.197 121.04 297.004 121.278C296.815 121.517 296.554 121.725 296.22 121.903C295.887 122.081 295.455 122.17 294.925 122.17ZM295.3 120.722C295.788 120.722 296.201 120.593 296.538 120.335C296.879 120.074 297.137 119.712 297.311 119.25C297.489 118.788 297.578 118.25 297.578 117.636C297.578 117.03 297.491 116.5 297.317 116.045C297.143 115.591 296.887 115.237 296.55 114.983C296.213 114.729 295.796 114.602 295.3 114.602C294.788 114.602 294.362 114.735 294.021 115C293.68 115.265 293.423 115.627 293.249 116.085C293.078 116.544 292.993 117.061 292.993 117.636C292.993 118.22 293.08 118.744 293.254 119.21C293.429 119.676 293.686 120.045 294.027 120.318C294.372 120.587 294.796 120.722 295.3 120.722ZM301.673 122V113.273H303.372V122H301.673ZM302.531 111.926C302.236 111.926 301.982 111.828 301.77 111.631C301.562 111.43 301.457 111.191 301.457 110.915C301.457 110.634 301.562 110.396 301.77 110.199C301.982 109.998 302.236 109.898 302.531 109.898C302.827 109.898 303.079 109.998 303.287 110.199C303.499 110.396 303.605 110.634 303.605 110.915C303.605 111.191 303.499 111.43 303.287 111.631C303.079 111.828 302.827 111.926 302.531 111.926ZM307.357 116.818V122H305.658V113.273H307.288V114.693H307.396C307.597 114.231 307.911 113.86 308.339 113.58C308.771 113.299 309.315 113.159 309.97 113.159C310.565 113.159 311.086 113.284 311.533 113.534C311.98 113.78 312.326 114.148 312.572 114.636C312.819 115.125 312.942 115.729 312.942 116.449V122H311.243V116.653C311.243 116.021 311.078 115.527 310.749 115.17C310.419 114.811 309.966 114.631 309.391 114.631C308.997 114.631 308.646 114.716 308.339 114.886C308.036 115.057 307.796 115.307 307.618 115.636C307.444 115.962 307.357 116.356 307.357 116.818ZM318.879 125.455C318.186 125.455 317.589 125.364 317.089 125.182C316.593 125 316.188 124.759 315.874 124.46C315.559 124.161 315.324 123.833 315.169 123.477L316.629 122.875C316.732 123.042 316.868 123.218 317.038 123.403C317.213 123.593 317.447 123.754 317.743 123.886C318.042 124.019 318.427 124.085 318.896 124.085C319.54 124.085 320.072 123.928 320.493 123.614C320.913 123.303 321.124 122.807 321.124 122.125V120.409H321.016C320.913 120.595 320.766 120.801 320.572 121.028C320.383 121.256 320.122 121.453 319.788 121.619C319.455 121.786 319.021 121.869 318.487 121.869C317.798 121.869 317.177 121.708 316.624 121.386C316.074 121.061 315.639 120.581 315.317 119.949C314.999 119.312 314.839 118.53 314.839 117.602C314.839 116.674 314.997 115.879 315.311 115.216C315.629 114.553 316.065 114.045 316.618 113.693C317.171 113.337 317.798 113.159 318.499 113.159C319.04 113.159 319.478 113.25 319.811 113.432C320.144 113.61 320.404 113.818 320.589 114.057C320.779 114.295 320.925 114.506 321.027 114.688H321.152V113.273H322.817V122.193C322.817 122.943 322.643 123.559 322.294 124.04C321.946 124.521 321.474 124.877 320.879 125.108C320.288 125.339 319.622 125.455 318.879 125.455ZM318.862 120.46C319.351 120.46 319.764 120.347 320.101 120.119C320.442 119.888 320.699 119.559 320.874 119.131C321.052 118.699 321.141 118.182 321.141 117.58C321.141 116.992 321.054 116.475 320.879 116.028C320.705 115.581 320.449 115.233 320.112 114.983C319.775 114.729 319.358 114.602 318.862 114.602C318.351 114.602 317.925 114.735 317.584 115C317.243 115.261 316.985 115.617 316.811 116.068C316.641 116.519 316.555 117.023 316.555 117.58C316.555 118.152 316.643 118.653 316.817 119.085C316.991 119.517 317.249 119.854 317.589 120.097C317.934 120.339 318.358 120.46 318.862 120.46ZM326.214 122.108C325.904 122.108 325.637 121.998 325.413 121.778C325.19 121.555 325.078 121.286 325.078 120.972C325.078 120.661 325.19 120.396 325.413 120.176C325.637 119.953 325.904 119.841 326.214 119.841C326.525 119.841 326.792 119.953 327.016 120.176C327.239 120.396 327.351 120.661 327.351 120.972C327.351 121.18 327.298 121.371 327.192 121.545C327.089 121.716 326.953 121.852 326.783 121.955C326.612 122.057 326.423 122.108 326.214 122.108Z" fill="white"/>
<g clip-path="url(#clip1_3306_1766)">
<path d="M1065.57 143.63L1061.41 143.651C1058.48 143.665 1054.33 143.684 1049.21 143.707C1048 143.714 1046.73 143.72 1045.41 143.725C1043.54 143.735 1041.56 143.745 1039.49 143.755L1032.94 143.785C971.963 144.071 848.755 144.62 848.663 144.406L848.644 144.371C848.644 144.371 848.623 144.337 848.623 144.321C848.545 144.183 807.077 104.289 855.425 77.0374C874.343 66.3748 856.926 61.5225 872.363 50.1505C896.066 32.6889 928.228 51.9941 947.035 44.3184C1000.15 22.6436 1020.59 26.0066 1036.16 29.7522C1038.49 30.3129 1041.28 31.4415 1044.07 33.0541C1048.28 35.4894 1052.51 39.025 1055.18 43.3559C1059.01 49.5706 1059.64 57.4235 1052.43 66.0096C1052.29 66.1803 1052.15 66.3547 1052.03 66.531C1048.35 71.5897 1050.96 78.7705 1055.45 85.9038C1058.32 90.473 1061.97 95.0222 1065.23 98.9824C1086.92 125.321 1065.77 143.284 1065.57 143.63Z" fill="#1F2638"/>
<path d="M1050.44 57.5362L1008.14 65.1201L1017.81 119.911L1060.12 112.328L1050.44 57.5362Z" fill="#A2FFF7"/>
<path d="M902.507 134.009C902.507 134.009 874.124 142.019 859.777 128.431C848.283 117.546 841.164 118.372 837.894 121.775C832.827 127.046 846.549 144.677 883.184 145.209C919.813 145.742 902.511 134.009 902.511 134.009H902.507Z" fill="url(#paint2_linear_3306_1766)"/>
<path d="M893.945 138.291C879.19 140.895 866.771 137.872 858.802 134.771C849.724 131.242 844.298 126.852 844.245 126.811C844.168 126.748 844.159 126.639 844.218 126.563C844.281 126.486 844.388 126.477 844.465 126.536C844.519 126.581 849.909 130.936 858.941 134.447C867.274 137.682 880.493 140.841 896.169 137.497C896.259 137.484 896.357 137.538 896.375 137.633C896.393 137.727 896.335 137.822 896.241 137.84C895.468 138.003 894.704 138.156 893.945 138.287V138.291Z" fill="#EFEFEF"/>
<path d="M893.327 135.71C893.327 135.71 868.788 129.04 859.913 112.853C852.066 98.5386 845.625 95.6188 842.431 96.0836C834.651 97.2208 839.152 114.396 870.113 135.394C895.496 152.61 893.327 135.71 893.327 135.71Z" fill="url(#paint3_linear_3306_1766)"/>
<path d="M884.115 134.803C884.07 134.825 884.021 134.83 883.972 134.812C868.565 128.977 858.625 120.069 853.001 113.62C846.902 106.63 844.418 100.944 844.391 100.885C844.35 100.795 844.391 100.691 844.481 100.655C844.57 100.614 844.674 100.655 844.71 100.745C844.732 100.799 847.207 106.449 853.271 113.399C858.867 119.811 868.758 128.674 884.093 134.482C884.183 134.518 884.228 134.618 884.196 134.708C884.183 134.749 884.151 134.78 884.115 134.798V134.803Z" fill="#EFEFEF"/>
<path d="M896.248 129.329C896.248 129.329 876.898 117.406 876.521 101.937C876.22 89.5401 871.185 84.1609 866.558 84.0346C860.773 83.8721 858.361 98.1955 880.729 124.997C890.786 137.046 896.248 129.333 896.248 129.333V129.329Z" fill="url(#paint4_linear_3306_1766)"/>
<path d="M896.426 125.38C896.386 125.389 896.341 125.38 896.305 125.362C882.763 117.939 875.54 108.385 871.87 101.675C867.891 94.4003 867.104 88.8 867.095 88.7413C867.082 88.6465 867.149 88.5608 867.244 88.5427C867.338 88.5292 867.428 88.5969 867.441 88.6917C867.45 88.7458 868.227 94.2965 872.185 101.517C875.832 108.182 883.01 117.672 896.471 125.051C896.557 125.096 896.588 125.204 896.543 125.29C896.516 125.335 896.476 125.367 896.426 125.376V125.38Z" fill="#EFEFEF"/>
<path d="M1047.51 64.5031L1035.21 66.7065C1035.08 66.7293 1034.96 66.6426 1034.94 66.5129C1034.91 66.3823 1035 66.2582 1035.13 66.2353L1047.43 64.032C1047.56 64.0091 1047.68 64.0959 1047.7 64.2256C1047.72 64.3561 1047.64 64.4803 1047.51 64.5031Z" fill="#AEC3FF"/>
<path d="M1047.79 66.1184L1035.5 68.3217C1035.37 68.3446 1035.25 68.2578 1035.22 68.1282C1035.2 67.9976 1035.29 67.8734 1035.41 67.8506L1047.71 65.6472C1047.84 65.6244 1047.96 65.7111 1047.99 65.8408C1048.01 65.9714 1047.92 66.0955 1047.79 66.1184Z" fill="#AEC3FF"/>
<path d="M1048.08 67.7336L1035.78 69.937C1035.65 69.9598 1035.53 69.8731 1035.51 69.7434C1035.48 69.6128 1035.57 69.4886 1035.7 69.4658L1048 67.2624C1048.13 67.2396 1048.25 67.3264 1048.27 67.456C1048.29 67.5866 1048.21 67.7108 1048.08 67.7336Z" fill="#AEC3FF"/>
<path d="M1041.18 73.944L1032.69 75.4652C1032.51 75.499 1032.33 75.3739 1032.29 75.1867C1032.26 74.9995 1032.39 74.8206 1032.57 74.7868L1041.06 73.2655C1041.25 73.2327 1041.42 73.3568 1041.46 73.544C1041.49 73.7312 1041.37 73.9102 1041.18 73.944Z" fill="#AEC3FF"/>
<path d="M1048.83 72.5731L1043.61 73.5091C1043.42 73.5429 1043.24 73.4178 1043.21 73.2306C1043.18 73.0434 1043.3 72.8644 1043.49 72.8306L1048.71 71.8947C1048.89 71.8609 1049.07 71.986 1049.1 72.1732C1049.14 72.3604 1049.01 72.5393 1048.83 72.5731Z" fill="#AEC3FF"/>
<path d="M1046.6 75.2853L1033.55 77.6229C1033.37 77.6567 1033.19 77.5316 1033.16 77.3444C1033.12 77.1572 1033.25 76.9782 1033.43 76.9444L1046.48 74.6068C1046.66 74.574 1046.84 74.6981 1046.87 74.8853C1046.91 75.0725 1046.78 75.2515 1046.6 75.2853Z" fill="#AEC3FF"/>
<path d="M1038.23 81.765L1029.74 83.2863C1029.55 83.3191 1029.37 83.195 1029.34 83.0078C1029.31 82.8206 1029.43 82.6416 1029.62 82.6078L1038.11 81.0866C1038.29 81.0528 1038.47 81.1779 1038.5 81.3651C1038.54 81.5523 1038.41 81.7312 1038.23 81.765Z" fill="#AEC3FF"/>
<path d="M1045.87 80.3944L1040.65 81.3304C1040.47 81.3632 1040.29 81.239 1040.26 81.0519C1040.22 80.8647 1040.35 80.6857 1040.53 80.6519L1045.75 79.716C1045.94 79.6822 1046.12 79.8073 1046.15 79.9945C1046.18 80.1817 1046.06 80.3606 1045.87 80.3944Z" fill="#AEC3FF"/>
<path d="M1050.31 81.9291L1029.91 85.5834C1029.73 85.6163 1029.55 85.4921 1029.52 85.3049C1029.48 85.1177 1029.61 84.9387 1029.79 84.9049L1050.19 81.2506C1050.37 81.2168 1050.55 81.3419 1050.58 81.5291C1050.62 81.7163 1050.49 81.8953 1050.31 81.9291Z" fill="#AEC3FF"/>
<path d="M1038.99 86.684L1030.5 88.2052C1030.31 88.2381 1030.13 88.1139 1030.1 87.9267C1030.07 87.7395 1030.19 87.5606 1030.38 87.5268L1038.87 86.0055C1039.05 85.9717 1039.23 86.0968 1039.26 86.284C1039.3 86.4712 1039.17 86.6502 1038.99 86.684Z" fill="#AEC3FF"/>
<path d="M1046.97 85.3358L1041.75 86.2718C1041.56 86.3046 1041.39 86.1805 1041.35 85.9933C1041.32 85.8061 1041.44 85.6271 1041.63 85.5933L1046.85 84.6574C1047.04 84.6236 1047.21 84.7487 1047.25 84.9359C1047.28 85.1231 1047.16 85.302 1046.97 85.3358Z" fill="#AEC3FF"/>
<path d="M1043.84 88.235L1030.8 90.5726C1030.61 90.6064 1030.43 90.4813 1030.4 90.2941C1030.37 90.1069 1030.49 89.9279 1030.68 89.8941L1043.72 87.5565C1043.91 87.5237 1044.08 87.6479 1044.12 87.835C1044.15 88.0222 1044.03 88.2012 1043.84 88.235Z" fill="#AEC3FF"/>
<path d="M1027.17 111.224L1018.68 112.745C1018.5 112.779 1018.32 112.654 1018.29 112.467C1018.25 112.279 1018.38 112.1 1018.56 112.067L1027.05 110.545C1027.24 110.512 1027.42 110.637 1027.45 110.824C1027.48 111.011 1027.36 111.19 1027.17 111.224Z" fill="#AEC3FF"/>
<path d="M1035.16 109.877L1029.94 110.813C1029.75 110.847 1029.57 110.721 1029.54 110.534C1029.51 110.347 1029.63 110.168 1029.82 110.134L1035.04 109.198C1035.22 109.165 1035.4 109.29 1035.44 109.477C1035.47 109.664 1035.35 109.843 1035.16 109.877Z" fill="#AEC3FF"/>
<path d="M1032.03 112.775L1018.98 115.113C1018.8 115.147 1018.62 115.022 1018.59 114.834C1018.55 114.647 1018.68 114.468 1018.86 114.434L1031.91 112.097C1032.09 112.063 1032.27 112.188 1032.3 112.375C1032.34 112.563 1032.21 112.741 1032.03 112.775Z" fill="#AEC3FF"/>
<path d="M1020.27 52.9486C1020.27 52.9486 1022.28 55.1876 1022.39 56.2148C1022.5 57.243 1021.49 59.513 1021.98 60.5028C1022.13 60.8115 1024.44 63.8768 1025.14 64.0494C1025.62 64.1663 1026.31 62.96 1025.63 61.7849C1024.94 60.5951 1024.8 58.231 1024.91 57.1909C1025.1 55.4167 1026.35 51.2894 1026.58 52.0647L1030.47 51.4428L1026.78 49.9243L1020.27 52.9477L1020.27 52.9486Z" fill="#E59365"/>
<path d="M1019.02 58.3761C1019.02 58.3761 1018.68 62.8714 1019.02 64.5872C1019.16 65.2757 1019.82 67.4891 1020.47 67.7283C1021.55 68.1228 1022.14 66.2171 1021.67 64.148C1021.54 63.5818 1022.43 60.0882 1023.02 58.4912C1024.48 54.5209 1025.37 52.1304 1025.37 52.1304L1019.03 58.3761H1019.02Z" fill="#F2A36D"/>
<path d="M1051.13 43.8975C1050.18 44.4609 1049.29 44.9951 1048.51 45.469C1048.08 45.7338 1047.68 45.9795 1047.33 46.2014C1046.77 46.5593 1046.33 46.8533 1046.05 47.0624C1045.33 47.5957 1044.16 48.2458 1043.29 49.1398C1043.29 49.1398 1043.29 49.1434 1043.29 49.1443C1041.6 50.3469 1041.52 51.765 1041.46 52.6306C1041.3 54.7783 1039.32 57.9368 1036.63 61.098C1035.16 62.8229 1033.87 65.344 1033.42 66.343C1033.27 66.6708 1033 67.4314 1032.68 68.2359C1032.24 69.3572 1031.72 70.5625 1031.35 70.8009C1031.24 70.8693 1031.06 70.8483 1030.85 70.7689C1030.32 70.5689 1029.6 69.9964 1029.39 69.5535C1028.75 68.2295 1029.25 66.2069 1030.46 63.0083C1031.62 59.9612 1031.45 58.4226 1031 57.0629C1030.71 56.179 1030.29 55.3298 1028.99 54.8157C1028.84 54.7555 1028.37 54.529 1027.73 54.351C1027.1 54.1766 1026.32 54.0469 1025.5 54.1656C1025.22 54.2067 1024.94 54.277 1024.65 54.3866C1024.01 54.634 1023.39 55.0796 1022.85 55.8229C1022.83 55.8467 1022.81 55.8695 1022.79 55.8923C1022.79 55.8923 1022.79 55.8932 1022.79 55.8941C1022.58 56.1763 1022.33 56.4393 1022.07 56.6904C1021.55 57.1889 1020.96 57.6373 1020.42 58.092C1019.89 58.5395 1019.4 58.9924 1019.08 59.5046C1018.88 59.8105 1018.74 60.1365 1018.68 60.4944C1018.48 61.6614 1017.89 62.8138 1017.3 64.0921C1016.88 65.0171 1016.45 66.0079 1016.18 67.1182C1015.52 69.79 1014.02 70.0713 1013.23 69.2659C1013.22 69.2559 1013.21 69.2449 1013.2 69.2349C1012.96 68.9728 1012.96 67.5264 1013.02 66.2252C1013.07 65.2509 1013.16 64.3588 1013.21 64.104C1013.36 63.3114 1014.67 60.1977 1015.3 56.978C1015.77 54.5765 1019.49 50.9898 1022.12 46.2543C1023.43 43.8985 1028.46 43.2492 1033.71 40.1775C1033.99 40.0131 1034.3 39.8999 1034.59 39.7556C1035.43 39.342 1036.25 38.8964 1037.06 38.4197C1038.23 38.4115 1039.42 38.4681 1040.61 38.5832C1041.41 38.6608 1042.21 38.7649 1043.02 38.8964C1044.3 39.1037 1045.58 39.3758 1046.86 39.7072C1048.48 41.0943 1049.9 42.495 1051.13 43.9012V43.8975Z" fill="#FFB27D"/>
<path d="M1048.83 45.8499L1047.92 46.4407L1047.68 46.595L1043.47 49.3353L1043.29 49.1435L1034.57 39.7731L1034.6 39.7512C1034.6 39.7512 1038.41 37.0145 1038.7 36.9789C1038.78 36.9689 1038.86 36.9588 1038.94 36.9497C1039.38 37.3058 1040.05 37.8939 1040.85 38.6034C1043.41 40.877 1047.25 44.3971 1048.45 45.5038C1048.69 45.7248 1048.83 45.849 1048.83 45.849L1048.83 45.8499Z" fill="#9FC1F4"/>
<path d="M1055.18 43.356L1049.78 47.2569C1049.78 47.2569 1048.93 46.94 1047.92 46.4397C1047.75 46.3538 1047.57 46.2625 1047.39 46.1666C1046.76 45.8315 1046.12 45.437 1045.61 45.0143C1043.26 43.0584 1041.09 40.3272 1039.77 38.5083C1039.3 37.8554 1038.93 37.3194 1038.7 36.9797C1038.74 36.9742 1041.31 35.0475 1044.07 33.0542C1048.29 35.4895 1052.52 39.0251 1055.19 43.356H1055.18Z" fill="#F99746"/>
<path d="M1044.33 46.7265C1044.48 46.4937 1044.78 46.4215 1045.01 46.5649C1045.24 46.7083 1045.31 47.0132 1045.17 47.2461C1045.03 47.4789 1044.73 47.5511 1044.5 47.4077C1044.26 47.2643 1044.19 46.9594 1044.33 46.7265Z" fill="#2A4E96"/>
<path d="M1006.56 65.4145L1030.1 61.1968L1027.2 74.3156L1010.49 78.0594L1006.56 65.4145Z" fill="#A2FFF7"/>
<path d="M1028.24 71.9988C1028.62 73.9109 1028.29 75.7992 1027.44 77.3881C1027.12 77.9652 1026.75 78.5021 1026.3 78.9842C1025.77 79.5741 1025.14 80.0872 1024.45 80.4963C1023.71 80.9328 1022.88 81.2524 1021.99 81.4314C1021.51 81.5291 1021.03 81.5802 1020.55 81.5875V81.5857C1019.92 81.5957 1019.3 81.53 1018.7 81.3939C1018.08 81.2533 1017.47 81.036 1016.9 80.7502C1016.55 80.5749 1016.2 80.3685 1015.88 80.1411C1015.33 79.7549 1014.83 79.2956 1014.39 78.7778C1013.53 77.7697 1012.91 76.5325 1012.63 75.1363C1011.77 70.7935 1014.57 66.5694 1018.88 65.7028C1023.19 64.8363 1027.39 67.6569 1028.24 71.9988Z" fill="#8C9DF4"/>
<path d="M1026.64 74.5247C1025.57 71.9315 1023.22 68.9035 1021.56 67.6206C1021.17 67.3248 1020.83 67.123 1020.54 67.039C1020.42 67.0052 1020.32 66.9814 1020.21 66.9632C1019.21 66.7869 1018.55 67.2188 1018.55 67.2188C1015.17 67.4928 1014.98 71.5671 1015.29 72.893C1015.57 74.0928 1015.95 75.3584 1015.18 77.0933C1015.1 77.275 1015.01 77.4631 1014.9 77.6549C1014.67 78.0649 1014.5 78.4384 1014.39 78.778C1014.83 79.2958 1015.33 79.7551 1015.88 80.1413C1016.2 80.3687 1016.55 80.5751 1016.9 80.7504C1017.47 81.0362 1018.08 81.2526 1018.7 81.3941C1019.3 81.5302 1019.92 81.5969 1020.55 81.5859C1020.33 79.4145 1021.95 78.7178 1023.25 78.6018C1024.12 78.5242 1024.85 78.7068 1024.8 78.8812C1025.33 78.9004 1025.76 78.8438 1026.1 78.7223C1026.85 78.453 1027.19 77.8677 1027.23 77.0952C1027.27 76.3683 1027.04 75.4762 1026.64 74.5256V74.5247Z" fill="#163560"/>
<path d="M1018.71 81.394C1018.08 81.2533 1017.47 81.036 1016.9 80.7502C1016.55 80.5749 1016.21 80.3685 1015.88 80.1412C1015.97 79.7978 1016.03 79.533 1016.07 79.3933C1016.5 77.7269 1017.58 77.0566 1017.58 77.0566L1018.71 81.394Z" fill="#FFA561"/>
<path d="M1026.31 78.9846C1025.77 79.5744 1025.14 80.0876 1024.45 80.4967C1023.71 80.9332 1022.88 81.2527 1022 81.4317C1021.51 81.5294 1021.03 81.5806 1020.55 81.5879V81.586C1019.92 81.5961 1019.3 81.5303 1018.71 81.3943C1018.08 81.2537 1017.47 81.0363 1016.9 80.7505C1017.08 78.5864 1017.58 77.057 1017.58 77.057C1017.58 77.057 1018.09 76.7291 1019.09 76.3831C1019.82 76.132 1020.81 75.8745 1022.06 75.7229C1022.56 75.6617 1023.1 75.6188 1023.68 75.5996L1026.1 78.7225L1026.31 78.9855L1026.31 78.9846Z" fill="#FFA561"/>
<path d="M1022.05 75.7027C1021.72 75.2023 1021.42 74.3988 1021.22 73.3706L1021.08 73.43L1018.69 74.4271C1018.69 74.4271 1018.9 75.2051 1019.05 75.9483C1019.05 75.9547 1019.05 75.9611 1019.05 75.9666C1019.18 76.6122 1018.88 77.3472 1019.95 77.3975C1020.29 77.413 1022.74 76.7528 1022.05 75.7027H1022.05Z" fill="#FFB27D"/>
<path d="M1018.69 74.4268C1018.69 74.4268 1018.9 75.2048 1019.05 75.9481C1020.44 75.6285 1020.92 74.2004 1021.08 73.4297L1018.69 74.4268H1018.69Z" fill="#E8945B"/>
<path d="M1018.36 75.2249C1018.36 75.2249 1021.67 74.6177 1021.26 72.5477C1020.85 70.4785 1021 69.0066 1018.88 69.307C1016.75 69.6074 1016.49 70.4785 1016.46 71.2026C1016.43 71.9267 1017.49 75.329 1018.36 75.2249Z" fill="#FFB27D"/>
<path d="M1017.36 69.5585C1017.36 69.5585 1018.75 71.8038 1020.2 71.8851C1021.66 71.9654 1022.19 71.4705 1022.19 71.4705C1022.19 71.4705 1020.96 70.8341 1020.44 69.3932C1020.44 69.3932 1017.82 68.2664 1017.36 69.5585Z" fill="#163560"/>
<path d="M1017.63 69.7106C1017.63 69.7106 1017.01 70.0969 1016.83 70.6448C1016.66 71.1799 1016.55 71.8629 1016.76 72.6335C1016.76 72.6335 1015.75 71.1205 1016.33 70.0339C1016.95 68.8815 1017.63 69.7116 1017.63 69.7116V69.7106Z" fill="#163560"/>
<path d="M1024.45 80.4967C1024.2 80.3269 1023.94 80.1461 1023.65 79.9552C1023.35 79.7571 1023.25 79.2265 1023.25 78.602C1023.25 77.3053 1023.68 75.5996 1023.68 75.5996C1023.68 75.5996 1025.88 75.3156 1027.23 77.0953C1027.29 77.1638 1027.34 77.2359 1027.39 77.3108C1027.41 77.3364 1027.42 77.3629 1027.44 77.3884C1027.13 77.9655 1026.75 78.5024 1026.31 78.9846C1025.77 79.5744 1025.15 80.0876 1024.45 80.4967Z" fill="#FFA561"/>
<path d="M1051.78 97.9332C1051.35 96.9169 1050.74 96.033 1050 95.3034C1049.32 94.635 1048.53 94.0972 1047.68 93.7054C1045.67 92.7786 1043.29 92.6736 1041.1 93.6169C1036.98 95.3929 1035.06 100.218 1036.82 104.373C1038.58 108.529 1043.37 110.466 1047.5 108.69C1051.62 106.914 1053.54 102.089 1051.78 97.9332H1051.78ZM1047.12 107.816C1043.48 109.386 1039.24 107.673 1037.69 103.999C1036.13 100.326 1037.83 96.0604 1041.47 94.4907C1043.41 93.6561 1045.52 93.7502 1047.3 94.5729C1048.15 94.9683 1048.93 95.5299 1049.58 96.2384C1050.13 96.8302 1050.58 97.5241 1050.91 98.3067C1052.47 101.981 1050.77 106.246 1047.12 107.816Z" fill="#8C9DF4"/>
<path d="M1044.76 105.132C1044.45 105.134 1044.15 105.032 1043.9 104.837L1038.63 100.672C1038.03 100.199 1037.92 99.325 1038.39 98.7215C1038.86 98.1179 1039.73 98.012 1040.33 98.485L1044.21 101.552L1048.34 92.2118C1048.65 91.5114 1049.47 91.1955 1050.17 91.5087C1050.86 91.821 1051.17 92.6428 1050.86 93.3432L1046.01 104.309C1045.84 104.7 1045.5 104.988 1045.08 105.091C1044.98 105.118 1044.87 105.132 1044.76 105.132Z" fill="#F77D48"/>
<path d="M1002.24 118.922C1002.24 118.922 1031.36 125.12 1044.93 110.471C1055.8 98.7396 1063.03 99.0997 1066.55 102.313C1072.01 107.29 1060.22 130.421 1023.33 133.379C986.453 136.337 1002.24 118.917 1002.24 118.917V118.922Z" fill="url(#paint5_linear_3306_1766)"/>
<path d="M1011.15 122.669C1010.37 122.582 1009.59 122.486 1008.8 122.368C1008.7 122.354 1008.64 122.263 1008.65 122.167C1008.66 122.072 1008.75 122.012 1008.85 122.017C1024.87 124.351 1037.99 120.294 1046.18 116.475C1055.05 112.341 1060.19 107.596 1060.24 107.551C1060.31 107.482 1060.43 107.487 1060.49 107.56C1060.56 107.633 1060.55 107.746 1060.48 107.81C1060.43 107.856 1055.25 112.637 1046.33 116.798C1038.51 120.449 1026.19 124.319 1011.15 122.669Z" fill="#EEEEEE"/>
<path d="M1006.9 129.646C1006.9 129.646 1031.12 116.433 1037.72 98.7988C1043.56 83.2066 1049.98 79.2003 1053.51 79.1183C1062.12 78.9177 1061.59 97.983 1030.85 122.987C1000.11 147.991 1006.9 129.651 1006.9 129.651V129.646Z" fill="url(#paint6_linear_3306_1766)"/>
<path d="M1009.16 132.976C1009.11 132.967 1009.06 132.942 1009.02 132.906C1008.95 132.819 1008.97 132.696 1009.08 132.635C1044.47 111.358 1050.08 84.468 1050.13 84.1976C1050.16 84.0902 1050.27 84.013 1050.41 84.0243C1050.53 84.0318 1050.63 84.1313 1050.61 84.2387C1050.59 84.3053 1049.22 91.125 1043.46 100.489C1038.16 109.127 1027.93 121.77 1009.36 132.936C1009.3 132.973 1009.22 132.985 1009.16 132.972L1009.16 132.976Z" fill="#EEEEEE"/>
<path d="M1018.68 142.54C1018.68 142.54 1021.88 139.555 1038 142.13C1051.68 144.318 1056.21 143.005 1057.44 137.454C1059.55 127.896 1035.72 124.241 1012.8 139.619C1004.52 145.175 1018.68 142.54 1018.68 142.54Z" fill="url(#paint7_linear_3306_1766)"/>
<path d="M1011.42 144.122C1011.37 144.108 1011.33 144.072 1011.3 144.017C1011.26 143.912 1011.29 143.776 1011.37 143.716C1031.13 129.874 1050.88 136.287 1051.08 136.346C1051.18 136.378 1051.23 136.501 1051.21 136.615C1051.18 136.734 1051.09 136.802 1050.99 136.77C1050.79 136.702 1031.18 130.348 1011.55 144.099C1011.51 144.126 1011.46 144.136 1011.42 144.122H1011.42Z" fill="#EEEEEE"/>
<g opacity="0.8">
<path d="M900.742 113.063C900.742 113.063 904.523 118.79 902.415 125.793L901.448 125.537C901.448 125.537 902.351 117.83 900.368 113.966C898.385 110.101 900.742 113.064 900.742 113.064V113.063Z" fill="#AEC3FF"/>
</g>
<path d="M923.266 72.508C923.266 72.508 925.978 67.3864 932.522 67.9233C932.522 67.9233 941.98 59.3637 952.14 66.696C952.14 66.696 962.897 64.8168 970.885 68.1917C976.211 70.4417 977.978 72.8194 977.978 72.8194L923.266 72.5071V72.508Z" fill="#68F5E9"/>
<path d="M951.758 57.0536C951.758 57.0536 953.844 53.118 958.878 53.5307C958.878 53.5307 966.154 46.9535 973.971 52.5875C973.971 52.5875 982.247 51.1438 988.392 53.7371C992.489 55.4656 993.848 57.2937 993.848 57.2937L951.759 57.0545L951.758 57.0536Z" fill="#68F5E9"/>
<path d="M943.024 143.876L922.473 108.397L921.703 107.067L912.114 113.37L915.178 118.704L929.691 143.942L929.845 144.2L943.178 144.136L943.024 143.877V143.876ZM927.178 83.1464L906.37 115.462L901.652 122.785L903.37 135.416L906.435 131.077L915.178 118.703L922.473 108.397L940.358 83.0815L927.178 83.1464ZM906.435 131.077L906.37 115.462L906.216 83.2496L894.793 83.3016L895.075 144.096V144.355L906.498 144.303V144.044L906.434 131.077H906.435Z" fill="#00BBAB"/>
<path d="M1020.52 124.154C1019.89 126.958 1018.73 129.127 1017.01 130.639C1015.29 132.163 1013.19 132.925 1010.69 132.938C1007.46 132.951 1004.97 131.982 1003.21 130.031C1001.45 128.081 1000.56 125.317 1000.55 121.739L1000.47 104.974C1000.45 101.397 1001.32 98.6062 1003.06 96.6312C1004.79 94.6552 1007.28 93.648 1010.51 93.6343C1012.14 93.6215 1013.62 93.9959 1014.94 94.7456C1016.27 95.4943 1017.39 96.5791 1018.32 97.9871C1019.24 99.3952 1019.94 101.126 1020.42 103.166L1032.27 103.102C1031.5 98.6583 1030.12 94.8615 1028.15 91.7231C1026.18 88.5847 1023.69 86.1951 1020.69 84.5551C1017.7 82.9279 1014.28 82.1134 1010.45 82.1271C1005.81 82.1527 1001.86 83.0704 998.6 84.8784C995.343 86.6736 992.869 89.2823 991.164 92.6929C989.446 96.1025 988.612 100.222 988.625 105.04L988.702 121.792C988.728 126.635 989.612 130.743 991.343 134.127C993.087 137.498 995.587 140.068 998.869 141.838C1000.27 142.587 1001.54 143.395 1003.19 143.808C1004.29 144.104 1005.71 144.111 1006.95 144.24L1014.13 144.202C1015.21 144.061 1016.27 143.84 1017.27 143.53C1018.55 143.156 1019.78 142.652 1020.93 142.032C1023.91 140.43 1026.36 138.118 1028.3 135.083C1030.25 132.048 1031.6 128.392 1032.36 124.104L1020.52 124.155L1020.52 124.154Z" fill="#00BBAB"/>
<path d="M990.356 82.8496L978.394 82.9144L966.92 109.25L955.215 83.0176L943.254 83.0697L961.266 120.487L961.369 143.787V144.045L972.792 143.993V143.735L972.69 120.435L990.356 82.8496Z" fill="#00BBAB"/>
<path d="M999.333 143.667C999.333 143.667 999.328 142.655 999.485 142.318C999.643 141.98 1000.22 140.607 1000.22 140.607L1002.5 140.596C1002.5 140.596 1002.92 141.844 1002.95 142.253C1002.98 142.662 1002.96 143.65 1002.96 143.65L999.332 143.667H999.333Z" fill="#1B3051"/>
<path d="M1012.37 143.616C1012.37 143.616 1012.37 142.604 1012.22 142.268C1012.08 141.932 1011.55 140.563 1011.55 140.563L1009.49 140.572C1009.49 140.572 1009.12 141.825 1009.09 142.233C1009.07 142.642 1009.1 143.63 1009.1 143.63L1012.37 143.615V143.616Z" fill="#1B3051"/>
<path d="M1003.88 86.8215C1003.88 86.8215 1003.82 89.0769 1003.54 90.0877L1001.28 91.6921L1009.82 92.9385L1007.77 90.1151C1007.77 90.1151 1007.15 87.0945 1007.46 85.975C1007.78 84.8555 1003.89 86.8215 1003.89 86.8215H1003.88Z" fill="#FFB27D"/>
<path d="M1003.87 87.1327C1003.87 87.1327 1004.55 88.7663 1005.82 88.7243C1007.1 88.6823 1007.38 87.2323 1007.38 87.2323L1003.87 87.1318V87.1327Z" fill="#ED985F"/>
<path d="M1003.11 85.8113C1003.11 85.8113 1002.69 83.7486 1002.4 83.1249C1002.11 82.5013 1001.86 79.7126 1005.03 79.5528C1005.03 79.5528 1006.25 79.6916 1006.92 79.2798C1006.92 79.2798 1006.92 79.6889 1006.75 79.8341C1006.75 79.8341 1007.85 79.5647 1008.71 80.5225C1009.58 81.4804 1008.16 84.8544 1008.23 85.6479L1003.11 85.8123L1003.11 85.8113Z" fill="#2C3A64"/>
<path d="M1005.68 88.0922C1004.75 88.0803 1003.05 86.8521 1003.05 85.3227L1003.04 82.9348C1003.03 82.376 1003.42 81.9167 1003.89 81.9149L1007.4 81.8984C1007.88 81.8966 1008.26 82.3514 1008.27 82.9102L1008.28 85.1629C1008.28 86.7672 1006.73 88.1058 1005.67 88.0922H1005.68Z" fill="#FFB27D"/>
<path d="M1003.04 84.2099C1003.04 84.2099 1003.04 82.7754 1004.17 82.5489C1005.29 82.3234 1007.82 83.231 1008.18 82.1837C1008.53 81.1354 1003.29 81.1783 1003.03 81.8467C1002.77 82.5151 1003.04 84.2099 1003.04 84.2099H1003.04Z" fill="#2C3A64"/>
<path d="M999.431 108.609C999.431 108.609 999.841 119.658 999.333 125.966C998.825 132.274 999.407 141.045 999.407 141.045C999.407 141.045 1001.13 141.991 1002.99 141.029C1002.99 141.029 1004.97 128.839 1004.95 125.94C1004.92 122.852 1007.09 109.055 1007.09 109.055L999.432 108.609H999.431Z" fill="#2B478B"/>
<path d="M1012.28 140.985C1012.28 140.985 1010.57 141.947 1008.7 141.001C1008.7 141.001 1006.61 128.83 1006.61 125.931C1006.61 124.627 1006.19 121.417 1005.72 118.143C1005.07 113.665 1004.3 109.069 1004.3 109.069L1012.26 108.531C1012.26 108.531 1011.65 119.603 1012.22 125.906C1012.78 132.208 1012.28 140.985 1012.28 140.985H1012.28Z" fill="#2B478B"/>
<path d="M1006.61 125.931C1006.61 124.627 1006.2 121.417 1005.72 118.143C1006.19 116.185 1007.34 114.295 1007.34 114.295C1008.83 118.437 1006.61 125.931 1006.61 125.931Z" fill="#233862"/>
<path d="M1019.17 100.516C1016.36 93.7098 1011.38 90.218 1007.77 90.1148C1006.99 91.1786 1006.42 91.427 1005.69 91.7192C1004.53 91.5621 1003.54 90.1212 1003.54 90.0874C1002.27 90.2244 996.546 90.8992 992.696 100.418C992.396 101.16 992.346 102.921 993.736 104.65C994.725 105.879 996.273 107.481 998.671 109.361C998.671 109.361 998.894 108.874 999.096 108.087C999.096 108.087 997.663 105.309 996.799 103.428C996.38 102.512 995.889 101.464 999 99.3081C999.088 101.7 999.483 104.532 999.19 107.094C998.8 110.511 999.488 110.447 999.488 110.447C999.488 110.447 1000.41 110.625 1001.71 110.792C1002.87 110.943 1004.34 111.086 1005.69 111.079C1008.78 111.065 1012.17 110.387 1012.17 110.387C1012.54 110.39 1012.69 109.542 1012.71 108.287C1012.89 108.915 1013.07 109.292 1013.07 109.292C1015.45 107.39 1016.98 105.774 1017.96 104.536C1019.34 102.794 1019.47 101.255 1019.17 100.514L1019.17 100.516ZM1014.89 103.344C1014.2 104.987 1013.02 107.26 1012.71 107.87C1012.71 105.824 1012.46 102.938 1012.34 100.798C1012.3 100.093 1012.26 99.4387 1012.22 98.8287C1014.12 100.356 1015.86 101.009 1014.89 103.344Z" fill="#F9DDBF"/>
<path d="M1003.65 89.5376C1003.65 89.5376 1003.07 89.7303 1002.97 90.1631C1002.97 90.1631 1004.7 91.6999 1005.69 91.719L1003.65 89.5376Z" fill="#F99746"/>
<path d="M1005.7 91.719L1007.65 89.439C1007.65 89.439 1008.26 89.7056 1008.25 90.1475C1008.25 90.1475 1006.54 91.7747 1005.7 91.719Z" fill="#F99746"/>
<path d="M1005.34 91.5537C1005.34 91.5537 1003.9 104.584 1004.43 106.169C1004.7 106.985 1005.06 107.69 1005.35 108.183C1005.56 108.537 1006.07 108.533 1006.27 108.176C1006.67 107.479 1007.18 106.47 1007.18 105.959C1007.17 105.132 1005.98 91.54 1005.98 91.54L1005.34 91.5546V91.5537Z" fill="#F99746"/>
<path d="M1004.95 90.9173C1004.95 90.9173 1005.85 90.8214 1006.4 90.8753C1006.51 90.8863 1006.57 91.0059 1006.52 91.1027C1006.37 91.3839 1006.05 91.8706 1005.72 91.8724C1005.26 91.8743 1004.54 90.9511 1004.95 90.9173H1004.95Z" fill="#F99746"/>
<path d="M1004.94 86.5583C1004.94 86.5583 1005.23 86.9482 1005.73 86.9318C1006.23 86.9154 1006.46 86.551 1006.46 86.551C1006.46 86.551 1005.62 86.415 1004.94 86.5583Z" fill="white"/>
<path d="M998.813 108.227C998.813 108.227 999.917 107.214 1000.63 107.689C1001.37 108.191 1001.71 108.935 1001.29 108.989C1000.88 109.041 999.604 108.896 999.485 109.089C999.366 109.282 998.833 109.653 998.669 109.362C998.505 109.07 998.813 108.227 998.813 108.227H998.813Z" fill="#FFB27D"/>
<path d="M999.095 108.088C998.893 108.875 998.67 109.362 998.67 109.362C996.271 107.482 994.724 105.88 993.734 104.651C994.476 104.592 995.556 104.32 996.798 103.429C997.662 105.31 999.095 108.088 999.095 108.088Z" fill="#FFB27D"/>
<path d="M1012.92 108.16C1012.92 108.16 1011.97 107.282 1011.14 107.876C1010.68 108.207 1010.36 109.079 1010.76 109.005C1011.17 108.932 1012.13 108.837 1012.25 109.028C1012.37 109.22 1012.81 109.502 1013.07 109.292C1013.39 109.037 1012.92 108.159 1012.92 108.159V108.16Z" fill="#FFB27D"/>
<path d="M1012.63 108.024C1012.84 108.808 1013.07 109.293 1013.07 109.293C1015.45 107.391 1016.98 105.775 1017.96 104.537C1017.22 104.485 1016.14 104.223 1014.89 103.344C1014.04 105.233 1012.63 108.024 1012.63 108.024H1012.63Z" fill="#FFB27D"/>
<path d="M986.49 143.929L978.07 143.968C977.616 143.585 978.376 142.705 979.174 142.643C979.52 142.615 979.958 142.686 980.46 142.79C980.568 141.239 981.198 134.266 983.693 134.535C986.498 134.835 983.707 137.604 982.921 139.239C982.34 140.45 981.729 142.187 981.449 143.006C981.677 143.054 981.914 143.102 982.154 143.146C982.52 141.994 983.885 138.121 985.645 138.338C987.711 138.592 986.889 140.147 985.429 141.074C984.359 141.756 983.045 142.724 982.42 143.191C982.951 143.276 983.506 143.332 984.067 143.316C985.509 143.275 986.215 143.7 986.489 143.929H986.49Z" fill="#D2E0FF"/>
<path d="M898.762 142.34C898.625 142.429 898.486 142.514 898.345 142.597C898.297 142.626 898.249 142.653 898.201 142.681C898.091 142.743 897.981 142.803 897.871 142.861C892.574 145.641 885.989 143.762 882.95 138.508C880.051 133.495 881.397 127.169 885.879 123.757C886.236 123.485 886.614 123.231 887.011 122.998C887.153 122.914 887.297 122.835 887.441 122.758C887.582 122.683 887.723 122.612 887.865 122.544C888.301 122.336 888.745 122.159 889.194 122.011C889.861 121.791 890.54 121.638 891.222 121.548C893.336 121.271 895.479 121.61 897.391 122.498C899.422 123.438 901.194 124.996 902.405 127.089C905.452 132.359 903.808 139.08 898.761 142.341L898.762 142.34Z" fill="#F78248"/>
<path d="M884.131 92.9094C884.164 92.7706 881.139 94.3046 880.986 94.4772C879.571 96.0733 879.986 98.1461 880.8 98.1616C881.322 98.1717 881.225 99.0465 881.225 99.0465L887.028 96.5408C887.028 96.5408 886.31 92.4309 884.131 92.9094Z" fill="#2C3A64"/>
<path d="M884.845 93.2269C884.845 93.2269 883.391 90.6117 880.309 92.1074C878.68 92.8982 878.566 96.3818 877.923 96.9798C876.482 98.3194 875.886 98.8097 876.151 101.067C876.416 103.325 883.417 106.124 883.018 107.994C883.018 107.994 885.873 104.425 883.564 102.228C882.696 101.402 881.731 99.3978 881.821 99.0435C881.912 98.6901 884.846 93.2269 884.846 93.2269H884.845Z" fill="#2C3A64"/>
<path d="M882.597 103.974C882.198 102.082 879.758 101.507 878.612 103.058C878.407 103.338 878.262 103.667 878.216 104.056C877.963 106.206 881.414 114.945 881.906 115.734C882.803 117.173 888.061 122.095 888.061 122.095L889.024 121.502C889.024 121.502 885.281 115.184 884.702 114.594C884.034 113.912 883.355 107.566 882.597 103.974Z" fill="#ED985F"/>
<path d="M887.691 121.511C887.691 121.511 889.095 120.572 889.629 120.629C890.163 120.687 891.708 121.127 891.728 121.355C891.748 121.584 890.011 121.734 889.894 121.86C889.778 121.986 888.601 122.785 888.172 122.538C887.743 122.291 887.691 121.51 887.691 121.51V121.511Z" fill="#ED985F"/>
<path d="M877.965 142.607L876.706 142.426C876.706 142.426 872.46 139.058 871.8 132.74C871.733 132.098 871.717 131.445 871.761 130.786C871.766 130.711 871.757 130.635 871.716 130.571C871.716 130.571 871.716 130.571 871.714 130.569C871.577 130.361 871.238 129.839 870.778 129.095C870.325 128.363 869.549 126.979 868.695 125.425C867.157 122.628 865.365 119.282 864.75 118.216C862.793 114.82 863.719 112.527 863.719 112.527C863.719 112.527 869.132 111.962 870.61 110.647L871.148 111.475C871.148 111.475 872.346 116.702 872.29 116.727C872.349 116.905 872.408 117.086 872.469 117.269C873.408 120.144 874.49 123.738 875.084 126.666C875.417 128.314 875.598 129.75 875.509 130.73C875.479 131.066 875.52 131.582 875.611 132.218C876.152 135.971 877.964 142.607 877.964 142.607H877.965Z" fill="#2B478B"/>
<path d="M880.609 144.199L875.359 144.223C875.359 144.223 875.229 143.418 875.501 142.805C875.761 142.217 876.136 142.197 875.542 141.279C875.877 141.624 876.951 141.762 877.709 141.656C877.803 141.807 878.314 142.823 878.626 143.047C878.97 143.294 880.499 143.198 880.61 144.199H880.609Z" fill="#6980E2"/>
<path d="M872.469 117.269C872.022 119.82 870.958 124.065 868.695 125.425C867.157 122.628 865.365 119.282 864.75 118.216C862.793 114.82 863.719 112.527 863.719 112.527C863.719 112.527 869.132 111.962 870.61 110.647L871.148 111.475C871.148 111.475 872.346 116.702 872.29 116.727C872.349 116.905 872.408 117.086 872.469 117.269Z" fill="#233862"/>
<path d="M882.032 102.803C882.032 102.803 882.75 103.551 882.833 105.18C882.833 105.18 881.953 107.938 879.188 108.38C879.188 108.38 881.351 102.804 882.032 102.802V102.803Z" fill="#ED7D2B"/>
<path d="M868.767 112.896L868.78 111.907C866.825 112.165 862.024 109.583 862.024 109.583C862.024 109.583 859.984 110.964 859.722 114.882C859.594 116.794 858.766 124.883 858.681 127.297C858.651 128.172 858.641 128.796 858.639 129.046C858.639 129.047 858.639 129.048 858.639 129.049C858.639 129.124 858.602 129.192 858.556 129.252C858.154 129.773 857.805 130.323 857.504 130.894C854.545 136.503 856.141 144.1 856.141 144.1L856.833 143.919C856.833 143.919 859.321 136.025 860.955 132.608C861.233 132.028 861.485 131.577 861.697 131.316C862.314 130.554 862.962 129.262 863.599 127.708C864.805 124.77 865.97 120.894 866.8 117.894C866.86 117.905 868.768 112.896 868.768 112.896H868.767Z" fill="#2B478B"/>
<path d="M880.184 106.241C876.983 105.516 879.005 100.979 879.191 101.058C879.633 100.965 880.603 100.177 881.467 98.6416L881.585 98.7439L883.557 100.47C883.557 100.47 883.106 101.146 882.727 101.809C882.43 102.328 882.179 102.839 882.22 103.014C882.379 103.138 881.037 106.434 880.183 106.241H880.184Z" fill="#FFB27D"/>
<path d="M883.557 100.47C883.557 100.47 883.106 101.146 882.727 101.809C881.502 101.057 881.494 99.5331 881.584 98.7441L883.556 100.47H883.557Z" fill="#ED985F"/>
<path d="M883.614 101.339C883.614 101.339 880.641 99.6909 881.689 97.8409C882.736 95.9918 883.058 94.5336 885 95.5079C886.943 96.4822 886.908 97.398 886.708 98.1011C886.508 98.8042 884.414 101.721 883.615 101.339H883.614Z" fill="#FFB27D"/>
<path d="M887.205 97.0229C887.065 96.2047 886.652 96.128 886.364 96.1846C885.261 94.3657 883.475 95.0852 883.475 95.0852C882.525 96.2978 881.145 96.5106 881.145 96.5106C881.145 96.5106 881.492 97.1543 882.911 97.547C883.344 97.6666 883.836 97.5908 884.31 97.4283C883.329 97.9853 882.301 98.2017 882.301 98.2017C884.17 98.3651 885.94 96.6357 886.123 96.4512C886.21 96.7179 886.364 97.2749 886.276 97.684C886.155 98.2391 885.671 99.2463 885.97 99.3751C885.97 99.3751 887.415 98.251 887.206 97.0238L887.205 97.0229Z" fill="#2C3A64"/>
<path d="M860.316 144.292L855.066 144.317C855.066 144.317 854.937 143.512 855.208 142.899C855.468 142.311 855.878 142.043 855.776 141.333C856.111 141.677 856.657 142.063 857.415 141.956C857.509 142.107 858.02 142.917 858.332 143.141C858.676 143.388 860.205 143.292 860.316 144.292Z" fill="#6980E2"/>
<path d="M880.578 109.829C879.904 110.07 878.956 110.204 877.987 110.314C876.607 110.472 875.182 110.583 874.436 110.887C874.164 110.997 873.983 111.133 873.927 111.307C873.608 112.289 872.189 113.808 872.189 113.808C863.045 113.432 862.023 109.584 862.023 109.584C868.141 102.35 878.445 100.504 878.445 100.504C878.445 100.504 880.325 99.9404 880.694 101.301C881.122 102.882 882.26 102.767 882.26 102.767C882.26 102.767 882.563 109.121 880.578 109.83V109.829Z" fill="#F99746"/>
<path d="M877.987 110.314C876.607 110.472 875.182 110.582 874.436 110.887C874.11 106.294 876.245 102.83 876.245 102.83C876.245 102.83 877.676 108.578 877.986 110.315L877.987 110.314Z" fill="#ED7D2B"/>
<path d="M879.368 101.926C879.368 101.926 875.91 102.287 875.643 104.553C875.376 106.82 879.013 116.028 879.531 116.86C880.476 118.377 886.017 123.564 886.017 123.564L887.032 122.938C887.032 122.938 883.087 116.281 882.478 115.659C881.522 114.683 880.543 102.706 879.368 101.927V101.926Z" fill="#FFB27D"/>
<path d="M875.747 105.915C875.756 105.966 878.945 106.947 880.989 105.89C880.989 105.89 881.406 101.125 878.961 101.395C876.516 101.665 875.071 102.448 875.015 103.628C874.958 104.808 875.747 105.915 875.747 105.915Z" fill="#F99746"/>
<path d="M885.699 122.902C885.699 122.902 886.935 121.748 887.471 121.719C888.007 121.689 889.602 121.872 889.658 122.095C889.714 122.317 888.023 122.748 887.929 122.892C887.835 123.034 886.8 124.014 886.338 123.84C885.875 123.666 885.699 122.903 885.699 122.903V122.902Z" fill="#FFB27D"/>
<path d="M888.304 138.083C888.067 137.878 887.901 137.597 887.839 137.281L886.53 130.536C886.382 129.77 886.877 129.027 887.639 128.877C888.399 128.727 889.137 129.227 889.286 129.994L890.249 134.959L899.604 130.54C900.305 130.208 901.142 130.513 901.471 131.22C901.8 131.927 901.498 132.77 900.796 133.101L889.812 138.29C889.421 138.475 888.967 138.468 888.581 138.27C888.481 138.219 888.387 138.156 888.304 138.083Z" fill="white"/>
</g>
</g>
<defs>
<linearGradient id="paint0_linear_3306_1766" x1="-14.2642" y1="143.23" x2="43.7439" y2="161.927" gradientUnits="userSpaceOnUse">
<stop offset="0.21" stop-color="#CCD9E5"/>
<stop offset="1" stop-color="#AAD5E8"/>
</linearGradient>
<linearGradient id="paint1_linear_3306_1766" x1="660.911" y1="-10.0012" x2="628.758" y2="41.0726" gradientUnits="userSpaceOnUse">
<stop offset="0.21" stop-color="#CCD9E5"/>
<stop offset="1" stop-color="#AAD5E8"/>
</linearGradient>
<linearGradient id="paint2_linear_3306_1766" x1="900.15" y1="129.929" x2="831.808" y2="134.71" gradientUnits="userSpaceOnUse">
<stop offset="0.03" stop-color="#57DACF"/>
<stop offset="1" stop-color="#1EA59A"/>
</linearGradient>
<linearGradient id="paint3_linear_3306_1766" x1="894.792" y1="136.353" x2="836.273" y2="104.014" gradientUnits="userSpaceOnUse">
<stop offset="0.03" stop-color="#56D9CE"/>
<stop offset="1" stop-color="#179B90"/>
</linearGradient>
<linearGradient id="paint4_linear_3306_1766" x1="892.237" y1="123.276" x2="854.704" y2="84.1009" gradientUnits="userSpaceOnUse">
<stop offset="0.03" stop-color="#58DBD0"/>
<stop offset="1" stop-color="#1DA499"/>
</linearGradient>
<linearGradient id="paint5_linear_3306_1766" x1="1004.7" y1="116.841" x2="1073.54" y2="117.176" gradientUnits="userSpaceOnUse">
<stop offset="0.03" stop-color="#4AE7DA"/>
<stop offset="1" stop-color="#0F9085"/>
</linearGradient>
<linearGradient id="paint6_linear_3306_1766" x1="1011.29" y1="125.26" x2="1068.54" y2="79.5461" gradientUnits="userSpaceOnUse">
<stop offset="0.03" stop-color="#31C2B6"/>
<stop offset="1" stop-color="#189D92"/>
</linearGradient>
<linearGradient id="paint7_linear_3306_1766" x1="1024.64" y1="150.152" x2="1043.14" y2="122.261" gradientUnits="userSpaceOnUse">
<stop offset="0.03" stop-color="#7EFFF5"/>
<stop offset="1" stop-color="#189D91"/>
</linearGradient>
<clipPath id="clip0_3306_1766">
<rect width="1120" height="160" rx="15" fill="white"/>
</clipPath>
<clipPath id="clip1_3306_1766">
<rect width="243" height="118" fill="white" transform="translate(832 27)"/>
</clipPath>
</defs>
</svg>
