<svg width="24" height="24" viewBox="0 0 24 24" fill="none" xmlns="http://www.w3.org/2000/svg">
<path d="M20.16 11.712C20.16 10.56 19.776 9.504 19.104 8.928C19.008 5.088 16.608 2.496 12.672 1.92C12.096 1.824 11.52 1.824 11.04 1.824C8.736 1.92 6.528 2.976 5.28 4.512C4.224 5.76 3.84 7.296 3.936 8.928C3.264 9.504 2.88 10.56 2.88 11.712C2.88 13.056 3.36 14.208 4.224 14.688C5.28 17.952 7.968 21.312 11.52 21.312C15.072 21.312 17.76 17.952 18.816 14.688C19.584 14.112 20.16 13.056 20.16 11.712ZM17.952 13.248C17.664 13.344 17.472 13.536 17.376 13.824C16.512 16.704 14.304 19.584 11.52 19.584C8.736 19.584 6.528 16.704 5.664 13.824C5.568 13.536 5.376 13.344 5.088 13.248C4.896 13.248 4.512 12.672 4.512 11.712C4.512 10.752 4.896 10.176 5.088 10.176H6.72C8.736 9.984 10.464 9.216 11.712 7.968C12.96 9.6 14.976 10.656 17.184 10.656C17.76 10.656 17.856 10.656 18.24 10.464C18.432 10.752 18.624 11.232 18.624 11.808C18.528 12.576 18.144 13.248 17.952 13.248ZM23.04 0.96C23.04 0.48 22.56 0 22.08 0H17.856C17.28 0 16.896 0.48 16.896 0.96C16.896 1.536 17.28 1.92 17.856 1.92H21.12V5.184C21.12 5.76 21.504 6.144 22.08 6.144C22.56 6.144 23.04 5.76 23.04 5.184V0.96ZM23.04 17.856C23.04 17.28 22.56 16.896 22.08 16.896C21.504 16.896 21.12 17.28 21.12 17.856V21.12H17.76C17.28 21.12 16.8 21.6 16.8 22.08C16.8 22.656 17.28 23.04 17.76 23.04H22.08C22.56 23.04 23.04 22.656 23.04 22.08V17.856ZM5.184 0H0.96C0.384 0 0 0.48 0 0.96V5.28C0 5.76 0.384 6.24 0.96 6.24C1.44 6.24 1.92 5.76 1.92 5.28V1.92H5.184C5.76 1.92 6.144 1.536 6.144 0.96C6.144 0.48 5.76 0 5.184 0ZM0 22.08C0 22.656 0.384 23.04 0.96 23.04H5.184C5.664 23.04 6.144 22.656 6.144 22.08C6.144 21.6 5.664 21.12 5.184 21.12H1.92V17.856C1.92 17.28 1.44 16.896 0.96 16.896C0.384 16.896 0 17.28 0 17.856V22.08Z" fill="#9F9F9F"/>
<path d="M11.9997 15.5519C11.7117 15.8399 11.3277 15.8399 11.0397 15.5519C10.7517 15.2639 10.2717 15.2639 9.98369 15.5519C9.69569 15.8399 9.69569 16.3199 9.98369 16.6079C10.3677 16.9919 10.9437 17.1839 11.5197 17.1839C12.0957 17.1839 12.5757 16.9919 13.0557 16.6079C13.3437 16.3199 13.3437 15.8399 13.0557 15.5519C12.7677 15.2639 12.2877 15.2639 11.9997 15.5519ZM8.73569 10.8479C8.15969 10.8479 7.67969 11.3279 7.67969 11.9039C7.67969 12.4799 8.15969 12.9599 8.73569 12.9599C9.31169 12.9599 9.79169 12.4799 9.79169 11.9039C9.79169 11.3279 9.31169 10.8479 8.73569 10.8479ZM14.3037 10.8479C13.7277 10.8479 13.2477 11.3279 13.2477 11.9039C13.2477 12.4799 13.7277 12.9599 14.3037 12.9599C14.8797 12.9599 15.3597 12.4799 15.3597 11.9039C15.3597 11.3279 14.8797 10.8479 14.3037 10.8479Z" fill="#9F9F9F"/>
</svg>
