<svg width="1120" height="160" viewBox="0 0 1120 160" fill="none" xmlns="http://www.w3.org/2000/svg">
<g clip-path="url(#clip0_3305_1627)">
<rect width="1120" height="160" rx="15" fill="white"/>
<path d="M40.3472 134.609L35.9811 133.464L33.8121 134.157C31.953 131.23 30.1126 129.698 27.2582 127.805L27.9624 124.814L26.6573 120.484L22.3381 118.702L16.526 123.078C13.9157 122.57 11.512 122.265 6.91112 122.459L5.58719 119.902L2.63887 118L-2.50656 119.902L-4.81641 122.182L-0.0840818 120.437L2.68584 122.339L4.58251 126.06C7.82189 125.571 11.0707 125.728 14.1504 126.457L15.9626 123.512L18.8264 121.767L23.4273 123.816L24.0188 127.085L22.9108 130.381C25.5868 132.264 27.9061 134.674 29.6807 137.545L33.0985 136.733L36.2909 137.527L38.0655 142.18L36.2252 144.866L33.0515 146.445C33.5961 149.713 33.4553 152.991 32.6947 156.102L36.8261 158.558L39.2674 162.436L36.5163 165.898L42.2439 158.697L39.6336 153.905L38.1313 153.305C38.2721 149.492 38.3942 147.581 37.8777 144.22L40.4692 142.226L42.3847 139.041L40.3566 134.618L40.3472 134.609Z" fill="#A4BBDD" fill-opacity="0.25"/>
<path d="M33.093 136.714L29.6752 137.527C27.9006 134.665 25.5814 132.246 22.9054 130.362L24.0134 127.066L23.4218 123.798L18.821 121.748L15.9571 123.493L14.145 126.438C11.0652 125.709 7.81643 125.561 4.57705 126.042L2.68038 122.321L-0.0895409 120.419L-4.82187 122.164L-5.60118 125.386L-4.62467 129.31C-7.65748 131.11 -10.202 133.474 -12.1551 136.216L-15.5916 135.099L-18.9155 135.68L-21 140.204L-19.2254 143.02L-16.0799 144.894C-16.8123 148.015 -16.9249 151.301 -16.3428 154.57L-19.0188 155.899L-20.8591 158.586L-19.0845 163.239L-15.8921 164.033L-12.9626 163.341C-10.9532 166.535 -8.27718 169.166 -5.17864 171.114L-6.1176 173.893L-5.52608 177.162L-0.925193 179.211L1.9386 177.475L3.7132 174.586C6.61456 175.121 9.6474 175.149 12.6614 174.623L14.5957 178.399L17.3656 180.301L22.0979 178.556L22.8772 175.334L21.8256 171.124C24.4734 169.462 26.7269 167.357 28.5203 164.947L33.1869 166.47L36.5108 165.889L39.2619 162.427L36.8206 158.549L32.6893 156.093C33.4404 152.982 33.5907 149.704 33.0461 146.436L36.2197 144.857L38.0601 142.171L36.2854 137.517L33.093 136.723V136.714ZM12.6051 160.857C6.71785 163.036 0.15459 160.1 -2.05195 154.321C-4.26787 148.532 -1.28202 142.078 4.59582 139.909C10.483 137.73 17.0463 140.666 19.2529 146.445C21.4688 152.234 18.4829 158.687 12.6051 160.857Z" fill="url(#paint0_linear_3305_1627)" fill-opacity="0.1"/>
<path d="M655.234 44.1522L657.488 40.2973L657.37 38.0559C660.723 37.0458 662.703 35.6927 665.299 33.4686L668.053 34.9124L672.64 34.7922L675.506 31.1468L672.716 24.4882C673.89 22.1379 674.811 19.9313 675.811 15.5068L678.664 14.9099L681.293 12.599L680.758 7.21463L679.118 4.42829L679.606 9.37926L677.023 11.5206L672.881 12.3609C672.522 15.5675 671.528 18.6157 670.015 21.355L672.436 23.8403L673.407 27.0147L670.205 30.8586L666.844 30.5751L663.897 28.6686C661.356 30.7254 658.391 32.3068 655.114 33.2509L655.027 36.7107L653.421 39.5405L648.396 40.0235L646.236 37.5784L645.508 34.1523C642.16 33.8242 638.98 32.842 636.123 31.3136L632.644 34.606L628.207 35.9235L625.522 32.4117L631.106 39.7212L636.484 38.4796L637.461 37.2066C641.167 38.3273 643.011 38.938 646.442 39.3168L647.728 42.2969L650.358 44.9424L655.223 44.1587L655.234 44.1522Z" fill="#A4BBDD" fill-opacity="0.25"/>
<path d="M655.048 36.7111L655.135 33.2513C658.403 32.3048 661.377 30.7258 663.918 28.669L666.866 30.5755L670.226 30.8589L673.428 27.0151L672.457 23.8406L670.036 21.3554C671.549 18.616 672.534 15.5654 672.902 12.3612L677.044 11.5209L679.627 9.37959L679.14 4.42862L676.179 2.85372L672.076 2.76661C671.094 -0.582859 669.434 -3.61388 667.248 -6.18044L669.234 -9.1587L669.523 -12.4695L665.623 -15.6222L662.401 -14.6638L659.748 -12.1582C656.875 -13.6622 653.679 -14.62 650.321 -14.9124L649.709 -17.8008L647.549 -20.2459L642.523 -19.7629L640.918 -16.9332L640.839 -13.9686C637.184 -12.885 633.909 -11.0217 631.196 -8.5799L628.712 -10.1919L625.351 -10.4754L622.149 -6.63147L623.111 -3.45943L625.488 -1.02426C624.211 1.59567 623.399 4.47204 623.136 7.4739L618.929 8.3356L616.346 10.4769L616.834 15.4279L619.794 17.0028L624.197 17.0925C625.143 20.0402 626.625 22.7275 628.526 25.0563L625.823 29.0989L625.534 32.4097L628.219 35.9214L632.656 34.604L636.135 31.3116C638.994 32.831 642.172 33.8222 645.52 34.1503L646.248 37.5763L648.408 40.0214L653.433 39.5384L655.039 36.7087L655.048 36.7111ZM636.659 10.9831C636.044 4.82177 640.624 -0.658514 646.867 -1.26058C653.121 -1.86918 658.681 2.63997 659.289 8.78999C659.903 14.9513 655.323 20.4316 649.081 21.0337C642.827 21.6423 637.266 17.1331 636.659 10.9831Z" fill="url(#paint1_linear_3305_1627)" fill-opacity="0.1"/>
<path d="M61.992 92L58.408 87.6L56.904 89.168V92H54.328V80.8H56.904V86.032L61.864 80.8H64.744L60.104 85.792L65.016 92H61.992ZM75.0873 80.8L70.7353 88.032V92H68.1432V88L63.8072 80.8H66.5593L69.5513 85.776L72.5433 80.8H75.0873ZM81.0474 92.192C77.5754 92.192 74.9834 89.776 74.9834 86.4C74.9834 83.024 77.5754 80.608 81.0634 80.608C82.9994 80.608 84.6154 81.312 85.6714 82.592L84.0074 84.128C83.2554 83.264 82.3114 82.816 81.1914 82.816C79.0954 82.816 77.6074 84.288 77.6074 86.4C77.6074 88.512 79.0954 89.984 81.1914 89.984C82.3114 89.984 83.2554 89.536 84.0074 88.656L85.6714 90.192C84.6154 91.488 82.9994 92.192 81.0474 92.192ZM100.145 80.8H102.721L97.873 92H95.313L90.481 80.8H93.281L96.689 88.8L100.145 80.8ZM111.272 87.728C111.272 87.92 111.24 88.192 111.224 88.4H104.712C104.952 89.472 105.864 90.128 107.176 90.128C108.088 90.128 108.744 89.856 109.336 89.296L110.664 90.736C109.864 91.648 108.664 92.128 107.112 92.128C104.136 92.128 102.2 90.256 102.2 87.696C102.2 85.12 104.168 83.264 106.792 83.264C109.32 83.264 111.272 84.96 111.272 87.728ZM106.808 85.152C105.672 85.152 104.856 85.84 104.68 86.944H108.92C108.744 85.856 107.928 85.152 106.808 85.152ZM115.317 84.528C115.925 83.696 116.949 83.264 118.277 83.264V85.568C118.069 85.552 117.909 85.536 117.717 85.536C116.341 85.536 115.429 86.288 115.429 87.936V92H112.933V83.392H115.317V84.528ZM121.009 82.192C120.081 82.192 119.457 81.584 119.457 80.8C119.457 80.016 120.081 79.408 121.009 79.408C121.937 79.408 122.561 79.984 122.561 80.752C122.561 81.584 121.937 82.192 121.009 82.192ZM119.761 92V83.392H122.257V92H119.761ZM133.294 82.192C132.366 82.192 131.742 81.584 131.742 80.8C131.742 80.016 132.366 79.408 133.294 79.408C134.222 79.408 134.846 79.984 134.846 80.752C134.846 81.584 134.222 82.192 133.294 82.192ZM128.446 81.968C127.71 81.968 127.31 82.368 127.31 83.216V83.584H129.518V85.504H127.374V92H124.878V85.504H123.55V83.584H124.878V83.2C124.878 81.264 126.062 80 128.206 80C128.91 80 129.646 80.144 130.11 80.464L129.454 82.272C129.182 82.08 128.83 81.968 128.446 81.968ZM132.046 92V83.392H134.542V92H132.046ZM141.015 92.128C138.215 92.128 136.215 90.288 136.215 87.696C136.215 85.104 138.215 83.264 141.015 83.264C142.823 83.264 144.247 84.048 144.871 85.456L142.935 86.496C142.471 85.68 141.783 85.312 140.999 85.312C139.735 85.312 138.743 86.192 138.743 87.696C138.743 89.2 139.735 90.08 140.999 90.08C141.783 90.08 142.471 89.728 142.935 88.896L144.871 89.952C144.247 91.328 142.823 92.128 141.015 92.128ZM149.78 83.264C152.404 83.264 153.924 84.48 153.924 87.088V92H151.588V90.928C151.124 91.712 150.228 92.128 148.964 92.128C146.948 92.128 145.748 91.008 145.748 89.52C145.748 88 146.82 86.944 149.444 86.944H151.428C151.428 85.872 150.788 85.248 149.444 85.248C148.532 85.248 147.588 85.552 146.964 86.048L146.068 84.304C147.012 83.632 148.404 83.264 149.78 83.264ZM149.588 90.448C150.42 90.448 151.14 90.064 151.428 89.28V88.4H149.716C148.548 88.4 148.18 88.832 148.18 89.408C148.18 90.032 148.708 90.448 149.588 90.448ZM161.063 89.824L161.735 91.584C161.223 91.952 160.471 92.128 159.703 92.128C157.671 92.128 156.487 91.088 156.487 89.04V85.504H155.159V83.584H156.487V81.488H158.983V83.584H161.127V85.504H158.983V89.008C158.983 89.744 159.383 90.144 160.055 90.144C160.423 90.144 160.791 90.032 161.063 89.824ZM164.384 82.192C163.456 82.192 162.832 81.584 162.832 80.8C162.832 80.016 163.456 79.408 164.384 79.408C165.312 79.408 165.936 79.984 165.936 80.752C165.936 81.584 165.312 82.192 164.384 82.192ZM163.136 92V83.392H165.632V92H163.136ZM172.045 92.128C169.309 92.128 167.309 90.288 167.309 87.696C167.309 85.104 169.309 83.264 172.045 83.264C174.781 83.264 176.765 85.104 176.765 87.696C176.765 90.288 174.781 92.128 172.045 92.128ZM172.045 90.08C173.293 90.08 174.237 89.184 174.237 87.696C174.237 86.208 173.293 85.312 172.045 85.312C170.797 85.312 169.837 86.208 169.837 87.696C169.837 89.184 170.797 90.08 172.045 90.08ZM183.665 83.264C185.697 83.264 187.233 84.448 187.233 87.072V92H184.737V87.456C184.737 86.064 184.097 85.424 182.993 85.424C181.793 85.424 180.929 86.16 180.929 87.744V92H178.433V83.392H180.817V84.4C181.489 83.664 182.497 83.264 183.665 83.264Z" fill="#262626"/>
<path d="M64.06 57.28C58.684 57.28 55.464 54.172 55.464 48.46V37.4H59.104V48.32C59.104 52.352 60.924 54.088 64.088 54.088C67.252 54.088 69.044 52.352 69.044 48.32V37.4H72.628V48.46C72.628 54.172 69.408 57.28 64.06 57.28ZM85.6778 41.88C90.0458 41.88 93.2658 44.904 93.2658 49.524C93.2658 54.172 90.0458 57.196 85.6778 57.196C83.7738 57.196 82.0938 56.552 80.8898 55.18V62.432H77.3898V42.048H80.7218V44.008C81.8978 42.58 83.6338 41.88 85.6778 41.88ZM85.2858 54.2C87.8058 54.2 89.7098 52.38 89.7098 49.524C89.7098 46.668 87.8058 44.848 85.2858 44.848C82.7658 44.848 80.8338 46.668 80.8338 49.524C80.8338 52.38 82.7658 54.2 85.2858 54.2ZM107.729 36.224H111.229V57H107.869V55.068C106.693 56.496 104.957 57.196 102.913 57.196C98.5731 57.196 95.3531 54.172 95.3531 49.524C95.3531 44.876 98.5731 41.88 102.913 41.88C104.845 41.88 106.553 42.524 107.729 43.896V36.224ZM103.333 54.2C105.853 54.2 107.785 52.38 107.785 49.524C107.785 46.668 105.853 44.848 103.333 44.848C100.813 44.848 98.8811 46.668 98.8811 49.524C98.8811 52.38 100.813 54.2 103.333 54.2ZM121.52 41.88C125.832 41.88 128.324 43.924 128.324 48.236V57H125.02V55.18C124.18 56.468 122.556 57.196 120.316 57.196C116.9 57.196 114.744 55.32 114.744 52.716C114.744 50.224 116.424 48.264 120.96 48.264H124.824V48.04C124.824 45.996 123.592 44.792 121.1 44.792C119.42 44.792 117.684 45.352 116.564 46.276L115.192 43.728C116.788 42.496 119.112 41.88 121.52 41.88ZM121.044 54.648C122.752 54.648 124.236 53.864 124.824 52.324V50.588H121.212C118.832 50.588 118.188 51.484 118.188 52.576C118.188 53.836 119.252 54.648 121.044 54.648ZM140.824 53.696L141.804 56.188C140.964 56.86 139.704 57.196 138.444 57.196C135.168 57.196 133.292 55.46 133.292 52.156V44.96H130.828V42.16H133.292V38.744H136.792V42.16H140.796V44.96H136.792V52.072C136.792 53.528 137.52 54.312 138.864 54.312C139.592 54.312 140.292 54.116 140.824 53.696ZM158.247 49.608C158.247 49.888 158.219 50.308 158.191 50.644H146.459C146.879 52.828 148.699 54.228 151.303 54.228C152.983 54.228 154.299 53.696 155.363 52.604L157.239 54.76C155.895 56.356 153.795 57.196 151.219 57.196C146.207 57.196 142.959 53.976 142.959 49.524C142.959 45.072 146.235 41.88 150.687 41.88C155.055 41.88 158.247 44.932 158.247 49.608ZM150.687 44.68C148.419 44.68 146.767 46.136 146.431 48.32H154.915C154.635 46.164 152.983 44.68 150.687 44.68ZM169.683 57V37.4H173.323V57H169.683ZM189.432 36.224H192.932V57H189.572V55.068C188.396 56.496 186.66 57.196 184.616 57.196C180.276 57.196 177.056 54.172 177.056 49.524C177.056 44.876 180.276 41.88 184.616 41.88C186.548 41.88 188.256 42.524 189.432 43.896V36.224ZM185.036 54.2C187.556 54.2 189.488 52.38 189.488 49.524C189.488 46.668 187.556 44.848 185.036 44.848C182.516 44.848 180.584 46.668 180.584 49.524C180.584 52.38 182.516 54.2 185.036 54.2ZM211.567 49.608C211.567 49.888 211.539 50.308 211.511 50.644H199.779C200.199 52.828 202.019 54.228 204.623 54.228C206.303 54.228 207.619 53.696 208.683 52.604L210.559 54.76C209.215 56.356 207.115 57.196 204.539 57.196C199.527 57.196 196.279 53.976 196.279 49.524C196.279 45.072 199.555 41.88 204.007 41.88C208.375 41.88 211.567 44.932 211.567 49.608ZM204.007 44.68C201.739 44.68 200.087 46.136 199.751 48.32H208.235C207.955 46.164 206.303 44.68 204.007 44.68ZM223.413 41.88C226.997 41.88 229.657 43.924 229.657 48.432V57H226.157V48.88C226.157 46.22 224.841 44.932 222.601 44.932C220.109 44.932 218.429 46.444 218.429 49.44V57H214.929V42.048H218.261V43.98C219.409 42.608 221.229 41.88 223.413 41.88ZM242.105 53.696L243.085 56.188C242.245 56.86 240.985 57.196 239.725 57.196C236.449 57.196 234.573 55.46 234.573 52.156V44.96H232.109V42.16H234.573V38.744H238.073V42.16H242.077V44.96H238.073V52.072C238.073 53.528 238.801 54.312 240.145 54.312C240.873 54.312 241.573 54.116 242.105 53.696ZM247.728 39.584C246.44 39.584 245.488 38.66 245.488 37.484C245.488 36.308 246.44 35.384 247.728 35.384C249.016 35.384 249.968 36.252 249.968 37.4C249.968 38.632 249.044 39.584 247.728 39.584ZM245.964 57V42.048H249.464V57H245.964ZM262.066 53.696L263.046 56.188C262.206 56.86 260.946 57.196 259.686 57.196C256.41 57.196 254.534 55.46 254.534 52.156V44.96H252.07V42.16H254.534V38.744H258.034V42.16H262.038V44.96H258.034V52.072C258.034 53.528 258.762 54.312 260.106 54.312C260.834 54.312 261.534 54.116 262.066 53.696ZM276.291 42.048H279.651L272.651 58.204C271.279 61.592 269.375 62.628 266.883 62.628C265.399 62.628 263.831 62.124 262.879 61.256L264.279 58.68C264.951 59.324 265.903 59.716 266.855 59.716C268.087 59.716 268.815 59.128 269.487 57.644L269.739 57.056L263.215 42.048H266.855L271.559 53.108L276.291 42.048Z" fill="#262626"/>
<path d="M59.32 123.128C56.376 123.128 54.584 121.416 54.584 118.168V111.8H56.184V118.104C56.184 120.584 57.32 121.704 59.336 121.704C61.352 121.704 62.504 120.584 62.504 118.104V111.8H64.056V118.168C64.056 121.416 62.28 123.128 59.32 123.128ZM71.6083 114.44C74.0883 114.44 75.8963 116.168 75.8963 118.76C75.8963 121.368 74.0883 123.096 71.6083 123.096C70.4083 123.096 69.3523 122.632 68.6483 121.72V126.104H67.1123V114.52H68.5843V115.864C69.2723 114.92 70.3602 114.44 71.6083 114.44ZM71.4803 121.752C73.1123 121.752 74.3443 120.568 74.3443 118.76C74.3443 116.968 73.1123 115.784 71.4803 115.784C69.8643 115.784 68.6323 116.968 68.6323 118.76C68.6323 120.568 69.8643 121.752 71.4803 121.752ZM84.4825 111.128H86.0185V123H84.5465V121.656C83.8585 122.616 82.7705 123.096 81.5225 123.096C79.0425 123.096 77.2345 121.352 77.2345 118.76C77.2345 116.168 79.0425 114.44 81.5225 114.44C82.7225 114.44 83.7785 114.888 84.4825 115.8V111.128ZM81.6505 121.752C83.2665 121.752 84.4985 120.568 84.4985 118.76C84.4985 116.952 83.2665 115.784 81.6505 115.784C80.0185 115.784 78.7865 116.952 78.7865 118.76C78.7865 120.568 80.0185 121.752 81.6505 121.752ZM92.0128 114.44C94.3328 114.44 95.6448 115.56 95.6448 117.88V123H94.1888V121.88C93.6768 122.648 92.7328 123.096 91.4048 123.096C89.4848 123.096 88.2688 122.072 88.2688 120.6C88.2688 119.24 89.1488 118.12 91.6768 118.12H94.1088V117.816C94.1088 116.52 93.3568 115.768 91.8368 115.768C90.8288 115.768 89.8048 116.12 89.1488 116.68L88.5088 115.528C89.3888 114.824 90.6528 114.44 92.0128 114.44ZM91.6608 121.912C92.8128 121.912 93.7248 121.384 94.1088 120.408V119.224H91.7408C90.2208 119.224 89.7888 119.816 89.7888 120.536C89.7888 121.384 90.4928 121.912 91.6608 121.912ZM102.775 121.4L103.255 122.504C102.791 122.904 102.087 123.096 101.399 123.096C99.6873 123.096 98.7113 122.152 98.7113 120.44V115.784H97.2713V114.52H98.7113V112.664H100.247V114.52H102.679V115.784H100.247V120.376C100.247 121.288 100.727 121.8 101.575 121.8C102.023 121.8 102.455 121.656 102.775 121.4ZM112.495 118.808C112.495 118.936 112.479 119.128 112.463 119.272H105.583C105.775 120.76 106.975 121.752 108.655 121.752C109.647 121.752 110.479 121.416 111.103 120.728L111.951 121.72C111.183 122.616 110.015 123.096 108.607 123.096C105.871 123.096 104.047 121.288 104.047 118.76C104.047 116.248 105.855 114.44 108.303 114.44C110.751 114.44 112.495 116.2 112.495 118.808ZM108.303 115.736C106.831 115.736 105.743 116.728 105.583 118.168H111.023C110.863 116.744 109.791 115.736 108.303 115.736ZM124.925 114.52H126.429L122.317 123.848C121.565 125.64 120.589 126.2 119.293 126.2C118.477 126.2 117.645 125.928 117.117 125.416L117.773 124.264C118.189 124.664 118.717 124.888 119.293 124.888C120.029 124.888 120.493 124.552 120.909 123.576L121.181 122.984L117.437 114.52H119.037L121.997 121.304L124.925 114.52ZM131.26 123.096C128.716 123.096 126.844 121.288 126.844 118.76C126.844 116.232 128.716 114.44 131.26 114.44C133.804 114.44 135.66 116.232 135.66 118.76C135.66 121.288 133.804 123.096 131.26 123.096ZM131.26 121.752C132.892 121.752 134.108 120.568 134.108 118.76C134.108 116.952 132.892 115.784 131.26 115.784C129.628 115.784 128.396 116.952 128.396 118.76C128.396 120.568 129.628 121.752 131.26 121.752ZM144.152 114.52H145.688V123H144.232V121.72C143.608 122.6 142.552 123.096 141.352 123.096C139.16 123.096 137.704 121.896 137.704 119.4V114.52H139.24V119.224C139.24 120.888 140.072 121.72 141.528 121.72C143.128 121.72 144.152 120.728 144.152 118.904V114.52ZM150.084 115.944C150.628 114.952 151.684 114.44 153.172 114.44V115.928C153.044 115.912 152.932 115.912 152.82 115.912C151.172 115.912 150.148 116.92 150.148 118.776V123H148.612V114.52H150.084V115.944ZM167.632 123L163.344 118.024L161.296 120.104V123H159.696V111.8H161.296V118.056L167.376 111.8H169.2L164.416 116.84L169.504 123H167.632ZM179.166 111.8L174.718 119.128V123H173.134V119.096L168.686 111.8H170.398L173.982 117.704L177.582 111.8H179.166ZM185.313 123.128C181.921 123.128 179.393 120.712 179.393 117.4C179.393 114.088 181.921 111.672 185.329 111.672C187.057 111.672 188.561 112.264 189.585 113.416L188.545 114.424C187.681 113.512 186.625 113.096 185.393 113.096C182.865 113.096 180.993 114.92 180.993 117.4C180.993 119.88 182.865 121.704 185.393 121.704C186.625 121.704 187.681 121.272 188.545 120.36L189.585 121.368C188.561 122.52 187.057 123.128 185.313 123.128ZM202.404 111.128H203.94V123H202.468V121.656C201.78 122.616 200.692 123.096 199.444 123.096C196.964 123.096 195.156 121.352 195.156 118.76C195.156 116.168 196.964 114.44 199.444 114.44C200.644 114.44 201.7 114.888 202.404 115.8V111.128ZM199.572 121.752C201.188 121.752 202.42 120.568 202.42 118.76C202.42 116.952 201.188 115.784 199.572 115.784C197.94 115.784 196.708 116.952 196.708 118.76C196.708 120.568 197.94 121.752 199.572 121.752ZM214.511 118.808C214.511 118.936 214.495 119.128 214.479 119.272H207.599C207.791 120.76 208.991 121.752 210.671 121.752C211.663 121.752 212.495 121.416 213.119 120.728L213.967 121.72C213.199 122.616 212.031 123.096 210.623 123.096C207.887 123.096 206.063 121.288 206.063 118.76C206.063 116.248 207.871 114.44 210.319 114.44C212.767 114.44 214.511 116.2 214.511 118.808ZM210.319 115.736C208.847 115.736 207.759 116.728 207.599 118.168H213.039C212.879 116.744 211.807 115.736 210.319 115.736ZM220.932 121.4L221.412 122.504C220.948 122.904 220.244 123.096 219.556 123.096C217.844 123.096 216.868 122.152 216.868 120.44V115.784H215.428V114.52H216.868V112.664H218.404V114.52H220.836V115.784H218.404V120.376C218.404 121.288 218.884 121.8 219.732 121.8C220.18 121.8 220.612 121.656 220.932 121.4ZM226.357 114.44C228.677 114.44 229.989 115.56 229.989 117.88V123H228.533V121.88C228.021 122.648 227.077 123.096 225.749 123.096C223.829 123.096 222.613 122.072 222.613 120.6C222.613 119.24 223.493 118.12 226.021 118.12H228.453V117.816C228.453 116.52 227.701 115.768 226.181 115.768C225.173 115.768 224.149 116.12 223.493 116.68L222.853 115.528C223.733 114.824 224.997 114.44 226.357 114.44ZM226.005 121.912C227.157 121.912 228.069 121.384 228.453 120.408V119.224H226.085C224.565 119.224 224.133 119.816 224.133 120.536C224.133 121.384 224.837 121.912 226.005 121.912ZM233.599 112.888C233.007 112.888 232.559 112.456 232.559 111.896C232.559 111.336 233.007 110.888 233.599 110.888C234.191 110.888 234.639 111.32 234.639 111.864C234.639 112.44 234.207 112.888 233.599 112.888ZM232.831 123V114.52H234.367V123H232.831ZM237.3 123V111.128H238.836V123H237.3ZM244.201 123.096C242.793 123.096 241.401 122.664 240.697 122.104L241.337 120.888C242.057 121.4 243.209 121.768 244.312 121.768C245.737 121.768 246.329 121.336 246.329 120.616C246.329 118.712 240.969 120.36 240.969 116.984C240.969 115.464 242.329 114.44 244.505 114.44C245.609 114.44 246.857 114.728 247.593 115.208L246.937 116.424C246.169 115.928 245.321 115.752 244.489 115.752C243.145 115.752 242.489 116.248 242.489 116.92C242.489 118.92 247.865 117.288 247.865 120.584C247.865 122.12 246.457 123.096 244.201 123.096ZM257.185 112.296C256.273 112.296 255.809 112.808 255.809 113.784V114.52H258.273V115.784H255.841V123H254.305V115.784H252.865V114.52H254.305V113.768C254.305 112.12 255.297 111.032 257.105 111.032C257.761 111.032 258.401 111.192 258.833 111.528L258.369 112.696C258.049 112.456 257.633 112.296 257.185 112.296ZM263.229 123.096C260.685 123.096 258.813 121.288 258.813 118.76C258.813 116.232 260.685 114.44 263.229 114.44C265.773 114.44 267.629 116.232 267.629 118.76C267.629 121.288 265.773 123.096 263.229 123.096ZM263.229 121.752C264.861 121.752 266.077 120.568 266.077 118.76C266.077 116.952 264.861 115.784 263.229 115.784C261.597 115.784 260.365 116.952 260.365 118.76C260.365 120.568 261.597 121.752 263.229 121.752ZM271.225 115.944C271.769 114.952 272.825 114.44 274.313 114.44V115.928C274.185 115.912 274.073 115.912 273.961 115.912C272.313 115.912 271.289 116.92 271.289 118.776V123H269.753V114.52H271.225V115.944ZM284.9 121.4L285.38 122.504C284.916 122.904 284.212 123.096 283.524 123.096C281.812 123.096 280.836 122.152 280.836 120.44V115.784H279.396V114.52H280.836V112.664H282.372V114.52H284.804V115.784H282.372V120.376C282.372 121.288 282.852 121.8 283.7 121.8C284.148 121.8 284.58 121.656 284.9 121.4ZM288.709 115.944C289.253 114.952 290.309 114.44 291.797 114.44V115.928C291.669 115.912 291.557 115.912 291.445 115.912C289.797 115.912 288.773 116.92 288.773 118.776V123H287.237V114.52H288.709V115.944ZM296.763 114.44C299.083 114.44 300.395 115.56 300.395 117.88V123H298.939V121.88C298.427 122.648 297.483 123.096 296.155 123.096C294.235 123.096 293.019 122.072 293.019 120.6C293.019 119.24 293.899 118.12 296.427 118.12H298.859V117.816C298.859 116.52 298.107 115.768 296.587 115.768C295.579 115.768 294.555 116.12 293.899 116.68L293.259 115.528C294.139 114.824 295.403 114.44 296.763 114.44ZM296.411 121.912C297.563 121.912 298.475 121.384 298.859 120.408V119.224H296.491C294.971 119.224 294.539 119.816 294.539 120.536C294.539 121.384 295.243 121.912 296.411 121.912ZM309.748 111.128H311.284V123H309.812V121.656C309.124 122.616 308.036 123.096 306.788 123.096C304.308 123.096 302.5 121.352 302.5 118.76C302.5 116.168 304.308 114.44 306.788 114.44C307.988 114.44 309.044 114.888 309.748 115.8V111.128ZM306.916 121.752C308.532 121.752 309.764 120.568 309.764 118.76C309.764 116.952 308.532 115.784 306.916 115.784C305.284 115.784 304.052 116.952 304.052 118.76C304.052 120.568 305.284 121.752 306.916 121.752ZM314.958 112.888C314.366 112.888 313.918 112.456 313.918 111.896C313.918 111.336 314.366 110.888 314.958 110.888C315.55 110.888 315.998 111.32 315.998 111.864C315.998 112.44 315.566 112.888 314.958 112.888ZM314.19 123V114.52H315.726V123H314.19ZM323.187 114.44C325.251 114.44 326.707 115.624 326.707 118.12V123H325.171V118.296C325.171 116.632 324.339 115.816 322.883 115.816C321.251 115.816 320.195 116.792 320.195 118.632V123H318.659V114.52H320.131V115.8C320.755 114.936 321.843 114.44 323.187 114.44ZM336.253 114.52H337.709V121.848C337.709 124.84 336.189 126.2 333.309 126.2C331.757 126.2 330.189 125.768 329.261 124.936L329.997 123.752C330.781 124.424 332.013 124.856 333.261 124.856C335.261 124.856 336.173 123.928 336.173 122.008V121.336C335.437 122.216 334.333 122.648 333.117 122.648C330.669 122.648 328.813 120.984 328.813 118.536C328.813 116.088 330.669 114.44 333.117 114.44C334.381 114.44 335.533 114.904 336.253 115.832V114.52ZM333.293 121.304C334.989 121.304 336.205 120.168 336.205 118.536C336.205 116.888 334.989 115.784 333.293 115.784C331.581 115.784 330.365 116.888 330.365 118.536C330.365 120.168 331.581 121.304 333.293 121.304ZM341.012 123.096C340.42 123.096 339.924 122.632 339.924 121.992C339.924 121.352 340.42 120.904 341.012 120.904C341.588 120.904 342.068 121.352 342.068 121.992C342.068 122.632 341.588 123.096 341.012 123.096Z" fill="#959595"/>
<g clip-path="url(#clip1_3305_1627)">
<path d="M1065.57 143.63L1061.41 143.651C1058.48 143.665 1054.33 143.684 1049.21 143.707C1048 143.714 1046.73 143.72 1045.41 143.725C1043.54 143.735 1041.56 143.745 1039.49 143.755L1032.94 143.785C971.963 144.071 848.755 144.62 848.663 144.406L848.644 144.371C848.644 144.371 848.623 144.337 848.623 144.321C848.545 144.183 807.077 104.289 855.425 77.0374C874.343 66.3748 856.926 61.5225 872.363 50.1505C896.066 32.6889 928.228 51.9941 947.035 44.3184C1000.15 22.6436 1020.59 26.0066 1036.16 29.7522C1038.49 30.3129 1041.28 31.4415 1044.07 33.0541C1048.28 35.4894 1052.51 39.025 1055.18 43.3559C1059.01 49.5706 1059.64 57.4235 1052.43 66.0096C1052.29 66.1803 1052.15 66.3547 1052.03 66.531C1048.35 71.5897 1050.96 78.7705 1055.45 85.9038C1058.32 90.473 1061.97 95.0222 1065.23 98.9824C1086.92 125.321 1065.77 143.284 1065.57 143.63Z" fill="#DBFFFC"/>
<path d="M1050.44 57.5362L1008.14 65.1201L1017.81 119.911L1060.12 112.328L1050.44 57.5362Z" fill="#A2FFF7"/>
<path d="M902.507 134.009C902.507 134.009 874.124 142.019 859.777 128.431C848.283 117.546 841.164 118.372 837.894 121.775C832.827 127.046 846.549 144.677 883.184 145.209C919.813 145.742 902.511 134.009 902.511 134.009H902.507Z" fill="url(#paint2_linear_3305_1627)"/>
<path d="M893.945 138.291C879.19 140.895 866.771 137.872 858.802 134.771C849.724 131.242 844.298 126.852 844.245 126.811C844.168 126.748 844.159 126.639 844.218 126.563C844.281 126.486 844.388 126.477 844.465 126.536C844.519 126.581 849.909 130.936 858.941 134.447C867.274 137.682 880.493 140.841 896.169 137.497C896.259 137.484 896.357 137.538 896.375 137.633C896.393 137.727 896.335 137.822 896.241 137.84C895.468 138.003 894.704 138.156 893.945 138.287V138.291Z" fill="#EFEFEF"/>
<path d="M893.327 135.71C893.327 135.71 868.788 129.04 859.913 112.853C852.066 98.5386 845.625 95.6188 842.431 96.0836C834.651 97.2208 839.152 114.396 870.113 135.394C895.496 152.61 893.327 135.71 893.327 135.71Z" fill="url(#paint3_linear_3305_1627)"/>
<path d="M884.115 134.803C884.07 134.825 884.021 134.83 883.972 134.812C868.565 128.977 858.625 120.069 853.001 113.62C846.902 106.63 844.418 100.944 844.391 100.885C844.35 100.795 844.391 100.691 844.481 100.655C844.57 100.614 844.674 100.655 844.71 100.745C844.732 100.799 847.207 106.449 853.271 113.399C858.867 119.811 868.758 128.674 884.093 134.482C884.183 134.518 884.228 134.618 884.196 134.708C884.183 134.749 884.151 134.78 884.115 134.798V134.803Z" fill="#EFEFEF"/>
<path d="M896.248 129.329C896.248 129.329 876.898 117.406 876.521 101.937C876.22 89.5401 871.185 84.1609 866.558 84.0346C860.773 83.8721 858.361 98.1955 880.729 124.997C890.786 137.046 896.248 129.333 896.248 129.333V129.329Z" fill="url(#paint4_linear_3305_1627)"/>
<path d="M896.426 125.38C896.386 125.389 896.341 125.38 896.305 125.362C882.763 117.939 875.54 108.385 871.87 101.675C867.891 94.4003 867.104 88.8 867.095 88.7413C867.082 88.6465 867.149 88.5608 867.244 88.5427C867.338 88.5292 867.428 88.5969 867.441 88.6917C867.45 88.7458 868.227 94.2965 872.185 101.517C875.832 108.182 883.01 117.672 896.471 125.051C896.557 125.096 896.588 125.204 896.543 125.29C896.516 125.335 896.476 125.367 896.426 125.376V125.38Z" fill="#EFEFEF"/>
<path d="M1047.51 64.5031L1035.21 66.7065C1035.08 66.7293 1034.96 66.6426 1034.94 66.5129C1034.91 66.3823 1035 66.2582 1035.13 66.2353L1047.43 64.032C1047.56 64.0091 1047.68 64.0959 1047.7 64.2256C1047.72 64.3561 1047.64 64.4803 1047.51 64.5031Z" fill="#AEC3FF"/>
<path d="M1047.79 66.1184L1035.5 68.3217C1035.37 68.3446 1035.25 68.2578 1035.22 68.1282C1035.2 67.9976 1035.29 67.8734 1035.41 67.8506L1047.71 65.6472C1047.84 65.6244 1047.96 65.7111 1047.99 65.8408C1048.01 65.9714 1047.92 66.0955 1047.79 66.1184Z" fill="#AEC3FF"/>
<path d="M1048.08 67.7336L1035.78 69.937C1035.65 69.9598 1035.53 69.8731 1035.51 69.7434C1035.48 69.6128 1035.57 69.4886 1035.7 69.4658L1048 67.2624C1048.13 67.2396 1048.25 67.3264 1048.27 67.456C1048.29 67.5866 1048.21 67.7108 1048.08 67.7336Z" fill="#AEC3FF"/>
<path d="M1041.18 73.944L1032.69 75.4652C1032.51 75.499 1032.33 75.3739 1032.29 75.1867C1032.26 74.9995 1032.39 74.8206 1032.57 74.7868L1041.06 73.2655C1041.25 73.2327 1041.42 73.3568 1041.46 73.544C1041.49 73.7312 1041.37 73.9102 1041.18 73.944Z" fill="#AEC3FF"/>
<path d="M1048.83 72.5731L1043.61 73.5091C1043.42 73.5429 1043.24 73.4178 1043.21 73.2306C1043.18 73.0434 1043.3 72.8644 1043.49 72.8306L1048.71 71.8947C1048.89 71.8609 1049.07 71.986 1049.1 72.1732C1049.14 72.3604 1049.01 72.5393 1048.83 72.5731Z" fill="#AEC3FF"/>
<path d="M1046.6 75.2853L1033.55 77.6229C1033.37 77.6567 1033.19 77.5316 1033.16 77.3444C1033.12 77.1572 1033.25 76.9782 1033.43 76.9444L1046.48 74.6068C1046.66 74.574 1046.84 74.6981 1046.87 74.8853C1046.91 75.0725 1046.78 75.2515 1046.6 75.2853Z" fill="#AEC3FF"/>
<path d="M1038.23 81.765L1029.74 83.2863C1029.55 83.3191 1029.37 83.195 1029.34 83.0078C1029.31 82.8206 1029.43 82.6416 1029.62 82.6078L1038.11 81.0866C1038.29 81.0528 1038.47 81.1779 1038.5 81.3651C1038.54 81.5523 1038.41 81.7312 1038.23 81.765Z" fill="#AEC3FF"/>
<path d="M1045.87 80.3944L1040.65 81.3304C1040.47 81.3632 1040.29 81.239 1040.26 81.0519C1040.22 80.8647 1040.35 80.6857 1040.53 80.6519L1045.75 79.716C1045.94 79.6822 1046.12 79.8073 1046.15 79.9945C1046.18 80.1817 1046.06 80.3606 1045.87 80.3944Z" fill="#AEC3FF"/>
<path d="M1050.31 81.9291L1029.91 85.5834C1029.73 85.6163 1029.55 85.4921 1029.52 85.3049C1029.48 85.1177 1029.61 84.9387 1029.79 84.9049L1050.19 81.2506C1050.37 81.2168 1050.55 81.3419 1050.58 81.5291C1050.62 81.7163 1050.49 81.8953 1050.31 81.9291Z" fill="#AEC3FF"/>
<path d="M1038.99 86.684L1030.5 88.2052C1030.31 88.2381 1030.13 88.1139 1030.1 87.9267C1030.07 87.7395 1030.19 87.5606 1030.38 87.5268L1038.87 86.0055C1039.05 85.9717 1039.23 86.0968 1039.26 86.284C1039.3 86.4712 1039.17 86.6502 1038.99 86.684Z" fill="#AEC3FF"/>
<path d="M1046.97 85.3358L1041.75 86.2718C1041.56 86.3046 1041.39 86.1805 1041.35 85.9933C1041.32 85.8061 1041.44 85.6271 1041.63 85.5933L1046.85 84.6574C1047.04 84.6236 1047.21 84.7487 1047.25 84.9359C1047.28 85.1231 1047.16 85.302 1046.97 85.3358Z" fill="#AEC3FF"/>
<path d="M1043.84 88.235L1030.8 90.5726C1030.61 90.6064 1030.43 90.4813 1030.4 90.2941C1030.37 90.1069 1030.49 89.9279 1030.68 89.8941L1043.72 87.5565C1043.91 87.5237 1044.08 87.6479 1044.12 87.835C1044.15 88.0222 1044.03 88.2012 1043.84 88.235Z" fill="#AEC3FF"/>
<path d="M1027.17 111.224L1018.68 112.745C1018.5 112.779 1018.32 112.654 1018.29 112.467C1018.25 112.279 1018.38 112.1 1018.56 112.067L1027.05 110.545C1027.24 110.512 1027.42 110.637 1027.45 110.824C1027.48 111.011 1027.36 111.19 1027.17 111.224Z" fill="#AEC3FF"/>
<path d="M1035.16 109.877L1029.94 110.813C1029.75 110.847 1029.57 110.721 1029.54 110.534C1029.51 110.347 1029.63 110.168 1029.82 110.134L1035.04 109.198C1035.22 109.165 1035.4 109.29 1035.44 109.477C1035.47 109.664 1035.35 109.843 1035.16 109.877Z" fill="#AEC3FF"/>
<path d="M1032.03 112.775L1018.98 115.113C1018.8 115.147 1018.62 115.022 1018.59 114.834C1018.55 114.647 1018.68 114.468 1018.86 114.434L1031.91 112.097C1032.09 112.063 1032.27 112.188 1032.3 112.375C1032.34 112.563 1032.21 112.741 1032.03 112.775Z" fill="#AEC3FF"/>
<path d="M1020.27 52.9486C1020.27 52.9486 1022.28 55.1876 1022.39 56.2148C1022.5 57.243 1021.49 59.513 1021.98 60.5028C1022.13 60.8115 1024.44 63.8768 1025.14 64.0494C1025.62 64.1663 1026.31 62.96 1025.63 61.7849C1024.94 60.5951 1024.8 58.231 1024.91 57.1909C1025.1 55.4167 1026.35 51.2894 1026.58 52.0647L1030.47 51.4428L1026.78 49.9243L1020.27 52.9477L1020.27 52.9486Z" fill="#E59365"/>
<path d="M1019.02 58.3761C1019.02 58.3761 1018.68 62.8714 1019.02 64.5872C1019.16 65.2757 1019.82 67.4891 1020.47 67.7283C1021.55 68.1228 1022.14 66.2171 1021.67 64.148C1021.54 63.5818 1022.43 60.0882 1023.02 58.4912C1024.48 54.5209 1025.37 52.1304 1025.37 52.1304L1019.03 58.3761H1019.02Z" fill="#F2A36D"/>
<path d="M1051.13 43.8975C1050.18 44.4609 1049.29 44.9951 1048.51 45.469C1048.08 45.7338 1047.68 45.9795 1047.33 46.2014C1046.77 46.5593 1046.33 46.8533 1046.05 47.0624C1045.33 47.5957 1044.16 48.2458 1043.29 49.1398C1043.29 49.1398 1043.29 49.1434 1043.29 49.1443C1041.6 50.3469 1041.52 51.765 1041.46 52.6306C1041.3 54.7783 1039.32 57.9368 1036.63 61.098C1035.16 62.8229 1033.87 65.344 1033.42 66.343C1033.27 66.6708 1033 67.4314 1032.68 68.2359C1032.24 69.3572 1031.72 70.5625 1031.35 70.8009C1031.24 70.8693 1031.06 70.8483 1030.85 70.7689C1030.32 70.5689 1029.6 69.9964 1029.39 69.5535C1028.75 68.2295 1029.25 66.2069 1030.46 63.0083C1031.62 59.9612 1031.45 58.4226 1031 57.0629C1030.71 56.179 1030.29 55.3298 1028.99 54.8157C1028.84 54.7555 1028.37 54.529 1027.73 54.351C1027.1 54.1766 1026.32 54.0469 1025.5 54.1656C1025.22 54.2067 1024.94 54.277 1024.65 54.3866C1024.01 54.634 1023.39 55.0796 1022.85 55.8229C1022.83 55.8467 1022.81 55.8695 1022.79 55.8923C1022.79 55.8923 1022.79 55.8932 1022.79 55.8941C1022.58 56.1763 1022.33 56.4393 1022.07 56.6904C1021.55 57.1889 1020.96 57.6373 1020.42 58.092C1019.89 58.5395 1019.4 58.9924 1019.08 59.5046C1018.88 59.8105 1018.74 60.1365 1018.68 60.4944C1018.48 61.6614 1017.89 62.8138 1017.3 64.0921C1016.88 65.0171 1016.45 66.0079 1016.18 67.1182C1015.52 69.79 1014.02 70.0713 1013.23 69.2659C1013.22 69.2559 1013.21 69.2449 1013.2 69.2349C1012.96 68.9728 1012.96 67.5264 1013.02 66.2252C1013.07 65.2509 1013.16 64.3588 1013.21 64.104C1013.36 63.3114 1014.67 60.1977 1015.3 56.978C1015.77 54.5765 1019.49 50.9898 1022.12 46.2543C1023.43 43.8985 1028.46 43.2492 1033.71 40.1775C1033.99 40.0131 1034.3 39.8999 1034.59 39.7556C1035.43 39.342 1036.25 38.8964 1037.06 38.4197C1038.23 38.4115 1039.42 38.4681 1040.61 38.5832C1041.41 38.6608 1042.21 38.7649 1043.02 38.8964C1044.3 39.1037 1045.58 39.3758 1046.86 39.7072C1048.48 41.0943 1049.9 42.495 1051.13 43.9012V43.8975Z" fill="#FFB27D"/>
<path d="M1048.83 45.8499L1047.92 46.4407L1047.68 46.595L1043.47 49.3353L1043.29 49.1435L1034.57 39.7731L1034.6 39.7512C1034.6 39.7512 1038.41 37.0145 1038.7 36.9789C1038.78 36.9689 1038.86 36.9588 1038.94 36.9497C1039.38 37.3058 1040.05 37.8939 1040.85 38.6034C1043.41 40.877 1047.25 44.3971 1048.45 45.5038C1048.69 45.7248 1048.83 45.849 1048.83 45.849L1048.83 45.8499Z" fill="#9FC1F4"/>
<path d="M1055.18 43.356L1049.78 47.2569C1049.78 47.2569 1048.93 46.94 1047.92 46.4397C1047.75 46.3538 1047.57 46.2625 1047.39 46.1666C1046.76 45.8315 1046.12 45.437 1045.61 45.0143C1043.26 43.0584 1041.09 40.3272 1039.77 38.5083C1039.3 37.8554 1038.93 37.3194 1038.7 36.9797C1038.74 36.9742 1041.31 35.0475 1044.07 33.0542C1048.29 35.4895 1052.52 39.0251 1055.19 43.356H1055.18Z" fill="#F99746"/>
<path d="M1044.33 46.7265C1044.48 46.4937 1044.78 46.4215 1045.01 46.5649C1045.24 46.7083 1045.31 47.0132 1045.17 47.2461C1045.03 47.4789 1044.73 47.5511 1044.5 47.4077C1044.26 47.2643 1044.19 46.9594 1044.33 46.7265Z" fill="#2A4E96"/>
<path d="M1006.56 65.4145L1030.1 61.1968L1027.2 74.3156L1010.49 78.0594L1006.56 65.4145Z" fill="#A2FFF7"/>
<path d="M1028.24 71.9988C1028.62 73.9109 1028.29 75.7992 1027.44 77.3881C1027.12 77.9652 1026.75 78.5021 1026.3 78.9842C1025.77 79.5741 1025.14 80.0872 1024.45 80.4963C1023.71 80.9328 1022.88 81.2524 1021.99 81.4314C1021.51 81.5291 1021.03 81.5802 1020.55 81.5875V81.5857C1019.92 81.5957 1019.3 81.53 1018.7 81.3939C1018.08 81.2533 1017.47 81.036 1016.9 80.7502C1016.55 80.5749 1016.2 80.3685 1015.88 80.1411C1015.33 79.7549 1014.83 79.2956 1014.39 78.7778C1013.53 77.7697 1012.91 76.5325 1012.63 75.1363C1011.77 70.7935 1014.57 66.5694 1018.88 65.7028C1023.19 64.8363 1027.39 67.6569 1028.24 71.9988Z" fill="#8C9DF4"/>
<path d="M1026.64 74.5247C1025.57 71.9315 1023.22 68.9035 1021.56 67.6206C1021.17 67.3248 1020.83 67.123 1020.54 67.039C1020.42 67.0052 1020.32 66.9814 1020.21 66.9632C1019.21 66.7869 1018.55 67.2188 1018.55 67.2188C1015.17 67.4928 1014.98 71.5671 1015.29 72.893C1015.57 74.0928 1015.95 75.3584 1015.18 77.0933C1015.1 77.275 1015.01 77.4631 1014.9 77.6549C1014.67 78.0649 1014.5 78.4384 1014.39 78.778C1014.83 79.2958 1015.33 79.7551 1015.88 80.1413C1016.2 80.3687 1016.55 80.5751 1016.9 80.7504C1017.47 81.0362 1018.08 81.2526 1018.7 81.3941C1019.3 81.5302 1019.92 81.5969 1020.55 81.5859C1020.33 79.4145 1021.95 78.7178 1023.25 78.6018C1024.12 78.5242 1024.85 78.7068 1024.8 78.8812C1025.33 78.9004 1025.76 78.8438 1026.1 78.7223C1026.85 78.453 1027.19 77.8677 1027.23 77.0952C1027.27 76.3683 1027.04 75.4762 1026.64 74.5256V74.5247Z" fill="#163560"/>
<path d="M1018.71 81.394C1018.08 81.2533 1017.47 81.036 1016.9 80.7502C1016.55 80.5749 1016.21 80.3685 1015.88 80.1412C1015.97 79.7978 1016.03 79.533 1016.07 79.3933C1016.5 77.7269 1017.58 77.0566 1017.58 77.0566L1018.71 81.394Z" fill="#FFA561"/>
<path d="M1026.31 78.9846C1025.77 79.5744 1025.14 80.0876 1024.45 80.4967C1023.71 80.9332 1022.88 81.2527 1022 81.4317C1021.51 81.5294 1021.03 81.5806 1020.55 81.5879V81.586C1019.92 81.5961 1019.3 81.5303 1018.71 81.3943C1018.08 81.2537 1017.47 81.0363 1016.9 80.7505C1017.08 78.5864 1017.58 77.057 1017.58 77.057C1017.58 77.057 1018.09 76.7291 1019.09 76.3831C1019.82 76.132 1020.81 75.8745 1022.06 75.7229C1022.56 75.6617 1023.1 75.6188 1023.68 75.5996L1026.1 78.7225L1026.31 78.9855L1026.31 78.9846Z" fill="#FFA561"/>
<path d="M1022.05 75.7027C1021.72 75.2023 1021.42 74.3988 1021.22 73.3706L1021.08 73.43L1018.69 74.4271C1018.69 74.4271 1018.9 75.2051 1019.05 75.9483C1019.05 75.9547 1019.05 75.9611 1019.05 75.9666C1019.18 76.6122 1018.88 77.3472 1019.95 77.3975C1020.29 77.413 1022.74 76.7528 1022.05 75.7027H1022.05Z" fill="#FFB27D"/>
<path d="M1018.69 74.4268C1018.69 74.4268 1018.9 75.2048 1019.05 75.9481C1020.44 75.6285 1020.92 74.2004 1021.08 73.4297L1018.69 74.4268H1018.69Z" fill="#E8945B"/>
<path d="M1018.36 75.2249C1018.36 75.2249 1021.67 74.6177 1021.26 72.5477C1020.85 70.4785 1021 69.0066 1018.88 69.307C1016.75 69.6074 1016.49 70.4785 1016.46 71.2026C1016.43 71.9267 1017.49 75.329 1018.36 75.2249Z" fill="#FFB27D"/>
<path d="M1017.36 69.5585C1017.36 69.5585 1018.75 71.8038 1020.2 71.8851C1021.66 71.9654 1022.19 71.4705 1022.19 71.4705C1022.19 71.4705 1020.96 70.8341 1020.44 69.3932C1020.44 69.3932 1017.82 68.2664 1017.36 69.5585Z" fill="#163560"/>
<path d="M1017.63 69.7106C1017.63 69.7106 1017.01 70.0969 1016.83 70.6448C1016.66 71.1799 1016.55 71.8629 1016.76 72.6335C1016.76 72.6335 1015.75 71.1205 1016.33 70.0339C1016.95 68.8815 1017.63 69.7116 1017.63 69.7116V69.7106Z" fill="#163560"/>
<path d="M1024.45 80.4967C1024.2 80.3269 1023.94 80.1461 1023.65 79.9552C1023.35 79.7571 1023.25 79.2265 1023.25 78.602C1023.25 77.3053 1023.68 75.5996 1023.68 75.5996C1023.68 75.5996 1025.88 75.3156 1027.23 77.0953C1027.29 77.1638 1027.34 77.2359 1027.39 77.3108C1027.41 77.3364 1027.42 77.3629 1027.44 77.3884C1027.13 77.9655 1026.75 78.5024 1026.31 78.9846C1025.77 79.5744 1025.15 80.0876 1024.45 80.4967Z" fill="#FFA561"/>
<path d="M1051.78 97.9332C1051.35 96.9169 1050.74 96.033 1050 95.3034C1049.32 94.635 1048.53 94.0972 1047.68 93.7054C1045.67 92.7786 1043.29 92.6736 1041.1 93.6169C1036.98 95.3929 1035.06 100.218 1036.82 104.373C1038.58 108.529 1043.37 110.466 1047.5 108.69C1051.62 106.914 1053.54 102.089 1051.78 97.9332H1051.78ZM1047.12 107.816C1043.48 109.386 1039.24 107.673 1037.69 103.999C1036.13 100.326 1037.83 96.0604 1041.47 94.4907C1043.41 93.6561 1045.52 93.7502 1047.3 94.5729C1048.15 94.9683 1048.93 95.5299 1049.58 96.2384C1050.13 96.8302 1050.58 97.5241 1050.91 98.3067C1052.47 101.981 1050.77 106.246 1047.12 107.816Z" fill="#8C9DF4"/>
<path d="M1044.76 105.132C1044.45 105.134 1044.15 105.032 1043.9 104.837L1038.63 100.672C1038.03 100.199 1037.92 99.325 1038.39 98.7215C1038.86 98.1179 1039.73 98.012 1040.33 98.485L1044.21 101.552L1048.34 92.2118C1048.65 91.5114 1049.47 91.1955 1050.17 91.5087C1050.86 91.821 1051.17 92.6428 1050.86 93.3432L1046.01 104.309C1045.84 104.7 1045.5 104.988 1045.08 105.091C1044.98 105.118 1044.87 105.132 1044.76 105.132Z" fill="#F77D48"/>
<path d="M1002.24 118.922C1002.24 118.922 1031.36 125.12 1044.93 110.471C1055.8 98.7396 1063.03 99.0997 1066.55 102.313C1072.01 107.29 1060.22 130.421 1023.33 133.379C986.453 136.337 1002.24 118.917 1002.24 118.917V118.922Z" fill="url(#paint5_linear_3305_1627)"/>
<path d="M1011.15 122.669C1010.37 122.582 1009.59 122.486 1008.8 122.368C1008.7 122.354 1008.64 122.263 1008.65 122.167C1008.66 122.072 1008.75 122.012 1008.85 122.017C1024.87 124.351 1037.99 120.294 1046.18 116.475C1055.05 112.341 1060.19 107.596 1060.24 107.551C1060.31 107.482 1060.43 107.487 1060.49 107.56C1060.56 107.633 1060.55 107.746 1060.48 107.81C1060.43 107.856 1055.25 112.637 1046.33 116.798C1038.51 120.449 1026.19 124.319 1011.15 122.669Z" fill="#EEEEEE"/>
<path d="M1006.9 129.646C1006.9 129.646 1031.12 116.433 1037.72 98.7988C1043.56 83.2066 1049.98 79.2003 1053.51 79.1183C1062.12 78.9177 1061.59 97.983 1030.85 122.987C1000.11 147.991 1006.9 129.651 1006.9 129.651V129.646Z" fill="url(#paint6_linear_3305_1627)"/>
<path d="M1009.16 132.976C1009.11 132.967 1009.06 132.942 1009.02 132.906C1008.95 132.819 1008.97 132.696 1009.08 132.635C1044.47 111.358 1050.08 84.468 1050.13 84.1976C1050.16 84.0902 1050.27 84.013 1050.41 84.0243C1050.53 84.0318 1050.63 84.1313 1050.61 84.2387C1050.59 84.3053 1049.22 91.125 1043.46 100.489C1038.16 109.127 1027.93 121.77 1009.36 132.937C1009.3 132.973 1009.22 132.985 1009.16 132.972L1009.16 132.976Z" fill="#EEEEEE"/>
<path d="M1018.68 142.54C1018.68 142.54 1021.88 139.555 1038 142.13C1051.68 144.318 1056.21 143.005 1057.44 137.454C1059.55 127.896 1035.72 124.241 1012.8 139.619C1004.52 145.175 1018.68 142.54 1018.68 142.54Z" fill="url(#paint7_linear_3305_1627)"/>
<path d="M1011.42 144.122C1011.37 144.108 1011.33 144.072 1011.3 144.017C1011.26 143.912 1011.29 143.776 1011.37 143.716C1031.13 129.874 1050.88 136.287 1051.08 136.346C1051.18 136.378 1051.23 136.501 1051.21 136.615C1051.18 136.734 1051.09 136.802 1050.99 136.77C1050.79 136.702 1031.18 130.348 1011.55 144.099C1011.51 144.126 1011.46 144.136 1011.42 144.122H1011.42Z" fill="#EEEEEE"/>
<g opacity="0.8">
<path d="M900.742 113.063C900.742 113.063 904.523 118.79 902.415 125.793L901.448 125.537C901.448 125.537 902.351 117.83 900.368 113.966C898.385 110.101 900.742 113.064 900.742 113.064V113.063Z" fill="#AEC3FF"/>
</g>
<path d="M923.266 72.5081C923.266 72.5081 925.978 67.3864 932.522 67.9233C932.522 67.9233 941.98 59.3637 952.14 66.696C952.14 66.696 962.897 64.8168 970.885 68.1917C976.211 70.4417 977.978 72.8194 977.978 72.8194L923.266 72.5071V72.5081Z" fill="#68F5E9"/>
<path d="M951.758 57.0536C951.758 57.0536 953.844 53.118 958.878 53.5307C958.878 53.5307 966.154 46.9535 973.971 52.5875C973.971 52.5875 982.247 51.1438 988.392 53.7371C992.489 55.4656 993.848 57.2937 993.848 57.2937L951.759 57.0545L951.758 57.0536Z" fill="#68F5E9"/>
<path d="M943.024 143.876L922.473 108.397L921.703 107.067L912.114 113.37L915.178 118.704L929.691 143.942L929.845 144.2L943.178 144.136L943.024 143.877V143.876ZM927.178 83.1464L906.37 115.462L901.652 122.785L903.37 135.416L906.435 131.077L915.178 118.703L922.473 108.397L940.358 83.0815L927.178 83.1464ZM906.435 131.077L906.37 115.462L906.216 83.2496L894.793 83.3016L895.075 144.096V144.355L906.498 144.303V144.044L906.434 131.077H906.435Z" fill="#00BBAB"/>
<path d="M1020.52 124.154C1019.89 126.958 1018.73 129.127 1017.01 130.639C1015.29 132.163 1013.19 132.925 1010.69 132.938C1007.46 132.951 1004.97 131.982 1003.21 130.031C1001.45 128.081 1000.56 125.317 1000.55 121.739L1000.47 104.974C1000.45 101.397 1001.32 98.6062 1003.06 96.6312C1004.79 94.6552 1007.28 93.648 1010.51 93.6343C1012.14 93.6215 1013.62 93.9959 1014.94 94.7456C1016.27 95.4943 1017.39 96.5791 1018.32 97.9871C1019.24 99.3952 1019.94 101.126 1020.42 103.166L1032.27 103.102C1031.5 98.6583 1030.12 94.8615 1028.15 91.7231C1026.18 88.5847 1023.69 86.1951 1020.69 84.5551C1017.7 82.9279 1014.28 82.1134 1010.45 82.1271C1005.81 82.1527 1001.86 83.0704 998.6 84.8784C995.343 86.6736 992.869 89.2823 991.164 92.6929C989.446 96.1025 988.612 100.222 988.625 105.04L988.702 121.792C988.728 126.635 989.612 130.743 991.343 134.127C993.087 137.498 995.587 140.068 998.869 141.838C1000.27 142.587 1001.54 143.395 1003.19 143.808C1004.29 144.104 1005.71 144.111 1006.95 144.24L1014.13 144.202C1015.21 144.061 1016.27 143.84 1017.27 143.53C1018.55 143.156 1019.78 142.652 1020.93 142.032C1023.91 140.43 1026.36 138.118 1028.3 135.083C1030.25 132.048 1031.6 128.392 1032.36 124.104L1020.52 124.155L1020.52 124.154Z" fill="#00BBAB"/>
<path d="M990.356 82.8496L978.394 82.9144L966.92 109.25L955.215 83.0176L943.254 83.0697L961.266 120.487L961.369 143.787V144.045L972.792 143.993V143.735L972.69 120.435L990.356 82.8496Z" fill="#00BBAB"/>
<path d="M999.333 143.667C999.333 143.667 999.328 142.655 999.485 142.318C999.643 141.98 1000.22 140.607 1000.22 140.607L1002.5 140.596C1002.5 140.596 1002.92 141.844 1002.95 142.253C1002.98 142.662 1002.96 143.65 1002.96 143.65L999.332 143.667H999.333Z" fill="#1B3051"/>
<path d="M1012.37 143.616C1012.37 143.616 1012.37 142.604 1012.22 142.268C1012.08 141.932 1011.55 140.563 1011.55 140.563L1009.49 140.572C1009.49 140.572 1009.12 141.825 1009.09 142.233C1009.07 142.642 1009.1 143.63 1009.1 143.63L1012.37 143.615V143.616Z" fill="#1B3051"/>
<path d="M1003.88 86.8215C1003.88 86.8215 1003.82 89.0769 1003.54 90.0877L1001.28 91.6921L1009.82 92.9385L1007.77 90.1151C1007.77 90.1151 1007.15 87.0945 1007.46 85.975C1007.78 84.8555 1003.89 86.8215 1003.89 86.8215H1003.88Z" fill="#FFB27D"/>
<path d="M1003.87 87.1327C1003.87 87.1327 1004.55 88.7663 1005.82 88.7243C1007.1 88.6823 1007.38 87.2323 1007.38 87.2323L1003.87 87.1318V87.1327Z" fill="#ED985F"/>
<path d="M1003.11 85.8113C1003.11 85.8113 1002.69 83.7486 1002.4 83.1249C1002.11 82.5013 1001.86 79.7126 1005.03 79.5528C1005.03 79.5528 1006.25 79.6916 1006.92 79.2798C1006.92 79.2798 1006.92 79.6889 1006.75 79.8341C1006.75 79.8341 1007.85 79.5647 1008.71 80.5225C1009.58 81.4804 1008.16 84.8544 1008.23 85.6479L1003.11 85.8123L1003.11 85.8113Z" fill="#2C3A64"/>
<path d="M1005.68 88.0922C1004.75 88.0803 1003.05 86.8521 1003.05 85.3227L1003.04 82.9348C1003.03 82.376 1003.42 81.9167 1003.89 81.9149L1007.4 81.8984C1007.88 81.8966 1008.26 82.3514 1008.27 82.9102L1008.28 85.1629C1008.28 86.7672 1006.73 88.1058 1005.67 88.0922H1005.68Z" fill="#FFB27D"/>
<path d="M1003.04 84.2099C1003.04 84.2099 1003.04 82.7754 1004.17 82.5489C1005.29 82.3234 1007.82 83.231 1008.18 82.1837C1008.53 81.1354 1003.29 81.1783 1003.03 81.8467C1002.77 82.5151 1003.04 84.2099 1003.04 84.2099H1003.04Z" fill="#2C3A64"/>
<path d="M999.431 108.609C999.431 108.609 999.841 119.658 999.333 125.966C998.825 132.274 999.407 141.045 999.407 141.045C999.407 141.045 1001.13 141.991 1002.99 141.029C1002.99 141.029 1004.97 128.839 1004.95 125.94C1004.92 122.852 1007.09 109.055 1007.09 109.055L999.432 108.609H999.431Z" fill="#2B478B"/>
<path d="M1012.28 140.985C1012.28 140.985 1010.57 141.947 1008.7 141.001C1008.7 141.001 1006.61 128.83 1006.61 125.931C1006.61 124.627 1006.19 121.417 1005.72 118.143C1005.07 113.665 1004.3 109.069 1004.3 109.069L1012.26 108.531C1012.26 108.531 1011.65 119.603 1012.22 125.906C1012.78 132.208 1012.28 140.985 1012.28 140.985H1012.28Z" fill="#2B478B"/>
<path d="M1006.61 125.931C1006.61 124.627 1006.2 121.417 1005.72 118.143C1006.19 116.185 1007.34 114.295 1007.34 114.295C1008.83 118.437 1006.61 125.931 1006.61 125.931Z" fill="#233862"/>
<path d="M1019.17 100.516C1016.36 93.7098 1011.38 90.218 1007.77 90.1148C1006.99 91.1786 1006.42 91.427 1005.69 91.7192C1004.53 91.5621 1003.54 90.1212 1003.54 90.0874C1002.27 90.2244 996.546 90.8992 992.696 100.418C992.396 101.16 992.346 102.921 993.736 104.65C994.725 105.879 996.273 107.481 998.671 109.361C998.671 109.361 998.894 108.874 999.096 108.087C999.096 108.087 997.663 105.309 996.799 103.428C996.38 102.512 995.889 101.464 999 99.3081C999.088 101.7 999.483 104.532 999.19 107.094C998.8 110.511 999.488 110.447 999.488 110.447C999.488 110.447 1000.41 110.625 1001.71 110.792C1002.87 110.943 1004.34 111.086 1005.69 111.079C1008.78 111.065 1012.17 110.387 1012.17 110.387C1012.54 110.39 1012.69 109.542 1012.71 108.287C1012.89 108.915 1013.07 109.292 1013.07 109.292C1015.45 107.39 1016.98 105.774 1017.96 104.536C1019.34 102.794 1019.47 101.255 1019.17 100.514L1019.17 100.516ZM1014.89 103.344C1014.2 104.987 1013.02 107.26 1012.71 107.87C1012.71 105.824 1012.46 102.938 1012.34 100.798C1012.3 100.093 1012.26 99.4387 1012.22 98.8287C1014.12 100.356 1015.86 101.009 1014.89 103.344Z" fill="#F9DDBF"/>
<path d="M1003.65 89.5376C1003.65 89.5376 1003.07 89.7303 1002.97 90.1631C1002.97 90.1631 1004.7 91.6999 1005.69 91.719L1003.65 89.5376Z" fill="#F99746"/>
<path d="M1005.7 91.719L1007.65 89.439C1007.65 89.439 1008.26 89.7056 1008.25 90.1475C1008.25 90.1475 1006.54 91.7747 1005.7 91.719Z" fill="#F99746"/>
<path d="M1005.34 91.5537C1005.34 91.5537 1003.9 104.584 1004.43 106.169C1004.7 106.985 1005.06 107.69 1005.35 108.183C1005.56 108.537 1006.07 108.533 1006.27 108.176C1006.67 107.479 1007.18 106.47 1007.18 105.959C1007.17 105.132 1005.98 91.54 1005.98 91.54L1005.34 91.5546V91.5537Z" fill="#F99746"/>
<path d="M1004.95 90.9173C1004.95 90.9173 1005.85 90.8214 1006.4 90.8753C1006.51 90.8863 1006.57 91.0059 1006.52 91.1027C1006.37 91.3839 1006.05 91.8706 1005.72 91.8724C1005.26 91.8743 1004.54 90.9511 1004.95 90.9173H1004.95Z" fill="#F99746"/>
<path d="M1004.94 86.5583C1004.94 86.5583 1005.23 86.9482 1005.73 86.9318C1006.23 86.9154 1006.46 86.551 1006.46 86.551C1006.46 86.551 1005.62 86.415 1004.94 86.5583Z" fill="white"/>
<path d="M998.813 108.227C998.813 108.227 999.917 107.214 1000.63 107.689C1001.37 108.191 1001.71 108.935 1001.29 108.989C1000.88 109.041 999.604 108.896 999.485 109.089C999.366 109.282 998.833 109.653 998.669 109.362C998.505 109.07 998.813 108.227 998.813 108.227H998.813Z" fill="#FFB27D"/>
<path d="M999.095 108.088C998.893 108.875 998.67 109.362 998.67 109.362C996.271 107.482 994.724 105.88 993.734 104.651C994.476 104.592 995.556 104.32 996.798 103.429C997.662 105.31 999.095 108.088 999.095 108.088Z" fill="#FFB27D"/>
<path d="M1012.92 108.16C1012.92 108.16 1011.97 107.282 1011.14 107.876C1010.68 108.207 1010.36 109.079 1010.76 109.005C1011.17 108.932 1012.13 108.837 1012.25 109.028C1012.37 109.22 1012.81 109.502 1013.07 109.292C1013.39 109.037 1012.92 108.159 1012.92 108.159V108.16Z" fill="#FFB27D"/>
<path d="M1012.63 108.024C1012.84 108.808 1013.07 109.293 1013.07 109.293C1015.45 107.391 1016.98 105.775 1017.96 104.537C1017.22 104.485 1016.14 104.223 1014.89 103.344C1014.04 105.233 1012.63 108.024 1012.63 108.024H1012.63Z" fill="#FFB27D"/>
<path d="M986.49 143.929L978.07 143.968C977.616 143.585 978.376 142.705 979.174 142.643C979.52 142.615 979.958 142.686 980.46 142.79C980.568 141.239 981.198 134.266 983.693 134.535C986.498 134.835 983.707 137.604 982.921 139.239C982.34 140.45 981.729 142.187 981.449 143.006C981.677 143.054 981.914 143.102 982.154 143.146C982.52 141.994 983.885 138.121 985.645 138.338C987.711 138.592 986.889 140.147 985.429 141.074C984.359 141.756 983.045 142.724 982.42 143.191C982.951 143.276 983.506 143.332 984.067 143.316C985.509 143.275 986.215 143.7 986.489 143.929H986.49Z" fill="#D2E0FF"/>
<path d="M898.762 142.34C898.625 142.429 898.486 142.514 898.345 142.597C898.297 142.626 898.249 142.653 898.201 142.681C898.091 142.743 897.981 142.803 897.871 142.861C892.574 145.641 885.989 143.762 882.95 138.508C880.051 133.495 881.397 127.169 885.879 123.757C886.236 123.485 886.614 123.231 887.011 122.998C887.153 122.914 887.297 122.835 887.441 122.758C887.582 122.683 887.723 122.612 887.865 122.544C888.301 122.336 888.745 122.159 889.194 122.011C889.861 121.791 890.54 121.638 891.222 121.548C893.336 121.271 895.479 121.61 897.391 122.498C899.422 123.438 901.194 124.996 902.405 127.089C905.452 132.359 903.808 139.08 898.761 142.341L898.762 142.34Z" fill="#F78248"/>
<path d="M884.131 92.9094C884.164 92.7706 881.139 94.3046 880.986 94.4772C879.571 96.0733 879.986 98.1461 880.8 98.1616C881.322 98.1717 881.225 99.0465 881.225 99.0465L887.028 96.5408C887.028 96.5408 886.31 92.4309 884.131 92.9094Z" fill="#2C3A64"/>
<path d="M884.845 93.2269C884.845 93.2269 883.391 90.6117 880.309 92.1074C878.68 92.8982 878.566 96.3818 877.923 96.9798C876.482 98.3194 875.886 98.8097 876.151 101.067C876.416 103.325 883.417 106.124 883.018 107.994C883.018 107.994 885.873 104.425 883.564 102.228C882.696 101.402 881.731 99.3978 881.821 99.0435C881.912 98.6901 884.846 93.2269 884.846 93.2269H884.845Z" fill="#2C3A64"/>
<path d="M882.597 103.974C882.198 102.082 879.758 101.507 878.612 103.058C878.407 103.338 878.262 103.667 878.216 104.056C877.963 106.206 881.414 114.945 881.906 115.734C882.803 117.173 888.061 122.095 888.061 122.095L889.024 121.502C889.024 121.502 885.281 115.184 884.702 114.594C884.034 113.912 883.355 107.566 882.597 103.974Z" fill="#ED985F"/>
<path d="M887.691 121.511C887.691 121.511 889.095 120.572 889.629 120.629C890.163 120.687 891.708 121.127 891.728 121.355C891.748 121.584 890.011 121.734 889.894 121.86C889.778 121.986 888.601 122.785 888.172 122.538C887.743 122.291 887.691 121.51 887.691 121.51V121.511Z" fill="#ED985F"/>
<path d="M877.965 142.607L876.706 142.426C876.706 142.426 872.46 139.058 871.8 132.74C871.733 132.098 871.717 131.445 871.761 130.786C871.766 130.711 871.757 130.635 871.716 130.571C871.716 130.571 871.716 130.571 871.714 130.569C871.577 130.361 871.238 129.839 870.778 129.095C870.325 128.363 869.549 126.979 868.695 125.425C867.157 122.628 865.365 119.282 864.75 118.216C862.793 114.82 863.719 112.527 863.719 112.527C863.719 112.527 869.132 111.962 870.61 110.647L871.148 111.475C871.148 111.475 872.346 116.702 872.29 116.727C872.349 116.905 872.408 117.086 872.469 117.269C873.408 120.144 874.49 123.738 875.084 126.666C875.417 128.314 875.598 129.75 875.509 130.73C875.479 131.066 875.52 131.582 875.611 132.218C876.152 135.971 877.964 142.607 877.964 142.607H877.965Z" fill="#2B478B"/>
<path d="M880.609 144.199L875.359 144.223C875.359 144.223 875.229 143.418 875.501 142.805C875.761 142.217 876.136 142.197 875.542 141.279C875.877 141.624 876.951 141.762 877.709 141.656C877.803 141.807 878.314 142.823 878.626 143.047C878.97 143.294 880.499 143.198 880.61 144.199H880.609Z" fill="#6980E2"/>
<path d="M872.469 117.269C872.022 119.82 870.958 124.065 868.695 125.425C867.157 122.628 865.365 119.282 864.75 118.216C862.793 114.82 863.719 112.527 863.719 112.527C863.719 112.527 869.132 111.962 870.61 110.647L871.148 111.475C871.148 111.475 872.346 116.702 872.29 116.727C872.349 116.905 872.408 117.086 872.469 117.269Z" fill="#233862"/>
<path d="M882.032 102.803C882.032 102.803 882.75 103.551 882.833 105.18C882.833 105.18 881.953 107.938 879.188 108.38C879.188 108.38 881.351 102.804 882.032 102.802V102.803Z" fill="#ED7D2B"/>
<path d="M868.767 112.896L868.78 111.907C866.825 112.165 862.024 109.583 862.024 109.583C862.024 109.583 859.984 110.964 859.722 114.882C859.594 116.794 858.766 124.883 858.681 127.297C858.651 128.172 858.641 128.796 858.639 129.046C858.639 129.047 858.639 129.048 858.639 129.049C858.639 129.124 858.602 129.192 858.556 129.252C858.154 129.773 857.805 130.323 857.504 130.894C854.545 136.503 856.141 144.1 856.141 144.1L856.833 143.919C856.833 143.919 859.321 136.025 860.955 132.608C861.233 132.028 861.485 131.577 861.697 131.316C862.314 130.554 862.962 129.262 863.599 127.708C864.805 124.77 865.97 120.894 866.8 117.894C866.86 117.905 868.768 112.896 868.768 112.896H868.767Z" fill="#2B478B"/>
<path d="M880.184 106.241C876.983 105.516 879.005 100.979 879.191 101.058C879.633 100.965 880.603 100.177 881.467 98.6416L881.585 98.7439L883.557 100.47C883.557 100.47 883.106 101.146 882.727 101.809C882.43 102.328 882.179 102.839 882.22 103.014C882.379 103.138 881.037 106.434 880.183 106.241H880.184Z" fill="#FFB27D"/>
<path d="M883.557 100.47C883.557 100.47 883.106 101.146 882.727 101.809C881.502 101.057 881.494 99.5331 881.584 98.7441L883.556 100.47H883.557Z" fill="#ED985F"/>
<path d="M883.614 101.339C883.614 101.339 880.641 99.6909 881.689 97.8409C882.736 95.9918 883.058 94.5336 885 95.5079C886.943 96.4822 886.908 97.398 886.708 98.1011C886.508 98.8042 884.414 101.721 883.615 101.339H883.614Z" fill="#FFB27D"/>
<path d="M887.205 97.0229C887.065 96.2047 886.652 96.128 886.364 96.1846C885.261 94.3657 883.475 95.0852 883.475 95.0852C882.525 96.2978 881.145 96.5106 881.145 96.5106C881.145 96.5106 881.492 97.1543 882.911 97.547C883.344 97.6666 883.836 97.5908 884.31 97.4283C883.329 97.9853 882.301 98.2017 882.301 98.2017C884.17 98.3651 885.94 96.6357 886.123 96.4512C886.21 96.7179 886.364 97.2749 886.276 97.684C886.155 98.2391 885.671 99.2463 885.97 99.3751C885.97 99.3751 887.415 98.251 887.206 97.0238L887.205 97.0229Z" fill="#2C3A64"/>
<path d="M860.316 144.292L855.066 144.317C855.066 144.317 854.937 143.512 855.208 142.899C855.468 142.311 855.878 142.043 855.776 141.333C856.111 141.677 856.657 142.063 857.415 141.956C857.509 142.107 858.02 142.917 858.332 143.141C858.676 143.388 860.205 143.292 860.316 144.292Z" fill="#6980E2"/>
<path d="M880.578 109.829C879.904 110.07 878.956 110.204 877.987 110.314C876.607 110.472 875.182 110.583 874.436 110.887C874.164 110.997 873.983 111.133 873.927 111.307C873.608 112.289 872.189 113.808 872.189 113.808C863.045 113.432 862.023 109.584 862.023 109.584C868.141 102.35 878.445 100.504 878.445 100.504C878.445 100.504 880.325 99.9404 880.694 101.301C881.122 102.882 882.26 102.767 882.26 102.767C882.26 102.767 882.563 109.121 880.578 109.83V109.829Z" fill="#F99746"/>
<path d="M877.987 110.314C876.607 110.472 875.182 110.582 874.436 110.887C874.11 106.294 876.245 102.83 876.245 102.83C876.245 102.83 877.676 108.578 877.986 110.315L877.987 110.314Z" fill="#ED7D2B"/>
<path d="M879.368 101.926C879.368 101.926 875.91 102.287 875.643 104.553C875.376 106.82 879.013 116.028 879.531 116.86C880.476 118.377 886.017 123.564 886.017 123.564L887.032 122.938C887.032 122.938 883.087 116.281 882.478 115.659C881.522 114.683 880.543 102.706 879.368 101.927V101.926Z" fill="#FFB27D"/>
<path d="M875.747 105.915C875.756 105.966 878.945 106.947 880.989 105.89C880.989 105.89 881.406 101.125 878.961 101.395C876.516 101.665 875.071 102.448 875.015 103.628C874.958 104.808 875.747 105.915 875.747 105.915Z" fill="#F99746"/>
<path d="M885.699 122.902C885.699 122.902 886.935 121.748 887.471 121.719C888.007 121.689 889.602 121.872 889.658 122.095C889.714 122.317 888.023 122.748 887.929 122.892C887.835 123.034 886.8 124.014 886.338 123.84C885.875 123.666 885.699 122.903 885.699 122.903V122.902Z" fill="#FFB27D"/>
<path d="M888.304 138.083C888.067 137.878 887.901 137.597 887.839 137.281L886.53 130.536C886.382 129.77 886.877 129.027 887.639 128.877C888.399 128.727 889.137 129.227 889.286 129.994L890.249 134.959L899.604 130.54C900.305 130.208 901.142 130.513 901.471 131.22C901.8 131.927 901.498 132.77 900.796 133.101L889.812 138.29C889.421 138.475 888.967 138.468 888.581 138.27C888.481 138.219 888.387 138.156 888.304 138.083Z" fill="white"/>
</g>
</g>
<defs>
<linearGradient id="paint0_linear_3305_1627" x1="-14.2642" y1="143.23" x2="43.7439" y2="161.927" gradientUnits="userSpaceOnUse">
<stop offset="0.21" stop-color="#CCD9E5"/>
<stop offset="1" stop-color="#AAD5E8"/>
</linearGradient>
<linearGradient id="paint1_linear_3305_1627" x1="660.911" y1="-10.0012" x2="628.758" y2="41.0726" gradientUnits="userSpaceOnUse">
<stop offset="0.21" stop-color="#CCD9E5"/>
<stop offset="1" stop-color="#AAD5E8"/>
</linearGradient>
<linearGradient id="paint2_linear_3305_1627" x1="900.15" y1="129.929" x2="831.808" y2="134.71" gradientUnits="userSpaceOnUse">
<stop offset="0.03" stop-color="#57DACF"/>
<stop offset="1" stop-color="#1EA59A"/>
</linearGradient>
<linearGradient id="paint3_linear_3305_1627" x1="894.792" y1="136.353" x2="836.273" y2="104.014" gradientUnits="userSpaceOnUse">
<stop offset="0.03" stop-color="#56D9CE"/>
<stop offset="1" stop-color="#179B90"/>
</linearGradient>
<linearGradient id="paint4_linear_3305_1627" x1="892.237" y1="123.276" x2="854.704" y2="84.1009" gradientUnits="userSpaceOnUse">
<stop offset="0.03" stop-color="#58DBD0"/>
<stop offset="1" stop-color="#1DA499"/>
</linearGradient>
<linearGradient id="paint5_linear_3305_1627" x1="1004.7" y1="116.841" x2="1073.54" y2="117.176" gradientUnits="userSpaceOnUse">
<stop offset="0.03" stop-color="#4AE7DA"/>
<stop offset="1" stop-color="#0F9085"/>
</linearGradient>
<linearGradient id="paint6_linear_3305_1627" x1="1011.29" y1="125.26" x2="1068.54" y2="79.5461" gradientUnits="userSpaceOnUse">
<stop offset="0.03" stop-color="#31C2B6"/>
<stop offset="1" stop-color="#189D92"/>
</linearGradient>
<linearGradient id="paint7_linear_3305_1627" x1="1024.64" y1="150.152" x2="1043.14" y2="122.261" gradientUnits="userSpaceOnUse">
<stop offset="0.03" stop-color="#7EFFF5"/>
<stop offset="1" stop-color="#189D91"/>
</linearGradient>
<clipPath id="clip0_3305_1627">
<rect width="1120" height="160" rx="15" fill="white"/>
</clipPath>
<clipPath id="clip1_3305_1627">
<rect width="243" height="118" fill="white" transform="translate(832 27)"/>
</clipPath>
</defs>
</svg>
