<svg width="1120" height="160" viewBox="0 0 1120 160" fill="none" xmlns="http://www.w3.org/2000/svg">
<g clip-path="url(#clip0_2905_1362)">
<rect width="1120" height="160" rx="15" fill="black"/>
<path d="M40.3511 134.609L35.985 133.464L33.816 134.157C31.9569 131.23 30.1165 129.698 27.2621 127.805L27.9663 124.814L26.6612 120.484L22.342 118.702L16.5299 123.078C13.9196 122.57 11.5159 122.265 6.91503 122.459L5.5911 119.902L2.64278 118L-2.50266 119.902L-4.8125 122.182L-0.0801754 120.437L2.68974 122.339L4.58642 126.06C7.8258 125.571 11.0746 125.728 14.1543 126.457L15.9665 123.512L18.8303 121.767L23.4312 123.816L24.0227 127.085L22.9147 130.381C25.5908 132.264 27.91 134.674 29.6846 137.545L33.1024 136.733L36.2948 137.527L38.0694 142.18L36.2291 144.866L33.0554 146.445C33.6 149.713 33.4592 152.991 32.6986 156.102L36.83 158.558L39.2713 162.436L36.5202 165.898L42.2478 158.697L39.6375 153.905L38.1352 153.305C38.276 149.492 38.3981 147.581 37.8816 144.22L40.4731 142.226L42.3886 139.041L40.3605 134.618L40.3511 134.609Z" fill="#A4BBDD" fill-opacity="0.25"/>
<path d="M33.093 136.714L29.6752 137.527C27.9006 134.665 25.5814 132.246 22.9054 130.362L24.0134 127.066L23.4218 123.798L18.821 121.748L15.9571 123.493L14.145 126.438C11.0652 125.709 7.81643 125.561 4.57705 126.042L2.68038 122.321L-0.0895405 120.419L-4.82187 122.164L-5.60118 125.386L-4.62466 129.31C-7.65748 131.11 -10.202 133.474 -12.1551 136.216L-15.5916 135.099L-18.9155 135.68L-21 140.204L-19.2254 143.02L-16.0799 144.894C-16.8123 148.015 -16.9249 151.301 -16.3428 154.57L-19.0188 155.899L-20.8591 158.586L-19.0845 163.239L-15.8921 164.033L-12.9626 163.341C-10.9532 166.535 -8.27718 169.166 -5.17864 171.114L-6.11759 173.893L-5.52608 177.162L-0.925194 179.211L1.9386 177.475L3.7132 174.586C6.61456 175.121 9.6474 175.149 12.6614 174.623L14.5957 178.399L17.3656 180.301L22.0979 178.556L22.8772 175.334L21.8256 171.124C24.4734 169.462 26.7269 167.357 28.5203 164.947L33.1869 166.47L36.5108 165.889L39.2619 162.427L36.8206 158.549L32.6893 156.093C33.4404 152.982 33.5907 149.704 33.0461 146.436L36.2197 144.857L38.0601 142.171L36.2854 137.517L33.093 136.723V136.714ZM12.6051 160.857C6.71785 163.036 0.154591 160.1 -2.05195 154.321C-4.26787 148.532 -1.28202 142.078 4.59582 139.909C10.483 137.73 17.0463 140.666 19.2529 146.445C21.4688 152.234 18.4829 158.687 12.6051 160.857Z" fill="url(#paint0_linear_2905_1362)" fill-opacity="0.1"/>
<path d="M655.231 44.1522L657.484 40.2973L657.366 38.0559C660.719 37.0458 662.699 35.6927 665.295 33.4686L668.049 34.9124L672.636 34.7922L675.502 31.1468L672.712 24.4882C673.886 22.1379 674.807 19.9313 675.807 15.5068L678.66 14.9099L681.289 12.599L680.755 7.21463L679.115 4.42829L679.602 9.37926L677.019 11.5206L672.877 12.3609C672.519 15.5675 671.524 18.6157 670.011 21.355L672.432 23.8403L673.403 27.0147L670.201 30.8586L666.841 30.5751L663.893 28.6686C661.352 30.7254 658.387 32.3068 655.11 33.2509L655.023 36.7107L653.417 39.5405L648.392 40.0234L646.232 37.5784L645.504 34.1523C642.156 33.8242 638.976 32.842 636.119 31.3136L632.64 34.606L628.203 35.9235L625.518 32.4117L631.102 39.7212L636.48 38.4796L637.458 37.2066C641.163 38.3273 643.007 38.938 646.438 39.3168L647.724 42.2969L650.354 44.9424L655.219 44.1587L655.231 44.1522Z" fill="#A4BBDD" fill-opacity="0.25"/>
<path d="M655.048 36.7111L655.135 33.2513C658.403 32.3048 661.377 30.7258 663.918 28.669L666.866 30.5755L670.226 30.8589L673.428 27.0151L672.457 23.8406L670.036 21.3554C671.549 18.616 672.534 15.5654 672.902 12.3612L677.044 11.5209L679.627 9.37959L679.14 4.42862L676.179 2.85372L672.076 2.76661C671.094 -0.582859 669.434 -3.61388 667.248 -6.18045L669.234 -9.1587L669.523 -12.4695L665.623 -15.6222L662.401 -14.6638L659.748 -12.1582C656.875 -13.6622 653.679 -14.62 650.321 -14.9124L649.709 -17.8008L647.549 -20.2459L642.523 -19.7629L640.918 -16.9332L640.839 -13.9686C637.184 -12.885 633.909 -11.0217 631.196 -8.57991L628.712 -10.1919L625.351 -10.4754L622.149 -6.63147L623.111 -3.45943L625.488 -1.02426C624.211 1.59567 623.399 4.47204 623.136 7.4739L618.929 8.3356L616.346 10.4769L616.834 15.4279L619.794 17.0028L624.197 17.0925C625.143 20.0402 626.625 22.7275 628.526 25.0563L625.823 29.0989L625.534 32.4097L628.219 35.9214L632.656 34.604L636.135 31.3116C638.994 32.831 642.172 33.8222 645.52 34.1503L646.248 37.5763L648.408 40.0214L653.433 39.5384L655.039 36.7087L655.048 36.7111ZM636.659 10.9831C636.044 4.82177 640.624 -0.658514 646.867 -1.26058C653.121 -1.86918 658.681 2.63997 659.289 8.78999C659.903 14.9513 655.323 20.4316 649.081 21.0337C642.827 21.6423 637.266 17.1331 636.659 10.9831Z" fill="url(#paint1_linear_2905_1362)" fill-opacity="0.1"/>
<path d="M8.992 92L5.408 87.6L3.904 89.168V92H1.328V80.8H3.904V86.032L8.864 80.8H11.744L7.104 85.792L12.016 92H8.992ZM22.0873 80.8L17.7353 88.032V92H15.1432V88L10.8072 80.8H13.5593L16.5513 85.776L19.5433 80.8H22.0873ZM28.0474 92.192C24.5754 92.192 21.9834 89.776 21.9834 86.4C21.9834 83.024 24.5754 80.608 28.0634 80.608C29.9994 80.608 31.6154 81.312 32.6714 82.592L31.0074 84.128C30.2554 83.264 29.3114 82.816 28.1914 82.816C26.0954 82.816 24.6074 84.288 24.6074 86.4C24.6074 88.512 26.0954 89.984 28.1914 89.984C29.3114 89.984 30.2554 89.536 31.0074 88.656L32.6714 90.192C31.6154 91.488 29.9994 92.192 28.0474 92.192ZM47.145 80.8H49.721L44.873 92H42.313L37.481 80.8H40.281L43.689 88.8L47.145 80.8ZM58.2715 87.728C58.2715 87.92 58.2395 88.192 58.2235 88.4H51.7115C51.9515 89.472 52.8635 90.128 54.1755 90.128C55.0875 90.128 55.7435 89.856 56.3355 89.296L57.6635 90.736C56.8635 91.648 55.6635 92.128 54.1115 92.128C51.1355 92.128 49.1995 90.256 49.1995 87.696C49.1995 85.12 51.1675 83.264 53.7915 83.264C56.3195 83.264 58.2715 84.96 58.2715 87.728ZM53.8075 85.152C52.6715 85.152 51.8555 85.84 51.6795 86.944H55.9195C55.7435 85.856 54.9275 85.152 53.8075 85.152ZM62.3173 84.528C62.9253 83.696 63.9493 83.264 65.2773 83.264V85.568C65.0693 85.552 64.9093 85.536 64.7173 85.536C63.3413 85.536 62.4293 86.288 62.4293 87.936V92H59.9333V83.392H62.3173V84.528ZM68.0094 82.192C67.0814 82.192 66.4574 81.584 66.4574 80.8C66.4574 80.016 67.0814 79.408 68.0094 79.408C68.9374 79.408 69.5614 79.984 69.5614 80.752C69.5614 81.584 68.9374 82.192 68.0094 82.192ZM66.7614 92V83.392H69.2574V92H66.7614ZM80.2939 82.192C79.3659 82.192 78.7419 81.584 78.7419 80.8C78.7419 80.016 79.3659 79.408 80.2939 79.408C81.2219 79.408 81.8459 79.984 81.8459 80.752C81.8459 81.584 81.2219 82.192 80.2939 82.192ZM75.4459 81.968C74.7099 81.968 74.3099 82.368 74.3099 83.216V83.584H76.5179V85.504H74.3739V92H71.8779V85.504H70.5499V83.584H71.8779V83.2C71.8779 81.264 73.0619 80 75.2059 80C75.9099 80 76.6459 80.144 77.1099 80.464L76.4539 82.272C76.1819 82.08 75.8299 81.968 75.4459 81.968ZM79.0459 92V83.392H81.5419V92H79.0459ZM88.0151 92.128C85.2151 92.128 83.2151 90.288 83.2151 87.696C83.2151 85.104 85.2151 83.264 88.0151 83.264C89.8231 83.264 91.2471 84.048 91.8711 85.456L89.9351 86.496C89.4711 85.68 88.7831 85.312 87.9991 85.312C86.7351 85.312 85.7431 86.192 85.7431 87.696C85.7431 89.2 86.7351 90.08 87.9991 90.08C88.7831 90.08 89.4711 89.728 89.9351 88.896L91.8711 89.952C91.2471 91.328 89.8231 92.128 88.0151 92.128ZM96.7803 83.264C99.4043 83.264 100.924 84.48 100.924 87.088V92H98.5883V90.928C98.1243 91.712 97.2283 92.128 95.9643 92.128C93.9483 92.128 92.7483 91.008 92.7483 89.52C92.7483 88 93.8203 86.944 96.4443 86.944H98.4283C98.4283 85.872 97.7883 85.248 96.4443 85.248C95.5323 85.248 94.5883 85.552 93.9643 86.048L93.0683 84.304C94.0123 83.632 95.4043 83.264 96.7803 83.264ZM96.5883 90.448C97.4203 90.448 98.1403 90.064 98.4283 89.28V88.4H96.7163C95.5483 88.4 95.1803 88.832 95.1803 89.408C95.1803 90.032 95.7083 90.448 96.5883 90.448ZM108.063 89.824L108.735 91.584C108.223 91.952 107.471 92.128 106.703 92.128C104.671 92.128 103.487 91.088 103.487 89.04V85.504H102.159V83.584H103.487V81.488H105.983V83.584H108.127V85.504H105.983V89.008C105.983 89.744 106.383 90.144 107.055 90.144C107.423 90.144 107.791 90.032 108.063 89.824ZM111.384 82.192C110.456 82.192 109.832 81.584 109.832 80.8C109.832 80.016 110.456 79.408 111.384 79.408C112.312 79.408 112.936 79.984 112.936 80.752C112.936 81.584 112.312 82.192 111.384 82.192ZM110.136 92V83.392H112.632V92H110.136ZM119.045 92.128C116.309 92.128 114.309 90.288 114.309 87.696C114.309 85.104 116.309 83.264 119.045 83.264C121.781 83.264 123.765 85.104 123.765 87.696C123.765 90.288 121.781 92.128 119.045 92.128ZM119.045 90.08C120.293 90.08 121.237 89.184 121.237 87.696C121.237 86.208 120.293 85.312 119.045 85.312C117.797 85.312 116.837 86.208 116.837 87.696C116.837 89.184 117.797 90.08 119.045 90.08ZM130.665 83.264C132.697 83.264 134.233 84.448 134.233 87.072V92H131.737V87.456C131.737 86.064 131.097 85.424 129.993 85.424C128.793 85.424 127.929 86.16 127.929 87.744V92H125.433V83.392H127.817V84.4C128.489 83.664 129.497 83.264 130.665 83.264Z" fill="white"/>
<path d="M11.06 57.28C5.684 57.28 2.464 54.172 2.464 48.46V37.4H6.104V48.32C6.104 52.352 7.924 54.088 11.088 54.088C14.252 54.088 16.044 52.352 16.044 48.32V37.4H19.628V48.46C19.628 54.172 16.408 57.28 11.06 57.28ZM32.6778 41.88C37.0458 41.88 40.2658 44.904 40.2658 49.524C40.2658 54.172 37.0458 57.196 32.6778 57.196C30.7738 57.196 29.0938 56.552 27.8898 55.18V62.432H24.3898V42.048H27.7218V44.008C28.8978 42.58 30.6338 41.88 32.6778 41.88ZM32.2858 54.2C34.8058 54.2 36.7098 52.38 36.7098 49.524C36.7098 46.668 34.8058 44.848 32.2858 44.848C29.7658 44.848 27.8338 46.668 27.8338 49.524C27.8338 52.38 29.7658 54.2 32.2858 54.2ZM54.7291 36.224H58.2291V57H54.8691V55.068C53.6931 56.496 51.9571 57.196 49.9131 57.196C45.5731 57.196 42.3531 54.172 42.3531 49.524C42.3531 44.876 45.5731 41.88 49.9131 41.88C51.8451 41.88 53.5531 42.524 54.7291 43.896V36.224ZM50.3331 54.2C52.8531 54.2 54.7851 52.38 54.7851 49.524C54.7851 46.668 52.8531 44.848 50.3331 44.848C47.8131 44.848 45.8811 46.668 45.8811 49.524C45.8811 52.38 47.8131 54.2 50.3331 54.2ZM68.5197 41.88C72.8317 41.88 75.3237 43.924 75.3237 48.236V57H72.0197V55.18C71.1797 56.468 69.5557 57.196 67.3157 57.196C63.8997 57.196 61.7437 55.32 61.7437 52.716C61.7437 50.224 63.4237 48.264 67.9597 48.264H71.8237V48.04C71.8237 45.996 70.5917 44.792 68.0997 44.792C66.4197 44.792 64.6837 45.352 63.5637 46.276L62.1917 43.728C63.7877 42.496 66.1117 41.88 68.5197 41.88ZM68.0437 54.648C69.7517 54.648 71.2357 53.864 71.8237 52.324V50.588H68.2117C65.8317 50.588 65.1877 51.484 65.1877 52.576C65.1877 53.836 66.2517 54.648 68.0437 54.648ZM87.8235 53.696L88.8035 56.188C87.9635 56.86 86.7035 57.196 85.4435 57.196C82.1675 57.196 80.2915 55.46 80.2915 52.156V44.96H77.8275V42.16H80.2915V38.744H83.7915V42.16H87.7955V44.96H83.7915V52.072C83.7915 53.528 84.5195 54.312 85.8635 54.312C86.5915 54.312 87.2915 54.116 87.8235 53.696ZM105.247 49.608C105.247 49.888 105.219 50.308 105.191 50.644H93.4585C93.8785 52.828 95.6985 54.228 98.3025 54.228C99.9825 54.228 101.299 53.696 102.363 52.604L104.239 54.76C102.895 56.356 100.795 57.196 98.2185 57.196C93.2065 57.196 89.9585 53.976 89.9585 49.524C89.9585 45.072 93.2345 41.88 97.6865 41.88C102.055 41.88 105.247 44.932 105.247 49.608ZM97.6865 44.68C95.4185 44.68 93.7665 46.136 93.4305 48.32H101.915C101.635 46.164 99.9825 44.68 97.6865 44.68ZM116.683 57V37.4H120.323V57H116.683ZM136.432 36.224H139.932V57H136.572V55.068C135.396 56.496 133.66 57.196 131.616 57.196C127.276 57.196 124.056 54.172 124.056 49.524C124.056 44.876 127.276 41.88 131.616 41.88C133.548 41.88 135.256 42.524 136.432 43.896V36.224ZM132.036 54.2C134.556 54.2 136.488 52.38 136.488 49.524C136.488 46.668 134.556 44.848 132.036 44.848C129.516 44.848 127.584 46.668 127.584 49.524C127.584 52.38 129.516 54.2 132.036 54.2ZM158.567 49.608C158.567 49.888 158.539 50.308 158.511 50.644H146.779C147.199 52.828 149.019 54.228 151.623 54.228C153.303 54.228 154.619 53.696 155.683 52.604L157.559 54.76C156.215 56.356 154.115 57.196 151.539 57.196C146.527 57.196 143.279 53.976 143.279 49.524C143.279 45.072 146.555 41.88 151.007 41.88C155.375 41.88 158.567 44.932 158.567 49.608ZM151.007 44.68C148.739 44.68 147.087 46.136 146.751 48.32H155.235C154.955 46.164 153.303 44.68 151.007 44.68ZM170.413 41.88C173.997 41.88 176.657 43.924 176.657 48.432V57H173.157V48.88C173.157 46.22 171.841 44.932 169.601 44.932C167.109 44.932 165.429 46.444 165.429 49.44V57H161.929V42.048H165.261V43.98C166.409 42.608 168.229 41.88 170.413 41.88ZM189.105 53.696L190.085 56.188C189.245 56.86 187.985 57.196 186.725 57.196C183.449 57.196 181.573 55.46 181.573 52.156V44.96H179.109V42.16H181.573V38.744H185.073V42.16H189.077V44.96H185.073V52.072C185.073 53.528 185.801 54.312 187.145 54.312C187.873 54.312 188.573 54.116 189.105 53.696ZM194.728 39.584C193.44 39.584 192.488 38.66 192.488 37.484C192.488 36.308 193.44 35.384 194.728 35.384C196.016 35.384 196.968 36.252 196.968 37.4C196.968 38.632 196.044 39.584 194.728 39.584ZM192.964 57V42.048H196.464V57H192.964ZM209.066 53.696L210.046 56.188C209.206 56.86 207.946 57.196 206.686 57.196C203.41 57.196 201.534 55.46 201.534 52.156V44.96H199.07V42.16H201.534V38.744H205.034V42.16H209.038V44.96H205.034V52.072C205.034 53.528 205.762 54.312 207.106 54.312C207.834 54.312 208.534 54.116 209.066 53.696ZM223.291 42.048H226.651L219.651 58.204C218.279 61.592 216.375 62.628 213.883 62.628C212.399 62.628 210.831 62.124 209.879 61.256L211.279 58.68C211.951 59.324 212.903 59.716 213.855 59.716C215.087 59.716 215.815 59.128 216.487 57.644L216.739 57.056L210.215 42.048H213.855L218.559 53.108L223.291 42.048Z" fill="white"/>
<path d="M6.32 123.128C4.848 123.128 3.69067 122.707 2.848 121.864C2.00533 121.021 1.584 119.789 1.584 118.168V111.8H3.184V118.104C3.184 119.352 3.456 120.264 4 120.84C4.55467 121.416 5.33333 121.704 6.336 121.704C7.34933 121.704 8.128 121.416 8.672 120.84C9.22667 120.264 9.504 119.352 9.504 118.104V111.8H11.056V118.168C11.056 119.789 10.6347 121.021 9.792 121.864C8.96 122.707 7.80267 123.128 6.32 123.128ZM18.6083 123.096C17.9043 123.096 17.2589 122.936 16.6723 122.616C16.0963 122.285 15.6323 121.8 15.2803 121.16C14.9389 120.52 14.7682 119.72 14.7682 118.76C14.7682 117.8 14.9336 117 15.2643 116.36C15.6056 115.72 16.0643 115.24 16.6403 114.92C17.2269 114.6 17.8829 114.44 18.6083 114.44C19.4403 114.44 20.1763 114.621 20.8163 114.984C21.4563 115.347 21.9629 115.853 22.3363 116.504C22.7096 117.144 22.8963 117.896 22.8963 118.76C22.8963 119.624 22.7096 120.381 22.3363 121.032C21.9629 121.683 21.4563 122.189 20.8163 122.552C20.1763 122.915 19.4403 123.096 18.6083 123.096ZM14.1123 126.104V114.52H15.5843V116.808L15.4883 118.776L15.6483 120.744V126.104H14.1123ZM18.4803 121.752C19.0243 121.752 19.5096 121.629 19.9363 121.384C20.3736 121.139 20.7149 120.792 20.9603 120.344C21.2163 119.885 21.3443 119.357 21.3443 118.76C21.3443 118.152 21.2163 117.629 20.9603 117.192C20.7149 116.744 20.3736 116.397 19.9363 116.152C19.5096 115.907 19.0243 115.784 18.4803 115.784C17.9469 115.784 17.4616 115.907 17.0243 116.152C16.5976 116.397 16.2563 116.744 16.0003 117.192C15.7549 117.629 15.6323 118.152 15.6323 118.76C15.6323 119.357 15.7549 119.885 16.0003 120.344C16.2563 120.792 16.5976 121.139 17.0243 121.384C17.4616 121.629 17.9469 121.752 18.4803 121.752ZM28.5225 123.096C27.7012 123.096 26.9652 122.915 26.3145 122.552C25.6745 122.189 25.1678 121.683 24.7945 121.032C24.4212 120.381 24.2345 119.624 24.2345 118.76C24.2345 117.896 24.4212 117.144 24.7945 116.504C25.1678 115.853 25.6745 115.347 26.3145 114.984C26.9652 114.621 27.7012 114.44 28.5225 114.44C29.2372 114.44 29.8825 114.6 30.4585 114.92C31.0345 115.24 31.4932 115.72 31.8345 116.36C32.1865 117 32.3625 117.8 32.3625 118.76C32.3625 119.72 32.1918 120.52 31.8505 121.16C31.5198 121.8 31.0665 122.285 30.4905 122.616C29.9145 122.936 29.2585 123.096 28.5225 123.096ZM28.6505 121.752C29.1838 121.752 29.6638 121.629 30.0905 121.384C30.5278 121.139 30.8692 120.792 31.1145 120.344C31.3705 119.885 31.4985 119.357 31.4985 118.76C31.4985 118.152 31.3705 117.629 31.1145 117.192C30.8692 116.744 30.5278 116.397 30.0905 116.152C29.6638 115.907 29.1838 115.784 28.6505 115.784C28.1065 115.784 27.6212 115.907 27.1945 116.152C26.7678 116.397 26.4265 116.744 26.1705 117.192C25.9145 117.629 25.7865 118.152 25.7865 118.76C25.7865 119.357 25.9145 119.885 26.1705 120.344C26.4265 120.792 26.7678 121.139 27.1945 121.384C27.6212 121.629 28.1065 121.752 28.6505 121.752ZM31.5465 123V120.712L31.6425 118.744L31.4825 116.776V111.128H33.0185V123H31.5465ZM41.1888 123V121.208L41.1088 120.872V117.816C41.1088 117.165 40.9168 116.664 40.5328 116.312C40.1594 115.949 39.5941 115.768 38.8368 115.768C38.3354 115.768 37.8448 115.853 37.3648 116.024C36.8848 116.184 36.4794 116.403 36.1488 116.68L35.5088 115.528C35.9461 115.176 36.4688 114.909 37.0768 114.728C37.6954 114.536 38.3408 114.44 39.0128 114.44C40.1754 114.44 41.0714 114.723 41.7008 115.288C42.3301 115.853 42.6448 116.717 42.6448 117.88V123H41.1888ZM38.4048 123.096C37.7754 123.096 37.2208 122.989 36.7408 122.776C36.2714 122.563 35.9088 122.269 35.6528 121.896C35.3968 121.512 35.2688 121.08 35.2688 120.6C35.2688 120.141 35.3754 119.725 35.5888 119.352C35.8128 118.979 36.1701 118.68 36.6608 118.456C37.1621 118.232 37.8341 118.12 38.6768 118.12H41.3648V119.224H38.7408C37.9728 119.224 37.4554 119.352 37.1888 119.608C36.9221 119.864 36.7888 120.173 36.7888 120.536C36.7888 120.952 36.9541 121.288 37.2848 121.544C37.6154 121.789 38.0741 121.912 38.6608 121.912C39.2368 121.912 39.7381 121.784 40.1648 121.528C40.6021 121.272 40.9168 120.899 41.1088 120.408L41.4128 121.464C41.2101 121.965 40.8528 122.365 40.3408 122.664C39.8288 122.952 39.1834 123.096 38.4048 123.096ZM48.3993 123.096C47.5459 123.096 46.8846 122.867 46.4153 122.408C45.9459 121.949 45.7113 121.293 45.7113 120.44V112.664H47.2473V120.376C47.2473 120.835 47.3593 121.187 47.5833 121.432C47.8179 121.677 48.1486 121.8 48.5753 121.8C49.0553 121.8 49.4553 121.667 49.7753 121.4L50.2553 122.504C50.0206 122.707 49.7379 122.856 49.4073 122.952C49.0873 123.048 48.7513 123.096 48.3993 123.096ZM44.2713 115.784V114.52H49.6793V115.784H44.2713ZM55.607 123.096C54.7003 123.096 53.9003 122.909 53.207 122.536C52.5243 122.163 51.991 121.651 51.607 121C51.2337 120.349 51.047 119.603 51.047 118.76C51.047 117.917 51.2283 117.171 51.591 116.52C51.9643 115.869 52.471 115.363 53.111 115C53.7617 114.627 54.4923 114.44 55.303 114.44C56.1243 114.44 56.8497 114.621 57.479 114.984C58.1083 115.347 58.599 115.859 58.951 116.52C59.3137 117.171 59.495 117.933 59.495 118.808C59.495 118.872 59.4897 118.947 59.479 119.032C59.479 119.117 59.4737 119.197 59.463 119.272H52.247V118.168H58.663L58.039 118.552C58.0497 118.008 57.9377 117.523 57.703 117.096C57.4683 116.669 57.143 116.339 56.727 116.104C56.3217 115.859 55.847 115.736 55.303 115.736C54.7697 115.736 54.295 115.859 53.879 116.104C53.463 116.339 53.1377 116.675 52.903 117.112C52.6683 117.539 52.551 118.029 52.551 118.584V118.84C52.551 119.405 52.679 119.912 52.935 120.36C53.2017 120.797 53.5697 121.139 54.039 121.384C54.5083 121.629 55.047 121.752 55.655 121.752C56.1563 121.752 56.6097 121.667 57.015 121.496C57.431 121.325 57.7937 121.069 58.103 120.728L58.951 121.72C58.567 122.168 58.087 122.509 57.511 122.744C56.9457 122.979 56.311 123.096 55.607 123.096ZM66.2928 126.2C65.8874 126.2 65.4928 126.131 65.1088 125.992C64.7248 125.864 64.3941 125.672 64.1167 125.416L64.7728 124.264C64.9861 124.467 65.2208 124.621 65.4768 124.728C65.7328 124.835 66.0048 124.888 66.2928 124.888C66.6661 124.888 66.9754 124.792 67.2208 124.6C67.4661 124.408 67.6954 124.067 67.9088 123.576L68.4368 122.408L68.5968 122.216L71.9248 114.52H73.4288L69.3168 123.848C69.0714 124.445 68.7941 124.915 68.4848 125.256C68.1861 125.597 67.8554 125.837 67.4928 125.976C67.1301 126.125 66.7301 126.2 66.2928 126.2ZM68.3088 123.272L64.4367 114.52H66.0368L69.3328 122.072L68.3088 123.272ZM78.2599 123.096C77.4065 123.096 76.6492 122.909 75.9879 122.536C75.3265 122.163 74.8039 121.651 74.4199 121C74.0359 120.339 73.8439 119.592 73.8439 118.76C73.8439 117.917 74.0359 117.171 74.4199 116.52C74.8039 115.869 75.3265 115.363 75.9879 115C76.6492 114.627 77.4065 114.44 78.2599 114.44C79.1025 114.44 79.8545 114.627 80.5159 115C81.1879 115.363 81.7105 115.869 82.0839 116.52C82.4679 117.16 82.6599 117.907 82.6599 118.76C82.6599 119.603 82.4679 120.349 82.0839 121C81.7105 121.651 81.1879 122.163 80.5159 122.536C79.8545 122.909 79.1025 123.096 78.2599 123.096ZM78.2599 121.752C78.8039 121.752 79.2892 121.629 79.7159 121.384C80.1532 121.139 80.4945 120.792 80.7399 120.344C80.9852 119.885 81.1079 119.357 81.1079 118.76C81.1079 118.152 80.9852 117.629 80.7399 117.192C80.4945 116.744 80.1532 116.397 79.7159 116.152C79.2892 115.907 78.8039 115.784 78.2599 115.784C77.7159 115.784 77.2305 115.907 76.8039 116.152C76.3772 116.397 76.0359 116.744 75.7799 117.192C75.5239 117.629 75.3959 118.152 75.3959 118.76C75.3959 119.357 75.5239 119.885 75.7799 120.344C76.0359 120.792 76.3772 121.139 76.8039 121.384C77.2305 121.629 77.7159 121.752 78.2599 121.752ZM88.3521 123.096C87.6268 123.096 86.9868 122.963 86.4321 122.696C85.8881 122.429 85.4615 122.024 85.1521 121.48C84.8535 120.925 84.7041 120.232 84.7041 119.4V114.52H86.2401V119.224C86.2401 120.056 86.4375 120.68 86.8321 121.096C87.2375 121.512 87.8028 121.72 88.5281 121.72C89.0615 121.72 89.5255 121.613 89.9201 121.4C90.3148 121.176 90.6188 120.856 90.8321 120.44C91.0455 120.013 91.1521 119.501 91.1521 118.904V114.52H92.6881V123H91.2321V120.712L91.4721 121.32C91.1948 121.885 90.7788 122.323 90.2241 122.632C89.6695 122.941 89.0455 123.096 88.3521 123.096ZM95.6123 123V114.52H97.0843V116.824L96.9403 116.248C97.1749 115.661 97.5696 115.213 98.1243 114.904C98.6789 114.595 99.3616 114.44 100.172 114.44V115.928C100.108 115.917 100.044 115.912 99.9803 115.912C99.9269 115.912 99.8736 115.912 99.8203 115.912C98.9989 115.912 98.3483 116.157 97.8683 116.648C97.3883 117.139 97.1483 117.848 97.1483 118.776V123H95.6123ZM108.104 120.296L108.024 118.344L114.376 111.8H116.2L111.288 116.984L110.392 117.976L108.104 120.296ZM106.696 123V111.8H108.296V123H106.696ZM114.632 123L110.04 117.656L111.112 116.472L116.504 123H114.632ZM120.134 123V118.712L120.502 119.704L115.686 111.8H117.398L121.446 118.472H120.518L124.582 111.8H126.166L121.366 119.704L121.718 118.712V123H120.134ZM132.313 123.128C131.46 123.128 130.67 122.989 129.945 122.712C129.23 122.424 128.606 122.024 128.073 121.512C127.55 120.989 127.14 120.381 126.841 119.688C126.542 118.995 126.393 118.232 126.393 117.4C126.393 116.568 126.542 115.805 126.841 115.112C127.14 114.419 127.556 113.816 128.089 113.304C128.622 112.781 129.246 112.381 129.961 112.104C130.686 111.816 131.476 111.672 132.329 111.672C133.193 111.672 133.988 111.821 134.713 112.12C135.449 112.408 136.073 112.84 136.585 113.416L135.545 114.424C135.118 113.976 134.638 113.645 134.105 113.432C133.572 113.208 133.001 113.096 132.393 113.096C131.764 113.096 131.177 113.203 130.633 113.416C130.1 113.629 129.636 113.928 129.241 114.312C128.846 114.696 128.537 115.155 128.313 115.688C128.1 116.211 127.993 116.781 127.993 117.4C127.993 118.019 128.1 118.595 128.313 119.128C128.537 119.651 128.846 120.104 129.241 120.488C129.636 120.872 130.1 121.171 130.633 121.384C131.177 121.597 131.764 121.704 132.393 121.704C133.001 121.704 133.572 121.597 134.105 121.384C134.638 121.16 135.118 120.819 135.545 120.36L136.585 121.368C136.073 121.944 135.449 122.381 134.713 122.68C133.988 122.979 133.188 123.128 132.313 123.128ZM146.444 123.096C145.623 123.096 144.887 122.915 144.236 122.552C143.596 122.189 143.09 121.683 142.716 121.032C142.343 120.381 142.156 119.624 142.156 118.76C142.156 117.896 142.343 117.144 142.716 116.504C143.09 115.853 143.596 115.347 144.236 114.984C144.887 114.621 145.623 114.44 146.444 114.44C147.159 114.44 147.804 114.6 148.38 114.92C148.956 115.24 149.415 115.72 149.756 116.36C150.108 117 150.284 117.8 150.284 118.76C150.284 119.72 150.114 120.52 149.772 121.16C149.442 121.8 148.988 122.285 148.412 122.616C147.836 122.936 147.18 123.096 146.444 123.096ZM146.572 121.752C147.106 121.752 147.586 121.629 148.012 121.384C148.45 121.139 148.791 120.792 149.036 120.344C149.292 119.885 149.42 119.357 149.42 118.76C149.42 118.152 149.292 117.629 149.036 117.192C148.791 116.744 148.45 116.397 148.012 116.152C147.586 115.907 147.106 115.784 146.572 115.784C146.028 115.784 145.543 115.907 145.116 116.152C144.69 116.397 144.348 116.744 144.092 117.192C143.836 117.629 143.708 118.152 143.708 118.76C143.708 119.357 143.836 119.885 144.092 120.344C144.348 120.792 144.69 121.139 145.116 121.384C145.543 121.629 146.028 121.752 146.572 121.752ZM149.468 123V120.712L149.564 118.744L149.404 116.776V111.128H150.94V123H149.468ZM157.623 123.096C156.716 123.096 155.916 122.909 155.223 122.536C154.54 122.163 154.007 121.651 153.623 121C153.249 120.349 153.063 119.603 153.063 118.76C153.063 117.917 153.244 117.171 153.607 116.52C153.98 115.869 154.487 115.363 155.127 115C155.777 114.627 156.508 114.44 157.319 114.44C158.14 114.44 158.865 114.621 159.495 114.984C160.124 115.347 160.615 115.859 160.967 116.52C161.329 117.171 161.511 117.933 161.511 118.808C161.511 118.872 161.505 118.947 161.495 119.032C161.495 119.117 161.489 119.197 161.479 119.272H154.263V118.168H160.679L160.055 118.552C160.065 118.008 159.953 117.523 159.719 117.096C159.484 116.669 159.159 116.339 158.743 116.104C158.337 115.859 157.863 115.736 157.319 115.736C156.785 115.736 156.311 115.859 155.895 116.104C155.479 116.339 155.153 116.675 154.919 117.112C154.684 117.539 154.567 118.029 154.567 118.584V118.84C154.567 119.405 154.695 119.912 154.951 120.36C155.217 120.797 155.585 121.139 156.055 121.384C156.524 121.629 157.063 121.752 157.671 121.752C158.172 121.752 158.625 121.667 159.031 121.496C159.447 121.325 159.809 121.069 160.119 120.728L160.967 121.72C160.583 122.168 160.103 122.509 159.527 122.744C158.961 122.979 158.327 123.096 157.623 123.096ZM166.556 123.096C165.702 123.096 165.041 122.867 164.572 122.408C164.102 121.949 163.868 121.293 163.868 120.44V112.664H165.404V120.376C165.404 120.835 165.516 121.187 165.74 121.432C165.974 121.677 166.305 121.8 166.732 121.8C167.212 121.8 167.612 121.667 167.932 121.4L168.412 122.504C168.177 122.707 167.894 122.856 167.564 122.952C167.244 123.048 166.908 123.096 166.556 123.096ZM162.428 115.784V114.52H167.836V115.784H162.428ZM175.533 123V121.208L175.453 120.872V117.816C175.453 117.165 175.261 116.664 174.877 116.312C174.503 115.949 173.938 115.768 173.181 115.768C172.679 115.768 172.189 115.853 171.709 116.024C171.229 116.184 170.823 116.403 170.493 116.68L169.853 115.528C170.29 115.176 170.813 114.909 171.421 114.728C172.039 114.536 172.685 114.44 173.357 114.44C174.519 114.44 175.415 114.723 176.045 115.288C176.674 115.853 176.989 116.717 176.989 117.88V123H175.533ZM172.749 123.096C172.119 123.096 171.565 122.989 171.085 122.776C170.615 122.563 170.253 122.269 169.997 121.896C169.741 121.512 169.613 121.08 169.613 120.6C169.613 120.141 169.719 119.725 169.933 119.352C170.157 118.979 170.514 118.68 171.005 118.456C171.506 118.232 172.178 118.12 173.021 118.12H175.709V119.224H173.085C172.317 119.224 171.799 119.352 171.533 119.608C171.266 119.864 171.133 120.173 171.133 120.536C171.133 120.952 171.298 121.288 171.629 121.544C171.959 121.789 172.418 121.912 173.005 121.912C173.581 121.912 174.082 121.784 174.509 121.528C174.946 121.272 175.261 120.899 175.453 120.408L175.757 121.464C175.554 121.965 175.197 122.365 174.685 122.664C174.173 122.952 173.527 123.096 172.749 123.096ZM179.831 123V114.52H181.367V123H179.831ZM180.599 112.888C180.3 112.888 180.05 112.792 179.847 112.6C179.655 112.408 179.559 112.173 179.559 111.896C179.559 111.608 179.655 111.368 179.847 111.176C180.05 110.984 180.3 110.888 180.599 110.888C180.898 110.888 181.143 110.984 181.335 111.176C181.538 111.357 181.639 111.587 181.639 111.864C181.639 112.152 181.543 112.397 181.351 112.6C181.159 112.792 180.908 112.888 180.599 112.888ZM184.3 123V111.128H185.836V123H184.3ZM191.201 123.096C190.497 123.096 189.825 123 189.185 122.808C188.555 122.616 188.059 122.381 187.697 122.104L188.337 120.888C188.699 121.133 189.147 121.341 189.681 121.512C190.214 121.683 190.758 121.768 191.312 121.768C192.027 121.768 192.539 121.667 192.849 121.464C193.169 121.261 193.329 120.979 193.329 120.616C193.329 120.349 193.233 120.141 193.041 119.992C192.849 119.843 192.593 119.731 192.273 119.656C191.963 119.581 191.617 119.517 191.233 119.464C190.849 119.4 190.465 119.325 190.081 119.24C189.697 119.144 189.345 119.016 189.025 118.856C188.705 118.685 188.449 118.456 188.257 118.168C188.065 117.869 187.969 117.475 187.969 116.984C187.969 116.472 188.113 116.024 188.401 115.64C188.689 115.256 189.094 114.963 189.617 114.76C190.15 114.547 190.779 114.44 191.505 114.44C192.059 114.44 192.619 114.509 193.185 114.648C193.761 114.776 194.23 114.963 194.593 115.208L193.937 116.424C193.553 116.168 193.153 115.992 192.737 115.896C192.321 115.8 191.905 115.752 191.489 115.752C190.817 115.752 190.315 115.864 189.985 116.088C189.654 116.301 189.489 116.579 189.489 116.92C189.489 117.208 189.585 117.432 189.777 117.592C189.979 117.741 190.235 117.859 190.545 117.944C190.865 118.029 191.217 118.104 191.601 118.168C191.985 118.221 192.369 118.296 192.753 118.392C193.137 118.477 193.483 118.6 193.793 118.76C194.113 118.92 194.369 119.144 194.561 119.432C194.763 119.72 194.865 120.104 194.865 120.584C194.865 121.096 194.715 121.539 194.417 121.912C194.118 122.285 193.697 122.579 193.153 122.792C192.609 122.995 191.958 123.096 191.201 123.096ZM201.305 123V113.768C201.305 112.936 201.545 112.275 202.025 111.784C202.516 111.283 203.209 111.032 204.105 111.032C204.436 111.032 204.75 111.075 205.049 111.16C205.358 111.235 205.62 111.357 205.833 111.528L205.369 112.696C205.209 112.568 205.028 112.472 204.825 112.408C204.622 112.333 204.409 112.296 204.185 112.296C203.737 112.296 203.396 112.424 203.161 112.68C202.926 112.925 202.809 113.293 202.809 113.784V114.92L202.841 115.624V123H201.305ZM199.865 115.784V114.52H205.273V115.784H199.865ZM210.229 123.096C209.375 123.096 208.618 122.909 207.957 122.536C207.295 122.163 206.773 121.651 206.389 121C206.005 120.339 205.813 119.592 205.813 118.76C205.813 117.917 206.005 117.171 206.389 116.52C206.773 115.869 207.295 115.363 207.957 115C208.618 114.627 209.375 114.44 210.229 114.44C211.071 114.44 211.823 114.627 212.485 115C213.157 115.363 213.679 115.869 214.053 116.52C214.437 117.16 214.629 117.907 214.629 118.76C214.629 119.603 214.437 120.349 214.053 121C213.679 121.651 213.157 122.163 212.485 122.536C211.823 122.909 211.071 123.096 210.229 123.096ZM210.229 121.752C210.773 121.752 211.258 121.629 211.685 121.384C212.122 121.139 212.463 120.792 212.709 120.344C212.954 119.885 213.077 119.357 213.077 118.76C213.077 118.152 212.954 117.629 212.709 117.192C212.463 116.744 212.122 116.397 211.685 116.152C211.258 115.907 210.773 115.784 210.229 115.784C209.685 115.784 209.199 115.907 208.773 116.152C208.346 116.397 208.005 116.744 207.749 117.192C207.493 117.629 207.365 118.152 207.365 118.76C207.365 119.357 207.493 119.885 207.749 120.344C208.005 120.792 208.346 121.139 208.773 121.384C209.199 121.629 209.685 121.752 210.229 121.752ZM216.753 123V114.52H218.225V116.824L218.081 116.248C218.316 115.661 218.71 115.213 219.265 114.904C219.82 114.595 220.502 114.44 221.313 114.44V115.928C221.249 115.917 221.185 115.912 221.121 115.912C221.068 115.912 221.014 115.912 220.961 115.912C220.14 115.912 219.489 116.157 219.009 116.648C218.529 117.139 218.289 117.848 218.289 118.776V123H216.753ZM230.524 123.096C229.671 123.096 229.01 122.867 228.54 122.408C228.071 121.949 227.836 121.293 227.836 120.44V112.664H229.372V120.376C229.372 120.835 229.484 121.187 229.708 121.432C229.943 121.677 230.274 121.8 230.7 121.8C231.18 121.8 231.58 121.667 231.9 121.4L232.38 122.504C232.146 122.707 231.863 122.856 231.532 122.952C231.212 123.048 230.876 123.096 230.524 123.096ZM226.396 115.784V114.52H231.804V115.784H226.396ZM234.237 123V114.52H235.709V116.824L235.565 116.248C235.8 115.661 236.195 115.213 236.749 114.904C237.304 114.595 237.987 114.44 238.797 114.44V115.928C238.733 115.917 238.669 115.912 238.605 115.912C238.552 115.912 238.499 115.912 238.445 115.912C237.624 115.912 236.973 116.157 236.493 116.648C236.013 117.139 235.773 117.848 235.773 118.776V123H234.237ZM245.329 123V121.208L245.249 120.872V117.816C245.249 117.165 245.057 116.664 244.673 116.312C244.3 115.949 243.735 115.768 242.977 115.768C242.476 115.768 241.985 115.853 241.505 116.024C241.025 116.184 240.62 116.403 240.289 116.68L239.649 115.528C240.087 115.176 240.609 114.909 241.217 114.728C241.836 114.536 242.481 114.44 243.153 114.44C244.316 114.44 245.212 114.723 245.841 115.288C246.471 115.853 246.785 116.717 246.785 117.88V123H245.329ZM242.545 123.096C241.916 123.096 241.361 122.989 240.881 122.776C240.412 122.563 240.049 122.269 239.793 121.896C239.537 121.512 239.409 121.08 239.409 120.6C239.409 120.141 239.516 119.725 239.729 119.352C239.953 118.979 240.311 118.68 240.801 118.456C241.303 118.232 241.975 118.12 242.817 118.12H245.505V119.224H242.881C242.113 119.224 241.596 119.352 241.329 119.608C241.063 119.864 240.929 120.173 240.929 120.536C240.929 120.952 241.095 121.288 241.425 121.544C241.756 121.789 242.215 121.912 242.801 121.912C243.377 121.912 243.879 121.784 244.305 121.528C244.743 121.272 245.057 120.899 245.249 120.408L245.553 121.464C245.351 121.965 244.993 122.365 244.481 122.664C243.969 122.952 243.324 123.096 242.545 123.096ZM253.132 123.096C252.311 123.096 251.575 122.915 250.924 122.552C250.284 122.189 249.777 121.683 249.404 121.032C249.031 120.381 248.844 119.624 248.844 118.76C248.844 117.896 249.031 117.144 249.404 116.504C249.777 115.853 250.284 115.347 250.924 114.984C251.575 114.621 252.311 114.44 253.132 114.44C253.847 114.44 254.492 114.6 255.068 114.92C255.644 115.24 256.103 115.72 256.444 116.36C256.796 117 256.972 117.8 256.972 118.76C256.972 119.72 256.801 120.52 256.46 121.16C256.129 121.8 255.676 122.285 255.1 122.616C254.524 122.936 253.868 123.096 253.132 123.096ZM253.26 121.752C253.793 121.752 254.273 121.629 254.7 121.384C255.137 121.139 255.479 120.792 255.724 120.344C255.98 119.885 256.108 119.357 256.108 118.76C256.108 118.152 255.98 117.629 255.724 117.192C255.479 116.744 255.137 116.397 254.7 116.152C254.273 115.907 253.793 115.784 253.26 115.784C252.716 115.784 252.231 115.907 251.804 116.152C251.377 116.397 251.036 116.744 250.78 117.192C250.524 117.629 250.396 118.152 250.396 118.76C250.396 119.357 250.524 119.885 250.78 120.344C251.036 120.792 251.377 121.139 251.804 121.384C252.231 121.629 252.716 121.752 253.26 121.752ZM256.156 123V120.712L256.252 118.744L256.092 116.776V111.128H257.628V123H256.156ZM260.534 123V114.52H262.07V123H260.534ZM261.302 112.888C261.003 112.888 260.753 112.792 260.55 112.6C260.358 112.408 260.262 112.173 260.262 111.896C260.262 111.608 260.358 111.368 260.55 111.176C260.753 110.984 261.003 110.888 261.302 110.888C261.601 110.888 261.846 110.984 262.038 111.176C262.241 111.357 262.342 111.587 262.342 111.864C262.342 112.152 262.246 112.397 262.054 112.6C261.862 112.792 261.611 112.888 261.302 112.888ZM269.531 114.44C270.224 114.44 270.832 114.573 271.355 114.84C271.888 115.107 272.304 115.512 272.603 116.056C272.902 116.6 273.051 117.288 273.051 118.12V123H271.515V118.296C271.515 117.475 271.312 116.856 270.907 116.44C270.512 116.024 269.952 115.816 269.227 115.816C268.683 115.816 268.208 115.923 267.803 116.136C267.398 116.349 267.083 116.664 266.859 117.08C266.646 117.496 266.539 118.013 266.539 118.632V123H265.003V114.52H266.475V116.808L266.235 116.2C266.512 115.645 266.939 115.213 267.515 114.904C268.091 114.595 268.763 114.44 269.531 114.44ZM279.606 126.2C278.827 126.2 278.07 126.088 277.334 125.864C276.608 125.651 276.016 125.341 275.558 124.936L276.294 123.752C276.688 124.093 277.174 124.36 277.75 124.552C278.326 124.755 278.928 124.856 279.558 124.856C280.56 124.856 281.296 124.621 281.766 124.152C282.235 123.683 282.47 122.968 282.47 122.008V120.216L282.63 118.536L282.55 116.84V114.52H284.006V121.848C284.006 123.341 283.632 124.44 282.885 125.144C282.139 125.848 281.046 126.2 279.606 126.2ZM279.414 122.648C278.592 122.648 277.856 122.477 277.206 122.136C276.566 121.784 276.054 121.299 275.67 120.68C275.296 120.061 275.11 119.347 275.11 118.536C275.11 117.715 275.296 117 275.67 116.392C276.054 115.773 276.566 115.293 277.206 114.952C277.856 114.611 278.592 114.44 279.414 114.44C280.139 114.44 280.8 114.589 281.398 114.888C281.995 115.176 282.47 115.624 282.822 116.232C283.184 116.84 283.366 117.608 283.366 118.536C283.366 119.453 283.184 120.216 282.822 120.824C282.47 121.432 281.995 121.891 281.398 122.2C280.8 122.499 280.139 122.648 279.414 122.648ZM279.59 121.304C280.155 121.304 280.656 121.187 281.094 120.952C281.531 120.717 281.872 120.392 282.118 119.976C282.374 119.56 282.502 119.08 282.502 118.536C282.502 117.992 282.374 117.512 282.118 117.096C281.872 116.68 281.531 116.36 281.094 116.136C280.656 115.901 280.155 115.784 279.59 115.784C279.024 115.784 278.518 115.901 278.07 116.136C277.632 116.36 277.286 116.68 277.03 117.096C276.784 117.512 276.662 117.992 276.662 118.536C276.662 119.08 276.784 119.56 277.03 119.976C277.286 120.392 277.632 120.717 278.07 120.952C278.518 121.187 279.024 121.304 279.59 121.304ZM287.308 123.096C287.01 123.096 286.754 122.995 286.54 122.792C286.327 122.579 286.22 122.312 286.22 121.992C286.22 121.672 286.327 121.411 286.54 121.208C286.754 121.005 287.01 120.904 287.308 120.904C287.596 120.904 287.842 121.005 288.044 121.208C288.258 121.411 288.364 121.672 288.364 121.992C288.364 122.312 288.258 122.579 288.044 122.792C287.842 122.995 287.596 123.096 287.308 123.096Z" fill="#FAFAFA"/>
<g clip-path="url(#clip1_2905_1362)">
<path d="M1107.62 158.213L1102.17 158.239C1098.32 158.258 1092.87 158.283 1086.14 158.313C1084.55 158.322 1082.89 158.329 1081.16 158.337C1078.7 158.35 1076.1 158.362 1073.38 158.375L1064.79 158.414C984.738 158.787 822.996 159.504 822.874 159.224L822.849 159.179C822.849 159.179 822.822 159.135 822.822 159.113C822.72 158.934 768.282 106.868 831.752 71.303C856.585 57.3875 833.721 51.0548 853.987 36.2133C885.103 13.4244 927.324 38.6194 952.013 28.6019C1021.73 0.314524 1048.57 4.70356 1069.02 9.59192C1072.07 10.3236 1075.73 11.7966 1079.39 13.9011C1084.93 17.0794 1090.48 21.6936 1093.98 27.3459C1099.01 35.4566 1099.84 45.7052 1090.37 56.9108C1090.19 57.1337 1090.01 57.3613 1089.84 57.5913C1085.02 64.1933 1088.44 73.5648 1094.33 82.8744C1098.1 88.8377 1102.89 94.7747 1107.17 99.9431C1135.64 134.318 1107.88 157.761 1107.62 158.213Z" fill="#232323"/>
<path d="M1087.76 45.8519L1032.23 55.7495L1044.93 127.257L1100.47 117.359L1087.76 45.8519Z" fill="#D2E0FF"/>
<path d="M893.56 145.655C893.56 145.655 856.3 156.109 837.466 138.376C822.377 124.17 813.031 125.248 808.738 129.689C802.087 136.568 820.101 159.578 868.193 160.273C916.279 160.968 893.566 145.655 893.566 145.655H893.56Z" fill="url(#paint2_linear_2905_1362)"/>
<path d="M882.322 151.245C862.952 154.643 846.648 150.697 836.188 146.651C824.271 142.046 817.148 136.315 817.077 136.262C816.977 136.18 816.965 136.038 817.042 135.938C817.125 135.838 817.266 135.826 817.366 135.903C817.437 135.962 824.513 141.645 836.371 146.227C847.309 150.45 864.662 154.572 885.241 150.208C885.359 150.191 885.489 150.261 885.512 150.385C885.536 150.509 885.459 150.632 885.336 150.656C884.321 150.868 883.319 151.068 882.322 151.239V151.245Z" fill="#B877F5"/>
<path d="M881.507 147.876C881.507 147.876 849.294 139.171 837.643 118.045C827.342 99.3639 818.886 95.5534 814.694 96.16C804.481 97.6442 810.389 120.06 851.034 147.463C884.355 169.932 881.507 147.876 881.507 147.876Z" fill="url(#paint3_linear_2905_1362)"/>
<path d="M869.419 146.692C869.36 146.721 869.296 146.727 869.231 146.704C849.006 139.089 835.957 127.463 828.574 119.047C820.567 109.924 817.306 102.503 817.271 102.426C817.218 102.309 817.271 102.173 817.389 102.126C817.506 102.073 817.642 102.126 817.689 102.244C817.719 102.315 820.968 109.688 828.928 118.758C836.275 127.127 849.259 138.694 869.39 146.274C869.508 146.321 869.567 146.45 869.526 146.568C869.508 146.621 869.467 146.662 869.419 146.686V146.692Z" fill="#B877F5"/>
<path d="M885.347 139.548C885.347 139.548 859.945 123.988 859.449 103.799C859.054 87.6201 852.444 80.5998 846.371 80.4349C838.776 80.2229 835.61 98.9161 864.974 133.894C878.177 149.619 885.347 139.554 885.347 139.554V139.548Z" fill="url(#paint4_linear_2905_1362)"/>
<path d="M885.585 134.394C885.532 134.406 885.473 134.394 885.425 134.371C867.647 124.682 858.166 112.214 853.348 103.457C848.124 93.9627 847.092 86.6539 847.08 86.5773C847.063 86.4536 847.151 86.3417 847.275 86.3182C847.399 86.3005 847.517 86.3888 847.534 86.5125C847.546 86.5832 848.566 93.8273 853.761 103.25C858.549 111.949 867.972 124.335 885.644 133.964C885.756 134.023 885.797 134.164 885.738 134.276C885.703 134.335 885.65 134.376 885.585 134.388V134.394Z" fill="#B877F5"/>
<path d="M1083.92 54.9444L1067.77 57.82C1067.6 57.8498 1067.44 57.7365 1067.41 57.5673C1067.38 57.3969 1067.49 57.2348 1067.66 57.205L1083.81 54.3295C1083.98 54.2997 1084.14 54.4129 1084.17 54.5821C1084.2 54.7525 1084.08 54.9146 1083.92 54.9444Z" fill="#AEC3FF"/>
<path d="M1084.29 57.0523L1068.15 59.9279C1067.98 59.9577 1067.82 59.8445 1067.79 59.6752C1067.76 59.5048 1067.87 59.3427 1068.04 59.313L1084.18 56.4374C1084.35 56.4076 1084.51 56.5208 1084.54 56.69C1084.57 56.8604 1084.46 57.0225 1084.29 57.0523Z" fill="#AEC3FF"/>
<path d="M1084.67 59.1607L1068.52 62.0363C1068.35 62.0661 1068.19 61.9529 1068.16 61.7836C1068.13 61.6132 1068.24 61.4511 1068.41 61.4214L1084.56 58.5458C1084.73 58.516 1084.89 58.6292 1084.92 58.7984C1084.95 58.9688 1084.83 59.1309 1084.67 59.1607Z" fill="#AEC3FF"/>
<path d="M1075.6 67.2654L1064.46 69.2507C1064.21 69.2948 1063.98 69.1316 1063.94 68.8873C1063.89 68.643 1064.06 68.4094 1064.3 68.3653L1075.45 66.3799C1075.69 66.337 1075.92 66.4991 1075.97 66.7434C1076.01 66.9877 1075.85 67.2213 1075.6 67.2654Z" fill="#AEC3FF"/>
<path d="M1085.65 65.4766L1078.79 66.6981C1078.55 66.7422 1078.32 66.5789 1078.27 66.3346C1078.23 66.0903 1078.39 65.8568 1078.64 65.8127L1085.49 64.5912C1085.73 64.5471 1085.97 64.7103 1086.01 64.9546C1086.06 65.1989 1085.89 65.4325 1085.65 65.4766Z" fill="#AEC3FF"/>
<path d="M1082.72 69.0159L1065.6 72.0666C1065.35 72.1107 1065.12 71.9474 1065.08 71.7031C1065.03 71.4588 1065.2 71.2253 1065.44 71.1812L1082.56 68.1304C1082.81 68.0875 1083.04 68.2496 1083.08 68.4939C1083.13 68.7382 1082.97 68.9718 1082.72 69.0159Z" fill="#AEC3FF"/>
<path d="M1071.73 77.4722L1060.58 79.4576C1060.34 79.5005 1060.11 79.3384 1060.06 79.0941C1060.02 78.8498 1060.18 78.6162 1060.42 78.5722L1071.57 76.5868C1071.81 76.5427 1072.05 76.706 1072.09 76.9502C1072.13 77.1945 1071.97 77.4281 1071.73 77.4722Z" fill="#AEC3FF"/>
<path d="M1081.77 75.6836L1074.92 76.9051C1074.68 76.948 1074.44 76.786 1074.4 76.5417C1074.35 76.2974 1074.52 76.0638 1074.76 76.0197L1081.62 74.7982C1081.86 74.7541 1082.09 74.9174 1082.14 75.1617C1082.18 75.406 1082.02 75.6395 1081.77 75.6836Z" fill="#AEC3FF"/>
<path d="M1087.59 77.6866L1060.82 82.4558C1060.57 82.4987 1060.34 82.3366 1060.3 82.0923C1060.25 81.848 1060.42 81.6144 1060.66 81.5703L1087.43 76.8011C1087.67 76.757 1087.91 76.9203 1087.95 77.1646C1087.99 77.4089 1087.83 77.6425 1087.59 77.6866Z" fill="#AEC3FF"/>
<path d="M1072.73 83.8921L1061.58 85.8775C1061.34 85.9204 1061.11 85.7583 1061.06 85.514C1061.02 85.2697 1061.18 85.0362 1061.42 84.9921L1072.57 83.0067C1072.81 82.9626 1073.05 83.1259 1073.09 83.3702C1073.14 83.6145 1072.97 83.848 1072.73 83.8921Z" fill="#AEC3FF"/>
<path d="M1083.21 82.1329L1076.36 83.3544C1076.11 83.3973 1075.88 83.2352 1075.83 82.9909C1075.79 82.7466 1075.95 82.513 1076.2 82.4689L1083.05 81.2474C1083.3 81.2033 1083.53 81.3666 1083.57 81.6109C1083.62 81.8552 1083.45 82.0888 1083.21 82.1329Z" fill="#AEC3FF"/>
<path d="M1079.1 85.9167L1061.97 88.9675C1061.73 89.0116 1061.5 88.8483 1061.45 88.604C1061.41 88.3597 1061.57 88.1261 1061.82 88.0821L1078.94 85.0313C1079.18 84.9884 1079.42 85.1505 1079.46 85.3948C1079.5 85.6391 1079.34 85.8726 1079.1 85.9167Z" fill="#AEC3FF"/>
<path d="M1057.22 115.919L1046.07 117.905C1045.83 117.949 1045.6 117.785 1045.55 117.541C1045.51 117.297 1045.67 117.063 1045.92 117.019L1057.06 115.034C1057.31 114.991 1057.54 115.153 1057.58 115.397C1057.63 115.642 1057.46 115.875 1057.22 115.919Z" fill="#AEC3FF"/>
<path d="M1067.7 114.161L1060.85 115.383C1060.6 115.427 1060.37 115.264 1060.33 115.019C1060.28 114.775 1060.45 114.541 1060.69 114.497L1067.55 113.276C1067.79 113.232 1068.02 113.395 1068.07 113.639C1068.11 113.884 1067.95 114.117 1067.7 114.161Z" fill="#AEC3FF"/>
<path d="M1063.59 117.944L1046.47 120.995C1046.22 121.039 1045.99 120.875 1045.94 120.631C1045.9 120.387 1046.06 120.153 1046.31 120.109L1063.43 117.058C1063.67 117.014 1063.91 117.178 1063.95 117.422C1063.99 117.666 1063.83 117.9 1063.59 117.944Z" fill="#AEC3FF"/>
<path d="M1048.15 39.8644C1048.15 39.8644 1050.79 42.7864 1050.94 44.1271C1051.09 45.469 1049.75 48.4315 1050.39 49.7233C1050.59 50.1261 1053.62 54.1267 1054.55 54.3519C1055.18 54.5044 1056.09 52.9302 1055.19 51.3965C1054.28 49.8437 1054.1 46.7584 1054.25 45.401C1054.5 43.0856 1056.14 37.6991 1056.43 38.7108L1061.54 37.8993L1056.71 35.9175L1048.15 39.8632L1048.15 39.8644Z" fill="#E59365"/>
<path d="M1046.51 46.9481C1046.51 46.9481 1046.06 52.8149 1046.51 55.0541C1046.69 55.9526 1047.56 58.8413 1048.41 59.1535C1049.83 59.6683 1050.6 57.1813 1049.99 54.4809C1049.82 53.742 1050.98 49.1826 1051.75 47.0983C1053.68 41.9167 1054.84 38.7969 1054.84 38.7969L1046.52 46.9481H1046.51Z" fill="#F2A36D"/>
<path d="M1088.67 28.0524C1087.41 28.7877 1086.24 29.4848 1085.23 30.1033C1084.66 30.4489 1084.14 30.7695 1083.68 31.059C1082.94 31.5262 1082.36 31.9099 1081.99 32.1828C1081.06 32.8788 1079.51 33.7273 1078.38 34.8939C1078.38 34.8939 1078.37 34.8987 1078.37 34.8999C1076.15 36.4694 1076.05 38.3201 1075.97 39.4498C1075.76 42.2527 1073.16 46.3748 1069.63 50.5005C1067.7 52.7516 1066 56.0419 1065.41 57.3456C1065.22 57.7734 1064.86 58.7661 1064.45 59.816C1063.87 61.2794 1063.19 62.8524 1062.7 63.1635C1062.56 63.2529 1062.32 63.2254 1062.05 63.1218C1061.35 62.8608 1060.4 62.1136 1060.12 61.5356C1059.29 59.8076 1059.94 57.168 1061.53 52.9935C1063.05 49.0168 1062.83 47.0088 1062.24 45.2343C1061.86 44.0808 1061.31 42.9725 1059.61 42.3016C1059.4 42.2229 1058.79 41.9274 1057.95 41.695C1057.13 41.4674 1056.09 41.2981 1055.02 41.4531C1054.65 41.5067 1054.28 41.5985 1053.91 41.7415C1053.07 42.0644 1052.24 42.646 1051.53 43.616C1051.51 43.647 1051.49 43.6768 1051.46 43.7066C1051.46 43.7066 1051.46 43.7078 1051.46 43.709C1051.18 44.0772 1050.86 44.4204 1050.52 44.7481C1049.83 45.3988 1049.06 45.9839 1048.35 46.5774C1047.65 47.1613 1047.02 47.7524 1046.59 48.4209C1046.33 48.8202 1046.15 49.2456 1046.07 49.7127C1045.81 51.2357 1045.03 52.7397 1044.26 54.4081C1043.7 55.6152 1043.14 56.9082 1042.78 58.3573C1041.92 61.8443 1039.95 62.2113 1038.92 61.1602C1038.9 61.1471 1038.89 61.1328 1038.88 61.1197C1038.56 60.7777 1038.56 58.89 1038.64 57.1919C1038.7 55.9203 1038.81 54.756 1038.88 54.4235C1039.08 53.3891 1040.8 49.3254 1041.63 45.1235C1042.24 41.9893 1047.13 37.3083 1050.58 31.1282C1052.3 28.0536 1058.9 27.2063 1065.8 23.1974C1066.17 22.9829 1066.57 22.8351 1066.96 22.6468C1068.06 22.107 1069.14 21.5254 1070.19 20.9034C1071.73 20.8926 1073.29 20.9665 1074.85 21.1167C1075.9 21.218 1076.96 21.3538 1078.02 21.5254C1079.69 21.7959 1081.38 22.1511 1083.06 22.5837C1085.19 24.3939 1087.04 26.2219 1088.67 28.0571V28.0524Z" fill="#FFB27D"/>
<path d="M1085.64 30.6004L1084.45 31.3714L1084.14 31.5728L1078.6 35.1491L1078.37 34.8988L1066.92 22.6696L1066.96 22.641C1066.96 22.641 1071.96 19.0695 1072.35 19.023C1072.45 19.0099 1072.56 18.9968 1072.66 18.9849C1073.23 19.4496 1074.11 20.2171 1075.16 21.143C1078.53 24.1104 1083.57 28.7044 1085.15 30.1487C1085.46 30.4371 1085.64 30.5992 1085.64 30.5992L1085.64 30.6004Z" fill="#9FC1F4"/>
<path d="M1093.99 27.3457L1086.9 32.4366C1086.9 32.4366 1085.78 32.0231 1084.45 31.37C1084.23 31.258 1083.99 31.1388 1083.76 31.0137C1082.93 30.5764 1082.09 30.0615 1081.42 29.5098C1078.33 26.9572 1075.49 23.3928 1073.75 21.0189C1073.13 20.1668 1072.65 19.4673 1072.35 19.024C1072.4 19.0169 1075.78 16.5024 1079.4 13.9009C1084.93 17.0791 1090.48 21.6934 1093.99 27.3457H1093.99Z" fill="#F99746"/>
<path d="M1079.74 31.7441C1079.93 31.4402 1080.33 31.3461 1080.63 31.5332C1080.94 31.7203 1081.03 32.1183 1080.84 32.4222C1080.66 32.7261 1080.26 32.8202 1079.96 32.6331C1079.65 32.446 1079.56 32.048 1079.74 31.7441Z" fill="#2A4E96"/>
<path d="M1030.16 56.1334L1061.06 50.6289L1057.26 67.7501L1035.32 72.6361L1030.16 56.1334Z" fill="#D2E0FF"/>
<path d="M1058.62 64.7271C1059.12 67.2225 1058.68 69.687 1057.56 71.7605C1057.15 72.5137 1056.65 73.2144 1056.07 73.8436C1055.37 74.6135 1054.55 75.2832 1053.64 75.8171C1052.66 76.3867 1051.58 76.8038 1050.42 77.0374C1049.78 77.1649 1049.15 77.2316 1048.52 77.2412V77.2388C1047.69 77.2519 1046.88 77.1661 1046.1 76.9885C1045.27 76.805 1044.48 76.5214 1043.73 76.1484C1043.27 75.9196 1042.82 75.6502 1042.39 75.3535C1041.67 74.8494 1041.01 74.25 1040.43 73.5743C1039.3 72.2587 1038.49 70.6439 1038.13 68.8218C1037 63.1541 1040.67 57.6413 1046.33 56.5103C1051.99 55.3794 1057.49 59.0606 1058.62 64.7271Z" fill="#8C9DF4"/>
<path d="M1056.52 68.0232C1055.1 64.6388 1052.03 60.6871 1049.84 59.0128C1049.34 58.6267 1048.88 58.3633 1048.51 58.2537C1048.36 58.2096 1048.21 58.1786 1048.07 58.1548C1046.75 57.9248 1045.9 58.4884 1045.9 58.4884C1041.46 58.846 1041.21 64.1633 1041.61 65.8937C1041.98 67.4596 1042.48 69.1113 1041.47 71.3755C1041.37 71.6127 1041.24 71.8581 1041.1 72.1084C1040.8 72.6435 1040.58 73.1309 1040.43 73.5742C1041.01 74.2499 1041.67 74.8493 1042.39 75.3534C1042.82 75.6501 1043.27 75.9195 1043.73 76.1483C1044.48 76.5213 1045.27 76.8037 1046.1 76.9884C1046.88 77.166 1047.69 77.253 1048.52 77.2387C1048.24 74.4048 1050.36 73.4955 1052.07 73.3442C1053.21 73.2429 1054.17 73.4812 1054.11 73.7089C1054.8 73.7339 1055.36 73.66 1055.81 73.5015C1056.79 73.1499 1057.24 72.3861 1057.29 71.3779C1057.34 70.4293 1057.04 69.265 1056.52 68.0244V68.0232Z" fill="#163560"/>
<path d="M1046.1 76.9882C1045.27 76.8047 1044.48 76.5211 1043.73 76.1481C1043.27 75.9193 1042.82 75.6499 1042.39 75.3532C1042.5 74.9051 1042.59 74.5595 1042.63 74.3772C1043.2 72.2023 1044.62 71.3276 1044.62 71.3276L1046.1 76.9882Z" fill="#FFA561"/>
<path d="M1056.08 73.8434C1055.38 74.6133 1054.55 75.283 1053.64 75.8169C1052.67 76.3865 1051.59 76.8036 1050.42 77.0372C1049.78 77.1647 1049.15 77.2314 1048.52 77.241V77.2386C1047.7 77.2517 1046.88 77.1659 1046.1 76.9883C1045.28 76.8048 1044.48 76.5212 1043.73 76.1482C1043.97 73.3238 1044.63 71.3277 1044.63 71.3277C1044.63 71.3277 1045.29 70.8999 1046.61 70.4483C1047.57 70.1205 1048.86 69.7845 1050.5 69.5867C1051.16 69.5068 1051.87 69.4508 1052.63 69.4258L1055.81 73.5014L1056.08 73.8446L1056.08 73.8434Z" fill="#FFA561"/>
<path d="M1050.49 69.5607C1050.05 68.9076 1049.67 67.8589 1049.4 66.5171L1049.22 66.5945L1046.08 67.8959C1046.08 67.8959 1046.36 68.9112 1046.55 69.8813C1046.55 69.8896 1046.56 69.8979 1046.56 69.9051C1046.73 70.7476 1046.33 71.7069 1047.74 71.7725C1048.18 71.7927 1051.4 70.9311 1050.49 69.5607H1050.49Z" fill="#FFB27D"/>
<path d="M1046.07 67.8956C1046.07 67.8956 1046.35 68.9109 1046.55 69.8809C1048.37 69.4639 1049 67.6 1049.21 66.5942L1046.07 67.8956H1046.07Z" fill="#E8945B"/>
<path d="M1045.65 68.9373C1045.65 68.9373 1049.99 68.1448 1049.46 65.4433C1048.92 62.7429 1049.12 60.8218 1046.33 61.2139C1043.53 61.606 1043.2 62.7429 1043.16 63.6879C1043.12 64.6329 1044.5 69.0732 1045.65 68.9373Z" fill="#FFB27D"/>
<path d="M1044.34 61.5417C1044.34 61.5417 1046.15 64.4721 1048.06 64.5782C1049.98 64.683 1050.67 64.0371 1050.67 64.0371C1050.67 64.0371 1049.05 63.2065 1048.38 61.326C1048.38 61.326 1044.93 59.8554 1044.34 61.5417Z" fill="#163560"/>
<path d="M1044.69 61.7405C1044.69 61.7405 1043.87 62.2446 1043.64 62.9596C1043.41 63.6579 1043.27 64.5493 1043.55 65.5551C1043.55 65.5551 1042.22 63.5805 1042.99 62.1623C1043.79 60.6584 1044.69 61.7417 1044.69 61.7417V61.7405Z" fill="#163560"/>
<path d="M1053.64 75.8171C1053.32 75.5954 1052.97 75.3595 1052.59 75.1104C1052.2 74.8518 1052.07 74.1594 1052.07 73.3443C1052.07 71.6521 1052.63 69.426 1052.63 69.426C1052.63 69.426 1055.52 69.0554 1057.29 71.378C1057.36 71.4674 1057.43 71.5615 1057.5 71.6592C1057.52 71.6926 1057.54 71.7272 1057.56 71.7605C1057.15 72.5137 1056.66 73.2144 1056.08 73.8436C1055.38 74.6135 1054.55 75.2832 1053.64 75.8171Z" fill="#FFA561"/>
<path d="M1089.52 98.5736C1088.96 97.2473 1088.15 96.0937 1087.18 95.1415C1086.29 94.2692 1085.26 93.5673 1084.15 93.056C1081.5 91.8465 1078.38 91.7094 1075.51 92.9404C1070.09 95.2583 1067.57 101.555 1069.88 106.979C1072.2 112.402 1078.48 114.93 1083.9 112.612C1089.31 110.294 1091.84 103.997 1089.52 98.5736H1089.52ZM1083.41 111.471C1078.62 113.52 1073.07 111.285 1071.02 106.49C1068.98 101.696 1071.21 96.1294 1075.99 94.0809C1078.54 92.9917 1081.3 93.1144 1083.64 94.1882C1084.76 94.7042 1085.79 95.4371 1086.64 96.3618C1087.35 97.134 1087.95 98.0397 1088.38 99.061C1090.43 103.856 1088.2 109.423 1083.41 111.471Z" fill="#8C9DF4"/>
<path d="M1080.31 107.969C1079.9 107.971 1079.5 107.838 1079.18 107.583L1072.26 102.147C1071.47 101.53 1071.33 100.39 1071.95 99.6019C1072.56 98.8142 1073.7 98.676 1074.49 99.2933L1079.59 103.296L1085.01 91.1063C1085.42 90.1923 1086.49 89.7799 1087.41 90.1887C1088.32 90.5963 1088.73 91.6688 1088.32 92.5828L1081.95 106.894C1081.72 107.404 1081.27 107.781 1080.73 107.915C1080.59 107.95 1080.45 107.968 1080.31 107.969Z" fill="#F77D48"/>
<path d="M1024.48 125.966C1024.48 125.966 1062.72 134.055 1080.53 114.937C1094.8 99.6265 1104.29 100.096 1108.91 104.29C1116.07 110.786 1100.59 140.973 1052.18 144.834C1003.76 148.694 1024.48 125.96 1024.48 125.96V125.966Z" fill="url(#paint5_linear_2905_1362)"/>
<path d="M1036.18 130.855C1035.16 130.742 1034.13 130.618 1033.1 130.463C1032.97 130.445 1032.88 130.326 1032.9 130.201C1032.92 130.076 1033.04 129.999 1033.16 130.005C1054.19 133.05 1071.42 127.756 1082.17 122.772C1093.81 117.377 1100.56 111.184 1100.63 111.125C1100.72 111.036 1100.87 111.042 1100.95 111.137C1101.04 111.232 1101.04 111.381 1100.94 111.464C1100.88 111.523 1094.07 117.763 1082.37 123.194C1072.09 127.959 1055.92 133.009 1036.18 130.855Z" fill="#B877F5"/>
<path d="M1030.59 139.962C1030.59 139.962 1062.39 122.717 1071.05 99.7035C1078.72 79.3543 1087.15 74.1257 1091.79 74.0186C1103.08 73.7569 1102.39 98.6387 1062.04 131.271C1021.68 163.904 1030.59 139.968 1030.59 139.968V139.962Z" fill="url(#paint6_linear_2905_1362)"/>
<path d="M1042.05 133.621C1041.99 133.603 1041.95 133.567 1041.91 133.52C1041.84 133.407 1041.88 133.264 1042 133.204C1080.91 112.213 1089.58 80.9009 1089.67 80.5856C1089.7 80.4607 1089.83 80.3834 1089.97 80.4131C1090.1 80.4369 1090.19 80.5678 1090.15 80.6927C1090.13 80.77 1087.98 88.7169 1081.03 99.1562C1074.61 108.787 1062.68 122.581 1042.25 133.597C1042.18 133.633 1042.11 133.639 1042.04 133.615L1042.05 133.621Z" fill="#B877F5"/>
<path d="M1046.07 156.79C1046.07 156.79 1050.26 152.894 1071.43 156.254C1089.39 159.11 1095.34 157.396 1096.95 150.151C1099.72 137.678 1068.43 132.907 1038.35 152.977C1027.48 160.228 1046.07 156.79 1046.07 156.79Z" fill="url(#paint7_linear_2905_1362)"/>
<path d="M1036.53 158.853C1036.47 158.836 1036.41 158.788 1036.38 158.717C1036.32 158.58 1036.36 158.401 1036.47 158.324C1062.41 140.259 1088.34 148.628 1088.6 148.706C1088.72 148.747 1088.8 148.908 1088.77 149.056C1088.73 149.211 1088.61 149.3 1088.48 149.259C1088.22 149.17 1062.47 140.878 1036.7 158.824C1036.65 158.859 1036.59 158.871 1036.54 158.853H1036.53Z" fill="#B877F5"/>
<g opacity="0.8">
<path d="M891.244 118.319C891.244 118.319 896.208 125.794 893.44 134.934L892.171 134.599C892.171 134.599 893.356 124.541 890.753 119.498C888.15 114.454 891.244 118.32 891.244 118.32V118.319Z" fill="#AEC3FF"/>
</g>
<path d="M920.805 65.3919C920.805 65.3919 924.365 58.7077 932.956 59.4084C932.956 59.4084 945.372 48.2374 958.71 57.8068C958.71 57.8068 972.831 55.3542 983.317 59.7588C990.309 62.6951 992.628 65.7983 992.628 65.7983L920.805 65.3907V65.3919Z" fill="#575757"/>
<path d="M958.211 45.2228C958.211 45.2228 960.95 40.0865 967.558 40.6252C967.558 40.6252 977.109 32.0414 987.372 39.3942C987.372 39.3942 998.235 37.5101 1006.3 40.8945C1011.68 43.1504 1013.47 45.5362 1013.47 45.5362L958.212 45.224L958.211 45.2228Z" fill="#575757"/>
<path d="M946.746 158.533L919.767 112.23L918.757 110.493L906.168 118.72L910.191 125.682L929.243 158.619L929.445 158.956L946.948 158.872L946.746 158.534V158.533ZM925.943 79.2755L898.628 121.45L892.435 131.007L894.689 147.492L898.712 141.829L910.191 125.68L919.767 112.23L943.245 79.1909L925.943 79.2755ZM898.712 141.829L898.628 121.45L898.425 79.4102L883.43 79.4781L883.8 158.82V159.158L898.796 159.09V158.752L898.711 141.829H898.712Z" fill="#0098CA"/>
<path d="M1048.48 132.795C1047.66 136.453 1046.13 139.285 1043.87 141.257C1041.62 143.246 1038.85 144.241 1035.57 144.258C1031.33 144.274 1028.07 143.01 1025.76 140.465C1023.44 137.919 1022.28 134.312 1022.26 129.643L1022.16 107.763C1022.13 103.094 1023.27 99.4522 1025.56 96.8745C1027.83 94.2957 1031.1 92.9812 1035.34 92.9634C1037.47 92.9467 1039.43 93.4353 1041.16 94.4137C1042.89 95.3909 1044.38 96.8066 1045.59 98.6442C1046.8 100.482 1047.72 102.74 1048.35 105.404L1063.9 105.319C1062.89 99.5201 1061.09 94.565 1058.5 90.4691C1055.91 86.3733 1052.64 83.2546 1048.7 81.1143C1044.78 78.9907 1040.29 77.9277 1035.26 77.9455C1029.16 77.9789 1023.98 79.1766 1019.7 81.5361C1015.43 83.879 1012.18 87.2837 1009.94 91.7347C1007.69 96.1845 1006.59 101.561 1006.61 107.849L1006.71 129.712C1006.74 136.033 1007.91 141.393 1010.18 145.809C1012.47 150.209 1015.75 153.564 1020.06 155.873C1021.89 156.85 1023.56 157.905 1025.73 158.444C1027.18 158.831 1029.04 158.839 1030.66 159.009L1040.09 158.959C1041.52 158.774 1042.9 158.487 1044.21 158.082C1045.89 157.593 1047.51 156.935 1049.02 156.126C1052.92 154.036 1056.14 151.018 1058.7 147.057C1061.26 143.096 1063.02 138.325 1064.02 132.729L1048.48 132.796L1048.48 132.795Z" fill="#0098CA"/>
<path d="M1008.88 78.8882L993.178 78.9728L978.115 113.343L962.749 79.1075L947.047 79.1754L970.693 128.008L970.827 158.416V158.754L985.823 158.686V158.348L985.689 127.94L1008.88 78.8882Z" fill="#0098CA"/>
<path d="M1020.67 158.262C1020.67 158.262 1020.66 156.94 1020.87 156.5C1021.07 156.06 1021.83 154.267 1021.83 154.267L1024.82 154.253C1024.82 154.253 1025.38 155.882 1025.42 156.416C1025.45 156.95 1025.43 158.239 1025.43 158.239L1020.66 158.262H1020.67Z" fill="#1B3051"/>
<path d="M1037.78 158.195C1037.78 158.195 1037.77 156.873 1037.58 156.435C1037.39 155.996 1036.7 154.21 1036.7 154.21L1034 154.222C1034 154.222 1033.51 155.857 1033.48 156.39C1033.45 156.923 1033.49 158.213 1033.49 158.213L1037.78 158.193V158.195Z" fill="#1B3051"/>
<path d="M1026.64 84.0721C1026.64 84.0721 1026.56 87.0156 1026.19 88.3348L1023.22 90.4286L1034.43 92.0553L1031.74 88.3706C1031.74 88.3706 1030.92 84.4284 1031.33 82.9674C1031.75 81.5064 1026.64 84.0721 1026.64 84.0721H1026.64Z" fill="#FFB27D"/>
<path d="M1026.62 84.4787C1026.62 84.4787 1027.52 86.6107 1029.19 86.5559C1030.86 86.501 1031.23 84.6086 1031.23 84.6086L1026.62 84.4775V84.4787Z" fill="#ED985F"/>
<path d="M1025.62 82.7542C1025.62 82.7542 1025.07 80.0622 1024.69 79.2482C1024.31 78.4343 1023.98 74.7949 1028.14 74.5863C1028.14 74.5863 1029.74 74.7674 1030.62 74.23C1030.62 74.23 1030.62 74.7639 1030.4 74.9533C1030.4 74.9533 1031.84 74.6018 1032.97 75.8519C1034.11 77.102 1032.25 81.5053 1032.35 82.5409L1025.62 82.7554L1025.62 82.7542Z" fill="#2C3A64"/>
<path d="M1029 85.7313C1027.79 85.7158 1025.56 84.1129 1025.55 82.1168L1025.53 79.0005C1025.53 78.2712 1026.03 77.6718 1026.65 77.6694L1031.27 77.648C1031.89 77.6456 1032.4 78.239 1032.4 78.9684L1032.41 81.9083C1032.42 84.0021 1030.38 85.7491 1029 85.7313H1029Z" fill="#FFB27D"/>
<path d="M1025.54 80.6642C1025.54 80.6642 1025.54 78.7921 1027.02 78.4965C1028.49 78.2022 1031.81 79.3867 1032.28 78.0198C1032.74 76.6518 1025.87 76.7078 1025.52 77.5801C1025.18 78.4524 1025.54 80.6642 1025.54 80.6642H1025.54Z" fill="#2C3A64"/>
<path d="M1020.79 112.507C1020.79 112.507 1021.33 126.927 1020.66 135.159C1020 143.391 1020.76 154.839 1020.76 154.839C1020.76 154.839 1023.02 156.074 1025.46 154.817C1025.46 154.817 1028.07 138.908 1028.03 135.125C1028 131.095 1030.85 113.089 1030.85 113.089L1020.79 112.507H1020.79Z" fill="#2B478B"/>
<path d="M1037.67 154.76C1037.67 154.76 1035.42 156.016 1032.97 154.782C1032.97 154.782 1030.22 138.897 1030.22 135.114C1030.22 133.412 1029.68 129.222 1029.05 124.95C1028.2 119.106 1027.2 113.107 1027.2 113.107L1037.64 112.405C1037.64 112.405 1036.84 126.855 1037.58 135.08C1038.33 143.306 1037.67 154.76 1037.67 154.76H1037.67Z" fill="#2B478B"/>
<path d="M1030.22 135.114C1030.22 133.412 1029.68 129.222 1029.05 124.95C1029.67 122.394 1031.18 119.928 1031.18 119.928C1033.13 125.334 1030.22 135.114 1030.22 135.114Z" fill="#233862"/>
<path d="M1046.7 101.945C1043.02 93.0624 1036.48 88.5054 1031.74 88.3707C1030.71 89.759 1029.97 90.0832 1029.02 90.4645C1027.49 90.2596 1026.19 88.3791 1026.19 88.335C1024.52 88.5137 1017.01 89.3944 1011.95 101.817C1011.56 102.786 1011.49 105.084 1013.32 107.34C1014.62 108.944 1016.65 111.034 1019.8 113.488C1019.8 113.488 1020.09 112.853 1020.35 111.826C1020.35 111.826 1018.47 108.201 1017.34 105.746C1016.79 104.55 1016.14 103.182 1020.23 100.369C1020.34 103.49 1020.86 107.186 1020.48 110.53C1019.97 114.99 1020.87 114.906 1020.87 114.906C1020.87 114.906 1022.08 115.139 1023.78 115.356C1025.31 115.553 1027.24 115.739 1029.01 115.731C1033.07 115.712 1037.52 114.828 1037.52 114.828C1038.01 114.831 1038.19 113.725 1038.22 112.087C1038.47 112.907 1038.7 113.399 1038.7 113.399C1041.82 110.917 1043.84 108.807 1045.12 107.191C1046.92 104.919 1047.1 102.909 1046.7 101.943L1046.7 101.945ZM1041.08 105.636C1040.18 107.78 1038.63 110.747 1038.23 111.542C1038.22 108.873 1037.89 105.106 1037.74 102.314C1037.69 101.394 1037.64 100.539 1037.59 99.7431C1040.08 101.737 1042.37 102.589 1041.08 105.636Z" fill="#F9DDBF"/>
<path d="M1026.34 87.6177C1026.34 87.6177 1025.58 87.8691 1025.44 88.434C1025.44 88.434 1027.71 90.4396 1029.01 90.4647L1026.34 87.6177Z" fill="#F99746"/>
<path d="M1029.02 90.4645L1031.58 87.4888C1031.58 87.4888 1032.38 87.8367 1032.37 88.4135C1032.37 88.4135 1030.12 90.5371 1029.02 90.4645Z" fill="#F99746"/>
<path d="M1028.55 90.2488C1028.55 90.2488 1026.66 107.254 1027.36 109.323C1027.71 110.389 1028.19 111.309 1028.57 111.951C1028.84 112.413 1029.51 112.409 1029.77 111.943C1030.29 111.032 1030.97 109.715 1030.97 109.049C1030.96 107.969 1029.39 90.231 1029.39 90.231L1028.55 90.25V90.2488Z" fill="#F99746"/>
<path d="M1028.03 89.4181C1028.03 89.4181 1029.22 89.2929 1029.95 89.3632C1030.09 89.3775 1030.17 89.5337 1030.1 89.66C1029.9 90.027 1029.49 90.6622 1029.06 90.6646C1028.45 90.667 1027.5 89.4621 1028.03 89.4181H1028.03Z" fill="#F99746"/>
<path d="M1028.02 83.7293C1028.02 83.7293 1028.4 84.2381 1029.06 84.2167C1029.72 84.1952 1030.02 83.7197 1030.02 83.7197C1030.02 83.7197 1028.91 83.5422 1028.02 83.7293Z" fill="white"/>
<path d="M1019.99 112.008C1019.99 112.008 1021.44 110.686 1022.37 111.306C1023.35 111.961 1023.79 112.933 1023.24 113.003C1022.7 113.071 1021.02 112.881 1020.87 113.134C1020.71 113.386 1020.01 113.869 1019.8 113.489C1019.58 113.109 1019.99 112.008 1019.99 112.008H1019.99Z" fill="#FFB27D"/>
<path d="M1020.36 111.827C1020.09 112.854 1019.8 113.49 1019.8 113.49C1016.65 111.036 1014.62 108.946 1013.32 107.342C1014.29 107.264 1015.71 106.91 1017.34 105.747C1018.48 108.202 1020.36 111.827 1020.36 111.827Z" fill="#FFB27D"/>
<path d="M1038.5 111.921C1038.5 111.921 1037.25 110.776 1036.17 111.551C1035.56 111.983 1035.14 113.121 1035.67 113.025C1036.21 112.928 1037.47 112.804 1037.63 113.055C1037.79 113.305 1038.36 113.673 1038.7 113.399C1039.12 113.065 1038.5 111.92 1038.5 111.92V111.921Z" fill="#FFB27D"/>
<path d="M1038.13 111.744C1038.4 112.767 1038.7 113.4 1038.7 113.4C1041.82 110.918 1043.84 108.809 1045.12 107.193C1044.15 107.125 1042.72 106.783 1041.08 105.636C1039.97 108.102 1038.12 111.744 1038.12 111.744H1038.13Z" fill="#FFB27D"/>
<path d="M1003.81 158.602L992.757 158.653C992.162 158.153 993.159 157.005 994.206 156.924C994.66 156.887 995.236 156.98 995.894 157.116C996.037 155.091 996.864 145.992 1000.14 146.342C1003.82 146.734 1000.16 150.347 999.126 152.482C998.362 154.062 997.56 156.328 997.194 157.397C997.492 157.46 997.803 157.522 998.118 157.58C998.599 156.077 1000.39 151.022 1002.7 151.305C1005.41 151.637 1004.33 153.666 1002.42 154.876C1001.01 155.766 999.288 157.029 998.468 157.639C999.165 157.75 999.893 157.823 1000.63 157.802C1002.52 157.749 1003.45 158.303 1003.81 158.602H1003.81Z" fill="#D2E0FF"/>
<path d="M1114.61 158.096V158.265C1114.61 158.45 1114.46 158.619 1114.26 158.619L1040.09 158.956L1030.66 159.006L815.002 160.001C814.816 160.001 814.648 159.85 814.648 159.647V159.496C814.648 159.293 814.8 159.142 815.002 159.142L883.803 158.821L898.799 158.754L929.245 158.619L946.749 158.534L970.833 158.416L985.829 158.35L1026.07 158.164L1044.21 158.079L1114.26 157.758C1114.46 157.742 1114.61 157.91 1114.61 158.096H1114.61Z" fill="#233862"/>
<path d="M888.643 156.529C888.464 156.644 888.281 156.756 888.096 156.865C888.033 156.902 887.97 156.938 887.907 156.973C887.763 157.054 887.619 157.133 887.474 157.209C880.52 160.837 871.876 158.384 867.886 151.527C864.081 144.986 865.848 136.73 871.732 132.276C872.201 131.921 872.695 131.59 873.217 131.286C873.403 131.177 873.593 131.073 873.782 130.973C873.966 130.875 874.152 130.782 874.339 130.694C874.911 130.422 875.494 130.191 876.083 129.998C876.959 129.711 877.85 129.511 878.745 129.394C881.521 129.033 884.334 129.475 886.844 130.633C889.509 131.861 891.837 133.894 893.425 136.625C897.426 143.502 895.268 152.274 888.642 156.53L888.643 156.529Z" fill="#F78248"/>
<path d="M869.437 92.0174C869.481 91.8362 865.509 93.8383 865.308 94.0635C863.451 96.1466 863.996 98.8518 865.064 98.872C865.749 98.8852 865.622 100.027 865.622 100.027L873.241 96.7568C873.241 96.7568 872.297 91.3929 869.437 92.0174Z" fill="#2C3A64"/>
<path d="M870.376 92.432C870.376 92.432 868.468 89.019 864.422 90.971C862.283 92.003 862.134 96.5494 861.289 97.3299C859.397 99.0782 858.616 99.7181 858.963 102.664C859.31 105.611 868.501 109.264 867.977 111.704C867.977 111.704 871.725 107.047 868.695 104.18C867.555 103.101 866.288 100.486 866.407 100.023C866.526 99.562 870.377 92.432 870.377 92.432H870.376Z" fill="#2C3A64"/>
<path d="M867.424 106.458C866.901 103.989 863.698 103.238 862.194 105.263C861.923 105.628 861.733 106.057 861.674 106.564C861.342 109.371 865.871 120.775 866.518 121.806C867.694 123.684 874.598 130.108 874.598 130.108L875.861 129.333C875.861 129.333 870.947 121.088 870.188 120.318C869.311 119.428 868.419 111.146 867.424 106.458Z" fill="#ED985F"/>
<path d="M874.109 129.345C874.109 129.345 875.952 128.12 876.653 128.195C877.354 128.27 879.383 128.845 879.409 129.143C879.435 129.441 877.154 129.637 877.001 129.802C876.848 129.966 875.304 131.009 874.74 130.686C874.177 130.364 874.109 129.344 874.109 129.344V129.345Z" fill="#ED985F"/>
<path d="M861.341 156.877L859.688 156.641C859.688 156.641 854.114 152.246 853.247 144.001C853.159 143.162 853.138 142.31 853.196 141.45C853.203 141.352 853.191 141.253 853.137 141.169C853.137 141.169 853.137 141.169 853.134 141.167C852.955 140.895 852.51 140.213 851.906 139.243C851.311 138.288 850.293 136.481 849.171 134.454C847.152 130.803 844.799 126.436 843.993 125.045C841.424 120.614 842.639 117.62 842.639 117.62C842.639 117.62 849.744 116.884 851.685 115.167L852.392 116.247C852.392 116.247 853.964 123.07 853.891 123.102C853.968 123.334 854.046 123.57 854.125 123.81C855.358 127.561 856.779 132.252 857.558 136.073C857.996 138.223 858.233 140.098 858.116 141.377C858.077 141.815 858.131 142.488 858.251 143.319C858.961 148.217 861.34 156.877 861.34 156.877H861.341Z" fill="#2B478B"/>
<path d="M864.815 158.954L857.923 158.986C857.923 158.986 857.753 157.935 858.11 157.135C858.452 156.368 858.943 156.342 858.164 155.144C858.604 155.593 860.013 155.774 861.009 155.635C861.131 155.833 861.802 157.159 862.212 157.451C862.664 157.773 864.671 157.648 864.816 158.954H864.815Z" fill="#6980E2"/>
<path d="M854.125 123.81C853.539 127.138 852.142 132.678 849.171 134.454C847.152 130.803 844.799 126.436 843.993 125.045C841.424 120.614 842.639 117.62 842.639 117.62C842.639 117.62 849.744 116.884 851.685 115.167L852.392 116.247C852.392 116.247 853.964 123.07 853.891 123.102C853.968 123.334 854.046 123.57 854.125 123.81Z" fill="#233862"/>
<path d="M866.679 104.929C866.679 104.929 867.621 105.907 867.731 108.033C867.731 108.033 866.576 111.632 862.945 112.208C862.945 112.208 865.786 104.931 866.679 104.928V104.929Z" fill="#ED7D2B"/>
<path d="M849.264 118.102L849.282 116.812C846.715 117.148 840.413 113.779 840.413 113.779C840.413 113.779 837.734 115.581 837.39 120.694C837.223 123.19 836.135 133.746 836.024 136.897C835.984 138.038 835.972 138.853 835.969 139.179C835.969 139.18 835.969 139.181 835.969 139.182C835.969 139.281 835.921 139.369 835.86 139.448C835.332 140.127 834.874 140.846 834.479 141.591C830.594 148.911 832.689 158.825 832.689 158.825L833.598 158.589C833.598 158.589 836.864 148.287 839.01 143.828C839.374 143.071 839.705 142.482 839.983 142.141C840.793 141.147 841.644 139.461 842.481 137.433C844.063 133.598 845.592 128.54 846.682 124.624C846.761 124.639 849.265 118.102 849.265 118.102H849.264Z" fill="#2B478B"/>
<path d="M864.253 109.416C860.05 108.471 862.705 102.55 862.949 102.652C863.53 102.531 864.803 101.502 865.937 99.499L866.091 99.6325L868.681 101.885C868.681 101.885 868.088 102.768 867.591 103.633C867.202 104.31 866.872 104.977 866.925 105.205C867.134 105.367 865.373 109.669 864.252 109.416H864.253Z" fill="#FFB27D"/>
<path d="M868.681 101.885C868.681 101.885 868.088 102.766 867.591 103.633C865.983 102.651 865.973 100.662 866.09 99.6323L868.68 101.885H868.681Z" fill="#ED985F"/>
<path d="M868.758 103.019C868.758 103.019 864.856 100.868 866.231 98.4539C867.607 96.0407 868.029 94.1375 870.579 95.4091C873.129 96.6806 873.084 97.8759 872.821 98.7935C872.558 99.7111 869.809 103.517 868.76 103.019H868.758Z" fill="#FFB27D"/>
<path d="M873.471 97.3858C873.288 96.3181 872.745 96.218 872.368 96.2918C870.92 93.918 868.575 94.857 868.575 94.857C867.328 96.4396 865.516 96.7173 865.516 96.7173C865.516 96.7173 865.971 97.5574 867.835 98.0699C868.403 98.226 869.048 98.1271 869.671 97.9149C868.383 98.6419 867.034 98.9243 867.034 98.9243C869.487 99.1376 871.811 96.8806 872.052 96.6398C872.166 96.9878 872.368 97.7147 872.251 98.2486C872.093 98.9732 871.458 100.288 871.85 100.456C871.85 100.456 873.747 98.9887 873.472 97.387L873.471 97.3858Z" fill="#2C3A64"/>
<path d="M838.175 159.077L831.283 159.109C831.283 159.109 831.113 158.058 831.468 157.258C831.81 156.491 832.349 156.14 832.215 155.214C832.655 155.664 833.371 156.167 834.367 156.027C834.49 156.225 835.161 157.282 835.57 157.574C836.022 157.896 838.029 157.771 838.175 159.077Z" fill="#6980E2"/>
<path d="M864.772 114.098C863.886 114.413 862.643 114.588 861.37 114.732C859.559 114.939 857.688 115.083 856.709 115.48C856.352 115.624 856.114 115.801 856.04 116.028C855.622 117.309 853.758 119.292 853.758 119.292C841.755 118.801 840.414 113.779 840.414 113.779C848.444 104.338 861.972 101.929 861.972 101.929C861.972 101.929 864.44 101.193 864.924 102.969C865.486 105.032 866.98 104.882 866.98 104.882C866.98 104.882 867.377 113.175 864.772 114.1V114.098Z" fill="#F99746"/>
<path d="M861.369 114.733C859.558 114.939 857.688 115.083 856.709 115.48C856.28 109.487 859.084 104.965 859.084 104.965C859.084 104.965 860.961 112.467 861.368 114.734L861.369 114.733Z" fill="#ED7D2B"/>
<path d="M863.182 103.785C863.182 103.785 858.643 104.256 858.292 107.214C857.941 110.171 862.716 122.189 863.396 123.275C864.636 125.255 871.911 132.024 871.911 132.024L873.242 131.207C873.242 131.207 868.064 122.519 867.265 121.707C866.009 120.433 864.724 104.803 863.182 103.786V103.785Z" fill="#FFB27D"/>
<path d="M858.434 108.991C858.446 109.058 862.632 110.339 865.316 108.959C865.316 108.959 865.863 102.74 862.653 103.092C859.443 103.445 857.546 104.466 857.473 106.007C857.399 107.547 858.434 108.991 858.434 108.991Z" fill="#F99746"/>
<path d="M871.5 131.161C871.5 131.161 873.122 129.655 873.826 129.617C874.529 129.577 876.624 129.817 876.697 130.108C876.771 130.397 874.551 130.96 874.427 131.147C874.303 131.333 872.946 132.611 872.339 132.385C871.731 132.157 871.5 131.162 871.5 131.162V131.161Z" fill="#FFB27D"/>
<path d="M874.918 150.973C874.606 150.705 874.388 150.338 874.307 149.926L872.589 141.124C872.394 140.124 873.045 139.154 874.044 138.958C875.043 138.763 876.011 139.415 876.206 140.416L877.471 146.896L889.752 141.129C890.673 140.696 891.771 141.093 892.203 142.016C892.635 142.939 892.239 144.039 891.316 144.471L876.898 151.243C876.384 151.484 875.788 151.475 875.282 151.217C875.15 151.151 875.027 151.069 874.918 150.973Z" fill="white"/>
</g>
</g>
<defs>
<linearGradient id="paint0_linear_2905_1362" x1="-14.2642" y1="143.23" x2="43.7439" y2="161.927" gradientUnits="userSpaceOnUse">
<stop offset="0.21" stop-color="#CCD9E5"/>
<stop offset="1" stop-color="#AAD5E8"/>
</linearGradient>
<linearGradient id="paint1_linear_2905_1362" x1="660.911" y1="-10.0012" x2="628.758" y2="41.0726" gradientUnits="userSpaceOnUse">
<stop offset="0.21" stop-color="#CCD9E5"/>
<stop offset="1" stop-color="#AAD5E8"/>
</linearGradient>
<linearGradient id="paint2_linear_2905_1362" x1="890.465" y1="140.332" x2="800.754" y2="146.644" gradientUnits="userSpaceOnUse">
<stop offset="0.03" stop-color="#004D8A"/>
<stop offset="1" stop-color="#CC66CC"/>
</linearGradient>
<linearGradient id="paint3_linear_2905_1362" x1="883.431" y1="148.715" x2="806.821" y2="106.129" gradientUnits="userSpaceOnUse">
<stop offset="0.03" stop-color="#004D8A"/>
<stop offset="1" stop-color="#CC66CC"/>
</linearGradient>
<linearGradient id="paint4_linear_2905_1362" x1="880.081" y1="131.648" x2="831.111" y2="80.2347" gradientUnits="userSpaceOnUse">
<stop offset="0.03" stop-color="#004D8A"/>
<stop offset="1" stop-color="#CC66CC"/>
</linearGradient>
<linearGradient id="paint5_linear_2905_1362" x1="1027.72" y1="123.251" x2="1118.08" y2="123.693" gradientUnits="userSpaceOnUse">
<stop offset="0.03" stop-color="#004D8A"/>
<stop offset="1" stop-color="#CC66CC"/>
</linearGradient>
<linearGradient id="paint6_linear_2905_1362" x1="1036.36" y1="134.237" x2="1111.17" y2="74.1493" gradientUnits="userSpaceOnUse">
<stop offset="0.03" stop-color="#004D8A"/>
<stop offset="1" stop-color="#CC66CC"/>
</linearGradient>
<linearGradient id="paint7_linear_2905_1362" x1="1053.89" y1="166.723" x2="1077.98" y2="130.193" gradientUnits="userSpaceOnUse">
<stop offset="0.03" stop-color="#004D8A"/>
<stop offset="1" stop-color="#CC66CC"/>
</linearGradient>
<clipPath id="clip0_2905_1362">
<rect width="1120" height="160" rx="15" fill="white"/>
</clipPath>
<clipPath id="clip1_2905_1362">
<rect width="319" height="154" fill="white" transform="translate(801 6)"/>
</clipPath>
</defs>
</svg>
