<svg width="1120" height="160" viewBox="0 0 1120 160" fill="none" xmlns="http://www.w3.org/2000/svg">
<g clip-path="url(#clip0_1920_1687)">
<rect width="1120" height="160" rx="15" fill="white"/>
<path d="M40.3472 134.609L35.9811 133.464L33.8121 134.157C31.953 131.23 30.1126 129.698 27.2582 127.805L27.9624 124.814L26.6573 120.484L22.3381 118.702L16.526 123.078C13.9157 122.57 11.512 122.265 6.91112 122.459L5.58719 119.902L2.63887 118L-2.50656 119.902L-4.81641 122.182L-0.0840816 120.437L2.68584 122.339L4.58251 126.06C7.82189 125.571 11.0707 125.728 14.1504 126.457L15.9626 123.512L18.8264 121.767L23.4273 123.816L24.0188 127.085L22.9108 130.381C25.5868 132.264 27.9061 134.674 29.6807 137.545L33.0985 136.733L36.2909 137.527L38.0655 142.18L36.2252 144.866L33.0515 146.445C33.5961 149.713 33.4553 152.991 32.6947 156.102L36.8261 158.558L39.2674 162.436L36.5163 165.898L42.2439 158.697L39.6336 153.905L38.1313 153.305C38.2721 149.492 38.3941 147.581 37.8777 144.22L40.4692 142.226L42.3847 139.041L40.3566 134.618L40.3472 134.609Z" fill="#A4BBDD" fill-opacity="0.25"/>
<path d="M33.093 136.714L29.6752 137.527C27.9006 134.665 25.5814 132.246 22.9054 130.363L24.0134 127.067L23.4218 123.798L18.821 121.749L15.9571 123.494L14.145 126.439C11.0652 125.709 7.81643 125.562 4.57705 126.042L2.68038 122.321L-0.0895405 120.419L-4.82187 122.164L-5.60118 125.386L-4.62466 129.31C-7.65748 131.11 -10.202 133.474 -12.1551 136.216L-15.5916 135.099L-18.9155 135.68L-21 140.204L-19.2254 143.02L-16.0799 144.894C-16.8123 148.015 -16.9249 151.302 -16.3428 154.57L-19.0188 155.899L-20.8591 158.586L-19.0845 163.239L-15.8921 164.033L-12.9626 163.341C-10.9532 166.535 -8.27718 169.167 -5.17864 171.115L-6.11759 173.894L-5.52608 177.162L-0.925194 179.211L1.9386 177.476L3.7132 174.586C6.61456 175.121 9.6474 175.149 12.6614 174.623L14.5957 178.399L17.3656 180.301L22.0979 178.556L22.8772 175.334L21.8256 171.124C24.4734 169.462 26.7269 167.357 28.5203 164.947L33.1869 166.471L36.5108 165.889L39.2619 162.427L36.8206 158.549L32.6893 156.093C33.4404 152.982 33.5907 149.705 33.0461 146.436L36.2197 144.857L38.0601 142.171L36.2854 137.518L33.093 136.724V136.714ZM12.6051 160.857C6.71785 163.036 0.154591 160.1 -2.05195 154.321C-4.26787 148.532 -1.28202 142.079 4.59582 139.909C10.483 137.73 17.0463 140.666 19.2529 146.445C21.4688 152.234 18.4829 158.688 12.6051 160.857Z" fill="url(#paint0_linear_1920_1687)" fill-opacity="0.1"/>
<path d="M655.234 44.1522L657.488 40.2973L657.37 38.0559C660.723 37.0458 662.703 35.6927 665.299 33.4686L668.053 34.9124L672.64 34.7922L675.506 31.1468L672.716 24.4882C673.89 22.1379 674.811 19.9313 675.811 15.5068L678.664 14.9099L681.293 12.599L680.758 7.21463L679.118 4.42829L679.606 9.37926L677.023 11.5206L672.881 12.3609C672.522 15.5675 671.528 18.6157 670.015 21.355L672.436 23.8403L673.407 27.0147L670.205 30.8586L666.844 30.5751L663.897 28.6686C661.356 30.7254 658.391 32.3068 655.114 33.2509L655.027 36.7107L653.421 39.5405L648.396 40.0234L646.236 37.5784L645.508 34.1523C642.16 33.8242 638.98 32.842 636.123 31.3136L632.644 34.606L628.207 35.9235L625.522 32.4117L631.106 39.7212L636.484 38.4796L637.461 37.2066C641.167 38.3273 643.011 38.938 646.442 39.3168L647.728 42.2969L650.358 44.9424L655.223 44.1587L655.234 44.1522Z" fill="#A4BBDD" fill-opacity="0.25"/>
<path d="M655.048 36.7111L655.135 33.2513C658.403 32.3048 661.377 30.7258 663.918 28.669L666.866 30.5755L670.226 30.8589L673.428 27.0151L672.457 23.8406L670.036 21.3554C671.549 18.616 672.534 15.5654 672.902 12.3612L677.044 11.5209L679.627 9.37959L679.14 4.42862L676.179 2.85372L672.076 2.76661C671.094 -0.582859 669.434 -3.61388 667.248 -6.18045L669.234 -9.1587L669.523 -12.4695L665.623 -15.6222L662.401 -14.6638L659.748 -12.1582C656.875 -13.6622 653.679 -14.62 650.321 -14.9124L649.709 -17.8008L647.549 -20.2459L642.523 -19.7629L640.918 -16.9332L640.839 -13.9686C637.184 -12.885 633.909 -11.0217 631.196 -8.57991L628.712 -10.1919L625.351 -10.4754L622.149 -6.63147L623.111 -3.45943L625.488 -1.02426C624.211 1.59567 623.399 4.47204 623.136 7.4739L618.929 8.3356L616.346 10.4769L616.834 15.4279L619.794 17.0028L624.197 17.0925C625.143 20.0402 626.625 22.7275 628.526 25.0563L625.823 29.0989L625.534 32.4097L628.219 35.9214L632.656 34.604L636.135 31.3116C638.994 32.831 642.172 33.8222 645.52 34.1503L646.248 37.5763L648.408 40.0214L653.433 39.5384L655.039 36.7087L655.048 36.7111ZM636.659 10.9831C636.044 4.82177 640.624 -0.658514 646.867 -1.26058C653.121 -1.86918 658.681 2.63997 659.289 8.78999C659.903 14.9513 655.323 20.4316 649.081 21.0337C642.827 21.6423 637.266 17.1331 636.659 10.9831Z" fill="url(#paint1_linear_1920_1687)" fill-opacity="0.1"/>
<path d="M8.992 92L5.408 87.6L3.904 89.168V92H1.328V80.8H3.904V86.032L8.864 80.8H11.744L7.104 85.792L12.016 92H8.992ZM22.0873 80.8L17.7353 88.032V92H15.1432V88L10.8072 80.8H13.5593L16.5513 85.776L19.5433 80.8H22.0873ZM28.0474 92.192C24.5754 92.192 21.9834 89.776 21.9834 86.4C21.9834 83.024 24.5754 80.608 28.0634 80.608C29.9994 80.608 31.6154 81.312 32.6714 82.592L31.0074 84.128C30.2554 83.264 29.3114 82.816 28.1914 82.816C26.0954 82.816 24.6074 84.288 24.6074 86.4C24.6074 88.512 26.0954 89.984 28.1914 89.984C29.3114 89.984 30.2554 89.536 31.0074 88.656L32.6714 90.192C31.6154 91.488 29.9994 92.192 28.0474 92.192ZM47.145 80.8H49.721L44.873 92H42.313L37.481 80.8H40.281L43.689 88.8L47.145 80.8ZM58.2715 87.728C58.2715 87.92 58.2395 88.192 58.2235 88.4H51.7115C51.9515 89.472 52.8635 90.128 54.1755 90.128C55.0875 90.128 55.7435 89.856 56.3355 89.296L57.6635 90.736C56.8635 91.648 55.6635 92.128 54.1115 92.128C51.1355 92.128 49.1995 90.256 49.1995 87.696C49.1995 85.12 51.1675 83.264 53.7915 83.264C56.3195 83.264 58.2715 84.96 58.2715 87.728ZM53.8075 85.152C52.6715 85.152 51.8555 85.84 51.6795 86.944H55.9195C55.7435 85.856 54.9275 85.152 53.8075 85.152ZM62.3173 84.528C62.9253 83.696 63.9493 83.264 65.2773 83.264V85.568C65.0693 85.552 64.9093 85.536 64.7173 85.536C63.3413 85.536 62.4293 86.288 62.4293 87.936V92H59.9333V83.392H62.3173V84.528ZM68.0094 82.192C67.0814 82.192 66.4574 81.584 66.4574 80.8C66.4574 80.016 67.0814 79.408 68.0094 79.408C68.9374 79.408 69.5614 79.984 69.5614 80.752C69.5614 81.584 68.9374 82.192 68.0094 82.192ZM66.7614 92V83.392H69.2574V92H66.7614ZM80.2939 82.192C79.3659 82.192 78.7419 81.584 78.7419 80.8C78.7419 80.016 79.3659 79.408 80.2939 79.408C81.2219 79.408 81.8459 79.984 81.8459 80.752C81.8459 81.584 81.2219 82.192 80.2939 82.192ZM75.4459 81.968C74.7099 81.968 74.3099 82.368 74.3099 83.216V83.584H76.5179V85.504H74.3739V92H71.8779V85.504H70.5499V83.584H71.8779V83.2C71.8779 81.264 73.0619 80 75.2059 80C75.9099 80 76.6459 80.144 77.1099 80.464L76.4539 82.272C76.1819 82.08 75.8299 81.968 75.4459 81.968ZM79.0459 92V83.392H81.5419V92H79.0459ZM88.0151 92.128C85.2151 92.128 83.2151 90.288 83.2151 87.696C83.2151 85.104 85.2151 83.264 88.0151 83.264C89.8231 83.264 91.2471 84.048 91.8711 85.456L89.9351 86.496C89.4711 85.68 88.7831 85.312 87.9991 85.312C86.7351 85.312 85.7431 86.192 85.7431 87.696C85.7431 89.2 86.7351 90.08 87.9991 90.08C88.7831 90.08 89.4711 89.728 89.9351 88.896L91.8711 89.952C91.2471 91.328 89.8231 92.128 88.0151 92.128ZM96.7803 83.264C99.4043 83.264 100.924 84.48 100.924 87.088V92H98.5883V90.928C98.1243 91.712 97.2283 92.128 95.9643 92.128C93.9483 92.128 92.7483 91.008 92.7483 89.52C92.7483 88 93.8203 86.944 96.4443 86.944H98.4283C98.4283 85.872 97.7883 85.248 96.4443 85.248C95.5323 85.248 94.5883 85.552 93.9643 86.048L93.0683 84.304C94.0123 83.632 95.4043 83.264 96.7803 83.264ZM96.5883 90.448C97.4203 90.448 98.1403 90.064 98.4283 89.28V88.4H96.7163C95.5483 88.4 95.1803 88.832 95.1803 89.408C95.1803 90.032 95.7083 90.448 96.5883 90.448ZM108.063 89.824L108.735 91.584C108.223 91.952 107.471 92.128 106.703 92.128C104.671 92.128 103.487 91.088 103.487 89.04V85.504H102.159V83.584H103.487V81.488H105.983V83.584H108.127V85.504H105.983V89.008C105.983 89.744 106.383 90.144 107.055 90.144C107.423 90.144 107.791 90.032 108.063 89.824ZM111.384 82.192C110.456 82.192 109.832 81.584 109.832 80.8C109.832 80.016 110.456 79.408 111.384 79.408C112.312 79.408 112.936 79.984 112.936 80.752C112.936 81.584 112.312 82.192 111.384 82.192ZM110.136 92V83.392H112.632V92H110.136ZM119.045 92.128C116.309 92.128 114.309 90.288 114.309 87.696C114.309 85.104 116.309 83.264 119.045 83.264C121.781 83.264 123.765 85.104 123.765 87.696C123.765 90.288 121.781 92.128 119.045 92.128ZM119.045 90.08C120.293 90.08 121.237 89.184 121.237 87.696C121.237 86.208 120.293 85.312 119.045 85.312C117.797 85.312 116.837 86.208 116.837 87.696C116.837 89.184 117.797 90.08 119.045 90.08ZM130.665 83.264C132.697 83.264 134.233 84.448 134.233 87.072V92H131.737V87.456C131.737 86.064 131.097 85.424 129.993 85.424C128.793 85.424 127.929 86.16 127.929 87.744V92H125.433V83.392H127.817V84.4C128.489 83.664 129.497 83.264 130.665 83.264Z" fill="#262626"/>
<path d="M11.06 57.28C5.684 57.28 2.464 54.172 2.464 48.46V37.4H6.104V48.32C6.104 52.352 7.924 54.088 11.088 54.088C14.252 54.088 16.044 52.352 16.044 48.32V37.4H19.628V48.46C19.628 54.172 16.408 57.28 11.06 57.28ZM32.6778 41.88C37.0458 41.88 40.2658 44.904 40.2658 49.524C40.2658 54.172 37.0458 57.196 32.6778 57.196C30.7738 57.196 29.0938 56.552 27.8898 55.18V62.432H24.3898V42.048H27.7218V44.008C28.8978 42.58 30.6338 41.88 32.6778 41.88ZM32.2858 54.2C34.8058 54.2 36.7098 52.38 36.7098 49.524C36.7098 46.668 34.8058 44.848 32.2858 44.848C29.7658 44.848 27.8338 46.668 27.8338 49.524C27.8338 52.38 29.7658 54.2 32.2858 54.2ZM54.7291 36.224H58.2291V57H54.8691V55.068C53.6931 56.496 51.9571 57.196 49.9131 57.196C45.5731 57.196 42.3531 54.172 42.3531 49.524C42.3531 44.876 45.5731 41.88 49.9131 41.88C51.8451 41.88 53.5531 42.524 54.7291 43.896V36.224ZM50.3331 54.2C52.8531 54.2 54.7851 52.38 54.7851 49.524C54.7851 46.668 52.8531 44.848 50.3331 44.848C47.8131 44.848 45.8811 46.668 45.8811 49.524C45.8811 52.38 47.8131 54.2 50.3331 54.2ZM68.5197 41.88C72.8317 41.88 75.3237 43.924 75.3237 48.236V57H72.0197V55.18C71.1797 56.468 69.5557 57.196 67.3157 57.196C63.8997 57.196 61.7437 55.32 61.7437 52.716C61.7437 50.224 63.4237 48.264 67.9597 48.264H71.8237V48.04C71.8237 45.996 70.5917 44.792 68.0997 44.792C66.4197 44.792 64.6837 45.352 63.5637 46.276L62.1917 43.728C63.7877 42.496 66.1117 41.88 68.5197 41.88ZM68.0437 54.648C69.7517 54.648 71.2357 53.864 71.8237 52.324V50.588H68.2117C65.8317 50.588 65.1877 51.484 65.1877 52.576C65.1877 53.836 66.2517 54.648 68.0437 54.648ZM87.8235 53.696L88.8035 56.188C87.9635 56.86 86.7035 57.196 85.4435 57.196C82.1675 57.196 80.2915 55.46 80.2915 52.156V44.96H77.8275V42.16H80.2915V38.744H83.7915V42.16H87.7955V44.96H83.7915V52.072C83.7915 53.528 84.5195 54.312 85.8635 54.312C86.5915 54.312 87.2915 54.116 87.8235 53.696ZM105.247 49.608C105.247 49.888 105.219 50.308 105.191 50.644H93.4585C93.8785 52.828 95.6985 54.228 98.3025 54.228C99.9825 54.228 101.299 53.696 102.363 52.604L104.239 54.76C102.895 56.356 100.795 57.196 98.2185 57.196C93.2065 57.196 89.9585 53.976 89.9585 49.524C89.9585 45.072 93.2345 41.88 97.6865 41.88C102.055 41.88 105.247 44.932 105.247 49.608ZM97.6865 44.68C95.4185 44.68 93.7665 46.136 93.4305 48.32H101.915C101.635 46.164 99.9825 44.68 97.6865 44.68ZM116.683 57V37.4H120.323V57H116.683ZM136.432 36.224H139.932V57H136.572V55.068C135.396 56.496 133.66 57.196 131.616 57.196C127.276 57.196 124.056 54.172 124.056 49.524C124.056 44.876 127.276 41.88 131.616 41.88C133.548 41.88 135.256 42.524 136.432 43.896V36.224ZM132.036 54.2C134.556 54.2 136.488 52.38 136.488 49.524C136.488 46.668 134.556 44.848 132.036 44.848C129.516 44.848 127.584 46.668 127.584 49.524C127.584 52.38 129.516 54.2 132.036 54.2ZM158.567 49.608C158.567 49.888 158.539 50.308 158.511 50.644H146.779C147.199 52.828 149.019 54.228 151.623 54.228C153.303 54.228 154.619 53.696 155.683 52.604L157.559 54.76C156.215 56.356 154.115 57.196 151.539 57.196C146.527 57.196 143.279 53.976 143.279 49.524C143.279 45.072 146.555 41.88 151.007 41.88C155.375 41.88 158.567 44.932 158.567 49.608ZM151.007 44.68C148.739 44.68 147.087 46.136 146.751 48.32H155.235C154.955 46.164 153.303 44.68 151.007 44.68ZM170.413 41.88C173.997 41.88 176.657 43.924 176.657 48.432V57H173.157V48.88C173.157 46.22 171.841 44.932 169.601 44.932C167.109 44.932 165.429 46.444 165.429 49.44V57H161.929V42.048H165.261V43.98C166.409 42.608 168.229 41.88 170.413 41.88ZM189.105 53.696L190.085 56.188C189.245 56.86 187.985 57.196 186.725 57.196C183.449 57.196 181.573 55.46 181.573 52.156V44.96H179.109V42.16H181.573V38.744H185.073V42.16H189.077V44.96H185.073V52.072C185.073 53.528 185.801 54.312 187.145 54.312C187.873 54.312 188.573 54.116 189.105 53.696ZM194.728 39.584C193.44 39.584 192.488 38.66 192.488 37.484C192.488 36.308 193.44 35.384 194.728 35.384C196.016 35.384 196.968 36.252 196.968 37.4C196.968 38.632 196.044 39.584 194.728 39.584ZM192.964 57V42.048H196.464V57H192.964ZM209.066 53.696L210.046 56.188C209.206 56.86 207.946 57.196 206.686 57.196C203.41 57.196 201.534 55.46 201.534 52.156V44.96H199.07V42.16H201.534V38.744H205.034V42.16H209.038V44.96H205.034V52.072C205.034 53.528 205.762 54.312 207.106 54.312C207.834 54.312 208.534 54.116 209.066 53.696ZM223.291 42.048H226.651L219.651 58.204C218.279 61.592 216.375 62.628 213.883 62.628C212.399 62.628 210.831 62.124 209.879 61.256L211.279 58.68C211.951 59.324 212.903 59.716 213.855 59.716C215.087 59.716 215.815 59.128 216.487 57.644L216.739 57.056L210.215 42.048H213.855L218.559 53.108L223.291 42.048Z" fill="#262626"/>
<path d="M6.32 123.128C3.376 123.128 1.584 121.416 1.584 118.168V111.8H3.184V118.104C3.184 120.584 4.32 121.704 6.336 121.704C8.352 121.704 9.504 120.584 9.504 118.104V111.8H11.056V118.168C11.056 121.416 9.28 123.128 6.32 123.128ZM18.6083 114.44C21.0883 114.44 22.8963 116.168 22.8963 118.76C22.8963 121.368 21.0883 123.096 18.6083 123.096C17.4083 123.096 16.3523 122.632 15.6483 121.72V126.104H14.1123V114.52H15.5843V115.864C16.2723 114.92 17.3602 114.44 18.6083 114.44ZM18.4803 121.752C20.1123 121.752 21.3443 120.568 21.3443 118.76C21.3443 116.968 20.1123 115.784 18.4803 115.784C16.8643 115.784 15.6323 116.968 15.6323 118.76C15.6323 120.568 16.8643 121.752 18.4803 121.752ZM31.4825 111.128H33.0185V123H31.5465V121.656C30.8585 122.616 29.7705 123.096 28.5225 123.096C26.0425 123.096 24.2345 121.352 24.2345 118.76C24.2345 116.168 26.0425 114.44 28.5225 114.44C29.7225 114.44 30.7785 114.888 31.4825 115.8V111.128ZM28.6505 121.752C30.2665 121.752 31.4985 120.568 31.4985 118.76C31.4985 116.952 30.2665 115.784 28.6505 115.784C27.0185 115.784 25.7865 116.952 25.7865 118.76C25.7865 120.568 27.0185 121.752 28.6505 121.752ZM39.0128 114.44C41.3328 114.44 42.6448 115.56 42.6448 117.88V123H41.1888V121.88C40.6768 122.648 39.7328 123.096 38.4048 123.096C36.4848 123.096 35.2688 122.072 35.2688 120.6C35.2688 119.24 36.1488 118.12 38.6768 118.12H41.1088V117.816C41.1088 116.52 40.3568 115.768 38.8368 115.768C37.8288 115.768 36.8048 116.12 36.1488 116.68L35.5088 115.528C36.3888 114.824 37.6528 114.44 39.0128 114.44ZM38.6608 121.912C39.8128 121.912 40.7248 121.384 41.1088 120.408V119.224H38.7408C37.2208 119.224 36.7888 119.816 36.7888 120.536C36.7888 121.384 37.4928 121.912 38.6608 121.912ZM49.7753 121.4L50.2553 122.504C49.7913 122.904 49.0873 123.096 48.3993 123.096C46.6873 123.096 45.7113 122.152 45.7113 120.44V115.784H44.2713V114.52H45.7113V112.664H47.2473V114.52H49.6793V115.784H47.2473V120.376C47.2473 121.288 47.7273 121.8 48.5753 121.8C49.0233 121.8 49.4553 121.656 49.7753 121.4ZM59.495 118.808C59.495 118.936 59.479 119.128 59.463 119.272H52.583C52.775 120.76 53.975 121.752 55.655 121.752C56.647 121.752 57.479 121.416 58.103 120.728L58.951 121.72C58.183 122.616 57.015 123.096 55.607 123.096C52.871 123.096 51.047 121.288 51.047 118.76C51.047 116.248 52.855 114.44 55.303 114.44C57.751 114.44 59.495 116.2 59.495 118.808ZM55.303 115.736C53.831 115.736 52.743 116.728 52.583 118.168H58.023C57.863 116.744 56.791 115.736 55.303 115.736ZM71.9248 114.52H73.4288L69.3168 123.848C68.5648 125.64 67.5888 126.2 66.2928 126.2C65.4768 126.2 64.6448 125.928 64.1167 125.416L64.7728 124.264C65.1888 124.664 65.7168 124.888 66.2928 124.888C67.0288 124.888 67.4928 124.552 67.9088 123.576L68.1808 122.984L64.4367 114.52H66.0368L68.9968 121.304L71.9248 114.52ZM78.2599 123.096C75.7159 123.096 73.8439 121.288 73.8439 118.76C73.8439 116.232 75.7159 114.44 78.2599 114.44C80.8039 114.44 82.6599 116.232 82.6599 118.76C82.6599 121.288 80.8039 123.096 78.2599 123.096ZM78.2599 121.752C79.8919 121.752 81.1079 120.568 81.1079 118.76C81.1079 116.952 79.8919 115.784 78.2599 115.784C76.6279 115.784 75.3959 116.952 75.3959 118.76C75.3959 120.568 76.6279 121.752 78.2599 121.752ZM91.1521 114.52H92.6881V123H91.2321V121.72C90.6081 122.6 89.5521 123.096 88.3521 123.096C86.1601 123.096 84.7041 121.896 84.7041 119.4V114.52H86.2401V119.224C86.2401 120.888 87.0721 121.72 88.5281 121.72C90.1281 121.72 91.1521 120.728 91.1521 118.904V114.52ZM97.0843 115.944C97.6283 114.952 98.6843 114.44 100.172 114.44V115.928C100.044 115.912 99.9323 115.912 99.8203 115.912C98.1723 115.912 97.1483 116.92 97.1483 118.776V123H95.6123V114.52H97.0843V115.944ZM114.632 123L110.344 118.024L108.296 120.104V123H106.696V111.8H108.296V118.056L114.376 111.8H116.2L111.416 116.84L116.504 123H114.632ZM126.166 111.8L121.718 119.128V123H120.134V119.096L115.686 111.8H117.398L120.982 117.704L124.582 111.8H126.166ZM132.313 123.128C128.921 123.128 126.393 120.712 126.393 117.4C126.393 114.088 128.921 111.672 132.329 111.672C134.057 111.672 135.561 112.264 136.585 113.416L135.545 114.424C134.681 113.512 133.625 113.096 132.393 113.096C129.865 113.096 127.993 114.92 127.993 117.4C127.993 119.88 129.865 121.704 132.393 121.704C133.625 121.704 134.681 121.272 135.545 120.36L136.585 121.368C135.561 122.52 134.057 123.128 132.313 123.128ZM149.404 111.128H150.94V123H149.468V121.656C148.78 122.616 147.692 123.096 146.444 123.096C143.964 123.096 142.156 121.352 142.156 118.76C142.156 116.168 143.964 114.44 146.444 114.44C147.644 114.44 148.7 114.888 149.404 115.8V111.128ZM146.572 121.752C148.188 121.752 149.42 120.568 149.42 118.76C149.42 116.952 148.188 115.784 146.572 115.784C144.94 115.784 143.708 116.952 143.708 118.76C143.708 120.568 144.94 121.752 146.572 121.752ZM161.511 118.808C161.511 118.936 161.495 119.128 161.479 119.272H154.599C154.791 120.76 155.991 121.752 157.671 121.752C158.663 121.752 159.495 121.416 160.119 120.728L160.967 121.72C160.199 122.616 159.031 123.096 157.623 123.096C154.887 123.096 153.063 121.288 153.063 118.76C153.063 116.248 154.871 114.44 157.319 114.44C159.767 114.44 161.511 116.2 161.511 118.808ZM157.319 115.736C155.847 115.736 154.759 116.728 154.599 118.168H160.039C159.879 116.744 158.807 115.736 157.319 115.736ZM167.932 121.4L168.412 122.504C167.948 122.904 167.244 123.096 166.556 123.096C164.844 123.096 163.868 122.152 163.868 120.44V115.784H162.428V114.52H163.868V112.664H165.404V114.52H167.836V115.784H165.404V120.376C165.404 121.288 165.884 121.8 166.732 121.8C167.18 121.8 167.612 121.656 167.932 121.4ZM173.357 114.44C175.677 114.44 176.989 115.56 176.989 117.88V123H175.533V121.88C175.021 122.648 174.077 123.096 172.749 123.096C170.829 123.096 169.613 122.072 169.613 120.6C169.613 119.24 170.493 118.12 173.021 118.12H175.453V117.816C175.453 116.52 174.701 115.768 173.181 115.768C172.173 115.768 171.149 116.12 170.493 116.68L169.853 115.528C170.733 114.824 171.997 114.44 173.357 114.44ZM173.005 121.912C174.157 121.912 175.069 121.384 175.453 120.408V119.224H173.085C171.565 119.224 171.133 119.816 171.133 120.536C171.133 121.384 171.837 121.912 173.005 121.912ZM180.599 112.888C180.007 112.888 179.559 112.456 179.559 111.896C179.559 111.336 180.007 110.888 180.599 110.888C181.191 110.888 181.639 111.32 181.639 111.864C181.639 112.44 181.207 112.888 180.599 112.888ZM179.831 123V114.52H181.367V123H179.831ZM184.3 123V111.128H185.836V123H184.3ZM191.201 123.096C189.793 123.096 188.401 122.664 187.697 122.104L188.337 120.888C189.057 121.4 190.209 121.768 191.312 121.768C192.737 121.768 193.329 121.336 193.329 120.616C193.329 118.712 187.969 120.36 187.969 116.984C187.969 115.464 189.329 114.44 191.505 114.44C192.609 114.44 193.857 114.728 194.593 115.208L193.937 116.424C193.169 115.928 192.321 115.752 191.489 115.752C190.145 115.752 189.489 116.248 189.489 116.92C189.489 118.92 194.865 117.288 194.865 120.584C194.865 122.12 193.457 123.096 191.201 123.096ZM204.185 112.296C203.273 112.296 202.809 112.808 202.809 113.784V114.52H205.273V115.784H202.841V123H201.305V115.784H199.865V114.52H201.305V113.768C201.305 112.12 202.297 111.032 204.105 111.032C204.761 111.032 205.401 111.192 205.833 111.528L205.369 112.696C205.049 112.456 204.633 112.296 204.185 112.296ZM210.229 123.096C207.685 123.096 205.813 121.288 205.813 118.76C205.813 116.232 207.685 114.44 210.229 114.44C212.773 114.44 214.629 116.232 214.629 118.76C214.629 121.288 212.773 123.096 210.229 123.096ZM210.229 121.752C211.861 121.752 213.077 120.568 213.077 118.76C213.077 116.952 211.861 115.784 210.229 115.784C208.597 115.784 207.365 116.952 207.365 118.76C207.365 120.568 208.597 121.752 210.229 121.752ZM218.225 115.944C218.769 114.952 219.825 114.44 221.313 114.44V115.928C221.185 115.912 221.073 115.912 220.961 115.912C219.313 115.912 218.289 116.92 218.289 118.776V123H216.753V114.52H218.225V115.944ZM231.9 121.4L232.38 122.504C231.916 122.904 231.212 123.096 230.524 123.096C228.812 123.096 227.836 122.152 227.836 120.44V115.784H226.396V114.52H227.836V112.664H229.372V114.52H231.804V115.784H229.372V120.376C229.372 121.288 229.852 121.8 230.7 121.8C231.148 121.8 231.58 121.656 231.9 121.4ZM235.709 115.944C236.253 114.952 237.309 114.44 238.797 114.44V115.928C238.669 115.912 238.557 115.912 238.445 115.912C236.797 115.912 235.773 116.92 235.773 118.776V123H234.237V114.52H235.709V115.944ZM243.763 114.44C246.083 114.44 247.395 115.56 247.395 117.88V123H245.939V121.88C245.427 122.648 244.483 123.096 243.155 123.096C241.235 123.096 240.019 122.072 240.019 120.6C240.019 119.24 240.899 118.12 243.427 118.12H245.859V117.816C245.859 116.52 245.107 115.768 243.587 115.768C242.579 115.768 241.555 116.12 240.899 116.68L240.259 115.528C241.139 114.824 242.403 114.44 243.763 114.44ZM243.411 121.912C244.563 121.912 245.475 121.384 245.859 120.408V119.224H243.491C241.971 119.224 241.539 119.816 241.539 120.536C241.539 121.384 242.243 121.912 243.411 121.912ZM256.748 111.128H258.284V123H256.812V121.656C256.124 122.616 255.036 123.096 253.788 123.096C251.308 123.096 249.5 121.352 249.5 118.76C249.5 116.168 251.308 114.44 253.788 114.44C254.988 114.44 256.044 114.888 256.748 115.8V111.128ZM253.916 121.752C255.532 121.752 256.764 120.568 256.764 118.76C256.764 116.952 255.532 115.784 253.916 115.784C252.284 115.784 251.052 116.952 251.052 118.76C251.052 120.568 252.284 121.752 253.916 121.752ZM261.958 112.888C261.366 112.888 260.918 112.456 260.918 111.896C260.918 111.336 261.366 110.888 261.958 110.888C262.55 110.888 262.998 111.32 262.998 111.864C262.998 112.44 262.566 112.888 261.958 112.888ZM261.19 123V114.52H262.726V123H261.19ZM270.187 114.44C272.251 114.44 273.707 115.624 273.707 118.12V123H272.171V118.296C272.171 116.632 271.339 115.816 269.883 115.816C268.251 115.816 267.195 116.792 267.195 118.632V123H265.659V114.52H267.131V115.8C267.755 114.936 268.843 114.44 270.187 114.44ZM283.253 114.52H284.709V121.848C284.709 124.84 283.189 126.2 280.309 126.2C278.757 126.2 277.189 125.768 276.261 124.936L276.997 123.752C277.781 124.424 279.013 124.856 280.261 124.856C282.261 124.856 283.173 123.928 283.173 122.008V121.336C282.437 122.216 281.333 122.648 280.117 122.648C277.669 122.648 275.813 120.984 275.813 118.536C275.813 116.088 277.669 114.44 280.117 114.44C281.381 114.44 282.533 114.904 283.253 115.832V114.52ZM280.293 121.304C281.989 121.304 283.205 120.168 283.205 118.536C283.205 116.888 281.989 115.784 280.293 115.784C278.581 115.784 277.365 116.888 277.365 118.536C277.365 120.168 278.581 121.304 280.293 121.304ZM288.012 123.096C287.42 123.096 286.924 122.632 286.924 121.992C286.924 121.352 287.42 120.904 288.012 120.904C288.588 120.904 289.068 121.352 289.068 121.992C289.068 122.632 288.588 123.096 288.012 123.096Z" fill="#959595"/>
<g clip-path="url(#clip1_1920_1687)">
<path d="M1110.57 143.63L1106.41 143.651C1103.48 143.665 1099.33 143.684 1094.21 143.707C1093 143.714 1091.73 143.72 1090.41 143.725C1088.54 143.735 1086.56 143.745 1084.49 143.755L1077.94 143.785C1016.96 144.071 893.755 144.62 893.663 144.406L893.644 144.371C893.644 144.371 893.623 144.337 893.623 144.321C893.545 144.183 852.077 104.289 900.425 77.0374C919.343 66.3748 901.926 61.5225 917.363 50.1505C941.066 32.6889 973.228 51.9941 992.035 44.3184C1045.15 22.6436 1065.59 26.0066 1081.16 29.7522C1083.49 30.3129 1086.28 31.4415 1089.07 33.0541C1093.28 35.4894 1097.51 39.025 1100.18 43.3559C1104.01 49.5706 1104.64 57.4235 1097.43 66.0096C1097.29 66.1803 1097.15 66.3547 1097.03 66.531C1093.35 71.5897 1095.96 78.7705 1100.45 85.9038C1103.32 90.473 1106.97 95.0222 1110.23 98.9824C1131.92 125.321 1110.77 143.284 1110.57 143.63Z" fill="#EBF3FA"/>
<path d="M1095.44 57.536L1053.14 65.1199L1062.81 119.911L1105.12 112.327L1095.44 57.536Z" fill="#D2E0FF"/>
<path d="M947.507 134.009C947.507 134.009 919.124 142.019 904.777 128.431C893.283 117.546 886.164 118.372 882.894 121.775C877.827 127.046 891.549 144.677 928.184 145.209C964.813 145.742 947.511 134.009 947.511 134.009H947.507Z" fill="url(#paint2_linear_1920_1687)"/>
<path d="M938.945 138.292C924.19 140.895 911.771 137.872 903.802 134.772C894.724 131.243 889.298 126.852 889.245 126.811C889.168 126.748 889.159 126.64 889.218 126.563C889.281 126.486 889.388 126.477 889.465 126.536C889.519 126.581 894.909 130.936 903.941 134.447C912.274 137.682 925.493 140.841 941.169 137.497C941.259 137.484 941.357 137.538 941.375 137.633C941.393 137.728 941.335 137.822 941.241 137.84C940.468 138.003 939.704 138.156 938.945 138.287V138.292Z" fill="#B877F5"/>
<path d="M938.327 135.71C938.327 135.71 913.788 129.04 904.913 112.853C897.066 98.5388 890.625 95.6191 887.431 96.0839C879.651 97.2211 884.152 114.397 915.113 135.394C940.496 152.61 938.327 135.71 938.327 135.71Z" fill="url(#paint3_linear_1920_1687)"/>
<path d="M929.115 134.803C929.07 134.826 929.021 134.83 928.972 134.812C913.565 128.977 903.625 120.069 898.001 113.62C891.902 106.63 889.418 100.944 889.391 100.885C889.35 100.795 889.391 100.691 889.481 100.655C889.57 100.615 889.674 100.655 889.71 100.745C889.732 100.8 892.207 106.45 898.271 113.399C903.867 119.812 913.758 128.675 929.093 134.483C929.183 134.519 929.228 134.618 929.196 134.708C929.183 134.749 929.151 134.78 929.115 134.799V134.803Z" fill="#B877F5"/>
<path d="M941.248 129.329C941.248 129.329 921.898 117.406 921.521 101.937C921.22 89.5403 916.185 84.1612 911.558 84.0348C905.773 83.8724 903.361 98.1958 925.729 124.997C935.786 137.046 941.248 129.334 941.248 129.334V129.329Z" fill="url(#paint4_linear_1920_1687)"/>
<path d="M941.426 125.38C941.386 125.389 941.341 125.38 941.305 125.362C927.763 117.939 920.54 108.385 916.87 101.675C912.891 94.4003 912.104 88.8 912.095 88.7413C912.082 88.6465 912.149 88.5608 912.244 88.5427C912.338 88.5292 912.428 88.5969 912.441 88.6917C912.45 88.7458 913.227 94.2965 917.185 101.517C920.832 108.182 928.01 117.672 941.471 125.051C941.557 125.096 941.588 125.204 941.543 125.29C941.516 125.335 941.476 125.367 941.426 125.376V125.38Z" fill="#B877F5"/>
<path d="M1092.51 64.5031L1080.21 66.7065C1080.08 66.7293 1079.96 66.6426 1079.94 66.5129C1079.91 66.3823 1080 66.2582 1080.13 66.2353L1092.43 64.032C1092.56 64.0091 1092.68 64.0959 1092.7 64.2256C1092.72 64.3561 1092.64 64.4803 1092.51 64.5031Z" fill="#AEC3FF"/>
<path d="M1092.79 66.1184L1080.5 68.3217C1080.37 68.3446 1080.25 68.2578 1080.22 68.1282C1080.2 67.9976 1080.29 67.8734 1080.41 67.8506L1092.71 65.6472C1092.84 65.6244 1092.96 65.7111 1092.99 65.8408C1093.01 65.9714 1092.92 66.0955 1092.79 66.1184Z" fill="#AEC3FF"/>
<path d="M1093.08 67.7339L1080.78 69.9372C1080.65 69.96 1080.53 69.8733 1080.51 69.7436C1080.48 69.6131 1080.57 69.4889 1080.7 69.466L1093 67.2627C1093.13 67.2399 1093.25 67.3266 1093.27 67.4563C1093.29 67.5868 1093.21 67.711 1093.08 67.7339Z" fill="#AEC3FF"/>
<path d="M1086.18 73.944L1077.69 75.4652C1077.51 75.499 1077.33 75.3739 1077.29 75.1867C1077.26 74.9995 1077.39 74.8206 1077.57 74.7868L1086.06 73.2655C1086.25 73.2327 1086.42 73.3568 1086.46 73.544C1086.49 73.7312 1086.37 73.9102 1086.18 73.944Z" fill="#AEC3FF"/>
<path d="M1093.83 72.5734L1088.61 73.5093C1088.42 73.5431 1088.24 73.418 1088.21 73.2308C1088.18 73.0436 1088.3 72.8647 1088.49 72.8309L1093.71 71.8949C1093.89 71.8611 1094.07 71.9862 1094.1 72.1734C1094.14 72.3606 1094.01 72.5396 1093.83 72.5734Z" fill="#AEC3FF"/>
<path d="M1091.6 75.2853L1078.55 77.6229C1078.37 77.6567 1078.19 77.5316 1078.16 77.3444C1078.12 77.1572 1078.25 76.9782 1078.43 76.9444L1091.48 74.6068C1091.66 74.574 1091.84 74.6981 1091.87 74.8853C1091.91 75.0725 1091.78 75.2515 1091.6 75.2853Z" fill="#AEC3FF"/>
<path d="M1083.23 81.7648L1074.74 83.286C1074.55 83.3189 1074.37 83.1947 1074.34 83.0075C1074.31 82.8203 1074.43 82.6414 1074.62 82.6076L1083.11 81.0863C1083.29 81.0525 1083.47 81.1776 1083.5 81.3648C1083.54 81.552 1083.41 81.731 1083.23 81.7648Z" fill="#AEC3FF"/>
<path d="M1090.87 80.3942L1085.65 81.3301C1085.47 81.363 1085.29 81.2388 1085.26 81.0516C1085.22 80.8644 1085.35 80.6855 1085.53 80.6517L1090.75 79.7157C1090.94 79.6819 1091.12 79.807 1091.15 79.9942C1091.18 80.1814 1091.06 80.3604 1090.87 80.3942Z" fill="#AEC3FF"/>
<path d="M1095.31 81.9291L1074.91 85.5834C1074.73 85.6163 1074.55 85.4921 1074.52 85.3049C1074.48 85.1177 1074.61 84.9387 1074.79 84.9049L1095.19 81.2506C1095.37 81.2168 1095.55 81.3419 1095.58 81.5291C1095.62 81.7163 1095.49 81.8953 1095.31 81.9291Z" fill="#AEC3FF"/>
<path d="M1083.99 86.6837L1075.5 88.205C1075.31 88.2379 1075.13 88.1137 1075.1 87.9265C1075.07 87.7393 1075.19 87.5603 1075.38 87.5265L1083.87 86.0053C1084.05 85.9715 1084.23 86.0966 1084.26 86.2838C1084.3 86.471 1084.17 86.6499 1083.99 86.6837Z" fill="#AEC3FF"/>
<path d="M1091.97 85.3361L1086.75 86.272C1086.56 86.3049 1086.39 86.1807 1086.35 85.9935C1086.32 85.8063 1086.44 85.6273 1086.63 85.5936L1091.85 84.6576C1092.04 84.6238 1092.21 84.7489 1092.25 84.9361C1092.28 85.1233 1092.16 85.3023 1091.97 85.3361Z" fill="#AEC3FF"/>
<path d="M1088.84 88.2352L1075.8 90.5728C1075.61 90.6066 1075.43 90.4815 1075.4 90.2943C1075.37 90.1071 1075.49 89.9282 1075.68 89.8944L1088.72 87.5568C1088.91 87.5239 1089.08 87.6481 1089.12 87.8353C1089.15 88.0225 1089.03 88.2015 1088.84 88.2352Z" fill="#AEC3FF"/>
<path d="M1072.17 111.224L1063.68 112.745C1063.5 112.779 1063.32 112.654 1063.29 112.467C1063.25 112.28 1063.38 112.101 1063.56 112.067L1072.05 110.546C1072.24 110.513 1072.42 110.637 1072.45 110.824C1072.48 111.011 1072.36 111.19 1072.17 111.224Z" fill="#AEC3FF"/>
<path d="M1080.16 109.877L1074.94 110.813C1074.75 110.847 1074.57 110.722 1074.54 110.535C1074.51 110.347 1074.63 110.168 1074.82 110.135L1080.04 109.199C1080.22 109.165 1080.4 109.29 1080.44 109.477C1080.47 109.664 1080.35 109.843 1080.16 109.877Z" fill="#AEC3FF"/>
<path d="M1077.03 112.775L1063.98 115.113C1063.8 115.147 1063.62 115.022 1063.59 114.834C1063.55 114.647 1063.68 114.468 1063.86 114.434L1076.91 112.097C1077.09 112.063 1077.27 112.188 1077.3 112.375C1077.34 112.563 1077.21 112.741 1077.03 112.775Z" fill="#AEC3FF"/>
<path d="M1065.27 52.9483C1065.27 52.9483 1067.28 55.1873 1067.39 56.2146C1067.5 57.2427 1066.49 59.5128 1066.98 60.5026C1067.13 60.8112 1069.44 63.8766 1070.14 64.0492C1070.62 64.166 1071.31 62.9598 1070.63 61.7846C1069.94 60.5948 1069.8 58.2307 1069.91 57.1907C1070.1 55.4165 1071.35 51.2892 1071.58 52.0644L1075.47 51.4426L1071.78 49.9241L1065.27 52.9474L1065.27 52.9483Z" fill="#E59365"/>
<path d="M1064.02 58.3759C1064.02 58.3759 1063.68 62.8712 1064.02 64.5869C1064.16 65.2754 1064.82 67.4888 1065.47 67.7281C1066.55 68.1225 1067.14 66.2169 1066.67 64.1477C1066.54 63.5816 1067.43 60.088 1068.02 58.4909C1069.48 54.5207 1070.37 52.1301 1070.37 52.1301L1064.03 58.3759H1064.02Z" fill="#F2A36D"/>
<path d="M1096.13 43.8975C1095.18 44.4609 1094.29 44.9951 1093.51 45.469C1093.08 45.7338 1092.68 45.9795 1092.33 46.2014C1091.77 46.5593 1091.33 46.8533 1091.05 47.0624C1090.33 47.5957 1089.16 48.2458 1088.29 49.1398C1088.29 49.1398 1088.29 49.1434 1088.29 49.1443C1086.6 50.3469 1086.52 51.765 1086.46 52.6306C1086.3 54.7783 1084.32 57.9368 1081.63 61.098C1080.16 62.8229 1078.87 65.344 1078.42 66.343C1078.27 66.6708 1078 67.4314 1077.68 68.2359C1077.24 69.3572 1076.72 70.5625 1076.35 70.8009C1076.24 70.8693 1076.06 70.8483 1075.85 70.7689C1075.32 70.5689 1074.6 69.9964 1074.39 69.5535C1073.75 68.2295 1074.25 66.2069 1075.46 63.0083C1076.62 59.9612 1076.45 58.4226 1076 57.0629C1075.71 56.179 1075.29 55.3298 1073.99 54.8157C1073.84 54.7555 1073.37 54.529 1072.73 54.351C1072.1 54.1766 1071.32 54.0469 1070.5 54.1656C1070.22 54.2067 1069.94 54.277 1069.65 54.3866C1069.01 54.634 1068.39 55.0796 1067.85 55.8229C1067.83 55.8467 1067.81 55.8695 1067.79 55.8923C1067.79 55.8923 1067.79 55.8932 1067.79 55.8941C1067.58 56.1763 1067.33 56.4393 1067.07 56.6904C1066.55 57.1889 1065.96 57.6373 1065.42 58.092C1064.89 58.5395 1064.4 58.9924 1064.08 59.5046C1063.88 59.8105 1063.74 60.1365 1063.68 60.4944C1063.48 61.6614 1062.89 62.8138 1062.3 64.0921C1061.88 65.0171 1061.45 66.0079 1061.18 67.1182C1060.52 69.79 1059.02 70.0713 1058.23 69.2659C1058.22 69.2559 1058.21 69.2449 1058.2 69.2349C1057.96 68.9728 1057.96 67.5264 1058.02 66.2252C1058.07 65.2509 1058.16 64.3588 1058.21 64.104C1058.36 63.3114 1059.67 60.1977 1060.3 56.978C1060.77 54.5765 1064.49 50.9898 1067.12 46.2543C1068.43 43.8985 1073.46 43.2492 1078.71 40.1775C1078.99 40.0131 1079.3 39.8999 1079.59 39.7556C1080.43 39.342 1081.25 38.8964 1082.06 38.4197C1083.23 38.4115 1084.42 38.4681 1085.61 38.5832C1086.41 38.6608 1087.21 38.7649 1088.02 38.8964C1089.3 39.1037 1090.58 39.3758 1091.86 39.7072C1093.48 41.0943 1094.9 42.495 1096.13 43.9012V43.8975Z" fill="#FFB27D"/>
<path d="M1093.83 45.8497L1092.92 46.4405L1092.68 46.5948L1088.47 49.3351L1088.29 49.1433L1079.57 39.7728L1079.6 39.7509C1079.6 39.7509 1083.41 37.0143 1083.7 36.9787C1083.78 36.9686 1083.86 36.9586 1083.94 36.9495C1084.38 37.3056 1085.05 37.8936 1085.85 38.6031C1088.41 40.8768 1092.25 44.3969 1093.45 45.5036C1093.69 45.7246 1093.83 45.8487 1093.83 45.8487L1093.83 45.8497Z" fill="#9FC1F4"/>
<path d="M1100.18 43.356L1094.78 47.2569C1094.78 47.2569 1093.93 46.94 1092.92 46.4397C1092.75 46.3538 1092.57 46.2625 1092.39 46.1666C1091.76 45.8315 1091.12 45.437 1090.61 45.0143C1088.26 43.0584 1086.09 40.3272 1084.77 38.5083C1084.3 37.8554 1083.93 37.3194 1083.7 36.9797C1083.74 36.9742 1086.31 35.0475 1089.07 33.0542C1093.29 35.4895 1097.52 39.0251 1100.19 43.356H1100.18Z" fill="#F99746"/>
<path d="M1089.33 46.7263C1089.48 46.4934 1089.78 46.4213 1090.01 46.5647C1090.24 46.708 1090.31 47.013 1090.17 47.2458C1090.03 47.4787 1089.73 47.5508 1089.5 47.4075C1089.26 47.2641 1089.19 46.9591 1089.33 46.7263Z" fill="#2A4E96"/>
<path d="M1051.56 65.4142L1075.1 61.1965L1072.2 74.3154L1055.49 78.0592L1051.56 65.4142Z" fill="#D2E0FF"/>
<path d="M1073.24 71.9988C1073.62 73.9109 1073.29 75.7992 1072.44 77.3881C1072.12 77.9652 1071.75 78.5021 1071.3 78.9842C1070.77 79.5741 1070.14 80.0872 1069.45 80.4963C1068.71 80.9328 1067.88 81.2524 1066.99 81.4314C1066.51 81.5291 1066.03 81.5802 1065.55 81.5875V81.5857C1064.92 81.5957 1064.3 81.53 1063.7 81.3939C1063.08 81.2533 1062.47 81.036 1061.9 80.7502C1061.55 80.5749 1061.2 80.3685 1060.88 80.1411C1060.33 79.7549 1059.83 79.2956 1059.39 78.7778C1058.53 77.7697 1057.91 76.5325 1057.63 75.1363C1056.77 70.7935 1059.57 66.5694 1063.88 65.7028C1068.19 64.8363 1072.39 67.6569 1073.24 71.9988Z" fill="#8C9DF4"/>
<path d="M1071.64 74.5245C1070.57 71.9312 1068.22 68.9033 1066.56 67.6204C1066.17 67.3245 1065.83 67.1227 1065.54 67.0387C1065.42 67.0049 1065.32 66.9812 1065.21 66.9629C1064.21 66.7867 1063.55 67.2186 1063.55 67.2186C1060.17 67.4925 1059.98 71.5669 1060.29 72.8927C1060.57 74.0926 1060.95 75.3582 1060.18 77.0931C1060.1 77.2748 1060.01 77.4629 1059.9 77.6547C1059.67 78.0647 1059.5 78.4381 1059.39 78.7778C1059.83 79.2955 1060.33 79.7548 1060.88 80.1411C1061.2 80.3685 1061.55 80.5748 1061.9 80.7501C1062.47 81.036 1063.08 81.2524 1063.7 81.3939C1064.3 81.53 1064.92 81.5966 1065.55 81.5856C1065.33 79.4142 1066.95 78.7175 1068.25 78.6016C1069.12 78.524 1069.85 78.7066 1069.8 78.881C1070.33 78.9002 1070.76 78.8435 1071.1 78.7221C1071.85 78.4527 1072.19 77.8674 1072.23 77.0949C1072.27 76.3681 1072.04 75.4759 1071.64 74.5254V74.5245Z" fill="#163560"/>
<path d="M1063.71 81.394C1063.08 81.2533 1062.47 81.036 1061.9 80.7502C1061.55 80.5749 1061.21 80.3685 1060.88 80.1412C1060.97 79.7978 1061.03 79.533 1061.07 79.3933C1061.5 77.7269 1062.58 77.0566 1062.58 77.0566L1063.71 81.394Z" fill="#FFA561"/>
<path d="M1071.31 78.9841C1070.77 79.5739 1070.14 80.0871 1069.45 80.4962C1068.71 80.9327 1067.88 81.2523 1067 81.4312C1066.51 81.5289 1066.03 81.5801 1065.55 81.5874V81.5855C1064.92 81.5956 1064.3 81.5298 1063.71 81.3938C1063.08 81.2532 1062.47 81.0359 1061.9 80.75C1062.08 78.5859 1062.58 77.0565 1062.58 77.0565C1062.58 77.0565 1063.09 76.7287 1064.09 76.3826C1064.82 76.1315 1065.81 75.874 1067.06 75.7224C1067.56 75.6612 1068.1 75.6183 1068.68 75.5991L1071.1 78.722L1071.31 78.985L1071.31 78.9841Z" fill="#FFA561"/>
<path d="M1067.05 75.7025C1066.72 75.2021 1066.42 74.3985 1066.22 73.3704L1066.08 73.4297L1063.69 74.4268C1063.69 74.4268 1063.9 75.2048 1064.05 75.9481C1064.05 75.9545 1064.05 75.9609 1064.05 75.9664C1064.18 76.6119 1063.88 77.347 1064.95 77.3972C1065.29 77.4127 1067.74 76.7526 1067.05 75.7025H1067.05Z" fill="#FFB27D"/>
<path d="M1063.69 74.4268C1063.69 74.4268 1063.9 75.2048 1064.05 75.9481C1065.44 75.6285 1065.92 74.2004 1066.08 73.4297L1063.69 74.4268H1063.69Z" fill="#E8945B"/>
<path d="M1063.36 75.2249C1063.36 75.2249 1066.67 74.6177 1066.26 72.5477C1065.85 70.4785 1066 69.0066 1063.88 69.307C1061.75 69.6074 1061.49 70.4785 1061.46 71.2026C1061.43 71.9267 1062.49 75.329 1063.36 75.2249Z" fill="#FFB27D"/>
<path d="M1062.36 69.558C1062.36 69.558 1063.75 71.8033 1065.2 71.8846C1066.66 71.965 1067.19 71.47 1067.19 71.47C1067.19 71.47 1065.96 70.8336 1065.44 69.3927C1065.44 69.3927 1062.82 68.2659 1062.36 69.558Z" fill="#163560"/>
<path d="M1062.63 69.7104C1062.63 69.7104 1062.01 70.0966 1061.83 70.6445C1061.66 71.1796 1061.55 71.8626 1061.76 72.6333C1061.76 72.6333 1060.75 71.1203 1061.33 70.0336C1061.95 68.8813 1062.63 69.7113 1062.63 69.7113V69.7104Z" fill="#163560"/>
<path d="M1069.45 80.4962C1069.2 80.3264 1068.94 80.1456 1068.65 79.9547C1068.35 79.7566 1068.25 79.2261 1068.25 78.6015C1068.25 77.3049 1068.68 75.5991 1068.68 75.5991C1068.68 75.5991 1070.88 75.3152 1072.23 77.0948C1072.29 77.1633 1072.34 77.2355 1072.39 77.3103C1072.41 77.3359 1072.42 77.3624 1072.44 77.3879C1072.13 77.965 1071.75 78.502 1071.31 78.9841C1070.77 79.574 1070.15 80.0871 1069.45 80.4962Z" fill="#FFA561"/>
<path d="M1096.78 97.9334C1096.35 96.9171 1095.74 96.0332 1095 95.3037C1094.32 94.6353 1093.53 94.0974 1092.68 93.7057C1090.67 92.7789 1088.29 92.6739 1086.1 93.6171C1081.98 95.3931 1080.06 100.218 1081.82 104.374C1083.58 108.529 1088.37 110.466 1092.5 108.69C1096.62 106.914 1098.54 102.089 1096.78 97.9334H1096.78ZM1092.12 107.816C1088.48 109.386 1084.24 107.674 1082.69 103.999C1081.13 100.326 1082.83 96.0606 1086.47 94.491C1088.41 93.6564 1090.52 93.7504 1092.3 94.5732C1093.15 94.9685 1093.93 95.5301 1094.58 96.2387C1095.13 96.8304 1095.58 97.5244 1095.91 98.3069C1097.47 101.981 1095.77 106.247 1092.12 107.816Z" fill="#8C9DF4"/>
<path d="M1089.76 105.132C1089.45 105.134 1089.15 105.032 1088.9 104.837L1083.63 100.672C1083.03 100.199 1082.92 99.325 1083.39 98.7215C1083.86 98.1179 1084.73 98.012 1085.33 98.485L1089.21 101.552L1093.34 92.2118C1093.65 91.5114 1094.47 91.1955 1095.17 91.5087C1095.86 91.821 1096.17 92.6428 1095.86 93.3432L1091.01 104.309C1090.84 104.7 1090.5 104.988 1090.08 105.091C1089.98 105.118 1089.87 105.132 1089.76 105.132Z" fill="#F77D48"/>
<path d="M1047.24 118.922C1047.24 118.922 1076.36 125.12 1089.93 110.472C1100.8 98.7399 1108.03 99.0999 1111.55 102.313C1117.01 107.29 1105.22 130.421 1068.33 133.379C1031.45 136.337 1047.24 118.917 1047.24 118.917V118.922Z" fill="url(#paint5_linear_1920_1687)"/>
<path d="M1056.15 122.669C1055.37 122.582 1054.59 122.486 1053.8 122.368C1053.7 122.354 1053.64 122.263 1053.65 122.167C1053.66 122.072 1053.75 122.012 1053.85 122.017C1069.87 124.351 1082.99 120.294 1091.18 116.475C1100.05 112.341 1105.19 107.596 1105.24 107.551C1105.31 107.482 1105.43 107.487 1105.49 107.56C1105.56 107.633 1105.55 107.746 1105.48 107.81C1105.43 107.856 1100.25 112.637 1091.33 116.798C1083.51 120.449 1071.19 124.319 1056.15 122.669Z" fill="#B877F5"/>
<path d="M1051.9 129.646C1051.9 129.646 1076.12 116.433 1082.72 98.7988C1088.56 83.2066 1094.98 79.2003 1098.51 79.1183C1107.12 78.9177 1106.59 97.983 1075.85 122.987C1045.11 147.991 1051.9 129.651 1051.9 129.651V129.646Z" fill="url(#paint6_linear_1920_1687)"/>
<path d="M1060.62 124.788C1060.58 124.774 1060.55 124.747 1060.52 124.71C1060.46 124.623 1060.5 124.514 1060.59 124.469C1090.23 108.384 1096.83 84.3918 1096.9 84.1502C1096.92 84.0545 1097.02 83.9953 1097.13 84.0181C1097.22 84.0363 1097.3 84.1366 1097.27 84.2323C1097.25 84.2915 1095.61 90.3807 1090.32 98.3797C1085.43 105.759 1076.34 116.328 1060.78 124.769C1060.73 124.797 1060.67 124.801 1060.62 124.783L1060.62 124.788Z" fill="#B877F5"/>
<path d="M1063.68 142.54C1063.68 142.54 1066.88 139.555 1083 142.13C1096.68 144.318 1101.21 143.005 1102.44 137.454C1104.55 127.896 1080.72 124.241 1057.8 139.619C1049.52 145.175 1063.68 142.54 1063.68 142.54Z" fill="url(#paint7_linear_1920_1687)"/>
<path d="M1056.42 144.122C1056.37 144.108 1056.33 144.072 1056.3 144.017C1056.26 143.912 1056.29 143.775 1056.37 143.716C1076.13 129.874 1095.88 136.287 1096.08 136.346C1096.18 136.378 1096.23 136.501 1096.21 136.615C1096.18 136.734 1096.09 136.802 1095.99 136.77C1095.79 136.702 1076.18 130.348 1056.55 144.099C1056.51 144.126 1056.46 144.135 1056.42 144.122H1056.42Z" fill="#B877F5"/>
<g opacity="0.8">
<path d="M945.742 113.063C945.742 113.063 949.523 118.79 947.415 125.793L946.448 125.537C946.448 125.537 947.351 117.83 945.368 113.966C943.385 110.101 945.742 113.064 945.742 113.064V113.063Z" fill="#AEC3FF"/>
</g>
<path d="M968.266 72.5083C968.266 72.5083 970.978 67.3866 977.522 67.9235C977.522 67.9235 986.98 59.3639 997.14 66.6963C997.14 66.6963 1007.9 64.8171 1015.89 68.192C1021.21 70.4419 1022.98 72.8197 1022.98 72.8197L968.266 72.5074V72.5083Z" fill="#F8FCFF"/>
<path d="M996.758 57.0538C996.758 57.0538 998.844 53.1182 1003.88 53.531C1003.88 53.531 1011.15 46.9538 1018.97 52.5877C1018.97 52.5877 1027.25 51.1441 1033.39 53.7373C1037.49 55.4659 1038.85 57.294 1038.85 57.294L996.759 57.0547L996.758 57.0538Z" fill="#F8FCFF"/>
<path d="M988.024 143.876L967.473 108.397L966.703 107.066L957.114 113.37L960.178 118.704L974.691 143.942L974.845 144.2L988.178 144.135L988.024 143.877V143.876ZM972.178 83.1461L951.37 115.462L946.652 122.785L948.37 135.416L951.435 131.077L960.178 118.703L967.473 108.397L985.358 83.0813L972.178 83.1461ZM951.435 131.077L951.37 115.462L951.216 83.2493L939.793 83.3014L940.075 144.096V144.355L951.498 144.302V144.044L951.434 131.077H951.435Z" fill="#0098CA"/>
<path d="M1065.52 124.154C1064.89 126.958 1063.73 129.127 1062.01 130.639C1060.29 132.163 1058.19 132.925 1055.69 132.938C1052.46 132.951 1049.97 131.982 1048.21 130.031C1046.45 128.081 1045.56 125.317 1045.55 121.739L1045.47 104.974C1045.45 101.397 1046.32 98.6062 1048.06 96.6312C1049.79 94.6552 1052.28 93.648 1055.51 93.6343C1057.14 93.6215 1058.62 93.9959 1059.94 94.7456C1061.27 95.4943 1062.39 96.5791 1063.32 97.9871C1064.24 99.3952 1064.94 101.126 1065.42 103.166L1077.27 103.102C1076.5 98.6583 1075.12 94.8615 1073.15 91.7231C1071.18 88.5847 1068.69 86.1951 1065.69 84.5551C1062.7 82.9279 1059.28 82.1134 1055.45 82.1271C1050.81 82.1527 1046.86 83.0704 1043.6 84.8784C1040.34 86.6736 1037.87 89.2823 1036.16 92.6929C1034.45 96.1025 1033.61 100.222 1033.63 105.04L1033.7 121.792C1033.73 126.635 1034.61 130.743 1036.34 134.127C1038.09 137.498 1040.59 140.068 1043.87 141.838C1045.27 142.587 1046.54 143.395 1048.19 143.808C1049.29 144.104 1050.71 144.111 1051.95 144.24L1059.13 144.202C1060.21 144.061 1061.27 143.84 1062.27 143.53C1063.55 143.156 1064.78 142.652 1065.93 142.032C1068.91 140.43 1071.36 138.118 1073.3 135.083C1075.25 132.048 1076.6 128.392 1077.36 124.104L1065.52 124.155L1065.52 124.154Z" fill="#0098CA"/>
<path d="M1035.36 82.8494L1023.39 82.9142L1011.92 109.25L1000.22 83.0174L988.254 83.0694L1006.27 120.486L1006.37 143.787V144.045L1017.79 143.993V143.735L1017.69 120.434L1035.36 82.8494Z" fill="#0098CA"/>
<path d="M1044.33 143.668C1044.33 143.668 1044.33 142.655 1044.49 142.318C1044.64 141.98 1045.22 140.607 1045.22 140.607L1047.5 140.596C1047.5 140.596 1047.92 141.844 1047.95 142.253C1047.98 142.663 1047.96 143.651 1047.96 143.651L1044.33 143.668H1044.33Z" fill="#1B3051"/>
<path d="M1057.37 143.617C1057.37 143.617 1057.37 142.604 1057.22 142.268C1057.08 141.932 1056.55 140.563 1056.55 140.563L1054.49 140.572C1054.49 140.572 1054.12 141.825 1054.09 142.233C1054.07 142.642 1054.1 143.63 1054.1 143.63L1057.37 143.615V143.617Z" fill="#1B3051"/>
<path d="M1048.88 86.8215C1048.88 86.8215 1048.82 89.0769 1048.54 90.0877L1046.28 91.6921L1054.82 92.9385L1052.77 90.1151C1052.77 90.1151 1052.15 87.0945 1052.46 85.975C1052.78 84.8555 1048.89 86.8215 1048.89 86.8215H1048.88Z" fill="#FFB27D"/>
<path d="M1048.87 87.133C1048.87 87.133 1049.55 88.7666 1050.82 88.7246C1052.1 88.6826 1052.38 87.2325 1052.38 87.2325L1048.87 87.1321V87.133Z" fill="#ED985F"/>
<path d="M1048.11 85.8116C1048.11 85.8116 1047.69 83.7489 1047.4 83.1252C1047.11 82.5015 1046.86 79.7129 1050.03 79.5531C1050.03 79.5531 1051.25 79.6918 1051.92 79.28C1051.92 79.28 1051.92 79.6891 1051.75 79.8343C1051.75 79.8343 1052.85 79.5649 1053.71 80.5228C1054.58 81.4807 1053.16 84.8546 1053.23 85.6481L1048.11 85.8125L1048.11 85.8116Z" fill="#2C3A64"/>
<path d="M1050.68 88.0926C1049.75 88.0808 1048.05 86.8526 1048.05 85.3231L1048.04 82.9353C1048.03 82.3765 1048.42 81.9172 1048.89 81.9154L1052.4 81.8989C1052.88 81.8971 1053.26 82.3518 1053.27 82.9107L1053.28 85.1633C1053.28 86.7677 1051.73 88.1063 1050.67 88.0926H1050.68Z" fill="#FFB27D"/>
<path d="M1048.04 84.2099C1048.04 84.2099 1048.04 82.7754 1049.17 82.5489C1050.29 82.3234 1052.82 83.231 1053.18 82.1837C1053.53 81.1354 1048.29 81.1783 1048.03 81.8467C1047.77 82.5151 1048.04 84.2099 1048.04 84.2099H1048.04Z" fill="#2C3A64"/>
<path d="M1044.43 108.61C1044.43 108.61 1044.84 119.658 1044.33 125.966C1043.82 132.274 1044.41 141.046 1044.41 141.046C1044.41 141.046 1046.13 141.992 1047.99 141.029C1047.99 141.029 1049.97 128.839 1049.95 125.94C1049.92 122.852 1052.09 109.055 1052.09 109.055L1044.43 108.61H1044.43Z" fill="#2B478B"/>
<path d="M1057.28 140.985C1057.28 140.985 1055.57 141.948 1053.7 141.002C1053.7 141.002 1051.61 128.831 1051.61 125.931C1051.61 124.628 1051.19 121.417 1050.72 118.143C1050.07 113.665 1049.3 109.069 1049.3 109.069L1057.26 108.531C1057.26 108.531 1056.65 119.604 1057.22 125.906C1057.78 132.208 1057.28 140.985 1057.28 140.985H1057.28Z" fill="#2B478B"/>
<path d="M1051.61 125.931C1051.61 124.627 1051.2 121.417 1050.72 118.143C1051.19 116.185 1052.34 114.295 1052.34 114.295C1053.83 118.437 1051.61 125.931 1051.61 125.931Z" fill="#233862"/>
<path d="M1064.17 100.516C1061.36 93.71 1056.38 90.2182 1052.77 90.115C1051.99 91.1788 1051.42 91.4272 1050.69 91.7194C1049.53 91.5623 1048.54 90.1214 1048.54 90.0876C1047.27 90.2246 1041.55 90.8994 1037.7 100.418C1037.4 101.16 1037.35 102.922 1038.74 104.65C1039.72 105.879 1041.27 107.481 1043.67 109.361C1043.67 109.361 1043.89 108.874 1044.1 108.087C1044.1 108.087 1042.66 105.309 1041.8 103.428C1041.38 102.512 1040.89 101.464 1044 99.3083C1044.09 101.7 1044.48 104.532 1044.19 107.095C1043.8 110.511 1044.49 110.448 1044.49 110.448C1044.49 110.448 1045.41 110.626 1046.71 110.792C1047.87 110.943 1049.34 111.086 1050.69 111.079C1053.78 111.065 1057.17 110.387 1057.17 110.387C1057.54 110.39 1057.69 109.543 1057.71 108.287C1057.89 108.915 1058.07 109.292 1058.07 109.292C1060.45 107.39 1061.98 105.774 1062.96 104.536C1064.34 102.795 1064.47 101.255 1064.17 100.515L1064.17 100.516ZM1059.89 103.344C1059.2 104.987 1058.02 107.261 1057.71 107.87C1057.71 105.824 1057.46 102.938 1057.34 100.799C1057.3 100.094 1057.26 99.4389 1057.22 98.829C1059.12 100.357 1060.86 101.009 1059.89 103.344Z" fill="#F9DDBF"/>
<path d="M1048.65 89.5381C1048.65 89.5381 1048.07 89.7308 1047.97 90.1636C1047.97 90.1636 1049.7 91.7004 1050.69 91.7195L1048.65 89.5381Z" fill="#F99746"/>
<path d="M1050.7 91.7195L1052.65 89.4395C1052.65 89.4395 1053.26 89.7061 1053.25 90.148C1053.25 90.148 1051.54 91.7752 1050.7 91.7195Z" fill="#F99746"/>
<path d="M1050.34 91.5542C1050.34 91.5542 1048.9 104.584 1049.43 106.17C1049.7 106.986 1050.06 107.691 1050.35 108.183C1050.56 108.537 1051.07 108.534 1051.27 108.177C1051.67 107.479 1052.18 106.47 1052.18 105.96C1052.17 105.132 1050.98 91.5405 1050.98 91.5405L1050.34 91.5551V91.5542Z" fill="#F99746"/>
<path d="M1049.95 90.9178C1049.95 90.9178 1050.85 90.8219 1051.4 90.8758C1051.51 90.8868 1051.57 91.0064 1051.52 91.1032C1051.37 91.3844 1051.05 91.8711 1050.72 91.8729C1050.26 91.8748 1049.54 90.9516 1049.95 90.9178H1049.95Z" fill="#F99746"/>
<path d="M1049.94 86.5586C1049.94 86.5586 1050.23 86.9485 1050.73 86.9321C1051.23 86.9156 1051.46 86.5513 1051.46 86.5513C1051.46 86.5513 1050.62 86.4152 1049.94 86.5586Z" fill="white"/>
<path d="M1043.81 108.227C1043.81 108.227 1044.92 107.214 1045.63 107.689C1046.37 108.191 1046.71 108.935 1046.29 108.989C1045.88 109.041 1044.6 108.896 1044.49 109.09C1044.37 109.282 1043.83 109.653 1043.67 109.362C1043.51 109.071 1043.81 108.227 1043.81 108.227H1043.81Z" fill="#FFB27D"/>
<path d="M1044.09 108.088C1043.89 108.875 1043.67 109.362 1043.67 109.362C1041.27 107.482 1039.72 105.88 1038.73 104.651C1039.48 104.592 1040.56 104.321 1041.8 103.429C1042.66 105.31 1044.09 108.088 1044.09 108.088Z" fill="#FFB27D"/>
<path d="M1057.92 108.16C1057.92 108.16 1056.97 107.283 1056.14 107.876C1055.68 108.208 1055.36 109.08 1055.76 109.006C1056.17 108.932 1057.13 108.837 1057.25 109.029C1057.37 109.22 1057.81 109.502 1058.07 109.292C1058.39 109.037 1057.92 108.159 1057.92 108.159V108.16Z" fill="#FFB27D"/>
<path d="M1057.63 108.024C1057.84 108.809 1058.07 109.293 1058.07 109.293C1060.45 107.391 1061.98 105.775 1062.96 104.537C1062.22 104.485 1061.14 104.223 1059.89 103.344C1059.04 105.234 1057.63 108.024 1057.63 108.024H1057.63Z" fill="#FFB27D"/>
<path d="M1031.49 143.929L1023.07 143.968C1022.62 143.585 1023.38 142.705 1024.17 142.643C1024.52 142.615 1024.96 142.686 1025.46 142.79C1025.57 141.239 1026.2 134.266 1028.69 134.535C1031.5 134.835 1028.71 137.604 1027.92 139.239C1027.34 140.45 1026.73 142.187 1026.45 143.006C1026.68 143.054 1026.91 143.102 1027.15 143.146C1027.52 141.994 1028.88 138.121 1030.65 138.338C1032.71 138.592 1031.89 140.147 1030.43 141.074C1029.36 141.756 1028.04 142.724 1027.42 143.191C1027.95 143.276 1028.51 143.332 1029.07 143.316C1030.51 143.275 1031.22 143.7 1031.49 143.929H1031.49Z" fill="#D2E0FF"/>
<path d="M1115.9 143.541V143.671C1115.9 143.812 1115.78 143.942 1115.63 143.942L1059.13 144.2L1051.95 144.239L887.668 145.001C887.526 145.001 887.398 144.885 887.398 144.73V144.614C887.398 144.459 887.514 144.343 887.668 144.343L940.077 144.097L951.5 144.045L974.693 143.942L988.027 143.877L1006.37 143.787L1017.8 143.736L1048.45 143.593L1062.27 143.528L1115.63 143.283C1115.78 143.27 1115.9 143.399 1115.9 143.541H1115.9Z" fill="#233862"/>
<path d="M943.762 142.34C943.625 142.429 943.486 142.515 943.345 142.598C943.297 142.626 943.249 142.653 943.201 142.681C943.091 142.743 942.981 142.803 942.871 142.862C937.574 145.641 930.989 143.762 927.95 138.508C925.051 133.496 926.397 127.17 930.879 123.757C931.236 123.485 931.614 123.231 932.011 122.998C932.153 122.914 932.297 122.835 932.441 122.758C932.582 122.683 932.723 122.612 932.865 122.545C933.301 122.336 933.745 122.159 934.194 122.011C934.861 121.791 935.54 121.638 936.222 121.548C938.336 121.272 940.479 121.61 942.391 122.498C944.422 123.439 946.194 124.996 947.405 127.089C950.452 132.359 948.808 139.08 943.761 142.341L943.762 142.34Z" fill="#F78248"/>
<path d="M929.131 92.9091C929.164 92.7703 926.139 94.3044 925.986 94.4769C924.571 96.0731 924.986 98.1459 925.8 98.1614C926.322 98.1714 926.225 99.0462 926.225 99.0462L932.028 96.5406C932.028 96.5406 931.31 92.4306 929.131 92.9091Z" fill="#2C3A64"/>
<path d="M929.845 93.2269C929.845 93.2269 928.391 90.6117 925.309 92.1074C923.68 92.8982 923.566 96.3818 922.923 96.9798C921.482 98.3194 920.886 98.8097 921.151 101.067C921.416 103.325 928.417 106.124 928.018 107.994C928.018 107.994 930.873 104.425 928.564 102.228C927.696 101.402 926.731 99.3978 926.821 99.0435C926.912 98.6901 929.846 93.2269 929.846 93.2269H929.845Z" fill="#2C3A64"/>
<path d="M927.597 103.974C927.198 102.082 924.758 101.507 923.612 103.058C923.407 103.338 923.262 103.667 923.216 104.056C922.963 106.206 926.414 114.945 926.906 115.734C927.803 117.173 933.061 122.095 933.061 122.095L934.024 121.502C934.024 121.502 930.281 115.184 929.702 114.594C929.034 113.912 928.355 107.566 927.597 103.974Z" fill="#ED985F"/>
<path d="M932.691 121.511C932.691 121.511 934.095 120.572 934.629 120.63C935.163 120.687 936.708 121.127 936.728 121.356C936.748 121.584 935.011 121.735 934.894 121.861C934.778 121.987 933.601 122.786 933.172 122.538C932.743 122.292 932.691 121.51 932.691 121.51V121.511Z" fill="#ED985F"/>
<path d="M922.965 142.607L921.706 142.426C921.706 142.426 917.46 139.058 916.8 132.74C916.733 132.098 916.717 131.445 916.761 130.786C916.766 130.711 916.757 130.635 916.716 130.571C916.716 130.571 916.716 130.571 916.714 130.569C916.577 130.361 916.238 129.839 915.778 129.095C915.325 128.363 914.549 126.979 913.695 125.425C912.157 122.628 910.365 119.282 909.75 118.216C907.793 114.82 908.719 112.527 908.719 112.527C908.719 112.527 914.132 111.962 915.61 110.647L916.148 111.475C916.148 111.475 917.346 116.702 917.29 116.727C917.349 116.905 917.408 117.086 917.469 117.269C918.408 120.144 919.49 123.738 920.084 126.666C920.417 128.314 920.598 129.75 920.509 130.73C920.479 131.066 920.52 131.582 920.611 132.218C921.152 135.971 922.964 142.607 922.964 142.607H922.965Z" fill="#2B478B"/>
<path d="M925.609 144.198L920.359 144.223C920.359 144.223 920.229 143.418 920.501 142.805C920.761 142.217 921.136 142.197 920.542 141.279C920.877 141.623 921.951 141.762 922.709 141.655C922.803 141.807 923.314 142.823 923.626 143.047C923.97 143.293 925.499 143.198 925.61 144.198H925.609Z" fill="#6980E2"/>
<path d="M917.469 117.269C917.022 119.82 915.958 124.065 913.695 125.425C912.157 122.628 910.365 119.282 909.75 118.216C907.793 114.82 908.719 112.527 908.719 112.527C908.719 112.527 914.132 111.962 915.61 110.647L916.148 111.475C916.148 111.475 917.346 116.702 917.29 116.727C917.349 116.905 917.408 117.086 917.469 117.269Z" fill="#233862"/>
<path d="M927.032 102.803C927.032 102.803 927.75 103.552 927.833 105.181C927.833 105.181 926.953 107.938 924.188 108.38C924.188 108.38 926.351 102.804 927.032 102.802V102.803Z" fill="#ED7D2B"/>
<path d="M913.767 112.897L913.78 111.908C911.825 112.165 907.024 109.584 907.024 109.584C907.024 109.584 904.984 110.964 904.722 114.883C904.594 116.795 903.766 124.883 903.681 127.297C903.651 128.172 903.641 128.797 903.639 129.046C903.639 129.047 903.639 129.048 903.639 129.049C903.639 129.125 903.602 129.192 903.556 129.252C903.154 129.773 902.805 130.323 902.504 130.894C899.545 136.503 901.141 144.1 901.141 144.1L901.833 143.919C901.833 143.919 904.321 136.025 905.955 132.608C906.233 132.028 906.485 131.577 906.697 131.316C907.314 130.555 907.962 129.262 908.599 127.708C909.805 124.77 910.97 120.895 911.8 117.894C911.86 117.905 913.768 112.897 913.768 112.897H913.767Z" fill="#2B478B"/>
<path d="M925.184 106.241C921.983 105.517 924.005 100.979 924.191 101.058C924.633 100.965 925.603 100.177 926.467 98.6418L926.585 98.7441L928.557 100.47C928.557 100.47 928.106 101.147 927.727 101.809C927.43 102.328 927.179 102.839 927.22 103.014C927.379 103.138 926.037 106.434 925.183 106.241H925.184Z" fill="#FFB27D"/>
<path d="M928.557 100.47C928.557 100.47 928.106 101.145 927.727 101.809C926.502 101.057 926.494 99.5328 926.584 98.7439L928.556 100.47H928.557Z" fill="#ED985F"/>
<path d="M928.614 101.339C928.614 101.339 925.641 99.6909 926.689 97.8409C927.736 95.9918 928.058 94.5336 930 95.5079C931.943 96.4822 931.908 97.398 931.708 98.1011C931.508 98.8042 929.414 101.721 928.615 101.339H928.614Z" fill="#FFB27D"/>
<path d="M932.205 97.0229C932.065 96.2047 931.652 96.128 931.364 96.1846C930.261 94.3657 928.475 95.0852 928.475 95.0852C927.525 96.2978 926.145 96.5106 926.145 96.5106C926.145 96.5106 926.492 97.1543 927.911 97.547C928.344 97.6666 928.836 97.5908 929.31 97.4283C928.329 97.9853 927.301 98.2017 927.301 98.2017C929.17 98.3651 930.94 96.6357 931.123 96.4512C931.21 96.7179 931.364 97.2749 931.276 97.684C931.155 98.2391 930.671 99.2463 930.97 99.3751C930.97 99.3751 932.415 98.251 932.206 97.0238L932.205 97.0229Z" fill="#2C3A64"/>
<path d="M905.316 144.292L900.066 144.317C900.066 144.317 899.937 143.512 900.208 142.899C900.468 142.311 900.878 142.043 900.776 141.333C901.111 141.677 901.657 142.063 902.415 141.956C902.509 142.107 903.02 142.917 903.332 143.141C903.676 143.388 905.205 143.292 905.316 144.292Z" fill="#6980E2"/>
<path d="M925.578 109.828C924.904 110.069 923.956 110.204 922.987 110.314C921.607 110.472 920.182 110.583 919.436 110.887C919.164 110.997 918.983 111.133 918.927 111.307C918.608 112.288 917.189 113.808 917.189 113.808C908.045 113.432 907.023 109.584 907.023 109.584C913.141 102.35 923.445 100.504 923.445 100.504C923.445 100.504 925.325 99.9402 925.694 101.301C926.122 102.881 927.26 102.766 927.26 102.766C927.26 102.766 927.563 109.121 925.578 109.829V109.828Z" fill="#F99746"/>
<path d="M922.987 110.314C921.607 110.472 920.182 110.583 919.436 110.887C919.11 106.295 921.245 102.83 921.245 102.83C921.245 102.83 922.676 108.578 922.986 110.315L922.987 110.314Z" fill="#ED7D2B"/>
<path d="M924.368 101.926C924.368 101.926 920.91 102.287 920.643 104.553C920.376 106.82 924.013 116.028 924.531 116.86C925.476 118.377 931.017 123.564 931.017 123.564L932.032 122.938C932.032 122.938 928.087 116.281 927.478 115.659C926.522 114.683 925.543 102.706 924.368 101.927V101.926Z" fill="#FFB27D"/>
<path d="M920.747 105.915C920.756 105.966 923.945 106.947 925.989 105.89C925.989 105.89 926.406 101.125 923.961 101.395C921.516 101.665 920.071 102.448 920.015 103.628C919.958 104.808 920.747 105.915 920.747 105.915Z" fill="#F99746"/>
<path d="M930.699 122.902C930.699 122.902 931.935 121.748 932.471 121.719C933.007 121.689 934.602 121.872 934.658 122.095C934.714 122.317 933.023 122.748 932.929 122.892C932.835 123.034 931.8 124.014 931.338 123.84C930.875 123.666 930.699 122.903 930.699 122.903V122.902Z" fill="#FFB27D"/>
<path d="M933.304 138.083C933.067 137.878 932.901 137.597 932.839 137.281L931.53 130.536C931.382 129.77 931.877 129.027 932.639 128.877C933.399 128.727 934.137 129.227 934.286 129.994L935.249 134.959L944.604 130.54C945.305 130.208 946.142 130.513 946.471 131.22C946.8 131.927 946.498 132.77 945.796 133.101L934.812 138.29C934.421 138.475 933.967 138.468 933.581 138.27C933.481 138.219 933.387 138.156 933.304 138.083Z" fill="white"/>
</g>
</g>
<defs>
<linearGradient id="paint0_linear_1920_1687" x1="-14.2642" y1="143.23" x2="43.7439" y2="161.927" gradientUnits="userSpaceOnUse">
<stop offset="0.21" stop-color="#CCD9E5"/>
<stop offset="1" stop-color="#AAD5E8"/>
</linearGradient>
<linearGradient id="paint1_linear_1920_1687" x1="660.911" y1="-10.0012" x2="628.758" y2="41.0726" gradientUnits="userSpaceOnUse">
<stop offset="0.21" stop-color="#CCD9E5"/>
<stop offset="1" stop-color="#AAD5E8"/>
</linearGradient>
<linearGradient id="paint2_linear_1920_1687" x1="945.15" y1="129.929" x2="876.808" y2="134.71" gradientUnits="userSpaceOnUse">
<stop offset="0.03" stop-color="#004D8A"/>
<stop offset="1" stop-color="#CC66CC"/>
</linearGradient>
<linearGradient id="paint3_linear_1920_1687" x1="939.792" y1="136.354" x2="881.273" y2="104.014" gradientUnits="userSpaceOnUse">
<stop offset="0.03" stop-color="#004D8A"/>
<stop offset="1" stop-color="#CC66CC"/>
</linearGradient>
<linearGradient id="paint4_linear_1920_1687" x1="937.237" y1="123.276" x2="899.704" y2="84.1011" gradientUnits="userSpaceOnUse">
<stop offset="0.03" stop-color="#004D8A"/>
<stop offset="1" stop-color="#CC66CC"/>
</linearGradient>
<linearGradient id="paint5_linear_1920_1687" x1="1049.7" y1="116.842" x2="1118.54" y2="117.176" gradientUnits="userSpaceOnUse">
<stop offset="0.03" stop-color="#004D8A"/>
<stop offset="1" stop-color="#CC66CC"/>
</linearGradient>
<linearGradient id="paint6_linear_1920_1687" x1="1056.29" y1="125.26" x2="1113.54" y2="79.5461" gradientUnits="userSpaceOnUse">
<stop offset="0.03" stop-color="#004D8A"/>
<stop offset="1" stop-color="#CC66CC"/>
</linearGradient>
<linearGradient id="paint7_linear_1920_1687" x1="1069.64" y1="150.152" x2="1088.14" y2="122.26" gradientUnits="userSpaceOnUse">
<stop offset="0.03" stop-color="#004D8A"/>
<stop offset="1" stop-color="#CC66CC"/>
</linearGradient>
<clipPath id="clip0_1920_1687">
<rect width="1120" height="160" rx="15" fill="white"/>
</clipPath>
<clipPath id="clip1_1920_1687">
<rect width="243" height="118" fill="white" transform="translate(877 27)"/>
</clipPath>
</defs>
</svg>
