<svg width="111" height="116" viewBox="0 0 111 116" fill="none" xmlns="http://www.w3.org/2000/svg">
<path d="M95.9844 105.427C98.7469 105.427 100.984 107.717 100.984 110.544C100.984 113.371 98.7469 115.661 95.9844 115.661C93.2219 115.661 90.9844 113.371 90.9844 110.544C90.9844 107.717 93.2219 105.427 95.9844 105.427Z" fill="#F9C430"/>
<path d="M12.2344 5.6416C15.6869 5.6416 18.4844 8.50467 18.4844 12.0381C18.4844 15.5715 15.6869 18.4346 12.2344 18.4346C8.78163 18.4346 5.98438 15.5715 5.98438 12.0381C5.98438 8.50467 8.78163 5.6416 12.2344 5.6416Z" fill="#F9C430"/>
<path d="M55.9844 8.2002C28.3694 8.2002 5.98438 31.1098 5.98438 59.3721C5.98438 87.6343 28.3694 110.544 55.9844 110.544C83.5994 110.544 105.984 87.6343 105.984 59.3721C105.984 31.1098 83.5994 8.2002 55.9844 8.2002Z" fill="#FFE6A1"/>
<path d="M55.9844 20.9932C76.6944 20.9932 93.4844 38.1767 93.4844 59.3721C93.4844 80.5675 76.6944 97.751 55.9844 97.751C35.2744 97.751 18.4844 80.5675 18.4844 59.3721C18.4844 38.1767 35.2744 20.9932 55.9844 20.9932Z" fill="white"/>
<path d="M63.4844 78.733V83.5073C63.4844 85.723 61.7319 87.5166 59.5669 87.5166H54.9019C52.7369 87.5166 50.9844 85.723 50.9844 83.5073V78.733C50.9844 76.5172 52.7369 74.7236 54.9019 74.7236H59.5669C61.7319 74.7236 63.4844 76.5172 63.4844 78.733Z" fill="#F9C430"/>
<path d="M61.1304 31.2275C63.7529 31.2275 65.8232 33.5047 65.6379 36.181L63.4829 67.0479H50.9829L48.8279 36.181C48.6429 33.5047 50.7129 31.2275 53.3354 31.2275H61.1304Z" fill="#F9C430"/>
<path d="M108.484 23.5518C109.864 23.5518 110.984 24.698 110.984 26.1104C110.984 27.5227 109.864 28.6689 108.484 28.6689C107.104 28.6689 105.984 27.5227 105.984 26.1104C105.984 24.698 107.104 23.5518 108.484 23.5518Z" fill="#DE9401"/>
<path d="M108.484 90.0752C109.864 90.0752 110.984 91.2214 110.984 92.6338C110.984 94.0461 109.864 95.1924 108.484 95.1924C107.104 95.1924 105.984 94.0461 105.984 92.6338C105.984 91.2214 107.104 90.0752 108.484 90.0752Z" fill="#DE9401"/>
<path d="M90.9844 0.524414C92.3644 0.524414 93.4844 1.67066 93.4844 3.08301C93.4844 4.49535 92.3644 5.6416 90.9844 5.6416C89.6044 5.6416 88.4844 4.49535 88.4844 3.08301C88.4844 1.67066 89.6044 0.524414 90.9844 0.524414Z" fill="#DE9401"/>
<path d="M18.4844 110.544C19.8644 110.544 20.9844 111.69 20.9844 113.103C20.9844 114.515 19.8644 115.661 18.4844 115.661C17.1041 115.661 15.9844 114.515 15.9844 113.103C15.9844 111.69 17.1041 110.544 18.4844 110.544Z" fill="#DE9401"/>
<path d="M3.48438 26.1104C4.86438 26.1104 5.98438 27.2566 5.98438 28.6689C5.98438 30.0813 4.86438 31.2275 3.48438 31.2275C2.10413 31.2275 0.984375 30.0813 0.984375 28.6689C0.984375 27.2566 2.10413 26.1104 3.48438 26.1104Z" fill="#DE9401"/>
<path d="M3.48438 90.0752C4.86438 90.0752 5.98438 91.2214 5.98438 92.6338C5.98438 94.0461 4.86438 95.1924 3.48438 95.1924C2.10413 95.1924 0.984375 94.0461 0.984375 92.6338C0.984375 91.2214 2.10413 90.0752 3.48438 90.0752Z" fill="#DE9401"/>
</svg>
