<svg width="84" height="84" viewBox="0 0 84 84" fill="none" xmlns="http://www.w3.org/2000/svg">
<path d="M42 0C53.1391 0 63.822 4.42499 71.6985 12.3015C79.575 20.178 84 30.8609 84 42C84 53.1391 79.575 63.822 71.6985 71.6985C63.822 79.575 53.1391 84 42 84C30.8609 84 20.178 79.575 12.3015 71.6985C4.42499 63.822 0 53.1391 0 42C0 30.8609 4.42499 20.178 12.3015 12.3015C20.178 4.42499 30.8609 0 42 0ZM42 18C41.2382 17.9993 40.4847 18.1576 39.7876 18.4646C39.0904 18.7716 38.4649 19.2206 37.9511 19.783C37.4373 20.3454 37.0464 21.0087 36.8035 21.7307C36.5605 22.4527 36.4707 23.2174 36.54 23.976L38.73 48.012C38.8149 48.8201 39.196 49.5681 39.7999 50.1118C40.4037 50.6556 41.1875 50.9564 42 50.9564C42.8125 50.9564 43.5963 50.6556 44.2001 50.1118C44.804 49.5681 45.1851 48.8201 45.27 48.012L47.454 23.976C47.5232 23.2179 47.4336 22.4537 47.191 21.7321C46.9484 21.0106 46.5581 20.3475 46.0449 19.7852C45.5317 19.2229 44.907 18.7738 44.2106 18.4664C43.5141 18.159 42.7613 18.0002 42 18ZM42 66C43.273 66 44.4939 65.4943 45.3941 64.5941C46.2943 63.6939 46.8 62.473 46.8 61.2C46.8 59.927 46.2943 58.7061 45.3941 57.8059C44.4939 56.9057 43.273 56.4 42 56.4C40.727 56.4 39.5061 56.9057 38.6059 57.8059C37.7057 58.7061 37.2 59.927 37.2 61.2C37.2 62.473 37.7057 63.6939 38.6059 64.5941C39.5061 65.4943 40.727 66 42 66Z" fill="#F3BA2F"/>
</svg>
