<svg width="159" height="129" viewBox="0 0 159 129" fill="none" xmlns="http://www.w3.org/2000/svg">
<g clip-path="url(#clip0_3377_1485)">
<path d="M11.079 76.0925C6.23407 64.9486 6.60293 51.7093 11.1104 40.4241C15.9082 28.4065 25.87 19.0388 37.0117 12.4597C56.632 0.873688 80.9166 -2.89589 102.902 3.09462C108.576 4.64065 114.156 6.85112 118.828 10.4219C123.498 13.9953 127.213 19.0493 128.34 24.82C129.12 28.8172 128.649 32.9582 129.19 36.9946C131.335 53.0147 146.372 60.4727 146.174 76.634C146.048 86.7316 139.15 93.8024 129.491 100.081C121.023 105.585 34.053 128.921 11.0816 76.0899L11.079 76.0925Z" fill="#1F2637"/>
<path d="M79.4987 129C123.405 129 158.997 127.032 158.997 124.605C158.997 122.178 123.405 120.21 79.4987 120.21C35.5928 120.21 0 122.178 0 124.605C0 127.032 35.5928 129 79.4987 129Z" fill="#1F2637"/>
<path d="M20.8203 72.718C20.8308 72.8096 20.8412 72.8959 20.8517 72.9875C22.1388 84.0424 24.5246 92.4579 27.4153 98.8618L33.6049 101.559L28.8332 101.52H28.6972C32.3021 108.496 36.4982 112.731 40.2496 115.3C42.5831 116.904 44.7492 117.861 46.4941 118.429C46.6092 118.468 46.7217 118.505 46.8342 118.539C47.1141 118.628 47.3861 118.701 47.6425 118.769L50.787 118.476C50.8079 118.324 50.8289 118.175 50.8445 118.024C50.8576 117.929 50.8681 117.833 50.8786 117.738C50.8969 117.613 50.9099 117.487 50.9204 117.364C52.5293 102.616 46.222 91.9609 38.9704 84.7723C38.9494 84.7461 38.9259 84.7252 38.8997 84.7017C36.3779 82.2087 33.7383 80.129 31.2845 78.4469L30.4185 82.1616L29.5003 77.2698C25.2597 74.5701 21.851 73.1313 21.0165 72.7965C20.8857 72.7442 20.8203 72.718 20.8203 72.718Z" fill="#009E91"/>
<path d="M20.7109 72.7859L20.847 72.9874L29.2183 85.4654L29.3674 85.6878L31.6512 89.0885L31.7271 89.2036L39.0049 100.049L39.0153 100.065L50.8738 117.741L51.0517 118.005L51.3342 118.426L51.6089 118.4L51.329 117.979L50.9157 117.367L39.2142 99.9237L38.997 99.5993L21.0118 72.7964L20.915 72.6499L20.7109 72.7859Z" fill="white"/>
<path d="M23.0154 84.847L22.9219 85.0371L31.6654 89.3393L31.759 89.1492L23.0154 84.847Z" fill="white"/>
<path d="M22.5701 82.1985L22.4766 82.3887L29.3311 85.7599L29.4247 85.5698L22.5701 82.1985Z" fill="white"/>
<path d="M38.9697 84.7001L38.7578 84.7036L39.0099 100.065L39.2217 100.061L38.9697 84.7001Z" fill="white"/>
<path d="M52.4 120.731C52.4 120.731 45.5146 125.309 34.0747 120.574L37.2505 118.455L31.715 119.494C27.1867 117.223 22.0383 113.503 16.3955 107.599L17.6067 106.791L15.9272 107.104C14.9724 106.095 14.0045 105.02 13.0234 103.879C13.0234 103.879 16.0737 103.152 20.5655 103.018L23.2809 105.757L22.2214 103C31.4534 103.05 45.2948 105.857 52.3974 120.733L52.4 120.731Z" fill="#009E91"/>
<path d="M13.0657 103.773L12.9766 103.994L52.8121 120.072L52.9012 119.851L13.0657 103.773Z" fill="white"/>
<path d="M23.3687 108.049L18.1953 109.359L18.2499 109.574L23.4233 108.264L23.3687 108.049Z" fill="white"/>
<path d="M26.0914 109.102L20.125 111.09L20.1953 111.301L26.1617 109.313L26.0914 109.102Z" fill="white"/>
<path d="M41.7783 108.509L41.9326 108.274C38.4507 105.987 34.3906 104.402 29.857 103.56L29.8047 103.837C34.299 104.672 38.3277 106.244 41.7757 108.509H41.7783Z" fill="#00BBAB"/>
<path d="M96.6445 26.3267V122.136C96.6445 123.472 95.5615 124.558 94.2221 124.558H47.1256C45.7888 124.558 44.7031 123.472 44.7031 122.136V26.3267C44.7031 24.9873 45.7888 23.9043 47.1256 23.9043H94.2221C95.5615 23.9043 96.6445 24.9873 96.6445 26.3267Z" fill="#00BBAB"/>
<path d="M99.7383 26.3267V122.136C99.7383 123.472 98.6552 124.558 97.3158 124.558H50.2193C48.8825 124.558 47.7969 123.472 47.7969 122.136V26.3267C47.7969 24.9873 48.8825 23.9043 50.2193 23.9043H97.3158C98.6552 23.9043 99.7383 24.9873 99.7383 26.3267Z" fill="#009E91"/>
<path d="M96.1746 36.2622V112.203C96.1746 113.749 95 115.002 93.5534 115.002H53.9885C52.5418 115.002 51.3672 113.749 51.3672 112.203V36.2622C51.3672 34.7162 52.5418 33.4631 53.9885 33.4631H93.5534C95 33.4631 96.1746 34.7162 96.1746 36.2622Z" fill="#20315B"/>
<path d="M80.3208 28.5215H67.2328C67.1046 28.5215 67 28.4169 67 28.2887C67 28.1605 67.1046 28.0559 67.2328 28.0559H80.3208C80.449 28.0559 80.5537 28.1605 80.5537 28.2887C80.5537 28.4169 80.449 28.5215 80.3208 28.5215Z" fill="#00BBAB"/>
<path d="M94.0608 115.562H53.4835C51.6915 115.562 50.2344 114.055 50.2344 112.2V36.2621C50.2344 34.41 51.6915 32.9006 53.4835 32.9006H94.0608C95.8528 32.9006 97.3099 34.4074 97.3099 36.2621V112.203C97.3099 114.055 95.8528 115.564 94.0608 115.564V115.562ZM53.4835 34.0229C52.3115 34.0229 51.3567 35.0274 51.3567 36.2621V112.203C51.3567 113.438 52.3115 114.442 53.4835 114.442H94.0608C95.2328 114.442 96.1876 113.438 96.1876 112.203V36.2621C96.1876 35.0274 95.2328 34.0229 94.0608 34.0229H53.4835Z" fill="#004C46"/>
<path d="M99.9511 26.3266V108.41H99.5299V26.3266C99.5299 25.1076 98.5358 24.1135 97.3168 24.1135H50.2203C49.0012 24.1135 48.0071 25.1076 48.0071 26.3266V92.1516H47.5859V26.3266C47.5859 24.8748 48.7684 23.6924 50.2203 23.6924H97.3168C98.7687 23.6924 99.9511 24.8748 99.9511 26.3266Z" fill="#00BBAB"/>
<path d="M55.6355 124.77H50.2203C48.7684 124.77 47.5859 123.587 47.5859 122.136V111.054H48.0071V122.136C48.0071 123.355 48.9986 124.349 50.2203 124.349H55.6355V124.77Z" fill="#00BBAB"/>
<path d="M82.357 124.349H61.6484V124.77H82.357V124.349Z" fill="#00BBAB"/>
<path d="M117.168 123.106C117.168 123.831 111.852 124.419 105.299 124.419C98.7455 124.419 93.4297 123.831 93.4297 123.106C93.4297 123.093 93.4323 123.08 93.4349 123.067V119.52H117.16V123.059C117.165 123.075 117.168 123.09 117.168 123.106Z" fill="#F49B51"/>
<path d="M105.299 120.864C111.854 120.864 117.168 120.276 117.168 119.551C117.168 118.826 111.854 118.238 105.299 118.238C98.7436 118.238 93.4297 118.826 93.4297 119.551C93.4297 120.276 98.7436 120.864 105.299 120.864Z" fill="#AC5D00"/>
<path d="M119.972 118.826C119.972 119.551 114.657 120.14 108.103 120.14C101.55 120.14 96.2344 119.551 96.2344 118.826C96.2344 118.813 96.237 118.8 96.2396 118.787V115.24H119.964V118.779C119.97 118.795 119.972 118.811 119.972 118.826Z" fill="#F49B51"/>
<path d="M108.103 116.585C114.658 116.585 119.972 115.997 119.972 115.271C119.972 114.546 114.658 113.958 108.103 113.958C101.548 113.958 96.2344 114.546 96.2344 115.271C96.2344 115.997 101.548 116.585 108.103 116.585Z" fill="#AC5D00"/>
<path d="M117.168 114.547C117.168 115.271 111.852 115.86 105.299 115.86C98.7455 115.86 93.4297 115.271 93.4297 114.547C93.4297 114.534 93.4323 114.521 93.4349 114.507V110.96H117.16V114.5C117.165 114.515 117.168 114.531 117.168 114.547Z" fill="#F49B51"/>
<path d="M105.299 112.305C111.854 112.305 117.168 111.717 117.168 110.992C117.168 110.266 111.854 109.678 105.299 109.678C98.7436 109.678 93.4297 110.266 93.4297 110.992C93.4297 111.717 98.7436 112.305 105.299 112.305Z" fill="#AC5D00"/>
<path d="M105.299 124.558C100.473 124.558 93.2891 124.171 93.2891 123.106H93.569C93.569 123.514 97.5977 124.278 105.299 124.278C105.579 124.278 105.857 124.278 106.131 124.276V124.555C105.859 124.555 105.579 124.558 105.299 124.558Z" fill="#00BBAB"/>
<path d="M110.005 124.451L109.992 124.171C111.193 124.113 112.297 124.035 113.267 123.936L113.296 124.215C112.32 124.315 111.214 124.393 110.005 124.451Z" fill="#00BBAB"/>
<path d="M100.617 119.962C96.1562 119.556 96.1562 118.994 96.1562 118.808H96.4362C96.4362 118.944 97.1922 119.368 100.64 119.682L100.614 119.962H100.617Z" fill="#00BBAB"/>
<path d="M108.161 120.263C106.827 120.263 105.516 120.239 104.266 120.189L104.276 119.909C106.508 119.996 108.977 120.006 111.277 119.936L111.284 120.215C110.267 120.247 109.215 120.263 108.158 120.263H108.161Z" fill="#00BBAB"/>
<path d="M114.237 120.077L114.219 119.797C115.485 119.713 116.589 119.606 117.499 119.478L117.538 119.755C116.62 119.886 115.508 119.993 114.237 120.077Z" fill="#00BBAB"/>
<path d="M97.3148 112.109C93.3594 111.706 93.3594 111.196 93.3594 111.005H93.6393C93.6393 111.005 93.7413 111.463 97.3436 111.832L97.3148 112.111V112.109Z" fill="#00BBAB"/>
<path d="M105.372 112.457C104.007 112.457 102.672 112.431 101.406 112.381L101.417 112.101C102.68 112.151 104.012 112.177 105.372 112.177C107.808 112.177 110.146 112.096 112.137 111.941L112.158 112.221C110.162 112.376 107.816 112.457 105.372 112.457Z" fill="#00BBAB"/>
<path d="M121.371 110.264C121.371 110.989 116.055 111.578 109.502 111.578C102.949 111.578 97.6328 110.989 97.6328 110.264C97.6328 110.251 97.6354 110.238 97.638 110.225V106.678H121.363V110.217C121.368 110.233 121.371 110.249 121.371 110.264Z" fill="#F49B51"/>
<path d="M109.502 108.023C116.057 108.023 121.371 107.435 121.371 106.709C121.371 105.984 116.057 105.396 109.502 105.396C102.947 105.396 97.6328 105.984 97.6328 106.709C97.6328 107.435 102.947 108.023 109.502 108.023Z" fill="#AC5D00"/>
<path d="M119.168 106.709C119.168 107.196 114.842 107.591 109.502 107.591C104.163 107.591 99.8359 107.196 99.8359 106.709C99.8359 106.223 104.163 105.828 109.502 105.828C114.842 105.828 119.168 106.223 119.168 106.709Z" fill="#F49B51"/>
<g opacity="0.38">
<path d="M99.6885 63.7478V97.8231H70.0095C68.8532 97.8231 67.9062 97.0252 67.9062 96.0469V65.5214C67.9062 64.5457 68.8506 63.7478 70.0095 63.7478H99.6885Z" fill="#A3B2CE"/>
</g>
<path d="M77.9224 3.65168C71.3038 3.83741 66.09 9.35443 66.2784 15.9754C66.4641 22.5937 71.9813 27.8099 78.6025 27.6189C85.2211 27.4332 90.4375 21.9162 90.2465 15.2952C90.0608 8.6769 84.5435 3.46333 77.9224 3.65168ZM87.9078 15.3633C87.981 17.94 87.0445 20.3885 85.2734 22.2641C83.505 24.1371 81.1113 25.2097 78.5345 25.2829C73.2161 25.432 68.7662 21.2282 68.6171 15.91C68.5439 13.3333 69.4778 10.8848 71.2489 9.00913C72.9571 7.20151 75.2462 6.13944 77.7209 6.00341C77.8099 5.99818 77.8988 5.99556 77.9904 5.99294C83.2224 5.84384 87.6095 9.90901 87.8973 15.1017C87.9025 15.1906 87.9078 15.2769 87.9104 15.3659L87.9078 15.3633Z" fill="#AC5D00"/>
<path d="M87.8988 15.0989C87.904 15.1879 87.9092 15.2742 87.9118 15.3632C87.9851 17.9399 87.0485 20.391 85.2775 22.264C83.509 24.137 81.1154 25.2096 78.5386 25.2828C73.2202 25.4319 68.7703 21.2281 68.6212 15.9073C68.5479 13.3306 69.4819 10.8794 71.2529 9.00642C72.9612 7.1988 75.2502 6.13673 77.725 5.99808C77.8139 5.99285 77.9029 5.99023 77.9944 5.98762C83.2265 5.83851 87.6136 9.90368 87.9014 15.0963L87.8988 15.0989Z" fill="#F49B51"/>
<path d="M78.0634 23.0384L77.964 21.2256C76.9228 21.2648 75.8267 21.0032 75.1727 20.5873L75.5363 19.3604C76.206 19.7554 77.1583 20.0432 78.1628 19.9882C79.4369 19.9176 80.2583 19.1328 80.2007 18.11C80.1458 17.1238 79.4133 16.5509 78.053 16.0879C76.1825 15.4705 75.0053 14.7093 74.919 13.1475C74.8352 11.6591 75.8319 10.4688 77.4696 10.1078L77.3702 8.29496L78.482 8.23218L78.5788 9.9744C79.6566 9.95085 80.41 10.1968 80.9463 10.474L80.5644 11.6826C80.1746 11.489 79.4185 11.1333 78.2701 11.1987C76.8888 11.2745 76.4127 12.1299 76.452 12.8467C76.5043 13.7806 77.1949 14.2096 78.7907 14.7694C80.6821 15.4208 81.6657 16.3024 81.7547 17.9007C81.8331 19.3185 80.9201 20.7024 79.0889 21.1105L79.1936 22.9782L78.0634 23.041V23.0384Z" fill="#AC5D00"/>
<path d="M87.3688 12.7108C87.3453 12.6349 87.3165 12.5565 87.2903 12.4806C86.38 9.88035 84.397 7.81114 81.8438 6.78308L81.9405 6.53979C84.5618 7.59402 86.5997 9.7234 87.531 12.376C87.565 12.4701 87.5912 12.5486 87.6173 12.6297L87.3688 12.7082V12.7108Z" fill="#00BBAB"/>
<path d="M81.8473 6.78288C79.7963 5.95624 77.5073 5.87514 75.4014 6.54744L75.3203 6.29893C77.4838 5.6057 79.8356 5.69203 81.9441 6.53959L81.8473 6.78288Z" fill="#00BBAB"/>
<path d="M86.9984 20.0903L86.7656 19.9699C87.3464 18.8451 87.6917 17.6444 87.7963 16.3992L88.0579 16.4201C87.9507 17.6993 87.5949 18.9314 86.9984 20.0877V20.0903Z" fill="#00BBAB"/>
<path d="M85.5562 6.29902C84.5856 5.54039 83.5104 4.93873 82.3594 4.51494L82.4562 4.25073C83.6334 4.68498 84.7347 5.29973 85.7288 6.07928L85.5562 6.29902Z" fill="#00BBAB"/>
<path d="M85.5763 25.3116L85.4062 25.0866C88.4565 22.7768 90.2145 19.1171 90.1047 15.2978C90.0366 12.9251 89.2728 10.6545 87.8941 8.73438L88.1217 8.56958C89.5344 10.5368 90.3165 12.8597 90.3846 15.2899C90.4944 19.2008 88.6972 22.9468 85.5737 25.309L85.5763 25.3116Z" fill="#00BBAB"/>
<path d="M46.555 43.8011C41.111 45.0698 37.7258 50.511 38.992 55.9574C40.2608 61.4011 45.7021 64.7888 51.1487 63.5201C56.5927 62.2513 59.9805 56.8102 58.7117 51.3638C57.4429 45.92 52.0015 42.535 46.555 43.8011ZM56.7889 51.8111C57.2833 53.93 56.9197 56.1143 55.7713 57.9638C54.6228 59.8106 52.823 61.1029 50.7014 61.5973C46.3274 62.6149 41.9377 59.8865 40.9174 55.51C40.423 53.3911 40.784 51.2068 41.935 49.3573C43.0442 47.5759 44.7604 46.3098 46.7852 45.7813C46.8584 45.763 46.9317 45.7447 47.0049 45.729C51.3083 44.7245 55.6248 47.3509 56.7366 51.5992C56.7549 51.6698 56.7732 51.7431 56.7915 51.8163L56.7889 51.8111Z" fill="#AC5D00"/>
<path d="M56.7356 51.5942C56.7539 51.6648 56.7722 51.738 56.7905 51.8113C57.285 53.9302 56.9213 56.1171 55.7729 57.964C54.6245 59.8108 52.8246 61.1031 50.703 61.5975C46.329 62.6151 41.9367 59.8867 40.9191 55.5102C40.4246 53.3913 40.7856 51.207 41.9367 49.3575C43.0459 47.5761 44.762 46.31 46.7868 45.7815C46.8601 45.7632 46.9333 45.7449 47.0066 45.7292C51.31 44.7247 55.6264 47.3511 56.7382 51.5994L56.7356 51.5942Z" fill="#F49B51"/>
<path d="M49.9324 59.8186L49.5452 58.3354C48.6897 58.5447 47.7401 58.5107 47.128 58.2779L47.2221 57.2027C47.8421 57.4172 48.6793 57.4957 49.5033 57.2812C50.5471 57.0091 51.0939 56.2217 50.8741 55.3846C50.6622 54.5763 49.9585 54.2284 48.7578 54.0714C47.107 53.8752 46.0031 53.4436 45.6682 52.1644C45.3491 50.9454 45.9743 49.7944 47.2666 49.2188L46.8794 47.7356L47.7898 47.4976L48.1639 48.9232C49.0534 48.7218 49.7152 48.8003 50.207 48.9363L50.0946 50.001C49.7414 49.9068 49.0534 49.7394 48.1142 49.9853C46.9841 50.2809 46.7356 51.0683 46.8873 51.6569C47.0861 52.4208 47.7297 52.6614 49.1475 52.855C50.8218 53.0747 51.7845 53.6398 52.1272 54.9478C52.4307 56.1092 51.9075 57.4067 50.4608 58.0529L50.8611 59.5806L49.935 59.8239L49.9324 59.8186Z" fill="#AC5D00"/>
<path d="M55.8977 49.708C55.8637 49.6478 55.8296 49.5903 55.793 49.5301C54.6027 47.5315 52.6119 46.1529 50.3281 45.7318L50.3674 45.5146C52.714 45.9463 54.7571 47.3641 55.9735 49.4046C56.0154 49.4778 56.052 49.538 56.086 49.6008L55.8924 49.708H55.8977Z" fill="#00BBAB"/>
<path d="M50.3243 45.7317C48.4879 45.3943 46.5808 45.7108 44.951 46.6211L44.8438 46.4276C46.5154 45.4911 48.4774 45.1667 50.3636 45.512L50.3243 45.7291V45.7317Z" fill="#00BBAB"/>
<path d="M56.8291 55.8764L56.6172 55.8162C56.9076 54.7881 56.9939 53.7339 56.8683 52.6875L57.0881 52.6614C57.2163 53.7365 57.1273 54.8195 56.8291 55.8738V55.8764Z" fill="#00BBAB"/>
<path d="M53.3207 44.7063C52.3893 44.2407 51.4005 43.9241 50.375 43.7672L50.4116 43.5317C51.4607 43.6939 52.4757 44.0183 53.4279 44.4944L53.3233 44.7063H53.3207Z" fill="#00BBAB"/>
<path d="M56.5326 60.436L56.3547 60.2791C58.4894 57.8541 59.3291 54.5318 58.5966 51.3901C58.1414 49.436 57.1264 47.6885 55.6641 46.3309L55.8263 46.1582C57.3252 47.5473 58.3638 49.3392 58.8295 51.3378C59.5777 54.5554 58.7222 57.9561 56.5352 60.4386L56.5326 60.436Z" fill="#00BBAB"/>
<path d="M72.3002 95.2043H119.732C120.713 95.2043 121.508 94.4091 121.508 93.4281V62.9053C121.508 61.9243 120.713 61.1291 119.732 61.1291L72.3002 61.1291C71.3192 61.1291 70.5239 61.9243 70.5239 62.9053V93.4281C70.5239 94.4091 71.3192 95.2043 72.3002 95.2043Z" fill="#009A8D"/>
<path d="M83.356 81.96H74.8173C74.5514 81.96 74.3359 82.1755 74.3359 82.4413V84.0815C74.3359 84.3473 74.5514 84.5628 74.8173 84.5628H83.356C83.6219 84.5628 83.8374 84.3473 83.8374 84.0815V82.4413C83.8374 82.1755 83.6219 81.96 83.356 81.96Z" fill="#004C46"/>
<path d="M94.6451 81.96H86.1063C85.8405 81.96 85.625 82.1755 85.625 82.4413V84.0815C85.625 84.3473 85.8405 84.5628 86.1063 84.5628H94.6451C94.9109 84.5628 95.1264 84.3473 95.1264 84.0815V82.4413C95.1264 82.1755 94.9109 81.96 94.6451 81.96Z" fill="#004C46"/>
<path d="M105.926 81.96H97.3876C97.1218 81.96 96.9062 82.1755 96.9062 82.4413V84.0815C96.9062 84.3473 97.1218 84.5628 97.3876 84.5628H105.926C106.192 84.5628 106.408 84.3473 106.408 84.0815V82.4413C106.408 82.1755 106.192 81.96 105.926 81.96Z" fill="#004C46"/>
<path d="M117.215 81.96H108.677C108.411 81.96 108.195 82.1755 108.195 82.4413V84.0815C108.195 84.3473 108.411 84.5628 108.677 84.5628H117.215C117.481 84.5628 117.697 84.3473 117.697 84.0815V82.4413C117.697 82.1755 117.481 81.96 117.215 81.96Z" fill="#004C46"/>
<path d="M117.108 87.0505H105.875C105.551 87.0505 105.289 87.3129 105.289 87.6365V89.0674C105.289 89.3911 105.551 89.6534 105.875 89.6534H117.108C117.432 89.6534 117.694 89.3911 117.694 89.0674V87.6365C117.694 87.3129 117.432 87.0505 117.108 87.0505Z" fill="#004C46"/>
<path d="M76.5 71.1874V67.7684C76.5 67.0202 77.1069 66.4133 77.8551 66.4133H84.4946C85.2428 66.4133 85.8497 67.0202 85.8497 67.7684V71.1874C85.8497 71.9356 85.2428 72.5425 84.4946 72.5425H77.8551C77.1069 72.5425 76.5 71.9356 76.5 71.1874ZM77.8551 66.7769C77.3084 66.7769 76.8636 67.2217 76.8636 67.7684V71.1874C76.8636 71.7342 77.3084 72.1789 77.8551 72.1789H84.4946C85.0414 72.1789 85.4861 71.7342 85.4861 71.1874V67.7684C85.4861 67.2217 85.0414 66.7769 84.4946 66.7769H77.8551Z" fill="white"/>
<path d="M116.127 69.0031C116.127 68.9612 116.143 68.9193 116.174 68.8853C117.668 67.3916 117.668 64.9614 116.174 63.4703C116.109 63.4049 116.109 63.3029 116.174 63.2375C116.239 63.1721 116.341 63.1721 116.407 63.2375C118.029 64.8594 118.029 67.4989 116.407 69.1182C116.341 69.1836 116.239 69.1836 116.174 69.1182C116.143 69.0868 116.127 69.0449 116.127 69.0004V69.0031Z" fill="white"/>
<path d="M115.299 64.2969C115.299 64.255 115.315 64.2132 115.346 64.1792C115.411 64.1138 115.513 64.1138 115.579 64.1792C116.68 65.2805 116.68 67.075 115.579 68.1763C115.513 68.2417 115.411 68.2417 115.346 68.1763C115.281 68.1109 115.281 68.0089 115.346 67.9435C116.319 66.9704 116.319 65.3851 115.346 64.412C115.315 64.3806 115.299 64.3387 115.299 64.2943V64.2969Z" fill="white"/>
<path d="M114.51 67.1876C114.51 67.1457 114.525 67.1039 114.557 67.0699C115.049 66.5781 115.049 65.7776 114.557 65.2858C114.491 65.2204 114.491 65.1184 114.557 65.053C114.622 64.9876 114.724 64.9876 114.79 65.053C115.41 65.6729 115.41 66.6827 114.79 67.3027C114.724 67.3681 114.622 67.3681 114.557 67.3027C114.525 67.2713 114.51 67.2294 114.51 67.1849V67.1876Z" fill="white"/>
<path d="M121.687 69.4714H121.331V62.717C121.331 61.8355 120.614 61.1187 119.733 61.1187H105.219V60.7629H119.733C120.81 60.7629 121.684 61.6393 121.684 62.7144V69.4688L121.687 69.4714Z" fill="#00BBAB"/>
<path d="M121.684 73.0186H121.328V76.9242H121.684V73.0186Z" fill="#00BBAB"/>
<path d="M88.7583 60.7656H79.4609V61.1214H88.7583V60.7656Z" fill="#00BBAB"/>
<path d="M122.627 25.6413C115.624 23.7448 108.411 27.8858 106.515 34.8913C104.618 41.8942 108.759 49.109 115.765 51.0029C122.768 52.8995 129.983 48.7584 131.877 41.7529C133.774 34.7501 129.633 27.5379 122.627 25.6413ZM129.402 41.0859C128.665 43.8117 126.909 46.0875 124.458 47.4923C122.009 48.8997 119.161 49.2685 116.432 48.5308C110.805 47.0057 107.464 41.1905 108.989 35.561C109.727 32.8352 111.48 30.5593 113.931 29.1519C116.293 27.7943 119.032 27.4045 121.672 28.0428C121.769 28.0663 121.86 28.0925 121.957 28.116C127.493 29.6123 130.812 35.2654 129.473 40.8033C129.449 40.8975 129.428 40.9917 129.402 41.0833V41.0859Z" fill="#AC5D00"/>
<path d="M129.478 40.8059C129.454 40.9001 129.433 40.9942 129.407 41.0858C128.669 43.8116 126.914 46.0875 124.463 47.4922C122.014 48.8996 119.165 49.2685 116.437 48.5308C110.81 47.0057 107.469 41.1904 108.994 35.5609C109.732 32.8351 111.485 30.5592 113.936 29.1519C116.298 27.7942 119.037 27.4044 121.677 28.0427C121.773 28.0662 121.865 28.0924 121.962 28.1159C127.5 29.6123 130.817 35.2653 129.478 40.8033V40.8059Z" fill="#F49B51"/>
<path d="M116.648 46.0247L117.117 44.0915C116.01 43.8038 114.945 43.1812 114.391 42.5403L115.16 41.3683C115.738 41.9936 116.646 42.5978 117.718 42.8568C119.079 43.1864 120.188 42.6214 120.449 41.5305C120.703 40.4763 120.115 39.6471 118.835 38.7289C117.067 37.4915 116.073 36.3196 116.476 34.6532C116.86 33.0653 118.281 32.1315 120.112 32.2701L120.58 30.3369L121.768 30.6247L121.318 32.482C122.458 32.7985 123.167 33.2929 123.646 33.7533L122.861 34.9017C122.516 34.5747 121.831 33.9652 120.606 33.667C119.131 33.3112 118.364 34.0568 118.179 34.8233C117.938 35.8199 118.527 36.487 120.026 37.5805C121.804 38.8623 122.558 40.097 122.147 41.8026C121.781 43.3146 120.387 44.4787 118.336 44.327L117.854 46.3177L116.648 46.0273V46.0247Z" fill="#AC5D00"/>
<path d="M129.671 38.1324C129.671 38.0435 129.666 37.9545 129.664 37.8656C129.53 34.8494 128.104 32.0503 125.75 30.1669L125.928 29.9419C128.345 31.8777 129.81 34.7526 129.946 37.8342C129.951 37.9441 129.954 38.0356 129.957 38.1272L129.669 38.1324H129.671Z" fill="#00BBAB"/>
<path d="M125.749 30.167C123.858 28.6524 121.482 27.8414 119.06 27.8833L119.055 27.5981C121.543 27.5537 123.983 28.3881 125.927 29.9446L125.749 30.1696V30.167Z" fill="#00BBAB"/>
<path d="M126.949 45.7579L126.742 45.5591C127.708 44.5624 128.45 43.4114 128.953 42.1375L129.22 42.2421C128.704 43.5501 127.94 44.7325 126.949 45.7553V45.7579Z" fill="#00BBAB"/>
<path d="M129.799 30.834C129.022 29.7301 128.083 28.7622 127.008 27.9512L127.194 27.7053C128.292 28.5346 129.252 29.5286 130.05 30.6561L129.799 30.834Z" fill="#00BBAB"/>
<path d="M123.81 50.7885L123.703 50.5007C127.632 49.041 130.633 45.758 131.726 41.7164C132.407 39.2051 132.323 36.5813 131.483 34.1302L131.774 34.0308C132.632 36.5395 132.721 39.226 132.025 41.7975C130.905 45.9359 127.834 49.2974 123.81 50.7911V50.7885Z" fill="#00BBAB"/>
<path d="M89.2371 65.7149L98.4639 71.9618L105.849 64.0512L102.383 64.3991C102.341 64.161 102.289 63.9256 102.241 63.6876L102.168 63.3344C102.155 63.2742 102.145 63.2167 102.129 63.1591L101.865 62.1337C101.049 59.2483 99.6672 56.5827 97.8648 54.3094C96.065 52.0335 93.8413 50.1501 91.3744 48.7793C88.9101 47.4059 86.2077 46.5558 83.5028 46.2497C80.7978 45.9358 78.0614 46.1738 75.5212 46.9089C72.9784 47.644 70.6319 48.8709 68.6411 50.4718C66.6476 52.0702 65.0048 54.0347 63.8197 56.2034C62.632 58.3694 61.9074 60.7342 61.6562 63.1016C62.3495 60.8205 63.477 58.7225 64.9394 56.9541C66.3991 55.1831 68.1859 53.7444 70.1374 52.7137C72.089 51.6804 74.2054 51.063 76.3139 50.8747C78.4224 50.6837 80.5179 50.9218 82.459 51.5391C84.4027 52.1539 86.1659 53.1348 87.6439 54.3905C89.122 55.6435 90.3149 57.1686 91.1573 58.8245C91.9996 60.4804 92.4025 62.2776 92.6484 64.0224C92.7034 64.4069 92.774 65.3905 92.774 65.3905L89.2423 65.7097L89.2371 65.7149Z" fill="#00BBAB"/>
<path d="M111.25 30.2403C112.223 30.7347 112.893 31.4934 113.351 32.4429C113.808 31.4934 114.481 30.7295 115.454 30.2351C114.481 29.7407 113.808 28.9821 113.351 28.0325C112.893 28.9821 112.223 29.7459 111.25 30.2403Z" fill="#FFE6A6"/>
<path d="M120.656 48.3087C121.221 48.5964 121.611 49.0359 121.878 49.5879C122.145 49.0359 122.535 48.5912 123.1 48.3061C122.535 48.0183 122.145 47.5788 121.878 47.0269C121.611 47.5788 121.224 48.0235 120.656 48.3087Z" fill="#FFE6A6"/>
<path d="M82.0547 22.8398C82.7479 23.1929 83.2241 23.7318 83.5511 24.4093C83.8781 23.7318 84.3568 23.1877 85.05 22.8371C84.3568 22.484 83.8781 21.9451 83.5511 21.2676C83.2241 21.9451 82.7479 22.4892 82.0547 22.8398Z" fill="#FFE6A6"/>
<path d="M40.625 50.1684C41.1848 50.4535 41.5694 50.8878 41.831 51.4345C42.0926 50.8878 42.4798 50.4509 43.0396 50.1658C42.4798 49.8806 42.0952 49.4464 41.831 48.8997C41.5694 49.4464 41.1848 49.8833 40.625 50.1684Z" fill="#FFE6A6"/>
<path d="M79.5625 25.453C79.9654 25.657 80.2427 25.971 80.431 26.366C80.6194 25.9736 80.8993 25.657 81.3022 25.453C80.8993 25.249 80.622 24.935 80.431 24.54C80.2427 24.9324 79.9654 25.249 79.5625 25.453Z" fill="#FFE6A6"/>
<path d="M5.96974 65.456L5.70813 65.5555C3.75134 60.3994 4.06265 54.8249 6.68391 48.0129L6.94552 48.115C4.3478 54.8589 4.0391 60.368 5.96974 65.456Z" fill="#00BBAB"/>
<path d="M5.16168 69.448L4.92362 69.5945C-0.708704 60.4884 2.57965 51.1129 6.5351 43.1421L6.78624 43.2677C2.86219 51.1678 -0.397395 60.457 5.16168 69.448Z" fill="#00BBAB"/>
<path d="M124.706 12.5748C120.188 6.93485 115.587 3.88989 110.219 2.99262L110.266 2.71533C115.705 3.62306 120.364 6.69941 124.926 12.3969L124.706 12.5722V12.5748Z" fill="#00BBAB"/>
<path d="M128.974 14.882C124.126 7.51289 117.746 0.0156018 107.18 0.28766L107.172 0.00775397C117.874 -0.26692 124.317 7.29316 129.209 14.7277L128.974 14.882Z" fill="#00BBAB"/>
<path d="M90.9843 58.9188C90.1446 57.2681 88.9464 55.7561 87.5181 54.5449C86.0531 53.2997 84.2847 52.3266 82.4011 51.7302C80.4783 51.1154 78.3803 50.8878 76.3345 51.0736C75.3195 51.1651 74.3045 51.3561 73.313 51.6439L73.2031 51.2672C74.2181 50.9716 75.2593 50.7754 76.2979 50.6838C78.396 50.4955 80.549 50.7283 82.5188 51.3587C84.4495 51.9708 86.2676 52.9701 87.7692 54.2493C89.2368 55.4919 90.4663 57.0458 91.3296 58.7435L90.9791 58.9214L90.9843 58.9188Z" fill="#00BBAB"/>
<path d="M65.0925 57.0797L64.7891 56.8312C66.2357 55.0786 68.0539 53.5953 70.0473 52.5437L70.2304 52.8916C68.2841 53.9197 66.5052 55.3689 65.0925 57.0824V57.0797Z" fill="#00BBAB"/>
<path d="M101.679 62.1887C100.886 59.3844 99.5154 56.703 97.7156 54.4324C95.955 52.2062 93.7288 50.3123 91.2828 48.952C88.8917 47.6205 86.1946 46.752 83.4844 46.4459L83.5289 46.0562C86.2914 46.3701 89.0408 47.2516 91.4737 48.6093C93.9642 49.9931 96.2297 51.9237 98.0217 54.1891C99.8529 56.499 101.247 59.23 102.056 62.0814L101.679 62.1887Z" fill="#00BBAB"/>
<path d="M98.4954 72.2209L91.4766 67.4651L91.6963 67.1407L98.4378 71.7056L103.939 65.8145L104.227 66.0813L98.4954 72.2209Z" fill="#00BBAB"/>
</g>
<defs>
<clipPath id="clip0_3377_1485">
<rect width="159" height="129" fill="white"/>
</clipPath>
</defs>
</svg>
