<svg width="159" height="129" viewBox="0 0 159 129" fill="none" xmlns="http://www.w3.org/2000/svg">
<g clip-path="url(#clip0_288_794)">
<path d="M11.0809 76.0925C6.23602 64.9486 6.60488 51.7093 11.1123 40.4242C15.9101 28.4065 25.872 19.0388 37.0137 12.4597C56.6339 0.873718 80.9186 -2.89586 102.904 3.09465C108.578 4.64068 114.158 6.85115 118.83 10.4219C123.5 13.9953 127.215 19.0493 128.342 24.8201C129.122 28.8172 128.651 32.9583 129.192 36.9947C131.337 53.0147 146.374 60.4728 146.176 76.634C146.05 86.7316 139.152 93.8025 129.493 100.081C121.025 105.585 34.0549 128.922 11.0835 76.0899L11.0809 76.0925Z" fill="#EFF4F9"/>
<path d="M79.4987 129C123.405 129 158.997 127.032 158.997 124.605C158.997 122.178 123.405 120.21 79.4987 120.21C35.5928 120.21 0 122.178 0 124.605C0 127.032 35.5928 129 79.4987 129Z" fill="#E9ECF2"/>
<path d="M20.8184 72.718C20.8288 72.8095 20.8393 72.8959 20.8498 72.9874C22.1368 84.0424 24.5227 92.4579 27.4134 98.8617L33.6029 101.559L28.8313 101.52H28.6952C32.3001 108.496 36.4963 112.731 40.2477 115.3C42.5812 116.904 44.7472 117.861 46.4921 118.429C46.6072 118.468 46.7197 118.505 46.8322 118.539C47.1121 118.628 47.3842 118.701 47.6406 118.769L50.785 118.476C50.806 118.324 50.8269 118.175 50.8426 118.024C50.8557 117.929 50.8661 117.833 50.8766 117.738C50.8949 117.613 50.908 117.487 50.9185 117.364C52.5273 102.616 46.2201 91.9609 38.9684 84.7722C38.9475 84.7461 38.9239 84.7252 38.8978 84.7016C36.3759 82.2086 33.7363 80.129 31.2825 78.4469L30.4166 82.1615L29.4984 77.2697C25.2578 74.5701 21.8491 73.1313 21.0146 72.7965C20.8838 72.7441 20.8184 72.718 20.8184 72.718Z" fill="#009E91"/>
<path d="M20.7129 72.786L20.8489 72.9874L29.2202 85.4655L29.3694 85.6878L31.6532 89.0886L31.729 89.2037L39.0068 100.049L39.0173 100.065L50.8758 117.741L51.0537 118.005L51.3362 118.426L51.6109 118.4L51.331 117.979L50.9176 117.367L39.2161 99.9238L38.999 99.5994L21.0137 72.7965L20.9169 72.65L20.7129 72.786Z" fill="white"/>
<path d="M23.0135 84.8471L22.9199 85.0372L31.6635 89.3394L31.757 89.1493L23.0135 84.8471Z" fill="white"/>
<path d="M22.574 82.1985L22.4805 82.3886L29.3351 85.7599L29.4286 85.5697L22.574 82.1985Z" fill="white"/>
<path d="M38.9697 84.7003L38.7578 84.7037L39.0099 100.065L39.2217 100.062L38.9697 84.7003Z" fill="white"/>
<path d="M52.3961 120.731C52.3961 120.731 45.5107 125.309 34.0708 120.574L37.2466 118.455L31.7111 119.494C27.1827 117.223 22.0344 113.503 16.3916 107.599L17.6028 106.791L15.9233 107.105C14.9685 106.095 14.0005 105.02 13.0195 103.879C13.0195 103.879 16.0698 103.152 20.5616 103.018L23.277 105.757L22.2175 103C31.4495 103.05 45.2909 105.857 52.3935 120.734L52.3961 120.731Z" fill="#009E91"/>
<path d="M13.0657 103.773L12.9766 103.994L52.8121 120.072L52.9012 119.851L13.0657 103.773Z" fill="white"/>
<path d="M23.3726 108.049L18.1992 109.359L18.2538 109.574L23.4272 108.264L23.3726 108.049Z" fill="white"/>
<path d="M26.0933 109.102L20.127 111.09L20.1973 111.301L26.1636 109.313L26.0933 109.102Z" fill="white"/>
<path d="M41.7763 108.509L41.9307 108.274C38.4487 105.988 34.3886 104.402 29.8551 103.56L29.8027 103.837C34.2971 104.672 38.3258 106.244 41.7737 108.509H41.7763Z" fill="#00BBAB"/>
<path d="M96.6445 26.3268V122.136C96.6445 123.473 95.5615 124.558 94.2221 124.558H47.1256C45.7888 124.558 44.7031 123.473 44.7031 122.136V26.3268C44.7031 24.9875 45.7888 23.9045 47.1256 23.9045H94.2221C95.5615 23.9045 96.6445 24.9875 96.6445 26.3268Z" fill="#00BBAB"/>
<path d="M99.7422 26.3268V122.136C99.7422 123.473 98.6591 124.558 97.3197 124.558H50.2232C48.8864 124.558 47.8008 123.473 47.8008 122.136V26.3268C47.8008 24.9875 48.8864 23.9045 50.2232 23.9045H97.3197C98.6591 23.9045 99.7422 24.9875 99.7422 26.3268Z" fill="#009E91"/>
<path d="M96.1766 36.2622V112.203C96.1766 113.749 95.002 115.002 93.5553 115.002H53.9904C52.5437 115.002 51.3691 113.749 51.3691 112.203V36.2622C51.3691 34.7162 52.5437 33.4631 53.9904 33.4631H93.5553C95.002 33.4631 96.1766 34.7162 96.1766 36.2622Z" fill="#EDEDED"/>
<path d="M80.3169 28.5216H67.2289C67.1007 28.5216 66.9961 28.417 66.9961 28.2888C66.9961 28.1606 67.1007 28.056 67.2289 28.056H80.3169C80.4451 28.056 80.5498 28.1606 80.5498 28.2888C80.5498 28.417 80.4451 28.5216 80.3169 28.5216Z" fill="#00BBAB"/>
<path d="M94.0589 115.562H53.4815C51.6896 115.562 50.2324 114.055 50.2324 112.2V36.2622C50.2324 34.4101 51.6896 32.9007 53.4815 32.9007H94.0589C95.8508 32.9007 97.308 34.4075 97.308 36.2622V112.203C97.308 114.055 95.8508 115.564 94.0589 115.564V115.562ZM53.4815 34.0229C52.3096 34.0229 51.3547 35.0275 51.3547 36.2622V112.203C51.3547 113.438 52.3096 114.442 53.4815 114.442H94.0589C95.2308 114.442 96.1857 113.438 96.1857 112.203V36.2622C96.1857 35.0275 95.2308 34.0229 94.0589 34.0229H53.4815Z" fill="white"/>
<path d="M99.9531 26.3269V108.41H99.5319V26.3269C99.5319 25.1078 98.5378 24.1138 97.3187 24.1138H50.2222C49.0032 24.1138 48.0091 25.1078 48.0091 26.3269V92.1518H47.5879V26.3269C47.5879 24.875 48.7703 23.6926 50.2222 23.6926H97.3187C98.7706 23.6926 99.9531 24.875 99.9531 26.3269Z" fill="#00BBAB"/>
<path d="M55.6394 124.77H50.2242C48.7723 124.77 47.5898 123.588 47.5898 122.136V111.055H48.011V122.136C48.011 123.355 49.0025 124.349 50.2242 124.349H55.6394V124.77Z" fill="#00BBAB"/>
<path d="M82.3609 124.349H61.6523V124.77H82.3609V124.349Z" fill="#00BBAB"/>
<path d="M117.168 123.106C117.168 123.831 111.852 124.419 105.299 124.419C98.7455 124.419 93.4297 123.831 93.4297 123.106C93.4297 123.093 93.4323 123.08 93.4349 123.067V119.52H117.16V123.059C117.165 123.075 117.168 123.091 117.168 123.106Z" fill="#F49B51"/>
<path d="M105.299 120.864C111.854 120.864 117.168 120.276 117.168 119.551C117.168 118.826 111.854 118.238 105.299 118.238C98.7436 118.238 93.4297 118.826 93.4297 119.551C93.4297 120.276 98.7436 120.864 105.299 120.864Z" fill="#AC5D00"/>
<path d="M119.972 118.827C119.972 119.551 114.657 120.14 108.103 120.14C101.55 120.14 96.2344 119.551 96.2344 118.827C96.2344 118.813 96.237 118.8 96.2396 118.787V115.24H119.964V118.779C119.97 118.795 119.972 118.811 119.972 118.827Z" fill="#F49B51"/>
<path d="M108.103 116.585C114.658 116.585 119.972 115.997 119.972 115.272C119.972 114.546 114.658 113.958 108.103 113.958C101.548 113.958 96.2344 114.546 96.2344 115.272C96.2344 115.997 101.548 116.585 108.103 116.585Z" fill="#AC5D00"/>
<path d="M117.168 114.547C117.168 115.272 111.852 115.86 105.299 115.86C98.7455 115.86 93.4297 115.272 93.4297 114.547C93.4297 114.534 93.4323 114.521 93.4349 114.508V110.96H117.16V114.5C117.165 114.516 117.168 114.531 117.168 114.547Z" fill="#F49B51"/>
<path d="M105.299 112.305C111.854 112.305 117.168 111.717 117.168 110.992C117.168 110.267 111.854 109.679 105.299 109.679C98.7436 109.679 93.4297 110.267 93.4297 110.992C93.4297 111.717 98.7436 112.305 105.299 112.305Z" fill="#AC5D00"/>
<path d="M105.301 124.558C100.475 124.558 93.291 124.171 93.291 123.106H93.5709C93.5709 123.514 97.5996 124.278 105.301 124.278C105.581 124.278 105.858 124.278 106.133 124.276V124.555C105.861 124.555 105.581 124.558 105.301 124.558Z" fill="#00BBAB"/>
<path d="M110.005 124.451L109.992 124.171C111.193 124.113 112.297 124.035 113.267 123.936L113.296 124.215C112.32 124.315 111.214 124.393 110.005 124.451Z" fill="#00BBAB"/>
<path d="M100.617 119.962C96.1562 119.556 96.1562 118.994 96.1562 118.808H96.4362C96.4362 118.944 97.1922 119.368 100.64 119.682L100.614 119.962H100.617Z" fill="#00BBAB"/>
<path d="M108.165 120.263C106.831 120.263 105.52 120.239 104.27 120.19L104.28 119.91C106.511 119.996 108.981 120.006 111.281 119.936L111.288 120.216C110.271 120.247 109.219 120.263 108.162 120.263H108.165Z" fill="#00BBAB"/>
<path d="M114.239 120.077L114.221 119.797C115.487 119.713 116.591 119.606 117.501 119.478L117.54 119.755C116.622 119.886 115.51 119.993 114.239 120.077Z" fill="#00BBAB"/>
<path d="M97.3168 112.109C93.3613 111.706 93.3613 111.196 93.3613 111.005H93.6412C93.6412 111.005 93.7433 111.463 97.3455 111.832L97.3168 112.111V112.109Z" fill="#00BBAB"/>
<path d="M105.372 112.457C104.007 112.457 102.672 112.431 101.406 112.381L101.417 112.101C102.68 112.151 104.012 112.177 105.372 112.177C107.808 112.177 110.146 112.096 112.137 111.941L112.158 112.221C110.162 112.376 107.816 112.457 105.372 112.457Z" fill="#00BBAB"/>
<path d="M121.375 110.265C121.375 110.989 116.059 111.578 109.506 111.578C102.953 111.578 97.6367 110.989 97.6367 110.265C97.6367 110.252 97.6393 110.238 97.6419 110.225V106.678H121.367V110.218C121.372 110.233 121.375 110.249 121.375 110.265Z" fill="#F49B51"/>
<path d="M109.506 108.023C116.061 108.023 121.375 107.435 121.375 106.71C121.375 105.984 116.061 105.396 109.506 105.396C102.951 105.396 97.6367 105.984 97.6367 106.71C97.6367 107.435 102.951 108.023 109.506 108.023Z" fill="#AC5D00"/>
<path d="M119.172 106.71C119.172 107.196 114.845 107.591 109.506 107.591C104.167 107.591 99.8398 107.196 99.8398 106.71C99.8398 106.223 104.167 105.828 109.506 105.828C114.845 105.828 119.172 106.223 119.172 106.71Z" fill="#F49B51"/>
<g opacity="0.38">
<path d="M99.6865 63.7479V97.8232H70.0076C68.8513 97.8232 67.9043 97.0253 67.9043 96.047V65.5215C67.9043 64.5458 68.8487 63.7479 70.0076 63.7479H99.6865Z" fill="#A3B2CE"/>
</g>
<path d="M77.9185 3.65186C71.2999 3.83759 66.0861 9.35461 66.2745 15.9756C66.4602 22.5939 71.9774 27.8101 78.5986 27.6191C85.2172 27.4334 90.4336 21.9164 90.2426 15.2954C90.0569 8.67709 84.5396 3.46351 77.9185 3.65186ZM87.9039 15.3634C87.9771 17.9401 87.0406 20.3887 85.2695 22.2643C83.5011 24.1373 81.1074 25.2098 78.5306 25.2831C73.2122 25.4322 68.7623 21.2284 68.6132 15.9102C68.54 13.3335 69.4739 10.8849 71.2449 9.00931C72.9532 7.20169 75.2422 6.13962 77.717 6.00359C77.806 5.99836 77.8949 5.99574 77.9865 5.99313C83.2185 5.84402 87.6056 9.90919 87.8934 15.1018C87.8986 15.1908 87.9039 15.2771 87.9065 15.3661L87.9039 15.3634Z" fill="#AC5D00"/>
<path d="M87.8929 15.0992C87.8981 15.1882 87.9034 15.2745 87.906 15.3634C87.9792 17.9401 87.0427 20.3913 85.2716 22.2643C83.5032 24.1373 81.1095 25.2098 78.5327 25.2831C73.2143 25.4322 68.7644 21.2284 68.6153 15.9075C68.5421 13.3308 69.476 10.8797 71.2471 9.00669C72.9553 7.19907 75.2444 6.137 77.7191 5.99836C77.8081 5.99312 77.897 5.99051 77.9886 5.98789C83.2207 5.83878 87.6077 9.90396 87.8955 15.0966L87.8929 15.0992Z" fill="#F49B51"/>
<path d="M78.0576 23.0386L77.9582 21.2258C76.917 21.265 75.8209 21.0034 75.1668 20.5875L75.5305 19.3606C76.2002 19.7556 77.1524 20.0433 78.157 19.9884C79.431 19.9178 80.2524 19.133 80.1949 18.1102C80.1399 17.124 79.4074 16.5511 78.0471 16.088C76.1766 15.4707 74.9994 14.7094 74.9131 13.1477C74.8294 11.6592 75.8261 10.469 77.4637 10.108L77.3643 8.29514L78.4761 8.23236L78.5729 9.97458C79.6507 9.95104 80.4042 10.1969 80.9404 10.4742L80.5585 11.6828C80.1687 11.4892 79.4127 11.1334 78.2642 11.1988C76.883 11.2747 76.4069 12.1301 76.4461 12.8469C76.4984 13.7808 77.189 14.2098 78.7848 14.7696C80.6762 15.421 81.6599 16.3025 81.7488 17.9009C81.8273 19.3187 80.9143 20.7026 79.0831 21.1106L79.1877 22.9784L78.0576 23.0412V23.0386Z" fill="#AC5D00"/>
<path d="M87.363 12.7109C87.3394 12.635 87.3106 12.5565 87.2845 12.4807C86.3741 9.88041 84.3911 7.8112 81.8379 6.78314L81.9347 6.53986C84.556 7.59408 86.5938 9.72346 87.5252 12.376C87.5592 12.4702 87.5853 12.5487 87.6115 12.6298L87.363 12.7083V12.7109Z" fill="#00BBAB"/>
<path d="M81.8395 6.78315C79.7885 5.95651 77.4995 5.87542 75.3936 6.54772L75.3125 6.2992C77.476 5.60598 79.8278 5.6923 81.9363 6.53987L81.8395 6.78315Z" fill="#00BBAB"/>
<path d="M86.9906 20.0904L86.7578 19.9701C87.3386 18.8453 87.6839 17.6445 87.7885 16.3994L88.0501 16.4203C87.9429 17.6995 87.5871 18.9316 86.9906 20.0878V20.0904Z" fill="#00BBAB"/>
<path d="M85.5542 6.2992C84.5837 5.54058 83.5085 4.93891 82.3574 4.51513L82.4542 4.25092C83.6314 4.68516 84.7328 5.29991 85.7269 6.07946L85.5542 6.2992Z" fill="#00BBAB"/>
<path d="M85.5724 25.3119L85.4023 25.0869C88.4526 22.777 90.2106 19.1173 90.1007 15.298C90.0327 12.9254 89.2688 10.6547 87.8902 8.73463L88.1178 8.56982C89.5304 10.537 90.3126 12.86 90.3807 15.2902C90.4905 19.201 88.6933 22.947 85.5698 25.3092L85.5724 25.3119Z" fill="#00BBAB"/>
<path d="M46.555 43.8014C41.111 45.0701 37.7258 50.5112 38.992 55.9576C40.2608 61.4014 45.7021 64.7891 51.1487 63.5203C56.5927 62.2516 59.9805 56.8104 58.7117 51.364C57.4429 45.9203 52.0015 42.5352 46.555 43.8014ZM56.7889 51.8114C57.2833 53.9303 56.9197 56.1146 55.7713 57.9641C54.6228 59.8109 52.823 61.1032 50.7014 61.5976C46.3274 62.6152 41.9377 59.8868 40.9174 55.5103C40.423 53.3914 40.784 51.2071 41.935 49.3576C43.0442 47.5762 44.7604 46.31 46.7852 45.7816C46.8584 45.7633 46.9317 45.745 47.0049 45.7293C51.3083 44.7248 55.6248 47.3512 56.7366 51.5995C56.7549 51.6701 56.7732 51.7434 56.7915 51.8166L56.7889 51.8114Z" fill="#AC5D00"/>
<path d="M56.7356 51.5943C56.7539 51.6649 56.7722 51.7381 56.7905 51.8114C57.285 53.9303 56.9213 56.1172 55.7729 57.9641C54.6245 59.8109 52.8246 61.1032 50.703 61.5976C46.329 62.6152 41.9367 59.8868 40.9191 55.5103C40.4246 53.3914 40.7856 51.2071 41.9367 49.3576C43.0459 47.5762 44.762 46.31 46.7868 45.7816C46.8601 45.7633 46.9333 45.745 47.0066 45.7293C51.31 44.7248 55.6264 47.3512 56.7382 51.5995L56.7356 51.5943Z" fill="#F49B51"/>
<path d="M49.9324 59.8188L49.5452 58.3355C48.6897 58.5448 47.7401 58.5108 47.128 58.278L47.2221 57.2028C47.8421 57.4173 48.6793 57.4958 49.5033 57.2813C50.5471 57.0092 51.0939 56.2218 50.8741 55.3847C50.6622 54.5764 49.9585 54.2285 48.7578 54.0715C47.107 53.8753 46.0031 53.4437 45.6682 52.1645C45.3491 50.9455 45.9743 49.7945 47.2666 49.219L46.8794 47.7357L47.7898 47.4977L48.1639 48.9234C49.0534 48.7219 49.7152 48.8004 50.207 48.9364L50.0946 50.0011C49.7414 49.907 49.0534 49.7395 48.1142 49.9854C46.9841 50.281 46.7356 51.0684 46.8873 51.657C47.0861 52.4209 47.7297 52.6616 49.1475 52.8551C50.8218 53.0749 51.7845 53.6399 52.1272 54.9479C52.4307 56.1094 51.9075 57.4069 50.4608 58.053L50.8611 59.5807L49.935 59.824L49.9324 59.8188Z" fill="#AC5D00"/>
<path d="M55.8938 49.7082C55.8598 49.648 55.8257 49.5904 55.7891 49.5303C54.5988 47.5317 52.608 46.1531 50.3242 45.7319L50.3635 45.5148C52.71 45.9464 54.7532 47.3643 55.9696 49.4047C56.0115 49.478 56.0481 49.5381 56.0821 49.6009L55.8885 49.7082H55.8938Z" fill="#00BBAB"/>
<path d="M50.3283 45.7319C48.4918 45.3945 46.5847 45.711 44.9549 46.6214L44.8477 46.4278C46.5193 45.4913 48.4813 45.1669 50.3675 45.5122L50.3283 45.7293V45.7319Z" fill="#00BBAB"/>
<path d="M56.8291 55.8766L56.6172 55.8164C56.9076 54.7883 56.9939 53.7341 56.8683 52.6877L57.0881 52.6616C57.2163 53.7367 57.1273 54.8197 56.8291 55.8739V55.8766Z" fill="#00BBAB"/>
<path d="M53.3207 44.7065C52.3893 44.2408 51.4005 43.9243 50.375 43.7674L50.4116 43.5319C51.4607 43.6941 52.4757 44.0185 53.4279 44.4946L53.3233 44.7065H53.3207Z" fill="#00BBAB"/>
<path d="M56.5345 60.4361L56.3566 60.2792C58.4913 57.8542 59.3311 54.532 58.5986 51.3902C58.1434 49.4361 57.1284 47.6887 55.666 46.331L55.8282 46.1583C57.3272 47.5474 58.3658 49.3393 58.8314 51.3379C59.5796 54.5555 58.7242 57.9562 56.5372 60.4388L56.5345 60.4361Z" fill="#00BBAB"/>
<path d="M72.2963 95.2047H119.728C120.709 95.2047 121.504 94.4094 121.504 93.4284V62.9056C121.504 61.9246 120.709 61.1294 119.728 61.1294L72.2963 61.1294C71.3153 61.1294 70.52 61.9246 70.52 62.9056V93.4284C70.52 94.4094 71.3153 95.2047 72.2963 95.2047Z" fill="#009A8D"/>
<path d="M83.3521 81.9601H74.8134C74.5475 81.9601 74.332 82.1756 74.332 82.4414V84.0816C74.332 84.3475 74.5475 84.563 74.8134 84.563H83.3521C83.618 84.563 83.8335 84.3475 83.8335 84.0816V82.4414C83.8335 82.1756 83.618 81.9601 83.3521 81.9601Z" fill="white"/>
<path d="M94.6373 81.9601H86.0985C85.8327 81.9601 85.6172 82.1756 85.6172 82.4414V84.0816C85.6172 84.3475 85.8327 84.563 86.0985 84.563H94.6373C94.9031 84.563 95.1186 84.3475 95.1186 84.0816V82.4414C95.1186 82.1756 94.9031 81.9601 94.6373 81.9601Z" fill="white"/>
<path d="M105.926 81.9601H97.3876C97.1218 81.9601 96.9062 82.1756 96.9062 82.4414V84.0816C96.9062 84.3475 97.1218 84.563 97.3876 84.563H105.926C106.192 84.563 106.408 84.3475 106.408 84.0816V82.4414C106.408 82.1756 106.192 81.9601 105.926 81.9601Z" fill="white"/>
<path d="M117.211 81.9601H108.673C108.407 81.9601 108.191 82.1756 108.191 82.4414V84.0816C108.191 84.3475 108.407 84.563 108.673 84.563H117.211C117.477 84.563 117.693 84.3475 117.693 84.0816V82.4414C117.693 82.1756 117.477 81.9601 117.211 81.9601Z" fill="white"/>
<path d="M117.106 87.0508H105.873C105.549 87.0508 105.287 87.3131 105.287 87.6367V89.0676C105.287 89.3913 105.549 89.6536 105.873 89.6536H117.106C117.43 89.6536 117.692 89.3913 117.692 89.0676V87.6367C117.692 87.3131 117.43 87.0508 117.106 87.0508Z" fill="white"/>
<path d="M76.5 71.1877V67.7686C76.5 67.0205 77.1069 66.4136 77.8551 66.4136H84.4946C85.2428 66.4136 85.8497 67.0205 85.8497 67.7686V71.1877C85.8497 71.9358 85.2428 72.5427 84.4946 72.5427H77.8551C77.1069 72.5427 76.5 71.9358 76.5 71.1877ZM77.8551 66.7772C77.3084 66.7772 76.8636 67.2219 76.8636 67.7686V71.1877C76.8636 71.7344 77.3084 72.1791 77.8551 72.1791H84.4946C85.0414 72.1791 85.4861 71.7344 85.4861 71.1877V67.7686C85.4861 67.2219 85.0414 66.7772 84.4946 66.7772H77.8551Z" fill="white"/>
<path d="M116.115 69.0034C116.115 68.9615 116.131 68.9197 116.162 68.8856C117.656 67.3919 117.656 64.9617 116.162 63.4706C116.097 63.4053 116.097 63.3032 116.162 63.2378C116.228 63.1724 116.33 63.1724 116.395 63.2378C118.017 64.8597 118.017 67.4992 116.395 69.1185C116.33 69.1839 116.228 69.1839 116.162 69.1185C116.131 69.0871 116.115 69.0452 116.115 69.0007V69.0034Z" fill="white"/>
<path d="M115.293 64.2973C115.293 64.2554 115.309 64.2136 115.34 64.1796C115.405 64.1142 115.507 64.1142 115.573 64.1796C116.674 65.2809 116.674 67.0754 115.573 68.1767C115.507 68.2421 115.405 68.2421 115.34 68.1767C115.275 68.1113 115.275 68.0093 115.34 67.9439C116.313 66.9708 116.313 65.3855 115.34 64.4124C115.309 64.381 115.293 64.3391 115.293 64.2947V64.2973Z" fill="white"/>
<path d="M114.502 67.1879C114.502 67.146 114.518 67.1042 114.549 67.0702C115.041 66.5784 115.041 65.7779 114.549 65.2861C114.484 65.2207 114.484 65.1187 114.549 65.0533C114.614 64.9879 114.716 64.9879 114.782 65.0533C115.402 65.6733 115.402 66.683 114.782 67.303C114.716 67.3684 114.614 67.3684 114.549 67.303C114.518 67.2716 114.502 67.2298 114.502 67.1853V67.1879Z" fill="white"/>
<path d="M121.681 69.4716H121.325V62.7172C121.325 61.8357 120.608 61.1189 119.727 61.1189H105.213V60.7631H119.727C120.804 60.7631 121.678 61.6395 121.678 62.7146V69.469L121.681 69.4716Z" fill="#00BBAB"/>
<path d="M121.68 73.0188H121.324V76.9244H121.68V73.0188Z" fill="#00BBAB"/>
<path d="M88.7525 60.7657H79.4551V61.1215H88.7525V60.7657Z" fill="#00BBAB"/>
<path d="M122.629 25.6415C115.626 23.7449 108.413 27.8859 106.517 34.8914C104.62 41.8943 108.761 49.1091 115.767 51.003C122.77 52.8996 129.985 48.7586 131.879 41.7531C133.776 34.7502 129.635 27.538 122.629 25.6415ZM129.404 41.086C128.667 43.8118 126.911 46.0877 124.46 47.4924C122.011 48.8998 119.163 49.2687 116.434 48.531C110.807 47.0059 107.466 41.1906 108.991 35.5611C109.729 32.8353 111.482 30.5594 113.933 29.1521C116.295 27.7944 119.034 27.4046 121.674 28.0429C121.771 28.0664 121.862 28.0926 121.959 28.1161C127.495 29.6125 130.814 35.2655 129.475 40.8035C129.451 40.8976 129.43 40.9918 129.404 41.0834V41.086Z" fill="#AC5D00"/>
<path d="M129.478 40.8061C129.454 40.9003 129.433 40.9944 129.407 41.086C128.669 43.8118 126.914 46.0877 124.463 47.4924C122.014 48.8998 119.165 49.2687 116.437 48.531C110.81 47.0059 107.469 41.1906 108.994 35.5611C109.732 32.8353 111.485 30.5594 113.936 29.1521C116.298 27.7944 119.037 27.4046 121.677 28.0429C121.773 28.0665 121.865 28.0926 121.962 28.1162C127.5 29.6125 130.817 35.2655 129.478 40.8035V40.8061Z" fill="#F49B51"/>
<path d="M116.648 46.0249L117.117 44.0917C116.01 43.8039 114.945 43.1813 114.391 42.5404L115.16 41.3685C115.738 41.9937 116.646 42.598 117.718 42.857C119.079 43.1866 120.188 42.6215 120.449 41.5307C120.703 40.4765 120.115 39.6472 118.835 38.729C117.067 37.4917 116.073 36.3197 116.476 34.6534C116.86 33.0655 118.281 32.1316 120.112 32.2702L120.58 30.3371L121.768 30.6248L121.318 32.4821C122.458 32.7987 123.167 33.2931 123.646 33.7535L122.861 34.9019C122.516 34.5749 121.831 33.9654 120.606 33.6672C119.131 33.3114 118.364 34.0569 118.179 34.8234C117.938 35.8201 118.527 36.4871 120.026 37.5806C121.804 38.8624 122.558 40.0971 122.147 41.8027C121.781 43.3148 120.387 44.4789 118.336 44.3271L117.854 46.3179L116.648 46.0275V46.0249Z" fill="#AC5D00"/>
<path d="M129.677 38.1326C129.677 38.0437 129.672 37.9547 129.669 37.8658C129.536 34.8496 128.11 32.0505 125.756 30.167L125.934 29.9421C128.351 31.8779 129.816 34.7528 129.952 37.8344C129.957 37.9442 129.96 38.0358 129.962 38.1274L129.675 38.1326H129.677Z" fill="#00BBAB"/>
<path d="M125.753 30.167C123.862 28.6524 121.486 27.8415 119.064 27.8833L119.059 27.5982C121.546 27.5537 123.987 28.3882 125.931 29.9447L125.753 30.1697V30.167Z" fill="#00BBAB"/>
<path d="M126.951 45.7581L126.744 45.5593C127.709 44.5626 128.452 43.4116 128.955 42.1376L129.222 42.2422C128.706 43.5502 127.942 44.7326 126.951 45.7555V45.7581Z" fill="#00BBAB"/>
<path d="M129.805 30.8341C129.028 29.7302 128.089 28.7623 127.014 27.9513L127.199 27.7054C128.298 28.5347 129.258 29.5288 130.056 30.6562L129.805 30.8341Z" fill="#00BBAB"/>
<path d="M123.814 50.7885L123.707 50.5008C127.636 49.0411 130.637 45.7581 131.73 41.7164C132.411 39.2051 132.327 36.5813 131.487 34.1302L131.778 34.0308C132.636 36.5395 132.725 39.2261 132.029 41.7975C130.909 45.9359 127.838 49.2974 123.814 50.7911V50.7885Z" fill="#00BBAB"/>
<path d="M89.2391 65.7151L98.4658 71.962L105.851 64.0514L102.385 64.3993C102.343 64.1612 102.29 63.9258 102.243 63.6877L102.17 63.3346C102.157 63.2744 102.147 63.2169 102.131 63.1593L101.867 62.1339C101.05 59.2485 99.6692 56.5828 97.8667 54.3096C96.0669 52.0337 93.8433 50.1502 91.3764 48.7795C88.9121 47.4061 86.2097 46.5559 83.5047 46.2499C80.7997 45.936 78.0634 46.174 75.5232 46.9091C72.9804 47.6442 70.6338 48.871 68.643 50.472C66.6496 52.0703 65.0067 54.0349 63.8217 56.2035C62.634 58.3695 61.9093 60.7343 61.6582 63.1018C62.3515 60.8207 63.479 58.7227 64.9413 56.9543C66.4011 55.1833 68.1878 53.7445 70.1394 52.7139C72.0909 51.6806 74.2073 51.0632 76.3158 50.8749C78.4244 50.6839 80.5198 50.9219 82.4609 51.5393C84.4046 52.1541 86.1678 53.135 87.6459 54.3907C89.124 55.6437 90.3169 57.1688 91.1592 58.8247C92.0016 60.4806 92.4045 62.2778 92.6504 64.0226C92.7053 64.4071 92.7759 65.3907 92.7759 65.3907L89.2443 65.7099L89.2391 65.7151Z" fill="#00BBAB"/>
<path d="M111.252 30.2403C112.225 30.7347 112.895 31.4933 113.353 32.4429C113.81 31.4933 114.483 30.7295 115.456 30.2351C114.483 29.7407 113.81 28.982 113.353 28.0324C112.895 28.982 112.225 29.7459 111.252 30.2403Z" fill="#FFE6A6"/>
<path d="M120.66 48.3086C121.225 48.5964 121.615 49.0358 121.882 49.5878C122.149 49.0358 122.538 48.5911 123.104 48.306C122.538 48.0182 122.149 47.5788 121.882 47.0268C121.615 47.5788 121.228 48.0235 120.66 48.3086Z" fill="#FFE6A6"/>
<path d="M82.0547 22.8398C82.7479 23.1929 83.2241 23.7318 83.5511 24.4094C83.8781 23.7318 84.3568 23.1877 85.05 22.8372C84.3568 22.484 83.8781 21.9451 83.5511 21.2676C83.2241 21.9451 82.7479 22.4893 82.0547 22.8398Z" fill="#FFE6A6"/>
<path d="M40.6211 50.1685C41.1809 50.4537 41.5655 50.8879 41.8271 51.4347C42.0887 50.8879 42.4759 50.4511 43.0357 50.1659C42.4759 49.8808 42.0913 49.4465 41.8271 48.8998C41.5655 49.4465 41.1809 49.8834 40.6211 50.1685Z" fill="#FFE6A6"/>
<path d="M79.5605 25.4531C79.9634 25.6572 80.2407 25.9711 80.4291 26.3661C80.6174 25.9737 80.8973 25.6572 81.3002 25.4531C80.8973 25.2491 80.62 24.9352 80.4291 24.5402C80.2407 24.9326 79.9634 25.2491 79.5605 25.4531Z" fill="#FFE6A6"/>
<path d="M5.96583 65.4561L5.70423 65.5555C3.74743 60.3995 4.05874 54.8249 6.68001 48.013L6.94161 48.115C4.34389 54.8589 4.0352 60.3681 5.96583 65.4561Z" fill="#00BBAB"/>
<path d="M5.15973 69.448L4.92167 69.5945C-0.710657 60.4884 2.5777 51.1129 6.53315 43.1421L6.78429 43.2677C2.86023 51.1678 -0.399348 60.4571 5.15973 69.448Z" fill="#00BBAB"/>
<path d="M124.704 12.5748C120.187 6.93485 115.585 3.88989 110.217 2.99262L110.264 2.71533C115.703 3.62306 120.362 6.69941 124.924 12.3969L124.704 12.5722V12.5748Z" fill="#00BBAB"/>
<path d="M128.968 14.8821C124.121 7.51299 117.74 0.0156934 107.174 0.287751L107.166 0.00784552C117.868 -0.266828 124.312 7.29325 129.204 14.7278L128.968 14.8821Z" fill="#00BBAB"/>
<path d="M90.9765 58.9189C90.1368 57.2682 88.9386 55.7562 87.5103 54.545C86.0453 53.2998 84.2768 52.3267 82.3933 51.7303C80.4705 51.1155 78.3724 50.8879 76.3267 51.0737C75.3117 51.1652 74.2967 51.3562 73.3052 51.6439L73.1953 51.2672C74.2103 50.9716 75.2515 50.7754 76.2901 50.6839C78.3881 50.4955 80.5411 50.7284 82.511 51.3588C84.4417 51.9709 86.2598 52.9702 87.7614 54.2494C89.229 55.492 90.4585 57.0459 91.3218 58.7436L90.9713 58.9215L90.9765 58.9189Z" fill="#00BBAB"/>
<path d="M65.0886 57.0799L64.7852 56.8314C66.2318 55.0787 68.05 53.5954 70.0434 52.5438L70.2265 52.8917C68.2802 53.9198 66.5013 55.369 65.0886 57.0825V57.0799Z" fill="#00BBAB"/>
<path d="M101.673 62.1888C100.88 59.3845 99.5096 56.7032 97.7098 54.4325C95.9492 52.2064 93.7229 50.3124 91.2769 48.9521C88.8859 47.6206 86.1887 46.7521 83.4785 46.4461L83.523 46.0563C86.2855 46.3702 89.035 47.2518 91.4679 48.6094C93.9584 49.9933 96.2238 51.9238 98.0158 54.1892C99.8471 56.4991 101.241 59.2302 102.05 62.0815L101.673 62.1888Z" fill="#00BBAB"/>
<path d="M98.4895 72.2209L91.4707 67.4651L91.6904 67.1408L98.432 71.7056L103.933 65.8145L104.221 66.0813L98.4895 72.2209Z" fill="#00BBAB"/>
</g>
<defs>
<clipPath id="clip0_288_794">
<rect width="159" height="129" fill="white"/>
</clipPath>
</defs>
</svg>
