<svg width="38" height="38" viewBox="0 0 38 38" fill="none" xmlns="http://www.w3.org/2000/svg">
<path d="M20.2685 18.351L28.8199 30.5825H25.3104L18.3323 20.6015V20.6009L17.3078 19.1357L9.15625 7.47559H12.6658L19.2441 16.8858L20.2685 18.351Z" fill="#007167"/>
<path d="M33.894 0H4.10598C1.83837 0 0 1.83837 0 4.10598V33.894C0 36.1616 1.83837 38 4.10598 38H33.894C36.1616 38 38 36.1616 38 33.894V4.10598C38 1.83837 36.1616 0 33.894 0ZM24.2376 32.2247L17.1762 21.9477L8.33522 32.2247H6.05027L16.1616 20.4717L6.05027 5.75575H13.7624L20.4491 15.4874L28.8208 5.75575H31.1058L21.464 16.9637H21.4633L31.9497 32.2247H24.2376Z" fill="#007167"/>
</svg>
