<svg width="53" height="38" viewBox="0 0 53 38" fill="none" xmlns="http://www.w3.org/2000/svg">
<path d="M51.863 5.80154C51.2528 3.53295 49.4641 1.74467 47.1959 1.1338C43.052 -7.89078e-08 26.4764 0 26.4764 0C26.4764 0 9.90143 0 5.7576 1.09085C3.53295 1.70107 1.70074 3.53336 1.09052 5.80154C0 9.94503 0 18.5382 0 18.5382C0 18.5382 0 27.1746 1.09052 31.2748C1.70132 33.543 3.48935 35.3314 5.75793 35.9422C9.94503 37.0763 26.4771 37.0763 26.4771 37.0763C26.4771 37.0763 43.052 37.0763 47.1959 35.9855C49.4645 35.3749 51.2528 33.5866 51.8636 31.3184C52.9538 27.1746 52.9538 18.5818 52.9538 18.5818C52.9538 18.5818 52.9974 9.94495 51.863 5.80154ZM21.199 26.4768V10.5994L34.9825 18.5381L21.199 26.4768Z" fill="#007167"/>
</svg>
