<svg width="24" height="24" viewBox="0 0 24 24" fill="none" xmlns="http://www.w3.org/2000/svg">
<path d="M12 24C18.6274 24 24 18.6274 24 12C24 5.37258 18.6274 0 12 0C5.37258 0 0 5.37258 0 12C0 18.6274 5.37258 24 12 24Z" fill="#6645EC"/>
<path d="M15.5303 14.6572C15.6709 14.7979 15.7498 14.9886 15.7498 15.1875C15.7498 15.3864 15.6709 15.5771 15.5303 15.7178L12.5303 18.7178C12.4611 18.7894 12.3783 18.8465 12.2868 18.8858C12.1953 18.9251 12.0969 18.9458 11.9973 18.9467C11.8977 18.9476 11.799 18.9286 11.7068 18.8909C11.6146 18.8532 11.5309 18.7975 11.4605 18.727C11.39 18.6566 11.3343 18.5729 11.2966 18.4807C11.2589 18.3885 11.2399 18.2898 11.2408 18.1902C11.2417 18.0906 11.2624 17.9922 11.3017 17.9007C11.341 17.8092 11.3981 17.7264 11.4698 17.6572L14.4697 14.6572C14.6104 14.5166 14.8011 14.4377 15 14.4377C15.1989 14.4377 15.3896 14.5166 15.5303 14.6572ZM11.25 5.4375C11.8409 5.4375 12.4261 5.5539 12.9721 5.78004C13.518 6.00619 14.0141 6.33766 14.432 6.75552C14.8498 7.17338 15.1813 7.66946 15.4075 8.21542C15.6336 8.76139 15.75 9.34655 15.75 9.9375C15.75 10.5284 15.6336 11.1136 15.4075 11.6596C15.1813 12.2055 14.8498 12.7016 14.432 13.1195C14.0141 13.5373 13.518 13.8688 12.9721 14.095C12.4261 14.3211 11.8409 14.4375 11.25 14.4375C10.0565 14.4375 8.91193 13.9634 8.06802 13.1195C7.22411 12.2756 6.75 11.131 6.75 9.9375C6.75 8.74403 7.22411 7.59943 8.06802 6.75552C8.91193 5.91161 10.0565 5.4375 11.25 5.4375ZM11.25 6.9375C10.4544 6.9375 9.69129 7.25357 9.12868 7.81618C8.56607 8.37879 8.25 9.14185 8.25 9.9375C8.25 10.7331 8.56607 11.4962 9.12868 12.0588C9.69129 12.6214 10.4544 12.9375 11.25 12.9375C12.0456 12.9375 12.8087 12.6214 13.3713 12.0588C13.9339 11.4962 14.25 10.7331 14.25 9.9375C14.25 9.14185 13.9339 8.37879 13.3713 7.81618C12.8087 7.25357 12.0456 6.9375 11.25 6.9375ZM16.5 5.4375C16.6989 5.4375 16.8897 5.51652 17.0303 5.65717C17.171 5.79782 17.25 5.98859 17.25 6.1875C17.25 6.38641 17.171 6.57718 17.0303 6.71783C16.8897 6.85848 16.6989 6.9375 16.5 6.9375C16.3011 6.9375 16.1103 6.85848 15.9697 6.71783C15.829 6.57718 15.75 6.38641 15.75 6.1875C15.75 5.98859 15.829 5.79782 15.9697 5.65717C16.1103 5.51652 16.3011 5.4375 16.5 5.4375Z" fill="white"/>
</svg>
